<?xml version="1.0" encoding="UTF-8" standalone="no"?>
<!-- Created with Inkscape (http://www.inkscape.org/) -->

<svg
   width="214.00722mm"
   height="262.47815mm"
   viewBox="0 0 214.00722 262.47815"
   version="1.1"
   id="svg1"
   xml:space="preserve"
   inkscape:version="1.4.2 (f4327f4, 2025-05-13)"
   sodipodi:docname="WoodenDreamsLogo.svg"
   xmlns:inkscape="http://www.inkscape.org/namespaces/inkscape"
   xmlns:sodipodi="http://sodipodi.sourceforge.net/DTD/sodipodi-0.dtd"
   xmlns="http://www.w3.org/2000/svg"
   xmlns:svg="http://www.w3.org/2000/svg"><sodipodi:namedview
     id="namedview1"
     pagecolor="#ffffff"
     bordercolor="#000000"
     borderopacity="0.25"
     inkscape:showpageshadow="2"
     inkscape:pageopacity="0.0"
     inkscape:pagecheckerboard="0"
     inkscape:deskcolor="#d1d1d1"
     inkscape:document-units="mm"
     inkscape:clip-to-page="false"
     inkscape:zoom="0.48693448"
     inkscape:cx="168.40048"
     inkscape:cy="537.03324"
     inkscape:window-width="1920"
     inkscape:window-height="991"
     inkscape:window-x="-9"
     inkscape:window-y="-9"
     inkscape:window-maximized="1"
     inkscape:current-layer="layer1" /><defs
     id="defs1" /><g
     inkscape:label="Layer 1"
     inkscape:groupmode="layer"
     id="layer1"
     transform="translate(3.3687055,-15.26723)"><path
      style="fill:#f4ece0;fill-opacity:1"
       d="m 93.339608,277.61461 c -9.18217,-0.44241 -16.21415,-1.29901 -24.13091,-2.9395 -12.12124,-2.51174 -24.26641,-7.6148 -34.63364,-14.55211 -10.13409,-6.78129 -19.05945,-16.48194 -25.3190695,-27.51838 -6.98443,-12.31435 -11.10474,-26.86486 -12.35223,-43.62076 -0.36107,-4.8498 -0.36415,-71.59166 -0.004,-78.32756 0.97439,-18.204535 4.6208,-32.931802 11.5297,-46.566655 10.3661995,-20.4579 26.6291895,-34.775279 47.9978595,-42.255677 11.65434,-4.079763 22.79873,-5.856343 40.35754,-6.433582 31.869242,-1.047691 54.857752,4.058809 73.485852,16.323616 4.92072,3.239818 8.27074,6.010219 12.89455,10.663519 13.69644,13.783825 21.87847,30.548568 25.50619,52.261494 0.68907,4.12429 1.01434,6.958695 1.51816,13.229165 0.42923,5.34211 0.62849,67.09393 0.24375,75.53854 -0.62412,13.69869 -1.98251,22.35178 -4.96346,31.61771 -6.49929,20.20233 -19.40211,36.9021 -36.61318,47.38742 -14.0063,8.53292 -28.98079,13.14377 -48.00084,14.7801 -5.47658,0.47116 -21.359012,0.70935 -27.516662,0.41266 z m 28.575002,-6.47269 c 15.61925,-1.5925 26.05815,-4.46918 38.00045,-10.47192 12.71773,-6.39251 22.38515,-14.90639 30.0374,-26.45328 5.34287,-8.06213 9.13533,-16.8502 11.47511,-26.59062 2.90509,-12.09381 3.42695,-20.55418 3.42727,-55.5625 3.5e-4,-37.81793 -0.51846,-49.05054 -2.78753,-60.351943 -2.88254,-14.356912 -7.85437,-25.891 -15.72729,-36.485554 -9.77794,-13.158138 -22.36794,-22.210766 -38.62854,-27.77521 -8.86772,-3.03457 -16.696,-4.543322 -28.97187,-5.583776 -7.01922,-0.59492 -24.686962,-0.597722 -31.088542,-0.0049 -20.59978,1.90753 -34.83939,6.482514 -48.31279,15.522182 C 19.315558,50.818176 6.8443785,73.19536 3.6635785,101.39589 c -1.02382,9.07705 -1.07605,11.44015 -1.07605,48.68333 0,33.26428 0.041,36.76545 0.47859,40.87813 1.6621,15.62114 4.92155,27.01532 10.8195195,37.82222 11.91546,21.8328 33.72627,36.34646 61.63288,41.01266 10.36573,1.73323 14.60056,1.98933 30.653382,1.85376 7.97682,-0.0674 13.05389,-0.22993 15.74271,-0.50407 z m -15.08125,-19.28644 c -0.50588,-0.38169 -0.52564,-0.65926 -0.4491,-6.30703 0.0581,-4.28942 0.17096,-5.99989 0.41187,-6.24405 0.54341,-0.55073 3.2354,-0.87216 4.69062,-0.56008 1.75698,0.37681 2.62265,1.405 2.62265,3.11505 0,0.68862 -0.16555,1.47844 -0.36788,1.75515 -0.3252,0.44474 -0.28917,0.60631 0.31054,1.39258 0.9856,1.29218 1.10953,3.31323 0.27934,4.55545 -1.26634,1.89486 -6.07621,3.36573 -7.49804,2.29293 z m 4.50641,-2.94088 c 0.70358,-0.29398 0.91755,-0.53919 0.91755,-1.05154 0,-0.76376 -1.23402,-1.56304 -2.20072,-1.42542 -0.47797,0.068 -0.59176,0.28272 -0.66072,1.24661 -0.1153,1.61162 0.34066,1.90022 1.94389,1.23035 z m -0.95346,-5.0308 c 1.18809,-0.61439 1.41453,-1.65689 0.54809,-2.52333 -0.63291,-0.63291 -1.7318,-0.69508 -1.95607,-0.11065 -0.27328,0.71216 -0.17709,2.36957 0.1569,2.70357 0.39408,0.39407 0.34968,0.39654 1.25108,-0.0696 z m -18.396152,7.87527 c -0.85023,-0.61958 -0.88831,-1.29502 -0.37943,-6.72968 0.27761,-2.96471 0.58281,-5.59383 0.67823,-5.84249 0.34226,-0.89192 1.72806,-0.9098 4.37794,-0.0565 2.29431,0.73882 3.684172,2.95352 3.684172,5.87065 0,2.95671 -1.101822,4.81981 -3.562322,6.02362 -1.45749,0.71308 -4.24287,1.13936 -4.79859,0.73439 z m 4.34811,-3.43527 c 1.35649,-0.85664 1.84708,-4.18833 0.85605,-5.8136 -0.52688,-0.86409 -1.95985,-1.43063 -2.42982,-0.96066 -0.36682,0.36682 -0.76356,6.46006 -0.45782,7.03133 0.27922,0.52174 0.92843,0.43959 2.03159,-0.25707 z m -12.00404,2.82904 c -3.05397,-0.44873 -3.19569,-0.66891 -2.64267,-4.10566 0.79887,-4.96451 1.70154,-8.71576 2.18586,-9.08388 0.33411,-0.25395 0.95405,-0.31043 2.18615,-0.19918 3.49786,0.31584 4.56996,0.98056 3.91168,2.42533 -0.32087,0.70423 -0.34425,0.70974 -2.35434,0.55473 -1.93422,-0.14915 -2.03767,-0.12889 -2.18706,0.4283 -0.39149,1.46022 -0.23697,1.73248 1.09274,1.92539 1.75375,0.25442 2.18281,0.53246 2.18281,1.41451 0,1.11628 -0.53097,1.40058 -2.42978,1.30097 l -1.66324,-0.0873 -0.16602,1.19063 c -0.094,0.6744 -0.0549,1.2623 0.0903,1.35595 0.14099,0.0909 0.88837,0.2396 1.66085,0.33039 1.96771,0.23127 2.2433,0.38008 2.2433,1.21138 0,1.46694 -1.00615,1.79454 -4.11059,1.3384 z m 35.377102,-0.34462 c -0.15603,-0.18801 -0.4549,-1.49236 -0.66415,-2.89856 -0.32102,-2.15733 -0.5574,-2.85823 -1.51322,-4.48681 -2.32448,-3.96062 -2.52031,-4.39535 -2.20725,-4.90007 0.1602,-0.25828 0.59144,-0.5058 0.95831,-0.55005 0.53065,-0.064 0.96258,0.25132 2.11242,1.54216 l 1.44538,1.62261 0.96919,-1.84437 c 0.53305,-1.0144 1.1648,-1.91943 1.40389,-2.01118 1.17153,-0.44956 2.04271,0.84518 1.48498,2.20695 -0.15339,0.37452 -0.71476,1.7254 -1.24748,3.00197 -0.94446,2.2632 -0.96653,2.39359 -0.88598,5.23417 0.0671,2.36519 0.008,2.96053 -0.31427,3.16503 -0.5582,0.35426 -1.20853,0.31974 -1.54182,-0.0819 z m -45.501092,-1.034 c -0.4682,-0.4682 -0.39407,-1.59521 0.364,-5.53413 1.1076,-5.75504 1.0981,-5.44122 0.17078,-5.64489 -1.09123,-0.23967 -1.75022,-1.01693 -1.54738,-1.82509 0.0888,-0.35362 0.33772,-0.71061 0.55327,-0.79333 0.45709,-0.1754 4.12767,0.43478 6.14731,1.0219 1.53932,0.44749 1.98272,1.16163 1.39874,2.2528 -0.27257,0.50931 -0.46231,0.56575 -1.44784,0.43067 l -1.13415,-0.15545 -0.40787,1.64449 c -0.22434,0.90447 -0.66444,3.07324 -0.978,4.81949 -0.31989,1.78147 -0.75262,3.37822 -0.98592,3.63802 -0.47752,0.53177 -1.66564,0.61282 -2.13294,0.14552 z m 57.165952,-0.5424 c -0.36758,-0.46668 -0.50834,-1.15671 -1.25755,-6.16461 -0.92305,-6.16987 -0.89665,-6.59875 0.43535,-7.07145 0.76718,-0.27226 1.30295,0.4364 1.76183,2.33039 l 0.4467,1.84369 1.19063,0.0689 c 1.79149,0.10372 1.85437,4e-5 1.53192,-2.52582 -0.25104,-1.96646 -0.23154,-2.23903 0.19382,-2.70905 0.76538,-0.84574 1.67644,-0.67673 2.12382,0.39398 0.42602,1.01963 1.97127,9.71137 1.97127,11.08807 0,0.99017 -0.66738,1.75369 -1.53288,1.75369 -0.71571,0 -0.97955,-0.5025 -1.38921,-2.64584 -0.49094,-2.56857 -0.569,-2.66298 -2.04499,-2.47334 -0.68785,0.0884 -1.34677,0.24735 -1.46427,0.35327 -0.11751,0.10592 -0.0705,1.21611 0.10454,2.46709 0.28275,2.02121 0.26903,2.34952 -0.12318,2.94812 -0.47498,0.72491 -1.50419,0.90609 -1.9478,0.34288 z m -68.454082,-2.03994 c -0.35716,-0.39464 -0.42801,-0.75823 -0.29647,-1.52135 0.14902,-0.86451 1.58677,-7.19742 2.31401,-10.19254 0.36718,-1.51227 0.94051,-1.67509 3.48743,-0.9904 1.1871,0.31913 2.35185,0.68262 2.58834,0.80776 0.62621,0.33137 0.76258,1.18212 0.29622,1.84794 -0.36198,0.51681 -0.57429,0.5643 -1.9608,0.43857 -1.18551,-0.1075 -1.65115,-0.0447 -1.96015,0.26429 -0.70035,0.70034 -0.35029,1.42324 0.91668,1.89302 1.42093,0.52686 1.81606,1.31637 1.10087,2.1996 -0.46444,0.57355 -0.55288,0.58703 -1.7504,0.26674 -1.52332,-0.40742 -1.49654,-0.43858 -2.06685,2.40483 -0.58507,2.91704 -1.53432,3.83522 -2.66888,2.58154 z m 79.373672,-0.79521 c -0.44301,-0.48951 -0.46417,-0.97111 -0.29362,-6.68447 0.15836,-5.30517 0.24934,-6.24845 0.65761,-6.8184 0.66975,-0.93497 1.85894,-1.00394 2.70595,-0.15693 0.77972,0.77972 5.78534,10.55775 5.78534,11.30114 0,0.27984 -0.28259,0.63756 -0.62799,0.79494 -0.84442,0.38474 -1.57702,-0.0288 -2.4219,-1.36719 -0.3635,-0.57583 -0.75727,-1.04696 -0.87504,-1.04696 -0.11777,0 -0.77112,0.18979 -1.45189,0.42175 l -1.23776,0.42175 v 1.39794 c 0,1.42635 -0.20985,1.78908 -1.21238,2.09555 -0.37117,0.11346 -0.70668,-0.004 -1.02832,-0.35912 z m 3.54217,-6.07568 c 0.32099,-0.20317 0.31061,-0.40731 -0.0715,-1.40794 -0.24582,-0.64368 -0.61934,-1.39813 -0.83003,-1.67656 -0.34589,-0.45708 -0.3839,-0.32001 -0.39149,1.412 -0.007,1.65521 0.0551,1.91767 0.4546,1.91418 0.25466,-0.002 0.63196,-0.11098 0.83845,-0.24168 z m -86.968432,5.6541 c -0.48346,-0.33863 -0.5872,-0.66409 -0.5872,-1.84219 0,-1.5735 -0.19347,-1.79273 -1.85695,-2.10418 -0.83003,-0.1554 -0.96882,-0.0917 -1.40272,0.64401 -0.71106,1.20564 -1.53921,1.67182 -2.39316,1.34715 -1.11823,-0.42515 -0.89772,-1.37791 1.072,-4.6317 4.69531,-7.75624 5.62164,-8.5925 7.24982,-6.54488 0.54117,0.68059 0.55844,0.88686 0.39191,4.68071 -0.14877,3.38929 -0.59402,8.36118 -0.76055,8.49265 -0.38976,0.3077 -1.24409,0.28697 -1.71315,-0.0416 z m -0.32261,-7.52504 c 0,-0.7276 -0.11665,-1.32291 -0.25921,-1.32291 -0.35457,0 -1.38675,2.07261 -1.1904,2.39032 0.0868,0.14053 0.44855,0.25551 0.80376,0.25551 0.59862,0 0.64585,-0.0967 0.64585,-1.32292 z m 94.761002,5.05752 c -0.395,-0.25033 -0.85442,-1.78687 -2.44798,-8.18742 -1.02647,-4.12285 -1.05465,-4.34379 -0.61585,-4.82865 0.90365,-0.99852 1.62237,-0.66374 4.44737,2.07157 1.8389,1.78052 2.69042,2.44858 2.74868,2.15647 0.0464,-0.23277 -0.27806,-1.55477 -0.72108,-2.93778 -0.44302,-1.38301 -0.80549,-2.75556 -0.80549,-3.05011 0,-0.73877 0.61928,-1.18409 1.50536,-1.08249 0.6299,0.0722 0.83302,0.31118 1.32837,1.5627 0.76996,1.9453 3.25169,10.22956 3.25169,10.85444 0,0.72002 -1.16703,1.39066 -2.03912,1.17178 -0.39813,-0.0999 -1.8776,-1.31799 -3.30922,-2.72453 -1.42404,-1.39909 -2.58916,-2.41709 -2.58916,-2.26223 0,0.15486 0.35719,1.44195 0.79375,2.86019 0.85816,2.78788 0.97182,3.81714 0.47625,4.31271 -0.36676,0.36676 -1.50254,0.41354 -2.02357,0.0833 z M 48.669358,242.46778 c -0.60451,-0.66797 -0.96611,-1.99126 -0.98897,-3.61911 -0.0102,-0.72856 -0.1171,-1.56278 -0.23749,-1.85383 -0.1946,-0.47044 -0.26745,-0.41638 -0.6565,0.48718 -0.24069,0.55899 -0.64283,1.57103 -0.89365,2.24896 -0.39713,1.07341 -0.56413,1.24317 -1.29298,1.31431 -0.65157,0.0636 -0.93262,-0.0643 -1.26884,-0.57744 -0.41219,-0.62909 -0.38432,-0.78964 0.6112,-3.52128 0.5737,-1.57418 1.43184,-4.05277 1.90698,-5.50798 1.19516,-3.66039 1.44483,-4.10104 2.32361,-4.10104 1.57299,0 4.61084,2.30808 5.4977,4.177 0.89,1.87552 -0.37795,4.80075 -2.26007,5.21413 -1.20477,0.26461 -1.41665,0.71453 -1.21534,2.58061 0.36551,3.38818 0.35345,3.49808 -0.39316,3.58506 -0.40796,0.0475 -0.85626,-0.12133 -1.13249,-0.42657 z m 2.2538,-8.6502 c 0.35036,-0.76894 -0.002,-1.65981 -0.86968,-2.202 -0.68738,-0.42927 -0.91468,-0.25778 -1.69232,1.27681 -0.73125,1.44305 -0.66512,1.53486 1.12944,1.56802 0.95992,0.0178 1.1757,-0.0791 1.43256,-0.64283 z m -13.68968,4.90793 c -0.81086,-0.3284 -2.13455,-1.94906 -2.5025,-3.06395 -0.60468,-1.83221 0.26262,-4.95032 2.17241,-7.81025 1.77525,-2.65846 3.79434,-3.55857 5.96461,-2.65903 0.96404,0.39958 1.92057,1.75076 1.92057,2.71294 0,0.68016 -0.66504,1.81358 -1.06413,1.81358 -0.1322,0 -0.64719,-0.35718 -1.1444,-0.79375 -0.49722,-0.43656 -1.14705,-0.79375 -1.44406,-0.79375 -0.75961,0 -2.06195,1.3909 -2.94221,3.14227 -1.69018,3.36278 -1.19106,4.74283 1.64735,4.55484 1.22236,-0.081 1.77245,0.32621 1.77245,1.31192 0,1.08898 -1.08253,1.84317 -2.61537,1.82212 -0.6716,-0.009 -1.46572,-0.11585 -1.76472,-0.23694 z m 127.583562,-0.73848 c -0.70878,-1.39181 -3.61181,-10.16488 -3.61181,-10.91501 0,-2.04684 3.85298,-3.1585 6.65356,-1.91967 2.2816,1.00926 4.16393,4.16965 4.18373,7.02439 0.017,2.44502 -0.9818,3.94321 -3.81149,5.71742 -1.70348,1.06809 -2.90078,1.10066 -3.41399,0.0929 z m 3.54964,-3.52468 c 0.92778,-0.99319 1.19895,-2.26134 0.77017,-3.60182 -0.73588,-2.30061 -1.99796,-3.52779 -3.619,-3.51893 -1.51427,0.008 -1.57015,0.26482 -0.61351,2.81685 1.34064,3.57646 2.06242,5.1166 2.39789,5.1166 0.1679,0 0.64691,-0.36571 1.06445,-0.8127 z M 29.839608,230.51891 c -2.11306,-0.54324 -3.41509,-1.61762 -3.26294,-2.69244 0.13228,-0.93439 1.90154,-0.99161 3.79911,-0.12287 1.63835,0.75006 2.22082,1.59511 1.7307,2.5109 -0.3144,0.58748 -0.87367,0.66258 -2.26687,0.30441 z m 144.771182,-0.9765 c -0.39817,-0.39816 -0.13297,-1.47661 0.50952,-2.07206 0.86171,-0.7986 3.10034,-1.55888 3.95702,-1.34387 0.84359,0.21173 0.87082,1.24297 0.0534,2.0235 -1.15649,1.10432 -3.94809,1.96431 -4.51996,1.39243 z M 33.940658,215.02508 c -1.93911,-0.54196 -2.68581,-1.31562 -2.84114,-2.94366 -0.0672,-0.70418 0.12396,-3.72111 0.42477,-6.70428 0.3008,-2.98318 0.74322,-7.92427 0.98315,-10.98021 0.50288,-6.40513 0.68856,-6.94789 2.63059,-7.68956 1.46767,-0.56051 4.37843,-0.36195 7.94062,0.54168 4.9113,1.24585 7.92537,3.35077 9.57536,6.68707 0.90281,1.82548 1.00698,2.25681 1.09105,4.51756 0.27662,7.43877 -4.1066,13.58818 -11.44027,16.05001 -2.54131,0.85309 -6.33191,1.08938 -8.36413,0.52139 z m 5.60937,-4.91445 c 1.94168,-0.40657 4.83198,-1.96996 5.85802,-3.16866 1.1023,-1.28779 1.89549,-2.88867 2.41003,-4.86411 1.09475,-4.20304 -0.14385,-7.57144 -3.3316,-9.06037 -2.0549,-0.9598 -5.796,-1.49116 -6.1755,-0.87713 -0.0873,0.14134 -0.44643,3.56438 -0.79797,7.60677 -0.35153,4.04239 -0.69789,7.91276 -0.76969,8.60082 -0.0943,0.90408 -0.0189,1.36267 0.27209,1.65364 0.48078,0.48078 0.71182,0.49072 2.53462,0.10904 z m 32.8875,4.907 c -1.01541,-0.52503 -2.8756,-2.32081 -3.84287,-3.70982 -0.41395,-0.59443 -1.36215,-2.28507 -2.10711,-3.75699 -1.41945,-2.80459 -1.79367,-3.13922 -3.1721,-2.83647 -0.94738,0.20808 -0.95588,0.23679 -1.33134,4.49925 -0.16663,1.89177 -0.42898,3.77104 -0.58299,4.17615 -0.65555,1.72444 -2.72813,2.31521 -4.07075,1.16034 -1.02877,-0.88491 -1.06803,-2.38271 -0.24735,-9.43754 0.38089,-3.27422 0.93293,-8.20561 1.22676,-10.95866 0.29383,-2.75304 0.70027,-5.32659 0.9032,-5.719 0.70437,-1.36211 1.95218,-1.71171 6.0808,-1.70363 3.08128,0.006 4.01561,0.10607 5.55625,0.59495 3.86083,1.22513 5.70805,3.54191 5.71953,7.17343 0.0111,3.51401 -1.4097,5.98228 -4.48772,7.79621 -1.33065,0.78418 -1.4923,0.97227 -1.45943,1.6982 0.0501,1.10633 2.20953,4.66642 4.10308,6.76446 1.27514,1.41284 1.5485,1.88148 1.5485,2.65478 0,1.78793 -1.92473,2.59282 -3.83646,1.60434 z m -6.30739,-15.30202 c 2.97896,-0.79316 4.22393,-1.99087 4.49172,-4.32122 0.19836,-1.7261 -0.6009,-2.91198 -2.42428,-3.59697 -1.44536,-0.54297 -4.26901,-0.48775 -4.62638,0.0905 -0.10624,0.1719 -0.27897,1.93153 -0.38383,3.91029 -0.17361,3.27597 -0.14849,3.62858 0.28084,3.94251 0.59061,0.43187 0.95872,0.4284 2.66193,-0.0251 z m 35.411552,15.53041 c -0.29104,-0.0737 -0.75094,-0.33 -1.02201,-0.56964 -1.047812,-0.92633 -0.2233,-3.80736 5.1181,-17.88385 3.46684,-9.13634 4.04233,-9.93623 7.1487,-9.93623 2.02657,0 2.8298,0.54276 3.72498,2.51703 1.51581,3.34306 3.15419,14.11998 3.15419,20.74765 0,3.72947 -0.026,3.91964 -0.61237,4.47045 -0.84991,0.79845 -2.5548,0.78423 -3.50047,-0.0292 -0.62292,-0.53582 -0.74018,-0.91607 -1.03212,-3.34703 -0.41477,-3.45383 -0.52002,-3.55524 -3.454,-3.32828 -3.66124,0.28321 -3.50827,0.1997 -4.53877,2.47782 -1.51051,3.3393 -1.78216,3.8123 -2.47269,4.30558 -0.75973,0.54272 -1.74877,0.76925 -2.51354,0.5757 z m 11.61691,-12.59619 c 0.43243,-0.3162 0.447,-0.52731 0.16884,-2.44739 -0.46429,-3.20484 -0.85668,-5.14443 -1.06708,-5.27446 -0.10459,-0.0646 -0.78846,1.51584 -1.51971,3.51217 -0.73126,1.99633 -1.41627,3.83805 -1.52225,4.09272 -0.17268,0.41491 -0.003,0.46302 1.63712,0.46302 1.08946,0 2.02131,-0.14002 2.30308,-0.34606 z m 35.74351,12.53135 c -1.54614,-0.63282 -1.96271,-2.56554 -1.97621,-9.16881 -0.009,-4.6324 -0.25595,-8.08518 -0.56359,-7.89505 -0.118,0.0729 -1.32122,2.29784 -2.67383,4.94425 -2.81561,5.50879 -3.83932,6.81348 -5.34613,6.81348 -2.06565,0 -2.28574,-0.35467 -3.94107,-6.351 -0.66299,-2.40164 -1.34497,-4.72336 -1.51549,-5.15937 l -0.31005,-0.79275 -0.26339,0.66146 c -0.36894,0.92652 -1.84135,6.0578 -2.99892,10.45104 -1.23513,4.68756 -1.58292,5.54557 -2.39854,5.91719 -0.99521,0.45345 -2.35303,0.3615 -3.05274,-0.20674 -1.11634,-0.90658 -0.8325,-2.81757 1.7484,-11.77128 4.1222,-14.30084 4.45338,-15.0799 6.55229,-15.41352 1.29066,-0.20515 2.31639,0.24613 3.02046,1.32886 0.71448,1.09876 1.90703,4.81975 3.001,9.36372 0.4642,1.92815 0.93259,3.50573 1.04086,3.50573 0.10827,0 0.86808,-1.46384 1.68846,-3.25297 2.19594,-4.78901 4.45079,-8.81822 5.59428,-9.99642 0.85308,-0.87899 1.17574,-1.03811 2.10501,-1.03811 1.19181,0 2.09114,0.4886 2.58169,1.40263 0.31335,0.58384 0.54361,5.24349 0.91482,18.51291 0.2063,7.37433 0.15127,7.67944 -1.46603,8.12871 -1.08855,0.30238 -1.0427,0.30196 -1.74128,0.016 z m -67.498352,-0.25236 c -1.14483,-0.50643 -1.69022,-1.57266 -1.68979,-3.30351 5.4e-4,-2.2013 2.28893,-20.33166 2.78111,-22.03412 0.797,-2.75684 2.07191,-3.14244 9.77509,-2.95648 4.15412,0.10028 4.38134,0.13368 5.02525,0.7386 1.4363,1.34934 0.30406,3.9406 -1.75264,4.01107 -0.48414,0.0166 -2.42689,0.10589 -4.31724,0.19844 -3.4114,0.16702 -3.43954,0.17363 -3.78114,0.88835 -0.43269,0.90532 -1.01637,5.15645 -0.74525,5.4279 0.11098,0.11112 1.76954,0.24301 3.6857,0.2931 3.98925,0.10429 4.40997,0.28676 4.40997,1.91267 0,2.20853 -0.64782,2.55949 -5.00905,2.71364 -1.77971,0.0629 -3.3386,0.21785 -3.46419,0.34433 -0.28878,0.2908 -0.74002,3.1786 -0.82144,5.25704 l -0.0622,1.5875 4.97763,-0.0798 c 4.83636,-0.0775 4.99542,-0.063 5.60447,0.50914 0.46418,0.43607 0.62685,0.87394 0.62685,1.68728 0,1.27824 -0.7039,2.10755 -2.14044,2.52175 -1.22933,0.35446 -12.39598,0.59569 -13.1027,0.28306 z m 80.800522,-0.66845 c -2.11361,-0.60579 -4.53825,-2.26674 -5.55122,-3.80276 -0.71067,-1.07763 -0.62628,-2.83649 0.17452,-3.63729 1.03297,-1.03297 2.15865,-0.87669 4.12809,0.57313 2.14502,1.57908 3.07817,1.95244 4.87977,1.95244 1.81592,0 2.98533,-0.46703 3.90443,-1.55932 1.47534,-1.75334 1.14825,-3.89839 -0.78671,-5.15907 -0.55058,-0.35873 -2.2224,-1.07375 -3.71515,-1.58895 -3.24643,-1.12045 -3.51959,-1.25902 -4.84843,-2.45955 -1.08373,-0.97909 -1.83018,-2.79987 -1.83018,-4.46429 0,-2.73148 2.01613,-5.59641 4.95731,-7.04435 1.53116,-0.75378 2.06841,-0.87332 4.33384,-0.96432 2.07843,-0.0835 2.94252,0.004 4.40238,0.44784 3.43382,1.04299 5.11503,2.96482 4.17828,4.7763 -0.22814,0.44116 -0.66437,0.93568 -0.96942,1.09893 -0.78436,0.41978 -2.48274,0.17072 -4.33469,-0.63567 -1.88621,-0.82131 -3.53858,-0.88756 -5.04724,-0.20235 -1.21596,0.55227 -1.86654,1.70791 -1.58746,2.81985 0.18839,0.75061 0.96421,1.15826 5.44408,2.86057 3.15448,1.19867 4.75493,2.44006 5.81429,4.50987 1.00084,1.95543 1.0978,4.36825 0.265,6.59411 -0.70567,1.88607 -3.02855,4.12329 -5.47403,5.27217 -1.59451,0.7491 -2.09257,0.85084 -4.44172,0.90733 -1.62425,0.0391 -3.12843,-0.0747 -3.89574,-0.29462 z M 31.877988,180.62018 c -1.75587,-1.22986 -2.7375,-5.08074 -4.54258,-17.82033 -0.96613,-6.81859 -1.00479,-8.15951 -0.26246,-9.10323 0.95241,-1.21079 2.92085,-1.17846 3.88685,0.0638 0.54994,0.70723 0.80709,1.99815 1.92832,9.68022 0.59471,4.07458 1.17424,7.76552 1.28785,8.20208 l 0.20658,0.79375 0.5588,-0.90687 c 0.30734,-0.49877 1.3667,-2.73692 2.35414,-4.97365 2.0018,-4.53447 2.82172,-5.62885 4.21719,-5.62885 1.57674,0 1.62805,0.091 4.1612,7.38186 0.77862,2.24101 1.47741,3.96742 1.55287,3.83646 0.33336,-0.57857 1.1169,-3.37823 2.84192,-10.15445 1.0563,-4.1494 2.06391,-7.55591 2.34719,-7.93532 1.3496,-1.80764 4.54355,-1.04989 4.54355,1.07793 0,0.89392 -3.95261,16.88312 -4.78278,19.34744 -0.28114,0.83455 -0.7909,2.14469 -1.13281,2.91141 -1.39535,3.12903 -4.11479,4.4321 -5.70871,2.73544 -0.70731,-0.75288 -2.41914,-4.61142 -3.37635,-7.6104 -0.40813,-1.2787 -0.80763,-2.32605 -0.88778,-2.32743 -0.0801,-0.001 -0.41837,0.56302 -0.75162,1.25424 -1.50171,3.11484 -4.60188,8.28452 -5.34109,8.90652 -0.93638,0.78792 -2.20283,0.89794 -3.10028,0.26934 z m 59.74183,0.008 c -3.13468,-0.87264 -5.76898,-3.56812 -6.81047,-6.96862 -0.65357,-2.13397 -0.57508,-7.38856 0.15121,-10.12241 1.82905,-6.88472 6.57862,-11.10324 12.49827,-11.10081 3.061782,0.001 4.793982,0.88946 6.464242,3.31461 1.56907,2.27821 2.05297,4.21829 2.05002,8.21897 -0.005,6.36966 -1.3661,10.52749 -4.49586,13.7308 -2.724502,2.78854 -6.417122,3.88517 -9.857412,2.92746 z m 5.10905,-5.94532 c 1.11617,-0.76481 1.90523,-1.90576 2.72979,-3.94716 0.925472,-2.29123 1.231452,-4.29649 1.096112,-7.1834 -0.19175,-4.09018 -1.548902,-5.75323 -4.466242,-5.47291 -3.16866,0.30447 -5.35424,3.60376 -6.10056,9.20927 -0.50853,3.81948 0.40988,6.7094 2.46509,7.75677 1.18178,0.60225 3.10586,0.4391 4.27581,-0.36257 z m -30.31169,5.81773 c -3.54234,-0.89509 -6.00192,-3.45644 -7.24309,-7.5428 -0.73946,-2.43458 -0.66821,-7.56379 0.1414,-10.1785 2.01205,-6.49814 6.0502,-9.83837 11.93141,-9.86931 2.74938,-0.0145 4.15676,0.56789 5.91489,2.44747 2.45792,2.62771 3.44917,5.60078 3.40079,10.19997 -0.0738,7.01021 -2.65149,12.00409 -7.3252,14.19119 -1.9044,0.89117 -4.94331,1.22624 -6.8202,0.75198 z m 5.04058,-5.88038 c 1.218,-0.80604 2.70084,-3.45882 3.36507,-6.02009 0.64785,-2.49808 0.46038,-6.05886 -0.41057,-7.79862 -0.93047,-1.85861 -1.77357,-2.38947 -3.78097,-2.38068 -1.94202,0.008 -3.27229,0.7663 -4.46642,2.5443 -1.54659,2.30282 -2.38554,6.84699 -1.8248,9.88396 0.73608,3.98663 4.09935,5.76857 7.11769,3.77113 z m 40.115662,5.52835 c -0.44891,-0.2055 -1.08805,-0.71508 -1.42031,-1.13239 -0.57412,-0.72108 -0.59557,-0.90326 -0.43198,-3.66917 0.27794,-4.69913 1.94391,-20.57342 2.2409,-21.35243 0.44849,-1.17643 1.70101,-1.6696 4.13174,-1.62685 6.16889,0.10849 11.96975,3.35824 13.62585,7.63345 0.82039,2.11784 1.01742,6.13212 0.4253,8.6651 -1.24837,5.34027 -5.61868,9.56638 -11.42973,11.0526 -2.80835,0.71825 -6.08127,0.91517 -7.14177,0.42969 z m 8.53028,-6.2573 c 1.89961,-0.93517 3.07366,-2.16683 4.02334,-4.22073 0.55206,-1.19398 0.69818,-1.97279 0.78444,-4.18124 0.0984,-2.51958 0.0553,-2.81758 -0.60188,-4.1608 -0.99624,-2.03625 -2.4971,-2.97741 -5.44348,-3.41352 -1.98388,-0.29364 -2.16176,-0.0105 -2.40885,3.83433 -0.1159,1.80342 -0.40488,5.33744 -0.64217,7.85338 -0.23729,2.51593 -0.35845,4.76464 -0.26924,4.99713 0.24377,0.63524 2.55947,0.27524 4.55784,-0.70855 z m 36.68444,5.92624 c -0.68799,-0.68799 -0.68866,-0.69301 -0.5191,-3.9026 0.15625,-2.95754 1.37374,-14.62061 2.04734,-19.61252 0.42903,-3.17952 1.19006,-4.10642 3.3716,-4.10642 1.60344,0 2.3916,0.69172 3.91909,3.43958 4.05586,7.29622 8.25665,13.76684 8.57178,13.20342 0.22007,-0.39345 0.59018,-3.98475 1.06077,-10.293 0.1574,-2.11005 0.40127,-4.20591 0.54191,-4.65745 0.71113,-2.28305 3.62493,-2.79596 4.64771,-0.81813 0.37026,0.71602 0.40793,1.43001 0.26071,4.94219 -0.17459,4.16507 -0.99522,13.73748 -1.50874,17.59901 -0.15482,1.16417 -0.48251,2.53339 -0.72821,3.04271 -1.06519,2.20808 -3.34418,1.89683 -5.40055,-0.73757 -1.75857,-2.25289 -5.1521,-7.4037 -7.50075,-11.38487 -1.8442,-3.12608 -2.11701,-3.47102 -2.41881,-3.05829 -0.18709,0.25586 -0.34016,0.60683 -0.34016,0.77993 0,0.17309 -0.30031,3.32286 -0.66735,6.99947 -0.43622,4.36953 -0.81513,6.99615 -1.09401,7.58386 -0.80819,1.70313 -3.01155,2.21236 -4.24323,0.98068 z m -21.77298,-0.0178 c -1.07658,-0.56493 -1.58182,-1.43611 -1.58728,-2.73689 -0.002,-0.51149 0.46644,-5.60065 1.0413,-11.30924 1.11019,-11.02455 1.38109,-12.33472 2.70023,-13.05934 0.44524,-0.24458 2.56081,-0.37074 7.49936,-0.44722 6.7468,-0.10448 6.89317,-0.0954 7.60677,0.46956 0.96317,0.76258 1.01108,2.29527 0.1047,3.349 -0.76937,0.89445 -2.14812,1.10328 -7.49413,1.13509 -2.88318,0.0172 -3.83928,0.1102 -4.13106,0.40198 -0.20881,0.20881 -0.45869,1.13154 -0.5553,2.05052 -0.0966,0.91898 -0.24544,2.17689 -0.33075,2.79535 l -0.1551,1.12448 h 4.49227 c 4.14409,0 4.54632,0.0425 5.18942,0.54837 0.80751,0.63519 0.91722,1.69815 0.29872,2.89419 -0.53525,1.03508 -1.5257,1.26767 -6.26421,1.47102 -3.25694,0.13977 -3.91408,0.23721 -4.0676,0.60313 -0.10071,0.24003 -0.24352,1.65681 -0.31737,3.14839 l -0.13426,2.71198 h 5.47066 c 5.45559,0 5.47246,0.002 6.1201,0.64944 0.7484,0.7484 0.82602,1.6812 0.23499,2.82413 -0.69403,1.3421 -1.52361,1.50781 -8.47176,1.69217 -5.81192,0.15422 -6.40247,0.12847 -7.2497,-0.31611 z M 40.674608,143.69463 c -1.11745,-0.54288 -1.30076,-1.23516 -1.39705,-5.27591 -0.10301,-4.32258 0.20094,-5.67693 1.32639,-5.91013 0.33701,-0.0698 2.994,-0.18653 5.90441,-0.25934 9.80344,-0.24522 15.45211,-1.52203 23.8125,-5.38254 7.54786,-3.48531 12.83849,-5.22088 18.01491,-5.90974 3.92009,-0.52166 11.22452,-0.19978 15.058012,0.66355 3.74802,0.8441 10.3889,3.07313 19.70938,6.61552 15.66124,5.9523 25.10455,7.94439 39.1604,8.26095 4.92871,0.11101 6.62497,0.23568 7.07761,0.52021 0.54916,0.34521 0.59531,0.56862 0.59531,2.88166 0,2.71841 -0.25202,3.27232 -1.74758,3.84093 -0.93254,0.35455 -126.783282,0.30998 -127.514292,-0.0452 z M 150.06028,133.00501 c -4.6943,-0.43719 -8.5273,-1.07977 -9.52817,-1.59733 -0.92446,-0.47806 -1.38022,-1.29509 -1.1761,-2.10837 0.12396,-0.49391 0.62512,-0.80043 2.42909,-1.48567 5.26736,-2.00083 6.97488,-5.4849 4.97244,-10.14588 -0.43763,-1.01864 -1.8188,-3.46887 -3.06927,-5.44494 -4.0814,-6.4497 -4.83708,-8.42342 -4.65813,-12.16631 0.0967,-2.023145 0.23721,-2.573195 1.10623,-4.331545 1.74889,-3.538645 6.20444,-7.453745 11.54386,-10.143617 4.33945,-2.186111 10.88435,-3.852615 13.32487,-3.392863 1.39472,0.26274 2.28555,1.201091 2.28555,2.407481 0,1.15155 -0.45139,2.075559 -2.18522,4.473283 -3.66309,5.065696 -4.86078,9.108496 -3.77475,12.741641 0.21452,0.71763 1.17092,2.67401 2.12534,4.3475 5.14281,9.01746 6.75418,13.69959 6.73821,19.57916 -0.0107,3.94236 -0.73989,5.7691 -2.76675,6.93122 -1.01977,0.5847 -1.31503,0.61118 -7.28058,0.65299 -3.55392,0.0249 -7.87523,-0.1108 -10.08662,-0.31675 z m -91.804412,-5.72283 c -1.75107,-1.25838 -5.03554,-4.64734 -6.24088,-6.43942 -3.23331,-4.80722 -4.51138,-9.61698 -4.24276,-15.96681 0.20062,-4.74246 1.37131,-8.541865 3.77857,-12.263095 6.88939,-10.649912 22.40038,-14.793332 32.62958,-8.716276 2.29385,1.36275 5.16703,4.214274 6.45426,6.405613 3.33188,5.672093 3.38308,13.796288 0.12327,19.560358 -2.61178,4.61822 -8.65981,8.09337 -14.61621,8.39835 -3.24068,0.16593 -5.06015,-0.18236 -7.6101,-1.45677 -3.41351,-1.70599 -5.45119,-4.28209 -6.39586,-8.08583 -1.15896,-4.66661 1.3024,-9.771375 5.75847,-11.942815 5.2509,-2.55877 10.42215,-1.25328 12.35564,3.11921 1.59582,3.608855 -0.21823,7.851195 -3.35722,7.851195 -1.31704,0 -1.98038,-1.02104 -1.7837,-2.74558 0.20824,-1.82589 -0.18548,-2.73866 -1.40023,-3.24622 -0.81261,-0.33953 -1.16513,-0.35562 -2.0522,-0.0937 -3.75293,1.10813 -4.80363,5.24869 -2.13502,8.41361 2.2376,2.65375 6.64258,3.09297 10.89074,1.08591 5.24273,-2.47693 7.53638,-8.05834 5.91567,-14.395245 -0.95032,-3.71575 -3.03731,-6.39336 -6.19349,-7.946309 -8.54268,-4.203286 -19.78961,-0.206731 -24.22647,8.608789 -1.4512,2.883355 -1.719,4.260975 -1.72298,8.863535 -0.003,3.72704 0.0695,4.45173 0.60813,6.05947 1.78522,5.32866 5.13953,9.3917 9.44694,11.44296 1.38444,0.6593 1.59301,0.85741 1.66332,1.57994 0.09,0.92495 0.25976,0.81502 -3.05646,1.97946 -1.20027,0.42146 -2.46233,0.76629 -2.80457,0.76629 -0.34224,0 -1.14614,-0.37647 -1.78644,-0.83662 z m 54.525142,-5.59354 c -3.85931,-1.33836 -7.16329,-2.5297 -7.34218,-2.64743 -0.5305,-0.34912 -0.37137,-1.67435 0.2975,-2.47763 1.05111,-1.26232 8.61228,-11.60544 11.92,-16.30567 4.8364,-6.872455 6.27141,-8.061848 7.78403,-6.451735 0.76491,0.81421 0.74244,1.95963 -0.11262,5.73943 -0.97627,4.315645 -0.84716,6.790945 0.50241,9.632775 0.53859,1.13411 0.97925,2.40546 0.97925,2.82522 0,0.46483 -0.56846,1.67784 -1.45404,3.10272 -1.62061,2.60753 -2.44116,4.71883 -2.68695,6.91363 -0.0905,0.80776 -0.28188,1.61747 -0.42539,1.79938 -0.56374,0.71458 -2.54176,0.26916 -9.46201,-2.13069 z m -15.869522,-4.23425 c -1.2359,-0.42146 -1.35147,-1.35661 -0.37383,-3.02482 1.23989,-2.11572 20.237872,-28.987872 21.232722,-30.033155 0.84031,-0.882898 1.08705,-0.992187 2.24001,-0.992187 1.12074,0 1.41714,0.12146 2.19526,0.899583 0.72985,0.72985 0.89958,1.103803 0.89958,1.981938 0,1.235699 -1.00098,2.78993 -9.39065,14.580971 -2.64033,3.71078 -6.27325,8.86868 -8.07316,11.462 -1.98754,2.86365 -3.55967,4.8636 -4.00374,5.09323 -0.87694,0.45349 -3.439932,0.47108 -4.726192,0.0324 z M 41.303868,80.295374 c -0.81432,-0.880004 -1.65792,-2.908254 -4.6232,-11.11542 -3.42027,-9.466462 -4.85668,-13.790415 -4.85668,-14.619819 0,-1.739344 2.55956,-3.357823 4.12208,-2.606501 1.10915,0.533326 1.68064,1.5518 3.25267,5.796709 0.77923,2.104168 1.50295,3.919525 1.60824,4.034127 0.41616,0.452936 2.60607,-4.911172 4.39954,-10.77652 1.17,-3.826355 1.80949,-4.645388 3.62706,-4.645388 1.49073,0 2.48527,0.736768 2.72589,2.019379 0.20254,1.079643 -1.25639,5.933425 -3.227,10.736008 -0.63945,1.558432 -1.16265,2.934508 -1.16265,3.057946 0,0.123438 1.39778,0.991482 3.10616,1.928987 4.31251,2.366556 8.21865,4.982031 9.3954,6.290974 0.75764,0.842746 0.99219,1.328368 0.99219,2.054249 0,1.89675 -1.37507,3.150019 -3.39339,3.092807 -0.72609,-0.02058 -2.14405,-0.853375 -6.7209,-3.947293 l -5.80066,-3.921208 -0.50482,0.655013 c -0.27765,0.360257 -0.57158,0.85467 -0.65317,1.098696 -0.0816,0.244026 0.39268,2.099143 1.05396,4.122482 1.57143,4.8082 1.59818,6.323508 0.12506,7.085287 -1.24349,0.643031 -2.68688,0.501217 -3.46578,-0.340515 z M 155.5027,77.7413 c -4.49233,-1.407041 -9.0567,-5.936737 -9.54075,-9.468281 -0.13701,-0.999611 -0.062,-1.28054 0.52959,-1.983619 1.36102,-1.617475 2.94065,-1.292516 4.42082,0.909443 2.47702,3.684898 5.43095,5.496276 7.88536,4.835374 2.18096,-0.587273 3.18704,-2.678398 2.24437,-4.664927 -0.2577,-0.543063 -1.90618,-2.485771 -3.66328,-4.317128 -3.60027,-3.752409 -4.11318,-4.741479 -4.10849,-7.922588 0.003,-2.276202 0.79994,-4.030643 2.51589,-5.541081 1.6383,-1.442094 3.44954,-1.988791 6.17412,-1.863572 1.71692,0.07891 2.36561,0.257568 4.28721,1.180766 2.47643,1.189759 3.77289,2.203534 5.32174,4.161363 1.8448,2.331922 0.93987,4.748929 -1.9217,5.132746 -1.00925,0.135369 -1.10059,0.07882 -2.96771,-1.837405 -2.16504,-2.221974 -3.74015,-3.035042 -5.36789,-2.770895 -1.58323,0.256921 -2.22342,0.83265 -2.22342,1.999534 0,1.260715 0.86414,2.419171 4.27907,5.736528 3.19031,3.099147 4.04156,4.680839 4.04966,7.524587 0.005,1.682601 -0.12062,2.250876 -0.82467,3.73681 -1.09206,2.304858 -2.42441,3.736328 -4.39343,4.720257 -1.38329,0.691237 -1.88791,0.800879 -3.61591,0.78565 -1.10454,-0.0097 -2.4908,-0.168838 -3.08058,-0.353562 z M 64.504428,71.431832 c -0.83544,-0.724395 -1.06619,-1.579617 -2.6296,-9.74588 -1.85528,-9.690867 -2.53299,-13.97103 -2.53361,-16.001493 -5.2e-4,-1.720544 0.0608,-1.927502 0.77307,-2.609921 1.00864,-0.966331 2.73175,-1.197757 4.01117,-0.538727 0.49705,0.256036 3.83249,3.364921 7.41207,6.908635 3.57958,3.543714 6.5976,6.443116 6.70671,6.443116 0.31528,0 -0.093,-2.896447 -1.20432,-8.544336 -0.56679,-2.880374 -1.03052,-5.583444 -1.03052,-6.006821 0,-1.751305 1.18369,-2.911343 2.9707,-2.911343 1.0478,0 1.9198,0.555898 2.4351,1.552377 0.38515,0.744796 4.60818,22.373054 4.84165,24.796532 0.21551,2.236972 -1.04344,3.813591 -3.0452,3.813591 -1.29913,0 -2.8768,-1.334459 -9.83102,-8.3155 -3.7014,-3.715672 -6.77606,-6.709528 -6.83257,-6.653013 -0.0565,0.05652 0.56119,3.417784 1.37268,7.469487 0.81149,4.051704 1.47513,7.765593 1.47476,8.253088 -5e-4,0.654699 -0.23579,1.121467 -0.90026,1.785938 -0.75911,0.759107 -1.08734,0.899583 -2.10191,0.899583 -0.86705,0 -1.39379,-0.166011 -1.8889,-0.595313 z m 59.203222,-3.101636 c -1.55776,-0.949802 -1.54877,-1.08481 1.0117,-15.191512 0.86968,-4.791412 1.63487,-8.798453 1.70043,-8.904536 0.26023,-0.421051 -0.65679,-0.748207 -3.24365,-1.157205 -1.48897,-0.235416 -2.995,-0.537443 -3.34673,-0.671172 -1.58865,-0.604003 -2.04053,-3.090101 -0.78913,-4.341504 0.58227,-0.582274 0.93479,-0.697538 2.13332,-0.697538 1.98639,0 16.15095,2.189545 18.83621,2.911684 1.44092,0.387503 2.14543,1.226254 2.14543,2.55422 0,0.872097 -0.17233,1.333208 -0.73264,1.960303 -0.88343,0.988731 -1.76043,1.04528 -5.70983,0.368171 -2.20096,-0.377345 -2.66095,-0.390664 -2.95951,-0.08569 -0.38382,0.392085 -1.28825,4.64531 -3.15393,14.831929 -0.65811,3.593331 -1.39301,6.945266 -1.6331,7.448746 -0.72992,1.53064 -2.63217,1.965761 -4.25857,0.974102 z M 98.467188,67.178868 c -1.72143,-0.484627 -3.81244,-1.899565 -4.88707,-3.306964 -1.96355,-2.571579 -2.49199,-6.154265 -2.49695,-16.928544 -0.004,-8.443417 0.10721,-9.175472 1.48789,-9.804555 1.43271,-0.652786 3.23009,-0.23663 3.99053,0.923945 0.42815,0.653442 0.46447,1.378612 0.39479,7.883164 -0.11066,10.331588 0.3293,13.287175 2.22579,14.952312 1.736182,1.524394 4.249152,1.298236 5.697432,-0.512748 1.15843,-1.44854 1.55856,-3.517522 1.84211,-9.525 0.65085,-13.789488 0.63859,-13.72356 2.66357,-14.330257 0.86615,-0.259505 1.18817,-0.239615 1.94222,0.119964 1.81182,0.863998 1.82392,0.932393 1.61562,9.130355 -0.37035,14.575069 -1.60197,18.356184 -6.77122,20.787881 -1.4539,0.683938 -2.08794,0.820269 -4.10104,0.881803 -1.3834,0.04229 -2.893502,-0.07142 -3.603672,-0.271356 z m 46.386792,-16.63589 c -0.61469,-0.614696 -0.30147,-1.332492 1.3169,-3.017856 l 1.6344,-1.702055 -0.8089,-0.854732 c -1.0824,-1.143726 -1.40157,-1.822368 -1.40157,-2.980142 0,-1.366037 1.2275,-2.504798 2.69998,-2.504798 3.38328,0 5.20471,3.380315 3.6284,6.733784 -1.33885,2.848277 -5.81046,5.58455 -7.06921,4.325799 z"
       id="path1" /></g></svg>
