<?xml version="1.0" encoding="UTF-8" standalone="no"?>
<!-- Created with Inkscape (http://www.inkscape.org/) -->

<svg
   width="24mm"
   height="24mm"
   viewBox="0 0 24 24"
   version="1.1"
   id="svg1"
   inkscape:version="1.4.2 (f4327f4, 2025-05-13)"
   sodipodi:docname="dowel.svg"
   xmlns:inkscape="http://www.inkscape.org/namespaces/inkscape"
   xmlns:sodipodi="http://sodipodi.sourceforge.net/DTD/sodipodi-0.dtd"
   xmlns="http://www.w3.org/2000/svg"
   xmlns:svg="http://www.w3.org/2000/svg">
  <sodipodi:namedview
     id="namedview1"
     pagecolor="#ffffff"
     bordercolor="#000000"
     borderopacity="0.25"
     inkscape:showpageshadow="2"
     inkscape:pageopacity="0.0"
     inkscape:pagecheckerboard="0"
     inkscape:deskcolor="#d1d1d1"
     inkscape:document-units="mm"
     inkscape:zoom="0.68862935"
     inkscape:cx="42.83872"
     inkscape:cy="42.83872"
     inkscape:window-width="1920"
     inkscape:window-height="991"
     inkscape:window-x="-9"
     inkscape:window-y="-9"
     inkscape:window-maximized="1"
     inkscape:current-layer="layer1" />
  <defs
     id="defs1" />
  <g
     inkscape:label="Ebene 1"
     inkscape:groupmode="layer"
     id="layer1"
      transform="translate(0.114218 0) scale(1.044607) translate(-93.660194,-137.04191)">
    <path
       d="m 95.253674,159.6222 c -2.211692,-1.13978 -2.108163,-4.09216 0.230063,-6.56074 0.551344,-0.58209 1.449176,-1.61919 1.995181,-2.30468 0.546004,-0.68549 1.220361,-1.31859 1.498573,-1.4069 0.27821,-0.0883 0.505836,-0.29415 0.505836,-0.45746 0,-0.1633 0.565543,-0.86117 1.256773,-1.55081 0.69122,-0.68964 1.51262,-1.51254 1.82533,-1.82867 0.31271,-0.31612 1.83076,-1.79489 3.37344,-3.28616 2.49786,-2.41459 2.80487,-2.81132 2.80487,-3.6245 0,-2.03441 1.3669,-2.08163 3.73415,-0.12902 2.28409,1.88402 3.93877,3.99583 3.93877,5.0269 0,0.73776 -0.82225,1.28737 -1.67177,1.11746 -0.73131,-0.14626 -1.03934,0.0868 -4.05773,3.07089 -1.79648,1.77604 -3.26633,3.36334 -3.26633,3.52733 0,0.35961 -1.11825,1.44874 -1.48748,1.44874 -0.14451,0 -0.6404,0.53578 -1.10197,1.19063 -0.46158,0.65484 -1.00294,1.19062 -1.20304,1.19062 -0.20009,0 -1.09635,0.82424 -1.99168,1.83165 -2.584437,2.90796 -4.482489,3.72413 -6.382986,2.74472 z m 2.694977,-0.74864 c 0.07756,-0.0776 -0.587206,-0.84524 -1.477256,-1.70596 -1.332841,-1.28891 -1.649997,-1.48571 -1.798116,-1.11575 -0.330026,0.8243 -0.222145,1.56196 0.331335,2.26559 0.439118,0.55825 0.772964,0.69714 1.675693,0.69714 0.62003,0 1.190784,-0.0635 1.268344,-0.14102 z m 1.900147,-1.56112 c 0.381072,-0.49961 0.692862,-1.09748 0.692862,-1.32859 0,-1.18389 2.52505,-3.58385 3.77066,-3.58385 0.46575,0 1.78559,-0.99204 1.78559,-1.34212 0,-0.46031 -1.23746,-0.24664 -2.40578,0.41539 -0.64135,0.36343 -1.90848,1.0125 -2.81584,1.44239 -1.109364,0.5256 -1.824017,1.06747 -2.181818,1.65433 -0.292645,0.48 -0.53253,0.69085 -0.533072,0.46857 -0.0019,-0.78304 0.850505,-1.60282 2.59828,-2.4988 0.97149,-0.49803 2.12354,-1.14915 2.56011,-1.44694 0.50912,-0.34727 1.22205,-0.54204 1.98819,-0.54316 1.1775,-0.002 1.24252,-0.0499 4.58468,-3.39953 l 3.39025,-3.39779 -1.76128,-1.69544 c -0.9687,-0.93249 -1.84926,-1.7279 -1.95679,-1.76757 -0.18637,-0.0687 -4.76806,4.39139 -7.93308,7.72261 l -1.48697,1.56506 1.19062,-0.63669 c 1.40984,-0.75391 4.38466,-3.69212 5.45763,-5.39045 0.95903,-1.518 1.39644,-1.58061 0.57857,-0.0828 -1.30958,2.39827 -6.02894,6.5517 -7.444402,6.5517 -0.410221,0 -4.677214,4.3305 -4.677214,4.74683 0,0.36511 3.215248,3.45525 3.595142,3.45525 0.170939,0 0.622588,-0.40877 1.003662,-0.90839 z m -1.196231,-1.47656 c 0.438597,-0.43859 0.872498,-1.0339 0.964224,-1.32291 0.09173,-0.28901 0.282006,-0.52547 0.422839,-0.52547 0.15017,0 0.12943,0.24619 -0.05016,0.59531 -0.387678,0.75367 -1.588649,2.05052 -1.898917,2.05052 -0.12949,0 0.123414,-0.35885 0.562009,-0.79745 z m -2.34424,-0.99587 c 0,-0.63114 2.068756,-2.39093 4.101043,-3.48857 1.66837,-0.90109 2.87942,-1.89175 5.71812,-4.67753 1.98079,-1.94388 3.6875,-3.53433 3.79268,-3.53433 0.31747,0 -2.77538,3.40579 -4.3359,4.77462 -0.80206,0.70353 -1.373,1.36443 -1.26877,1.46866 0.47199,0.472 2.49547,-0.93604 4.71401,-3.28024 1.29804,-1.37155 2.36007,-2.3766 2.36007,-2.23343 0,0.42109 -4.50122,5.07934 -5.31451,5.49991 -0.40955,0.21179 -1.07797,0.38585 -1.48537,0.38681 -0.40741,0.001 -1.09794,0.24319 -1.5345,0.5383 -0.43656,0.29511 -1.72023,1.02392 -2.8526,1.61957 -1.209364,0.63617 -2.437496,1.52538 -2.976561,2.15516 -0.50474,0.58968 -0.917712,0.93666 -0.917712,0.77107 z m 6.609813,-0.65407 c 0.0114,-0.47596 -0.79628,-0.13586 -1.25675,0.52916 -0.9724,1.40438 -0.94905,1.49786 0.14677,0.58747 0.60787,-0.50501 1.10736,-1.00749 1.10998,-1.11663 z m 1.29702,-1.37563 c -0.23456,-0.23457 -1.308,0.67307 -1.13227,0.9574 0.10316,0.16693 0.38214,0.0599 0.71733,-0.27534 0.30167,-0.30168 0.4884,-0.60861 0.41494,-0.68206 z m 11.40775,-9.37046 c 0,-0.63277 -3.34375,-4.25715 -4.71572,-5.1115 -1.13688,-0.70796 -1.60128,-0.35537 -1.1062,0.83987 0.52757,1.27365 4.16833,4.50053 5.07775,4.50053 0.40929,0 0.74417,-0.10301 0.74417,-0.2289 z"
       style="fill:#2b1e17;fill-opacity:1;stroke-width:0.264583"
       id="path1" />
  </g>
</svg>

