<?xml version="1.0" encoding="UTF-8" standalone="no"?>
<!-- Created with Inkscape (http://www.inkscape.org/) -->

<svg
   width="24mm"
   height="24mm"
   viewBox="0 0 24 24"
   version="1.1"
   id="svg1"
   inkscape:version="1.4.2 (f4327f4, 2025-05-13)"
   sodipodi:docname="handsaw.svg"
   xmlns:inkscape="http://www.inkscape.org/namespaces/inkscape"
   xmlns:sodipodi="http://sodipodi.sourceforge.net/DTD/sodipodi-0.dtd"
   xmlns="http://www.w3.org/2000/svg"
   xmlns:svg="http://www.w3.org/2000/svg">
  <sodipodi:namedview
     id="namedview1"
     pagecolor="#ffffff"
     bordercolor="#000000"
     borderopacity="0.25"
     inkscape:showpageshadow="2"
     inkscape:pageopacity="0.0"
     inkscape:pagecheckerboard="0"
     inkscape:deskcolor="#d1d1d1"
     inkscape:document-units="mm"
     inkscape:zoom="0.68862935"
     inkscape:cx="44.29088"
     inkscape:cy="44.29088"
     inkscape:window-width="1920"
     inkscape:window-height="991"
     inkscape:window-x="-9"
     inkscape:window-y="-9"
     inkscape:window-maximized="1"
     inkscape:current-layer="layer1" />
  <defs
     id="defs1" />
  <g
     inkscape:label="Ebene 1"
     inkscape:groupmode="layer"
     id="layer1"
      transform="translate(0.292466 0) scale(1.011213) translate(-93.491538,-136.59788)">
    <path
       d="m 97.94875,160.02 c -0.174625,-0.17462 -0.3175,-0.70338 -0.3175,-1.17501 0,-0.47163 -0.121727,-0.93274 -0.270505,-1.02469 -0.148777,-0.0919 -0.626741,-0.87288 -1.062142,-1.7354 -0.702373,-1.3914 -0.881351,-1.56823 -1.587251,-1.56823 -1.12119,0 -1.593793,-1.01944 -0.884351,-1.90761 1.041279,-1.30361 6.016371,-5.76531 6.428709,-5.76531 0.2376,0 2.86969,-2.26337 5.84908,-5.02971 2.9794,-2.76634 5.68846,-5.10183 6.02013,-5.18999 0.65638,-0.17447 1.82045,0.52204 3.56414,2.13256 1.07449,0.99243 1.16926,1.2493 0.65837,1.78439 -0.18359,0.1923 -0.4787,0.67705 -0.65578,1.07723 -0.17709,0.40018 -0.50312,0.72761 -0.72452,0.72761 -0.25405,0 -0.40255,0.24642 -0.40255,0.668 0,0.46909 -0.19697,0.7429 -0.66146,0.9195 -0.46449,0.1766 -0.66145,0.4504 -0.66145,0.91949 0,0.41471 -0.14914,0.66801 -0.39333,0.66801 -0.21633,0 -0.56744,0.41672 -0.78025,0.92604 -0.21281,0.50932 -0.55671,0.92604 -0.76423,0.92604 -0.20751,0 -0.44564,0.34171 -0.52917,0.75936 -0.093,0.46515 -0.36213,0.81435 -0.69453,0.90127 -0.33172,0.0867 -0.54266,0.35978 -0.54266,0.7024 0,0.3544 -0.24321,0.65295 -0.66146,0.81197 -0.46683,0.17749 -0.66146,0.44997 -0.66146,0.92604 0,0.47608 -0.19462,0.74855 -0.66146,0.92604 -0.46449,0.1766 -0.66145,0.45041 -0.66145,0.9195 0,0.49161 -0.13973,0.668 -0.52917,0.668 -0.34625,0 -0.52917,0.17639 -0.52917,0.51027 0,0.83393 -0.7531,1.39279 -1.62023,1.20234 -0.58062,-0.12753 -0.76102,-0.0708 -0.76102,0.23936 0,0.59979 -4.002078,4.38536 -4.643435,4.39223 -0.298317,0.003 -0.68527,-0.13707 -0.859895,-0.3117 z m 2.86149,-2.40417 1.90845,-1.79564 -0.18699,-1.99545 c -0.19418,-2.07215 -1.66853,-5.92265 -2.26777,-5.92265 -0.297156,0 -5.80768,5.02949 -5.80768,5.30071 0,0.0821 0.398381,0.29329 0.885293,0.46936 0.654955,0.23683 1.078014,0.68091 1.626008,1.7068 0.407394,0.76267 0.921239,1.59592 1.141878,1.85167 0.22064,0.25574 0.385198,0.88965 0.365686,1.40867 -0.01951,0.51902 0.06851,0.90508 0.1956,0.85792 0.127092,-0.0472 1.089878,-0.89379 2.139525,-1.88139 z m -1.642387,-1.18093 c -0.569597,-0.6635 -2.06577,-3.53277 -2.06577,-3.96162 0,-0.54902 1.228187,-1.66078 1.834705,-1.66078 0.596755,0 1.913712,2.04257 2.453382,3.80513 0.29793,0.97306 0.27619,1.0599 -0.41407,1.65364 -0.86866,0.74719 -1.275653,0.78402 -1.808247,0.16363 z m 1.405157,-0.92604 c 0.0651,-0.68704 -0.10043,-1.16476 -0.876435,-2.52898 -0.758141,-1.33283 -0.823675,-1.3821 -1.284137,-0.96538 -0.468185,0.4237 -0.455907,0.49857 0.349623,2.1321 0.560688,1.13702 0.989975,1.69299 1.307229,1.69299 0.25981,0 0.48648,-0.14883 0.50372,-0.33073 z m 4.29349,-1.51585 c 0.11257,-0.56282 0.31315,-0.79926 0.67806,-0.79926 0.36863,0 0.54237,-0.21001 0.60193,-0.7276 0.0592,-0.51415 0.25367,-0.75179 0.66303,-0.81006 0.40552,-0.0577 0.60395,-0.29583 0.66146,-0.79375 0.05,-0.43343 0.3147,-0.81332 0.67746,-0.97247 0.36776,-0.16135 0.59531,-0.49254 0.59531,-0.86645 0,-0.40216 0.22196,-0.68965 0.66146,-0.85675 0.41824,-0.15902 0.66146,-0.45757 0.66146,-0.81197 0,-0.32738 0.20827,-0.61495 0.50078,-0.69144 0.29639,-0.0775 0.56564,-0.45528 0.6597,-0.92559 0.0981,-0.49042 0.36218,-0.84778 0.68985,-0.93346 0.33063,-0.0865 0.53092,-0.36071 0.53092,-0.72697 0,-0.37058 0.24467,-0.69961 0.66145,-0.88951 0.40207,-0.1832 0.66146,-0.52083 0.66146,-0.86099 0,-0.33709 0.21041,-0.61463 0.52917,-0.69799 0.29674,-0.0776 0.52917,-0.3609 0.52917,-0.64499 0,-0.27864 0.17859,-0.57515 0.39687,-0.65891 0.21828,-0.0838 0.39643,-0.22885 0.39589,-0.32243 -5.6e-4,-0.0936 -0.72024,-0.75143 -1.59933,-1.46191 l -1.59833,-1.29178 -0.58349,0.52843 c -4.6456,4.20729 -10.36332,9.717 -10.32915,9.95338 0.0242,0.16711 0.46918,1.25634 0.98895,2.4205 0.64315,1.4405 0.94607,2.51195 0.94827,3.35404 0.003,0.96037 0.10689,1.26091 0.46625,1.34251 0.65672,0.14913 0.77123,0.0463 0.9514,-0.85458 z"
       style="fill:#2b1e17;fill-opacity:1;stroke-width:0.264583"
       id="path1" />
  </g>
</svg>

