<?xml version="1.0" encoding="UTF-8" standalone="no"?>
<!-- Created with Inkscape (http://www.inkscape.org/) -->

<svg
   width="24.798231mm"
   height="15.46204mm"
   viewBox="0 0 24.798231 15.46204"
   version="1.1"
   id="svg1"
   inkscape:version="1.4.2 (f4327f4, 2025-05-13)"
   sodipodi:docname="belt_sander.svg"
   xmlns:inkscape="http://www.inkscape.org/namespaces/inkscape"
   xmlns:sodipodi="http://sodipodi.sourceforge.net/DTD/sodipodi-0.dtd"
   xmlns="http://www.w3.org/2000/svg"
   xmlns:svg="http://www.w3.org/2000/svg">
  <sodipodi:namedview
     id="namedview1"
     pagecolor="#ffffff"
     bordercolor="#000000"
     borderopacity="0.25"
     inkscape:showpageshadow="2"
     inkscape:pageopacity="0.0"
     inkscape:pagecheckerboard="0"
     inkscape:deskcolor="#d1d1d1"
     inkscape:document-units="mm"
     inkscape:zoom="0.68862935"
     inkscape:cx="47.1952"
     inkscape:cy="28.31712"
     inkscape:window-width="1920"
     inkscape:window-height="991"
     inkscape:window-x="-9"
     inkscape:window-y="-9"
     inkscape:window-maximized="1"
     inkscape:current-layer="layer1" />
  <defs
     id="defs1" />
  <g
     inkscape:label="Ebene 1"
     inkscape:groupmode="layer"
     id="layer1"
     transform="translate(-92.649599,-140.83633)">
    <path
       d="m 95.626078,155.88002 c -1.236166,-0.57634 -2.063959,-1.51933 -2.503893,-2.85234 -0.39153,-1.18635 -0.153672,-2.42763 0.708697,-3.6984 0.519168,-0.76504 1.388489,-2.89555 1.416254,-3.47092 0.0016,-0.0327 -0.360656,-0.24734 -0.804958,-0.4771 -1.965229,-1.01625 -2.305978,-2.079 -1.064614,-3.32036 1.010012,-1.01002 1.722509,-0.97624 2.833044,0.13429 l 0.90769,0.90769 1.380956,-0.6321 c 1.360874,-0.62292 4.610926,-1.2444 8.284686,-1.58421 2.01662,-0.18654 2.75356,0.13246 2.75356,1.19194 0,1.21347 0.23607,1.3548 1.95019,1.16756 1.78782,-0.1953 2.68818,-0.56134 3.44925,-1.40232 0.57501,-0.63537 0.95056,-0.71656 0.95056,-0.2055 0,0.97638 -2.29759,2.23914 -4.49128,2.46843 -1.2312,0.12868 -1.59414,0.26511 -1.59414,0.59922 0,0.65142 -0.76285,1.60868 -1.28197,1.60868 -0.25202,0 -0.92988,-0.24586 -1.50636,-0.54636 -0.76107,-0.39673 -1.33798,-0.507 -2.10646,-0.40265 -1.75216,0.23795 -3.04271,0.68811 -3.04271,1.06134 0,0.77733 0.86763,1.02204 4.43601,1.25117 8.98968,0.57724 9.61985,0.72041 10.65688,2.42119 1.0157,1.66578 0.39294,4.0688 -1.30922,5.0519 -0.94979,0.54856 -2.25874,0.64686 -14.18054,1.06495 -4.335666,0.15205 -4.859219,0.12192 -5.841632,-0.3361 z m 13.423272,-0.80808 c 4.42685,-0.181 5.33203,-0.28932 6.08541,-0.72821 1.76765,-1.02976 1.82161,-3.61243 0.0991,-4.74109 -0.73313,-0.48037 -5.54187,-0.91252 -14.43531,-1.29727 -3.724384,-0.16112 -4.174912,-0.13178 -4.99889,0.32557 -2.182842,1.21159 -2.482982,4.26834 -0.587537,5.9837 1.060805,0.96001 1.326844,0.9688 13.837277,0.4573 z m -12.922334,-0.40741 c -1.87696,-0.82962 -2.237073,-3.80041 -0.634273,-5.23251 1.006142,-0.89899 1.021041,-0.89943 10.737467,-0.3187 7.88475,0.47126 9.18818,0.73182 9.60221,1.91949 0.34995,1.00388 -0.16352,2.46819 -1.00325,2.8611 -0.37875,0.17721 -3.31902,0.43273 -6.87917,0.59781 -3.41974,0.15858 -7.28927,0.34615 -8.59896,0.41682 -1.711497,0.0924 -2.61829,0.0237 -3.224024,-0.24401 z m 3.405534,-0.8574 c 0.77165,-0.69222 0.9851,-1.73075 0.59121,-2.87649 -0.453992,-1.32059 -0.993639,-1.70564 -2.390438,-1.70564 -2.803136,0 -3.807052,3.81068 -1.299112,4.93119 0.925394,0.41345 2.438342,0.243 3.09834,-0.34906 z m -2.959635,-0.87796 c -0.291041,-0.29105 -0.529166,-0.7673 -0.529166,-1.05834 0,-0.65956 0.898374,-1.5875 1.53693,-1.5875 0.645046,0 1.282046,0.53344 1.495494,1.25237 0.127963,0.431 -0.0048,0.7711 -0.490424,1.25677 -0.80396,0.80396 -1.311127,0.8384 -2.012834,0.1367 z m 2.047833,-0.98412 c 0.100865,-0.3026 -0.624255,-1.13255 -0.989499,-1.13255 -0.124733,0 -0.413885,0.1871 -0.642559,0.41577 -0.524582,0.52458 -0.522404,0.76272 0.01185,1.29697 0.369729,0.36973 0.5021,0.37818 0.977686,0.0624 0.302532,-0.20088 0.591666,-0.49005 0.642519,-0.6426 z m 11.485262,1.87309 2.02373,-0.15888 -0.38085,-0.91148 c -0.33522,-0.80229 -0.33187,-1.00964 0.028,-1.73091 0.22483,-0.45069 0.3785,-0.84548 0.34149,-0.87731 -0.0715,-0.0615 -10.52084,-0.65452 -11.482,-0.65166 l -0.56679,0.002 0.50065,0.98199 c 0.62795,1.23169 0.62572,1.57121 -0.0186,2.83503 l -0.51926,1.01849 4.02499,-0.17404 c 2.21374,-0.0957 4.93565,-0.24552 6.0487,-0.33291 z m 4.73942,-0.90524 c 0.69842,-0.69842 0.57282,-1.50747 -0.33935,-2.18595 -0.60091,-0.44698 -0.82939,-0.48566 -1.38176,-0.23399 -0.86838,0.39566 -1.12778,1.45025 -0.56718,2.30584 0.53385,0.81476 1.53758,0.86481 2.28829,0.1141 z m -13.69446,-6.20451 c -0.18068,-1.11691 0.45405,-1.58228 2.81181,-2.06152 1.98664,-0.40382 2.22776,-0.3731 3.70786,0.47231 0.35568,0.20316 0.74263,0.31009 0.8599,0.23761 0.11726,-0.0725 0.21321,-0.89865 0.21321,-1.83595 v -1.70417 h -1.18153 c -2.72245,0 -7.13445,0.80292 -8.772813,1.59654 -1.643163,0.79594 -2.216492,0.94689 -2.216492,0.58356 0,-0.42554 -1.36861,-1.65094 -1.843891,-1.65094 -0.27476,0 -0.686422,0.18686 -0.91481,0.41525 -0.605637,0.60564 -0.09722,1.37366 1.32612,2.00327 1.305341,0.57742 1.316056,0.60233 0.794952,1.84865 l -0.37305,0.89221 h 2.858818 2.858816 z m -2.164531,-2.33929 c -0.321617,-0.38753 -0.139062,-0.70035 0.4087,-0.70035 0.394149,0 0.482965,0.68206 0.118173,0.90751 -0.129032,0.0798 -0.366125,-0.0135 -0.526873,-0.20716 z"
       style="fill:#2b1e17;fill-opacity:1;stroke-width:0.264583"
       id="path1" />
  </g>
</svg>
