<?xml version="1.0" encoding="UTF-8" standalone="no"?>
<!-- Created with Inkscape (http://www.inkscape.org/) -->

<svg
   width="27.237812mm"
   height="25.099424mm"
   viewBox="0 0 27.237812 25.099424"
   version="1.1"
   id="svg1"
   inkscape:version="1.4.2 (f4327f4, 2025-05-13)"
   sodipodi:docname="bench_grinder.svg"
   xmlns:inkscape="http://www.inkscape.org/namespaces/inkscape"
   xmlns:sodipodi="http://sodipodi.sourceforge.net/DTD/sodipodi-0.dtd"
   xmlns="http://www.w3.org/2000/svg"
   xmlns:svg="http://www.w3.org/2000/svg">
  <sodipodi:namedview
     id="namedview1"
     pagecolor="#ffffff"
     bordercolor="#000000"
     borderopacity="0.25"
     inkscape:showpageshadow="2"
     inkscape:pageopacity="0.0"
     inkscape:pagecheckerboard="0"
     inkscape:deskcolor="#d1d1d1"
     inkscape:document-units="mm"
     inkscape:zoom="0.68862935"
     inkscape:cx="51.55168"
     inkscape:cy="47.1952"
     inkscape:window-width="1920"
     inkscape:window-height="991"
     inkscape:window-x="-9"
     inkscape:window-y="-9"
     inkscape:window-maximized="1"
     inkscape:current-layer="layer1" />
  <defs
     id="defs1" />
  <g
     inkscape:label="Ebene 1"
     inkscape:groupmode="layer"
     id="layer1"
     transform="translate(-91.556663,-136.0318)">
    <path
       d="m 91.863331,160.81375 c -0.443513,-0.44352 -0.39638,-1.66891 0.07937,-2.06375 0.327792,-0.27204 0.396875,-1.22182 0.396875,-5.45636 0,-6.47548 -0.186184,-6.18531 3.96875,-6.18531 h 2.910417 v -1.59804 c 0,-2.81445 1.800317,-5.1313 4.625497,-5.9526 1.66997,-0.48547 3.31365,-0.27255 5.15749,0.66811 1.83923,0.93831 3.18159,3.3498 3.18159,5.71559 v 1.14778 l 2.57255,0.0757 c 3.35437,0.0987 3.23928,-0.12572 3.24438,6.32718 0.003,4.05476 0.0743,4.98694 0.40078,5.25792 0.53567,0.44457 0.5204,2.01265 -0.0216,2.22065 -0.23018,0.0883 -6.21903,0.1606 -13.30854,0.1606 -9.672796,0 -12.969269,-0.0793 -13.207524,-0.3175 z m 26.140829,-1.00542 c 0,-0.52181 -0.17639,-0.52917 -12.68438,-0.52917 -8.170854,0 -12.742571,0.0942 -12.847907,0.26459 -0.08994,0.14552 -0.08994,0.38364 0,0.52916 0.105336,0.17044 4.677053,0.26459 12.847907,0.26459 12.50799,0 12.68438,-0.007 12.68438,-0.52917 z m -1.11888,-6.54844 -0.0717,-5.22552 -2.40571,-0.0755 -2.40572,-0.0755 -0.90158,1.3759 c -1.52395,2.32571 -4.53503,3.57205 -7.01591,2.90402 -1.53202,-0.41253 -2.72206,-1.28954 -3.91086,-2.88215 l -1.029371,-1.37902 H 96.30201 c -2.723991,0 -2.849022,0.0248 -3.001915,0.59531 -0.08775,0.32743 -0.161165,2.70868 -0.163152,5.29167 l -0.0036,4.69635 h 11.911837 11.91185 z m -4.37122,-0.20426 c -0.69416,-0.49097 -0.76646,-1.35187 -0.18344,-2.18426 0.60209,-0.8596 0.99216,-0.71863 0.52284,0.18895 -0.22099,0.42734 -0.33387,0.95402 -0.25084,1.17039 0.29385,0.76576 2.22654,0.0808 2.22654,-0.78915 0,-0.20046 -0.25003,-0.61451 -0.55562,-0.9201 -0.36415,-0.36416 -0.46596,-0.64529 -0.29544,-0.81581 0.41813,-0.41813 1.38023,0.82067 1.38023,1.77719 0,1.44098 -1.70086,2.3815 -2.84427,1.57279 z m -16.470312,-0.0496 c -1.420953,-0.52247 -1.792184,-2.13845 -0.661459,-2.87933 0.613572,-0.40203 0.710219,-0.40146 1.334966,0.008 1.043178,0.68352 1.346264,1.57319 0.813134,2.38685 -0.438097,0.66862 -0.72861,0.76332 -1.486641,0.48459 z m 0.969126,-1.01979 c 0.246954,-0.64355 -0.357568,-1.70292 -0.971759,-1.70292 -0.693949,0 -0.943044,0.64673 -0.566989,1.47208 0.332423,0.72959 1.292117,0.87356 1.538748,0.23084 z m 11.406066,-1.33434 c 1.70173,-0.99721 2.53916,-2.44361 2.66076,-4.59562 0.0787,-1.39348 -0.0132,-1.99314 -0.4307,-2.80736 -2.1408,-4.1756 -8.14743,-4.00519 -10.13489,0.28753 -0.987813,2.13358 -0.50943,4.38301 1.32153,6.21396 1.96812,1.96812 4.23369,2.27836 6.5833,0.90149 z m -4.04082,-1.53582 c -3.40166,-1.51189 -2.6445,-6.77026 0.97487,-6.77026 1.91375,0 3.33248,1.12702 3.53912,2.81146 l 0.12575,1.025 -0.40462,-1.04079 c -0.54002,-1.38909 -1.08668,-1.949 -2.24039,-2.29466 -1.92634,-0.57714 -3.78668,0.86654 -3.78668,2.93857 0,2.11214 1.81322,3.4712 3.97206,2.97719 1.38912,-0.31788 1.50525,0.0679 0.135,0.44849 -1.23468,0.34288 -1.33956,0.33858 -2.31511,-0.095 z m -0.35075,-1.82637 c -1.23657,-1.31627 -0.31641,-3.62097 1.44568,-3.62097 1.25528,0 1.83763,0.3617 2.18454,1.35681 0.41907,1.20217 0.37157,1.4985 -0.35703,2.22709 -0.879,0.87901 -2.46535,0.89697 -3.27319,0.0371 z m 2.80542,-0.0641 c 1.30775,-0.91598 0.37324,-3.29229 -1.29473,-3.29229 -0.85282,0 -1.8214,1.07422 -1.8214,2.02006 0,1.40799 1.84618,2.16174 3.11613,1.27223 z M 95.249998,143.0172 c 0,-1.0579 1.186669,-3.40377 2.269643,-4.48674 1.334381,-1.33439 3.737569,-2.61957 4.655279,-2.48957 0.48966,0.0694 0.34488,0.19038 -0.70721,0.59111 -2.887293,1.09975 -4.687534,2.95126 -5.422748,5.5772 -0.31968,1.14178 -0.794964,1.62486 -0.794964,0.808 z m 2.12494,-0.0588 c -0.01341,-0.93816 0.432893,-1.83638 1.501272,-3.02131 0.923761,-1.02453 2.65465,-2.06934 3.45139,-2.08333 0.68565,-0.012 0.2878,0.4079 -0.81665,0.86199 -1.41917,0.5835 -2.672308,1.84975 -3.497369,3.53396 -0.441057,0.90033 -0.632854,1.11316 -0.638643,0.70869 z"
       style="fill:#2b1e17;fill-opacity:1;stroke-width:0.264583"
       id="path1" />
  </g>
</svg>
