<?xml version="1.0" encoding="UTF-8" standalone="no"?>
<!-- Created with Inkscape (http://www.inkscape.org/) -->

<svg
   width="24.416113mm"
   height="23.495731mm"
   viewBox="0 0 24.416113 23.495731"
   version="1.1"
   id="svg1"
   inkscape:version="1.4.2 (f4327f4, 2025-05-13)"
   sodipodi:docname="caliper.svg"
   xmlns:inkscape="http://www.inkscape.org/namespaces/inkscape"
   xmlns:sodipodi="http://sodipodi.sourceforge.net/DTD/sodipodi-0.dtd"
   xmlns="http://www.w3.org/2000/svg"
   xmlns:svg="http://www.w3.org/2000/svg">
  <sodipodi:namedview
     id="namedview1"
     pagecolor="#ffffff"
     bordercolor="#000000"
     borderopacity="0.25"
     inkscape:showpageshadow="2"
     inkscape:pageopacity="0.0"
     inkscape:pagecheckerboard="0"
     inkscape:deskcolor="#d1d1d1"
     inkscape:document-units="mm"
     inkscape:zoom="0.68862935"
     inkscape:cx="45.74304"
     inkscape:cy="44.29088"
     inkscape:window-width="1920"
     inkscape:window-height="991"
     inkscape:window-x="-9"
     inkscape:window-y="-9"
     inkscape:window-maximized="1"
     inkscape:current-layer="layer1" />
  <defs
     id="defs1" />
  <g
     inkscape:label="Ebene 1"
     inkscape:groupmode="layer"
     id="layer1"
     transform="translate(-92.794308,-136.84186)">
    <path
       d="m 94.192826,158.85877 -1.398518,-1.47872 2.352326,-2.41416 c 1.293778,-1.32778 2.411856,-2.48211 2.484616,-2.56518 0.07276,-0.0831 0.946847,-0.99436 1.942414,-2.02511 1.666086,-1.72496 1.782386,-1.91849 1.461586,-2.43217 -0.31306,-0.5013 -0.25406,-0.65969 0.57979,-1.55649 2.0029,-2.1541 1.95627,-2.04919 1.30326,-2.93244 -0.67264,-0.90979 -0.55375,-1.54703 0.4207,-2.25497 0.65767,-0.47781 0.6808,-0.4746 1.59261,0.22087 l 0.92524,0.70572 0.92728,-0.70727 c 1.02162,-0.77923 1.02471,-0.76417 -0.49584,-2.41547 l -0.76328,-0.82891 0.74677,-0.69245 c 0.919,-0.85214 0.9621,-0.85228 2.4026,-0.008 1.07338,0.62904 1.20523,0.65042 1.63158,0.26458 0.76729,-0.69438 1.26707,-0.49596 3.08747,1.22576 1.45315,1.37437 1.7175,1.75584 1.60433,2.3151 -0.0935,0.46205 0.22839,1.37967 1.03858,2.96058 0.64574,1.26003 1.17408,2.46197 1.17408,2.67096 0,0.39001 -0.80735,1.25575 -1.17104,1.25575 -0.11183,0 -1.02923,-0.79734 -2.03867,-1.77187 l -1.83534,-1.77186 -0.78731,0.78731 -0.78731,0.78731 1.749,1.91634 c 1.72267,1.88748 1.74254,1.92621 1.31936,2.57205 -0.55202,0.84249 -0.81451,0.82731 -3.23057,-0.18687 l -2.00731,-0.84259 -1.18154,1.26856 c -1.01369,1.08836 -1.28843,1.24719 -1.93406,1.11806 -0.68959,-0.13792 -1.10137,0.20265 -4.92344,4.07195 -2.294,2.32234 -4.310394,4.22245 -4.480878,4.22245 -0.170483,0 -0.939302,-0.66543 -1.708486,-1.47873 z m 5.750425,-3.6113 c 2.220899,-2.21743 4.037999,-4.19509 4.037999,-4.3948 0,-0.19971 1.25016,-1.64653 2.77813,-3.21517 1.52796,-1.56864 2.77812,-2.97107 2.77812,-3.11652 0,-0.14544 -0.23968,-0.54552 -0.53261,-0.88907 l -0.53262,-0.62462 -2.97311,3.05947 c -1.63522,1.68271 -3.18969,3.14065 -3.45438,3.23985 -0.33748,0.12648 -0.43096,0.33886 -0.31289,0.71088 0.13856,0.43654 0.0598,0.51879 -0.44478,0.46432 -0.49294,-0.0532 -0.60093,0.0498 -0.5508,0.52533 0.0495,0.46956 -0.0596,0.57867 -0.52916,0.52917 -0.497928,-0.0525 -0.583183,0.0561 -0.538803,0.68651 0.04479,0.63618 -0.0067,0.69957 -0.341943,0.42131 -0.59281,-0.49199 -1.136253,0.1128 -0.711913,0.79228 0.369321,0.59138 0.134529,0.92979 -0.360215,0.51919 -0.484089,-0.40176 -1.356465,-0.0665 -0.931852,0.35807 0.169854,0.16986 0.308826,0.47819 0.308826,0.68518 0,0.29951 -0.07867,0.31107 -0.385285,0.0566 -0.568486,-0.4718 -0.967144,-0.0879 -0.762424,0.7342 0.157671,0.63317 0.129959,0.67252 -0.252022,0.35788 -0.603196,-0.49685 -1.059707,-0.12633 -0.854028,0.69316 0.150708,0.60047 0.121355,0.63812 -0.254358,0.32631 -0.311553,-0.25857 -0.503088,-0.27413 -0.718808,-0.0584 -0.215721,0.21572 -0.103393,0.54409 0.421553,1.23233 0.3936,0.51603 0.797477,0.93824 0.897505,0.93824 0.100028,0 1.998969,-1.81426 4.219868,-4.03169 z m 6.901639,-5.2101 c 0.45954,-0.57184 1.05823,-1.11039 1.33042,-1.19678 0.28655,-0.0909 1.20654,0.17959 2.18531,0.64263 1.68513,0.79719 2.61646,1.00194 2.61646,0.57521 0,-0.1237 -0.70687,-0.83973 -1.57083,-1.59118 -2.08149,-1.81042 -2.18449,-2.20389 -0.91675,-3.50217 1.58377,-1.62193 1.77174,-1.59968 3.84197,0.45469 2.24056,2.22339 2.39774,1.76799 0.5046,-1.46198 -0.96399,-1.64471 -1.24179,-2.3404 -1.06583,-2.66918 0.1844,-0.34456 -0.0439,-0.72235 -1.01428,-1.6781 -0.68874,-0.67839 -1.35786,-1.23343 -1.48692,-1.23343 -0.12907,0 -0.46107,0.20489 -0.73778,0.45531 -0.47876,0.43327 -0.57224,0.41793 -1.93078,-0.31696 -0.78521,-0.42476 -1.51295,-0.68699 -1.61719,-0.58275 -0.10424,0.10424 0.24922,0.63885 0.78546,1.18802 0.53625,0.54916 0.975,1.10844 0.975,1.24282 0,0.40558 -2.46435,2.77606 -2.88599,2.77606 -0.21579,0 -0.72198,-0.31581 -1.12486,-0.70179 -0.62036,-0.59435 -0.79632,-0.64885 -1.14924,-0.35595 -0.37317,0.30971 -0.34652,0.41915 0.25501,1.04701 0.36946,0.38563 0.67175,0.85706 0.67175,1.04761 0,0.19056 -0.59057,1.02818 -1.31238,1.86137 -1.00534,1.16048 -1.23964,1.58765 -1.00145,1.82584 0.23818,0.23818 0.9348,-0.33997 2.97751,-2.47116 1.74231,-1.81778 2.86079,-2.7821 3.22689,-2.7821 0.53443,0 1.93026,1.35569 1.93026,1.87476 0,0.13566 -1.19062,1.54264 -2.64583,3.12663 -1.45521,1.58398 -2.64584,3.01166 -2.64584,3.17262 0,0.65166 1.02071,0.22928 1.80531,-0.74705 z"
       style="fill:#2b1e17;fill-opacity:1;stroke-width:0.264583"
       id="path1" />
  </g>
</svg>
