<?xml version="1.0" encoding="UTF-8" standalone="no"?>
<!-- Created with Inkscape (http://www.inkscape.org/) -->

<svg
   width="23.99308mm"
   height="24.057257mm"
   viewBox="0 0 23.99308 24.057257"
   version="1.1"
   id="svg1"
   inkscape:version="1.4.2 (f4327f4, 2025-05-13)"
   sodipodi:docname="carving_knife.svg"
   xmlns:inkscape="http://www.inkscape.org/namespaces/inkscape"
   xmlns:sodipodi="http://sodipodi.sourceforge.net/DTD/sodipodi-0.dtd"
   xmlns="http://www.w3.org/2000/svg"
   xmlns:svg="http://www.w3.org/2000/svg">
  <sodipodi:namedview
     id="namedview1"
     pagecolor="#ffffff"
     bordercolor="#000000"
     borderopacity="0.25"
     inkscape:showpageshadow="2"
     inkscape:pageopacity="0.0"
     inkscape:pagecheckerboard="0"
     inkscape:deskcolor="#d1d1d1"
     inkscape:document-units="mm"
     inkscape:zoom="0.68862935"
     inkscape:cx="45.74304"
     inkscape:cy="45.74304"
     inkscape:window-width="1920"
     inkscape:window-height="991"
     inkscape:window-x="-9"
     inkscape:window-y="-9"
     inkscape:window-maximized="1"
     inkscape:current-layer="layer1" />
  <defs
     id="defs1" />
  <g
     inkscape:label="Ebene 1"
     inkscape:groupmode="layer"
     id="layer1"
     transform="translate(-93.133333,-136.525)">
    <path
       d="m 93.133333,160.31175 c 0,-0.15968 0.499435,-1.26101 1.109858,-2.44739 0.975215,-1.89539 1.740292,-2.79903 6.306549,-7.44874 2.85818,-2.91041 5.70819,-5.99244 6.33337,-6.84896 1.62387,-2.22475 4.70385,-5.41145 6.07963,-6.29027 0.64695,-0.41327 1.4941,-0.75139 1.88254,-0.75139 1.68287,0 2.82929,2.05587 2.01076,3.60588 -0.56323,1.06655 -4.34715,4.69962 -7.25239,6.96327 -2.34146,1.82436 -2.55675,2.11443 -2.46623,3.32292 0.0269,0.35956 -1.17898,1.73545 -3.74103,4.26834 -3.9738,3.92858 -5.217871,4.78035 -8.065243,5.522 -1.808078,0.47095 -2.197814,0.48945 -2.197814,0.10434 z m 5.03981,-2.09615 c 1.448017,-0.73717 8.397307,-7.50793 7.974257,-7.76939 -0.17239,-0.10655 -1.78694,1.26184 -3.86523,3.27593 -2.779925,2.69405 -3.908169,3.60563 -5.102231,4.12241 -2.323285,1.0055 -2.803848,1.27298 -2.920452,1.62552 -0.126913,0.38372 2.094367,-0.32829 3.913656,-1.25447 z m -0.674185,-0.96912 c 0.819803,-0.40304 2.530392,-1.83028 4.497912,-3.75286 1.74625,-1.70636 3.47151,-3.28932 3.8339,-3.51768 0.57506,-0.36238 0.62556,-0.50846 0.39688,-1.14805 -0.14411,-0.40307 -0.52418,-0.90604 -0.8446,-1.11772 -0.55514,-0.36676 -0.70334,-0.26854 -3.14781,2.08633 -2.901611,2.79525 -6.081294,6.3513 -6.818175,7.62521 l -0.494395,0.85469 0.626687,-0.18976 c 0.344675,-0.10438 1.221997,-0.48245 1.949601,-0.84016 z m 9.928012,-10.79307 c -0.72243,-0.76899 -1.12577,-0.83486 -1.60158,-0.26155 -0.28226,0.34011 -0.21396,0.53519 0.41853,1.19537 0.75499,0.78804 0.75644,0.78833 1.28322,0.26155 0.52679,-0.52678 0.52667,-0.52813 -0.10017,-1.19537 z m 5.79071,-3.48314 c 1.2598,-1.18453 2.51853,-2.57704 2.79718,-3.09446 0.44691,-0.82986 0.46354,-1.02129 0.14111,-1.62376 -0.48094,-0.89864 -1.32845,-1.08151 -2.42279,-0.52278 -1.03036,0.52607 -4.27036,3.77272 -5.84092,5.85291 l -1.08179,1.43282 0.87435,0.90209 0.87434,0.90209 1.18399,-0.84761 c 0.65119,-0.46619 2.21473,-1.81677 3.47453,-3.0013 z m 0.6193,-2.91633 c -0.46775,-0.18874 -0.41084,-1.28099 0.0883,-1.69527 0.82483,-0.68454 1.85843,0.64224 1.1579,1.48633 -0.32496,0.39155 -0.65608,0.44706 -1.24622,0.20894 z m 0.94182,-0.81696 c -0.10741,-0.5577 -0.57697,-0.52254 -0.69664,0.0522 -0.0499,0.23971 0.0959,0.41085 0.35013,0.41085 0.27251,0 0.40228,-0.17341 0.34651,-0.46302 z"
       style="fill:#2b1e17;fill-opacity:1;stroke-width:0.264583"
       id="path1" />
  </g>
</svg>
