<?xml version="1.0" encoding="UTF-8" standalone="no"?>
<!-- Created with Inkscape (http://www.inkscape.org/) -->

<svg
   width="19.110434mm"
   height="27.653162mm"
   viewBox="0 0 19.110434 27.653162"
   version="1.1"
   id="svg1"
   inkscape:version="1.4.2 (f4327f4, 2025-05-13)"
   sodipodi:docname="chair.svg"
   xmlns:inkscape="http://www.inkscape.org/namespaces/inkscape"
   xmlns:sodipodi="http://sodipodi.sourceforge.net/DTD/sodipodi-0.dtd"
   xmlns="http://www.w3.org/2000/svg"
   xmlns:svg="http://www.w3.org/2000/svg">
  <sodipodi:namedview
     id="namedview1"
     pagecolor="#ffffff"
     bordercolor="#000000"
     borderopacity="0.25"
     inkscape:showpageshadow="2"
     inkscape:pageopacity="0.0"
     inkscape:pagecheckerboard="0"
     inkscape:deskcolor="#d1d1d1"
     inkscape:document-units="mm"
     inkscape:zoom="0.68862935"
     inkscape:cx="37.03008"
     inkscape:cy="51.55168"
     inkscape:window-width="1920"
     inkscape:window-height="991"
     inkscape:window-x="-9"
     inkscape:window-y="-9"
     inkscape:window-maximized="1"
     inkscape:current-layer="layer1" />
  <defs
     id="defs1" />
  <g
     inkscape:label="Ebene 1"
     inkscape:groupmode="layer"
     id="layer1"
     transform="translate(-95.396851,-134.77037)">
    <path
       d="m 103.21808,161.99114 c -0.51807,-0.4305 -0.56194,-0.75919 -0.62462,-4.6802 l -0.0674,-4.21718 -1.45521,-0.87495 c -0.80036,-0.48123 -1.528379,-0.87545 -1.617811,-0.87605 -0.08943,-5.3e-4 -0.24883,1.51695 -0.354211,3.37234 -0.105381,1.85539 -0.314677,3.52227 -0.465103,3.70417 -0.362866,0.43879 -1.286801,0.41974 -1.943291,-0.0401 -0.500623,-0.35065 -0.517162,-0.53408 -0.304178,-3.37343 0.292992,-3.90592 0.0765,-8.87935 -0.607706,-13.96082 -0.443388,-3.29298 -0.483502,-4.12074 -0.20815,-4.29543 0.439994,-0.27916 1.990175,-0.28836 2.160463,-0.0128 0.218229,0.3531 5.683257,-0.85457 6.052077,-1.3374 0.49176,-0.64376 1.63272,-0.84167 2.10863,-0.36576 0.26894,0.26894 0.58838,1.8912 0.98065,4.98007 0.85116,6.70248 0.41708,5.93414 4.10816,7.27173 1.73489,0.62869 3.25068,1.29255 3.36841,1.47524 0.11774,0.18268 0.1847,2.59093 0.1488,5.35166 l -0.0653,5.01951 -0.64311,0.32038 c -0.518,0.25807 -0.7868,0.24608 -1.38181,-0.0616 l -0.73871,-0.38201 -0.0734,-3.6754 -0.0734,-3.67541 -2.05052,0.64684 -2.05052,0.64684 v 1.3912 c 0,1.57293 -0.30779,2.02621 -1.37583,2.02621 h -0.74083 v 2.78467 c 0,2.74571 -0.01,2.78829 -0.67869,3.04271 -0.85389,0.32465 -0.7522,0.33946 -1.4074,-0.20499 z m 0.49859,-5.22552 c 0,-3.0868 -0.0977,-4.89479 -0.26459,-4.89479 -0.16649,0 -0.26458,1.74919 -0.26458,4.7184 0,4.14948 0.0802,5.07118 0.44097,5.07118 0.0485,0 0.0882,-2.20265 0.0882,-4.89479 z m 1.05833,0 c 0,-4.17453 -0.0584,-4.89479 -0.39688,-4.89479 -0.33847,0 -0.39687,0.72026 -0.39687,4.89479 0,4.17454 0.0584,4.89479 0.39687,4.89479 0.33848,0 0.39688,-0.72025 0.39688,-4.89479 z m 8.99583,-2.64583 c 0,-3.08681 -0.0977,-4.89479 -0.26458,-4.89479 -0.16686,0 -0.26458,1.80798 -0.26458,4.89479 0,3.08681 0.0977,4.89479 0.26458,4.89479 0.16685,0 0.26458,-1.80798 0.26458,-4.89479 z m -1.05833,0.91043 c 0,-2.41248 -0.093,-3.66232 -0.26458,-3.55626 -0.15405,0.0952 -0.26459,1.57554 -0.26459,3.54339 0,2.967 0.0905,3.73265 0.44098,3.73265 0.0485,0 0.0882,-1.6739 0.0882,-3.71978 z m -14.206608,-0.83886 c 0.08325,-1.86033 0.04564,-3.43295 -0.08401,-3.51308 -0.1291,-0.0798 -0.295441,0.24519 -0.369646,0.72218 -0.203089,1.3054 -0.354412,6.53416 -0.193755,6.69482 0.328724,0.32873 0.505788,-0.73897 0.647414,-3.90392 z m -1.046554,1.34299 c 0.306454,-4.31735 0.183447,-8.56768 -0.37421,-12.93039 -0.300369,-2.34985 -0.66058,-4.53009 -0.800476,-4.84498 -0.284964,-0.64143 -0.236937,-7.9e-4 0.453022,6.04206 0.3078,2.69584 0.387887,5.12662 0.294204,8.92969 -0.132824,5.39208 0.124108,7.07725 0.42746,2.80362 z m 8.373992,-0.88539 c 0,-0.65485 -0.11906,-1.19063 -0.26458,-1.19063 -0.29033,0 -0.35909,1.29794 -0.10399,1.96274 0.26641,0.69423 0.36857,0.4802 0.36857,-0.77211 z m 1.05428,-0.46302 c 0.002,-0.54571 -0.11501,-0.99219 -0.26053,-0.99219 -0.14552,0 -0.26276,0.62508 -0.26053,1.38906 0.003,0.99442 0.0769,1.27631 0.26053,0.99219 0.14107,-0.21828 0.25831,-0.84336 0.26053,-1.38906 z m 2.78218,-2.56763 c 2.65592,-0.79987 3.175,-1.04123 3.175,-1.47632 0,-0.60881 0.24938,-0.64762 -4.23333,0.65873 -2.94429,0.85803 -3.45195,1.08488 -3.52544,1.57539 -0.10082,0.67289 -0.24705,0.69707 4.58377,-0.7578 z m -6.74687,0.40624 c 0,-0.2065 -1.02084,-0.93191 -2.26853,-1.61203 -1.247697,-0.68011 -2.212611,-1.2925 -2.144259,-1.36085 0.06835,-0.0684 1.220669,0.42636 2.560699,1.09937 1.34003,0.673 2.50339,1.15668 2.58523,1.07484 0.0818,-0.0818 0.0992,-0.17871 0.0386,-0.21527 -0.0606,-0.0366 -1.14422,-0.58807 -2.40797,-1.2256 -2.335792,-1.17833 -3.126235,-1.26082 -3.126235,-0.32626 0,0.37126 0.609061,0.85101 2.182815,1.71939 2.41725,1.33381 2.57969,1.38711 2.57969,0.84641 z m 5.47368,-1.61272 c 2.30099,-0.65692 4.3622,-1.26298 4.58048,-1.34679 0.46503,-0.17854 -5.32206,-2.49328 -6.17845,-2.47127 -0.31263,0.008 0.84684,0.52264 2.57661,1.14355 l 3.14503,1.12894 -4.07107,1.13481 c -2.23909,0.62414 -4.18419,1.24063 -4.32243,1.36999 -0.38374,0.35906 -0.21434,0.321 4.26983,-0.95923 z m -3.40382,-0.89064 c 0.082,-0.85776 0.0549,-0.88753 -0.66146,-0.72582 -0.41082,0.0927 -1.1339,0.24293 -1.60684,0.33374 -0.47294,0.0908 -0.85929,0.23884 -0.85855,0.32894 0.002,0.27478 1.94837,1.05199 2.51219,1.00328 0.39639,-0.0342 0.55062,-0.27014 0.61466,-0.94014 z m 0.84055,-0.17952 c 0,-0.56039 -0.10712,-0.87544 -0.26458,-0.77813 -0.14552,0.0899 -0.26458,0.51368 -0.26458,0.94166 0,0.42797 0.11906,0.77813 0.26458,0.77813 0.14552,0 0.26458,-0.42374 0.26458,-0.94166 z m 1.05834,0.0312 c 0,-0.35522 -0.11907,-0.71943 -0.26459,-0.80937 -0.15436,-0.0954 -0.26458,0.17364 -0.26458,0.64584 0,0.44515 0.11906,0.80937 0.26458,0.80937 0.14552,0 0.26459,-0.29063 0.26459,-0.64584 z m 1.43204,0.22124 c 0.53851,-0.20665 0.27613,-0.63374 -0.38933,-0.63374 -0.28245,0 -0.51355,0.1786 -0.51355,0.39688 0,0.42675 0.24235,0.49033 0.90288,0.23686 z m -4.67319,-1.21072 c 1.61154,-0.38554 2.4474,-0.70935 2.4474,-0.94813 0,-0.22246 -0.17897,-0.30835 -0.46303,-0.22221 -0.25466,0.0772 -1.05833,0.26917 -1.78593,0.42653 -2.41949,0.52326 -3.30729,0.80953 -3.30729,1.06641 0,0.36889 0.38574,0.32886 3.10885,-0.3226 z m 7.2099,0.46393 c 0,-0.11071 -4.07973,-1.73903 -4.35709,-1.73903 -0.0775,0 -0.14083,0.14957 -0.14083,0.33238 0,0.3889 2.71116,1.46594 3.77031,1.49781 0.40018,0.012 0.72761,-0.029 0.72761,-0.0912 z m -12.294134,-2.49914 c -0.278474,-2.74349 -1.181944,-9.09999 -1.311881,-9.22993 -0.06442,-0.0644 -0.227491,-0.0489 -0.362394,0.0345 -0.147886,0.0914 -0.113229,0.91611 0.08729,2.07702 0.182909,1.05898 0.473562,3.29465 0.645898,4.96813 0.39856,3.87028 0.48554,4.29527 0.834901,4.07936 0.186237,-0.11511 0.222834,-0.7799 0.10619,-1.92905 z m 4.213654,1.17742 c 2.55864,-0.5783 3.66255,-0.94648 2.83787,-0.94648 -0.4969,0 -6.134478,1.35771 -6.134478,1.47738 0,0.18944 0.381072,0.12807 3.296608,-0.5309 z m -1.04765,-0.72624 c 0.58208,-0.14072 1.50482,-0.3715 2.05052,-0.51283 l 0.99219,-0.25697 v -1.6655 c 0,-0.91602 -0.0619,-1.72737 -0.13752,-1.80301 -0.13097,-0.13097 -5.427754,1.02848 -5.632128,1.23286 -0.05377,0.0538 -0.014,0.87985 0.08836,1.83574 0.208637,1.94824 -0.07026,1.8246 2.638578,1.16971 z m 4.17548,-2.27076 c -0.22387,-2.24199 -0.56713,-2.90381 -0.58322,-1.12448 -0.0145,1.60459 0.19034,2.64584 0.52052,2.64584 0.11804,0 0.14625,-0.68461 0.0627,-1.52136 z m 0.9839,0.59326 c 0,-0.98647 -0.98506,-8.41123 -1.21956,-9.19221 -0.0765,-0.25467 -0.37763,-0.46303 -0.66926,-0.46303 -0.45175,0 -0.47599,0.0542 -0.16379,0.36645 0.23097,0.23097 0.59712,2.18727 0.99042,5.29167 0.34318,2.70887 0.72257,4.92522 0.84308,4.92522 0.12051,0 0.21911,-0.41764 0.21911,-0.9281 z m -4.29948,-2.83538 c 2.19114,-0.47992 2.71198,-0.6837 2.71198,-1.06109 0,-0.57015 -0.24149,-0.57564 -2.69469,-0.0613 -3.529174,0.73999 -3.919898,0.88824 -3.919898,1.4873 0,0.44132 0.117478,0.51818 0.595313,0.38944 0.327421,-0.0882 1.815705,-0.42769 3.307295,-0.75439 z m -1.08439,-1.57354 2.73803,-0.57451 v -0.86508 c 0,-0.47579 -0.11118,-0.93379 -0.24707,-1.01778 -0.21229,-0.1312 -5.175743,0.80905 -5.588655,1.0587 -0.183909,0.11119 0.02013,1.97319 0.216228,1.97319 0.07889,0 1.375557,-0.25853 2.881467,-0.57452 z m 3.6669,-1.79003 c -0.10011,-0.5925 -0.27456,-1.02009 -0.38767,-0.95018 -0.19265,0.11906 -0.11639,1.13119 0.14795,1.96354 0.24093,0.75865 0.41487,0.0234 0.23972,-1.01336 z m -4.21216,-0.81372 c 1.44201,-0.29284 2.88972,-0.59276 3.21715,-0.6665 0.36876,-0.083 0.59531,-0.33101 0.59531,-0.65157 0,-0.57767 0.25366,-0.59571 -4.21517,0.29985 -1.37245,0.27504 -2.536112,0.54082 -2.585909,0.59062 -0.08989,0.0899 0.1865,0.96003 0.304946,0.96003 0.03401,0 1.241663,-0.23959 2.683673,-0.53243 z"
       style="fill:#2b1e17;fill-opacity:1;stroke-width:0.264583"
       id="path1" />
  </g>
</svg>
