<?xml version="1.0" encoding="UTF-8" standalone="no"?>
<!-- Created with Inkscape (http://www.inkscape.org/) -->

<svg
   width="22.924944mm"
   height="23.267548mm"
   viewBox="0 0 22.924944 23.267548"
   version="1.1"
   id="svg1"
   inkscape:version="1.4.2 (f4327f4, 2025-05-13)"
   sodipodi:docname="chisel.svg"
   xmlns:inkscape="http://www.inkscape.org/namespaces/inkscape"
   xmlns:sodipodi="http://sodipodi.sourceforge.net/DTD/sodipodi-0.dtd"
   xmlns="http://www.w3.org/2000/svg"
   xmlns:svg="http://www.w3.org/2000/svg">
  <sodipodi:namedview
     id="namedview1"
     pagecolor="#ffffff"
     bordercolor="#000000"
     borderopacity="0.25"
     inkscape:showpageshadow="2"
     inkscape:pageopacity="0.0"
     inkscape:pagecheckerboard="0"
     inkscape:deskcolor="#d1d1d1"
     inkscape:document-units="mm"
     inkscape:zoom="0.68862935"
     inkscape:cx="44.29088"
     inkscape:cy="44.29088"
     inkscape:window-width="1920"
     inkscape:window-height="991"
     inkscape:window-x="-9"
     inkscape:window-y="-9"
     inkscape:window-maximized="1"
     inkscape:current-layer="layer1" />
  <defs
     id="defs1" />
  <g
     inkscape:label="Ebene 1"
     inkscape:groupmode="layer"
     id="layer1"
     transform="translate(-93.491726,-136.78959)">
    <path
       d="m 94.922595,159.65874 c -0.970015,-0.52632 -1.604446,-1.79532 -1.388686,-2.77767 0.11753,-0.53511 1.276776,-1.82809 3.778175,-4.21402 1.984743,-1.89313 3.707656,-3.44205 3.828686,-3.44205 0.12104,0 0.86273,-0.4111 1.64821,-0.91357 1.17037,-0.74868 1.48951,-1.11842 1.76818,-2.04853 0.27197,-0.90776 1.15728,-1.96953 4.42261,-5.30413 2.24542,-2.29305 4.27383,-4.16918 4.50759,-4.16918 0.50033,0 2.92931,2.25431 2.92931,2.71867 0,0.17544 -1.93477,2.24083 -4.29948,4.58974 -3.16336,3.14222 -4.52307,4.31872 -5.1456,4.45229 -0.84317,0.18091 -1.93547,1.51704 -3.09476,3.78565 -0.53668,1.05021 -6.079907,7.35221 -6.664221,7.57643 -0.676823,0.25972 -1.515007,0.16689 -2.290014,-0.25363 z m 2.025923,-0.72817 c 0.441044,-0.3225 0.382982,-0.43113 -0.775489,-1.45086 -1.365456,-1.20192 -1.71678,-1.21401 -1.71678,-0.0591 0,0.51681 0.230248,0.92786 0.727604,1.29892 0.861944,0.64309 1.129951,0.67513 1.764665,0.21102 z m 3.420302,-3.6278 c 1.40475,-1.60494 2.5541,-3.04773 2.5541,-3.20622 0,-0.15848 -0.34862,-0.6852 -0.77471,-1.17049 l -0.77471,-0.88234 -1.03293,0.9797 c -0.56812,0.53884 -1.945691,1.84036 -3.061275,2.89226 l -2.028333,1.91255 1.123997,1.17138 c 0.618199,0.64426 1.195044,1.18259 1.281878,1.1963 0.08683,0.0137 1.307224,-1.2882 2.711983,-2.89314 z m 4.53434,-6.26827 c 0.43428,-0.52066 1.20819,-1.11698 1.71979,-1.32516 0.94876,-0.38607 7.41247,-6.57379 7.41247,-7.09597 0,-0.15686 -0.36011,-0.6302 -0.80023,-1.05187 l -0.80024,-0.76667 -3.30081,3.29289 c -2.22811,2.22276 -3.39699,3.59512 -3.59678,4.2229 -0.33979,1.06773 -1.60672,2.51366 -2.70733,3.08987 l -0.75435,0.39493 0.62158,0.66165 0.62159,0.66165 0.39735,-0.56878 c 0.21853,-0.31283 0.75267,-0.99478 1.18696,-1.51544 z m 10.15227,-9.42062 c 0.22281,-0.26847 0.0851,-0.55033 -0.58723,-1.20199 -0.70639,-0.68466 -0.93536,-0.78252 -1.16984,-0.49999 -0.22052,0.26572 -0.12936,0.55853 0.37422,1.20199 0.73563,0.93996 0.9526,1.01841 1.38285,0.49999 z"
       style="fill:#2b1e17;fill-opacity:1;stroke-width:0.264583"
       id="path1" />
  </g>
</svg>
