<?xml version="1.0" encoding="UTF-8" standalone="no"?>
<!-- Created with Inkscape (http://www.inkscape.org/) -->

<svg
   width="23.122755mm"
   height="24.183067mm"
   viewBox="0 0 23.122755 24.183067"
   version="1.1"
   id="svg1"
   inkscape:version="1.4.2 (f4327f4, 2025-05-13)"
   sodipodi:docname="combination_pliers.svg"
   xmlns:inkscape="http://www.inkscape.org/namespaces/inkscape"
   xmlns:sodipodi="http://sodipodi.sourceforge.net/DTD/sodipodi-0.dtd"
   xmlns="http://www.w3.org/2000/svg"
   xmlns:svg="http://www.w3.org/2000/svg">
  <sodipodi:namedview
     id="namedview1"
     pagecolor="#ffffff"
     bordercolor="#000000"
     borderopacity="0.25"
     inkscape:showpageshadow="2"
     inkscape:pageopacity="0.0"
     inkscape:pagecheckerboard="0"
     inkscape:deskcolor="#d1d1d1"
     inkscape:document-units="mm"
     inkscape:zoom="0.68862935"
     inkscape:cx="44.29088"
     inkscape:cy="45.74304"
     inkscape:window-width="1920"
     inkscape:window-height="991"
     inkscape:window-x="-9"
     inkscape:window-y="-9"
     inkscape:window-maximized="1"
     inkscape:current-layer="layer1" />
  <defs
     id="defs1" />
  <g
     inkscape:label="Ebene 1"
     inkscape:groupmode="layer"
     id="layer1"
     transform="translate(-93.426206,-136.39709)">
    <path
       d="m 97.78244,160.18631 c -0.435298,-0.4353 -0.545219,-1.38062 -0.213286,-1.83427 0.106913,-0.14611 1.061154,-0.9578 2.120535,-1.80374 2.484211,-1.9837 3.835561,-3.71156 5.210201,-6.66185 0.61022,-1.30968 1.30801,-2.54465 1.55064,-2.74437 0.24262,-0.19972 0.44114,-0.48606 0.44114,-0.63632 0,-0.15026 -0.20836,-0.0915 -0.46303,0.13059 -0.25466,0.22208 -1.46297,0.97554 -2.68515,1.67434 -2.74335,1.56858 -5.260174,3.88783 -6.871611,6.33217 -0.97155,1.47372 -1.378857,1.87582 -1.968608,1.94344 -2.425031,0.27806 -1.797706,-2.74658 1.394806,-6.72507 1.059537,-1.32039 5.419763,-4.60498 6.113013,-4.60498 0.13598,0 0.24724,-0.41253 0.24724,-0.91674 0,-1.1932 0.78946,-1.70154 1.70792,-1.09975 0.58223,0.38149 0.66715,0.35133 1.63591,-0.58096 0.56199,-0.54083 1.43852,-1.56906 1.94784,-2.28496 0.72593,-1.02036 1.43041,-1.57429 3.2601,-2.56342 1.28374,-0.69399 2.53389,-1.3239 2.77813,-1.3998 0.26653,-0.0828 0.86718,0.22003 1.50239,0.75755 l 1.05834,0.89555 -0.48902,1.41345 c -1.21449,3.51038 -2.64754,5.65124 -4.31129,6.44074 -0.48853,0.23182 -0.88823,0.55707 -0.88823,0.72276 0,0.16569 -0.2367,0.55321 -0.526,0.86115 -0.46279,0.49262 -0.4873,0.66238 -0.20403,1.41285 0.38921,1.03115 0.0608,1.72071 -0.8845,1.85703 -0.90549,0.13059 -1.24198,0.47827 -2.09135,2.16085 -0.97465,1.93076 -3.05134,4.4037 -4.81857,5.73797 -2.548277,1.92397 -3.746485,2.32283 -4.55353,1.51579 z m 2.39157,-1.0735 c 3.01287,-2.03624 5.1709,-4.43812 6.68504,-7.44042 0.78306,-1.55268 0.89029,-1.65364 1.75622,-1.65364 0.9276,0 1.07842,-0.14549 0.71974,-0.69431 -0.21721,-0.33235 -1.93556,-1.41983 -2.24594,-1.42137 -0.1097,-5.3e-4 -0.79071,1.19489 -1.51334,2.65653 -1.50856,3.05127 -3.26542,5.20568 -5.706669,6.99798 -1.603113,1.17696 -1.954266,1.65235 -1.532255,2.07436 0.31968,0.31968 0.794673,0.18546 1.837204,-0.51913 z m -5.049616,-3.47572 c 0.149195,-0.10691 0.684977,-0.89026 1.190625,-1.74078 1.274175,-2.14321 4.198831,-4.82785 6.814221,-6.25498 2.40451,-1.31208 2.56261,-1.61916 1.48995,-2.89395 -0.86267,-1.02522 -1.16711,-1.02876 -1.16711,-0.0136 0,0.69554 -0.21679,0.93567 -1.65364,1.83168 -2.751567,1.71584 -3.33881,2.19511 -4.773674,3.89591 -1.680726,1.99223 -2.98631,4.33272 -2.754246,4.93746 0.182687,0.47608 0.426886,0.54421 0.853874,0.23824 z m 14.354236,-8.41147 c 0.32342,-0.22653 0.58804,-0.64325 0.58804,-0.92604 0,-0.28279 0.11679,-0.51417 0.25954,-0.51417 0.60511,0 0.76128,-2.1737 0.20491,-2.8521 -0.30653,-0.37376 0.12593,-1.64581 0.55952,-1.64581 0.13287,0 0.32359,-0.32676 0.42382,-0.72613 0.24298,-0.96809 0.59106,-1.35093 1.6187,-1.7803 0.89672,-0.37467 1.73866,-1.46232 1.13197,-1.46232 -0.41486,0 -3.5601,1.72139 -4.65423,2.54727 -1.07757,0.81337 -2.41426,2.74088 -2.62238,3.78145 -0.11211,0.56056 0.01,1.08393 0.40947,1.76177 0.31292,0.53037 0.50066,1.17948 0.41719,1.44247 -0.13858,0.43662 0.002,0.54961 0.93584,0.75509 0.0768,0.0169 0.40419,-0.15465 0.72761,-0.38118 z m -1.06561,-2.25515 c -0.68262,-0.39759 -0.57122,-1.26377 0.20821,-1.6189 0.55061,-0.25087 0.74923,-0.22784 1.10526,0.12819 0.35602,0.35602 0.37906,0.55465 0.12819,1.10525 -0.32687,0.71739 -0.70033,0.81725 -1.44166,0.38546 z m 1.00644,-0.53103 c 0.27265,-0.44117 -0.34058,-0.94708 -0.70557,-0.58208 -0.30531,0.30531 -0.11423,0.86972 0.29444,0.86972 0.12835,0 0.31335,-0.12944 0.41113,-0.28764 z m -3.1694,0.15621 c -0.02,-0.9309 -0.47313,-1.14215 -0.63701,-0.29695 -0.0699,0.36055 0.35537,1.22213 0.60326,1.22213 0.0295,0 0.0447,-0.41633 0.0338,-0.92518 z m 8.2947,-3.69832 c 0.44746,-1.07487 0.81357,-2.15962 0.81357,-2.41057 0,-0.42495 -0.0362,-0.4235 -0.52742,0.021 -0.29008,0.26252 -0.73499,0.94778 -0.98869,1.5228 -0.31569,0.71554 -0.78466,1.21047 -1.48599,1.56827 -0.93118,0.47505 -1.00999,0.5964 -0.86339,1.3294 0.0887,0.44365 0.16621,1.11917 0.17218,1.50117 0.0105,0.6763 0.0378,0.66471 1.03851,-0.44164 0.56521,-0.62489 1.39376,-2.0156 1.84123,-3.09046 z m -1.46351,-0.82257 c 0.0989,-0.25768 0.0397,-0.37864 -0.1536,-0.31419 -0.39551,0.13184 -0.61327,0.73318 -0.26551,0.73318 0.14208,0 0.33068,-0.18855 0.41911,-0.41899 z"
       style="fill:#2b1e17;fill-opacity:1;stroke-width:0.264583"
       id="path1" />
  </g>
</svg>
