<?xml version="1.0" encoding="UTF-8" standalone="no"?>
<!-- Created with Inkscape (http://www.inkscape.org/) -->

<svg
   width="24mm"
   height="24mm"
   viewBox="0 0 24 24"
   version="1.1"
   id="svg1"
   inkscape:version="1.4.2 (f4327f4, 2025-05-13)"
   sodipodi:docname="cordless_drill.svg"
   xmlns:inkscape="http://www.inkscape.org/namespaces/inkscape"
   xmlns:sodipodi="http://sodipodi.sourceforge.net/DTD/sodipodi-0.dtd"
   xmlns="http://www.w3.org/2000/svg"
   xmlns:svg="http://www.w3.org/2000/svg">
  <sodipodi:namedview
     id="namedview1"
     pagecolor="#ffffff"
     bordercolor="#000000"
     borderopacity="0.25"
     inkscape:showpageshadow="2"
     inkscape:pageopacity="0.0"
     inkscape:pagecheckerboard="0"
     inkscape:deskcolor="#d1d1d1"
     inkscape:document-units="mm"
     inkscape:zoom="0.68862935"
     inkscape:cx="45.74304"
     inkscape:cy="38.48224"
     inkscape:window-width="1920"
     inkscape:window-height="991"
     inkscape:window-x="-9"
     inkscape:window-y="-9"
     inkscape:window-maximized="1"
     inkscape:current-layer="layer1" />
  <defs
     id="defs1" />
  <g
     inkscape:label="Ebene 1"
     inkscape:groupmode="layer"
     id="layer1"
      transform="translate(0 1.641242) scale(1.008209) translate(-93.133301,-138.2012)">
    <path
       d="m 107.4797,158.33812 c -0.50132,-0.35115 -0.58804,-0.65646 -0.58804,-2.07055 0,-1.81294 0.31551,-2.30523 2.03375,-3.17329 0.46371,-0.23426 0.90321,-0.52318 0.97667,-0.64203 0.0735,-0.11885 -0.11079,-1.01658 -0.40942,-1.99496 -0.48621,-1.59291 -0.64265,-1.82051 -1.49657,-2.1773 -1.11784,-0.46706 -1.35946,-0.77985 -1.36496,-1.76697 -0.002,-0.40019 -0.0348,-0.72761 -0.0724,-0.72761 -0.0376,0 -1.07839,-0.35718 -2.31293,-0.79375 -1.23453,-0.43656 -2.68294,-0.79375 -3.21867,-0.79375 -0.6411,0 -1.231015,-0.21621 -1.725762,-0.63251 -0.616434,-0.51869 -1.179513,-0.66719 -3.129153,-0.82521 -2.382097,-0.19308 -3.038914,-0.42419 -3.038914,-1.06932 0,-0.87243 0.801753,-1.17712 3.097413,-1.17712 2.077061,0 2.316946,-0.0551 2.878884,-0.66146 0.42378,-0.45727 0.892522,-0.66146 1.518432,-0.66146 0.49797,0 1.42639,-0.20434 2.06315,-0.45409 1.73616,-0.68096 11.96081,-0.68995 12.99636,-0.0114 1.91495,1.25472 1.54503,5.76204 -0.52787,6.43207 -1.49094,0.48192 -1.53731,0.64773 -0.90364,3.23152 0.31521,1.28528 0.5731,2.6309 0.5731,2.99027 0,0.35937 0.30217,1.09808 0.67148,1.64158 0.47151,0.69388 0.71862,1.49299 0.82977,2.68326 0.14715,1.57577 0.11005,1.74333 -0.52716,2.38054 -0.66894,0.66894 -0.77032,0.68545 -4.21048,0.68545 -2.76221,0 -3.65228,-0.0891 -4.11307,-0.41188 z m 7.19995,-0.63991 c 0.52206,-0.19849 0.67868,-0.44272 0.67868,-1.05833 v -0.8003 h -3.83646 -3.83646 v 0.7806 c 0,0.46431 0.18762,0.88988 0.46302,1.05029 0.59358,0.34573 5.63849,0.36715 6.53122,0.0277 z m 0.67868,-3.01357 c 0,-0.19866 -0.25317,-0.68306 -0.56261,-1.07644 -0.35152,-0.44688 -0.70305,-1.52746 -0.93689,-2.87996 -0.20585,-1.19058 -0.53696,-2.7147 -0.73578,-3.38692 -0.51803,-1.7514 -0.11171,-2.46911 1.777,-3.13882 0.93881,-0.33289 1.33163,-1.37439 1.11431,-2.95443 -0.28212,-2.05127 -0.53139,-2.15372 -5.57592,-2.29177 -2.40716,-0.0659 -4.47838,-0.0148 -4.60271,0.11353 -0.12434,0.12831 -0.25966,1.346 -0.30073,2.70598 -0.083,2.7478 -0.0287,2.84446 1.70475,3.03548 1.28952,0.1421 1.69165,0.52948 1.91364,1.84347 0.10254,0.60691 0.33533,1.3442 0.51731,1.63842 0.4889,0.79043 1.28343,4.01013 1.10459,4.47618 -0.085,0.22158 -0.7555,0.70737 -1.48994,1.07954 -0.73445,0.37218 -1.33535,0.79373 -1.33535,0.9368 0,0.15806 1.45342,0.26013 3.70416,0.26013 2.95357,0 3.70417,-0.0732 3.70417,-0.36119 z m -2.91042,-12.07423 c 0,-0.14552 0.59532,-0.26458 1.32292,-0.26458 0.7276,0 1.32292,0.11906 1.32292,0.26458 0,0.14552 -0.59532,0.26459 -1.32292,0.26459 -0.7276,0 -1.32292,-0.11907 -1.32292,-0.26459 z m 0,-1.05833 c 0,-0.14552 0.52876,-0.26458 1.17501,-0.26458 0.64626,0 1.2486,0.11906 1.33854,0.26458 0.10078,0.16307 -0.35004,0.26458 -1.17501,0.26458 -0.7362,0 -1.33854,-0.11906 -1.33854,-0.26458 z m 0,-1.05833 c 0,-0.14552 0.53578,-0.26459 1.19063,-0.26459 0.65484,0 1.19062,0.11907 1.19062,0.26459 0,0.14552 -0.53578,0.26458 -1.19062,0.26458 -0.65485,0 -1.19063,-0.11906 -1.19063,-0.26458 z m -3.96875,6.50393 c 0,-0.66497 -0.31141,-1.21227 -0.68976,-1.21227 -0.43853,0 -0.44278,0.0349 -0.11053,0.90882 0.27601,0.72597 0.80029,0.92476 0.80029,0.30345 z m -3.70416,-5.45064 v -2.38629 l -0.72761,0.17391 c -1.12137,0.26804 -1.12448,0.2745 -1.12448,2.34328 0,2.02603 0.0943,2.19371 1.25677,2.2345 0.5749,0.0202 0.59532,-0.0609 0.59532,-2.3654 z m -2.91042,0.96415 c 0,-0.49113 0.0744,-1.26503 0.16537,-1.71979 0.16364,-0.81822 0.1541,-0.82682 -0.91674,-0.82682 -1.252917,0 -1.712522,0.55994 -1.579585,1.92442 0.05693,0.58436 0.284197,0.94339 0.743455,1.1745 1.16881,0.58817 1.5875,0.4425 1.5875,-0.55231 z m -4.233333,-0.969 c 0,-0.13378 -0.535781,-0.21993 -1.190625,-0.19143 -0.654843,0.0285 -1.190625,0.15987 -1.190625,0.29193 0,0.13207 0.352571,0.1696 0.783492,0.0834 0.430919,-0.0862 0.855867,-0.0396 0.944322,0.10354 0.181208,0.29319 0.653436,0.0855 0.653436,-0.28746 z m 1.058334,0.29009 c 0,-0.31217 -0.516031,-0.64611 -0.705557,-0.45659 -0.189524,0.18953 0.144418,0.70556 0.456589,0.70556 0.136932,0 0.248968,-0.11204 0.248968,-0.24897 z m -3.775824,-0.17547 c -0.08792,-0.0879 -0.316124,-0.0973 -0.507119,-0.0209 -0.211066,0.0845 -0.148373,0.14716 0.159853,0.15985 0.278913,0.0115 0.435184,-0.051 0.347266,-0.13896 z"
       style="fill:#2b1e17;fill-opacity:1;stroke-width:0.264583"
       id="path1" />
  </g>
</svg>

