<?xml version="1.0" encoding="UTF-8" standalone="no"?>
<!-- Created with Inkscape (http://www.inkscape.org/) -->

<svg
   width="25.216011mm"
   height="25.273052mm"
   viewBox="0 0 25.216011 25.273052"
   version="1.1"
   id="svg1"
   inkscape:version="1.4.2 (f4327f4, 2025-05-13)"
   sodipodi:docname="corner_clamp.svg"
   xmlns:inkscape="http://www.inkscape.org/namespaces/inkscape"
   xmlns:sodipodi="http://sodipodi.sourceforge.net/DTD/sodipodi-0.dtd"
   xmlns="http://www.w3.org/2000/svg"
   xmlns:svg="http://www.w3.org/2000/svg">
  <sodipodi:namedview
     id="namedview1"
     pagecolor="#ffffff"
     bordercolor="#000000"
     borderopacity="0.25"
     inkscape:showpageshadow="2"
     inkscape:pageopacity="0.0"
     inkscape:pagecheckerboard="0"
     inkscape:deskcolor="#d1d1d1"
     inkscape:document-units="mm"
     inkscape:zoom="0.68862935"
     inkscape:cx="47.1952"
     inkscape:cy="47.1952"
     inkscape:window-width="1920"
     inkscape:window-height="991"
     inkscape:window-x="-9"
     inkscape:window-y="-9"
     inkscape:window-maximized="1"
     inkscape:current-layer="layer1" />
  <defs
     id="defs1" />
  <g
     inkscape:label="Ebene 1"
     inkscape:groupmode="layer"
     id="layer1"
     transform="translate(-92.486642,-135.97532)">
    <path
       d="m 111.11597,158.07949 -3.29032,-3.29824 h -3.1922 c -2.09442,0 -3.29924,-0.10704 -3.50345,-0.31125 -0.23861,-0.23861 -0.4362,-0.19817 -0.84666,0.1733 -0.294485,0.2665 -0.535423,0.63373 -0.535423,0.81607 0,0.18234 -1.042072,1.41404 -2.315715,2.73712 -2.464046,2.55968 -3.069445,2.84126 -4.034285,1.87642 -0.977976,-0.97797 -0.690911,-1.62086 1.874965,-4.19898 1.322273,-1.32858 2.494444,-2.4156 2.604828,-2.4156 0.110381,0 0.422219,-0.24479 0.692975,-0.54397 0.405453,-0.44802 0.436021,-0.63406 0.1733,-1.05474 -0.18592,-0.29771 -0.318984,-1.47983 -0.318984,-2.83379 v -2.32301 l -3.033829,-3.02522 c -1.668606,-1.66387 -2.974343,-3.08471 -2.901635,-3.15742 0.07271,-0.0727 1.437931,1.1695 3.033828,2.76045 l 2.901636,2.89263 v -1.06939 c 0,-1.19548 0.401129,-1.87437 1.188418,-2.01131 0.429521,-0.0747 0.03813,-0.59635 -2.116667,-2.82105 -3.46471,-3.5771 -3.585514,-4.08905 -0.169399,-0.71789 l 2.666844,2.63175 0.07529,-3.02862 0.0753,-3.02863 2.31511,-0.0764 2.3151,-0.0764 v 3.43142 3.43143 l 1.22266,1.01064 c 0.67246,0.55586 1.90428,1.71448 2.73737,2.57472 l 1.51472,1.56408 3.41419,-0.0487 c 1.8778,-0.0268 3.56837,0.0536 3.75682,0.1787 0.24427,0.16212 0.32023,0.82847 0.26458,2.32109 l -0.078,2.0937 -3.02926,0.0753 -3.02926,0.0753 3.02495,3.03355 c 1.66372,1.66845 2.89609,3.03355 2.73861,3.03355 -0.15748,0 -1.63723,-1.36922 -3.28834,-3.04271 -1.6511,-1.67349 -3.0907,-3.04271 -3.19911,-3.04271 -0.10841,0 -0.23405,0.44648 -0.27922,0.99219 -0.075,0.90582 -0.15697,0.9994 -0.94201,1.07509 -0.47295,0.0456 -0.8599,0.1628 -0.8599,0.26045 0,0.0976 1.33353,1.51485 2.96339,3.14936 1.62987,1.6345 2.90394,3.03127 2.83128,3.10394 -0.0727,0.0727 -1.61277,-1.35209 -3.42245,-3.16612 z m -14.178695,-0.49273 c 1.109292,-1.22186 2.016892,-2.33837 2.016892,-2.48114 0,-0.14277 -0.185555,-0.41358 -0.412342,-0.60179 -0.354084,-0.29387 -0.744469,-0.0116 -2.763028,1.99758 -1.964468,1.95536 -2.308167,2.41924 -2.091891,2.82336 0.480465,0.89775 1.213101,0.506 3.250369,-1.73801 z m 3.185665,-4.16379 c -0.210502,-0.3406 -0.799295,-0.27754 -1.13008,0.12103 -0.493945,0.59517 0.210264,1.06882 0.798123,0.53681 0.260487,-0.23574 0.409867,-0.53177 0.331957,-0.65784 z m 9.67914,0.56453 c 0,-0.14552 5.3e-4,-0.3484 10e-4,-0.45085 5.3e-4,-0.10244 -1.84493,-0.21955 -4.10104,-0.26023 -3.37527,-0.0609 -4.1021,-0.008 -4.1021,0.2965 0,0.20376 0.14883,0.43053 0.33073,0.50393 0.64983,0.26222 7.87135,0.18024 7.87135,-0.0893 z m -5.6432,-4.1214 c 2.89803,-3.08135 3.54358,-4.03934 2.86508,-4.25168 -0.14552,-0.0455 -1.80508,1.4531 -3.6879,3.33032 -2.96916,2.96032 -3.377304,3.46857 -3.07646,3.83107 0.19077,0.22986 0.44198,0.41794 0.55824,0.41794 0.11626,0 1.61973,-1.49744 3.34104,-3.32765 z m 5.90779,2.79848 c 0,-0.29871 -3.08391,-0.30325 -5.95313,-0.009 -1.55903,0.16002 -1.23458,0.19668 2.05052,0.23172 2.4531,0.0262 3.90261,-0.0566 3.90261,-0.22295 z m 6.87916,-1.23218 c 0,-0.40077 -0.57138,-0.42477 -6.65265,-0.27943 -4.10367,0.0981 -6.75972,0.26607 -6.93208,0.43843 -0.19619,0.19618 1.78573,0.27943 6.65265,0.27943 6.27746,0 6.93208,-0.0414 6.93208,-0.43843 z m -16.72764,-3.91386 c 0.0657,-3.50467 0.0291,-3.89496 -0.352369,-3.74859 -0.234172,0.0899 -0.47556,0.16338 -0.536419,0.16338 -0.190101,0 -0.120674,7.31012 0.07125,7.50204 0.574058,0.57406 0.749008,-0.26411 0.817538,-3.91683 z m -0.367472,0.25125 c 5.3e-4,-1.89177 0.04261,-2.63096 0.09365,-1.64264 0.05105,0.98831 0.05066,2.53613 -7.93e-4,3.43958 -0.05156,0.90345 -0.09332,0.0948 -0.09286,-1.79694 z m 6.511782,2.24896 c 0,-0.58797 0.12347,-0.79375 0.47625,-0.79375 0.26194,0 0.58936,0.113 0.7276,0.25111 0.13825,0.13811 1.0848,0.29338 2.10344,0.34505 l 1.85209,0.0939 -1.91823,0.0518 c -1.50568,0.0407 -1.91823,0.13717 -1.91823,0.44869 0,0.33766 0.69085,0.39688 4.63021,0.39688 h 4.6302 v -1.07143 -1.07143 l -5.29117,0.0429 -5.29117,0.0428 -1.12497,1.01773 -1.12498,1.01772 1.12448,0.0109 c 1.07545,0.0104 1.12448,-0.0238 1.12448,-0.78289 z m 6.9533,-0.45939 c 0.69561,-0.0547 1.76717,-0.054 2.38125,0.001 0.61407,0.0555 0.0449,0.10023 -1.26476,0.0994 -1.30969,-8e-4 -1.81211,-0.0462 -1.11649,-0.10089 z m -6.08689,0.73929 c 0.1488,-0.56902 -0.0237,-0.87055 -0.37415,-0.65397 -0.29977,0.18527 -0.29469,1.16782 0.006,1.16782 0.12855,0 0.29419,-0.23123 0.3681,-0.51385 z m -5.69051,-6.85026 c 0.0617,-5.80711 0.0193,-6.65881 -0.33073,-6.65881 -0.34838,0 -0.40142,0.89444 -0.40142,6.76892 0,5.29748 0.0719,6.74499 0.33073,6.65882 0.25036,-0.0834 0.34791,-1.72826 0.40142,-6.76893 z m 1.63293,4.65213 1.06127,-1.12448 0.007,-5.09323 c 0.006,-4.35387 -0.051,-5.09323 -0.39026,-5.09323 -0.33917,0 -0.39688,0.74792 -0.39688,5.14376 0,3.14377 -0.10287,5.20734 -0.26458,5.30728 -0.14552,0.0899 -0.26458,-0.0221 -0.26458,-0.24897 0,-0.22687 -0.18688,-0.41249 -0.41528,-0.41249 -0.27932,0 -0.3876,-0.1949 -0.33073,-0.59531 0.0536,-0.37771 0.24216,-0.56957 0.51574,-0.52488 0.38254,0.0625 0.43609,-0.42269 0.47458,-4.29948 l 0.0434,-4.36991 h -0.67302 -0.67302 v 6.21771 c 0,3.41974 0.0552,6.21771 0.12274,6.21771 0.0675,0 0.60031,-0.50602 1.18401,-1.12448 z m -0.726,-9.85573 c 0.005,-0.43656 0.0647,-0.58313 0.13177,-0.3257 0.0671,0.25744 0.0627,0.61462 -0.01,0.79375 -0.0725,0.17914 -0.12735,-0.0315 -0.12196,-0.46805 z m 6.16566,9.1276 c -0.46145,-0.50989 -0.50462,-0.51282 -0.9989,-0.0678 -0.50549,0.45514 -0.49744,0.46827 0.37367,0.60958 1.13362,0.1839 1.21678,0.11184 0.62523,-0.54182 z m -2.58291,-2.14776 c 0.0343,-0.20089 -0.23355,-0.57918 -0.59532,-0.84063 l -0.65776,-0.47537 v 1.23524 c 0,1.22154 0.007,1.23087 0.59531,0.84064 0.32742,-0.21704 0.62342,-0.55898 0.65777,-0.75988 z"
       style="fill:#2b1e17;fill-opacity:1;stroke-width:0.264583"
       id="path1" />
  </g>
</svg>
