<?xml version="1.0" encoding="UTF-8" standalone="no"?>
<!-- Created with Inkscape (http://www.inkscape.org/) -->

<svg
   width="19.856634mm"
   height="25.179697mm"
   viewBox="0 0 19.856634 25.179697"
   version="1.1"
   id="svg1"
   inkscape:version="1.4.2 (f4327f4, 2025-05-13)"
   sodipodi:docname="cup_hinge.svg"
   xmlns:inkscape="http://www.inkscape.org/namespaces/inkscape"
   xmlns:sodipodi="http://sodipodi.sourceforge.net/DTD/sodipodi-0.dtd"
   xmlns="http://www.w3.org/2000/svg"
   xmlns:svg="http://www.w3.org/2000/svg">
  <sodipodi:namedview
     id="namedview1"
     pagecolor="#ffffff"
     bordercolor="#000000"
     borderopacity="0.25"
     inkscape:showpageshadow="2"
     inkscape:pageopacity="0.0"
     inkscape:pagecheckerboard="0"
     inkscape:deskcolor="#d1d1d1"
     inkscape:document-units="mm"
     inkscape:zoom="0.68862935"
     inkscape:cx="37.03008"
     inkscape:cy="47.1952"
     inkscape:window-width="1920"
     inkscape:window-height="991"
     inkscape:window-x="-9"
     inkscape:window-y="-9"
     inkscape:window-maximized="1"
     inkscape:current-layer="layer1" />
  <defs
     id="defs1" />
  <g
     inkscape:label="Ebene 1"
     inkscape:groupmode="layer"
     id="layer1"
     transform="translate(-95.244736,-135.97719)">
    <path
       d="m 95.798369,160.43411 c -0.53511,-0.68028 -0.548371,-0.96735 -0.548371,-11.87057 0,-13.59828 -0.303747,-12.56771 3.704167,-12.56771 2.501705,0 2.629655,0.0283 3.155795,0.69714 0.48171,0.6124 0.54837,1.06267 0.54837,3.70417 v 3.00702 h 0.89774 c 0.97467,0 1.21893,0.32246 1.21893,1.60914 0,0.50993 0.13476,0.77211 0.39687,0.77211 0.29398,0 0.39688,-0.30868 0.39688,-1.19062 v -1.19063 h 1.05833 1.05833 v -3.00702 c 0,-2.6415 0.0667,-3.09177 0.54838,-3.70417 0.52613,-0.66887 0.65408,-0.69714 3.15579,-0.69714 4.01139,0 3.70417,-1.05628 3.70417,12.73568 0,13.57571 0.34948,12.39974 -3.68497,12.39974 -2.52245,0 -2.64837,-0.0276 -3.17499,-0.69714 -0.48172,-0.6124 -0.54838,-1.06267 -0.54838,-3.70417 v -3.00703 h -1.05833 -1.05833 v -1.19062 c 0,-0.88195 -0.1029,-1.19063 -0.39688,-1.19063 -0.29398,0 -0.39687,0.30868 -0.39687,1.19063 v 1.19062 h -1.05834 -1.05833 v 3.00703 c 0,2.6415 -0.0667,3.09177 -0.54837,3.70417 -0.52614,0.66887 -0.65409,0.69714 -3.155795,0.69714 -2.501707,0 -2.629659,-0.0283 -3.155796,-0.69714 z m 5.478171,-0.24391 c 0.54941,-0.38482 0.58804,-0.61077 0.58804,-3.43958 v -3.02771 h -2.097462 c -1.950786,0 -2.135811,-0.0488 -2.645833,-0.69714 -0.492874,-0.62658 -0.54837,-1.05634 -0.54837,-4.24647 0,-3.6819 0.270264,-4.85306 1.202478,-5.21078 0.235567,-0.0904 1.252001,-0.16436 2.258747,-0.16436 h 1.83044 v -2.98979 c 0,-1.97261 -0.10802,-3.09781 -0.3175,-3.30729 -0.46438,-0.46439 -4.817868,-0.42776 -5.20925,0.0438 -0.2155,0.25966 -0.280453,3.51464 -0.230836,11.56777 l 0.06905,11.20643 0.661458,0.33459 c 0.948495,0.47977 3.716718,0.43643 4.439038,-0.0695 z m -3.380708,-1.17562 c -0.66035,-0.66035 -0.680315,-1.63328 -0.04531,-2.20795 1.012595,-0.91639 2.691148,-0.2276 2.691148,1.1043 0,0.72005 -0.887444,1.63282 -1.587502,1.63282 -0.291042,0 -0.767292,-0.23813 -1.058333,-0.52917 z m 1.697992,-0.34822 c 0.942886,-0.68946 -0.11394,-2.22911 -1.10268,-1.60644 -0.63106,0.39741 -0.708451,1.00997 -0.192754,1.52567 0.519544,0.51954 0.681564,0.52965 1.295434,0.0808 z m -1.021778,-0.42165 c -0.22306,-0.36092 0.139078,-1.11894 0.480864,-1.00653 0.473729,0.15581 0.532852,1.24723 0.06756,1.24723 -0.219816,0 -0.466606,-0.10832 -0.548428,-0.2407 z m -0.610068,-17.6245 c -1.193975,-0.84447 -0.472052,-2.7723 1.038158,-2.7723 0.776089,0 1.541534,0.74066 1.541534,1.49162 0,1.26244 -1.530911,2.02246 -2.579692,1.28068 z m 1.96864,-0.82388 c 0.378272,-0.98577 -1.077018,-1.85761 -1.749068,-1.04784 -0.181192,0.21832 -0.252045,0.64078 -0.157456,0.93881 0.216619,0.6825 1.654897,0.76475 1.906524,0.10903 z m -1.411449,-0.42706 c 0.04997,-0.32742 0.168285,-0.56555 0.262924,-0.52917 0.09464,0.0364 0.291135,0.0661 0.436655,0.0661 0.145521,0 0.264584,0.23812 0.264584,0.52916 0,0.35223 -0.17639,0.52917 -0.527508,0.52917 -0.397574,0 -0.505127,-0.14663 -0.436655,-0.59531 z m 15.365051,20.81704 c 0.36485,-0.36485 0.41578,-1.78428 0.41578,-11.58875 0,-8.33732 -0.0806,-11.25356 -0.3175,-11.49048 -0.42881,-0.42881 -4.75703,-0.42881 -5.18584,0 -0.20948,0.20948 -0.3175,1.33468 -0.3175,3.30729 v 2.98979 h 1.95507 c 1.52965,0 2.09098,0.10993 2.57969,0.50519 0.59793,0.4836 0.62822,0.67328 0.70892,4.43916 0.079,3.68846 0.0489,3.97891 -0.48222,4.65418 -0.53151,0.6757 -0.6962,0.72022 -2.66399,0.72022 h -2.09747 v 3.02771 c 0,2.82881 0.0386,3.05476 0.58804,3.43958 0.82199,0.57575 4.24015,0.57298 4.81702,-0.004 z m -3.55297,-1.17173 c -0.66035,-0.66035 -0.68032,-1.63328 -0.0453,-2.20795 1.01259,-0.91639 2.69114,-0.2276 2.69114,1.1043 0,0.72005 -0.88744,1.63282 -1.5875,1.63282 -0.29104,0 -0.76729,-0.23813 -1.05833,-0.52917 z m 1.69799,-0.34822 c 0.56206,-0.41098 0.47579,-1.19558 -0.17664,-1.60644 -0.91675,-0.57733 -1.94907,0.72361 -1.24622,1.5705 0.39535,0.47636 0.80635,0.48675 1.42286,0.0359 z m -1.16883,-0.68181 c 0,-0.50257 0.60403,-0.92359 0.90018,-0.62743 0.37965,0.37964 0.13348,1.12829 -0.37101,1.12829 -0.34281,0 -0.52917,-0.17639 -0.52917,-0.50086 z m -0.19052,-17.234 c -0.79887,-0.3181 -1.03948,-1.41061 -0.494,-2.24311 0.83414,-1.27306 2.80119,-0.58309 2.80119,0.98256 0,1.06185 -1.18299,1.70818 -2.30719,1.26055 z m 1.35935,-0.60502 c 0.94289,-0.68946 -0.11394,-2.22911 -1.10268,-1.60645 -0.63106,0.39742 -0.70845,1.00998 -0.19275,1.52568 0.51954,0.51954 0.68156,0.52964 1.29543,0.0808 z m -1.16883,-0.66602 c 0,-0.69299 0.25848,-0.85973 0.84563,-0.5455 0.40775,0.21822 0.44777,0.35046 0.19739,0.65215 -0.44175,0.53228 -1.04302,0.4708 -1.04302,-0.10665 z m -11.112495,9.08403 v -4.63021 h -0.673484 c -0.370416,0 -0.965729,0.29224 -1.322916,0.64943 -0.623144,0.62315 -0.649433,0.78915 -0.649433,4.10104 0,3.09884 0.05408,3.5057 0.529166,3.98078 0.293982,0.29398 0.881944,0.52917 1.322917,0.52917 h 0.79375 z m 4.233335,3.70416 v -0.92604 h -1.32292 -1.32292 v -2.77812 -2.77813 h 1.32292 1.32292 v -0.93813 -0.93813 l -1.78594,0.0782 -1.78594,0.0782 -0.0731,4.22271 c -0.0402,2.3225 -0.0142,4.37632 0.0578,4.56407 0.0885,0.23053 0.69201,0.34135 1.85908,0.34135 h 1.7281 z m 5.93422,0.19844 c -0.0104,-0.32742 -0.0401,-2.38125 -0.0661,-4.56406 l -0.0472,-3.96875 h -1.71979 -1.71979 v 0.92604 0.92604 h 1.32291 1.32292 v 2.77813 2.77812 h -1.32292 -1.32291 v 0.93813 0.93813 l 1.78594,-0.0782 c 1.65911,-0.0727 1.78459,-0.12051 1.76703,-0.67355 z m 2.79703,0.19844 c 0.47566,-0.47566 0.52916,-0.88194 0.52916,-4.01784 0,-3.21776 -0.0447,-3.53623 -0.57528,-4.10104 -0.3381,-0.3599 -0.88353,-0.61237 -1.32292,-0.61237 h -0.74763 v 4.63021 4.63021 h 0.79375 c 0.44097,0 1.02894,-0.23519 1.32292,-0.52917 z m -4.28878,-4.0349 -0.0769,-2.18281 -2.38125,-0.0802 c -1.30968,-0.0441 -2.7682,-0.009 -3.24114,0.0781 l -0.8599,0.15838 v 1.92829 c 0,1.06056 0.0794,2.00766 0.17639,2.10468 0.097,0.097 1.59011,0.17639 3.31799,0.17639 h 3.1416 z"
       style="fill:#2b1e17;fill-opacity:1;stroke-width:0.264583"
       id="path1" />
  </g>
</svg>
