<?xml version="1.0" encoding="UTF-8" standalone="no"?>
<!-- Created with Inkscape (http://www.inkscape.org/) -->

<svg
   width="210mm"
   height="297mm"
   viewBox="0 0 210 297"
   version="1.1"
   id="svg1"
   inkscape:version="1.4.2 (f4327f4, 2025-05-13)"
   sodipodi:docname="damper.svg"
   xmlns:inkscape="http://www.inkscape.org/namespaces/inkscape"
   xmlns:sodipodi="http://sodipodi.sourceforge.net/DTD/sodipodi-0.dtd"
   xmlns="http://www.w3.org/2000/svg"
   xmlns:svg="http://www.w3.org/2000/svg">
  <sodipodi:namedview
     id="namedview1"
     pagecolor="#ffffff"
     bordercolor="#000000"
     borderopacity="0.25"
     inkscape:showpageshadow="2"
     inkscape:pageopacity="0.0"
     inkscape:pagecheckerboard="0"
     inkscape:deskcolor="#d1d1d1"
     inkscape:document-units="mm"
     inkscape:zoom="0.68862935"
     inkscape:cx="397.16576"
     inkscape:cy="561.25984"
     inkscape:window-width="1920"
     inkscape:window-height="991"
     inkscape:window-x="-9"
     inkscape:window-y="-9"
     inkscape:window-maximized="1"
     inkscape:current-layer="layer1" />
  <defs
     id="defs1" />
  <g
     inkscape:label="Ebene 1"
     inkscape:groupmode="layer"
     id="layer1">
    <path
       d="m 93.51818,160.48181 c -1.204473,-1.20447 -0.78654,-2.3367 1.41777,-3.84091 0.823298,-0.56182 1.385337,-1.16202 1.480523,-1.58106 0.08888,-0.39129 2.033003,-2.60735 4.621057,-5.26745 3.49215,-3.58935 4.57684,-4.55732 4.96777,-4.43324 0.38688,0.12279 1.08311,-0.46556 3.0745,-2.59809 1.4159,-1.51625 2.57436,-2.89133 2.57436,-3.05575 0,-0.55697 2.15247,-3.47255 2.7721,-3.75487 2.02316,-0.92181 3.67466,1.88975 2.01218,3.42556 -0.86694,0.80087 -2.7047,2.04852 -2.81562,1.9115 -0.0589,-0.0728 -1.36367,1.11786 -2.8995,2.64583 -2.2988,2.28705 -2.76629,2.88396 -2.64468,3.37682 0.12258,0.49681 -0.60591,1.38995 -4.28063,5.24812 -2.4356,2.55718 -4.759349,4.82059 -5.163894,5.02978 -0.416547,0.21541 -1.022843,0.94733 -1.398014,1.6877 -1.001273,1.97592 -2.471229,2.45276 -3.717922,1.20606 z m 2.416762,-0.73962 c 1.031941,-1.19845 1.502902,-2.30741 1.156952,-2.72426 -0.439108,-0.52909 -0.59032,-0.49711 -1.932432,0.40867 -1.540357,1.03957 -1.841585,1.73473 -1.081191,2.49512 0.58274,0.58274 1.25639,0.5176 1.856671,-0.17953 z m -1.412549,0.1555 c -0.421026,-0.16989 -0.429483,-1.20769 -0.01323,-1.62394 0.506957,-0.50696 0.992396,-0.37098 1.331348,0.37294 0.27005,0.59269 0.243359,0.74253 -0.188534,1.05833 -0.53345,0.39007 -0.6086,0.40289 -1.129584,0.19267 z m 0.859896,-0.88311 c 0,-0.19403 -0.148829,-0.40239 -0.33073,-0.46302 -0.196741,-0.0656 -0.330729,0.122 -0.330729,0.46302 0,0.34102 0.133988,0.5286 0.330729,0.46302 0.181901,-0.0606 0.33073,-0.26899 0.33073,-0.46302 z m 2.518849,-2.77173 c -0.184076,-0.2218 -0.457621,-0.40327 -0.607878,-0.40327 -0.150257,0 -0.05703,0.23886 0.207164,0.53079 0.547174,0.60462 0.911987,0.48853 0.400714,-0.12752 z m 8.199282,-8.70913 c -0.74511,-0.76085 -0.75297,-0.76236 -1.37106,-0.26458 -0.34191,0.27536 -2.19208,2.14466 -4.11149,4.154 l -3.489832,3.65334 0.83882,0.74949 0.838819,0.74948 4.022083,-4.13824 4.02207,-4.13825 z m 0.53491,-0.7365 c -0.9614,-0.77849 -1.23377,-0.55381 -0.39278,0.324 0.47973,0.50073 0.81377,0.68377 0.88081,0.48264 0.0594,-0.1782 -0.16021,-0.54119 -0.48803,-0.80664 z m 3.39623,-3.14165 c 1.50867,-1.60784 2.65738,-3.00677 2.5527,-3.10873 -0.20549,-0.20015 -5.6926,5.3763 -5.6926,5.78529 0,0.5579 0.52438,0.1109 3.1399,-2.67656 z m 4.87346,-4.09039 c 1.50495,-0.94021 1.837,-1.77408 1.02841,-2.58267 -0.76515,-0.76516 -1.54797,-0.36423 -2.6032,1.33329 -0.75991,1.22245 -0.79147,1.36165 -0.39791,1.75521 0.2351,0.23511 0.49018,0.3955 0.56684,0.35643 0.0767,-0.0391 0.70929,-0.42708 1.40586,-0.86226 z m -0.78772,-1.09177 c -0.37701,-0.98245 1.07635,-1.85839 1.74556,-1.05205 0.24361,0.29353 0.25213,0.53066 0.0337,0.93881 -0.35349,0.66052 -1.54025,0.73605 -1.77925,0.11324 z m 1.24103,-0.51525 c 0,-0.46724 -0.5696,-0.38587 -0.73311,0.10473 -0.0576,0.17281 0.0838,0.31419 0.3142,0.31419 0.23039,0 0.41891,-0.18851 0.41891,-0.41892 z m -0.0954,16.11034 c -0.0931,-0.0931 -0.1692,-1.59268 -0.1692,-3.3325 0,-2.78182 -0.0479,-3.12357 -0.39688,-2.83392 -0.31975,0.26536 -0.39687,0.25934 -0.39687,-0.031 0,-0.65006 0.91926,-2.61286 1.2242,-2.61387 0.33218,-10e-4 1.54162,2.61305 1.31413,2.84053 -0.0794,0.0794 -0.32576,-0.006 -0.54756,-0.19038 -0.35753,-0.29671 -0.40327,0.0275 -0.40327,2.8571 0,2.91244 -0.16153,3.76702 -0.62455,3.30401 z"
       style="fill:#2b1e17;fill-opacity:1;stroke-width:0.264583"
       id="path1" />
  </g>
</svg>
