<?xml version="1.0" encoding="UTF-8" standalone="no"?>
<!-- Created with Inkscape (http://www.inkscape.org/) -->

<svg
   width="26.945944mm"
   height="21.68951mm"
   viewBox="0 0 26.945944 21.68951"
   version="1.1"
   id="svg1"
   inkscape:version="1.4.2 (f4327f4, 2025-05-13)"
   sodipodi:docname="drawer.svg"
   xmlns:inkscape="http://www.inkscape.org/namespaces/inkscape"
   xmlns:sodipodi="http://sodipodi.sourceforge.net/DTD/sodipodi-0.dtd"
   xmlns="http://www.w3.org/2000/svg"
   xmlns:svg="http://www.w3.org/2000/svg">
  <sodipodi:namedview
     id="namedview1"
     pagecolor="#ffffff"
     bordercolor="#000000"
     borderopacity="0.25"
     inkscape:showpageshadow="2"
     inkscape:pageopacity="0.0"
     inkscape:pagecheckerboard="0"
     inkscape:deskcolor="#d1d1d1"
     inkscape:document-units="mm"
     inkscape:zoom="0.68862935"
     inkscape:cx="51.55168"
     inkscape:cy="41.38656"
     inkscape:window-width="1920"
     inkscape:window-height="991"
     inkscape:window-x="-9"
     inkscape:window-y="-9"
     inkscape:window-maximized="1"
     inkscape:current-layer="layer1" />
  <defs
     id="defs1" />
  <g
     inkscape:label="Ebene 1"
     inkscape:groupmode="layer"
     id="layer1"
     transform="translate(-91.545831,-137.56955)">
    <path
       d="m 100.80625,156.21715 c -3.274221,-1.79911 -6.697268,-3.69467 -7.606773,-4.21233 l -1.653646,-0.94122 v -3.14936 c 0,-3.32252 0.217149,-3.98091 1.312969,-3.98091 0.264782,0 2.498087,-1.23656 4.9629,-2.74791 2.46482,-1.51135 4.85913,-2.94321 5.32071,-3.18189 l 0.83922,-0.43398 7.02692,3.36083 c 4.37864,2.09422 7.13429,3.56144 7.3118,3.89312 0.36395,0.68004 0.0995,5.09125 -0.33672,5.61686 -0.1743,0.21002 -2.44364,1.94389 -5.04298,3.85304 -3.14933,2.31312 -4.72607,3.63331 -4.72607,3.9571 0,0.26725 -0.32742,0.65508 -0.7276,0.86184 -0.70402,0.36375 -0.92063,0.26987 -6.68073,-2.89519 z m 5.82083,-0.49185 c 0,-2.71171 -0.0128,-2.76899 -0.7276,-3.26714 -0.84739,-0.59051 -13.414039,-7.20191 -13.689065,-7.20191 -0.101926,0 -0.119465,0.68461 -0.03898,1.52135 0.08049,0.83675 0.151247,2.08148 0.157242,2.76608 l 0.0109,1.24472 2.447396,1.34837 c 1.346067,0.7416 4.471458,2.46725 6.945317,3.83478 2.47385,1.36753 4.58721,2.49259 4.69635,2.50014 0.10914,0.008 0.19844,-1.22833 0.19844,-2.74639 z m -8.220629,-3.02287 c -1.561198,-0.83418 -2.001959,-1.33398 -1.751656,-1.98626 0.199364,-0.51953 1.241036,-0.58345 1.241036,-0.0762 0,0.3146 1.068631,0.89637 2.447399,1.33237 0.57726,0.18254 0.60837,1.10897 0.0445,1.32534 -0.54878,0.21059 -0.37572,0.26259 -1.981279,-0.5953 z m 1.606049,0.002 c 0,-0.12342 -0.493696,-0.44702 -1.097099,-0.71912 -0.603407,-0.2721 -1.25825,-0.65587 -1.455209,-0.85283 -0.301093,-0.30114 -0.358111,-0.29904 -0.358111,0.0131 0,0.20421 0.565547,0.68607 1.256771,1.0708 1.348288,0.75045 1.653648,0.84056 1.653648,0.48798 z m 7.61597,2.75745 c 0.10157,-3.83839 -0.42978,-3.66174 -0.60617,0.20153 -0.1014,2.22083 -0.0564,2.84114 0.19999,2.75609 0.23092,-0.0766 0.35359,-0.96979 0.40618,-2.95762 z m 5.83556,-2.40076 4.26813,-3.175 0.004,-2.20486 c 0.002,-1.21267 -0.0896,-2.16517 -0.20355,-2.11666 -0.11399,0.0485 -2.25712,1.51095 -4.7625,3.24988 l -4.55524,3.16164 v 2.47571 c 0,2.35884 0.0232,2.45939 0.49066,2.12998 0.26986,-0.19015 2.41132,-1.77448 4.75879,-3.52073 z m 3.48585,-3.49011 c 0.002,-0.11778 0.11947,-0.39269 0.26053,-0.61098 0.22104,-0.34202 0.25704,-0.33503 0.26054,0.0505 0.002,0.24608 -0.11501,0.521 -0.26054,0.61093 -0.14552,0.0899 -0.26276,0.0672 -0.26053,-0.0505 z m -0.004,-2.31515 c 0,-0.37239 0.11906,-0.67708 0.26458,-0.67708 0.14553,0 0.26459,0.2311 0.26459,0.51356 0,0.28245 -0.11906,0.58713 -0.26459,0.67707 -0.15006,0.0927 -0.26458,-0.12955 -0.26458,-0.51355 z m -9.85525,4.81303 c -0.10647,-0.32079 -12.694374,-7.07562 -13.891103,-7.45414 -0.327422,-0.10356 -0.594405,-0.091 -0.593299,0.028 0.0011,0.11894 2.352593,1.4376 5.225521,2.93035 2.872931,1.49274 6.056941,3.17474 7.075591,3.73778 2.06282,1.14019 2.34233,1.23723 2.18329,0.75803 z m 5.6403,-3.79764 c 2.62772,-1.83404 4.72519,-3.38708 4.66106,-3.45122 -0.34586,-0.34586 -13.30077,-6.44962 -13.55456,-6.38629 -0.65463,0.16337 -9.915577,5.89433 -9.661691,5.97896 0.14909,0.0497 2.430222,-1.22219 5.069184,-2.8264 4.396167,-2.67243 4.845397,-2.887 5.362557,-2.56149 0.31044,0.1954 3.15108,1.57444 6.31252,3.06454 3.16144,1.4901 5.69906,2.78859 5.63914,2.88554 -0.0599,0.0969 -2.08101,1.53149 -4.49131,3.18786 -3.79412,2.60734 -4.82538,3.44312 -4.24846,3.44312 0.0736,0 2.28385,-1.50058 4.91156,-3.33462 z m -3.17623,1.01951 c 1.44,-0.98226 2.62055,-1.84973 2.62344,-1.9277 0.005,-0.13403 -6.3266,-3.27522 -7.60343,-3.77219 -0.48878,-0.19024 -1.07727,0.0642 -3.24115,1.40159 -1.454158,0.89872 -2.643929,1.67455 -2.643929,1.72406 0,0.0495 1.445569,0.82467 3.212369,1.72256 1.76681,0.89789 3.58251,1.85822 4.0349,2.13408 0.45239,0.27586 0.86236,0.50201 0.91106,0.50255 0.0487,5.3e-4 1.26673,-0.80268 2.70674,-1.78495 z m 4.61713,-3.14631 c 0.79812,-0.52993 1.45113,-1.04489 1.45113,-1.14436 0,-0.13798 -9.96722,-5.07601 -11.14386,-5.52096 -0.12827,-0.0485 -0.23322,0.6949 -0.23322,1.65202 v 1.74022 l 4.16719,2.10433 c 2.29195,1.15738 4.19878,2.11061 4.2374,2.11829 0.0386,0.008 0.72323,-0.41961 1.52136,-0.94954 z m -13.10409,-1.48389 2.63968,-1.65365 0.005,-1.79525 c 0.005,-1.74677 -0.0105,-1.78715 -0.55535,-1.49554 -0.90699,0.48541 -7.480105,4.51443 -7.835652,4.80291 -0.50227,0.40752 1.437356,1.64093 2.774767,1.76448 0.182729,0.0169 1.520092,-0.71345 2.971915,-1.62295 z"
       style="fill:#2b1e17;fill-opacity:1;stroke-width:0.264583"
       id="path1" />
  </g>
</svg>
