<?xml version="1.0" encoding="UTF-8" standalone="no"?>
<!-- Created with Inkscape (http://www.inkscape.org/) -->

<svg
   width="21.160465mm"
   height="28.575001mm"
   viewBox="0 0 21.160465 28.575001"
   version="1.1"
   id="svg1"
   inkscape:version="1.4.2 (f4327f4, 2025-05-13)"
   sodipodi:docname="drill_press.svg"
   xmlns:inkscape="http://www.inkscape.org/namespaces/inkscape"
   xmlns:sodipodi="http://sodipodi.sourceforge.net/DTD/sodipodi-0.dtd"
   xmlns="http://www.w3.org/2000/svg"
   xmlns:svg="http://www.w3.org/2000/svg">
  <sodipodi:namedview
     id="namedview1"
     pagecolor="#ffffff"
     bordercolor="#000000"
     borderopacity="0.25"
     inkscape:showpageshadow="2"
     inkscape:pageopacity="0.0"
     inkscape:pagecheckerboard="0"
     inkscape:deskcolor="#d1d1d1"
     inkscape:document-units="mm"
     inkscape:zoom="0.68862935"
     inkscape:cx="39.9344"
     inkscape:cy="54.456"
     inkscape:window-width="1920"
     inkscape:window-height="991"
     inkscape:window-x="-9"
     inkscape:window-y="-9"
     inkscape:window-maximized="1"
     inkscape:current-layer="layer1" />
  <defs
     id="defs1" />
  <g
     inkscape:label="Ebene 1"
     inkscape:groupmode="layer"
     id="layer1"
     transform="translate(-94.462444,-134.14375)">
    <path
       d="m 94.632637,162.54236 c -0.26534,-0.26534 -0.212142,-1.30774 0.10191,-1.99701 0.153064,-0.33594 0.629314,-0.81226 1.058333,-1.05848 0.585219,-0.33587 0.780034,-0.64192 0.780034,-1.22543 0,-0.46512 0.168225,-0.8423 0.418516,-0.93834 0.230182,-0.0883 2.184976,-0.1606 4.34398,-0.1606 2.15901,0 4.11381,0.0723 4.34399,0.1606 0.26784,0.10278 0.41851,0.48379 0.41851,1.05833 0,0.82109 0.0678,0.89773 0.79375,0.89773 h 0.79375 v -3.26482 c 0,-3.24706 -0.004,-3.2665 -0.67808,-3.57377 -0.55706,-0.25382 -0.66331,-0.46207 -0.59531,-1.16695 0.0567,-0.58794 0.27014,-0.9402 0.67808,-1.11917 0.51828,-0.22739 0.59531,-0.45849 0.59531,-1.78594 v -1.52476 h -1.85208 c -1.6787,0 -1.85208,0.0498 -1.85208,0.53176 0,0.29246 -0.23813,0.73564 -0.52917,0.98484 -0.39015,0.33405 -0.52917,0.7805 -0.52917,1.69937 0,1.01391 -0.0987,1.2776 -0.52916,1.41424 -0.44934,0.14261 -0.52917,0.40032 -0.52917,1.70831 0,1.1317 -0.13586,1.70607 -0.5121,2.16498 -0.47252,0.57635 -0.54578,0.59153 -0.94798,0.19636 -0.27232,-0.26756 -0.491586,-1.06183 -0.584336,-2.11667 -0.08819,-1.00298 -0.294103,-1.77429 -0.507227,-1.89998 -0.207915,-0.12262 -0.358773,-0.66133 -0.358773,-1.28119 0,-0.66897 -0.198204,-1.32158 -0.529166,-1.74232 -0.291042,-0.37 -0.529167,-0.83367 -0.529167,-1.03037 0,-0.19671 -0.41248,-0.52999 -0.916625,-0.74064 -0.579324,-0.24205 -0.963414,-0.60847 -1.043779,-0.99573 -0.251473,-1.21186 -0.34908,-9.31715 -0.122097,-10.13921 0.139528,-0.50533 0.500401,-0.96266 0.905137,-1.14707 0.461732,-0.21038 3.123951,-0.30668 8.477883,-0.30668 h 7.80478 l 0.64943,0.64943 c 0.64303,0.64302 0.64944,0.69806 0.64944,5.5766 v 4.92717 l -0.7734,0.7734 c -0.42537,0.42537 -1.02068,0.7734 -1.32292,0.7734 -0.48969,0 -0.54952,0.15842 -0.54952,1.45521 0,1.44315 0.007,1.4552 0.8003,1.4552 0.61562,0 0.85985,0.15662 1.05834,0.67869 0.46348,1.21906 0.34164,1.43798 -0.8003,1.43798 h -1.05834 v 3.67051 3.6705 l 1.3735,0.13198 c 1.51887,0.14594 2.59525,1.03606 2.59525,2.14614 0,1.22184 -0.0607,1.22879 -10.72444,1.22879 -5.549195,0 -10.16882,-0.0794 -10.265833,-0.17639 z m 19.931943,-1.26382 c 0,-0.21003 -0.25951,-0.56364 -0.5767,-0.78581 -0.4872,-0.34124 -1.88596,-0.40519 -9.01286,-0.41207 -5.329042,-0.005 -8.624792,0.0928 -8.948304,0.26595 -0.281675,0.15075 -0.512135,0.50802 -0.512135,0.79395 0,0.50713 0.233243,0.51985 9.524999,0.51985 8.12396,0 9.525,-0.0562 9.525,-0.38187 z m -9.26042,-2.51293 c 0,-0.28245 -0.12855,-0.593 -0.28568,-0.69011 -0.15713,-0.0971 -1.94307,-0.0908 -3.96875,0.0141 -3.366195,0.17429 -3.683066,0.23367 -3.683066,0.69012 0,0.4673 0.255191,0.49941 3.968746,0.49941 3.75214,0 3.96875,-0.028 3.96875,-0.51355 z m 5.55625,-5.71937 v -6.23292 l -1.12447,0.0814 -1.12448,0.0814 0.0413,1.5875 c 0.0227,0.87312 0.0525,3.64133 0.0662,6.15156 l 0.0249,4.56406 h 1.05833 1.05833 z m -9.78958,0.0152 c 0,-0.80037 -0.11906,-1.45521 -0.26458,-1.45521 -0.14552,0 -0.26459,0.65484 -0.26459,1.45521 0,0.80036 0.11907,1.4552 0.26459,1.4552 0.14552,0 0.26458,-0.65484 0.26458,-1.4552 z m 6.87917,-1.84378 c 0,-0.47188 -0.11015,-0.61089 -0.39688,-0.50086 -0.41172,0.15799 -0.52736,0.67074 -0.22048,0.97762 0.35835,0.35836 0.61736,0.15834 0.61736,-0.47676 z m 4.63021,-0.1406 c -0.0899,-0.14552 -0.33509,-0.26458 -0.54479,-0.26458 -0.20969,0 -0.38126,0.11906 -0.38126,0.26458 0,0.14552 0.24516,0.26458 0.54479,0.26458 0.29963,0 0.47119,-0.11906 0.38126,-0.26458 z m -10.58334,-1.32292 c 0,-0.90031 -0.0312,-0.9283 -1.12448,-1.0074 l -1.124476,-0.0814 v 1.08876 1.08877 l 1.124476,-0.0814 c 1.09324,-0.0791 1.12448,-0.10709 1.12448,-1.00741 z m 0.92604,-2.38125 c 0,-0.48506 -0.17639,-0.52916 -2.11666,-0.52916 -1.587502,0 -2.116669,0.0882 -2.116669,0.35278 0,0.61223 0.303302,0.70555 2.293059,0.70555 1.76388,0 1.94027,-0.0481 1.94027,-0.52917 z m 9.90298,-1.73869 c 0.34784,-0.34783 0.41577,-1.21096 0.41577,-5.28235 0,-4.54066 -0.0343,-4.88493 -0.51177,-5.14048 -0.31736,-0.16984 -3.28903,-0.27389 -7.8226,-0.27389 -4.53357,0 -7.505246,0.10405 -7.822603,0.27389 -0.477499,0.25555 -0.511773,0.59982 -0.511773,5.14048 0,4.07139 0.06794,4.93452 0.415775,5.28235 0.358425,0.35843 1.450625,0.41578 7.918601,0.41578 6.46797,0 7.56017,-0.0574 7.9186,-0.41578 z m -9.04523,-0.65406 c -0.32861,-0.13069 -0.73307,-0.53525 -0.89882,-0.89902 -0.55773,-1.22408 0.99951,-4.14999 2.00364,-3.76466 0.54995,0.21103 1.47702,2.11671 1.47702,3.03614 0,1.23716 -1.37848,2.10612 -2.58184,1.62754 z m 1.74117,-1.65924 c 0.0865,-0.75447 -0.54922,-2.03342 -1.01072,-2.03342 -0.44915,0 -1.10987,1.6135 -0.93919,2.29354 0.13691,0.54549 0.29866,0.63593 1.01372,0.56682 0.71213,-0.0688 0.86473,-0.20362 0.93619,-0.82694 z m 2.56046,-4.4323 c -2.10241,-0.14891 -2.09661,-0.15024 0.8599,-0.19844 2.91024,-0.0474 3.83512,0.0632 2.11666,0.25327 -0.47294,0.0523 -1.81239,0.0276 -2.97656,-0.0548 z m -0.92604,-1.31879 c 1.71346,-0.30489 4.70311,-0.29664 4.89479,0.0135 0.10591,0.17137 -0.9373,0.25292 -2.96095,0.23147 -2.45387,-0.026 -2.86893,-0.0786 -1.93384,-0.24497 z m -1.05834,-1.04483 c 0,-0.16036 1.14653,-0.26458 2.91042,-0.26458 1.76389,0 2.91042,0.10422 2.91042,0.26458 0,0.16035 -1.14653,0.26458 -2.91042,0.26458 -1.76389,0 -2.91042,-0.10423 -2.91042,-0.26458 z"
       style="fill:#2b1e17;fill-opacity:1;stroke-width:0.264583"
       id="path1" />
  </g>
</svg>
