<?xml version="1.0" encoding="UTF-8" standalone="no"?>
<!-- Created with Inkscape (http://www.inkscape.org/) -->

<svg
   width="24mm"
   height="24mm"
   viewBox="0 0 24 24"
   version="1.1"
   id="svg1"
   inkscape:version="1.4.2 (f4327f4, 2025-05-13)"
   sodipodi:docname="dust_extraction.svg"
   xmlns:inkscape="http://www.inkscape.org/namespaces/inkscape"
   xmlns:sodipodi="http://sodipodi.sourceforge.net/DTD/sodipodi-0.dtd"
   xmlns="http://www.w3.org/2000/svg"
   xmlns:svg="http://www.w3.org/2000/svg">
  <sodipodi:namedview
     id="namedview1"
     pagecolor="#ffffff"
     bordercolor="#000000"
     borderopacity="0.25"
     inkscape:showpageshadow="2"
     inkscape:pageopacity="0.0"
     inkscape:pagecheckerboard="0"
     inkscape:deskcolor="#d1d1d1"
     inkscape:document-units="mm"
     inkscape:zoom="0.68862935"
     inkscape:cx="41.38656"
     inkscape:cy="53.00384"
     inkscape:window-width="24mm"
     inkscape:window-height="24mm"
     inkscape:window-x="-9"
     inkscape:window-y="-9"
     inkscape:window-maximized="1"
     inkscape:current-layer="layer1" />
  <defs
     id="defs1" />
  <g
     inkscape:label="Ebene 1"
     inkscape:groupmode="layer"
     id="layer1"
      transform="translate(0 0.000001) scale(0.708661) translate(-94.256442,-134.40833)">
    <path
       d="m 102.33351,165.80713 c -0.21981,-0.26486 -0.28903,-1.6769 -0.23365,-4.76624 l 0.0787,-4.38989 -0.60361,2.7e-4 c -0.33199,1.9e-4 -0.67045,-0.17382 -0.75214,-0.38669 -0.22444,-0.58488 0.68776,-3.07006 1.38155,-3.76385 0.54894,-0.54894 0.85685,-0.61161 3.00489,-0.61161 1.85641,0 2.39327,-0.0818 2.39327,-0.36448 0,-0.20046 0.17859,-0.5127 0.39687,-0.69386 0.30088,-0.2497 0.39688,-0.92639 0.39688,-2.79749 0,-4.31309 0.71355,-6.44242 2.7636,-8.24695 1.36125,-1.19813 3.4836,-1.92005 5.64497,-1.92005 1.71548,0 1.91018,0.31585 1.91018,3.09874 0,2.64356 -0.36182,3.25126 -1.93574,3.25126 -1.50765,0 -1.8162,0.56196 -1.97495,3.59686 -0.11613,2.2202 -0.0764,2.48516 0.48667,3.24677 0.60537,0.81881 0.64219,0.82929 2.91529,0.82929 2.78274,0 3.18904,0.2544 3.96493,2.48274 0.62195,1.78618 0.53554,2.27976 -0.39908,2.27976 h -0.66368 l -0.0722,4.69635 -0.0723,4.69636 -9.15906,0.0695 c -7.65793,0.0581 -9.21025,0.008 -9.4714,-0.30682 z m 1.76614,-4.26392 c 0.0693,-3.718 0.19557,-4.70424 0.54054,-4.22263 0.11364,0.15865 2.79433,0.22695 6.99722,0.1783 5.74309,-0.0665 6.81302,-0.13921 6.81302,-0.46302 0,-0.32697 -1.14033,-0.38415 -7.66028,-0.38415 h -7.66028 l -0.0788,4.25611 c -0.0433,2.34086 -0.0251,4.30951 0.0406,4.37477 0.0657,0.0653 0.30379,0.0833 0.52917,0.0401 0.34268,-0.0657 0.42107,-0.68449 0.47878,-3.77946 z m 14.35078,0.003 v -3.57188 h -6.87916 -6.87917 v 3.57188 3.57187 h 6.87917 6.87916 z M 107.07335,160.091 c 0,-0.16605 1.6809,-0.26458 4.51353,-0.26458 2.94165,0 4.45659,0.0921 4.35001,0.26458 -0.0983,0.15903 -1.89893,0.26458 -4.51353,0.26458 -2.72362,0 -4.35001,-0.0989 -4.35001,-0.26458 z m 13.22917,0.79375 v -4.23333 h -0.66146 -0.66146 v 4.23333 4.23333 h 0.66146 0.66146 z m 1.31855,-5.62239 c -0.003,-0.18191 -0.27366,-0.80698 -0.60283,-1.38907 l -0.5985,-1.05833 -2.17282,-0.0768 c -1.19505,-0.0422 -3.12598,0.10401 -4.29095,0.325 -1.87285,0.35527 -2.371,0.35707 -4.30193,0.0155 -1.2011,-0.21245 -3.23143,-0.38846 -4.51185,-0.39114 l -2.32804,-0.005 -0.51042,1.12448 c -0.28073,0.61846 -0.51304,1.2733 -0.51623,1.45521 -0.005,0.2588 2.15185,0.33072 9.91606,0.33072 7.76343,0 9.92092,-0.0719 9.91751,-0.33072 z m -7.85702,-3.01571 c 0.55119,-0.0911 0.9609,-0.28938 0.91048,-0.44065 -0.11872,-0.35614 -5.98779,-0.40127 -6.07953,-0.0467 -0.13365,0.51648 3.13057,0.82426 5.16905,0.48739 z m 0.13784,-1.87909 c -0.0757,-0.39207 -0.42325,-0.46935 -2.2681,-0.50432 -1.19826,-0.0227 -2.24534,0.0666 -2.32683,0.19843 -0.34631,0.56033 0.31332,0.76891 2.43161,0.76891 2.00315,0 2.24284,-0.0513 2.16332,-0.46302 z m 0.0506,-1.38906 c 0,-0.48997 -0.17639,-0.52917 -2.38125,-0.52917 -2.20486,0 -2.38125,0.0392 -2.38125,0.52917 0,0.48997 0.17639,0.52917 2.38125,0.52917 2.20486,0 2.38125,-0.0392 2.38125,-0.52917 z m 0,-1.30216 c 0,-0.38436 -0.23148,-0.56875 -0.8599,-0.68496 -0.47294,-0.0875 -1.45521,-0.26726 -2.18281,-0.39956 -1.1163,-0.20297 -0.97873,-0.22009 0.88082,-0.10962 2.00709,0.11924 2.19567,0.089 2.11326,-0.33893 -0.0602,-0.31243 -0.77647,-0.72873 -2.13781,-1.24244 -1.12603,-0.42493 -2.09461,-0.72308 -2.15241,-0.66256 -0.0578,0.0605 -0.18524,0.95334 -0.28322,1.98405 l -0.17815,1.87403 2.40011,0.053 c 2.23658,0.0494 2.40011,0.0171 2.40011,-0.47298 z m 0.35633,-2.78864 c 0.16152,-0.4209 -2.87347,-3.31425 -3.47869,-3.31634 -0.39773,-0.001 -1.27889,1.92167 -0.93992,2.05127 0.1242,0.0475 1.05926,0.42616 2.0779,0.84149 2.24547,0.91555 2.158,0.89972 2.34071,0.42358 z m 0.702,-1.34902 c 0,-0.46007 -0.70257,-1.4402 -1.03466,-1.4434 -0.29477,-0.003 -0.32559,-0.0644 -0.10305,-0.20587 0.40652,-0.25841 -0.0966,-2.43591 -0.56286,-2.43591 -0.39065,0 -2.13589,1.26959 -2.13589,1.55377 0,0.38631 3.17122,2.87017 3.50573,2.74586 0.1819,-0.0676 0.33073,-0.1641 0.33073,-0.21445 z m 0.72393,-1.77007 -0.13817,-1.65365 0.27911,1.52135 c 0.17805,0.97051 0.40955,1.52136 0.63936,1.52136 0.28894,0 0.32564,-0.43197 0.1854,-2.18281 -0.0962,-1.20055 -0.18824,-2.20225 -0.20463,-2.226 -0.0722,-0.10461 -2.31705,0.39016 -2.47164,0.54475 -0.14908,0.14909 0.0925,0.98488 1.02118,3.53333 0.11932,0.32742 0.35433,0.59531 0.52225,0.59531 0.21286,0 0.26347,-0.50073 0.16714,-1.65364 z m 2.02589,0.97054 c 0.0883,-0.23018 0.1606,-1.05388 0.1606,-1.83044 0,-1.51908 -0.18093,-2.24896 -0.55748,-2.24896 -0.12995,0 -0.23627,1.01203 -0.23627,2.24896 0,2.09125 0.25271,2.82185 0.63315,1.83044 z"
       style="fill:#2b1e17;fill-opacity:1;stroke-width:0.264583"
       id="path1" />
  </g>
</svg>


