<?xml version="1.0" encoding="UTF-8" standalone="no"?>
<!-- Created with Inkscape (http://www.inkscape.org/) -->

<svg
   width="23.565922mm"
   height="24.028744mm"
   viewBox="0 0 23.565922 24.028744"
   version="1.1"
   id="svg1"
   inkscape:version="1.4.2 (f4327f4, 2025-05-13)"
   sodipodi:docname="file.svg"
   xmlns:inkscape="http://www.inkscape.org/namespaces/inkscape"
   xmlns:sodipodi="http://sodipodi.sourceforge.net/DTD/sodipodi-0.dtd"
   xmlns="http://www.w3.org/2000/svg"
   xmlns:svg="http://www.w3.org/2000/svg">
  <sodipodi:namedview
     id="namedview1"
     pagecolor="#ffffff"
     bordercolor="#000000"
     borderopacity="0.25"
     inkscape:showpageshadow="2"
     inkscape:pageopacity="0.0"
     inkscape:pagecheckerboard="0"
     inkscape:deskcolor="#d1d1d1"
     inkscape:document-units="mm"
     inkscape:zoom="0.68862935"
     inkscape:cx="44.29088"
     inkscape:cy="45.74304"
     inkscape:window-width="1920"
     inkscape:window-height="991"
     inkscape:window-x="-9"
     inkscape:window-y="-9"
     inkscape:window-maximized="1"
     inkscape:current-layer="layer1" />
  <defs
     id="defs1" />
  <g
     inkscape:label="Ebene 1"
     inkscape:groupmode="layer"
     id="layer1"
     transform="translate(-93.203542,-136.57334)">
    <path
       d="m 93.539857,160.08358 c -0.687943,-0.76018 -0.387315,-1.49513 1.526548,-3.73213 2.352035,-2.74916 7.776585,-8.32472 9.628525,-9.89659 0.85208,-0.72321 1.77077,-1.77864 2.04153,-2.34539 0.66768,-1.39754 5.54964,-6.26295 7.07697,-7.05297 1.05589,-0.54617 1.33284,-0.59251 1.92596,-0.32226 1.56137,0.7114 1.35459,2.17183 -0.66728,4.71275 -1.52352,1.91463 -5.32023,5.32898 -6.17684,5.55479 -0.30162,0.0795 -0.96511,0.67988 -1.47444,1.33417 -2.23589,2.87229 -12.35593,12.26613 -13.214374,12.26613 -0.108547,0 -0.408516,-0.23333 -0.666599,-0.5185 z m 1.629244,-1.19293 c 0.609803,-0.53649 0.656894,-0.65458 0.26372,-0.66146 -0.299169,-0.005 -0.406902,0.10772 -0.287324,0.30118 0.125603,0.20323 0.05116,0.25577 -0.216728,0.15298 -0.401577,-0.15409 -1.001686,0.23455 -1.001686,0.64873 0,0.39185 0.494726,0.21601 1.242018,-0.44143 z m 0.610065,-1.19898 c 0,-0.14552 -0.12609,-0.26459 -0.280199,-0.26459 -0.154109,0 -0.206613,0.11907 -0.116676,0.26459 0.08994,0.14552 0.216027,0.26458 0.280199,0.26458 0.06417,0 0.116676,-0.11906 0.116676,-0.26458 z m 0.79375,-0.26459 c 0,-0.29104 -0.09355,-0.52916 -0.207886,-0.52916 -0.114339,0 -0.207888,0.23812 -0.207888,0.52916 0,0.29104 0.09355,0.52917 0.207888,0.52917 0.114337,0 0.207886,-0.23813 0.207886,-0.52917 z m 0.661459,-0.26458 c 0.08994,-0.14552 0.03743,-0.26458 -0.116676,-0.26458 -0.15411,0 -0.280199,0.11906 -0.280199,0.26458 0,0.14552 0.0525,0.26458 0.116676,0.26458 0.06417,0 0.190261,-0.11906 0.280199,-0.26458 z m -0.661459,-0.79375 c 0,-0.14552 -0.0525,-0.26458 -0.116676,-0.26458 -0.06417,0 -0.190262,0.11906 -0.280199,0.26458 -0.08994,0.14552 -0.03743,0.26458 0.116676,0.26458 0.154109,0 0.280199,-0.11906 0.280199,-0.26458 z m 1.5875,-0.13229 c 0,-0.21828 -0.12609,-0.39688 -0.280199,-0.39688 -0.154109,0 -0.206613,0.11907 -0.116676,0.26459 0.08994,0.14552 0.03743,0.26458 -0.116676,0.26458 -0.154109,0 -0.280199,-0.11906 -0.280199,-0.26458 0,-0.14552 -0.09922,-0.26459 -0.220485,-0.26459 -0.121269,0 -0.220488,0.1786 -0.220488,0.39688 0,0.23939 0.244986,0.39687 0.617363,0.39687 0.372375,0 0.61736,-0.15748 0.61736,-0.39687 z m 1.165715,-0.84282 c 0.342619,-0.39831 0.556,-0.92148 0.485616,-1.19062 -0.195329,-0.74694 -0.574334,-0.56458 -0.514403,0.2475 0.03868,0.52406 -0.05997,0.7095 -0.352626,0.66288 -0.251206,-0.04 -0.406326,0.13675 -0.406326,0.46303 0,0.68072 0.05619,0.6677 0.787739,-0.18279 z m -1.959465,-0.0832 c 0,-0.14552 -0.0525,-0.26459 -0.116676,-0.26459 -0.06417,0 -0.190262,0.11907 -0.280199,0.26459 -0.08994,0.14552 -0.03743,0.26458 0.116676,0.26458 0.154109,0 0.280199,-0.11906 0.280199,-0.26458 z m 0.79375,0 c 0,-0.14552 -0.0525,-0.26459 -0.116676,-0.26459 -0.06417,0 -0.190262,0.11907 -0.280199,0.26459 -0.08994,0.14552 -0.03743,0.26458 0.116676,0.26458 0.154109,0 0.280199,-0.11906 0.280199,-0.26458 z m 0,-0.79375 c 0,-0.14552 -0.0525,-0.26459 -0.116676,-0.26459 -0.06417,0 -0.190262,0.11907 -0.280199,0.26459 -0.08994,0.14552 -0.03743,0.26458 0.116676,0.26458 0.154109,0 0.280199,-0.11906 0.280199,-0.26458 z m 0.79375,0 c 0,-0.14552 -0.119062,-0.26459 -0.264583,-0.26459 -0.145521,0 -0.264583,0.11907 -0.264583,0.26459 0,0.14552 0.119062,0.26458 0.264583,0.26458 0.145521,0 0.264583,-0.11906 0.264583,-0.26458 z m 1.719794,-0.52917 c 0.0899,-0.14552 -0.0221,-0.26458 -0.24897,-0.26458 -0.22687,0 -0.41249,0.11906 -0.41249,0.26458 0,0.14552 0.11203,0.26458 0.24897,0.26458 0.13693,0 0.32255,-0.11906 0.41249,-0.26458 z m -1.719794,-0.26458 c 0,-0.14552 -0.0525,-0.26459 -0.116676,-0.26459 -0.06417,0 -0.190262,0.11907 -0.280199,0.26459 -0.08994,0.14552 -0.03743,0.26458 0.116676,0.26458 0.154109,0 0.280199,-0.11906 0.280199,-0.26458 z m 0.79375,-0.67708 c 0,-0.22687 -0.121004,-0.3377 -0.268899,-0.2463 -0.147894,0.0914 -0.2004,0.27703 -0.116675,0.41249 0.226808,0.36699 0.385574,0.29856 0.385574,-0.16619 z m 0.661454,0.14791 c 0.0899,-0.14552 0.0374,-0.26458 -0.11667,-0.26458 -0.15411,0 -0.2802,0.11906 -0.2802,0.26458 0,0.14552 0.0525,0.26458 0.11668,0.26458 0.0642,0 0.19026,-0.11906 0.28019,-0.26458 z M 101.07083,152.4 c 0,-0.14552 -0.0525,-0.26458 -0.11667,-0.26458 -0.0642,0 -0.19026,0.11906 -0.2802,0.26458 -0.0899,0.14552 -0.0374,0.26458 0.11667,0.26458 0.15411,0 0.2802,-0.11906 0.2802,-0.26458 z m 0.72101,-0.26458 c -0.0219,-0.29104 -0.13359,-0.52917 -0.24814,-0.52917 -0.11456,0 -0.20828,0.23813 -0.20828,0.52917 0,0.29104 0.11166,0.52916 0.24814,0.52916 0.13647,0 0.2302,-0.23812 0.20828,-0.52916 z m 0.65212,-0.66146 c -0.0595,-0.50932 -0.20361,-0.92604 -0.32033,-0.92604 -0.11672,0 -0.17234,0.20836 -0.12359,0.46302 0.0487,0.25466 0.0978,0.67138 0.10888,0.92604 0.0111,0.25466 0.1154,0.46302 0.2317,0.46302 0.1163,0 0.16281,-0.41672 0.10334,-0.92604 z m 0.74354,-0.11668 c 0,-0.28245 -0.10642,-0.57932 -0.23649,-0.65971 -0.13006,-0.0804 -0.21936,0.15063 -0.19843,0.51337 0.0445,0.77168 0.43492,0.90304 0.43492,0.14634 z m 0.67827,-1.17378 c 0.0692,-0.38165 0.004,-0.69392 -0.14393,-0.69392 -0.14837,0 -0.26976,0.37703 -0.26976,0.83785 0,0.95978 0.22793,0.88048 0.41369,-0.14393 z m 1.04152,-0.42933 c 0.0899,-0.14552 -0.0221,-0.26459 -0.24897,-0.26459 -0.22687,0 -0.41249,0.11907 -0.41249,0.26459 0,0.14552 0.11204,0.26458 0.24897,0.26458 0.13693,0 0.32255,-0.11906 0.41249,-0.26458 z m -1.01423,-0.92604 c 0,-0.21829 -0.0992,-0.39688 -0.22049,-0.39688 -0.12127,0 -0.22049,0.17859 -0.22049,0.39688 0,0.21828 0.0992,0.39687 0.22049,0.39687 0.12127,0 0.22049,-0.17859 0.22049,-0.39687 z m 1.60294,-0.1323 c 0.0219,-0.29104 -0.0718,-0.52916 -0.20828,-0.52916 -0.13648,0 -0.24814,0.23812 -0.24814,0.52916 0,0.29105 0.0937,0.52917 0.20828,0.52917 0.11455,0 0.22622,-0.23812 0.24814,-0.52917 z m -0.721,-0.26458 c 0,-0.14552 -0.11906,-0.26458 -0.26458,-0.26458 -0.14552,0 -0.26459,0.11906 -0.26459,0.26458 0,0.14552 0.11907,0.26458 0.26459,0.26458 0.14552,0 0.26458,-0.11906 0.26458,-0.26458 z m 2.4716,-1.15916 c 0.65951,-0.86465 0.66604,-0.9093 0.1955,-1.33514 -0.45904,-0.41542 -0.54151,-0.389 -1.44467,0.46279 -0.9467,0.89286 -1.22162,1.50234 -0.67765,1.50234 0.15411,0 0.20661,-0.11906 0.11668,-0.26458 -0.25869,-0.41857 0.29643,-0.30754 0.66146,0.13229 0.42404,0.51095 0.35729,0.53987 1.14868,-0.4977 z m 5.74295,-4.83261 c 2.73746,-2.86575 3.41382,-4.0379 2.72654,-4.72518 -0.5716,-0.5716 -1.23322,-0.31033 -3.23822,1.27874 -1.55982,1.23624 -5.05704,5.02778 -5.05704,5.48263 0,0.10835 0.31855,0.56003 0.70789,1.00372 l 0.70788,0.80672 1.21035,-1.01659 c 0.66569,-0.55913 1.98986,-1.83265 2.9426,-2.83004 z m -2.6934,0.23652 c 0.29518,-0.55155 2.99105,-3.22925 3.58684,-3.56267 0.97829,-0.54748 0.30973,0.5206 -1.38946,2.21979 -1.74686,1.74686 -2.73763,2.35235 -2.19738,1.34288 z"
       style="fill:#2b1e17;fill-opacity:1;stroke-width:0.264583"
       id="path1" />
  </g>
</svg>
