<?xml version="1.0" encoding="UTF-8" standalone="no"?>
<!-- Created with Inkscape (http://www.inkscape.org/) -->

<svg
   width="22.196857mm"
   height="25.697659mm"
   viewBox="0 0 22.196857 25.697659"
   version="1.1"
   id="svg1"
   inkscape:version="1.4.2 (f4327f4, 2025-05-13)"
   sodipodi:docname="folding_ruler.svg"
   xmlns:inkscape="http://www.inkscape.org/namespaces/inkscape"
   xmlns:sodipodi="http://sodipodi.sourceforge.net/DTD/sodipodi-0.dtd"
   xmlns="http://www.w3.org/2000/svg"
   xmlns:svg="http://www.w3.org/2000/svg">
  <sodipodi:namedview
     id="namedview1"
     pagecolor="#ffffff"
     bordercolor="#000000"
     borderopacity="0.25"
     inkscape:showpageshadow="2"
     inkscape:pageopacity="0.0"
     inkscape:pagecheckerboard="0"
     inkscape:deskcolor="#d1d1d1"
     inkscape:document-units="mm"
     inkscape:zoom="0.68862935"
     inkscape:cx="41.38656"
     inkscape:cy="48.64736"
     inkscape:window-width="1920"
     inkscape:window-height="991"
     inkscape:window-x="-9"
     inkscape:window-y="-9"
     inkscape:window-maximized="1"
     inkscape:current-layer="layer1" />
  <defs
     id="defs1" />
  <g
     inkscape:label="Ebene 1"
     inkscape:groupmode="layer"
     id="layer1"
     transform="translate(-93.955212,-135.73125)">
    <path
       d="m 96.590316,160.91893 c -0.354232,-0.24703 -1.008044,-0.5682 -1.452917,-0.71372 -0.591928,-0.19363 -0.8543,-0.47747 -0.978286,-1.05834 -0.296651,-1.3898 -0.258355,-22.34289 0.04186,-22.90385 0.23911,-0.44678 0.571207,-0.51177 2.614975,-0.51177 2.20413,0 2.350416,0.0348 2.50062,0.59531 0.08775,0.32742 0.161165,3.85501 0.163152,7.83909 l 0.0036,7.24378 2.1727,-2.74586 c 8.26127,-10.4406 10.34157,-12.93232 10.79699,-12.93232 0.1366,0 1.02477,0.25487 1.97371,0.56639 l 1.72535,0.56639 v 11.84739 c 0,6.51606 -0.0723,12.03571 -0.1606,12.2659 -0.22015,0.57369 -4.63981,0.61356 -5.11076,0.0461 -0.22356,-0.26938 -0.28743,-2.39217 -0.23083,-7.67312 0.043,-4.0154 0.0545,-7.30063 0.0256,-7.30051 -0.029,1.1e-4 -1.56838,1.93497 -3.42093,4.29969 -8.954429,11.43004 -9.150912,11.62478 -10.664214,10.56945 z m 18.503434,-0.97831 c 0,-0.60883 -0.096,-0.66146 -1.20624,-0.66146 -0.78979,0 -1.1458,-0.0978 -1.03118,-0.28325 0.10751,-0.17395 0.57295,-0.21602 1.20624,-0.10903 1.01969,0.17227 1.03118,0.1648 1.03118,-0.6711 0,-0.64241 -0.0952,-0.80878 -0.39658,-0.69313 -0.21812,0.0837 -0.66461,0.0445 -0.99219,-0.0872 -0.51708,-0.20783 -0.46479,-0.2416 0.39658,-0.25616 0.92231,-0.0156 0.99219,-0.0727 0.99219,-0.81052 0,-0.70896 -0.0865,-0.79375 -0.80937,-0.79375 -0.4722,0 -0.74124,-0.11022 -0.64584,-0.26459 0.0899,-0.14552 0.45415,-0.26458 0.80936,-0.26458 0.54001,0 0.64585,-0.12899 0.64585,-0.78713 0,-0.72612 -0.059,-0.77533 -0.76166,-0.63481 -0.4331,0.0866 -0.83931,0.0267 -0.94166,-0.1389 -0.1181,-0.19109 0.14381,-0.29124 0.76166,-0.29124 0.8699,0 0.94166,-0.0605 0.94166,-0.79375 0,-0.70896 -0.0865,-0.79375 -0.80937,-0.79375 -0.44515,0 -0.74565,-0.1031 -0.66777,-0.2291 0.0779,-0.12601 0.42614,-0.17471 0.77392,-0.10822 0.50212,0.096 0.6571,-0.009 0.75264,-0.50849 0.19519,-1.02111 -0.0306,-1.26859 -1.19595,-1.3106 l -1.10243,-0.0397 1.19062,-0.15869 c 1.11126,-0.14813 1.19063,-0.21161 1.19063,-0.95245 0,-0.70169 -0.10741,-0.81145 -0.92604,-0.94635 l -0.92604,-0.1526 0.92604,-0.11198 c 0.78152,-0.0945 0.92604,-0.21522 0.92604,-0.77345 0,-0.55823 -0.14452,-0.67893 -0.92604,-0.77344 l -0.92604,-0.11199 0.92604,-0.1526 c 0.76769,-0.1265 0.94036,-0.27701 1.00976,-0.8802 0.0775,-0.67339 0.0134,-0.7276 -0.8599,-0.7276 -0.51899,0 -0.94361,-0.11906 -0.94361,-0.26459 0,-0.14552 0.41672,-0.26458 0.92604,-0.26458 0.84422,0 0.92604,-0.0674 0.92604,-0.76289 0,-0.53745 -0.1546,-0.80332 -0.52314,-0.8997 -0.40612,-0.1062 -0.82287,0.25681 -1.86302,1.62279 l -1.33988,1.75959 -0.006,5.82084 c -0.003,3.20145 0.002,6.67781 0.0109,7.72523 l 0.0165,1.9044 1.38906,0.0972 c 0.76399,0.0534 1.53789,0.1192 1.71979,0.14612 0.18944,0.028 0.33073,-0.23364 0.33073,-0.61252 z m -14.36988,-2.86138 c 1.42776,-1.79203 4.37337,-5.51274 6.54582,-8.26822 2.17244,-2.75549 4.83142,-6.11884 5.90886,-7.47411 1.1146,-1.40203 1.89785,-2.62341 1.81717,-2.83364 -0.078,-0.20324 -0.64481,-0.7339 -1.25961,-1.17926 l -1.11783,-0.80975 -1.12429,1.26214 c -0.61836,0.69418 -1.2756,1.53652 -1.46053,1.87186 -0.30294,0.54936 -0.259,0.67283 0.44381,1.24726 0.42901,0.35064 0.66863,0.64181 0.53249,0.64705 -0.13614,0.005 -0.53321,-0.25838 -0.88237,-0.5858 l -0.63485,-0.59531 -0.52998,0.65338 -0.52998,0.6534 0.58994,0.4777 c 0.32447,0.26274 0.51427,0.55337 0.42179,0.64586 -0.0925,0.0925 -0.41612,-0.0563 -0.71919,-0.33054 -0.54241,-0.49087 -0.55894,-0.48843 -1.05574,0.15597 -0.4975,0.64529 -0.49721,0.66092 0.0202,1.09393 0.75817,0.63444 0.64559,0.89124 -0.15946,0.36375 -0.37643,-0.24664 -0.70778,-0.40916 -0.73633,-0.36116 -0.0285,0.048 -0.21429,0.29914 -0.41275,0.55807 -0.31409,0.40978 -0.28127,0.55547 0.25328,1.12448 0.69024,0.73473 0.43519,0.89671 -0.32652,0.20736 -0.46513,-0.42093 -0.52654,-0.41248 -1.07917,0.14841 l -0.58597,0.59475 0.59531,0.48931 c 0.81539,0.67021 0.75235,0.96513 -0.0885,0.41416 -0.64424,-0.42212 -0.71342,-0.42129 -1.19473,0.0143 -0.50381,0.45594 -0.50285,0.47092 0.0685,1.07909 0.63847,0.67962 0.39275,0.85277 -0.30896,0.21772 -0.39585,-0.35824 -0.49237,-0.34216 -0.9444,0.15733 -0.49807,0.55037 -0.49536,0.56334 0.25217,1.20634 0.96834,0.83293 0.71134,1.12379 -0.33478,0.37889 l -0.79526,-0.56628 -0.2994,0.55942 c -0.23742,0.44362 -0.21287,0.65503 0.11857,1.02127 0.65295,0.7215 0.49009,0.97705 -0.20595,0.32315 l -0.62392,-0.58614 -0.47134,0.71935 c -0.460765,0.70322 -0.457799,0.73032 0.13223,1.2081 0.33197,0.2688 0.52791,0.56441 0.43542,0.65689 -0.0925,0.0925 -0.40477,-0.046 -0.69397,-0.30772 -0.430373,-0.38947 -0.59878,-0.41532 -0.927668,-0.14237 -0.544406,0.45182 -0.506084,0.7851 0.173448,1.50842 0.70011,0.74524 0.277122,0.82056 -0.506778,0.0902 l -0.560437,-0.52213 -1.381374,1.7789 c -0.759754,0.9784 -1.505667,1.93807 -1.65758,2.1326 -0.208926,0.26754 -0.02199,0.57128 0.76744,1.24684 0.574008,0.49122 1.244708,0.8976 1.490442,0.90307 0.261081,0.006 1.525805,-1.34438 3.042707,-3.24832 z m -3.825732,1.89015 c -0.393351,-0.39335 -0.426001,-1.18421 -0.05827,-1.41148 0.146822,-0.0907 0.510931,-0.0875 0.809133,0.007 0.399584,0.12682 0.520739,0.35688 0.460652,0.87471 -0.08953,0.77157 -0.701892,1.03929 -1.211513,0.52967 z m 0.73311,-0.61627 c 0,-0.21828 -0.112035,-0.39687 -0.248968,-0.39687 -0.333634,0 -0.572585,0.41317 -0.361201,0.62455 0.297971,0.29797 0.610169,0.18148 0.610169,-0.22768 z m 14.565472,-19.03386 c -0.39175,-0.47204 -0.20384,-1.15029 0.38085,-1.37466 0.56733,-0.2177 1.23444,0.40898 1.13988,1.07079 -0.0969,0.67851 -1.0515,0.86925 -1.52073,0.30387 z m 1.04494,-0.36891 c 0,-0.34451 -0.31452,-0.57363 -0.57038,-0.4155 -0.27364,0.16912 -0.0377,0.63598 0.32142,0.63598 0.13693,0 0.24896,-0.0992 0.24896,-0.22048 z m -17.594787,17.4184 c 0.467048,-0.51608 0.462129,-0.52917 -0.198806,-0.52917 -0.547433,0 -0.651097,0.10172 -0.539316,0.52917 0.07611,0.29104 0.165571,0.52916 0.198806,0.52916 0.03323,0 0.275926,-0.23812 0.539316,-0.52916 z m 1.86386,-2.43061 1.046556,-1.37227 0.09484,-6.06157 c 0.05216,-3.33387 0.01225,-6.94306 -0.08872,-8.02044 l -0.18356,-1.95886 h -1.697217 -1.697218 v 1.5875 1.5875 h 0.809366 c 0.472202,0 0.741246,0.11022 0.645843,0.26458 -0.08994,0.14552 -0.454152,0.26458 -0.809366,0.26458 -0.512511,0 -0.645843,0.13656 -0.645843,0.66146 0,0.55857 0.123474,0.66146 0.79375,0.66146 0.436563,0 0.79375,0.11906 0.79375,0.26458 0,0.14553 -0.365096,0.26459 -0.811323,0.26459 -0.728988,0 -0.802828,0.0738 -0.727604,0.7276 0.06796,0.59063 0.218823,0.72988 0.801378,0.73971 0.39471,0.007 0.801507,0.0959 0.903991,0.19844 0.102486,0.10248 -0.250227,0.18633 -0.783802,0.18633 -0.901544,0 -0.97014,0.0561 -0.97014,0.79375 0,0.70556 0.08819,0.79375 0.79375,0.79375 0.436563,0 0.79375,0.11906 0.79375,0.26458 0,0.14553 -0.357187,0.26459 -0.79375,0.26459 -0.705556,0 -0.79375,0.0882 -0.79375,0.79375 0,0.73293 0.07603,0.79716 0.992188,0.83822 l 0.992187,0.0445 -0.992187,0.10379 c -0.897977,0.0939 -0.992188,0.17764 -0.992188,0.88156 0,0.68781 0.09182,0.77778 0.79375,0.77778 0.436563,0 0.79375,0.11906 0.79375,0.26458 0,0.14553 -0.357187,0.26459 -0.79375,0.26459 -0.705556,0 -0.79375,0.0882 -0.79375,0.79375 0,0.71044 0.09025,0.79819 0.859896,0.83609 l 0.859896,0.0423 -0.859896,0.10672 c -0.750702,0.0932 -0.859896,0.20537 -0.859896,0.8837 0,0.69026 0.09034,0.77698 0.809366,0.77698 0.445151,0 0.745649,0.1031 0.667771,0.2291 -0.07787,0.12601 -0.442089,0.17166 -0.809363,0.10145 -0.59844,-0.1144 -0.667774,-0.042 -0.667774,0.69694 0,0.72635 0.08809,0.82459 0.739381,0.82459 0.579895,0 0.965131,-0.296 1.785938,-1.37227 z m -1.466985,-16.0997 c 0.541914,-0.12868 1.030303,-0.11745 1.177396,0.0271 0.156231,0.15351 -0.194221,0.23673 -0.926042,0.2199 l -1.177396,-0.0271 z m 19.314582,2.8875 c 0,-0.46917 -0.0653,-0.50738 -0.39687,-0.23219 -0.21829,0.18116 -0.39688,0.43386 -0.39688,0.56156 0,0.1277 0.17859,0.23219 0.39688,0.23219 0.22811,0 0.39687,-0.23879 0.39687,-0.56156 z m 0.26458,-3.25928 c 0,-0.0642 -0.11906,-0.19027 -0.26458,-0.2802 -0.14552,-0.0899 -0.26458,-0.0374 -0.26458,0.11667 0,0.15411 0.11906,0.2802 0.26458,0.2802 0.14552,0 0.26458,-0.0525 0.26458,-0.11667 z"
       style="fill:#2b1e17;fill-opacity:1;stroke-width:0.264583"
       id="path1" />
  </g>
</svg>
