<?xml version="1.0" encoding="UTF-8" standalone="no"?>
<!-- Created with Inkscape (http://www.inkscape.org/) -->

<svg
   width="24.870794mm"
   height="25.414888mm"
   viewBox="0 0 24.870794 25.414888"
   version="1.1"
   id="svg1"
   inkscape:version="1.4.2 (f4327f4, 2025-05-13)"
   sodipodi:docname="forstner_bit_set.svg"
   xmlns:inkscape="http://www.inkscape.org/namespaces/inkscape"
   xmlns:sodipodi="http://sodipodi.sourceforge.net/DTD/sodipodi-0.dtd"
   xmlns="http://www.w3.org/2000/svg"
   xmlns:svg="http://www.w3.org/2000/svg">
  <sodipodi:namedview
     id="namedview1"
     pagecolor="#ffffff"
     bordercolor="#000000"
     borderopacity="0.25"
     inkscape:showpageshadow="2"
     inkscape:pageopacity="0.0"
     inkscape:pagecheckerboard="0"
     inkscape:deskcolor="#d1d1d1"
     inkscape:document-units="mm"
     inkscape:zoom="0.68862935"
     inkscape:cx="47.1952"
     inkscape:cy="48.64736"
     inkscape:window-width="1920"
     inkscape:window-height="991"
     inkscape:window-x="-9"
     inkscape:window-y="-9"
     inkscape:window-maximized="1"
     inkscape:current-layer="layer1" />
  <defs
     id="defs1" />
  <g
     inkscape:label="Ebene 1"
     inkscape:groupmode="layer"
     id="layer1"
     transform="translate(-92.604165,-135.69948)">
    <path
       d="m 95.970382,160.66719 c -0.357119,-0.39461 -0.448413,-1.77716 -0.610058,-9.23845 l -0.19009,-8.7744 -0.877655,-0.16464 c -1.424223,-0.26719 -1.688414,-0.72736 -1.688414,-2.94089 0,-1.08101 0.113461,-1.96548 0.252134,-1.96548 0.138674,0 0.555393,0.13818 0.926042,0.30706 0.956866,0.43597 1.869056,-0.0485 2.291599,-1.21696 0.493143,-1.36377 1.31024,-1.28835 1.975035,0.1823 0.442193,0.9782 0.611566,1.11993 1.302065,1.08954 0.436562,-0.0192 1.07504,-0.1259 1.41883,-0.23708 l 0.62509,-0.20214 -0.0969,2.13426 c -0.0533,1.17385 -0.1769,2.21426 -0.27466,2.31202 -0.0978,0.0978 -0.63309,0.33401 -1.189622,0.52501 l -1.011875,0.34726 -0.164912,5.77989 c -0.0907,3.17894 -0.179999,7.11083 -0.198438,8.73755 -0.02611,2.30319 -0.125529,3.04966 -0.449299,3.37344 -0.550783,0.55078 -1.517415,0.52789 -2.038842,-0.0483 z m 1.577014,-1.78146 0.04844,-1.31948 -0.529217,0.65802 c -0.455543,0.56641 -0.489714,0.5772 -0.245456,0.0774 0.156069,-0.31931 0.402187,-0.65376 0.546925,-0.74321 0.144738,-0.0895 0.26316,-1.04859 0.26316,-2.13141 0,-1.93337 -0.01211,-1.96876 -0.673981,-1.96876 h -0.673978 l 0.04322,2.91042 c 0.02376,1.60073 0.124658,2.91042 0.224189,2.91042 0.09953,0 0.351822,-0.14883 0.560647,-0.33073 0.208825,-0.1819 0.113575,-0.0254 -0.211667,0.34778 -0.747347,0.8575 -0.746379,1.1001 0.004,0.99354 0.518568,-0.0737 0.601557,-0.25466 0.643753,-1.40403 z m 0.552842,-11.18208 0.07211,-4.82865 H 97.10805 96.043748 v 4.91076 4.91077 l 0.992188,-0.0821 0.992187,-0.0821 z m 1.608196,-5.91287 c 0.795266,-0.27723 0.833226,-0.35528 0.833226,-1.71317 v -1.42271 l -0.790655,0.15813 c -0.517911,0.10358 -1.021546,0.007 -1.459973,-0.28042 -0.628568,-0.41186 -0.679718,-0.4098 -0.840198,0.0337 -0.09399,0.25973 -0.44903,1.11213 -0.788985,1.89423 -0.339955,0.78209 -0.618101,1.4667 -0.618101,1.52135 0,0.2277 2.896616,0.0767 3.664686,-0.1911 z m -4.381119,-1.65113 c 0.539559,-0.92237 0.981016,-1.75886 0.981016,-1.85888 0,-0.10002 -0.370011,0.009 -0.822245,0.24334 -0.471744,0.24395 -1.092065,0.35748 -1.455209,0.26634 -0.601974,-0.15109 -0.632962,-0.0964 -0.632962,1.11618 0,1.12757 0.324326,1.91004 0.791691,1.91004 0.08618,0 0.598152,-0.75466 1.137709,-1.67702 z m 1.083616,-0.0908 c 0.375767,-0.97232 0.639557,-1.81152 0.586198,-1.86487 -0.09282,-0.0928 -2.011714,3.25479 -2.011714,3.50954 0,0.0678 0.167018,0.12319 0.371152,0.12319 0.213283,0 0.66176,-0.75197 1.054364,-1.76786 z m 0.823442,-2.99464 c 0.08994,-0.14552 -0.02209,-0.26459 -0.248968,-0.26459 -0.226869,0 -0.41249,0.11907 -0.41249,0.26459 0,0.14552 0.112035,0.26458 0.248967,0.26458 0.136933,0 0.322554,-0.11906 0.412491,-0.26458 z m 8.003647,23.7913 c -0.3827,-0.2229 -0.46302,-0.65443 -0.46302,-2.48766 0,-1.98561 -0.0554,-2.23558 -0.52917,-2.38594 -0.45124,-0.14321 -0.52917,-0.40032 -0.52917,-1.74592 0,-1.15857 0.10549,-1.61845 0.39688,-1.73027 0.33272,-0.12767 0.39687,-0.93284 0.39687,-4.9805 v -4.82821 l -0.85989,-0.24607 c -0.8279,-0.23691 -0.8624,-0.30182 -0.92713,-1.74399 -0.0667,-1.48575 -0.0574,-1.50609 1.14664,-2.50418 0.66764,-0.55345 1.38556,-1.33369 1.59538,-1.73388 0.50407,-0.96135 1.08359,-0.91999 1.637,0.11682 0.24789,0.46443 0.96404,1.40734 1.59145,2.09534 1.02797,1.12727 1.13259,1.36417 1.05833,2.39672 -0.0746,1.0371 -0.16398,1.16983 -0.9423,1.39896 l -0.85989,0.25316 v 4.81177 c 0,4.03305 0.0642,4.83641 0.39687,4.96406 0.29301,0.11244 0.39688,0.57643 0.39688,1.77287 0,1.39806 -0.0727,1.63957 -0.52917,1.75895 -0.47586,0.12444 -0.52917,0.3609 -0.52917,2.34717 0,1.91298 -0.0685,2.24548 -0.51177,2.48269 -0.63946,0.34223 -1.33498,0.33796 -1.93562,-0.0119 z m 1.65364,-1.18178 c 0,-0.66843 -0.005,-0.67002 -0.65314,-0.19844 -0.83626,0.60865 -0.83877,0.87225 -0.008,0.87225 0.5324,0 0.66145,-0.13147 0.66145,-0.67381 z m -0.0657,-2.35916 c -0.0152,-1.00837 -0.0859,-1.13422 -0.6372,-1.13422 -0.52483,0 -0.62005,0.13382 -0.62005,0.87133 0,0.47923 -0.0723,1.05966 -0.1606,1.28984 -0.27289,0.71115 0.32102,0.4607 0.6572,-0.27713 0.17433,-0.38261 0.39334,-0.61927 0.4867,-0.52591 0.0934,0.0934 -0.0897,0.52064 -0.40678,0.94952 -0.7625,1.03133 -0.73283,1.30488 0.0607,0.55941 0.48881,-0.45921 0.6332,-0.86274 0.62005,-1.73284 z m 0.96383,-2.07331 c 0.3064,-0.22404 0.4392,-0.60263 0.3813,-1.08697 -0.087,-0.72801 -0.12535,-0.74397 -1.87492,-0.7807 l -1.78608,-0.0375 1.4e-4,0.97014 c 8e-5,0.53358 0.14897,1.03019 0.33087,1.10359 0.66815,0.2696 2.49206,0.16535 2.94869,-0.16855 z m -0.63358,-7.32914 V 142.875 h -0.92604 -0.92605 v 4.85069 c 0,2.66789 0.0794,4.93007 0.17639,5.02709 0.097,0.097 0.51374,0.17639 0.92605,0.17639 h 0.74965 z m -1.73004,-7.19177 c 0.59134,-1.99128 0.50243,-2.1112 -0.39939,-0.53866 -0.7454,1.29978 -0.8241,1.9096 -0.24646,1.9096 0.1313,0 0.42193,-0.61692 0.64585,-1.37094 z m 2.98681,1.20418 c 0.45887,-0.12298 0.59531,-0.35209 0.59531,-0.99964 0,-0.64 -0.2702,-1.10527 -1.13449,-1.95351 -0.62397,-0.61238 -1.21199,-1.11342 -1.30671,-1.11342 -0.13474,0 -0.4113,1.23476 -0.59261,2.64583 -0.009,0.0728 -0.0861,0.25135 -0.17059,0.39687 -0.60379,1.04014 -0.50673,1.1907 0.76531,1.18702 0.68666,-0.002 1.51636,-0.0754 1.84378,-0.16315 z m -3.53923,-2.41293 c 1.00924,-1.79298 0.80699,-2.10109 -0.56181,-0.85587 -0.71035,0.64622 -0.8599,0.97617 -0.8599,1.89725 0,1.32177 0.15577,1.20767 1.42171,-1.04138 z m 1.70258,-2.46724 c -0.0521,-0.15643 -0.20792,-0.28442 -0.34616,-0.28442 -0.13825,0 -0.29402,0.12799 -0.34617,0.28442 -0.0521,0.15644 0.10363,0.28443 0.34617,0.28443 0.24253,0 0.39831,-0.12799 0.34616,-0.28443 z m 7.12832,23.81115 c -0.38271,-0.2229 -0.46303,-0.65443 -0.46303,-2.48766 0,-1.98561 -0.0554,-2.23558 -0.52916,-2.38594 -0.44939,-0.14263 -0.52917,-0.40032 -0.52917,-1.70931 0,-1.12602 0.10694,-1.5824 0.39688,-1.69366 0.33284,-0.12772 0.39687,-0.93644 0.39687,-5.01292 v -4.86062 l -0.66146,-0.30138 c -0.6297,-0.28692 -0.66146,-0.40887 -0.66146,-2.5404 0,-1.44664 0.11152,-2.30794 0.31512,-2.43377 0.17331,-0.10711 0.36183,-0.0546 0.41892,0.11668 0.21053,0.63157 0.85775,0.28194 1.38263,-0.74691 0.66214,-1.29789 1.22922,-1.34721 1.72929,-0.15038 0.44663,1.06896 0.84978,1.38131 1.2571,0.974 0.59957,-0.59957 0.71778,-0.23706 0.71778,2.20126 0,2.26334 -0.0493,2.51135 -0.52917,2.66366 -0.50381,0.15991 -0.52917,0.40033 -0.52917,5.01661 0,4.06584 0.0641,4.87324 0.39688,5.00095 0.293,0.11244 0.39687,0.57643 0.39687,1.77287 0,1.39806 -0.0726,1.63957 -0.52916,1.75895 -0.4722,0.12349 -0.52917,0.3609 -0.52917,2.20529 0,1.52623 -0.10876,2.17567 -0.41577,2.48269 -0.47208,0.47207 -1.34807,0.52812 -2.03162,0.12999 z m 1.65364,-1.18178 c 0,-0.66843 -0.005,-0.67002 -0.65314,-0.19844 -0.83626,0.60865 -0.83878,0.87225 -0.008,0.87225 0.5324,0 0.66146,-0.13147 0.66146,-0.67381 z m -0.48248,-0.62082 c 0.51313,-0.5993 0.87028,-1.61667 0.56646,-1.6136 -0.11895,0.001 -0.47427,0.47745 -0.7896,1.05833 -0.60616,1.11663 -0.4948,1.39376 0.22314,0.55527 z m 0.58035,-2.72983 c -0.071,-0.11488 -0.41973,-0.20887 -0.77494,-0.20887 -0.60114,0 -0.64585,0.0943 -0.64585,1.36273 v 1.36273 l 0.77494,-1.15385 c 0.42622,-0.63462 0.71685,-1.24785 0.64585,-1.36274 z m -1.1562,0.88069 c 0,-0.14552 0.11906,-0.33817 0.26458,-0.42811 0.14552,-0.0899 0.26458,-0.0445 0.26458,0.10107 0,0.14552 -0.11906,0.33816 -0.26458,0.4281 -0.14552,0.0899 -0.26458,0.0445 -0.26458,-0.10106 z m 1.86947,-1.89262 c 0.32429,-0.17355 0.51178,-0.55333 0.51178,-1.03662 0,-0.75961 -0.008,-0.76309 -1.85268,-0.85059 l -1.85268,-0.0879 5.3e-4,0.97014 c 2.6e-4,0.53358 0.14942,1.03019 0.33132,1.10359 0.59704,0.24091 2.33942,0.18084 2.86167,-0.0987 z m -0.54656,-7.39903 V 142.875 h -0.92604 -0.92604 v 5.02708 5.02709 h 0.92604 0.92604 z m -1.74076,-7.14375 0.17534,-0.66146 -0.39854,0.66146 c -0.21919,0.36381 -0.39913,0.84006 -0.39987,1.05834 -0.001,0.35277 0.0236,0.35277 0.22321,0 0.12349,-0.21828 0.30343,-0.69453 0.39986,-1.05834 z m 2.61815,1.12448 c 0.0632,-0.10914 0.19784,-0.88304 0.29924,-1.71979 0.18162,-1.4987 0.17443,-1.52135 -0.48298,-1.52135 -0.36704,0 -0.78432,-0.20836 -0.92729,-0.46302 -0.21928,-0.39061 -0.28166,-0.40095 -0.3988,-0.0661 -0.18248,0.52154 -0.95506,3.60236 -0.95506,3.8085 0,0.23304 2.32877,0.19696 2.46489,-0.0382 z m -2.75291,-2.14235 c 0.32419,-0.77812 0.54352,-1.46066 0.48742,-1.51676 -0.0561,-0.0561 -0.4811,0.0411 -0.94445,0.21599 -0.81783,0.3087 -0.84245,0.36434 -0.84245,1.90418 0,1.34295 0.0545,1.52678 0.35504,1.19876 0.19526,-0.21308 0.62027,-1.02406 0.94444,-1.80217 z m 1.08177,-2.68629 c 0,-0.14552 -0.0525,-0.26459 -0.11667,-0.26459 -0.0642,0 -0.19026,0.11907 -0.2802,0.26459 -0.0899,0.14552 -0.0374,0.26458 0.11668,0.26458 0.1541,0 0.28019,-0.11906 0.28019,-0.26458 z"
       style="fill:#2b1e17;fill-opacity:1;stroke-width:0.264583"
       id="path1" />
  </g>
</svg>
