<?xml version="1.0" encoding="UTF-8" standalone="no"?>
<!-- Created with Inkscape (http://www.inkscape.org/) -->

<svg
   width="23.283335mm"
   height="22.601526mm"
   viewBox="0 0 23.283335 22.601526"
   version="1.1"
   id="svg1"
   inkscape:version="1.4.2 (f4327f4, 2025-05-13)"
   sodipodi:docname="hammer.svg"
   xmlns:inkscape="http://www.inkscape.org/namespaces/inkscape"
   xmlns:sodipodi="http://sodipodi.sourceforge.net/DTD/sodipodi-0.dtd"
   xmlns="http://www.w3.org/2000/svg"
   xmlns:svg="http://www.w3.org/2000/svg">
  <sodipodi:namedview
     id="namedview1"
     pagecolor="#ffffff"
     bordercolor="#000000"
     borderopacity="0.25"
     inkscape:showpageshadow="2"
     inkscape:pageopacity="0.0"
     inkscape:pagecheckerboard="0"
     inkscape:deskcolor="#d1d1d1"
     inkscape:document-units="mm"
     inkscape:zoom="0.68862935"
     inkscape:cx="44.29088"
     inkscape:cy="42.83872"
     inkscape:window-width="1920"
     inkscape:window-height="991"
     inkscape:window-x="-9"
     inkscape:window-y="-9"
     inkscape:window-maximized="1"
     inkscape:current-layer="layer1" />
  <defs
     id="defs1" />
  <g
     inkscape:label="Ebene 1"
     inkscape:groupmode="layer"
     id="layer1"
     transform="translate(-93.397915,-137.20581)">
    <path
       d="m 95.358821,159.30802 c -1.050597,-0.64065 -1.960906,-1.80112 -1.960906,-2.49978 0,-0.57978 3.16317,-3.80738 10.064135,-10.26913 3.43647,-3.21775 3.85317,-3.70183 3.90975,-4.54194 0.0849,-1.26071 -0.63788,-1.89957 -2.91704,-2.57833 -1.97854,-0.58924 -2.23457,-1.00708 -1.08041,-1.76326 0.54432,-0.35664 1.22634,-0.46412 2.84427,-0.44827 1.77068,0.0174 2.36495,0.14203 3.53705,0.74206 1.69175,0.86606 3.9017,3.10157 4.11363,4.1612 0.11348,0.56741 0.30429,0.76443 0.74033,0.76443 0.71291,0 2.07162,1.24115 2.07162,1.89237 0,0.54194 -1.29752,2.09844 -2.40909,2.88995 l -0.75974,0.54098 -0.91343,-0.6967 c -0.56229,-0.42889 -0.94489,-0.96894 -0.99527,-1.40489 -0.0594,-0.51366 -0.25411,-0.73254 -0.70903,-0.7969 -0.82053,-0.11607 -1.7068,0.74771 -6.8778,6.70331 -5.034375,5.79824 -6.952337,7.80552 -7.456956,7.80422 -0.211143,-5.3e-4 -0.751641,-0.22524 -1.201113,-0.49932 z m 2.712437,-1.96003 c 0.857459,-0.91663 2.971722,-3.32765 4.698352,-5.35782 1.72663,-2.03017 3.89245,-4.46512 4.81292,-5.41101 1.65736,-1.70311 1.7242,-1.91144 0.83647,-2.60712 -0.40804,-0.31976 -0.86197,0.0183 -4.23334,3.15289 -4.519898,4.20245 -9.993995,9.53641 -9.993995,9.73816 0,0.21283 1.928325,2.15149 2.140026,2.15149 0.0993,0 0.882108,-0.74997 1.739567,-1.66659 z m 16.707932,-11.37936 1.11853,-1.1397 -0.60042,-0.5569 c -0.33024,-0.30629 -0.89808,-0.5971 -1.26189,-0.64624 -0.48609,-0.0657 -0.73963,-0.33119 -0.95631,-1.00159 -0.93015,-2.87784 -4.72697,-5.02829 -8.08312,-4.57813 -1.01384,0.13598 -1.16418,0.59559 -0.19483,0.59559 0.80354,0 2.5032,0.95909 3.14452,1.77438 0.38872,0.49419 0.53002,0.95496 0.4364,1.42307 -0.11015,0.55077 0.0614,0.88034 0.83922,1.61243 0.59649,0.56141 1.2767,0.93798 1.74466,0.96586 0.98235,0.0585 1.48196,0.47967 1.48196,1.24922 0,0.57887 0.61174,1.44171 1.02215,1.44171 0.10483,0 0.69393,-0.51287 1.30913,-1.1397 z"
       style="fill:#2b1e17;fill-opacity:1;stroke-width:0.264583"
       id="path1" />
  </g>
</svg>
