<?xml version="1.0" encoding="UTF-8" standalone="no"?>
<!-- Created with Inkscape (http://www.inkscape.org/) -->

<svg
   width="25.032253mm"
   height="15.103316mm"
   viewBox="0 0 25.032253 15.103316"
   version="1.1"
   id="svg1"
   inkscape:version="1.4.2 (f4327f4, 2025-05-13)"
   sodipodi:docname="handle.svg"
   xmlns:inkscape="http://www.inkscape.org/namespaces/inkscape"
   xmlns:sodipodi="http://sodipodi.sourceforge.net/DTD/sodipodi-0.dtd"
   xmlns="http://www.w3.org/2000/svg"
   xmlns:svg="http://www.w3.org/2000/svg">
  <sodipodi:namedview
     id="namedview1"
     pagecolor="#ffffff"
     bordercolor="#000000"
     borderopacity="0.25"
     inkscape:showpageshadow="2"
     inkscape:pageopacity="0.0"
     inkscape:pagecheckerboard="0"
     inkscape:deskcolor="#d1d1d1"
     inkscape:document-units="mm"
     inkscape:zoom="0.68862935"
     inkscape:cx="47.1952"
     inkscape:cy="28.31712"
     inkscape:window-width="1920"
     inkscape:window-height="991"
     inkscape:window-x="-9"
     inkscape:window-y="-9"
     inkscape:window-maximized="1"
     inkscape:current-layer="layer1" />
  <defs
     id="defs1" />
  <g
     inkscape:label="Ebene 1"
     inkscape:groupmode="layer"
     id="layer1"
     transform="translate(-92.660943,-140.88369)">
    <path
       d="m 93.860938,155.43829 c -1.43012,-0.75921 -1.446831,-0.83529 -0.754507,-3.43517 0.967335,-3.63262 1.681406,-4.73816 3.632203,-5.62345 0.709221,-0.32185 4.325586,-1.6859 8.036366,-3.03121 7.62464,-2.76424 8.70911,-2.95158 10.39924,-1.79638 1.01315,0.69249 1.74714,2.05739 2.31137,4.29816 0.17288,0.68658 0.25405,1.40542 0.18038,1.59742 -0.0737,0.192 -0.80058,0.57568 -1.61535,0.85263 -1.30247,0.44272 -1.60149,0.46113 -2.47591,0.15242 -1.44228,-0.5092 -1.92056,-1.02598 -1.92056,-2.07515 0,-0.76204 -0.0767,-0.88352 -0.46302,-0.73333 -0.25467,0.099 -2.84058,1.06651 -5.74648,2.15 -2.90591,1.08349 -5.40622,2.09224 -5.556254,2.24167 -0.150034,0.14943 -0.332322,1.24731 -0.405082,2.43972 l -0.132292,2.16803 -1.318228,0.62457 c -1.922396,0.91083 -2.715609,0.94316 -4.171876,0.17007 z m 3.110164,-5.95124 c 0.223618,-0.43243 0.671991,-0.95599 0.996384,-1.16348 0.682633,-0.43661 13.765604,-5.36857 15.538764,-5.85773 l 1.19063,-0.32846 -0.74483,-0.29265 c -0.40966,-0.16096 -0.97994,-0.29265 -1.2673,-0.29265 -0.83597,0 -15.887075,5.54935 -16.629218,6.1312 -0.881237,0.6909 -1.218726,1.31627 -1.83153,3.3938 -0.946166,3.2077 -0.950804,3.09838 0.155546,3.66597 l 0.987753,0.50674 0.598612,-2.48825 c 0.329234,-1.36854 0.781571,-2.84206 1.005189,-3.27449 z m 0.585158,5.12596 1.133324,-0.43282 v -1.69699 c 0,-2.03668 0.45834,-3.03875 1.648156,-3.60335 1.67993,-0.79718 12.34685,-4.68194 12.85584,-4.68194 0.73303,0 1.0678,0.51791 1.37215,2.12274 0.14695,0.77483 0.3148,1.45641 0.37301,1.51462 0.0862,0.0862 1.65821,-0.60835 1.95661,-0.86444 0.15153,-0.13005 -0.79407,-3.16417 -1.17342,-3.7651 -0.20669,-0.32742 -0.60526,-0.59532 -0.88572,-0.59532 -0.28046,0 -3.10544,0.96495 -6.27775,2.14432 -3.17231,1.17937 -6.59964,2.44522 -7.61629,2.81299 -2.381105,0.86136 -2.970382,1.26303 -3.55808,2.4253 -0.384209,0.75984 -1.340339,4.25996 -1.340339,4.90661 0,0.23274 0.302876,0.17534 1.512509,-0.28662 z m 16.48773,-7.84508 c -0.2153,-1.41864 -0.43325,-1.77627 -1.08252,-1.77627 -0.40384,0 -0.51269,0.18372 -0.5095,0.8599 0.005,0.9851 0.17896,1.31301 0.92199,1.73436 0.80846,0.45845 0.8551,0.4015 0.67003,-0.81799 z"
       style="fill:#2b1e17;fill-opacity:1;stroke-width:0.264583"
       id="path1" />
  </g>
</svg>
