<?xml version="1.0" encoding="UTF-8" standalone="no"?>
<!-- Created with Inkscape (http://www.inkscape.org/) -->

<svg
   width="24mm"
   height="24mm"
   viewBox="0 0 24 24"
   version="1.1"
   id="svg1"
   inkscape:version="1.4.2 (f4327f4, 2025-05-13)"
   sodipodi:docname="hand_plane.svg"
   xmlns:inkscape="http://www.inkscape.org/namespaces/inkscape"
   xmlns:sodipodi="http://sodipodi.sourceforge.net/DTD/sodipodi-0.dtd"
   xmlns="http://www.w3.org/2000/svg"
   xmlns:svg="http://www.w3.org/2000/svg">
  <sodipodi:namedview
     id="namedview1"
     pagecolor="#ffffff"
     bordercolor="#000000"
     borderopacity="0.25"
     inkscape:showpageshadow="2"
     inkscape:pageopacity="0.0"
     inkscape:pagecheckerboard="0"
     inkscape:deskcolor="#d1d1d1"
     inkscape:document-units="mm"
     inkscape:zoom="0.68862935"
     inkscape:cx="47.1952"
     inkscape:cy="31.22144"
     inkscape:window-width="1920"
     inkscape:window-height="991"
     inkscape:window-x="-9"
     inkscape:window-y="-9"
     inkscape:window-maximized="1"
     inkscape:current-layer="layer1" />
  <defs
     id="defs1" />
  <g
     inkscape:label="Ebene 1"
     inkscape:groupmode="layer"
     id="layer1"
      transform="translate(0 4.20088) scale(0.950871) translate(-92.440898,-140.22917)">
    <path
       d="m 92.598816,156.09418 c -0.329875,-0.61638 -0.135081,-1.47027 0.510765,-2.23897 0.244527,-0.29104 0.596476,-0.9777 0.782111,-1.5259 0.302572,-0.89354 0.280789,-1.08852 -0.210424,-1.88331 -1.095033,-1.7718 -0.418168,-3.82187 1.413653,-4.28163 0.952275,-0.239 1.93915,0.0582 2.691405,0.81041 0.792393,0.79239 0.826556,1.90302 0.102209,3.32286 -0.415086,0.81364 -0.472842,1.17043 -0.255273,1.57696 0.396881,0.74158 0.660623,0.65903 1.287143,-0.40284 0.539464,-0.91432 1.108885,-1.28073 2.418675,-1.55635 0.99493,-0.20936 2.76122,-2.64524 2.68957,-3.70916 -0.0697,-1.03463 0.75601,-2.00833 1.70305,-2.00833 0.38934,0 0.99633,0.32483 1.44454,0.77304 0.82757,0.82757 0.81876,1.16883 -0.0631,2.4428 -0.60282,0.87093 -0.60012,1.13766 0.0255,2.51542 0.7379,1.62519 1.42857,2.20624 2.62242,2.20624 1.31066,0 1.8931,-0.62902 1.8931,-2.04449 0,-1.02212 -0.32589,-1.78473 -2.12738,-4.97823 -0.74414,-1.31913 -0.57751,-2.23651 0.60189,-3.31373 0.85602,-0.78186 2.75796,-1.5698 3.78918,-1.5698 1.04055,0 1.3039,0.65646 0.67292,1.6774 -0.30545,0.49423 -0.55536,1.09933 -0.55536,1.34467 0,0.24534 0.61364,1.68672 1.36366,3.20307 1.30535,2.63909 1.36475,2.85328 1.38906,5.00869 0.0162,1.43712 0.13602,2.29457 0.33118,2.37022 0.39865,0.15452 0.70707,1.58062 0.48986,2.265 -0.16725,0.52697 -0.35675,0.53512 -12.44583,0.53512 -12.081043,0 -12.280565,-0.009 -12.564534,-0.53916 z m 24.034684,-0.84991 c -0.079,-0.5565 -0.25039,-0.60614 -2.62859,-0.76146 -3.64542,-0.23809 -4.64586,-0.62512 -7.22702,-2.79584 -1.00589,-0.84595 -1.11649,-0.87447 -3.39083,-0.87447 -2.68885,0 -3.10062,0.15576 -3.920968,1.48311 -0.724464,1.1722 -2.302854,1.9427 -3.996015,1.95067 -1.647241,0.008 -2.072161,0.20464 -2.072161,0.96016 v 0.63315 h 11.660064 11.66007 z m -0.79947,-3.46543 c 0.0917,-2.10693 -0.3314,-3.59473 -1.63815,-5.76091 -1.20802,-2.00252 -1.34858,-2.77957 -0.72406,-4.00282 0.58666,-1.1491 0.40885,-1.21041 -1.28373,-0.44266 -2.54172,1.15291 -2.64185,1.72158 -0.8741,4.96455 1.048,1.92259 1.24732,2.5154 1.24732,3.70978 0,1.22516 -0.10125,1.50864 -0.73291,2.05197 -0.4031,0.34673 -0.92471,0.63042 -1.15913,0.63042 -0.23442,0 -0.34641,0.0798 -0.24888,0.17734 0.20647,0.20647 3.37996,0.56883 4.54107,0.51851 0.79314,-0.0344 0.79381,-0.0358 0.87257,-1.84618 z m -18.797567,1.30414 c 0.05967,-0.0597 -0.02021,-0.34898 -0.177528,-0.64292 -0.427275,-0.79838 -0.344659,-1.66604 0.243147,-2.5536 0.669954,-1.0116 0.666152,-1.5828 -0.01508,-2.26403 -0.796272,-0.79627 -2.347984,-0.6214 -2.876254,0.32415 -0.362389,0.64865 -0.344112,0.81334 0.22514,2.02872 0.592886,1.26583 0.622821,1.91035 0.142224,3.06207 -0.195699,0.46898 -0.119264,0.49254 1.069546,0.32959 0.704167,-0.0965 1.329126,-0.22431 1.388798,-0.28398 z m 9.652787,-3.29019 c -0.45705,-0.75155 -0.52883,-0.78148 -0.92472,-0.38559 -0.3959,0.3959 -0.36368,0.46296 0.4151,0.86397 0.46438,0.23911 0.88051,0.41263 0.92473,0.38559 0.0442,-0.027 -0.14258,-0.41582 -0.41511,-0.86397 z m -2.49443,-0.13717 c 0.39848,-0.24883 2.69685,-3.35069 2.69685,-3.63966 0,-0.2674 -0.78205,-1.02429 -1.05834,-1.02429 -0.55656,0 -1.08041,0.88468 -0.92982,1.57029 0.12165,0.55389 -0.0502,0.97069 -0.77735,1.8855 -0.51344,0.64593 -0.93468,1.25318 -0.93609,1.34944 -0.003,0.22047 0.54999,0.14268 1.00475,-0.14128 z"
       style="fill:#2b1e17;fill-opacity:1;stroke-width:0.264583"
       id="path1" />
  </g>
</svg>

