<?xml version="1.0" encoding="UTF-8" standalone="no"?>
<!-- Created with Inkscape (http://www.inkscape.org/) -->

<svg
   width="23.875067mm"
   height="24.778908mm"
   viewBox="0 0 23.875067 24.778908"
   version="1.1"
   id="svg1"
   inkscape:version="1.4.2 (f4327f4, 2025-05-13)"
   sodipodi:docname="hearing_protection.svg"
   xmlns:inkscape="http://www.inkscape.org/namespaces/inkscape"
   xmlns:sodipodi="http://sodipodi.sourceforge.net/DTD/sodipodi-0.dtd"
   xmlns="http://www.w3.org/2000/svg"
   xmlns:svg="http://www.w3.org/2000/svg">
  <sodipodi:namedview
     id="namedview1"
     pagecolor="#ffffff"
     bordercolor="#000000"
     borderopacity="0.25"
     inkscape:showpageshadow="2"
     inkscape:pageopacity="0.0"
     inkscape:pagecheckerboard="0"
     inkscape:deskcolor="#d1d1d1"
     inkscape:document-units="mm"
     inkscape:zoom="0.68862935"
     inkscape:cx="45.74304"
     inkscape:cy="47.1952"
     inkscape:window-width="1920"
     inkscape:window-height="991"
     inkscape:window-x="-9"
     inkscape:window-y="-9"
     inkscape:window-maximized="1"
     inkscape:current-layer="layer1" />
  <defs
     id="defs1" />
  <g
     inkscape:label="Ebene 1"
     inkscape:groupmode="layer"
     id="layer1"
     transform="translate(-93.160636,-136.03486)">
    <path
       d="m 96.700287,160.51433 c -1.973591,-0.90043 -3.229195,-3.39654 -3.491826,-6.94169 -0.111125,-1.50003 -0.04196,-2.04973 0.349557,-2.77812 0.377579,-0.70246 0.491374,-1.50714 0.502574,-3.5539 0.01146,-2.09218 0.137014,-2.95034 0.600056,-4.10104 3.055689,-7.59362 12.855492,-9.5455 18.454382,-3.67565 0.80921,0.84835 1.7938,2.23079 2.188,3.07208 0.625,1.33381 0.72221,1.88956 0.75936,4.34148 0.0325,2.14727 0.15576,3.02277 0.52141,3.70417 0.65844,1.22706 0.59013,3.84341 -0.15772,6.04104 -0.74414,2.18675 -1.38025,3.06434 -2.71455,3.74505 -0.93254,0.47575 -1.34531,0.52334 -3.15196,0.36341 -2.44009,-0.21599 -3.40332,-0.78027 -3.40332,-1.9937 0,-1.00183 2.0743,-9.43058 2.55167,-10.36852 0.60966,-1.19786 2.01596,-1.26488 3.57093,-0.17017 l 0.69865,0.49185 0.1683,-0.89703 c 0.17999,-0.95956 -0.15092,-2.81186 -0.76487,-4.28125 -0.28133,-0.67332 -0.53887,-0.90192 -1.0161,-0.90192 -0.35158,0 -1.33993,-0.47613 -2.19631,-1.05807 -3.71352,-2.52343 -6.95086,-2.40944 -10.670447,0.3757 -0.501214,0.3753 -1.19252,0.68237 -1.536232,0.68237 -0.489974,0 -0.743442,0.2679 -1.173699,1.24057 -0.581086,1.31364 -0.989018,4.58026 -0.571979,4.58026 0.134675,0 0.71193,-0.23813 1.282792,-0.52917 1.302383,-0.66399 1.742109,-0.6636 2.588685,0.002 0.5788,0.45529 0.85158,1.25982 1.90259,5.61146 0.67481,2.79398 1.15899,5.35061 1.07597,5.68141 -0.21743,0.86629 -1.36681,1.35327 -3.607217,1.52831 -1.385898,0.10828 -2.193972,0.0464 -2.758696,-0.21125 z m 2.986357,-0.66253 c 0.261276,-0.16584 0.07135,-1.29297 -0.857523,-5.08918 -0.656219,-2.68189 -1.194194,-5.09444 -1.195501,-5.36123 -0.0013,-0.27273 -0.147153,-0.43444 -0.333102,-0.36942 -0.487744,0.17057 -0.356698,1.7593 0.318262,3.85842 0.715026,2.22374 0.653079,2.78823 -0.318289,2.90041 -0.841089,0.0971 -0.957281,-0.12167 -1.660199,-3.12622 -0.255334,-1.0914 -0.549804,-2.08062 -0.654378,-2.19825 -0.301599,-0.33927 -1.058834,1.51794 -1.058834,2.59692 0,1.35759 0.728697,4.05361 1.383512,5.11869 0.299982,0.48794 0.915082,1.11257 1.366893,1.38808 0.842827,0.51394 2.411896,0.66087 3.009159,0.28178 z m 13.755876,-0.30662 c 0.47428,-0.28917 1.10185,-0.9138 1.39463,-1.38808 1.31824,-2.13542 1.7906,-5.91778 0.90739,-7.26572 l -0.47702,-0.72803 -0.44942,1.71364 c -0.24714,0.9425 -0.55414,2.18988 -0.68217,2.77197 -0.19082,0.86741 -0.35621,1.07268 -0.91691,1.13785 -1.23852,0.14397 -1.39112,-0.45767 -0.667,-2.62981 0.87058,-2.61149 1.07836,-3.82405 0.6958,-4.06049 -0.16827,-0.104 -0.35154,-0.1435 -0.40725,-0.0878 -0.0557,0.0557 -0.65952,2.46149 -1.34177,5.34616 -1.34868,5.7024 -1.34846,5.70666 0.28766,5.71297 0.43656,0.002 1.18179,-0.23352 1.65606,-0.52269 z m -11.56182,-0.22587 0.60392,-0.48902 -1.30221,-5.1099 c -1.349269,-5.29458 -1.656445,-5.91065 -2.695352,-5.40581 -0.49548,0.24076 -0.471951,0.41881 0.714671,5.40833 1.615871,6.79444 1.499551,6.55145 2.678971,5.5964 z m 7.77621,0.15829 c 0.59791,-1.92344 2.53081,-10.65329 2.42172,-10.93758 -0.22022,-0.57386 -1.16058,-0.44297 -1.59456,0.22196 -0.21369,0.32742 -0.88834,2.71021 -1.49921,5.29509 -1.07376,4.54362 -1.09486,4.71726 -0.63488,5.22552 0.53887,0.59546 1.15393,0.68723 1.30693,0.19501 z m -12.086298,-4.74596 c -0.163531,-0.4906 -0.733115,-0.57197 -0.733115,-0.10473 0,0.23041 0.188516,0.41892 0.418923,0.41892 0.230409,0 0.371795,-0.14139 0.314192,-0.31419 z m 15.935638,-0.10473 c 0,-0.23041 -0.14139,-0.3718 -0.3142,-0.31419 -0.49059,0.16353 -0.57196,0.73311 -0.10473,0.73311 0.23041,0 0.41893,-0.18851 0.41893,-0.41892 z m 0.63217,-2.7968 c 0.48408,-1.69924 0.53416,-2.34053 0.1828,-2.34053 -0.21908,0 -1.07956,3.19447 -1.07956,4.00775 0,0.68575 0.4814,-0.20925 0.89676,-1.66722 z m -17.121737,1.25814 c -0.07811,-0.20354 -0.284929,-1.09651 -0.459607,-1.98437 -0.174676,-0.88787 -0.40132,-1.6143 -0.503656,-1.6143 -0.437621,0 -0.459007,0.38094 -0.10111,1.80099 0.521215,2.06807 0.562845,2.16776 0.905189,2.16776 0.165659,0 0.237289,-0.16654 0.159184,-0.37008 z m -1.648089,-6.04336 c 0.02872,-1.7528 0.174014,-2.48506 0.733848,-3.69842 0.9198,-1.99353 2.826255,-3.99352 4.670368,-4.8995 1.33949,-0.65807 1.76756,-0.73135 4.27233,-0.73135 2.61317,0 2.89207,0.0534 4.55296,0.87101 1.94182,0.95596 3.28116,2.30865 4.37699,4.42066 0.55274,1.06532 0.70887,1.79948 0.80179,3.77031 0.065,1.37828 0.23098,2.4474 0.38,2.4474 0.16523,0 0.22394,-0.92902 0.15634,-2.47432 -0.0929,-2.12365 -0.22858,-2.71882 -0.95758,-4.19962 -3.14513,-6.38868 -11.79901,-7.63731 -16.738011,-2.41504 -2.211168,2.33798 -3.210005,5.28437 -2.774942,8.18557 0.264774,1.76564 0.484817,1.23146 0.525907,-1.2767 z m 3.792701,-5.88194 c 2.347475,-1.97527 5.840345,-2.75123 8.463035,-1.88011 0.73294,0.24344 2.01221,0.91867 2.84281,1.50051 0.8306,0.58184 1.62962,1.01808 1.7756,0.96941 0.51723,-0.17241 -1.11406,-1.71271 -2.75779,-2.60397 -1.58154,-0.85753 -1.80325,-0.904 -4.31308,-0.904 -3.03698,0 -4.33013,0.44283 -6.183946,2.11764 -1.566447,1.41519 -1.410866,2.13357 0.173371,0.80052 z"
       style="fill:#2b1e17;fill-opacity:1;stroke-width:0.264583"
       id="path1" />
  </g>
</svg>
