<?xml version="1.0" encoding="UTF-8" standalone="no"?>
<!-- Created with Inkscape (http://www.inkscape.org/) -->

<svg
   width="24mm"
   height="24mm"
   viewBox="0 0 24 24"
   version="1.1"
   id="svg1"
   inkscape:version="1.4.2 (f4327f4, 2025-05-13)"
   sodipodi:docname="heat_gun.svg"
   xmlns:inkscape="http://www.inkscape.org/namespaces/inkscape"
   xmlns:sodipodi="http://sodipodi.sourceforge.net/DTD/sodipodi-0.dtd"
   xmlns="http://www.w3.org/2000/svg"
   xmlns:svg="http://www.w3.org/2000/svg">
  <sodipodi:namedview
     id="namedview1"
     pagecolor="#ffffff"
     bordercolor="#000000"
     borderopacity="0.25"
     inkscape:showpageshadow="2"
     inkscape:pageopacity="0.0"
     inkscape:pagecheckerboard="0"
     inkscape:deskcolor="#d1d1d1"
     inkscape:document-units="mm"
     inkscape:zoom="0.68862935"
     inkscape:cx="45.74304"
     inkscape:cy="44.29088"
     inkscape:window-width="1920"
     inkscape:window-height="991"
     inkscape:window-x="-9"
     inkscape:window-y="-9"
     inkscape:window-maximized="1"
     inkscape:current-layer="layer1" />
  <defs
     id="defs1" />
  <g
     inkscape:label="Ebene 1"
     inkscape:groupmode="layer"
     id="layer1"
      transform="translate(0 0.607054) scale(0.977929) translate(-92.88941,-136.77275)">
    <path
       d="m 98.09578,159.34531 c 0.462779,-0.40018 0.91386,-1.03984 1.002404,-1.42145 0.133884,-0.57703 0.05386,-0.72074 -0.475321,-0.85355 -1.055069,-0.26481 -1.19569,-0.76908 -2.030683,-7.282 -0.246773,-1.92483 -0.269135,-1.96726 -1.716227,-3.25703 -1.671391,-1.48969 -2.13405,-2.65225 -1.94806,-4.89505 0.156918,-1.89223 1.114301,-3.27007 2.885457,-4.15267 1.972732,-0.98305 4.47601,-0.94973 9.05146,0.1205 1.91514,0.44796 4.43457,0.95397 5.59873,1.12448 l 2.11667,0.31 v 3.175 3.175 l -1.77043,0.17507 c -1.69517,0.16764 -6.17477,1.31782 -7.13598,1.83225 -0.32594,0.17443 -0.48192,0.64407 -0.53869,1.62189 -0.0708,1.21889 -0.15558,1.39475 -0.74136,1.53705 -0.58197,0.14137 -0.65355,0.28573 -0.59564,1.20137 0.0362,0.57239 0.26387,1.72684 0.50594,2.56546 0.4381,1.51772 0.43727,1.5278 -0.17808,2.18281 -0.3626,0.38597 -0.91366,0.65806 -1.33277,0.65806 -0.58362,0 -0.74389,0.14668 -0.874657,0.80051 -0.201313,1.00657 -1.282128,2.1099 -2.066834,2.1099 -0.560902,0 -0.546012,-0.0444 0.244071,-0.7276 z m 3.22085,-3.22393 c 0.32773,-0.20741 0.32773,-0.44475 0,-1.78189 -0.20795,-0.84844 -0.3765,-2.64223 -0.37456,-3.98619 0.004,-3.08663 0.1069,-3.19789 4.03857,-4.38611 1.64107,-0.49595 3.01029,-0.94811 3.04271,-1.00478 0.0324,-0.0567 0.0217,-1.37239 -0.0238,-2.92381 l -0.0827,-2.82077 -2.96,-0.70394 c -3.72013,-0.8847 -6.55938,-1.10508 -7.987088,-0.61995 -1.035573,0.35188 -1.055488,0.38228 -0.926042,1.41356 0.2042,1.62684 0.156451,5.75042 -0.07388,6.37995 -0.177295,0.48458 -0.05612,0.62353 0.865251,0.99218 0.589279,0.23579 1.317054,0.4287 1.617278,0.4287 0.322373,0 0.498209,0.13541 0.429474,0.33073 -0.06401,0.1819 -0.470678,0.31535 -0.903701,0.29655 l -0.787313,-0.0342 0.205386,1.22481 c 0.112963,0.67365 0.326525,2.34003 0.474582,3.70309 0.330013,3.03818 0.721658,3.74097 2.081623,3.73538 0.54235,-0.002 1.15623,-0.11173 1.36418,-0.24332 z m -3.68538,-12.18805 c 0,-0.15287 0.837848,-0.26458 1.984375,-0.26458 1.146525,0 1.984375,0.11171 1.984375,0.26458 0,0.15287 -0.83785,0.26458 -1.984375,0.26458 -1.146527,0 -1.984375,-0.11171 -1.984375,-0.26458 z m 0,-1.05833 c 0,-0.15287 0.837848,-0.26459 1.984375,-0.26459 1.146525,0 1.984375,0.11172 1.984375,0.26459 0,0.15287 -0.83785,0.26458 -1.984375,0.26458 -1.146527,0 -1.984375,-0.11171 -1.984375,-0.26458 z m 1.117558,-0.98905 c -0.788692,-0.055 -1.328629,-0.2064 -1.241155,-0.34794 0.196807,-0.31844 4.011487,-0.33082 4.207507,-0.0137 0.17175,0.27789 -0.49567,0.57817 -1.12899,0.50795 -0.24276,-0.0269 -1.069571,-0.0928 -1.837362,-0.14636 z m -1.117558,-1.3922 c 0,-0.15306 0.843052,-0.26459 1.99999,-0.26459 1.26595,0 1.93997,0.0971 1.83647,0.26459 -0.0899,0.14552 -0.98993,0.26458 -1.999991,0.26458 -1.047924,0 -1.836469,-0.11361 -1.836469,-0.26458 z m 4.50153,8.79739 c 0.002,-0.25466 0.0777,-0.76067 0.16829,-1.12448 0.11011,-0.4423 0.0767,-0.57379 -0.10092,-0.39687 -0.37604,0.37461 -0.64289,1.98437 -0.32895,1.98437 0.14188,0 0.25959,-0.20835 0.26158,-0.46302 z m -6.485208,-8.46666 c -0.09797,-1.05503 -0.284296,-1.91823 -0.414047,-1.91823 -0.312621,0 -0.959026,1.00634 -1.330048,2.07065 -0.427544,1.22646 -0.0825,3.05428 0.767234,4.06433 l 0.711581,0.84584 0.221708,-1.57218 c 0.12194,-0.8647 0.141547,-2.43539 0.04357,-3.49041 z m 16.214958,1.32291 c 0.0744,-2.395 0.0631,-2.44746 -0.52916,-2.4503 -0.33289,-0.002 -1.05173,-0.0767 -1.59743,-0.16691 l -0.99219,-0.164 v 2.74975 2.74975 l 1.52135,-0.13544 1.52136,-0.13545 z m 3.27552,2.0342 c -0.33944,-0.13606 -0.90499,-0.17513 -1.25678,-0.0868 -0.38323,0.0962 -0.6396,0.045 -0.6396,-0.12769 0,-0.45514 1.23356,-0.64581 2.1381,-0.33049 0.56544,0.19712 0.9826,0.20284 1.32759,0.0182 0.56134,-0.30042 0.67526,5.3e-4 0.18556,0.49022 -0.3706,0.3706 -0.89431,0.38152 -1.75487,0.0366 z m -0.12961,-1.86768 c -0.2652,-0.15422 -0.77122,-0.20787 -1.12448,-0.1192 -0.35928,0.0902 -0.64229,0.0446 -0.64229,-0.10338 0,-0.42046 1.24253,-0.61904 2.06952,-0.33075 0.41577,0.14494 1.10248,0.20904 1.52602,0.14245 0.73605,-0.11573 0.74739,-0.10278 0.25649,0.29315 -0.59076,0.47647 -1.39072,0.52164 -2.08526,0.11773 z m 0,-1.85208 c -0.2652,-0.15423 -0.79201,-0.20265 -1.17069,-0.10761 -0.60225,0.15116 -0.6455,0.121 -0.34531,-0.24071 0.40343,-0.4861 1.06236,-0.52718 1.95227,-0.12171 0.47031,0.21429 0.7899,0.21182 1.20307,-0.009 0.45172,-0.24175 0.56264,-0.22661 0.56264,0.0768 0,0.67591 -1.3177,0.91682 -2.20198,0.40257 z"
       style="fill:#2b1e17;fill-opacity:1;stroke-width:0.264583"
       id="path1" />
  </g>
</svg>

