<?xml version="1.0" encoding="UTF-8" standalone="no"?>
<!-- Created with Inkscape (http://www.inkscape.org/) -->

<svg
   width="23.091732mm"
   height="24.551907mm"
   viewBox="0 0 23.091732 24.551907"
   version="1.1"
   id="svg1"
   inkscape:version="1.4.2 (f4327f4, 2025-05-13)"
   sodipodi:docname="jigsaw.svg"
   xmlns:inkscape="http://www.inkscape.org/namespaces/inkscape"
   xmlns:sodipodi="http://sodipodi.sourceforge.net/DTD/sodipodi-0.dtd"
   xmlns="http://www.w3.org/2000/svg"
   xmlns:svg="http://www.w3.org/2000/svg">
  <sodipodi:namedview
     id="namedview1"
     pagecolor="#ffffff"
     bordercolor="#000000"
     borderopacity="0.25"
     inkscape:showpageshadow="2"
     inkscape:pageopacity="0.0"
     inkscape:pagecheckerboard="0"
     inkscape:deskcolor="#d1d1d1"
     inkscape:document-units="mm"
     inkscape:zoom="0.68862935"
     inkscape:cx="44.29088"
     inkscape:cy="45.74304"
     inkscape:window-width="1920"
     inkscape:window-height="991"
     inkscape:window-x="-9"
     inkscape:window-y="-9"
     inkscape:window-maximized="1"
     inkscape:current-layer="layer1" />
  <defs
     id="defs1" />
  <g
     inkscape:label="Ebene 1"
     inkscape:groupmode="layer"
     id="layer1"
     transform="translate(-93.504912,-136.26953)">
    <path
       d="m 96.954302,159.95112 c -0.09446,-0.50355 -0.128768,-1.45605 -0.07623,-2.11667 l 0.09553,-1.20112 h -1.513951 c -1.259533,0 -1.56314,-0.0919 -1.806649,-0.54691 -0.227685,-0.42543 -0.199014,-0.68989 0.129082,-1.19062 0.353282,-0.53918 0.635632,-0.64372 1.738596,-0.64372 h 1.316818 v -2.11666 c 0,-1.23473 -0.110244,-2.11667 -0.264584,-2.11667 -0.149595,0 -0.264583,0.757 -0.264583,1.74184 0,1.27532 -0.08858,1.71259 -0.330729,1.63264 -0.20673,-0.0682 -0.360857,-0.74419 -0.411083,-1.80285 -0.05073,-1.06925 -0.233088,-1.86242 -0.494631,-2.15143 -0.663689,-0.73336 -0.368617,-6.70802 0.433687,-8.78138 1.507005,-3.89449 4.381627,-5.07035 9.841465,-4.02567 3.80905,0.72883 7.86763,2.88039 8.74356,4.6352 0.25146,0.50375 0.79993,1.05191 1.23594,1.23524 0.88154,0.37066 1.53958,1.35196 1.16068,1.73085 -0.14767,0.14767 -0.52602,-0.0192 -0.96418,-0.42528 -0.6748,-0.62539 -1.22304,-0.85882 -1.22304,-0.52077 0,0.0812 0.25022,1.35506 0.55604,2.8309 0.6854,3.30761 0.6204,6.14152 -0.15387,6.70768 -0.35279,0.25797 -1.319,0.36803 -3.23087,0.36803 -2.52142,0 -2.72755,0.0387 -2.72755,0.5124 0,0.38384 0.21424,0.53321 0.85386,0.59531 1.01028,0.0981 1.65678,1.06656 1.23637,1.8521 -0.23599,0.44095 -0.72698,0.47977 -6.06829,0.47977 h -5.811526 v 1.5683 c 0,1.37912 -0.08409,1.63444 -0.69714,2.11667 -0.94411,0.74263 -1.102918,0.69787 -1.302723,-0.36718 z m 1.206113,-1.99487 c 0,-0.72761 -0.119062,-1.32292 -0.264583,-1.32292 -0.145521,0 -0.264583,0.59531 -0.264583,1.32292 0,0.7276 0.119062,1.32292 0.264583,1.32292 0.145521,0 0.264583,-0.59532 0.264583,-1.32292 z m 11.840215,-2.4474 c -0.0838,-0.25176 -1.87281,-0.34754 -7.49295,-0.40117 -4.060559,-0.0387 -7.540812,-0.01 -7.7339,0.0643 -0.19309,0.0741 -0.276965,0.25462 -0.186396,0.40117 0.261935,0.42382 15.554546,0.36005 15.413246,-0.0643 z m -11.840215,-3.37343 c 0,-1.23473 -0.110244,-2.11667 -0.264583,-2.11667 -0.154339,0 -0.264583,0.88194 -0.264583,2.11667 0,1.23472 0.110244,2.11666 0.264583,2.11666 0.154339,0 0.264583,-0.88194 0.264583,-2.11666 z m 2.381255,1.5875 c 0,-0.34829 -0.17639,-0.52917 -0.51602,-0.52917 -0.283815,0 -0.637383,-0.20836 -0.785708,-0.46302 -0.218102,-0.37446 -0.271225,-0.27324 -0.277731,0.52916 -0.0075,0.92784 0.04344,0.99219 0.785704,0.99219 0.617365,0 0.793755,-0.11759 0.793755,-0.52916 z m 7.14375,0 c 0,-0.49977 -0.17639,-0.52917 -3.175,-0.52917 -2.99861,0 -3.175,0.0294 -3.175,0.52917 0,0.49976 0.17639,0.52916 3.175,0.52916 2.99861,0 3.175,-0.0294 3.175,-0.52916 z m 6.35,-1.58363 c 0.52345,-0.33316 0.46303,-3.70109 -0.10924,-6.08929 -0.22666,-0.94589 -0.41387,-2.3362 -0.41602,-3.08959 -0.004,-1.25768 -0.0851,-1.43737 -0.9961,-2.19535 -1.31053,-1.09042 -4.30932,-2.54622 -6.2733,-3.04546 -2.34025,-0.59488 -6.05629,-0.53243 -7.401498,0.12439 -1.861957,0.90914 -2.855275,3.04659 -3.229441,6.94924 l -0.171227,1.78594 h 2.135761 c 2.821585,0 2.967315,0.15035 2.967315,3.0616 0,1.31032 -0.10913,2.23006 -0.26459,2.23006 -0.15222,0 -0.26458,-0.82021 -0.26458,-1.93146 0,-1.14946 -0.128546,-2.06 -0.317501,-2.24895 -0.480126,-0.48013 -4.180417,-0.42903 -4.180417,0.0577 0,0.96879 0.320667,1.21227 1.596604,1.21227 1.062705,0 1.366859,0.11626 1.823776,0.69714 0.301604,0.38342 0.54837,0.97023 0.54837,1.30401 0,1.38332 0.289626,1.43876 7.493378,1.43438 3.7693,-0.002 6.83415,-0.11373 7.05871,-0.25666 z m -11.58029,-1.59137 c 0,-0.50933 0.0545,-0.71769 0.121,-0.46303 0.0665,0.25467 0.0665,0.67139 0,0.92605 -0.0666,0.25466 -0.121,0.0463 -0.121,-0.46302 z m -0.79375,-0.26459 c 0,-0.50932 0.0545,-0.71768 0.121,-0.46302 0.0665,0.25466 0.0665,0.67138 0,0.92604 -0.0666,0.25466 -0.121,0.0463 -0.121,-0.46302 z m 9.33133,0.26459 c 0.0899,-0.14553 0.62572,-0.26459 1.19062,-0.26459 0.56491,0 1.10069,0.11906 1.19063,0.26459 0.10087,0.16322 -0.35524,0.26458 -1.19063,0.26458 -0.83539,0 -1.2915,-0.10136 -1.19062,-0.26458 z m 0.13229,-1.05834 c 0,-0.14552 0.46922,-0.26458 1.04272,-0.26458 0.57349,0 1.1163,0.11906 1.20624,0.26458 0.0999,0.16161 -0.30594,0.26459 -1.04272,0.26459 -0.66343,0 -1.20624,-0.11907 -1.20624,-0.26459 z m -0.26458,-1.05833 c 0,-0.14552 0.53578,-0.26458 1.19062,-0.26458 0.65484,0 1.19063,0.11906 1.19063,0.26458 0,0.14552 -0.53579,0.26458 -1.19063,0.26458 -0.65484,0 -1.19062,-0.11906 -1.19062,-0.26458 z m 0.13229,-1.05833 c -0.10047,-0.16257 0.32708,-0.26303 1.10886,-0.26054 0.91906,0.003 1.16218,0.0753 0.87551,0.26054 -0.52062,0.33645 -1.77643,0.33645 -1.98437,0 z m -9.59672,-1.76459 c -1.05253,-0.42348 -1.508361,-3.64706 -0.68245,-4.82622 0.42441,-0.60593 0.5086,-0.61817 3.04961,-0.44316 3.20523,0.22076 6.46278,1.02194 7.28118,1.7908 0.45138,0.42405 0.60984,0.86538 0.60984,1.69851 0,1.89515 -0.1805,1.96015 -5.37672,1.93627 -2.49984,-0.0115 -4.69649,-0.0818 -4.88146,-0.1562 z m 9.14693,-0.93416 c 0.46107,-0.46108 0.389,-1.38792 -0.14553,-1.87123 -0.25466,-0.23026 -1.35599,-0.65609 -2.44739,-0.94629 l -1.98438,-0.52763 -0.66357,0.78393 c -0.65461,0.77335 -0.68243,0.77988 -2.06119,0.48419 -1.86166,-0.39925 -2.28212,-0.22076 -2.06643,0.87725 0.0925,0.4707 0.36786,1.00465 0.61199,1.18655 0.60969,0.45426 8.30383,0.46589 8.7565,0.0132 z m -5.76792,-3.09378 c 0,-0.36925 -0.72199,-0.55747 -2.13831,-0.55747 -1.45478,0 -1.7749,0.43686 -0.44138,0.60235 1.65571,0.20547 2.57969,0.1894 2.57969,-0.0449 z"
       style="fill:#2b1e17;fill-opacity:1;stroke-width:0.264583"
       id="path1" />
  </g>
</svg>
