<?xml version="1.0" encoding="UTF-8" standalone="no"?>
<!-- Created with Inkscape (http://www.inkscape.org/) -->

<svg
   width="25.807507mm"
   height="16.067087mm"
   viewBox="0 0 25.807507 16.067087"
   version="1.1"
   id="svg1"
   inkscape:version="1.4.2 (f4327f4, 2025-05-13)"
   sodipodi:docname="lathe.svg"
   xmlns:inkscape="http://www.inkscape.org/namespaces/inkscape"
   xmlns:sodipodi="http://sodipodi.sourceforge.net/DTD/sodipodi-0.dtd"
   xmlns="http://www.w3.org/2000/svg"
   xmlns:svg="http://www.w3.org/2000/svg">
  <sodipodi:namedview
     id="namedview1"
     pagecolor="#ffffff"
     bordercolor="#000000"
     borderopacity="0.25"
     inkscape:showpageshadow="2"
     inkscape:pageopacity="0.0"
     inkscape:pagecheckerboard="0"
     inkscape:deskcolor="#d1d1d1"
     inkscape:document-units="mm"
     inkscape:zoom="0.68862935"
     inkscape:cx="48.64736"
     inkscape:cy="29.76928"
     inkscape:window-width="1920"
     inkscape:window-height="991"
     inkscape:window-x="-9"
     inkscape:window-y="-9"
     inkscape:window-maximized="1"
     inkscape:current-layer="layer1" />
  <defs
     id="defs1" />
  <g
     inkscape:label="Ebene 1"
     inkscape:groupmode="layer"
     id="layer1"
     transform="translate(-92.074413,-140.51534)">
    <path
       d="m 92.253926,156.45948 c -0.315593,-0.31559 -0.191143,-1.38029 0.186897,-1.59894 0.780869,-0.45164 1.486727,-4.1232 1.478215,-7.68902 -0.0058,-2.41918 -0.08416,-3.23979 -0.277731,-2.90746 -0.148326,0.25466 -0.561425,0.46302 -0.917996,0.46302 -0.614683,0 -0.648311,-0.0809 -0.648311,-1.55919 0,-1.21138 0.0984,-1.59695 0.441118,-1.72847 0.242615,-0.0931 0.564084,-0.0463 0.714375,0.10399 0.424763,0.42476 0.652248,0.32633 0.744334,-0.32206 0.07883,-0.55502 0.232289,-0.60051 2.267361,-0.67216 2.181377,-0.0768 2.182812,-0.0764 2.182812,0.59532 0,0.513 0.135738,0.67215 0.573264,0.67215 0.315295,0 0.498078,-0.0752 0.406184,-0.16707 -0.09189,-0.0919 -0.04442,-0.39628 0.105499,-0.6764 0.208092,-0.38883 0.503223,-0.49014 1.247463,-0.42824 l 0.97488,0.0811 0.0761,2.4474 0.0761,2.44739 h -1.22532 c -0.988178,0 -1.251183,-0.0989 -1.358921,-0.51086 -0.07348,-0.28098 -0.275346,-0.56526 -0.448598,-0.63174 -0.221355,-0.0849 -0.311927,0.32257 -0.304656,1.37075 l 0.01035,1.49164 2.943515,0.0745 c 2.86989,0.0726 2.94756,0.0594 3.10524,-0.52916 0.25288,-0.94393 0.21805,-1.00055 -0.61549,-1.00055 -0.80099,0 -1.5225,-0.801 -1.19656,-1.32838 0.0881,-0.14251 1.40701,-0.25912 2.93096,-0.25912 2.32715,0 2.79755,0.0697 2.93779,0.43514 0.21775,0.56745 -0.58378,1.15236 -1.57912,1.15236 -0.51802,0 -0.71542,0.10685 -0.61106,0.33073 0.0848,0.1819 0.22767,0.53909 0.31749,0.79375 0.13356,0.37865 0.48634,0.46302 1.93583,0.46302 h 1.7725 l 0.54753,-0.99218 c 0.90877,-1.64682 0.99754,-2.18282 0.36149,-2.18282 -0.30085,0 -0.54699,-0.10791 -0.54699,-0.23981 0,-0.1319 -0.20836,-0.18573 -0.46302,-0.11962 -0.25467,0.0661 -0.70115,-0.0568 -0.99219,-0.27318 -0.498,-0.37021 -0.50271,-0.42023 -0.08,-0.84922 0.35079,-0.35605 1.06786,-0.48337 3.27538,-0.58155 2.47453,-0.11005 2.8423,-0.18704 2.95517,-0.61865 0.0803,-0.30695 0.36687,-0.49297 0.75951,-0.49297 0.55616,0 0.6306,0.1213 0.6306,1.02748 0,0.82136 0.11149,1.05663 0.55579,1.17282 0.58619,0.15329 0.46377,0.71012 -0.15613,0.71012 -0.19957,0 -0.4009,0.26789 -0.4474,0.59531 -0.11429,0.80472 -1.16423,0.96481 -1.40257,0.21387 -0.19142,-0.60312 -0.93094,-0.75177 -0.93094,-0.18713 0,0.19661 0.30475,0.93062 0.67722,1.63114 0.3998,0.75192 0.68053,1.71643 0.68529,2.35451 0.0117,1.57183 1.01844,5.7914 1.46761,6.15153 0.22029,0.17663 0.34771,0.62842 0.29849,1.05834 l -0.0859,0.75014 -12.58722,0.0687 c -6.922966,0.0378 -12.667732,-0.0118 -12.766141,-0.11024 z m 24.956494,-0.75219 c 0,-0.34709 -1.54341,-0.39688 -12.30313,-0.39688 -6.766717,0 -12.303123,0.0992 -12.303123,0.22049 0,0.12127 0.07937,0.29986 0.176389,0.39687 0.09701,0.097 5.63342,0.17639 12.303124,0.17639 10.60293,0 12.12674,-0.0499 12.12674,-0.39687 z m -21.124563,-2.51354 c 0.696736,-2.22966 0.66069,-2.38125 -0.566233,-2.38125 -0.933139,0 -1.071887,0.083 -1.216303,0.7276 -0.08965,0.40018 -0.269853,1.14432 -0.40044,1.65365 -0.38981,1.52037 -0.337929,1.62758 0.743932,1.53732 0.941988,-0.0786 1.003866,-0.14469 1.439044,-1.53732 z m 17.531803,0.99219 c -0.10386,-0.32743 -0.39102,-1.19063 -0.63815,-1.91823 l -0.44931,-1.32292 -4.65459,-0.0722 -4.65458,-0.0722 -0.22287,1.13052 -0.22287,1.13052 -2.20079,0.0773 c -2.536097,0.089 -2.94325,-0.11647 -2.94325,-1.48549 0,-1.24698 -0.347093,-0.79875 -0.783147,1.01135 -0.192808,0.80037 -0.405871,1.60404 -0.473472,1.78594 -0.09678,0.26041 1.743401,0.33073 8.654479,0.33073 h 8.77738 z m 2.65344,-0.2589 c -0.62103,-2.82751 -0.71554,-2.97608 -1.94997,-3.06531 -0.88541,-0.064 -1.11722,-1e-4 -1.01031,0.27852 0.0763,0.19887 0.34579,1.09945 0.59883,2.00129 l 0.46008,1.63971 h 1.04449 c 1.03933,0 1.04356,-0.004 0.85688,-0.85421 z m -13.87735,-2.1885 v -0.92604 h -2.24896 c -1.384639,0 -2.248956,0.10605 -2.248956,0.27594 0,0.1787 0.699314,0.22959 1.984375,0.14443 1.174851,-0.0779 1.984371,-0.0285 1.984371,0.12093 0,0.13884 -0.89999,0.25245 -1.999986,0.25245 -1.099995,0 -1.941723,0.0943 -1.870508,0.20951 0.07122,0.11522 0.971211,0.19932 1.99999,0.18687 2.458544,-0.0297 2.419824,0.34804 -0.04772,0.4655 l -1.918229,0.0913 2.182813,0.0526 2.18281,0.0526 z m 13.02102,-2.24896 0.1165,-0.79375 H 104.99376 94.45625 v 0.79375 0.79375 h 10.42101 10.42101 z m -17.452791,-1.65364 c -0.03638,-0.10915 -0.06615,-1.68672 -0.06615,-3.50573 v -3.3073 H 96.176042 94.45625 v 3.58397 3.58396 l 1.785938,-0.0782 c 0.982265,-0.043 1.756172,-0.16753 1.719791,-0.27667 z m -2.632693,-4.69636 c 0,-0.80036 0.0496,-1.12779 0.110223,-0.7276 0.06062,0.40018 0.06062,1.05502 0,1.45521 -0.06062,0.40018 -0.110223,0.0728 -0.110223,-0.72761 z m 1.793686,0.19844 c -0.01149,-0.69123 0.07427,-1.25677 0.190566,-1.25677 0.116301,0 0.167203,0.44648 0.113116,0.99219 -0.15224,1.53602 -0.28069,1.64793 -0.303682,0.26458 z m -1.079222,-0.15434 c 0,-0.60634 0.111577,-1.10243 0.247949,-1.10243 0.137349,0 0.179654,0.44257 0.09484,0.99219 -0.212002,1.37385 -0.342791,1.41591 -0.342791,0.11024 z m 8.3923,4.82042 c -0.18399,-0.18399 -5.791799,-0.14488 -5.97837,0.0417 -0.06648,0.0665 1.288032,0.12087 3.01003,0.12087 1.72199,0 3.05775,-0.0731 2.96834,-0.16256 z m 1.9224,-0.16816 c -0.007,-0.60621 -0.4666,-1.07126 -0.89529,-0.90676 -0.23297,0.0894 -0.42358,0.4044 -0.42358,0.70002 0,0.39691 0.17299,0.53746 0.66146,0.53746 0.3638,0 0.65964,-0.14882 0.65741,-0.33072 z m 3.37749,0.13798 c -0.54571,-0.0571 -1.43867,-0.0571 -1.98438,0 -0.5457,0.0571 -0.0992,0.10379 0.99219,0.10379 1.09141,0 1.53789,-0.0467 0.99219,-0.10379 z m 5.55706,-0.13798 c -0.0717,-0.21679 -0.80858,-0.35736 -2.13871,-0.40801 -1.68543,-0.0642 -2.02929,-0.008 -2.02929,0.33073 0,0.33397 0.3881,0.408 2.13872,0.408 1.59294,0 2.11079,-0.0844 2.02928,-0.33072 z m -0.87421,-1.90974 c -0.21085,-0.50465 -0.38337,-1.21902 -0.38337,-1.5875 0,-0.53823 0.13005,-0.66995 0.66146,-0.66995 0.48506,0 0.66145,-0.14111 0.66145,-0.52917 0,-0.48213 -0.17639,-0.52917 -1.98437,-0.52917 -1.80799,0 -1.98438,0.047 -1.98438,0.52917 0,0.29104 0.17157,0.52917 0.38126,0.52917 0.75473,0 0.75999,0.89215 0.016,2.71198 -0.16796,0.41084 -0.009,0.46302 1.41301,0.46302 h 1.60231 z m -8.69019,-0.0691 c -0.26895,-0.26895 -0.49087,0.13597 -0.27019,0.49302 0.16669,0.26972 0.22901,0.26993 0.31863,0.001 0.0613,-0.18383 0.0395,-0.40617 -0.0484,-0.49409 z m 2.35369,-0.86541 c 0.10469,-0.16938 -0.75211,-0.26458 -2.38125,-0.26458 -1.62914,0 -2.48593,0.0952 -2.38125,0.26458 0.0899,0.14553 1.1615,0.26459 2.38125,0.26459 1.21975,0 2.29131,-0.11906 2.38125,-0.26459 z m -7.80521,-1.99999 c 0,-1.26595 -0.0971,-1.93997 -0.26458,-1.83646 -0.145521,0.0899 -0.264583,0.98993 -0.264583,1.99999 0,1.04792 0.113607,1.83646 0.264583,1.83646 0.15305,0 0.26458,-0.84305 0.26458,-1.99999 z m 1.05834,0.0156 c 0,-1.14652 -0.11172,-1.98437 -0.26459,-1.98437 -0.15287,0 -0.26458,0.83785 -0.26458,1.98437 0,1.14653 0.11171,1.98438 0.26458,1.98438 0.15287,0 0.26459,-0.83785 0.26459,-1.98438 z m 15.08125,0.1323 c 0,-0.88195 -0.11759,-1.5875 -0.26459,-1.5875 -0.14699,0 -0.26458,0.70555 -0.26458,1.5875 0,0.88194 0.11759,1.5875 0.26458,1.5875 0.147,0 0.26459,-0.70556 0.26459,-1.5875 z m -23.283336,0.0156 c 0,-0.5735 -0.119063,-1.11631 -0.264584,-1.20624 -0.16161,-0.0999 -0.264583,0.30593 -0.264583,1.04271 0,0.66344 0.119062,1.20624 0.264583,1.20624 0.145521,0 0.264584,-0.46922 0.264584,-1.04271 z m 6.15138,-0.1416 c -0.175746,-0.91935 -0.864891,-0.87033 -0.841118,0.0598 0.01648,0.64475 0.04449,0.66735 0.245988,0.19844 0.214818,-0.49991 0.228418,-0.49539 0.245987,0.0818 0.01023,0.33601 0.121691,0.54722 0.247696,0.46934 0.126005,-0.0779 0.171657,-0.44209 0.101447,-0.80937 z m -5.35763,0.12599 c 0,-0.14552 -0.119063,-0.26458 -0.264584,-0.26458 -0.145521,0 -0.264583,0.11906 -0.264583,0.26458 0,0.14552 0.119062,0.26458 0.264583,0.26458 0.145521,0 0.264584,-0.11906 0.264584,-0.26458 z m 16.933336,0 c 0,-0.14552 -0.26789,-0.25621 -0.59532,-0.24598 -0.56803,0.0178 -0.57106,0.029 -0.0661,0.24598 0.29104,0.12507 0.55893,0.23576 0.59531,0.24599 0.0364,0.0102 0.0662,-0.10047 0.0662,-0.24599 z"
       style="fill:#2b1e17;fill-opacity:1;stroke-width:0.264583"
       id="path1" />
  </g>
</svg>
