<?xml version="1.0" encoding="UTF-8" standalone="no"?>
<!-- Created with Inkscape (http://www.inkscape.org/) -->

<svg
   width="18.802832mm"
   height="25.929159mm"
   viewBox="0 0 18.802832 25.929159"
   version="1.1"
   id="svg1"
   inkscape:version="1.4.2 (f4327f4, 2025-05-13)"
   sodipodi:docname="list.svg"
   xmlns:inkscape="http://www.inkscape.org/namespaces/inkscape"
   xmlns:sodipodi="http://sodipodi.sourceforge.net/DTD/sodipodi-0.dtd"
   xmlns="http://www.w3.org/2000/svg"
   xmlns:svg="http://www.w3.org/2000/svg">
  <sodipodi:namedview
     id="namedview1"
     pagecolor="#ffffff"
     bordercolor="#000000"
     borderopacity="0.25"
     inkscape:showpageshadow="2"
     inkscape:pageopacity="0.0"
     inkscape:pagecheckerboard="0"
     inkscape:deskcolor="#d1d1d1"
     inkscape:document-units="mm"
     inkscape:zoom="0.68862935"
     inkscape:cx="35.57792"
     inkscape:cy="48.64736"
     inkscape:window-width="1920"
     inkscape:window-height="991"
     inkscape:window-x="-9"
     inkscape:window-y="-9"
     inkscape:window-maximized="1"
     inkscape:current-layer="layer1" />
  <defs
     id="defs1" />
  <g
     inkscape:label="Ebene 1"
     inkscape:groupmode="layer"
     id="layer1"
     transform="translate(-95.761758,-135.46667)">
    <path
       d="m 96.536082,160.89024 -0.624624,-0.50559 -0.07485,-10.61023 -0.07485,-10.61022 0.65814,-0.65814 c 0.583918,-0.58392 0.881529,-0.65814 2.638928,-0.65814 1.089434,0 2.054374,-0.11907 2.144304,-0.26459 0.0899,-0.14552 0.51063,-0.26458 0.93487,-0.26458 0.58222,0 0.86791,-0.18675 1.16522,-0.76169 0.44054,-0.8519 0.88556,-1.09039 2.03462,-1.09039 0.7723,0 2.083,0.99134 2.083,1.57547 0,0.15214 0.35016,0.27661 0.77814,0.27661 0.42797,0 0.85172,0.11906 0.94165,0.26458 0.0899,0.14552 1.10036,0.26459 2.24537,0.26459 1.93392,0 2.12082,0.0495 2.63022,0.69714 0.53361,0.67836 0.54837,0.9766 0.54837,11.07681 0,10.10021 -0.0148,10.39845 -0.54837,11.07682 l -0.54837,0.69714 h -8.15357 c -7.632512,0 -8.193481,-0.0323 -8.778189,-0.50559 z m 16.917248,-0.60566 c 0.45596,-0.45595 0.45596,-20.86946 0,-21.32541 -0.48059,-0.4806 -3.65125,-0.42368 -3.65125,0.0655 0,0.27555 0.38984,0.4055 1.38907,0.46302 l 1.38906,0.08 v 9.92187 9.92188 h -7.40834 -7.408328 v -9.92188 -9.92187 l 1.322916,-0.0227 c 1.011652,-0.0174 1.343042,-0.12632 1.408462,-0.46302 0.0726,-0.37357 -0.17001,-0.44031 -1.600728,-0.44031 -0.95877,0 -1.823254,0.13698 -2.003775,0.3175 -0.235941,0.23594 -0.3175,2.93225 -0.3175,10.49636 0,9.10023 0.0464,10.23012 0.437882,10.66271 0.405454,0.44802 1.018748,0.48385 8.281461,0.48385 5.74778,0 7.92841,-0.0848 8.16107,-0.3175 z m -1.27,-10.64709 c 0,-5.1574 -0.10046,-9.43919 -0.22325,-9.51507 -0.42407,-0.26209 -2.158,0.17038 -2.158,0.53824 0,0.29191 -0.84355,0.36226 -4.34398,0.36226 -4.55875,0 -5.18102,-0.0837 -5.18102,-0.69718 0,-0.27617 -0.26341,-0.34898 -0.992184,-0.27427 l -0.992188,0.10172 -0.0697,9.09834 c -0.03833,5.00409 -0.0123,9.2479 0.05784,9.4307 0.09784,0.25497 1.731122,0.33235 7.015002,0.33235 h 6.88747 z m -12.523608,7.34862 c -0.09701,-0.097 -0.176389,-0.51373 -0.176389,-0.92604 0,-0.68036 0.0856,-0.74966 0.926037,-0.74966 0.88195,0 0.92605,0.0441 0.92605,0.92605 0,0.84044 -0.0693,0.92604 -0.74966,0.92604 -0.41231,0 -0.829024,-0.0794 -0.926038,-0.17639 z m 1.411108,-0.74965 c 0,-0.22049 -0.23518,-0.39688 -0.52916,-0.39688 -0.29398,0 -0.52917,0.17639 -0.52917,0.39688 0,0.22048 0.23519,0.39687 0.52917,0.39687 0.29398,0 0.52916,-0.17639 0.52916,-0.39687 z m 1.5875,-0.1323 c 0,-0.16462 1.49931,-0.26458 3.96875,-0.26458 2.46945,0 3.96875,0.1 3.96875,0.26458 0,0.16463 -1.4993,0.26459 -3.96875,0.26459 -2.46944,0 -3.96875,-0.1 -3.96875,-0.26459 z m -3.174997,-2.38125 c 0,-0.73075 0.0735,-0.79375 0.926037,-0.79375 0.85255,0 0.92605,0.063 0.92605,0.79375 0,0.73076 -0.0735,0.79375 -0.92605,0.79375 -0.852541,0 -0.926037,-0.063 -0.926037,-0.79375 z m 1.537717,0.0692 c -0.13282,-0.6897 -1.00855,-0.76662 -1.00855,-0.0886 0,0.37864 0.16992,0.54856 0.54857,0.54856 0.37864,0 0.52112,-0.14248 0.45998,-0.45998 z m 1.63728,-0.0692 c 0,-0.16462 1.49931,-0.26458 3.96875,-0.26458 2.46945,0 3.96875,0.1 3.96875,0.26458 0,0.16463 -1.4993,0.26459 -3.96875,0.26459 -2.46944,0 -3.96875,-0.1 -3.96875,-0.26459 z m -2.998608,-1.76388 c -0.09701,-0.097 -0.176389,-0.4542 -0.176389,-0.79375 0,-0.52917 0.132292,-0.61737 0.926037,-0.61737 0.85255,0 0.92605,0.063 0.92605,0.79375 0,0.69518 -0.0931,0.79375 -0.74966,0.79375 -0.41231,0 -0.829024,-0.0794 -0.926038,-0.17638 z m 1.411108,-0.74966 c 0,-0.22048 -0.23518,-0.39687 -0.52916,-0.39687 -0.29398,0 -0.52917,0.17639 -0.52917,0.39687 0,0.22049 0.23519,0.39688 0.52917,0.39688 0.29398,0 0.52916,-0.17639 0.52916,-0.39688 z m 1.5875,0.13229 c 0,-0.16462 1.49931,-0.26458 3.96875,-0.26458 2.46945,0 3.96875,0.1 3.96875,0.26458 0,0.16463 -1.4993,0.26459 -3.96875,0.26459 -2.46944,0 -3.96875,-0.1 -3.96875,-0.26459 z m -3.125614,-2.44739 c 0.0729,-0.75611 0.186698,-0.8699 0.942804,-0.94281 0.82477,-0.0795 0.8599,-0.0444 0.8599,0.8599 0,0.90429 -0.0385,0.9428 -0.94281,0.9428 -0.904295,0 -0.939418,-0.0351 -0.859894,-0.85989 z m 1.538114,-0.0661 c 0,-0.22048 -0.23518,-0.39687 -0.52916,-0.39687 -0.29398,0 -0.52917,0.17639 -0.52917,0.39687 0,0.22049 0.23519,0.39688 0.52917,0.39688 0.29398,0 0.52916,-0.17639 0.52916,-0.39688 z m 1.5875,-0.13229 c 0,-0.16463 1.49931,-0.26458 3.96875,-0.26458 2.46945,0 3.96875,0.1 3.96875,0.26458 0,0.16463 -1.4993,0.26458 -3.96875,0.26458 -2.46944,0 -3.96875,-0.1 -3.96875,-0.26458 z m -3.125614,-2.18281 c 0.0729,-0.75611 0.186698,-0.8699 0.942804,-0.94281 0.82477,-0.0795 0.8599,-0.0444 0.8599,0.8599 0,0.90429 -0.0385,0.9428 -0.94281,0.9428 -0.904295,0 -0.939418,-0.0351 -0.859894,-0.85989 z m 1.538114,-0.0662 c 0,-0.22048 -0.23518,-0.39687 -0.52916,-0.39687 -0.29398,0 -0.52917,0.17639 -0.52917,0.39687 0,0.22049 0.23519,0.39688 0.52917,0.39688 0.29398,0 0.52916,-0.17639 0.52916,-0.39688 z m 1.68541,-0.0538 c 0.19173,-0.19174 7.62046,-0.11885 7.81754,0.0767 0.0606,0.0602 -1.71538,0.10938 -3.9467,0.10938 -2.23132,0 -3.9732,-0.0837 -3.87084,-0.18609 z m -3.53749,-2.35984 c 0,-0.35158 0.07183,-0.36966 0.396875,-0.0999 0.530685,0.44043 0.507445,0.0316 -0.03209,-0.56462 -0.23593,-0.2607 -0.35493,-0.66693 -0.264444,-0.90273 0.179181,-0.46695 0.729519,-0.40868 0.897419,0.095 0.0678,0.20351 -0.0663,0.2539 -0.38034,0.14287 -0.403892,-0.14277 -0.386953,-0.076 0.101153,0.39859 0.326467,0.31745 0.519117,0.74512 0.434717,0.96507 -0.20564,0.53589 -1.153291,0.50771 -1.153291,-0.0343 z m 1.72406,0.0985 c -0.26991,-0.80118 -0.23259,-1.97016 0.0538,-1.68381 0.10467,0.10467 0.20457,0.60076 0.22199,1.10242 0.0325,0.9349 -0.0781,1.16804 -0.27575,0.58139 z m 0.9566,-0.66146 0.0348,-0.99219 0.19493,0.92605 c 0.1072,0.50932 0.21242,0.68791 0.2338,0.39687 0.0214,-0.29104 0.1543,-0.70776 0.29536,-0.92604 0.19078,-0.29521 0.25752,-0.14271 0.26053,0.59531 0.003,0.81715 -0.0893,0.99219 -0.52511,0.99219 -0.44128,0 -0.52338,-0.16478 -0.49434,-0.99219 z m 1.36997,0.55935 c -0.18012,-0.4694 0.23039,-1.3157 0.6018,-1.24065 0.12602,0.0255 0.27304,0.17801 0.3267,0.339 0.0537,0.16098 -0.0624,0.25921 -0.25797,0.21828 -0.19555,-0.0409 -0.35554,0.10418 -0.35554,0.32246 0,0.21828 0.14883,0.36711 0.33073,0.33073 0.18191,-0.0364 0.33073,0.0529 0.33073,0.19844 0,0.43594 -0.79732,0.29855 -0.97645,-0.16826 z m 1.56254,-0.75779 c 0.008,-0.7276 0.0677,-1.04807 0.13183,-0.71216 0.0852,0.44613 0.20389,0.53839 0.44022,0.34225 0.24424,-0.2027 0.32353,-0.0472 0.32353,0.6345 0,0.67348 -0.0809,0.83587 -0.31823,0.63889 -0.21793,-0.18087 -0.36145,-0.15639 -0.45536,0.0777 -0.0754,0.18797 -0.13032,-0.25354 -0.12199,-0.98115 z m 1.266,-0.0285 c 0,-0.68769 0.0797,-1.17066 0.17706,-1.07327 0.30436,0.30436 0.37666,1.98139 0.093,2.15671 -0.16913,0.10452 -0.27005,-0.30039 -0.27005,-1.08344 z m 0.86047,0.29307 c 0.003,-0.58209 0.0571,-0.78906 0.12041,-0.45994 0.0633,0.32912 0.0609,0.80537 -0.005,1.05833 -0.0662,0.25297 -0.11801,-0.0163 -0.11507,-0.59839 z m 0.72703,0.64584 c 0,-0.15411 0.11906,-0.20661 0.26458,-0.11668 0.14552,0.0899 0.26458,0.0474 0.26458,-0.0946 0,-0.14199 -0.14048,-0.30498 -0.31218,-0.36222 -0.1743,-0.0581 -0.2364,-0.30156 -0.1406,-0.55121 0.18492,-0.48188 0.71737,-0.61739 0.71737,-0.18257 0,0.14552 -0.14182,0.26458 -0.31516,0.26458 -0.17333,0 -0.0956,0.16053 0.17272,0.35674 0.26832,0.1962 0.40312,0.49386 0.29953,0.66146 -0.23635,0.38243 -0.95084,0.40086 -0.95084,0.0245 z m 1.4993,0.10381 c -0.28,-0.28 -0.20453,-1.94028 0.0882,-1.94028 0.28643,0 0.28365,-0.01 0.35109,1.25679 0.0447,0.84004 -0.0834,1.03938 -0.43929,0.68349 z m 0.89598,-0.20357 c -0.37973,-0.45756 0.0954,-1.56786 0.59919,-1.40013 0.4875,0.1623 0.544,0.98634 0.0676,0.98634 -0.22896,0 -0.41628,0.1318 -0.41628,0.29289 0,0.16109 0.18478,0.22198 0.41062,0.13532 0.23546,-0.0904 0.34166,-0.046 0.24897,0.10398 -0.22662,0.36667 -0.54157,0.32569 -0.91014,-0.1184 z m -0.99453,-4.05181 c 0.06,-0.10914 0.004,-0.58539 -0.12424,-1.05834 -0.2042,-0.75259 -0.34392,-0.85989 -1.11969,-0.85989 -0.73624,0 -0.9423,-0.13502 -1.21655,-0.79712 -0.59035,-1.42523 -2.13659,-1.3744 -2.85731,0.0939 -0.27209,0.55431 -0.53441,0.7032 -1.23895,0.7032 -0.91035,0 -0.9007,-0.0117 -1.36513,1.65364 -0.11884,0.42614 0.18716,0.46303 3.84184,0.46303 2.18403,0 4.02004,-0.0893 4.08003,-0.19844 z m -4.46771,-2.28288 c -0.21414,-0.55806 0.0864,-0.95827 0.71972,-0.95827 0.39972,0 0.51094,0.14732 0.44741,0.59261 -0.0987,0.69162 -0.9408,0.95545 -1.16713,0.36566 z"
       style="fill:#2b1e17;fill-opacity:1;stroke-width:0.264583"
       id="path1" />
  </g>
</svg>
