<?xml version="1.0" encoding="UTF-8" standalone="no"?>
<!-- Created with Inkscape (http://www.inkscape.org/) -->

<svg
   width="24mm"
   height="24mm"
   viewBox="0 0 24 24"
   version="1.1"
   id="svg1"
   inkscape:version="1.4.2 (f4327f4, 2025-05-13)"
   sodipodi:docname="marking_gauge.svg"
   xmlns:inkscape="http://www.inkscape.org/namespaces/inkscape"
   xmlns:sodipodi="http://sodipodi.sourceforge.net/DTD/sodipodi-0.dtd"
   xmlns="http://www.w3.org/2000/svg"
   xmlns:svg="http://www.w3.org/2000/svg">
  <sodipodi:namedview
     id="namedview1"
     pagecolor="#ffffff"
     bordercolor="#000000"
     borderopacity="0.25"
     inkscape:showpageshadow="2"
     inkscape:pageopacity="0.0"
     inkscape:pagecheckerboard="0"
     inkscape:deskcolor="#d1d1d1"
     inkscape:document-units="mm"
     inkscape:zoom="0.68862935"
     inkscape:cx="42.83872"
     inkscape:cy="44.29088"
     inkscape:window-width="1920"
     inkscape:window-height="991"
     inkscape:window-x="-9"
     inkscape:window-y="-9"
     inkscape:window-maximized="1"
     inkscape:current-layer="layer1" />
  <defs
     id="defs1" />
  <g
     inkscape:label="Ebene 1"
     inkscape:groupmode="layer"
     id="layer1"
      transform="translate(0.136362 0) scale(1.03078) translate(-93.662498,-136.78958)">
    <path
       d="m 95.3085,158.41215 c -0.905301,-0.91342 -1.646002,-1.85375 -1.646002,-2.08962 0,-0.48179 18.686042,-19.53295 19.158602,-19.53295 0.339,0 3.86015,3.46505 3.86015,3.79864 0,0.41098 -18.907908,19.48469 -19.315313,19.48469 -0.226287,0 -1.152136,-0.74734 -2.057437,-1.66076 z m 11.23412,-8.5809 9.04366,-9.20521 -1.36168,-1.38904 -1.36168,-1.38904 -1.26477,1.24575 c -0.69562,0.68516 -1.23548,1.42929 -1.19969,1.65362 0.0394,0.24709 -0.10353,0.38042 -0.36265,0.33824 -0.23524,-0.0383 -0.58014,0.11401 -0.76643,0.33848 -0.28237,0.34024 -0.23656,0.51686 0.2754,1.06183 0.33777,0.35953 0.49276,0.6537 0.34443,0.6537 -0.14833,0 -0.48687,-0.23997 -0.7523,-0.53327 l -0.48261,-0.53328 -0.61634,0.57903 c -0.57778,0.54279 -0.58887,0.60937 -0.17738,1.06406 0.24142,0.26677 0.35908,0.56491 0.26145,0.66254 -0.0976,0.0976 -0.348,-0.0519 -0.55638,-0.33235 -0.37161,-0.50007 -0.39029,-0.49861 -0.97277,0.0761 -0.57944,0.57172 -0.58199,0.59911 -0.10507,1.1261 0.63122,0.69749 0.30766,1.03587 -0.38827,0.40606 -0.51286,-0.46413 -0.54881,-0.46405 -1.06407,0.002 l -0.53327,0.4826 0.57842,0.61569 c 0.67685,0.72048 0.4548,1.17366 -0.25869,0.52797 -0.59551,-0.53893 -0.94495,-0.55445 -1.35515,-0.0602 -0.24707,0.29769 -0.21906,0.5251 0.13032,1.05833 0.4675,0.7135 0.14772,0.95382 -0.39655,0.29801 -0.17398,-0.20963 -0.47701,-0.31948 -0.6734,-0.24412 -0.52435,0.20121 -0.71713,0.90219 -0.36485,1.32666 0.16877,0.20335 0.22062,0.45597 0.11523,0.56136 -0.1054,0.1054 -0.36205,-0.0414 -0.57035,-0.3263 -0.3739,-0.51133 -0.38607,-0.51057 -0.95667,0.06 l -0.57795,0.57795 0.62657,0.66695 c 0.78793,0.83871 0.48608,1.22727 -0.34608,0.44549 l -0.61569,-0.57841 -0.482606,0.53327 c -0.466296,0.51525 -0.466373,0.55121 -0.0021,1.06406 0.625046,0.69067 0.293949,1.02177 -0.396722,0.39672 -0.512821,-0.46409 -0.548775,-0.46408 -1.062098,5.3e-4 -0.476597,0.43132 -0.490217,0.52623 -0.132292,0.92174 0.594453,0.65686 0.482304,0.9535 -0.145637,0.38522 -0.416237,-0.37669 -0.650169,-0.42677 -0.992188,-0.21242 -0.690218,0.43258 -0.693565,1.30739 -0.0068,1.78839 0.355632,0.2491 0.451779,0.42242 0.234326,0.42242 -0.202822,0 -0.569283,-0.18146 -0.814359,-0.40325 -0.467413,-0.423 -1.315868,-0.27854 -1.315868,0.22404 0,0.2849 2.350699,2.81405 2.635888,2.83599 0.07823,0.006 4.211886,-4.13141 9.185896,-9.19427 z m 5.53765,-8.95985 c -0.22974,-0.59871 0.32505,-1.21531 1.00595,-1.11803 0.39171,0.056 0.55232,0.27127 0.55232,0.74038 0,0.51693 -0.15159,0.67903 -0.6938,0.74191 -0.4585,0.0532 -0.75169,-0.0704 -0.86447,-0.36426 z m 1.29484,-0.11494 c 0.0906,-0.14655 -0.0266,-0.33985 -0.26038,-0.42956 -0.50658,-0.19439 -0.78891,0.0198 -0.5454,0.41383 0.2197,0.35549 0.59132,0.36274 0.80578,0.0157 z"
       style="fill:#2b1e17;fill-opacity:1;stroke-width:0.264583"
       id="path1" />
  </g>
</svg>

