<?xml version="1.0" encoding="UTF-8" standalone="no"?>
<!-- Created with Inkscape (http://www.inkscape.org/) -->

<svg
   width="26.6835mm"
   height="20.564167mm"
   viewBox="0 0 26.6835 20.564167"
   version="1.1"
   id="svg1"
   inkscape:version="1.4.2 (f4327f4, 2025-05-13)"
   sodipodi:docname="masking_tape.svg"
   xmlns:inkscape="http://www.inkscape.org/namespaces/inkscape"
   xmlns:sodipodi="http://sodipodi.sourceforge.net/DTD/sodipodi-0.dtd"
   xmlns="http://www.w3.org/2000/svg"
   xmlns:svg="http://www.w3.org/2000/svg">
  <sodipodi:namedview
     id="namedview1"
     pagecolor="#ffffff"
     bordercolor="#000000"
     borderopacity="0.25"
     inkscape:showpageshadow="2"
     inkscape:pageopacity="0.0"
     inkscape:pagecheckerboard="0"
     inkscape:deskcolor="#d1d1d1"
     inkscape:document-units="mm"
     inkscape:zoom="0.68862935"
     inkscape:cx="50.09952"
     inkscape:cy="39.9344"
     inkscape:window-width="1920"
     inkscape:window-height="991"
     inkscape:window-x="-9"
     inkscape:window-y="-9"
     inkscape:window-maximized="1"
     inkscape:current-layer="layer1" />
  <defs
     id="defs1" />
  <g
     inkscape:label="Ebene 1"
     inkscape:groupmode="layer"
     id="layer1"
     transform="translate(-91.766758,-138.11457)">
    <path
       d="m 96.807163,158.19147 c -1.924796,-0.6738 -3.472963,-2.01881 -4.313824,-3.74776 -0.634397,-1.30443 -0.674537,-1.63993 -0.71296,-5.95905 -0.04062,-4.56558 -0.03883,-4.58046 0.726964,-6.07786 2.944302,-5.75713 13.031997,-5.71228 16.041897,0.0713 0.49022,0.94199 0.54441,1.45827 0.49291,4.69636 l -0.0579,3.63802 h 4.49679 c 3.94117,0 4.52761,0.0551 4.74624,0.44574 0.16311,0.29147 0.14563,0.61199 -0.0505,0.92605 -0.22854,0.36596 -0.21583,0.61497 0.0534,1.04608 0.2908,0.46564 0.29261,0.67927 0.0102,1.20695 -0.27561,0.51497 -0.27807,0.74536 -0.0125,1.17055 0.19942,0.31933 0.25019,0.75905 0.12796,1.10816 -0.11145,0.31832 -0.20641,0.87642 -0.21101,1.24022 l -0.008,0.66146 -9.92188,0.0469 c -9.253095,0.0437 -10.022006,0.0119 -11.407417,-0.47313 z m 20.328757,-0.56595 c -0.0652,-0.1819 -0.006,-0.54989 0.1324,-0.81776 0.16638,-0.32284 0.14347,-0.74659 -0.0679,-1.25701 -0.2523,-0.6091 -0.2488,-0.85449 0.0167,-1.17445 0.25602,-0.30848 0.26534,-0.55885 0.0393,-1.05496 -0.16301,-0.35777 -0.22731,-0.83049 -0.14288,-1.0505 0.13506,-0.35197 -0.90633,-0.40056 -8.67221,-0.4046 -11.151448,-0.006 -12.646111,-0.26158 -14.941358,-2.55683 l -0.964665,-0.96466 0.119332,2.35835 c 0.166233,3.28529 1.195544,5.09696 3.578953,6.29925 1.592117,0.80312 2.848514,0.90073 11.936898,0.92732 7.16306,0.021 9.05895,-0.0434 8.96544,-0.30415 z m -12.44851,-7.8862 c 4.89314,-2.49766 4.59503,-7.73588 -0.57387,-10.08403 -1.82895,-0.83086 -5.523953,-0.85709 -7.289486,-0.0517 -3.550306,1.61947 -5.064548,4.79913 -3.663637,7.69302 1.144481,2.36419 3.774061,3.58108 7.437083,3.44166 2.00861,-0.0764 2.53421,-0.20482 4.08991,-0.99891 z m -6.92387,-2.06493 c -1.648437,-1.01823 -2.196204,-2.16522 -1.721279,-3.60426 0.948063,-2.87266 5.490569,-3.62591 7.819779,-1.2967 0.72796,0.72796 0.91296,1.12151 0.91296,1.94217 0,1.15735 -0.87409,2.41163 -2.13505,3.06369 -1.09355,0.5655 -3.888419,0.50538 -4.87641,-0.1049 z m 4.03192,-0.46746 c 0.82998,-0.22245 0.51939,-0.54988 -0.72027,-0.75932 -1.136342,-0.19198 -2.650192,0.0352 -2.650192,0.39776 0,0.43623 2.208092,0.6731 3.370462,0.36156 z m -2.533019,-1.47952 c 0.726681,-0.1945 1.320629,-0.15668 2.369749,0.15085 1.47523,0.43246 1.92116,0.30936 2.21326,-0.61096 0.47144,-1.48538 -1.28369,-2.91893 -3.57564,-2.92048 -2.084779,-0.001 -3.407722,0.97452 -3.423898,2.52578 -0.0098,0.9406 0.465473,1.52598 1.042474,1.28395 0.222374,-0.0933 0.8407,-0.28639 1.374055,-0.42914 z m 8.946259,3.69603 c -0.006,-1.37673 -0.01,-1.38372 -0.46946,-0.78673 -0.25496,0.33128 -0.99646,0.95585 -1.64776,1.38793 l -1.18419,0.78559 1.65365,0.001 1.65364,0.001 z"
       style="fill:#2b1e17;fill-opacity:1;stroke-width:0.264583"
       id="path1" />
  </g>
</svg>
