<?xml version="1.0" encoding="UTF-8" standalone="no"?>
<!-- Created with Inkscape (http://www.inkscape.org/) -->

<svg
   width="25.289402mm"
   height="25.662838mm"
   viewBox="0 0 25.289402 25.662838"
   version="1.1"
   id="svg1"
   inkscape:version="1.4.2 (f4327f4, 2025-05-13)"
   sodipodi:docname="multi_table.svg"
   xmlns:inkscape="http://www.inkscape.org/namespaces/inkscape"
   xmlns:sodipodi="http://sodipodi.sourceforge.net/DTD/sodipodi-0.dtd"
   xmlns="http://www.w3.org/2000/svg"
   xmlns:svg="http://www.w3.org/2000/svg">
  <sodipodi:namedview
     id="namedview1"
     pagecolor="#ffffff"
     bordercolor="#000000"
     borderopacity="0.25"
     inkscape:showpageshadow="2"
     inkscape:pageopacity="0.0"
     inkscape:pagecheckerboard="0"
     inkscape:deskcolor="#d1d1d1"
     inkscape:document-units="mm"
     inkscape:zoom="0.68862935"
     inkscape:cx="48.64736"
     inkscape:cy="48.64736"
     inkscape:window-width="1920"
     inkscape:window-height="991"
     inkscape:window-x="-9"
     inkscape:window-y="-9"
     inkscape:window-maximized="1"
     inkscape:current-layer="layer1" />
  <defs
     id="defs1" />
  <g
     inkscape:label="Ebene 1"
     inkscape:groupmode="layer"
     id="layer1"
     transform="translate(-92.339279,-135.69083)">
    <path
       d="m 103.12135,160.83621 -0.72761,-0.54285 -0.002,-3.88054 -0.002,-3.88053 -2.445478,-1.50637 -2.445477,-1.50637 -0.132292,3.04531 c -0.129387,2.97844 -0.14827,3.05499 -0.859896,3.48588 -0.678915,0.41109 -0.776293,0.41105 -1.455208,-5.3e-4 l -0.727604,-0.44122 -0.07179,-5.02593 -0.0718,-5.02593 -0.920391,-0.56883 c -0.801772,-0.49557 -0.920525,-0.70499 -0.920525,-1.62323 v -1.05426 l 6.745454,-3.30999 6.745457,-3.30999 5.28978,2.73219 c 2.90939,1.5027 5.51409,2.91078 5.78822,3.12906 0.27414,0.21828 0.57134,0.78899 0.66044,1.26824 0.14628,0.78676 0.0725,0.92418 -0.75972,1.4152 l -0.92172,0.54383 v 5.00484 5.00484 l -0.83761,0.50938 c -0.75956,0.46191 -0.90751,0.47325 -1.5875,0.12161 -0.41244,-0.21328 -0.76603,-0.41449 -0.78576,-0.44713 -0.0197,-0.0326 -0.10903,-1.45596 -0.19844,-3.16292 l -0.16256,-3.10357 -3.23493,1.91295 -3.23494,1.91294 -0.006,4.0281 -0.006,4.0281 -0.78061,0.40367 c -0.98216,0.5079 -1.04882,0.50251 -1.93137,-0.15595 z m 0.46948,-9.73377 c -0.36139,-0.36139 -0.40334,0.0955 -0.40334,4.39381 0,3.6024 0.0824,4.82467 0.33073,4.90765 0.25412,0.0849 0.34755,-0.93284 0.40334,-4.39381 0.0605,-3.75123 0.005,-4.57174 -0.33073,-4.90765 z m 1.71333,4.30787 c 0,-2.5288 -0.0952,-4.59781 -0.21167,-4.59781 -0.71254,0 -0.84666,0.79776 -0.84666,5.0359 0,2.4205 0.0783,4.47924 0.17409,4.575 0.0957,0.0958 0.33388,0.0415 0.52917,-0.12059 0.27211,-0.22584 0.35507,-1.36891 0.35507,-4.8925 z m -10.179994,-9.33495 c -0.361397,-0.3614 -0.403339,0.0955 -0.403339,4.39381 0,3.6024 0.08237,4.82467 0.330729,4.90764 0.254122,0.0849 0.347549,-0.93284 0.403339,-4.3938 0.06047,-3.75123 0.0052,-4.57175 -0.330729,-4.90765 z m 1.448745,5.92776 c 0,-1.89863 -0.111244,-3.34481 -0.264584,-3.43958 -0.171442,-0.10596 -0.264583,1.10489 -0.264583,3.43958 0,2.3347 0.09314,3.54554 0.264583,3.43959 0.15334,-0.0948 0.264584,-1.54095 0.264584,-3.43959 z m 17.462499,-0.66146 c 0,-2.88101 -0.0644,-3.43958 -0.39687,-3.43958 -0.33133,0 -0.39688,0.53897 -0.39688,3.26319 0,1.79476 0.0794,3.34258 0.17639,3.43959 0.50033,0.50033 0.61736,-0.11826 0.61736,-3.2632 z m 1.05833,-1.31461 c 0,-4.11725 -0.0532,-4.73379 -0.39687,-4.6019 -0.33173,0.1273 -0.39688,0.9077 -0.39688,4.7542 0,3.91419 0.0593,4.6019 0.39688,4.6019 0.33805,0 0.39687,-0.70464 0.39687,-4.7542 z m -12.43541,1.07319 c 0,-0.35614 -0.64651,-0.87717 -2.18282,-1.75914 -1.200542,-0.68922 -2.688823,-1.59832 -3.307287,-2.02024 l -1.124479,-0.76712 v 0.64444 c 0,0.53931 0.506373,0.95139 3.104351,2.52625 1.707395,1.035 3.195675,1.88182 3.307295,1.88182 0.11161,0 0.20294,-0.22771 0.20294,-0.50601 z m 7.31417,-1.81884 c 2.39103,-1.41548 3.96308,-2.51154 4.01905,-2.80215 0.13532,-0.7027 -0.26535,-0.53783 -4.42247,1.81971 -3.0635,1.73733 -3.73269,2.22335 -3.73407,2.71197 -7.9e-4,0.32743 0.046,0.59532 0.10434,0.59532 0.0583,0 1.87323,-1.04618 4.03315,-2.32485 z m -6.05714,0.67198 c -0.16165,-0.48494 -10.895714,-6.76893 -11.019756,-6.45124 -0.131812,0.3376 0.05836,0.46778 5.750894,3.93692 4.497802,2.74105 5.504582,3.22148 5.268862,2.51432 z m 5.55018,-2.38203 c 2.64474,-1.49159 5.40974,-3.03936 6.14445,-3.4395 0.7427,-0.4045 1.33584,-0.915 1.33584,-1.14974 0,-0.34203 -0.26378,-0.27545 -1.38907,0.35062 -0.76398,0.42506 -3.62148,2.00623 -6.35,3.51371 -2.72851,1.50748 -4.96093,2.89748 -4.96093,3.08888 0,0.19141 0.0925,0.34801 0.20554,0.34801 0.11305,0 2.36942,-1.22039 5.01417,-2.71198 z m -1.0015,-0.91345 c 2.26389,-1.26638 5.05971,-2.80164 6.21294,-3.41168 l 2.09678,-1.10917 -1.43532,-0.72028 c -0.78943,-0.39615 -3.23838,-1.66091 -5.44212,-2.81058 l -4.0068,-2.09031 -6.270726,3.07526 c -3.448899,1.6914 -6.170216,3.16913 -6.047367,3.28386 0.550175,0.51381 10.053503,6.06989 10.394703,6.07722 0.20996,0.004 2.23402,-1.02794 4.49791,-2.29432 z m -5.13488,0.73018 c -0.28949,-0.4684 0.11112,-0.80892 0.95168,-0.80892 0.61662,0 0.77762,0.10504 0.70973,0.46302 -0.099,0.52191 -1.38691,0.79005 -1.66141,0.3459 z m 1.18125,-0.27975 c 0,-0.14552 -0.11203,-0.26458 -0.24897,-0.26458 -0.13693,0 -0.32255,0.11906 -0.41249,0.26458 -0.0899,0.14552 0.0221,0.26458 0.24897,0.26458 0.22687,0 0.41249,-0.11906 0.41249,-0.26458 z m -3.62572,-1.2008 c -0.35539,-0.26249 -0.39957,-0.42798 -0.17511,-0.65587 0.41749,-0.42386 1.52922,-0.21826 1.62813,0.30111 0.10857,0.57013 -0.84593,0.80317 -1.45302,0.35476 z m 0.97989,-0.23879 c 0,-0.27926 -0.50777,-0.39659 -0.65879,-0.15222 -0.0914,0.14789 0.0194,0.26889 0.2463,0.26889 0.22687,0 0.41249,-0.0525 0.41249,-0.11667 z m 4.6054,0.0765 c -0.16501,-0.267 0.53416,-1.02514 0.93527,-1.01415 0.44748,0.0122 0.86472,0.5283 0.72389,0.89529 -0.18695,0.4872 -1.37875,0.57257 -1.65916,0.11886 z m 1.08314,-0.22445 c 0.0899,-0.14552 -0.0291,-0.26458 -0.26458,-0.26458 -0.23546,0 -0.35453,0.11906 -0.26459,0.26458 0.0899,0.14552 0.209,0.26458 0.26459,0.26458 0.0556,0 0.17464,-0.11906 0.26458,-0.26458 z m -9.326564,-0.96898 c -0.480668,-0.19395 -0.405513,-0.55988 0.179271,-0.87284 0.595194,-0.31854 1.342084,-0.10339 1.342084,0.38661 0,0.51702 -0.806368,0.77474 -1.521355,0.48623 z m 0.920531,-0.51379 c -0.08792,-0.0879 -0.316124,-0.0973 -0.507119,-0.0209 -0.211066,0.0845 -0.148373,0.14715 0.159853,0.15985 0.278913,0.0115 0.435184,-0.0511 0.347266,-0.13897 z m 4.696993,0.15196 c -0.10293,-0.16654 -0.0684,-0.42156 0.0768,-0.56673 0.38526,-0.38526 1.51558,-0.15404 1.51558,0.31004 0,0.47998 -1.32261,0.69319 -1.59237,0.25669 z m 1.12384,-0.15196 c -0.0879,-0.0879 -0.31612,-0.0973 -0.50712,-0.0209 -0.21106,0.0845 -0.14837,0.14715 0.15985,0.15985 0.27892,0.0115 0.43519,-0.0511 0.34727,-0.13897 z m 4.65501,7.9e-4 c -0.13882,-0.36175 0.28199,-0.89123 0.70831,-0.89123 0.0728,0 0.29847,0.10522 0.50158,0.23383 0.51245,0.32454 0.16143,1.08105 -0.50158,1.08105 -0.30017,0 -0.61891,-0.19061 -0.70831,-0.42358 z m -14.212744,-1.11878 c -0.221036,-0.35764 0.521232,-0.89932 1.083868,-0.79097 0.741386,0.14278 0.570074,0.86721 -0.226885,0.95943 -0.38644,0.0447 -0.772084,-0.0311 -0.856983,-0.16846 z m 1.162725,-0.30966 c 0,-0.14552 -0.112036,-0.26458 -0.248968,-0.26458 -0.136932,0 -0.322554,0.11906 -0.412491,0.26458 -0.08994,0.14553 0.02209,0.26459 0.248968,0.26459 0.226869,0 0.412491,-0.11906 0.412491,-0.26459 z m 4.828649,0.35394 c -0.48067,-0.19395 -0.40552,-0.55988 0.17927,-0.87284 0.59519,-0.31854 1.34208,-0.10339 1.34208,0.38661 0,0.51702 -0.80637,0.77474 -1.52135,0.48623 z m 0.92053,-0.51379 c -0.0879,-0.0879 -0.31613,-0.0973 -0.50712,-0.0209 -0.21107,0.0845 -0.14838,0.14715 0.15985,0.15985 0.27891,0.0115 0.43519,-0.0511 0.34727,-0.13897 z m 4.75712,0.25921 c -0.45433,-0.45433 -0.14697,-0.89311 0.6256,-0.89311 0.63166,0 0.79345,0.10335 0.7249,0.46303 -0.0903,0.47373 -1.013,0.76758 -1.3505,0.43008 z m 0.87078,-0.36394 c 0,-0.14552 -0.11906,-0.26458 -0.26458,-0.26458 -0.14552,0 -0.26458,0.11906 -0.26458,0.26458 0,0.14552 0.11906,0.26458 0.26458,0.26458 0.14552,0 0.26458,-0.11906 0.26458,-0.26458 z m 4.62534,-0.008 c -0.10293,-0.16655 -0.0684,-0.42157 0.0768,-0.56674 0.38526,-0.38526 1.51558,-0.15404 1.51558,0.31004 0,0.47998 -1.32261,0.69319 -1.59237,0.2567 z m 1.1955,-0.1088 c 0,-0.27926 -0.50777,-0.39658 -0.65879,-0.15222 -0.0914,0.1479 0.0194,0.2689 0.2463,0.2689 0.22687,0 0.41249,-0.0525 0.41249,-0.11668 z m -15.185644,-0.89651 c -0.221036,-0.35764 0.521232,-0.89933 1.083868,-0.79097 0.741386,0.14278 0.570076,0.8672 -0.226885,0.95943 -0.38644,0.0447 -0.772084,-0.0311 -0.856983,-0.16846 z m 1.091067,-0.205 c -0.08792,-0.0879 -0.316124,-0.0973 -0.507118,-0.0209 -0.211067,0.0845 -0.148374,0.14715 0.159853,0.15985 0.278913,0.0115 0.435184,-0.051 0.347265,-0.13897 z m 4.745967,0.24805 c -0.64128,-0.64127 0.58083,-1.46122 1.29478,-0.8687 0.29412,0.24411 0.31512,0.40868 0.0872,0.68332 -0.3162,0.381 -1.08344,0.48392 -1.38197,0.18538 z m 1.07487,-0.51263 c -0.0879,-0.0879 -0.31613,-0.0973 -0.50712,-0.0209 -0.21107,0.0845 -0.14838,0.14715 0.15985,0.15985 0.27891,0.0115 0.43519,-0.0511 0.34727,-0.13897 z m 4.4324,0.15196 c -0.10293,-0.16654 -0.0684,-0.42156 0.0768,-0.56673 0.38527,-0.38526 1.51559,-0.15404 1.51559,0.31004 0,0.47998 -1.32261,0.69319 -1.59238,0.25669 z m 1.1955,-0.25669 c 0,-0.14552 -0.17859,-0.26458 -0.39687,-0.26458 -0.21828,0 -0.39688,0.11906 -0.39688,0.26458 0,0.14552 0.1786,0.26458 0.39688,0.26458 0.21828,0 0.39687,-0.11906 0.39687,-0.26458 z m -9.41099,-1.08791 c -0.18676,-0.30219 0.31476,-0.75291 0.84579,-0.76012 0.39587,-0.005 0.93464,0.65915 0.7136,0.88019 -0.28221,0.28221 -1.36216,0.19905 -1.55939,-0.12007 z m 1.13725,-0.13028 c -0.0879,-0.0879 -0.31612,-0.0973 -0.50712,-0.0209 -0.21106,0.0845 -0.14837,0.14715 0.15986,0.15985 0.27891,0.0115 0.43518,-0.0511 0.34726,-0.13897 z m 4.56958,0.15078 c -0.34607,-0.23156 -0.33602,-0.31215 0.0784,-0.62942 0.54341,-0.41599 1.50906,-0.25974 1.50906,0.24417 0,0.58613 -0.94468,0.81538 -1.5875,0.38525 z m 0.98667,-0.41536 c -0.0879,-0.0879 -0.31612,-0.0973 -0.50712,-0.0209 -0.21106,0.0845 -0.14837,0.14715 0.15986,0.15985 0.27891,0.0115 0.43518,-0.051 0.34726,-0.13897 z m -3.44496,-0.79912 c -0.45432,-0.45433 -0.14697,-0.89311 0.6256,-0.89311 0.63166,0 0.79346,0.10334 0.72491,0.46302 -0.0903,0.47373 -1.01301,0.76758 -1.35051,0.43009 z m 1.06371,-0.5238 c -0.0879,-0.0879 -0.31612,-0.0973 -0.50712,-0.0209 -0.21106,0.0845 -0.14837,0.14715 0.15986,0.15985 0.27891,0.0115 0.43518,-0.0511 0.34726,-0.13897 z"
       style="fill:#2b1e17;fill-opacity:1;stroke-width:0.264583"
       id="path1" />
  </g>
</svg>
