<?xml version="1.0" encoding="UTF-8" standalone="no"?>
<!-- Created with Inkscape (http://www.inkscape.org/) -->

<svg
   width="25.608435mm"
   height="17.604782mm"
   viewBox="0 0 25.608435 17.604782"
   version="1.1"
   id="svg1"
   inkscape:version="1.4.2 (f4327f4, 2025-05-13)"
   sodipodi:docname="orbital_sander.svg"
   xmlns:inkscape="http://www.inkscape.org/namespaces/inkscape"
   xmlns:sodipodi="http://sodipodi.sourceforge.net/DTD/sodipodi-0.dtd"
   xmlns="http://www.w3.org/2000/svg"
   xmlns:svg="http://www.w3.org/2000/svg">
  <sodipodi:namedview
     id="namedview1"
     pagecolor="#ffffff"
     bordercolor="#000000"
     borderopacity="0.25"
     inkscape:showpageshadow="2"
     inkscape:pageopacity="0.0"
     inkscape:pagecheckerboard="0"
     inkscape:deskcolor="#d1d1d1"
     inkscape:document-units="mm"
     inkscape:zoom="0.68862935"
     inkscape:cx="48.64736"
     inkscape:cy="32.6736"
     inkscape:window-width="1920"
     inkscape:window-height="991"
     inkscape:window-x="-9"
     inkscape:window-y="-9"
     inkscape:window-maximized="1"
     inkscape:current-layer="layer1" />
  <defs
     id="defs1" />
  <g
     inkscape:label="Ebene 1"
     inkscape:groupmode="layer"
     id="layer1"
     transform="translate(-92.385434,-139.71116)">
    <path
       d="m 96.404609,157.15615 c -2.266024,-0.40889 -3.922652,-1.12899 -4.01165,-1.74378 -0.0434,-0.29983 0.105426,-0.69812 0.330729,-0.88511 0.286843,-0.23805 0.411385,-0.82598 0.415454,-1.96122 0.0066,-1.83415 0.60206,-3.38729 1.679078,-4.37935 0.56856,-0.52371 0.696362,-0.8774 0.696362,-1.92715 0,-1.18681 -0.07063,-1.32739 -0.918072,-1.8274 -1.029179,-0.60723 -1.412759,-1.75315 -0.97354,-2.90838 0.704347,-1.85257 5.203695,-2.29941 12.83248,-1.27441 3.91933,0.5266 4.61077,0.69073 5.14021,1.22017 0.50075,0.50076 0.8944,0.61173 2.16997,0.61173 0.85704,0 1.88017,-0.12239 2.27363,-0.27199 0.89333,-0.33964 1.14948,-0.1221 0.55556,0.47181 -0.32329,0.3233 -1.02046,0.48053 -2.45094,0.55276 -1.8037,0.0911 -2.02733,0.16283 -2.28754,0.73393 -0.30697,0.67373 -1.2022,1.00271 -3.50947,1.28967 -0.7276,0.0905 -1.88846,0.28865 -2.57968,0.44035 -1.19882,0.26311 -1.25677,0.31732 -1.25677,1.17548 0,1.30467 0.8392,2.06279 2.06348,1.86411 0.55245,-0.0897 1.17258,-0.42928 1.49157,-0.81691 0.44627,-0.5423 1.11762,-0.78548 3.67601,-1.33155 3.70908,-0.79167 4.71688,-0.83098 5.25817,-0.20506 1.02975,1.19075 1.34291,4.10964 0.54149,5.04701 -0.6652,0.77805 -7.14512,2.06488 -8.3256,1.65337 -1.3743,-0.47909 -2.02904,-0.36458 -2.2179,0.38789 -0.11122,0.44314 -0.0228,0.83333 0.25954,1.14531 1.53785,1.6993 -0.93824,2.87991 -6.45093,3.07581 -1.673491,0.0595 -3.654228,-0.002 -4.401641,-0.13709 z m 9.291521,-1.46402 c 1.70915,-0.61362 1.19727,-0.77786 -0.80163,-0.25721 -2.06416,0.53765 -7.917894,0.54225 -9.909084,0.008 -1.764478,-0.47361 -1.770433,-0.47398 -1.382152,-0.0857 1.062442,1.06245 9.421746,1.2941 12.092866,0.33512 z m -1.1718,-0.7998 c 1.01099,-0.22994 1.83817,-0.52465 1.83817,-0.65491 0,-0.13408 -0.29341,-0.12527 -0.67631,0.0203 -1.45723,0.55404 -5.42094,0.80491 -8.219576,0.52023 -1.512911,-0.15389 -2.957988,-0.3527 -3.211284,-0.44178 -0.317895,-0.11181 -0.378587,-0.0752 -0.195956,0.11817 0.814065,0.86194 7.390756,1.1372 10.464956,0.43798 z m 0.11838,-1.25642 c 1.1696,-0.30182 1.3333,-0.431 1.41255,-1.11459 0.14572,-1.25689 -0.4631,-2.83821 -1.44684,-3.75799 -0.86552,-0.80924 -0.91369,-0.94439 -0.83885,-2.35386 0.053,-0.99851 0.21125,-1.56377 0.47626,-1.70134 0.21828,-0.11331 1.82563,-0.42329 3.57188,-0.68884 3.13044,-0.47606 3.17617,-0.49304 3.25871,-1.21031 0.10685,-0.92867 -0.2041,-1.04631 -4.38755,-1.65979 l -3.2455,-0.47593 -0.92683,1.08279 c -1.01692,1.18805 -3.491784,2.55861 -5.115516,2.83294 l -1.036907,0.17518 0.0149,1.58014 c 0.01386,1.47209 -0.05163,1.64825 -0.957755,2.57621 -0.981223,1.00486 -1.494165,2.2161 -1.494165,3.52826 0,0.39256 0.117234,0.78619 0.260519,0.87475 1.071586,0.66228 8.266184,0.87724 10.455104,0.31238 z m -8.268232,-0.62111 c -2.040448,-0.28276 -0.539858,-0.48251 3.624792,-0.48251 2.98964,0 4.39656,0.0882 4.22034,0.26458 -0.26862,0.26886 -6.273838,0.43568 -7.845132,0.21793 z m 0.396875,-1.07213 c -0.545703,-0.0571 -0.992187,-0.19184 -0.992187,-0.29947 0,-0.10763 1.90478,-0.18973 4.232844,-0.18246 2.32807,0.007 4.23307,0.0863 4.23334,0.17569 0.001,0.41671 -4.611213,0.6057 -7.473997,0.30624 z m 0.87522,-3.88983 c -0.172727,-0.20813 -0.276603,-0.83321 -0.230835,-1.38906 l 0.08322,-1.01066 h 2.513542 2.51354 l 0.08,1.38907 0.08,1.38906 h -2.36269 c -1.726136,0 -2.447284,-0.10195 -2.676726,-0.37841 z m 4.482597,-1.0768 V 146.05 h -2.11667 -2.116668 v 0.74965 c 0,0.41231 0.07937,0.82903 0.17639,0.92604 0.09701,0.097 1.049512,0.17639 2.116668,0.17639 h 1.94028 z m 2.11666,-4.36562 c 0,-0.43657 0.11906,-0.79375 0.26459,-0.79375 0.14552,0 0.26458,0.35718 0.26458,0.79375 0,0.43656 -0.11906,0.79375 -0.26458,0.79375 -0.14553,0 -0.26459,-0.35719 -0.26459,-0.79375 z m 1.05834,0 c 0,-0.43657 0.11906,-0.79375 0.26458,-0.79375 0.14552,0 0.26458,0.35718 0.26458,0.79375 0,0.43656 -0.11906,0.79375 -0.26458,0.79375 -0.14552,0 -0.26458,-0.35719 -0.26458,-0.79375 z m 1.11971,0 c 0,-0.50933 0.0545,-0.71769 0.121,-0.46302 0.0665,0.25466 0.0665,0.67138 0,0.92604 -0.0666,0.25466 -0.121,0.0463 -0.121,-0.46302 z m 7.47924,8.69996 c 1.72961,-0.33435 2.76677,-0.66946 2.99506,-0.9677 0.57161,-0.74676 -0.0621,-3.61918 -0.86658,-3.92789 -0.31722,-0.12173 -6.99675,1.10799 -7.21752,1.32877 -0.0924,0.0924 0.72626,3.91782 0.89785,4.19546 0.0813,0.1316 0.46231,0.15907 0.84662,0.061 0.38431,-0.098 1.88937,-0.40838 3.34457,-0.68969 z m -6.79078,-0.9624 c -0.15677,-0.61764 -0.43821,-1.12298 -0.62541,-1.12298 -0.26634,0 -0.24824,0.2881 0.0833,1.32474 0.50421,1.57671 0.95133,1.4103 0.54214,-0.20176 z m 1.61108,0.79525 c -0.0448,-1.01893 -0.64452,-2.43431 -0.94983,-2.24148 -0.42515,0.26851 0.13136,2.7045 0.61786,2.7045 0.19376,0 0.34315,-0.20836 0.33197,-0.46302 z m -9.956625,-7.74118 c 1.411465,-0.5281 3.626955,-2.1726 3.626955,-2.6922 0,-0.44367 -6.066929,-0.1479 -6.964779,0.33955 -0.662228,0.35952 -0.699789,0.44482 -0.330729,0.75111 0.228986,0.19004 0.41634,0.6683 0.41634,1.06279 0,0.39449 0.07937,0.79663 0.17639,0.89364 0.330203,0.33021 1.652516,0.17764 3.075823,-0.35489 z m -3.520408,0.0683 c -0.0098,-0.5406 -0.349707,-1.38906 -0.556413,-1.38906 -0.271534,0 -0.318267,1.15018 -0.05734,1.41111 0.237582,0.23758 0.618225,0.22391 0.613748,-0.022 z"
       style="fill:#2b1e17;fill-opacity:1;stroke-width:0.264583"
       id="path1" />
  </g>
</svg>
