<?xml version="1.0" encoding="UTF-8" standalone="no"?>
<!-- Created with Inkscape (http://www.inkscape.org/) -->

<svg
   width="19.315802mm"
   height="26.223133mm"
   viewBox="0 0 19.315802 26.223133"
   version="1.1"
   id="svg1"
   inkscape:version="1.4.2 (f4327f4, 2025-05-13)"
   sodipodi:docname="paint_bucket.svg"
   xmlns:inkscape="http://www.inkscape.org/namespaces/inkscape"
   xmlns:sodipodi="http://sodipodi.sourceforge.net/DTD/sodipodi-0.dtd"
   xmlns="http://www.w3.org/2000/svg"
   xmlns:svg="http://www.w3.org/2000/svg">
  <sodipodi:namedview
     id="namedview1"
     pagecolor="#ffffff"
     bordercolor="#000000"
     borderopacity="0.25"
     inkscape:showpageshadow="2"
     inkscape:pageopacity="0.0"
     inkscape:pagecheckerboard="0"
     inkscape:deskcolor="#d1d1d1"
     inkscape:document-units="mm"
     inkscape:zoom="0.68862935"
     inkscape:cx="35.57792"
     inkscape:cy="50.09952"
     inkscape:window-width="1920"
     inkscape:window-height="991"
     inkscape:window-x="-9"
     inkscape:window-y="-9"
     inkscape:window-maximized="1"
     inkscape:current-layer="layer1" />
  <defs
     id="defs1" />
  <g
     inkscape:label="Ebene 1"
     inkscape:groupmode="layer"
     id="layer1"
     transform="translate(-95.514582,-135.35022)">
    <path
       d="m 101.73229,161.49718 c -2.387123,-0.60743 -3.383817,-0.99365 -4.083446,-1.58235 l -0.811345,-0.68271 v -6.20073 -6.20074 l -0.661458,-0.25149 c -0.611736,-0.23258 -0.661459,-0.38051 -0.661459,-1.9679 0,-2.60895 0.790742,-4.42511 2.803864,-6.43986 2.271154,-2.273 3.559214,-2.82451 6.588844,-2.82116 2.10749,0.002 2.58272,0.097 4.13369,0.8237 3.54869,1.66267 5.42544,4.33439 5.71269,8.13256 0.14559,1.92494 0.12278,2.04526 -0.41439,2.18573 -0.56064,0.14661 -0.56845,0.23179 -0.56845,6.19903 v 6.05039 l -0.7276,0.80123 c -1.20769,1.3299 -3.34549,1.91466 -7.34219,2.00834 -1.89177,0.0443 -3.67771,0.02 -3.96875,-0.054 z m 8.23184,-1.28364 c 2.02161,-0.60393 2.74837,-1.27834 2.74837,-2.55039 0,-0.95421 -0.046,-1.02384 -0.51126,-0.77482 -1.14814,0.61447 -5.00591,1.32887 -7.18548,1.33065 -2.01599,0.002 -3.59577,-0.27979 -6.789199,-1.20947 -0.535633,-0.15594 -0.595312,-0.082 -0.595312,0.73747 0,1.43741 1.3139,2.34702 4.129701,2.85898 1.7871,0.32492 6.5674,0.0962 8.20318,-0.39242 z m 0.86546,-3.44145 2.21814,-0.71326 -0.16762,-1.60365 c -0.0922,-0.882 -0.16761,-2.90459 -0.16761,-4.49465 0,-2.61041 -0.0449,-2.88247 -0.46302,-2.80316 -0.3425,0.065 -0.49746,0.4246 -0.59531,1.38161 -0.20083,1.96402 -1.59486,2.45949 -1.98045,0.7039 -0.15024,-0.68403 -0.30205,-0.81163 -0.96566,-0.81163 -0.69517,0 -0.85177,0.15493 -1.33717,1.32291 -0.6628,1.59488 -1.33324,1.73718 -2.35106,0.499 -1.05115,-1.27871 -1.687,-0.91174 -2.36502,1.36491 -0.59971,2.01371 -1.19171,2.59798 -2.12581,2.09807 -0.705411,-0.37753 -0.990949,-1.17392 -1.206026,-3.36371 -0.204571,-2.08285 -0.41718,-2.59667 -1.154179,-2.7894 -0.524521,-0.13717 -0.537546,-0.0333 -0.537546,4.28599 v 4.42656 l 1.918229,0.57177 c 2.802072,0.83522 2.715412,0.82474 6.019272,0.72753 2.40639,-0.0708 3.50658,-0.23869 5.26084,-0.80279 z m -9.01074,-4.32496 c 0.14702,-0.38972 0.34534,-1.06578 0.44072,-1.50234 0.22684,-1.03833 1.12892,-1.98438 1.89217,-1.98438 0.36811,0 0.83862,0.31272 1.19426,0.79375 0.32277,0.43657 0.72687,0.79375 0.89802,0.79375 0.17114,0 0.51587,-0.536 0.76607,-1.19112 0.68442,-1.79215 2.34303,-2.04142 3.04048,-0.45695 0.50464,1.14642 0.9026,0.95274 1.11662,-0.54344 0.21456,-1.49995 0.37553,-1.77724 1.03176,-1.77724 0.34585,0 0.51355,-0.18203 0.51355,-0.55747 0,-0.42622 -0.10902,-0.51317 -0.46302,-0.36932 -1.43753,0.58416 -2.4214,0.72207 -6.01927,0.84369 -3.75952,0.12709 -6.357046,-0.14378 -8.13594,-0.84843 -0.376338,-0.14908 -0.46195,-0.0419 -0.457296,0.5725 0.0045,0.58974 0.192689,0.84316 0.856203,1.15278 0.9061,0.42284 0.993669,0.63854 1.487254,3.6634 0.399409,2.44773 1.212029,3.07134 1.838419,1.41082 z m -5.119191,-8.0728 c 0.152577,-0.90983 0.311362,-1.07842 1.543021,-1.63823 2.04187,-0.92807 4.5695,-1.27152 8.22622,-1.11777 4.95506,0.20834 7.03735,1.14184 7.03735,3.15487 0,0.58093 0.12844,1.01221 0.30144,1.01221 0.40503,0 0.12209,-2.34291 -0.49434,-4.09339 -0.56573,-1.60651 -2.58335,-3.74664 -4.32231,-4.58475 -1.75557,-0.84613 -3.83183,-1.1706 -5.4847,-0.85714 -1.7793,0.33743 -2.55836,0.75476 -4.252658,2.27808 -1.821101,1.63733 -2.722586,3.42955 -2.849256,5.66455 -0.10278,1.81345 0.0099,1.88278 0.295233,0.18157 z m 13.697731,0.87331 c 0.69123,-0.17534 1.25678,-0.40375 1.25678,-0.50758 0,-0.81824 -7.76211,-1.40544 -10.60456,-0.80223 -0.85971,0.18245 -1.766827,0.48068 -2.015821,0.66275 -0.392226,0.28681 -0.259858,0.36926 0.990601,0.61707 0.79382,0.15731 1.86004,0.33846 2.36936,0.40256 1.58463,0.19941 6.68469,-0.038 8.00364,-0.37257 z m -10.914058,-1.3545 c 2.727648,-1.06671 9.744648,-0.94532 11.973228,0.20712 0.87397,0.45194 1.28928,0.28069 0.71102,-0.29319 -1.19429,-1.18527 -8.15254,-1.67962 -11.7102,-0.83195 -2.07422,0.49421 -2.907189,0.87758 -2.685635,1.23607 0.193686,0.31339 0.0094,0.34764 1.711587,-0.31805 z"
       style="fill:#2b1e17;fill-opacity:1;stroke-width:0.264583"
       id="path1" />
  </g>
</svg>
