<?xml version="1.0" encoding="UTF-8" standalone="no"?>
<!-- Created with Inkscape (http://www.inkscape.org/) -->

<svg
   width="23.29563mm"
   height="24.972172mm"
   viewBox="0 0 23.29563 24.972172"
   version="1.1"
   id="svg1"
   inkscape:version="1.4.2 (f4327f4, 2025-05-13)"
   sodipodi:docname="paint_roller.svg"
   xmlns:inkscape="http://www.inkscape.org/namespaces/inkscape"
   xmlns:sodipodi="http://sodipodi.sourceforge.net/DTD/sodipodi-0.dtd"
   xmlns="http://www.w3.org/2000/svg"
   xmlns:svg="http://www.w3.org/2000/svg">
  <sodipodi:namedview
     id="namedview1"
     pagecolor="#ffffff"
     bordercolor="#000000"
     borderopacity="0.25"
     inkscape:showpageshadow="2"
     inkscape:pageopacity="0.0"
     inkscape:pagecheckerboard="0"
     inkscape:deskcolor="#d1d1d1"
     inkscape:document-units="mm"
     inkscape:zoom="0.68862935"
     inkscape:cx="44.29088"
     inkscape:cy="47.1952"
     inkscape:window-width="1920"
     inkscape:window-height="991"
     inkscape:window-x="-9"
     inkscape:window-y="-9"
     inkscape:window-maximized="1"
     inkscape:current-layer="layer1" />
  <defs
     id="defs1" />
  <g
     inkscape:label="Ebene 1"
     inkscape:groupmode="layer"
     id="layer1"
     transform="translate(-93.328688,-135.89354)">
    <path
       d="m 94.532573,160.34659 c -0.964922,-0.58835 -1.443947,-1.87768 -1.084683,-2.91951 0.276557,-0.80199 2.042316,-2.68782 4.786379,-5.11187 1.396938,-1.23402 2.042811,-1.99109 2.042811,-2.39448 0,-0.32444 0.14288,-0.73277 0.3175,-0.9074 0.38939,-0.38939 1.4418,-0.4171 1.67237,-0.044 0.1007,0.16295 0.53844,-0.0509 1.08315,-0.52916 0.50278,-0.44145 1.19123,-0.80263 1.5299,-0.80263 0.33866,0 2.18333,0.72618 4.09925,1.61373 2.83625,1.3139 3.55587,1.55368 3.87296,1.29052 0.52424,-0.43507 0.4915,-0.78691 -0.0736,-0.79065 -0.42199,-0.003 -6.35391,-4.81361 -9.82254,-7.96612 -1.30216,-1.18348 -1.40789,-1.36484 -1.25437,-2.15172 0.41982,-2.15178 2.90231,-4.29326 4.18542,-3.61048 0.74486,0.39637 7.78005,6.25134 9.5677,7.96264 1.20577,1.15428 1.28313,1.30492 1.08696,2.11667 -0.11615,0.48067 -0.18898,1.42643 -0.16183,2.10168 0.0445,1.10675 -0.0696,1.36711 -1.15783,2.642 -2.12986,2.49519 -2.31311,2.50428 -6.86561,0.34032 -1.65685,-0.78756 -3.13459,-1.43193 -3.28386,-1.43193 -0.50371,0 -0.7853,0.86006 -0.4922,1.50334 0.22171,0.4866 0.18066,0.71926 -0.20139,1.14142 -0.26393,0.29163 -0.63328,0.53024 -0.82079,0.53024 -0.37384,0 -1.12376,0.87767 -3.53514,4.13738 -1.859638,2.51385 -3.232883,3.80052 -4.054772,3.79913 -0.322358,-5.2e-4 -0.96848,-0.23413 -1.435825,-0.51908 z m 1.987337,-0.64408 c 0.713832,-0.37009 2.686617,-2.6737 4.21449,-4.92126 0.44516,-0.65485 1.12139,-1.48086 1.50272,-1.8356 l 0.69333,-0.64497 -0.82683,-0.85308 -0.82684,-0.85308 -1.613872,1.49805 c -4.618469,4.28701 -5.471321,5.22535 -5.467189,6.01517 0.0047,0.90016 0.191937,1.23502 0.92199,1.64901 0.665383,0.37732 0.562073,0.38131 1.402201,-0.0542 z m -1.118719,-1.1037 c -0.570792,-0.57079 -0.521006,-1.06802 0.154299,-1.54102 0.410325,-0.2874 0.706894,-0.32607 1.058333,-0.13798 0.643768,0.34453 0.629215,1.47155 -0.02351,1.82088 -0.661871,0.35422 -0.697237,0.35 -1.18912,-0.14188 z m 1.171726,-0.79425 c 0,-0.24639 -0.180015,-0.38137 -0.441096,-0.33073 -0.663778,0.12873 -0.754921,0.747 -0.110119,0.747 0.324997,0 0.551215,-0.17084 0.551215,-0.41627 z m 7.290173,-5.95659 c 0.20754,-0.33581 -1.33894,-2.01676 -2.06845,-2.2483 -0.93548,-0.29691 -0.81245,0.15173 0.35716,1.30246 1.29514,1.27422 1.45405,1.36205 1.71129,0.94584 z m 9.51087,-0.18713 c 1.14341,-0.98739 2.24896,-2.48321 2.24896,-3.04286 0,-0.61442 -0.92811,-1.40525 -1.17684,-1.00279 -0.0787,0.12729 0.0349,0.29971 0.25231,0.38315 0.69149,0.26535 0.42161,1.05682 -0.80699,2.36667 -1.39235,1.48443 -1.05036,1.51678 -5.43433,-0.51403 -1.68565,-0.78086 -3.24717,-1.41973 -3.47005,-1.41973 -0.57471,0 -1.83681,1.04852 -1.64184,1.364 0.0951,0.15383 0.40572,0.035 0.74718,-0.28577 0.32145,-0.30199 0.71255,-0.54907 0.86912,-0.54907 0.15657,0 1.81577,0.70958 3.68711,1.57684 1.87135,0.86726 3.58105,1.57767 3.79933,1.5787 0.21828,0.001 0.635,-0.20378 0.92604,-0.45511 z m 0.4478,-3.64759 c -0.0927,-0.92861 0.49451,-1.58599 1.18132,-1.32243 0.45578,0.17489 0.8731,-0.23139 0.88037,-0.85709 0.006,-0.49816 -1.02678,-0.13827 -1.87282,0.65274 -0.37743,0.35289 -0.81495,1.06099 -0.97227,1.57357 -0.26927,0.87736 -0.25232,0.92716 0.28937,0.85002 0.47035,-0.067 0.56054,-0.2307 0.49403,-0.89681 z m -1.26641,-0.23861 c 0.22928,-0.91353 1.69575,-2.51839 2.30123,-2.51839 0.27596,0 0.50175,-0.0941 0.50175,-0.20903 0,-0.25427 -8.85164,-7.76641 -9.53504,-8.09211 -0.86359,-0.41159 -1.75879,0.0487 -2.61815,1.34605 -0.45535,0.68746 -0.79382,1.42697 -0.75215,1.64335 0.0867,0.45032 9.17625,8.43786 9.63551,8.46735 0.16613,0.0107 0.37621,-0.27609 0.46685,-0.63722 z"
       style="fill:#2b1e17;fill-opacity:1;stroke-width:0.264583"
       id="path1" />
  </g>
</svg>
