<?xml version="1.0" encoding="UTF-8" standalone="no"?>
<!-- Created with Inkscape (http://www.inkscape.org/) -->

<svg
   width="23.69031mm"
   height="24.579123mm"
   viewBox="0 0 23.69031 24.579123"
   version="1.1"
   id="svg1"
   inkscape:version="1.4.2 (f4327f4, 2025-05-13)"
   sodipodi:docname="pencil.svg"
   xmlns:inkscape="http://www.inkscape.org/namespaces/inkscape"
   xmlns:sodipodi="http://sodipodi.sourceforge.net/DTD/sodipodi-0.dtd"
   xmlns="http://www.w3.org/2000/svg"
   xmlns:svg="http://www.w3.org/2000/svg">
  <sodipodi:namedview
     id="namedview1"
     pagecolor="#ffffff"
     bordercolor="#000000"
     borderopacity="0.25"
     inkscape:showpageshadow="2"
     inkscape:pageopacity="0.0"
     inkscape:pagecheckerboard="0"
     inkscape:deskcolor="#d1d1d1"
     inkscape:document-units="mm"
     inkscape:zoom="0.68862935"
     inkscape:cx="45.74304"
     inkscape:cy="45.74304"
     inkscape:window-width="1920"
     inkscape:window-height="991"
     inkscape:window-x="-9"
     inkscape:window-y="-9"
     inkscape:window-maximized="1"
     inkscape:current-layer="layer1" />
  <defs
     id="defs1" />
  <g
     inkscape:label="Ebene 1"
     inkscape:groupmode="layer"
     id="layer1"
     transform="translate(-93.133066,-136.2819)">
    <path
       d="m 93.133066,160.13906 c -1.46e-4,-0.40018 0.37679,-2.0894 0.837631,-3.75381 l 0.837896,-3.0262 7.894657,-8.24274 c 4.34206,-4.53351 8.19745,-8.3807 8.56753,-8.54932 1.05457,-0.48049 1.80849,-0.36672 2.92338,0.44117 1.65119,1.19653 2.6175,2.64286 2.61851,3.91925 0,1.26465 0.71167,0.43347 -9.4698,11.07571 l -6.58132,6.87917 -2.821923,0.98629 c -1.552057,0.54246 -3.268406,0.98894 -3.814109,0.99218 -0.907365,0.005 -0.992212,-0.0563 -0.992452,-0.7217 z m 2.603135,-0.46416 c 0.200691,-0.20068 -0.812795,-1.21291 -1.113925,-1.11254 -0.148209,0.0494 -0.358585,0.42304 -0.467503,0.8303 -0.191432,0.71579 -0.170514,0.73497 0.62774,0.57531 0.454175,-0.0908 0.883335,-0.22271 0.953688,-0.29307 z m 2.582793,-0.8357 1.395714,-0.43995 -0.501949,-0.98391 c -0.302659,-0.59325 -0.758288,-1.04824 -1.147582,-1.14594 -0.404829,-0.10161 -0.74956,-0.46016 -0.924269,-0.96133 -0.298188,-0.85539 -1.372775,-1.47571 -1.658924,-0.95764 -0.09069,0.16419 -0.319112,0.91406 -0.507606,1.66638 -0.337071,1.34533 -0.329999,1.38314 0.429471,2.296 0.899883,1.08163 1.061273,1.11077 2.915145,0.52639 z m 8.159006,-7.23295 c 5.26132,-5.53351 5.63102,-5.98576 5.24493,-6.41615 -0.22845,-0.25466 -0.49047,-0.46302 -0.58227,-0.46302 -0.0918,0 -2.69644,2.61357 -5.7881,5.80793 -5.06185,5.23001 -5.60403,5.87636 -5.448627,6.49553 0.09958,0.39674 0.329337,0.65402 0.543167,0.60822 0.20383,-0.0437 2.91773,-2.75829 6.0309,-6.03251 z m -1.36075,-1.43354 c 3.01322,-3.11678 5.47858,-5.77341 5.47858,-5.90362 0,-0.13022 -0.34935,-0.57145 -0.77632,-0.98052 l -0.77632,-0.74376 -3.78639,3.93541 c -7.64187,7.94261 -7.575555,7.86697 -7.375575,8.41358 0.172966,0.47276 0.828757,0.88323 1.481336,0.92718 0.15186,0.0102 2.741469,-2.53149 5.754689,-5.64827 z m -3.30612,-0.74927 c 2.27956,-2.36472 4.77611,-4.94685 5.5479,-5.73808 1.38337,-1.41821 1.39606,-1.44578 0.89566,-1.94618 -0.5004,-0.5004 -0.56194,-0.4519 -4.34347,3.42297 -7.713549,7.90393 -7.901332,8.11144 -7.544904,8.33762 0.826477,0.52444 1.484905,0.0315 5.444814,-4.07633 z m 11.00463,-4.6494 c 0.074,-0.11968 -0.85676,-1.20372 -2.0683,-2.40897 -1.21154,-1.20524 -2.27717,-2.07101 -2.36808,-1.92392 -0.15474,0.25037 3.72138,4.52491 4.11906,4.54245 0.10056,0.004 0.24335,-0.0899 0.31732,-0.20956 z m 0.69049,-0.734 c 0,-0.23493 -3.10533,-3.57996 -3.72888,-4.01671 -1.23974,-0.86835 -0.672,0.0296 1.26218,1.99619 1.93855,1.97107 2.4667,2.40368 2.4667,2.02052 z M 114.3,143.19952 c 0,-0.40344 -4.18397,-4.35501 -4.44218,-4.19543 -0.14511,0.0897 0.64619,1.10103 1.75844,2.24744 1.83486,1.89121 2.68374,2.50736 2.68374,1.94799 z m 1.73648,-1.96462 c 0.22088,-0.69595 -0.93662,-2.39383 -2.31045,-3.38902 -1.31216,-0.95053 -1.45978,-0.96129 -2.43885,-0.17786 l -0.76387,0.61124 2.218,2.1477 c 2.04954,1.98459 2.25272,2.11627 2.67533,1.73381 0.25154,-0.22764 0.53047,-0.64428 0.61984,-0.92587 z"
       style="fill:#2b1e17;fill-opacity:1;stroke-width:0.264583"
       id="path1" />
  </g>
</svg>
