<?xml version="1.0" encoding="UTF-8" standalone="no"?>
<!-- Created with Inkscape (http://www.inkscape.org/) -->

<svg
   width="24mm"
   height="24mm"
   viewBox="0 0 24 24"
   version="1.1"
   id="svg1"
   inkscape:version="1.4.2 (f4327f4, 2025-05-13)"
   sodipodi:docname="pincers.svg"
   xmlns:inkscape="http://www.inkscape.org/namespaces/inkscape"
   xmlns:sodipodi="http://sodipodi.sourceforge.net/DTD/sodipodi-0.dtd"
   xmlns="http://www.w3.org/2000/svg"
   xmlns:svg="http://www.w3.org/2000/svg">
  <sodipodi:namedview
     id="namedview1"
     pagecolor="#ffffff"
     bordercolor="#000000"
     borderopacity="0.25"
     inkscape:showpageshadow="2"
     inkscape:pageopacity="0.0"
     inkscape:pagecheckerboard="0"
     inkscape:deskcolor="#d1d1d1"
     inkscape:document-units="mm"
     inkscape:zoom="0.68862935"
     inkscape:cx="42.83872"
     inkscape:cy="44.29088"
     inkscape:window-width="1920"
     inkscape:window-height="991"
     inkscape:window-x="-9"
     inkscape:window-y="-9"
     inkscape:window-maximized="1"
     inkscape:current-layer="layer1" />
  <defs
     id="defs1" />
  <g
     inkscape:label="Ebene 1"
     inkscape:groupmode="layer"
     id="layer1"
      transform="translate(0.429335 0) scale(1.033764) translate(-93.923108,-136.82852)">
    <path
       d="m 99.105358,159.65714 c -0.553315,-0.55331 -0.527257,-1.59109 0.05434,-2.16391 0.258561,-0.25467 1.102662,-0.93928 1.875792,-1.52136 0.77313,-0.58208 1.98884,-1.83224 2.70158,-2.77812 1.31829,-1.74954 3.58029,-6.41895 3.17758,-6.55942 -0.40408,-0.14093 -4.2274,1.81846 -5.77471,2.95945 -1.377437,1.01573 -2.053394,1.78258 -4.397703,4.98903 -0.533723,0.73 -0.917618,0.99219 -1.45278,0.99219 -2.366912,0 -1.572881,-3.05486 1.717916,-6.60931 1.845485,-1.99334 3.148817,-2.91619 6.576177,-4.65636 2.55142,-1.29543 2.67239,-1.39701 3.36166,-2.82283 0.82093,-1.69822 2.1654,-3.14547 3.60382,-3.87929 1.99522,-1.01788 4.28015,-1.04257 4.28015,-0.0463 0,0.52864 -1.50808,1.99364 -2.53294,2.4606 -0.53961,0.24586 -1.33953,1.715 -1.07683,1.9777 0.27955,0.27954 1.5223,-0.52992 1.88225,-1.22599 0.58539,-1.13203 1.97699,-2.66077 2.42205,-2.66077 0.69998,0 0.97583,1.14101 0.64677,2.67531 -0.54978,2.56351 -2.01163,4.43793 -4.22157,5.41295 -0.94417,0.41657 -1.15456,0.71191 -2.31661,3.25209 -2.204,4.81785 -4.2944,7.55369 -7.31059,9.56782 -1.68917,1.12798 -2.553749,1.29907 -3.216347,0.63647 z m 2.508662,-1.21613 c 2.91224,-2.07452 5.46961,-5.30328 6.84908,-8.64716 0.39921,-0.96771 1.04239,-2.35384 1.42929,-3.08029 0.75873,-1.42461 0.87368,-2.3817 0.40866,-3.40232 -0.23072,-0.50637 -0.19665,-0.94248 0.15679,-2.00658 0.37241,-1.12121 0.71188,-1.55189 1.9362,-2.45634 1.64675,-1.21652 1.50211,-1.5249 -0.41635,-0.88769 -1.8284,0.60729 -3.17815,1.83856 -4.06082,3.70434 -0.84195,1.77969 -0.95966,2.9624 -0.37216,3.73914 0.71765,0.94882 0.49775,1.83797 -1.3703,5.54068 -1.42067,2.81596 -3.17943,4.82481 -6.03586,6.89413 -0.517432,0.37485 -0.697619,0.68353 -0.579175,0.99219 0.248462,0.64749 0.725125,0.55698 2.054645,-0.3901 z m 6.61396,-13.5655 c -0.66936,-0.80653 0.38684,-1.86273 1.19337,-1.19337 0.56538,0.46922 0.37463,1.42378 -0.30388,1.52073 -0.30377,0.0434 -0.70405,-0.10391 -0.88949,-0.32736 z m 1.04494,-0.54531 c 0,-0.21828 -0.1786,-0.39687 -0.39688,-0.39687 -0.21828,0 -0.39687,0.17859 -0.39687,0.39687 0,0.21829 0.17859,0.39688 0.39687,0.39688 0.21828,0 0.39688,-0.17859 0.39688,-0.39688 z m -12.113387,8.14269 c 1.837494,-2.58622 3.502757,-3.95795 6.844857,-5.63831 2.46026,-1.23699 2.53313,-1.29954 2.41912,-2.07636 l -0.11756,-0.80095 -2.94829,1.47737 c -2.49706,1.25126 -3.27689,1.80622 -5.095379,3.62605 -2.151739,2.15333 -3.719329,4.61079 -3.427047,5.37247 0.256702,0.66895 0.754605,0.24903 2.324299,-1.96027 z m 16.383757,-8.44979 c 0.98798,-1.06257 1.8165,-2.8279 1.80668,-3.84954 l -0.008,-0.87044 -0.58696,0.69144 c -0.32281,0.38029 -0.78531,1.05713 -1.02775,1.50408 -0.29817,0.5497 -0.76901,0.91087 -1.4552,1.11627 l -1.01441,0.30364 0.0913,1.29494 0.0913,1.29495 0.70249,-0.36706 c 0.38637,-0.20188 1.01681,-0.70511 1.40098,-1.11828 z"
       style="fill:#2b1e17;fill-opacity:1;stroke-width:0.264583"
       id="path1" />
  </g>
</svg>

