<?xml version="1.0" encoding="UTF-8" standalone="no"?>
<!-- Created with Inkscape (http://www.inkscape.org/) -->

<svg
   width="22.533377mm"
   height="23.375235mm"
   viewBox="0 0 22.533377 23.375235"
   version="1.1"
   id="svg1"
   inkscape:version="1.4.2 (f4327f4, 2025-05-13)"
   sodipodi:docname="planer.svg"
   xmlns:inkscape="http://www.inkscape.org/namespaces/inkscape"
   xmlns:sodipodi="http://sodipodi.sourceforge.net/DTD/sodipodi-0.dtd"
   xmlns="http://www.w3.org/2000/svg"
   xmlns:svg="http://www.w3.org/2000/svg">
  <sodipodi:namedview
     id="namedview1"
     pagecolor="#ffffff"
     bordercolor="#000000"
     borderopacity="0.25"
     inkscape:showpageshadow="2"
     inkscape:pageopacity="0.0"
     inkscape:pagecheckerboard="0"
     inkscape:deskcolor="#d1d1d1"
     inkscape:document-units="mm"
     inkscape:zoom="0.68862935"
     inkscape:cx="42.83872"
     inkscape:cy="44.29088"
     inkscape:window-width="1920"
     inkscape:window-height="991"
     inkscape:window-x="-9"
     inkscape:window-y="-9"
     inkscape:window-maximized="1"
     inkscape:current-layer="layer1" />
  <defs
     id="defs1" />
  <g
     inkscape:label="Ebene 1"
     inkscape:groupmode="layer"
     id="layer1"
     transform="translate(-93.883294,-136.78478)">
    <path
       d="m 96.842332,160.07292 c -0.11451,-0.0728 -0.25281,-0.37042 -0.307333,-0.66146 -0.08013,-0.42774 -0.343765,-0.5448 -1.375419,-0.61071 l -1.276286,-0.0815 0.171643,-1.77055 c 0.0944,-0.9738 0.253085,-5.40755 0.352624,-9.85277 0.19101,-8.53013 0.196158,-8.56391 1.504571,-9.87232 0.482436,-0.48243 2.638695,-0.60798 2.909743,-0.16941 0.101134,0.16363 2.422895,0.26458 6.085415,0.26458 3.66253,0 5.98428,-0.10095 6.08542,-0.26458 0.18812,-0.3044 2.24822,-0.35267 2.65009,-0.0621 0.14786,0.10691 0.59435,0.59048 0.99219,1.07459 0.66013,0.80327 0.72334,1.07339 0.72334,3.09102 0,1.97846 0.0556,2.22848 0.52917,2.37878 0.47466,0.15065 0.52917,0.40032 0.52917,2.42385 0,2.03338 -0.0522,2.26955 -0.52917,2.39428 -0.49018,0.12818 -0.52917,0.36089 -0.52917,3.15872 0,2.08621 0.12275,3.31412 0.39688,3.97021 0.21828,0.52242 0.39687,1.41451 0.39687,1.98242 0,0.86495 -0.11017,1.07446 -0.67868,1.29061 -0.37327,0.14192 -0.94035,0.25803 -1.26018,0.25803 -0.32292,0 -0.69762,0.23946 -0.84267,0.53853 -0.25324,0.52216 -0.50521,0.54025 -8.2906,0.59531 -4.41618,0.0312 -8.123109,-0.003 -8.237618,-0.0755 z m 15.870168,-0.79375 c 0,-0.17031 -2.73403,-0.26459 -7.67292,-0.26459 -4.93889,0 -7.672913,0.0943 -7.672913,0.26459 0,0.1703 2.734023,0.26458 7.672913,0.26458 4.93889,0 7.67292,-0.0943 7.67292,-0.26458 z m -0.26458,-1.01339 c 0,-0.1208 -0.28669,-0.92448 -0.63709,-1.78594 l -0.63708,-1.5663 -6.2213,-0.0709 -6.2213,-0.0709 -0.527162,1.3938 c -0.289938,0.76659 -0.609686,1.60216 -0.710549,1.85683 -0.172073,0.43445 0.283565,0.46302 7.385541,0.46302 4.16292,0 7.56894,-0.0988 7.56894,-0.21964 z m -15.478128,-0.8387 0.410464,-0.79375 h -1.462003 c -1.355233,0 -1.462003,0.0451 -1.462003,0.61736 0,0.82053 0.189367,0.97014 1.227928,0.97014 0.704785,0 0.955054,-0.15452 1.285614,-0.79375 z m 18.388538,0 c 0,-0.78618 -0.0139,-0.79375 -1.462,-0.79375 h -1.462 l 0.41046,0.79375 c 0.35161,0.67995 0.56123,0.79375 1.462,0.79375 0.99199,0 1.05154,-0.045 1.05154,-0.79375 z m -17.478256,-2.3151 c 0.19532,-0.5457 0.415885,-1.15487 0.490146,-1.3537 0.108003,-0.28918 0.02446,-0.30234 -0.41753,-0.0658 -0.349264,0.18692 -0.583041,0.61194 -0.635432,1.15526 -0.08142,0.8444 -0.105021,0.85879 -1.339654,0.8167 -0.691224,-0.0235 -1.25677,0.0657 -1.25677,0.19844 0,0.1327 0.630925,0.24128 1.402056,0.24128 1.380632,0 1.407484,-0.0152 1.757184,-0.99219 z m 17.213676,0.7276 c 0,-0.14552 -0.59531,-0.26458 -1.32292,-0.26458 h -1.32291 v -0.92604 c 0,-0.64676 -0.1197,-0.92604 -0.39688,-0.92604 -0.49777,0 -0.49721,0.22441 0.004,1.42289 0.3843,0.91976 0.45356,0.95836 1.71979,0.95836 0.72566,0 1.31937,-0.11907 1.31937,-0.26459 z m -18.318003,-7.60677 0.07054,-6.94531 H 96.048143 95.25 v 6.83507 c 0,3.75929 0.0844,6.91947 0.18755,7.02262 0.103152,0.10315 0.430574,0.15276 0.727604,0.11024 0.525931,-0.0753 0.541899,-0.25894 0.610593,-7.02262 z m 17.788833,-0.0661 v -6.87917 h -0.79375 -0.79375 v 4.10104 c 0,3.60654 0.0518,4.10104 0.42928,4.10104 0.36945,0 0.37866,-0.0613 0.0661,-0.4399 -0.29203,-0.35378 -0.29621,-0.46241 -0.0213,-0.5549 0.25105,-0.0845 0.2652,-0.20725 0.0533,-0.46258 -0.18298,-0.22049 -0.19415,-0.40588 -0.0305,-0.50701 0.16388,-0.10128 0.16857,-0.47102 0.0129,-1.01399 -0.30582,-1.06632 -0.31746,-0.99037 0.15178,-0.99037 0.32165,0 0.39688,0.42628 0.39688,2.24896 0,2.07257 -0.0415,2.24896 -0.52917,2.24896 -0.49203,0 -0.52917,0.17639 -0.52917,2.51354 v 2.51354 h 0.79375 0.79375 z m -3.9333,4.89479 -0.42815,-1.19063 h -5.23416 c -5.819255,0 -5.255146,-0.17177 -5.865011,1.78594 l -0.185451,0.59531 h 6.070452 6.07046 z m -12.735446,-1.33853 c 0,-0.91318 -0.100315,-1.40883 -0.264584,-1.30731 -0.465465,0.28768 -0.307341,2.77813 0.176389,2.77813 0.04851,0 0.08819,-0.66187 0.08819,-1.47082 z m 14.552086,0.0156 c 0,-0.80037 -0.11907,-1.45521 -0.26459,-1.45521 -0.29148,0 -0.37056,2.45165 -0.0882,2.73402 0.31817,0.31818 0.35278,0.19274 0.35278,-1.27881 z m -13.380582,0.0708 c 0.294709,-0.59153 0.377524,-0.60101 5.863292,-0.67126 l 5.56435,-0.0713 0.4405,0.86501 0.4405,0.86501 -0.0593,-1.19062 -0.0594,-1.19063 -6.28385,-0.0709 -6.283856,-0.0709 v 0.7769 c 0,0.4273 -0.0785,0.995 -0.174448,1.26156 -0.226684,0.62979 0.166107,0.27211 0.552202,-0.50284 z m 13.380582,-4.03958 c 0,-1.14653 -0.11172,-1.98437 -0.26459,-1.98437 -0.14552,0 -0.26458,0.47033 -0.26458,1.04518 0,0.62954 -0.15002,1.12933 -0.37723,1.25677 -0.20748,0.11637 -3.3031,0.17777 -6.87917,0.13644 l -6.501933,-0.0752 v -1.18162 c 0,-0.87394 -0.103342,-1.18161 -0.396875,-1.18161 -0.3175,0 -0.396875,0.39687 -0.396875,1.98437 v 1.98438 h 7.540623 7.54063 z m -1.12313,-1.65364 0.10436,-1.38907 h -4.25312 c -2.65902,0 -4.25311,-0.0992 -4.25311,-0.26458 0,-0.15434 -0.88195,-0.26458 -2.11667,-0.26458 h -2.116666 v 1.5434 c 0,0.84887 0.08152,1.62492 0.181145,1.72455 0.09963,0.0996 2.919071,0.14924 6.265421,0.11024 l 6.08428,-0.0709 z m -11.945441,0.57367 c -0.08833,-0.23018 -0.160599,-0.76597 -0.160599,-1.19063 0,-0.7387 0.05151,-0.77211 1.19063,-0.77211 H 101.6 v 1.19063 1.19062 h -1.03003 c -0.695169,0 -1.082231,-0.13605 -1.190621,-0.41851 z m 1.691481,-0.92002 c 0,-0.65362 -0.10584,-0.77813 -0.66145,-0.77813 -0.554887,0 -0.661463,0.12476 -0.661463,0.77435 0,0.52103 0.15147,0.80874 0.463023,0.87949 0.69015,0.15672 0.85989,-0.0161 0.85989,-0.87571 z m -0.79375,0.14791 c 0,-0.21828 0.11907,-0.39688 0.26459,-0.39688 0.14552,0 0.26458,0.1786 0.26458,0.39688 0,0.21828 -0.11906,0.39687 -0.26458,0.39687 -0.14552,0 -0.26459,-0.17859 -0.26459,-0.39687 z m 9.37702,0.37148 c -0.0986,-0.15948 -0.0163,-0.45283 0.18282,-0.65189 0.45899,-0.45884 1.16363,-0.0695 0.93806,0.51829 -0.18595,0.48458 -0.8547,0.56429 -1.12088,0.1336 z m 6.2334,-0.22357 c 0,-0.86454 -0.11906,-1.64548 -0.26458,-1.73541 -0.16612,-0.10267 -0.26459,0.48232 -0.26459,1.57188 0,0.98055 0.11509,1.73541 0.26459,1.73541 0.1467,0 0.26458,-0.70035 0.26458,-1.57188 z m -17.991666,-3.05833 c 0,-0.97014 -0.115332,-1.71979 -0.264584,-1.71979 -0.149252,0 -0.264583,0.74965 -0.264583,1.71979 0,0.97014 0.115331,1.71979 0.264583,1.71979 0.149252,0 0.264584,-0.74965 0.264584,-1.71979 z m 14.552086,0 c 0,-0.97014 -0.11533,-1.71979 -0.26459,-1.71979 -0.14925,0 -0.26458,0.74965 -0.26458,1.71979 0,0.97014 0.11533,1.71979 0.26458,1.71979 0.14926,0 0.26459,-0.74965 0.26459,-1.71979 z m -1.32292,1.05833 c 0,-0.32612 -0.53059,-0.40629 -2.97656,-0.44969 -4.64436,-0.0824 -4.95129,-0.0446 -4.57494,0.56438 0.11002,0.17803 1.53592,0.28219 3.86295,0.28219 3.10232,0 3.68855,-0.0631 3.68855,-0.39688 z m -8.10143,-0.80672 c 0.13452,-0.35055 0.75114,-0.3984 4.26203,-0.33072 l 4.10475,0.0791 -3.9e-4,-0.99689 -3.8e-4,-0.99689 -6.41614,0.0709 -6.416148,0.0709 -0.08479,0.88508 c -0.146687,1.53123 -0.0095,1.62846 2.297138,1.62846 1.64912,0 2.13023,-0.0875 2.25393,-0.40985 z m 1.7296,-2.93429 c 4.6024,-0.0742 7.08293,-0.0193 7.26281,0.16054 0.15025,0.15025 0.78516,0.27318 1.4109,0.27318 1.03716,0 1.1377,-0.0584 1.1377,-0.66146 v -0.66145 H 104.90729 95.25 v 0.6881 c 0,0.67077 0.03164,0.68338 1.256771,0.50091 0.691224,-0.10295 4.402109,-0.23787 8.246399,-0.29982 z m -7.12192,-2.07982 0.621408,-0.66146 h -0.79375 c -0.504569,0 -1.020143,0.24099 -1.415158,0.66146 l -0.621408,0.66146 h 0.79375 c 0.504569,0 1.020143,-0.24099 1.415158,-0.66146 z m 14.2875,0.26458 c -0.27687,-0.3336 -1.39461,-0.39687 -7.01146,-0.39687 -5.616847,0 -6.734587,0.0633 -7.011456,0.39687 -0.291434,0.35116 0.51627,0.39688 7.011456,0.39688 6.49519,0 7.30289,-0.0457 7.01146,-0.39688 z m 1.93058,-0.25627 c -0.50186,-0.68954 -2.15376,-1.00547 -1.77271,-0.33904 0.4546,0.79507 0.74752,0.99219 1.47438,0.99219 h 0.7737 z"
       style="fill:#2b1e17;fill-opacity:1;stroke-width:0.264583"
       id="path1" />
  </g>
</svg>
