<?xml version="1.0" encoding="UTF-8" standalone="no"?>
<!-- Created with Inkscape (http://www.inkscape.org/) -->

<svg
   width="24.54483mm"
   height="24.754827mm"
   viewBox="0 0 24.54483 24.754827"
   version="1.1"
   id="svg1"
   inkscape:version="1.4.2 (f4327f4, 2025-05-13)"
   sodipodi:docname="putty_knife.svg"
   xmlns:inkscape="http://www.inkscape.org/namespaces/inkscape"
   xmlns:sodipodi="http://sodipodi.sourceforge.net/DTD/sodipodi-0.dtd"
   xmlns="http://www.w3.org/2000/svg"
   xmlns:svg="http://www.w3.org/2000/svg">
  <sodipodi:namedview
     id="namedview1"
     pagecolor="#ffffff"
     bordercolor="#000000"
     borderopacity="0.25"
     inkscape:showpageshadow="2"
     inkscape:pageopacity="0.0"
     inkscape:pagecheckerboard="0"
     inkscape:deskcolor="#d1d1d1"
     inkscape:document-units="mm"
     inkscape:zoom="0.68862935"
     inkscape:cx="45.74304"
     inkscape:cy="47.1952"
     inkscape:window-width="1920"
     inkscape:window-height="991"
     inkscape:window-x="-9"
     inkscape:window-y="-9"
     inkscape:window-maximized="1"
     inkscape:current-layer="layer1" />
  <defs
     id="defs1" />
  <g
     inkscape:label="Ebene 1"
     inkscape:groupmode="layer"
     id="layer1"
     transform="translate(-92.868749,-136.05042)">
    <path
       d="m 95.71302,158.02401 c -1.564349,-1.56999 -2.844271,-2.99461 -2.844271,-3.16582 0,-0.43519 3.224136,-2.91518 7.175041,-5.51901 1.87448,-1.23537 3.39723,-2.42456 3.47232,-2.7117 0.0736,-0.28129 0.78319,-0.99121 1.57697,-1.5776 0.92748,-0.68517 2.08981,-1.97835 3.25261,-3.61876 2.19378,-3.09484 4.28014,-5.08083 5.59719,-5.32791 2.05323,-0.38519 3.80552,1.39505 3.41613,3.47063 -0.24173,1.28855 -2.14166,3.31427 -5.4065,5.76444 -1.71481,1.28693 -2.76047,2.29982 -3.38971,3.28348 -0.50047,0.78236 -1.19078,1.52924 -1.53403,1.65974 -0.36929,0.14041 -1.25382,1.22849 -2.16653,2.66514 -2.15448,3.39121 -5.450197,7.76888 -5.915602,7.85764 -0.214141,0.0408 -1.669269,-1.21028 -3.233618,-2.78027 z m 3.408449,1.51118 c 0.419418,-0.41941 -4.432604,-5.09118 -5.043966,-4.85658 -0.376465,0.14446 -0.0042,0.63746 2.003486,2.65357 1.356217,1.36189 2.533687,2.47615 2.616597,2.47615 0.08291,0 0.273658,-0.12291 0.423883,-0.27314 z m 1.203791,-1.5128 c 0.63004,-0.67778 3.56907,-4.99897 4.95947,-7.29179 l 0.61124,-1.00795 -0.62663,-0.67 c -1.24129,-1.32719 -1.32611,-1.31314 -4.39413,0.72769 -1.5659,1.04162 -3.585414,2.44412 -4.487818,3.11665 l -1.640731,1.2228 2.30219,2.28609 c 1.266205,1.25735 2.369211,2.29915 2.451126,2.3151 0.08191,0.016 0.453292,-0.2984 0.825283,-0.69859 z m 8.22906,-10.74648 c 0.40514,-0.5256 1.9074,-1.84228 3.33835,-2.92596 4.2185,-3.1947 5.42278,-4.99494 4.32652,-6.4676 -1.48796,-1.99883 -3.35983,-1.06941 -6.59924,3.27664 -1.19159,1.59865 -2.70234,3.39561 -3.35722,3.99325 l -1.19071,1.08662 1.04211,1.0176 c 1.48038,1.44555 1.29216,1.68171 -0.28225,0.35414 -1.76495,-1.48822 -2.02308,-1.09713 -0.37947,0.57494 l 1.30696,1.3296 0.52917,-0.6418 c 0.29104,-0.35298 0.86064,-1.07183 1.26578,-1.59743 z m 4.41327,-7.32907 c -0.36696,-0.68567 0.2937,-1.83434 1.05502,-1.83434 0.58497,0 1.33572,0.6692 1.33572,1.19062 0,1.09979 -1.87629,1.60499 -2.39074,0.64372 z m 1.54925,-0.57757 c -0.0465,-0.32742 -0.26314,-0.59531 -0.48142,-0.59531 -0.21829,0 -0.43493,0.26789 -0.48143,0.59531 -0.0651,0.45818 0.0458,0.59531 0.48143,0.59531 0.43559,0 0.54649,-0.13713 0.48142,-0.59531 z"
       style="fill:#2b1e17;fill-opacity:1;stroke-width:0.264583"
       id="path1" />
  </g>
</svg>
