<?xml version="1.0" encoding="UTF-8" standalone="no"?>
<!-- Created with Inkscape (http://www.inkscape.org/) -->

<svg
   width="26.659958mm"
   height="25.399929mm"
   viewBox="0 0 26.659958 25.399929"
   version="1.1"
   id="svg1"
   inkscape:version="1.4.2 (f4327f4, 2025-05-13)"
   sodipodi:docname="router_table.svg"
   xmlns:inkscape="http://www.inkscape.org/namespaces/inkscape"
   xmlns:sodipodi="http://sodipodi.sourceforge.net/DTD/sodipodi-0.dtd"
   xmlns="http://www.w3.org/2000/svg"
   xmlns:svg="http://www.w3.org/2000/svg">
  <sodipodi:namedview
     id="namedview1"
     pagecolor="#ffffff"
     bordercolor="#000000"
     borderopacity="0.25"
     inkscape:showpageshadow="2"
     inkscape:pageopacity="0.0"
     inkscape:pagecheckerboard="0"
     inkscape:deskcolor="#d1d1d1"
     inkscape:document-units="mm"
     inkscape:zoom="0.68862935"
     inkscape:cx="50.09952"
     inkscape:cy="48.64736"
     inkscape:window-width="1920"
     inkscape:window-height="991"
     inkscape:window-x="-9"
     inkscape:window-y="-9"
     inkscape:window-maximized="1"
     inkscape:current-layer="layer1" />
  <defs
     id="defs1" />
  <g
     inkscape:label="Ebene 1"
     inkscape:groupmode="layer"
     id="layer1"
     transform="translate(-91.84249,-135.73132)">
    <path
       d="m 95.832082,160.81375 c -0.226045,-0.22605 -0.3175,-1.86116 -0.3175,-5.67645 v -5.35896 l -1.785938,-0.0782 -1.785937,-0.0782 -0.08158,-1.27966 c -0.09661,-1.51547 0.104585,-1.87008 2.504205,-4.41381 l 1.742511,-1.84715 3.738264,2.6e-4 3.738263,2.7e-4 -0.0883,-3.17536 c -0.0537,-1.92922 0.0121,-3.17517 0.16758,-3.17517 0.40079,0 0.57465,1.00834 0.57857,3.35561 0.003,1.94784 0.058,2.18223 0.54548,2.33696 1.01317,0.32157 1.28643,-0.27485 1.36708,-2.98384 0.0544,-1.82627 0.17413,-2.56628 0.42899,-2.6508 0.28521,-0.0946 0.33636,0.50239 0.26459,3.08777 l -0.089,3.20502 3.8507,-2.7e-4 3.85071,-2.6e-4 0.80219,0.85989 c 0.4412,0.47295 1.3646,1.59068 2.05198,2.48386 1.14991,1.49417 1.24326,1.72679 1.16794,2.91042 l -0.0819,1.28626 -1.78594,0.0782 -1.78594,0.0782 v 5.35896 c 0,3.81529 -0.0914,5.4504 -0.3175,5.67645 -0.17462,0.17462 -0.88049,0.3175 -1.5686,0.3175 -2.01584,0 -2.08265,-0.16186 -2.08265,-5.04598 v -4.21444 h -0.92604 c -0.7322,0 -0.92604,0.10484 -0.92604,0.50086 0,0.52095 -0.48655,0.82206 -1.32834,0.82206 -0.38703,0 -0.52567,0.26676 -0.65315,1.25677 -0.24416,1.896 -0.38445,2.04191 -1.87517,1.95024 -1.63233,-0.10039 -1.69881,-0.14613 -1.7032,-1.17211 -0.007,-1.55708 -0.24985,-1.99908 -1.14787,-2.0863 -0.63173,-0.0614 -0.85331,-0.22468 -0.91744,-0.67621 -0.0689,-0.48523 -0.25237,-0.59531 -0.99219,-0.59531 h -0.907641 v 4.11844 c 0,2.33297 -0.11874,4.3403 -0.273892,4.63021 -0.217546,0.40649 -0.560464,0.51177 -1.666875,0.51177 -0.766141,0 -1.535858,-0.14288 -1.710483,-0.3175 z m 2.775495,-5.37104 c 0.02766,-2.61938 -0.01013,-4.97086 -0.08398,-5.22552 -0.09851,-0.33972 -0.411345,-0.46302 -1.174765,-0.46302 h -1.040503 v 5.11527 c 0,2.81341 0.08504,5.20032 0.188981,5.30426 0.103939,0.10394 0.609954,0.15355 1.124479,0.11024 l 0.935498,-0.0787 z m 15.367283,-0.46302 0.0717,-5.22552 h -1.1897 -1.18969 l 0.12686,5.09322 c 0.0698,2.80128 0.12636,5.18972 0.12577,5.30764 -5.3e-4,0.11793 0.44539,0.17746 0.9911,0.1323 l 0.99218,-0.0821 z m -7.87695,-0.0445 c 0,-0.3519 0.0723,-0.82815 0.1606,-1.05833 0.13213,-0.34431 -0.0555,-0.41852 -1.05833,-0.41852 -1.29643,0 -1.30856,0.0148 -1.05357,1.28985 0.14601,0.73005 0.26988,0.82682 1.05834,0.82682 0.76805,0 0.89296,-0.0895 0.89296,-0.63982 z m 0.46428,-2.73362 c 0.0785,-0.23811 -0.30472,-0.33073 -1.36827,-0.33073 -1.15883,0 -1.47726,0.0885 -1.47726,0.4107 0,0.32858 0.2736,0.39471 1.36827,0.33073 0.79767,-0.0466 1.41372,-0.21789 1.47726,-0.4107 z m -3.37469,-0.0661 c 0,-0.14553 -0.26789,-0.26277 -0.59531,-0.26054 -0.4814,0.003 -0.51937,0.0531 -0.19844,0.26054 0.51296,0.3315 0.79375,0.3315 0.79375,0 z m 4.89479,0 c 0.0899,-0.14553 -0.0887,-0.26459 -0.39688,-0.26459 -0.30821,0 -0.48681,0.11906 -0.39687,0.26459 0.0899,0.14552 0.26853,0.26458 0.39687,0.26458 0.12835,0 0.30694,-0.11906 0.39688,-0.26458 z m 2.77812,-1.85209 c 0,-0.51276 -0.17639,-0.52916 -5.68854,-0.52916 -5.512149,0 -5.688538,0.0164 -5.688538,0.52916 0,0.51276 0.176389,0.52917 5.688538,0.52917 5.51215,0 5.68854,-0.0164 5.68854,-0.52917 z m 6.74688,-1.98437 c 0,-0.52059 -0.19933,-0.53029 -12.28722,-0.59799 -7.441336,-0.0417 -12.38561,0.0296 -12.536695,0.18065 -0.13721,0.13721 -0.177419,0.43725 -0.08935,0.66676 0.143185,0.37312 1.469729,0.41 12.536695,0.34851 12.17726,-0.0677 12.37657,-0.0773 12.37657,-0.59793 z m -0.63199,-1.91823 c -0.13956,-0.25466 -0.86764,-1.14763 -1.61797,-1.98438 l -1.36424,-1.52135 h -3.6383 c -3.61005,0 -3.64104,0.005 -3.99229,0.66146 -0.1947,0.3638 -0.45295,0.66146 -0.57388,0.66146 -0.12093,0 -0.21987,0.10255 -0.21987,0.22789 0,0.12534 0.29765,0.17099 0.66146,0.10145 0.8597,-0.16435 0.91736,0.60968 0.0661,0.88792 -0.79871,0.26108 -2.34098,0.14897 -2.76241,-0.20079 -0.46618,-0.38689 -0.13856,-0.82844 0.49228,-0.66347 0.28293,0.074 0.47403,0.0546 0.42467,-0.0431 -0.0494,-0.0977 -0.25387,-0.50503 -0.45445,-0.90522 l -0.36471,-0.7276 H 99.996208 96.36069 l -1.289383,1.52135 c -0.70916,0.83675 -1.449896,1.72972 -1.646076,1.98438 -0.338511,0.43942 0.259064,0.46302 11.723559,0.46302 11.42526,0 12.06649,-0.0251 11.82651,-0.46302 z m -11.53884,-3.24115 c 0,-0.19402 -0.14883,-0.40238 -0.33073,-0.46302 -0.19674,-0.0656 -0.33073,0.122 -0.33073,0.46302 0,0.34102 0.13399,0.5286 0.33073,0.46302 0.1819,-0.0606 0.33073,-0.26899 0.33073,-0.46302 z"
       style="fill:#2b1e17;fill-opacity:1;stroke-width:0.264583"
       id="path1" />
  </g>
</svg>
