<?xml version="1.0" encoding="UTF-8" standalone="no"?>
<!-- Created with Inkscape (http://www.inkscape.org/) -->

<svg
   width="25.249197mm"
   height="24.885357mm"
   viewBox="0 0 25.249197 24.885357"
   version="1.1"
   id="svg1"
   inkscape:version="1.4.2 (f4327f4, 2025-05-13)"
   sodipodi:docname="router_bit_set.svg"
   xmlns:inkscape="http://www.inkscape.org/namespaces/inkscape"
   xmlns:sodipodi="http://sodipodi.sourceforge.net/DTD/sodipodi-0.dtd"
   xmlns="http://www.w3.org/2000/svg"
   xmlns:svg="http://www.w3.org/2000/svg">
  <sodipodi:namedview
     id="namedview1"
     pagecolor="#ffffff"
     bordercolor="#000000"
     borderopacity="0.25"
     inkscape:showpageshadow="2"
     inkscape:pageopacity="0.0"
     inkscape:pagecheckerboard="0"
     inkscape:deskcolor="#d1d1d1"
     inkscape:document-units="mm"
     inkscape:zoom="0.68862935"
     inkscape:cx="47.1952"
     inkscape:cy="47.1952"
     inkscape:window-width="1920"
     inkscape:window-height="991"
     inkscape:window-x="-9"
     inkscape:window-y="-9"
     inkscape:window-maximized="1"
     inkscape:current-layer="layer1" />
  <defs
     id="defs1" />
  <g
     inkscape:label="Ebene 1"
     inkscape:groupmode="layer"
     id="layer1"
     transform="translate(-92.42521,-135.98536)">
    <path
       d="m 93.156916,160.36108 c -0.954162,-0.95416 -0.975656,-3.41125 -0.06143,-7.02221 0.569744,-2.25035 0.95794,-3.28085 1.346253,-3.57376 0.544592,-0.41078 0.544621,-0.41223 0.01551,-0.74267 -0.504897,-0.31531 -0.530159,-0.61395 -0.530159,-6.26697 0,-7.33272 -0.422074,-6.75964 4.978434,-6.75964 3.579846,0 3.810456,0.031 3.940736,0.52917 0.12315,0.47094 0.3609,0.52917 2.16054,0.52917 1.73562,0 2.069,-0.075 2.35264,-0.52917 0.30555,-0.48926 0.61463,-0.52886 4.09854,-0.52512 2.07244,0.002 3.89907,0.0915 4.05919,0.19844 0.76821,0.51295 0.8995,1.47977 0.8995,6.6236 0,4.80121 -0.0455,5.33126 -0.50847,5.9198 -0.48849,0.62101 -0.48965,0.65817 -0.0297,0.94545 0.78349,0.48929 1.96742,6.06355 1.7751,8.35758 -0.25605,3.05411 0.77437,2.82192 -12.52278,2.82192 -10.937255,0 -11.491776,-0.0234 -11.973945,-0.50559 z m 23.515024,-0.79994 c 0.15064,-0.28147 0.27405,-0.78749 0.27426,-1.12448 l 2.6e-4,-0.6127 -4.23182,0.0788 -4.23183,0.0788 -0.16285,0.64884 c -0.16081,0.64116 -0.19841,0.64885 -3.17173,0.64885 -2.97395,0 -3.01088,-0.008 -3.17196,-0.64935 l -0.16297,-0.64934 -4.340339,-0.0783 c -2.387185,-0.043 -4.339514,-0.0187 -4.338508,0.054 0.0011,0.0728 0.125825,0.57878 0.277373,1.12448 l 0.275545,0.99219 h 11.355339 c 10.9559,0 11.36497,-0.018 11.62923,-0.51178 z m -8.8108,-1.2258 c 0.0875,-0.22806 0.0168,-0.55549 -0.15707,-0.72761 -0.24375,-0.24124 -0.37605,-0.20686 -0.57745,0.15008 -0.35415,0.62768 -3.87032,0.6856 -4.10744,0.0677 -0.19998,-0.52114 -0.62543,-0.24158 -0.62543,0.41097 0,0.47421 0.20329,0.51355 2.65413,0.51355 2.16576,0 2.68342,-0.0763 2.81326,-0.41466 z m -2.42468,-0.9044 c -0.87313,-0.1006 -1.70061,-0.0831 -1.83886,0.0389 -0.13824,0.122 0.57613,0.20432 1.5875,0.18293 l 1.83886,-0.0389 z m -0.1323,-0.27794 c 1.38245,0.003 4.4888,0.0713 6.90299,0.15175 3.49432,0.11644 4.44974,0.0736 4.68513,-0.21002 0.43287,-0.52158 -0.99293,-6.48407 -1.66869,-6.9782 -0.39792,-0.29096 -2.38269,-0.36236 -10.07298,-0.36236 -8.737999,0 -9.62502,0.0406 -10.120653,0.46302 -0.601022,0.51226 -2.068634,6.11543 -1.791174,6.83849 0.134922,0.35159 0.780717,0.38468 4.853734,0.24869 2.583953,-0.0863 5.829203,-0.15439 7.211643,-0.15137 z m -11.641662,-0.541 c 0,-0.76905 1.151009,-5.19897 1.490511,-5.73657 l 0.377981,-0.59852 9.82581,0.0694 9.82581,0.0693 0.61125,2.64584 c 0.33619,1.45521 0.61385,2.91928 0.61703,3.25349 l 0.006,0.60765 -4.43177,-0.14611 c -5.54932,-0.18297 -8.01752,-0.18296 -13.75833,6e-5 -3.395213,0.10823 -4.564063,0.0661 -4.564063,-0.16455 z m 8.377992,-0.26041 c 0.2812,-0.2812 1.45364,-0.27271 9.92622,0.0719 2.13644,0.0869 3.9355,0.10693 3.99792,0.0445 0.0624,-0.0624 -0.19287,-1.36045 -0.56731,-2.88451 -0.60157,-2.44851 -0.74704,-2.771 -1.24995,-2.771 h -0.56915 l 0.62547,1.23547 c 0.71896,1.42013 0.78446,1.93953 0.24457,1.93953 -0.24381,0 -0.41046,0.33528 -0.46302,0.93157 -0.0452,0.51236 -0.20118,0.90283 -0.3467,0.86772 -0.14552,-0.0351 -0.2296,-0.21621 -0.18684,-0.40241 0.0428,-0.1862 -0.0949,-0.33855 -0.30596,-0.33855 -0.25344,0 -0.33673,0.17965 -0.24532,0.52917 0.0761,0.29104 0.0108,0.52917 -0.14508,0.52917 -0.15589,0 -0.36223,-0.41995 -0.45852,-0.93322 -0.0963,-0.51326 -0.38363,-1.04483 -0.63855,-1.18125 -0.49931,-0.26723 -0.4746,-1.21632 0.0603,-2.31691 0.15903,-0.3272 0.22368,-0.66038 0.14366,-0.7404 -0.08,-0.08 -0.96325,-0.10997 -1.96273,-0.0666 l -1.81723,0.079 1.14735,1.24503 c 1.2001,1.30226 1.24418,1.79768 0.15995,1.79768 -0.56172,0 -0.64584,0.12062 -0.64584,0.92604 0,0.50932 -0.1318,0.92604 -0.29289,0.92604 -0.16109,0 -0.22436,-0.17859 -0.1406,-0.39687 0.0928,-0.24175 5.3e-4,-0.39688 -0.23627,-0.39688 -0.21372,0 -0.38858,0.1786 -0.38858,0.39688 0,0.21828 -0.11906,0.39687 -0.26458,0.39687 -0.24547,0 -0.38497,-0.74638 -0.28433,-1.52135 0.0262,-0.20155 -0.27161,-0.33073 -0.7624,-0.33073 -0.56558,0 -0.80535,-0.12745 -0.80535,-0.42809 0,-0.4898 1.46564,-2.26053 2.09399,-2.52988 0.23075,-0.0989 -2.4036,-0.18821 -5.85411,-0.19843 l -6.273652,-0.0186 -0.262959,0.99219 c -0.144629,0.5457 -0.39171,1.5875 -0.549069,2.3151 -0.157361,0.72761 -0.347797,1.52655 -0.42319,1.77543 -0.14459,0.47729 -0.415695,0.44635 5.99055,0.6837 0.80764,0.0299 1.59522,-0.0724 1.75018,-0.22733 z m -5.732159,-1.30576 c 0,-0.58208 -0.119063,-1.05833 -0.264583,-1.05833 -0.415285,0 -0.309341,-1.67044 0.147293,-2.32238 0.459235,-0.65565 1.901021,-0.81514 2.445623,-0.27054 0.465961,0.46596 0.406231,2.31089 -0.08087,2.49781 -0.219101,0.0841 -0.472443,0.61612 -0.56298,1.18232 -0.170588,1.06679 -0.626153,1.43078 -0.626153,0.50029 0,-0.29104 -0.167447,-0.52917 -0.372104,-0.52917 -0.241843,0 -0.323663,0.18525 -0.233725,0.52917 0.07737,0.29585 0.0081,0.52917 -0.157062,0.52917 -0.168294,0 -0.295442,-0.45548 -0.295442,-1.05834 z m 1.322917,-1.05833 c 0,-0.29398 -0.17639,-0.52917 -0.396875,-0.52917 -0.220486,0 -0.396875,0.23519 -0.396875,0.52917 0,0.29398 0.176389,0.52917 0.396875,0.52917 0.220485,0 0.396875,-0.23519 0.396875,-0.52917 z m -0.79016,-0.8574 c 0.406897,-0.25411 0.638622,-0.25762 1.026218,-0.0155 0.989021,0.61765 1.183122,-0.73049 0.198096,-1.3759 -0.808646,-0.52984 -1.385715,-0.29018 -1.738582,0.72206 -0.408683,1.17235 -0.370549,1.22198 0.514268,0.66941 z m 4.496692,2.44932 c -0.15882,-0.29677 -0.2541,-0.74659 -0.21171,-0.9996 0.0519,-0.31 -0.12469,-0.4886 -0.54156,-0.54763 -0.5229,-0.0741 -0.591814,-0.19436 -0.44543,-0.77761 0.0952,-0.37951 0.4115,-1.0247 0.70278,-1.43376 0.59325,-0.83315 1.40676,-1.0258 1.18541,-0.28072 -0.48979,1.64865 -0.47628,1.8437 0.13893,2.00458 0.33302,0.0871 0.68416,0.031 0.78032,-0.12454 0.12295,-0.19894 0.22854,-0.19599 0.35581,0.01 0.0995,0.16105 0.29302,0.29283 0.42995,0.29283 0.46452,0 0.25177,-0.76347 -0.41249,-1.48022 -0.71209,-0.76835 -0.8647,-1.27645 -0.33073,-1.10112 0.5409,0.1776 1.54974,1.85629 1.46547,2.43852 -0.0547,0.37819 -0.25112,0.5217 -0.65626,0.47956 -0.47049,-0.0489 -0.5935,0.0951 -0.6606,0.77337 -0.0454,0.45843 -0.25027,0.88869 -0.45535,0.95613 -0.25611,0.0842 -0.32086,-0.013 -0.20674,-0.31035 0.1212,-0.31584 0.0165,-0.43298 -0.38712,-0.43298 -0.44627,0 -0.49334,0.0722 -0.24343,0.37332 0.19983,0.24078 0.21604,0.43128 0.0457,0.53658 -0.14528,0.0898 -0.3941,-0.0795 -0.55292,-0.37631 z m 1.32055,-1.32734 c 0,-0.14552 -0.23812,-0.26458 -0.52917,-0.26458 -0.29104,0 -0.52916,0.11906 -0.52916,0.26458 0,0.14552 0.23812,0.26459 0.52916,0.26459 0.29105,0 0.52917,-0.11907 0.52917,-0.26459 z m -1.39207,-1.45521 c 0.34715,-1.13113 0.21887,-1.18927 -0.32093,-0.14543 -0.46152,0.8925 -0.49217,1.07148 -0.18347,1.07148 0.1211,0 0.34808,-0.41672 0.5044,-0.92605 z m 6.92877,1.61106 c 0.23476,-0.28287 0.23544,-0.41929 0.003,-0.56306 -0.28462,-0.17591 -0.76365,0.28142 -0.77297,0.73794 -0.007,0.32609 0.43822,0.22507 0.77015,-0.17488 z m 5.4069,-0.28814 c 0.11457,-0.29857 -0.0448,-0.39687 -0.64358,-0.39687 -0.67743,0 -0.74511,0.0576 -0.45472,0.38681 0.44423,0.50367 0.90725,0.50792 1.0983,0.01 z m -4.06443,-0.7734 c 0,-0.0616 -0.37566,-0.48759 -0.8348,-0.94673 l -0.83479,-0.83479 -0.94673,0.94673 -0.94674,0.94673 h 1.78153 c 0.97984,0 1.78153,-0.0504 1.78153,-0.11194 z m 4.49791,-0.36665 c 0,-0.11771 -0.15549,-0.42668 -0.34555,-0.68659 -0.48775,-0.66704 -1.6136,-0.4676 -1.72337,0.30529 -0.0758,0.53369 0.0269,0.59531 0.99219,0.59531 0.5922,0 1.07673,-0.0963 1.07673,-0.21401 z m -0.92604,-1.90266 c 0.0899,-0.14552 -0.0221,-0.26458 -0.24897,-0.26458 -0.22686,0 -0.41249,0.11906 -0.41249,0.26458 0,0.14552 0.11204,0.26459 0.24897,0.26459 0.13693,0 0.32256,-0.11907 0.41249,-0.26459 z m 2.24504,-2.63851 c 0.17732,-0.33133 0.25317,-2.52886 0.20775,-6.01927 l -0.0715,-5.49743 -3.75715,-0.0733 c -3.54259,-0.0691 -3.77356,-0.0427 -4.04421,0.46302 -0.2559,0.47814 -0.54714,0.53635 -2.68376,0.53635 -2.1742,0 -2.40956,-0.0491 -2.53509,-0.52917 -0.12988,-0.49664 -0.3609,-0.52917 -3.758771,-0.52917 -2.463083,0 -3.721886,0.1015 -3.937891,0.3175 -0.225748,0.22575 -0.3175,1.84452 -0.3175,5.60157 0,4.54557 0.0612,5.35168 0.437882,5.76791 0.409308,0.45228 1.082054,0.48386 10.30944,0.48386 9.5546,0 9.88053,-0.0168 10.15084,-0.52185 z m -20.189434,-0.18054 c -0.336558,-0.33655 -0.207258,-10.54117 0.137938,-10.88636 0.207447,-0.20745 1.30047,-0.3175 3.15336,-0.3175 3.017266,0 3.672886,0.11807 3.672886,0.66145 0,0.52679 0.64465,0.66146 3.16621,0.66146 2.1925,0 2.35462,-0.0388 2.76259,-0.66146 0.42,-0.64099 0.52529,-0.66133 3.40387,-0.6574 1.63375,0.002 3.12182,0.10012 3.30682,0.21753 0.25809,0.1638 0.31965,1.47113 0.26458,5.61834 l -0.0718,5.40487 -9.80846,0.0693 c -5.394656,0.0381 -9.889265,-0.0115 -9.988024,-0.11025 z m 1.501077,-1.48043 c 0.09176,-0.76398 0.167881,-2.47581 0.169145,-3.80406 0.0019,-1.8513 0.09755,-2.49405 0.410388,-2.75368 0.285824,-0.23721 0.491582,-0.25519 0.686771,-0.06 0.214545,0.21454 0.646279,4.66848 0.74577,7.69365 0.0073,0.22173 0.274728,0.31788 0.735925,0.26458 0.616718,-0.0713 0.752188,-0.24113 0.910798,-1.14205 0.10247,-0.58208 0.19318,-2.32833 0.20157,-3.88056 0.0158,-2.93504 0.17113,-3.31942 1.13972,-2.82125 0.3934,0.20233 0.46302,0.62904 0.46302,2.83773 0,1.42978 0.0757,3.152 0.16826,3.82715 0.15563,1.13545 0.22511,1.22756 0.92604,1.22756 0.64708,0 0.75972,-0.10631 0.77104,-0.72761 0.10009,-5.49481 0.11965,-5.69605 0.58206,-5.9884 1.15471,-0.73006 1.83921,0.98712 1.53704,3.85591 -0.0814,0.77269 -0.10964,1.73921 -0.0628,2.14784 0.0757,0.65975 0.17844,0.73382 0.91791,0.66145 0.68172,-0.0667 0.83733,-0.20143 0.85815,-0.74294 0.014,-0.36381 0.0474,-2.11998 0.0743,-3.90261 l 0.0488,-3.24114 h 0.91897 0.91896 l 0.0732,3.9026 0.0732,3.9026 h 0.79375 0.79375 l -0.0447,-2.42478 c -0.0246,-1.33363 -0.17343,-2.66525 -0.33073,-2.95916 -0.1573,-0.29392 -0.286,-1.19706 -0.286,-2.007 v -1.4726 h 1.5875 1.5875 v 1.83004 c 0,1.00652 -0.11773,1.86972 -0.26163,1.91823 -0.29588,0.0997 -0.44344,4.4843 -0.16603,4.93317 0.099,0.16021 0.35481,0.22422 0.56843,0.14224 0.323,-0.12395 0.3884,-1.01299 0.3884,-5.28011 v -5.13107 h -2.89541 c -2.70272,0 -2.92317,0.0396 -3.31239,0.59532 -0.38769,0.5535 -0.61334,0.59531 -3.21338,0.59531 -2.58076,0 -2.83358,-0.0459 -3.27846,-0.59531 -0.44747,-0.5526 -0.6926,-0.59532 -3.416207,-0.59532 h -2.934152 v 5.13733 c 0,5.03689 0.04361,5.32436 0.823042,5.42512 0.08887,0.0115 0.236664,-0.60419 0.32843,-1.36818 z m 12.739157,0.70239 c 0,-0.32117 -0.21592,-0.53461 -0.59532,-0.5885 -0.43841,-0.0623 -0.59531,0.0481 -0.59531,0.41893 0,0.6374 0.18535,0.82105 0.74564,0.73882 0.24474,-0.0359 0.44499,-0.29209 0.44499,-0.56925 z m 3.57187,0.0693 c 0,-0.75193 -0.19748,-0.97929 -0.68733,-0.79131 -0.38324,0.14706 -0.50553,0.92136 -0.19461,1.23228 0.38808,0.38808 0.88194,0.14115 0.88194,-0.44097 z M 98.160414,147.3729 c 0,-0.38257 -0.176389,-0.52917 -0.636688,-0.52917 -0.506425,0 -0.608377,0.10826 -0.498308,0.52917 0.07659,0.29287 0.360897,0.52916 0.636688,0.52916 0.321919,0 0.498308,-0.18731 0.498308,-0.52916 z m 3.704166,0.0156 c 0,-0.60048 -0.40244,-0.91461 -0.91817,-0.71671 -0.53181,0.20408 -0.18159,1.23026 0.41986,1.23026 0.31687,0 0.49831,-0.18699 0.49831,-0.51355 z m 3.70417,-0.0156 c 0,-0.35278 -0.17639,-0.52917 -0.52917,-0.52917 -0.35278,0 -0.52917,0.17639 -0.52917,0.52917 0,0.35277 0.17639,0.52916 0.52917,0.52916 0.35278,0 0.52917,-0.17639 0.52917,-0.52916 z m -7.672919,-3.43959 c 0,-1.41111 -0.107794,-2.38125 -0.264583,-2.38125 -0.15679,0 -0.264584,0.97014 -0.264584,2.38125 0,1.41111 0.107794,2.38125 0.264584,2.38125 0.156789,0 0.264583,-0.97014 0.264583,-2.38125 z M 101.6,143.76981 c 0,-1.43193 -0.0961,-2.18955 -0.26459,-2.08544 -0.14552,0.0899 -0.26458,1.17556 -0.26458,2.41248 0,1.43194 0.0961,2.18956 0.26458,2.08544 0.14553,-0.0899 0.26459,-1.17555 0.26459,-2.41248 z m 4.18101,1.02342 0.08,-1.38906 h -0.80758 c -0.78899,0 -0.80758,0.0294 -0.80758,1.27881 0,1.44112 0.14283,1.68717 0.91515,1.57662 0.45294,-0.0648 0.55296,-0.3014 0.62003,-1.46637 z m 3.4919,-1.41737 c 0,-2.1503 -0.0708,-2.61753 -0.39687,-2.61753 -0.3275,0 -0.39688,0.48415 -0.39688,2.76983 0,2.35336 0.0597,2.74692 0.39688,2.61752 0.31577,-0.12117 0.39687,-0.68721 0.39687,-2.76982 z m 3.7853,1.43536 c 0.17942,-1.73847 0.11019,-1.93671 -0.61056,-1.74823 -0.44355,0.11599 -0.5289,0.36105 -0.5289,1.51856 0,1.41884 0.1212,1.73303 0.66854,1.73303 0.18937,0 0.37786,-0.60174 0.47092,-1.50336 z m -8.37257,-2.79612 c -0.0734,-0.1819 -0.13345,-0.0331 -0.13345,0.33073 0,0.3638 0.0601,0.51263 0.13345,0.33073 0.0734,-0.1819 0.0734,-0.47956 0,-0.66146 z m 0.88311,0.46302 c 0,-0.21828 -0.11533,-0.39687 -0.25628,-0.39687 -0.14095,0 -0.18775,0.17859 -0.10399,0.39687 0.0838,0.21829 0.19909,0.39688 0.25628,0.39688 0.0572,0 0.10399,-0.17859 0.10399,-0.39688 z m 7.8856,-1.4552 c 0.0746,-1.3507 0.0515,-1.41721 -0.32231,-0.92605 -0.35937,0.47222 -0.40362,0.47934 -0.41113,0.0661 -0.005,-0.25466 -0.12748,-0.46302 -0.273,-0.46302 -0.14552,0 -0.27839,0.20836 -0.29527,0.46302 -0.0292,0.44097 -0.0365,0.44097 -0.15169,0 -0.0666,-0.25466 -0.24486,-0.46302 -0.39623,-0.46302 -0.17835,0 -0.20901,0.44237 -0.0871,1.25677 0.24038,1.6061 0.30834,1.7005 1.15375,1.60266 0.65386,-0.0757 0.7082,-0.18229 0.78301,-1.53651 z m -11.99794,0.0183 c 0.0837,-0.13547 0.0312,-0.32109 -0.11668,-0.41249 -0.14789,-0.0914 -0.2689,0.0194 -0.2689,0.2463 0,0.46475 0.15877,0.53318 0.38558,0.16619 z"
       style="fill:#2b1e17;fill-opacity:1;stroke-width:0.264583"
       id="path1" />
  </g>
</svg>
