<?xml version="1.0" encoding="UTF-8" standalone="no"?>
<!-- Created with Inkscape (http://www.inkscape.org/) -->

<svg
   width="25.651697mm"
   height="23.377769mm"
   viewBox="0 0 25.651697 23.377769"
   version="1.1"
   id="svg1"
   inkscape:version="1.4.2 (f4327f4, 2025-05-13)"
   sodipodi:docname="safety_shoes.svg"
   xmlns:inkscape="http://www.inkscape.org/namespaces/inkscape"
   xmlns:sodipodi="http://sodipodi.sourceforge.net/DTD/sodipodi-0.dtd"
   xmlns="http://www.w3.org/2000/svg"
   xmlns:svg="http://www.w3.org/2000/svg">
  <sodipodi:namedview
     id="namedview1"
     pagecolor="#ffffff"
     bordercolor="#000000"
     borderopacity="0.25"
     inkscape:showpageshadow="2"
     inkscape:pageopacity="0.0"
     inkscape:pagecheckerboard="0"
     inkscape:deskcolor="#d1d1d1"
     inkscape:document-units="mm"
     inkscape:zoom="0.68862935"
     inkscape:cx="48.64736"
     inkscape:cy="44.29088"
     inkscape:window-width="1920"
     inkscape:window-height="991"
     inkscape:window-x="-9"
     inkscape:window-y="-9"
     inkscape:window-maximized="1"
     inkscape:current-layer="layer1" />
  <defs
     id="defs1" />
  <g
     inkscape:label="Ebene 1"
     inkscape:groupmode="layer"
     id="layer1"
     transform="translate(-92.352473,-136.92827)">
    <path
       d="m 102.1793,159.93294 c -1.13498,-0.24641 -1.96402,-0.62095 -2.588892,-1.16959 -1.031968,-0.90608 -1.134059,-0.93059 -2.080239,-0.49948 -0.53902,0.24559 -1.008315,0.21555 -2.327554,-0.14896 -0.908824,-0.25112 -1.935686,-0.6405 -2.281917,-0.8653 -0.618731,-0.40171 -0.626371,-0.45692 -0.446173,-3.22447 0.100835,-1.54867 0.361999,-3.86517 0.580364,-5.14778 0.330663,-1.94221 0.344121,-2.75235 0.08051,-4.84663 -0.214911,-1.7074 -0.229983,-2.60115 -0.04695,-2.78418 0.148261,-0.14826 1.235544,-0.33578 2.416183,-0.4167 2.126588,-0.14576 2.146617,-0.15388 2.146617,-0.87068 0,-1.0423 0.503147,-1.32408 2.689191,-1.50604 1.21387,-0.10104 2.18882,-0.33772 2.60248,-0.63179 0.9962,-0.70817 2.79642,-1.11138 3.43535,-0.76944 0.62287,0.33335 0.71433,0.70722 0.9313,3.80701 0.23127,3.30415 0.85845,4.79571 2.85423,6.78797 1.78901,1.78586 2.57159,2.22325 4.49003,2.50949 0.69293,0.10338 1.55346,0.41891 1.9123,0.70117 0.73153,0.57542 1.45804,2.68289 1.45804,4.22952 0,0.84935 -0.12301,1.06713 -0.80069,1.41757 -0.44038,0.22772 -1.47466,0.49867 -2.29841,0.6021 -1.40103,0.17592 -1.51175,0.24221 -1.71496,1.02688 -0.17332,0.66925 -0.44411,0.9216 -1.33961,1.24836 -2.69068,0.98181 -6.64821,1.20727 -9.6712,0.55097 z m 5.90299,-0.66016 c 0,-0.0336 0.47625,-0.0948 1.05833,-0.13606 1.79194,-0.12694 3.16413,-0.70752 3.25955,-1.37913 0.10203,-0.71811 0.21039,-0.71358 -1.66155,-0.0695 -3.38205,1.1636 -6.98757,0.96568 -10.59383,-0.58153 -1.018644,-0.43703 -3.012941,-1.19066 -4.431769,-1.67472 l -2.579688,-0.88012 v 1.0198 c 0,0.91799 0.07925,1.03721 0.79375,1.19414 0.436563,0.0959 0.79375,0.29668 0.79375,0.44621 0,0.14953 0.183301,0.20153 0.407335,0.11556 0.224034,-0.086 0.634093,-0.0147 0.911241,0.15838 0.41012,0.25613 0.600458,0.22732 1.022669,-0.15478 0.497937,-0.45062 0.573153,-0.44607 1.873584,0.11336 0.745151,0.32055 1.449058,0.75122 1.564238,0.95703 0.11518,0.20581 0.49911,0.38951 0.85319,0.40822 0.35408,0.0187 0.7911,0.14534 0.97114,0.28139 0.18005,0.13606 0.47771,0.191 0.66146,0.1221 0.18376,-0.0689 0.55355,-0.047 0.82177,0.0487 0.43331,0.15455 4.27483,0.16446 4.27483,0.011 z m 2.38125,-2.30079 c 1.25092,-0.47322 1.32044,-0.54973 1.27735,-1.40588 -0.0572,-1.13747 -0.78752,-1.75716 -2.34616,-1.99089 -0.64807,-0.0972 -1.84799,-0.57996 -2.66649,-1.07283 -0.8185,-0.49288 -1.63251,-0.89614 -1.80891,-0.89614 -0.49132,0 -0.69672,0.31467 -0.4217,0.64604 0.16026,0.19311 0.0395,0.66693 -0.3434,1.34727 l -0.59059,1.0494 -2.10821,-0.0918 c -1.821757,-0.0793 -2.171388,-0.022 -2.57324,0.42204 -0.452485,0.49999 -0.415588,0.53666 1.36697,1.35829 1.0076,0.46444 2.34882,0.95402 2.98049,1.08795 1.75576,0.3723 5.70562,0.12471 7.23389,-0.45343 z m 3.149,-0.56118 c 0.0756,-0.12238 0.66535,-0.2305 1.31047,-0.24025 1.4004,-0.0212 2.28741,-0.44047 2.28741,-1.08128 0,-0.44199 -0.11729,-0.43906 -2.18282,0.0545 -2.53224,0.60513 -2.42627,0.5536 -2.2238,1.08123 0.17042,0.44411 0.58958,0.54039 0.80874,0.18576 z m -12.34982,-2.34511 c 1.75498,0.13273 1.95824,0.0958 2.32098,-0.42211 0.44564,-0.63624 0.53011,-1.50818 0.14611,-1.50818 -0.13829,0 -0.369,0.20836 -0.51269,0.46303 -0.21604,0.38289 -0.32133,0.4027 -0.60845,0.11448 -0.28668,-0.28778 -0.25833,-0.41415 0.16264,-0.72488 0.28042,-0.20698 0.45901,-0.40732 0.39687,-0.4452 -1.06126,-0.64704 -1.24411,-0.67644 -1.65447,-0.26608 -0.38819,0.38819 -0.43883,0.38331 -0.60844,-0.0587 -0.11926,-0.3108 -0.0296,-0.59576 0.2524,-0.80195 0.40019,-0.29262 0.3893,-0.36253 -0.12796,-0.82164 -0.40701,-0.36125 -0.59775,-0.40917 -0.68104,-0.17106 -0.16393,0.46864 -1.12992,0.41209 -1.12992,-0.0661 0,-0.21828 0.178594,-0.39688 0.396875,-0.39688 0.520105,0 0.527385,-1.21621 0.0085,-1.41534 -0.213621,-0.082 -0.458773,-0.0352 -0.544782,0.10398 -0.270373,0.43748 -0.654315,0.27544 -0.654315,-0.27614 0,-0.35277 0.176389,-0.52916 0.529167,-0.52916 0.613332,0 0.614738,-0.005 0.260198,-0.93758 -0.226659,-0.59615 -0.332472,-0.65473 -0.672672,-0.37239 -0.286857,0.23807 -0.485681,0.25306 -0.686936,0.0518 -0.36581,-0.36581 -0.0167,-0.93729 0.460678,-0.75411 0.548016,0.2103 0.925407,-0.67731 0.522346,-1.22853 -0.183046,-0.25033 -0.405201,-0.38276 -0.493677,-0.29428 -0.08848,0.0885 -0.358003,0.0852 -0.59895,-0.007 -0.357086,-0.13703 -0.377165,-0.24151 -0.108598,-0.56511 0.25352,-0.30548 0.41437,-0.32657 0.697651,-0.0915 0.478928,0.39747 0.636402,0.21788 0.446315,-0.50902 -0.119388,-0.45653 -0.347326,-0.58375 -1.045935,-0.58375 -0.866492,0 -0.892084,0.0305 -0.853464,1.0161 0.05523,1.40959 -0.15811,1.62965 -1.580592,1.63035 l -1.241156,6.1e-4 v 2.47358 2.47358 l 0.977255,1.08192 c 0.904277,1.00112 1.80087,3.15044 1.80087,4.31707 0,0.71907 0.846024,0.72845 1.713915,0.019 0.720892,-0.58929 0.951392,-0.63167 2.711307,-0.49857 z m -5.059872,-0.36707 c -0.221931,-1.38788 -1.045203,-3.00007 -1.803066,-3.5309 -0.555809,-0.38931 -0.606181,-0.37877 -0.808875,0.16916 -0.118885,0.32138 -0.181177,1.2416 -0.138426,2.04494 l 0.07773,1.46062 1.190625,0.45501 c 1.648685,0.63006 1.676711,0.61874 1.482015,-0.59883 z m 19.861352,0.41966 c 0.53734,-0.22452 0.88125,-0.55446 0.88064,-0.84489 -0.002,-0.75614 -1.00288,-2.19632 -1.52703,-2.19632 -0.9299,0 -3.57395,-0.81104 -4.27769,-1.31215 -1.10964,-0.79013 -1.4272,-0.7672 -1.50752,0.10885 -0.0992,1.0815 -0.95988,2.14513 -1.66993,2.06359 -1.22418,-0.14057 -0.2054,0.40523 1.36865,0.73325 1.31124,0.27325 1.82867,0.53266 2.45514,1.23089 0.74636,0.83186 0.87143,0.87574 2.09493,0.73491 0.71564,-0.0824 1.69791,-0.31553 2.18281,-0.51813 z m -7.46774,-3.10008 c 0.52287,-0.74651 0.53055,-1.52863 0.015,-1.52863 -0.21828,0 -0.39688,0.1786 -0.39688,0.39688 0,0.21828 -0.17156,0.39687 -0.38126,0.39687 -0.63447,0 -0.73151,-0.49068 -0.16679,-0.84336 0.52969,-0.33079 0.52964,-0.33276 -0.0238,-0.9219 l -0.55465,-0.59039 -0.44012,0.54353 c -0.39808,0.4916 -0.4735,0.50332 -0.78945,0.12262 -0.2935,-0.35364 -0.28114,-0.44707 0.0773,-0.58463 0.51753,-0.1986 0.52216,-0.35561 0.0297,-1.00627 -0.31917,-0.42167 -0.44701,-0.44683 -0.79655,-0.15674 -0.29585,0.24553 -0.49833,0.26357 -0.69959,0.0623 -0.34365,-0.34366 -0.0717,-0.85851 0.45357,-0.85851 0.52569,0 0.4771,-0.36042 -0.12164,-0.90227 -0.34597,-0.3131 -0.55973,-0.36317 -0.68502,-0.16045 -0.13285,0.21496 -0.28229,0.21152 -0.55252,-0.0128 -0.45944,-0.3813 -0.24597,-0.77662 0.41937,-0.77662 0.44023,0 0.46687,-0.0944 0.22355,-0.79241 -0.23472,-0.67332 -0.37576,-0.76743 -0.93846,-0.6262 -0.54939,0.13789 -0.64539,0.0813 -0.56338,-0.33207 0.068,-0.34285 0.28251,-0.47246 0.68765,-0.4155 0.62385,0.0877 0.67131,-0.0129 0.43006,-0.91193 -0.10286,-0.38335 -0.30445,-0.52458 -0.62798,-0.43997 -0.57588,0.15059 -0.97228,-0.38501 -0.57728,-0.78001 0.20125,-0.20125 0.40135,-0.1852 0.69132,0.0555 0.3453,0.28657 0.40809,0.25469 0.40809,-0.20727 0,-0.73713 -0.38849,-0.92704 -1.4782,-0.72261 -0.80264,0.15057 -0.86729,0.219 -0.52773,0.55855 0.39334,0.39334 0.55315,1.27162 0.79138,4.34938 0.0732,0.94589 0.31837,2.25557 0.54479,2.91042 0.69571,2.01213 3.4008,4.75866 4.68965,4.76151 0.24641,5.3e-4 0.63336,-0.26363 0.8599,-0.58705 z m -3.82146,-0.10428 c 0,-0.0558 -0.30468,-0.10143 -0.67707,-0.10143 -0.37239,0 -0.6104,0.10788 -0.52891,0.23974 0.13556,0.21934 1.20598,0.0966 1.20598,-0.13831 z m -1.0721,-1.04406 c -0.28394,-0.34213 -1.04457,-0.24521 -1.04457,0.13309 0,0.36044 0.29459,0.48757 0.81465,0.35157 0.39567,-0.10347 0.45045,-0.21894 0.22992,-0.48466 z m -0.84613,-1.24018 c -0.0606,-0.18191 -0.38805,-0.33073 -0.7276,-0.33073 -0.33955,0 -0.66697,0.14882 -0.72761,0.33073 -0.0727,0.21816 0.17492,0.33072 0.72761,0.33072 0.55268,0 0.80032,-0.11256 0.7276,-0.33072 z m -1.78594,-0.46303 c 0,-0.14552 -0.11906,-0.26458 -0.26458,-0.26458 -0.14552,0 -0.26458,0.11906 -0.26458,0.26458 0,0.14553 0.11906,0.26459 0.26458,0.26459 0.14552,0 0.26458,-0.11906 0.26458,-0.26459 z m 8.26823,0.0894 c -0.1819,-0.0734 -0.47956,-0.0734 -0.66146,0 -0.1819,0.0734 -0.0331,0.13345 0.33073,0.13345 0.36381,0 0.51263,-0.06 0.33073,-0.13345 z m -0.85989,-0.8958 c 0,-0.35639 -0.44808,-0.53098 -0.90892,-0.35414 -0.3213,0.12329 -0.35529,0.25106 -0.13683,0.5143 0.2958,0.35641 1.04575,0.24155 1.04575,-0.16016 z m -6.39945,-0.45033 c -0.0989,-0.51868 -0.94904,-0.72297 -1.5058,-0.36182 -0.55232,0.35826 -0.10177,0.82484 0.79651,0.82484 0.61679,0 0.77754,-0.10493 0.70929,-0.46302 z m 5.42679,-1.01826 c -0.14649,-0.38175 -0.92099,-0.50562 -1.22991,-0.19671 -0.0957,0.0958 -0.0517,0.32159 0.0979,0.50186 0.36153,0.43561 1.31737,0.17795 1.13199,-0.30515 z m -7.09714,0.15837 c 0.0899,-0.14552 0.0374,-0.26459 -0.11667,-0.26459 -0.15411,0 -0.2802,0.11907 -0.2802,0.26459 0,0.14552 0.0525,0.26458 0.11668,0.26458 0.0642,0 0.19026,-0.11906 0.28019,-0.26458 z m 1.01999,-0.68336 c 0.64522,-0.24759 0.18353,-0.90414 -0.6358,-0.90414 -0.856173,0 -1.291066,0.47582 -0.74881,0.81928 0.42976,0.2722 0.83215,0.29687 1.38461,0.0849 z m 4.66856,-0.11039 c 0,-0.14552 -0.0525,-0.26459 -0.11668,-0.26459 -0.0642,0 -0.19026,0.11907 -0.2802,0.26459 -0.0899,0.14552 -0.0374,0.26458 0.11668,0.26458 0.15411,0 0.2802,-0.11906 0.2802,-0.26458 z m 0.72924,-0.8599 c -0.1686,-0.51347 -1.52299,-0.58792 -1.52299,-0.0837 0,0.2866 0.25165,0.41445 0.81579,0.41445 0.53417,0 0.77831,-0.11417 0.7072,-0.33073 z m -10.415454,-1.36804 c 0.23879,-0.95141 -0.06772,-1.4767 -0.859284,-1.47262 -1.197182,0.006 -1.889922,0.29919 -1.889922,0.79936 0,1.04586 0.296617,1.3137 1.454833,1.3137 0.978626,0 1.155613,-0.0876 1.294373,-0.64044 z m 4.865254,0.41758 c 0.24706,-0.15678 0.28985,-0.62803 0.1585,-1.74565 l -0.17993,-1.53089 -1.16375,0.13117 c -1.432635,0.16148 -1.609107,0.31981 -1.047797,0.94004 0.241643,0.26702 0.43935,0.79761 0.43935,1.1791 0,0.95368 1.003337,1.52773 1.793627,1.02623 z m 4.02721,-0.0417 c 0,-0.14552 -0.11907,-0.26458 -0.26459,-0.26458 -0.14552,0 -0.26458,0.11906 -0.26458,0.26458 0,0.14553 0.11906,0.26459 0.26458,0.26459 0.14552,0 0.26459,-0.11906 0.26459,-0.26459 z m 1.19062,-1.05833 c 0,-0.46408 -1.13032,-0.6953 -1.51559,-0.31004 -0.42169,0.4217 0.0477,0.87679 0.81297,0.78823 0.41203,-0.0477 0.70262,-0.24546 0.70262,-0.47819 z m -0.5508,-1.48351 c 0.31004,-0.11898 0.41851,-0.53043 0.41851,-1.5875 v -1.4269 h -0.9044 c -1.51746,0 -1.75383,0.18087 -1.32086,1.01077 0.20346,0.38996 0.37065,0.96699 0.37155,1.28228 0.002,0.73052 0.61219,1.03717 1.4352,0.72135 z m -5.45124,-1.4576 c 0.49466,-0.0214 0.56175,-0.069 0.22093,-0.15678 -0.66548,-0.17143 -2.28868,0.15303 -2.28868,0.4575 0,0.14855 0.268912,0.1438 0.678683,-0.012 0.373275,-0.14192 0.998357,-0.27184 1.389067,-0.28872 z"
       style="fill:#2b1e17;fill-opacity:1;stroke-width:0.264583"
       id="path1" />
  </g>
</svg>
