<?xml version="1.0" encoding="UTF-8" standalone="no"?>
<!-- Created with Inkscape (http://www.inkscape.org/) -->

<svg
   width="25.360636mm"
   height="25.328901mm"
   viewBox="0 0 25.360636 25.328901"
   version="1.1"
   id="svg1"
   inkscape:version="1.4.2 (f4327f4, 2025-05-13)"
   sodipodi:docname="sandpaper_roll.svg"
   xmlns:inkscape="http://www.inkscape.org/namespaces/inkscape"
   xmlns:sodipodi="http://sodipodi.sourceforge.net/DTD/sodipodi-0.dtd"
   xmlns="http://www.w3.org/2000/svg"
   xmlns:svg="http://www.w3.org/2000/svg">
  <sodipodi:namedview
     id="namedview1"
     pagecolor="#ffffff"
     bordercolor="#000000"
     borderopacity="0.25"
     inkscape:showpageshadow="2"
     inkscape:pageopacity="0.0"
     inkscape:pagecheckerboard="0"
     inkscape:deskcolor="#d1d1d1"
     inkscape:document-units="mm"
     inkscape:zoom="0.68862935"
     inkscape:cx="48.64736"
     inkscape:cy="48.64736"
     inkscape:window-width="1920"
     inkscape:window-height="991"
     inkscape:window-x="-9"
     inkscape:window-y="-9"
     inkscape:window-maximized="1"
     inkscape:current-layer="layer1" />
  <defs
     id="defs1" />
  <g
     inkscape:label="Ebene 1"
     inkscape:groupmode="layer"
     id="layer1"
     transform="translate(-92.378974,-135.75575)">
    <path
       d="m 102.92291,160.94818 c -1.21766,-0.20435 -2.50705,-0.67958 -3.241142,-1.19459 -0.617347,-0.43311 -0.727654,-0.69817 -0.727932,-1.74921 l -2.64e-4,-1.23876 -1.653318,-0.008 c -1.951601,-0.01 -3.97397,-0.53046 -4.55468,-1.17214 -0.359201,-0.39691 -0.404953,-1.45738 -0.343972,-7.97297 l 0.07027,-7.51515 1.190625,-0.60924 c 1.070805,-0.54793 1.49021,-0.60118 4.167534,-0.52916 l 2.976909,0.0801 -2.6e-4,-0.95118 c -5.3e-4,-1.74354 1.6812,-2.47959 5.27334,-2.30785 3.06162,0.14638 4.08444,0.69819 4.19968,2.26572 l 0.0807,1.09723 1.28595,-0.1523 c 1.65179,-0.19563 4.58763,0.3576 5.43505,1.02418 l 0.65821,0.51782 v 7.36992 7.36993 l -0.65829,0.51781 c -0.82711,0.65061 -3.78991,1.22599 -5.17361,1.00472 -1.04524,-0.16714 -1.04727,-0.16574 -1.04727,0.7207 0,1.21168 -0.59986,1.66631 -2.71211,2.05551 -1.37638,0.25361 -1.7858,0.4323 -1.7858,0.77941 0,0.65304 -1.52835,0.91876 -3.43959,0.59802 z m 2.85681,-2.39312 c 0.0694,-1.4557 0.0262,-1.63001 -0.36683,-1.4792 -0.31257,0.11995 -0.40514,0.0597 -0.31019,-0.20193 0.0744,-0.20509 0.26926,-0.34312 0.43297,-0.30674 0.19675,0.0437 0.29766,-0.51692 0.29766,-1.65365 0,-1.35231 -0.0848,-1.71979 -0.39687,-1.71979 -0.21829,0 -0.39688,-0.11906 -0.39688,-0.26459 0,-0.14552 0.17859,-0.26458 0.39688,-0.26458 0.27219,0 0.3956,-0.27013 0.39282,-0.85989 -0.007,-1.42734 -0.46708,-1.78008 -3.03866,-2.32833 -0.87312,-0.18614 -1.91492,-0.5005 -2.3151,-0.69857 l -0.727606,-0.36013 v 5.29167 5.29166 l 0.785156,0.40602 c 1.12641,0.58249 2.60545,0.89626 3.97734,0.84376 l 1.19063,-0.0456 z m -2.44863,0.4778 c -0.19567,-0.3166 0.30205,-0.63029 0.65447,-0.41249 0.2959,0.18288 0.10165,0.65879 -0.2689,0.65879 -0.12834,0 -0.30185,-0.11083 -0.38557,-0.2463 z m -2.78943,-1.07661 c 0,-0.49389 0.0706,-0.56445 0.3175,-0.3175 0.24695,0.24694 0.24695,0.38805 0,0.635 -0.24694,0.24694 -0.3175,0.17639 -0.3175,-0.3175 z m 1.24192,-1.22753 c -0.21138,-0.21138 0.0276,-0.62456 0.3612,-0.62456 0.13693,0 0.24897,0.1786 0.24897,0.39688 0,0.40915 -0.3122,0.52565 -0.61017,0.22768 z m 1.57311,-1.60189 c -0.29797,-0.29797 -0.18147,-0.61017 0.22768,-0.61017 0.21828,0 0.39688,0.11204 0.39688,0.24897 0,0.33364 -0.41317,0.57259 -0.62456,0.3612 z m -3.03992,-0.86152 c 0.11369,-0.34108 0.4766,-0.40235 0.50932,-0.086 0.0109,0.1055 -0.12303,0.23945 -0.29765,0.29766 -0.17463,0.0582 -0.26988,-0.037 -0.21167,-0.21167 z m 1.46681,-1.50534 c -0.21138,-0.21138 0.0276,-0.62456 0.3612,-0.62456 0.13693,0 0.24897,0.1786 0.24897,0.39688 0,0.40915 -0.3122,0.52565 -0.61017,0.22768 z m 1.54751,-1.66461 c -0.19567,-0.3166 0.30205,-0.63029 0.65447,-0.41249 0.2959,0.18288 0.10165,0.65879 -0.2689,0.65879 -0.12834,0 -0.30185,-0.11083 -0.38557,-0.2463 z m -3.05401,-0.81203 c 0,-0.14552 0.11906,-0.26458 0.26458,-0.26458 0.14553,0 0.26459,0.11906 0.26459,0.26458 0,0.14552 -0.11906,0.26458 -0.26459,0.26458 -0.14552,0 -0.26458,-0.11906 -0.26458,-0.26458 z m 9.30618,8.17759 c 0.44198,-0.23654 0.4834,-0.68735 0.4834,-5.26079 v -5.00208 l -0.7276,0.37935 c -0.40018,0.20864 -1.41598,0.51547 -2.25732,0.68184 -1.41323,0.27945 -1.49886,0.33658 -1.12448,0.75027 0.32904,0.36358 0.40524,1.2587 0.40524,4.76051 v 4.31273 l 1.36868,-0.18156 c 0.75278,-0.0999 1.58621,-0.29798 1.85208,-0.44027 z m -0.57493,-1.43071 c 0,-0.21828 0.11906,-0.39688 0.26458,-0.39688 0.14553,0 0.26459,0.1786 0.26459,0.39688 0,0.21828 -0.11906,0.39687 -0.26459,0.39687 -0.14552,0 -0.26458,-0.17859 -0.26458,-0.39687 z m -1.32292,-1.45521 c 0,-0.14552 0.1786,-0.26459 0.39688,-0.26459 0.21828,0 0.39687,0.11907 0.39687,0.26459 0,0.14552 -0.17859,0.26458 -0.39687,0.26458 -0.21828,0 -0.39688,-0.11906 -0.39688,-0.26458 z m -0.93425,-1.33621 c -0.25141,-0.40679 0.093,-0.66925 0.43255,-0.32966 0.19002,0.19002 0.19458,0.33801 0.0139,0.4497 -0.14815,0.0915 -0.34904,0.0375 -0.44643,-0.12004 z m 1.99259,-1.82318 c 0,-0.13693 0.11906,-0.32255 0.26458,-0.41249 0.14552,-0.0899 0.26458,0.0221 0.26458,0.24897 0,0.22687 -0.11906,0.41249 -0.26458,0.41249 -0.14552,0 -0.26458,-0.11203 -0.26458,-0.24897 z m -1.17666,-1.58051 c -0.0852,-0.13784 -0.0421,-0.32032 0.0957,-0.40551 0.13784,-0.0852 0.32031,-0.0421 0.4055,0.0957 0.0852,0.13784 0.0421,0.32031 -0.0957,0.4055 -0.13784,0.0852 -0.32032,0.0421 -0.40551,-0.0957 z m -11.258759,-1.32226 v -6.59133 l -1.124479,-0.18627 c -0.618464,-0.10245 -1.332839,-0.2957 -1.5875,-0.42944 -0.434991,-0.22845 -0.463021,0.14926 -0.463021,6.23912 0,7.26489 -0.142237,6.75675 2.034717,7.26894 0.554395,0.13043 1.037757,0.24911 1.074137,0.26373 0.03638,0.0146 0.06615,-2.93952 0.06615,-6.56475 z m 2.586135,1.84817 c 0.04964,-3.15312 0.17512,-4.73508 0.396875,-5.00372 0.178356,-0.21607 0.949359,-0.66976 1.713349,-1.00819 l 1.38906,-0.61535 v -1.32625 c 0,-0.72944 -0.0446,-1.32625 -0.099,-1.32625 -0.0545,0 -0.60521,0.17859 -1.22389,0.39687 -0.61867,0.21828 -1.824269,0.39688 -2.679098,0.39688 h -1.554234 v 6.63055 6.63056 l 0.992187,-0.0821 0.992188,-0.0821 z m 17.059174,4.13117 0.99219,-0.41935 v -6.45513 -6.45514 l -1.38906,0.47987 c -1.69949,0.58712 -4.17341,0.63028 -5.91108,0.10314 -0.71435,-0.2167 -1.35835,-0.39546 -1.43111,-0.39724 -0.0728,-0.002 -0.0921,0.64149 -0.043,1.42948 0.0765,1.22796 0.17438,1.45405 0.68461,1.58211 0.32742,0.0822 0.91231,0.39877 1.29976,0.70353 l 0.70444,0.55412 v 4.58896 c 0,3.415 0.0846,4.62722 0.33073,4.73853 0.60326,0.27283 3.75443,-0.0268 4.7625,-0.45288 z m -4.03489,-0.85884 c 0,-0.22687 0.11906,-0.3389 0.26458,-0.24897 0.14552,0.0899 0.26458,0.27556 0.26458,0.41249 0,0.13694 -0.11906,0.24897 -0.26458,0.24897 -0.14552,0 -0.26458,-0.18562 -0.26458,-0.41249 z m 2.91041,-0.24897 c 0,-0.21828 0.11907,-0.39687 0.26459,-0.39687 0.14552,0 0.26458,0.17859 0.26458,0.39687 0,0.21828 -0.11906,0.39688 -0.26458,0.39688 -0.14552,0 -0.26459,-0.1786 -0.26459,-0.39688 z m -1.5875,-1.5875 c 0,-0.24253 0.128,-0.39831 0.28443,-0.34616 0.15644,0.0522 0.28443,0.20792 0.28443,0.34616 0,0.13825 -0.12799,0.29402 -0.28443,0.34617 -0.15643,0.0521 -0.28443,-0.10363 -0.28443,-0.34617 z m 2.64584,-0.66146 c 0,-0.14552 0.11906,-0.26458 0.26458,-0.26458 0.14552,0 0.26458,0.11906 0.26458,0.26458 0,0.14553 -0.11906,0.26459 -0.26458,0.26459 -0.14552,0 -0.26458,-0.11906 -0.26458,-0.26459 z m -4.23334,-1.32291 c 0,-0.14552 0.11907,-0.26459 0.26459,-0.26459 0.14552,0 0.26458,0.11907 0.26458,0.26459 0,0.14552 -0.11906,0.26458 -0.26458,0.26458 -0.14552,0 -0.26459,-0.11906 -0.26459,-0.26458 z m 3.094,0.0954 c -0.21138,-0.21139 0.0276,-0.62456 0.3612,-0.62456 0.13694,0 0.24897,0.1786 0.24897,0.39688 0,0.40915 -0.3122,0.52564 -0.61017,0.22768 z m -1.62749,-1.92919 c -0.19567,-0.3166 0.30206,-0.6303 0.65448,-0.41249 0.2959,0.18287 0.10164,0.65879 -0.2689,0.65879 -0.12835,0 -0.30186,-0.11084 -0.38558,-0.2463 z m 2.76683,-0.67974 c 0,-0.21828 0.11906,-0.39688 0.26458,-0.39688 0.14552,0 0.26458,0.1786 0.26458,0.39688 0,0.21828 -0.11906,0.39687 -0.26458,0.39687 -0.14552,0 -0.26458,-0.17859 -0.26458,-0.39687 z m -4.0791,-1.15512 c -0.11397,-0.18441 -0.13577,-0.40675 -0.0484,-0.49408 0.23679,-0.2368 0.49497,0.11146 0.36708,0.49515 -0.0896,0.26886 -0.15194,0.26865 -0.31864,-0.001 z m 2.91402,-0.25876 c -0.0916,-0.14814 -0.0375,-0.34903 0.12003,-0.44642 0.40679,-0.25141 0.66926,0.093 0.32967,0.43255 -0.19002,0.19002 -0.33801,0.19458 -0.4497,0.0139 z m -1.56176,-1.79803 c -0.21138,-0.21138 0.0276,-0.62455 0.3612,-0.62455 0.13694,0 0.24897,0.17859 0.24897,0.39687 0,0.40916 -0.3122,0.52565 -0.61017,0.22768 z m -3.04328,-0.37981 c 0.0521,-0.15644 0.20791,-0.28443 0.34616,-0.28443 0.13824,0 0.29402,0.12799 0.34616,0.28443 0.0521,0.15643 -0.10363,0.28442 -0.34616,0.28442 -0.24254,0 -0.39831,-0.12799 -0.34616,-0.28442 z m 5.54522,-0.23151 c 0.1137,-0.34109 0.4766,-0.40235 0.50932,-0.086 0.0109,0.1055 -0.12303,0.23945 -0.29765,0.29765 -0.17463,0.0582 -0.26988,-0.037 -0.21167,-0.21166 z m -7.03984,-0.25953 c -0.0837,-0.13547 -0.0312,-0.32109 0.11667,-0.41249 0.1479,-0.0914 0.2689,0.0194 0.2689,0.2463 0,0.46475 -0.15877,0.53318 -0.38557,0.16619 z m 0.38993,3.79764 c 0.48356,-0.28242 0.92912,-0.66323 0.99012,-0.84625 0.16673,-0.50018 -1.95989,-1.3311 -3.91294,-1.52887 -3.79574,-0.38436 -7.7883,1.20324 -5.76261,2.29146 1.12153,0.60248 2.17691,0.74388 5.00251,0.67022 2.20314,-0.0574 2.99206,-0.18308 3.68292,-0.58656 z m -7.40214,-0.23134 c -0.17536,-0.21129 -0.27923,-0.58077 -0.23084,-0.82105 0.0588,-0.29176 0.19023,-0.16414 0.39574,0.38416 0.34196,0.91234 0.30686,1.00534 -0.1649,0.43689 z m 1.41531,0.12495 c -0.7476,-0.30208 -0.96021,-0.94619 -0.45164,-1.36827 0.22748,-0.18879 1.20331,-0.38788 2.16851,-0.44242 1.54167,-0.0871 1.81876,-0.0286 2.28036,0.48144 l 0.52543,0.58061 -0.62232,0.50393 c -0.66612,0.53939 -2.83437,0.67543 -3.90034,0.24471 z m 3.38978,-0.56298 c 0.43915,-0.23502 0.47498,-0.33895 0.18104,-0.52511 -0.48716,-0.30853 -3.17322,-0.29765 -3.6674,0.0148 -0.94645,0.59852 2.40494,1.08903 3.48636,0.51027 z m 1.29066,0.13869 c 0.0127,-0.30823 0.0754,-0.37092 0.15985,-0.15985 0.0764,0.19099 0.067,0.4192 -0.0209,0.50711 -0.0879,0.0879 -0.15045,-0.0684 -0.13897,-0.34726 z m 0.66703,-0.269 c -0.0942,-0.24538 -0.11167,-0.50568 -0.0389,-0.57844 0.0728,-0.0728 0.20933,0.0685 0.30349,0.31386 0.0942,0.24539 0.11168,0.50569 0.0389,0.57845 -0.0728,0.0728 -0.20934,-0.0685 -0.3035,-0.31387 z m -8.09625,-0.10583 c 0,-0.14552 0.12609,-0.26458 0.2802,-0.26458 0.15411,0 0.20661,0.11906 0.11668,0.26458 -0.0899,0.14552 -0.21603,0.26458 -0.2802,0.26458 -0.0642,0 -0.11668,-0.11906 -0.11668,-0.26458 z m 7.1996,-4.43023 0.0764,-2.31356 0.99205,-0.64109 c 1.12811,-0.72902 1.15286,-0.96573 0.0574,-0.54925 -0.97,0.36879 -5.09122,0.37126 -6.05817,0.004 -1.02256,-0.38877 -1.17626,-0.13321 -0.32337,0.53768 0.6597,0.51891 0.70185,0.68529 0.70185,2.77023 v 2.21817 l 1.91823,0.0913 c 1.05503,0.0502 2.06243,0.11497 2.23866,0.14388 0.22569,0.037 0.34303,-0.63145 0.39688,-2.26099 z m -6.3228,-0.9561 c 1.82843,-0.76397 1.17282,-1.52323 -1.755607,-2.03319 -2.647678,-0.46107 -6.264942,0.2642 -6.264942,1.25615 0,1.23166 5.627608,1.77687 8.020549,0.77704 z m -4.845549,-0.094 c -0.922814,-0.34164 -1.092203,-0.65824 -0.627126,-1.17215 0.563084,-0.6222 2.924358,-0.68254 3.68541,-0.0942 0.504008,0.38965 0.501936,0.40693 -0.111032,0.92605 -0.605129,0.51247 -2.035921,0.67767 -2.947252,0.34028 z m 2.312128,-0.50645 c 0.325786,-0.0873 0.527118,-0.26428 0.447407,-0.39326 -0.192267,-0.31109 -3.024118,-0.30357 -3.024118,0.008 0,0.48433 1.416716,0.69614 2.576711,0.38523 z m -4.428795,-0.083 c 0,-0.13693 0.09922,-0.31029 0.220486,-0.38524 0.121269,-0.0749 0.220487,0.0371 0.220487,0.24897 0,0.21188 -0.09922,0.38524 -0.220487,0.38524 -0.121267,0 -0.220486,-0.11204 -0.220486,-0.24897 z m 21.808586,0.76401 c 1.08689,-0.53733 1.11719,-0.94188 0.10955,-1.46295 -1.72853,-0.89386 -7.40586,-0.47488 -7.80924,0.57631 -0.19237,0.50131 -0.0824,0.60264 1.1511,1.06096 1.28821,0.47863 5.45202,0.36779 6.54859,-0.17432 z m -5.40442,-0.38275 c -0.59339,-0.71499 0.13922,-1.19062 1.83391,-1.19062 1.79493,0 2.71288,0.49413 2.1586,1.16199 -0.48088,0.57943 -3.51732,0.6012 -3.99251,0.0286 z m 3.06435,-0.13229 c 0.20638,0 0.37523,-0.11906 0.37523,-0.26458 0,-0.14553 -0.65484,-0.26459 -1.4552,-0.26459 -0.80037,0 -1.45521,0.11116 -1.45521,0.24701 0,0.26715 1.23387,0.52207 1.80758,0.37344 0.1938,-0.0502 0.52122,-0.0913 0.7276,-0.0913 z m -4.65185,-0.26458 c 0,-0.14553 0.11906,-0.26459 0.26458,-0.26459 0.14553,0 0.26459,0.11906 0.26459,0.26459 0,0.14552 -0.11906,0.26458 -0.26459,0.26458 -0.14552,0 -0.26458,-0.11906 -0.26458,-0.26458 z m 6.25432,-0.1323 c 0.0838,-0.21828 0.19909,-0.39687 0.25628,-0.39687 0.0572,0 0.10398,0.17859 0.10398,0.39687 0,0.21828 -0.11532,0.39688 -0.25628,0.39688 -0.14095,0 -0.18774,-0.1786 -0.10398,-0.39688 z m -6.36096,-2.63831 c 0.36776,-0.24096 0.62245,-0.57674 0.56598,-0.74618 -0.19826,-0.59477 -2.37483,-1.02166 -4.58429,-0.89911 -3.78962,0.2102 -4.475,1.33838 -1.29901,2.13823 1.09997,0.27702 4.64358,-0.0515 5.31732,-0.49294 z m -5.19433,-0.28332 c -0.46637,-0.56194 -0.0459,-0.92228 1.2842,-1.10069 1.46803,-0.1969 2.42927,0.0768 2.42927,0.69176 0,0.6232 -0.4996,0.81702 -2.10591,0.81702 -0.82061,0 -1.38853,-0.14417 -1.60756,-0.40809 z m 3.05201,-0.38566 c -0.0899,-0.14552 -0.68525,-0.26458 -1.32291,-0.26458 -0.63767,0 -1.23298,0.11906 -1.32292,0.26458 -0.1016,0.1644 0.39933,0.26459 1.32292,0.26459 0.92358,0 1.42452,-0.10019 1.32291,-0.26459 z"
       style="fill:#2b1e17;fill-opacity:1;stroke-width:0.264583"
       id="path1" />
  </g>
</svg>
