<?xml version="1.0" encoding="UTF-8" standalone="no"?>
<!-- Created with Inkscape (http://www.inkscape.org/) -->

<svg
   width="21.921232mm"
   height="21.766462mm"
   viewBox="0 0 21.921232 21.766462"
   version="1.1"
   id="svg1"
   inkscape:version="1.4.2 (f4327f4, 2025-05-13)"
   sodipodi:docname="sawhorse.svg"
   xmlns:inkscape="http://www.inkscape.org/namespaces/inkscape"
   xmlns:sodipodi="http://sodipodi.sourceforge.net/DTD/sodipodi-0.dtd"
   xmlns="http://www.w3.org/2000/svg"
   xmlns:svg="http://www.w3.org/2000/svg">
  <sodipodi:namedview
     id="namedview1"
     pagecolor="#ffffff"
     bordercolor="#000000"
     borderopacity="0.25"
     inkscape:showpageshadow="2"
     inkscape:pageopacity="0.0"
     inkscape:pagecheckerboard="0"
     inkscape:deskcolor="#d1d1d1"
     inkscape:document-units="mm"
     inkscape:zoom="0.68862935"
     inkscape:cx="41.38656"
     inkscape:cy="41.38656"
     inkscape:window-width="1920"
     inkscape:window-height="991"
     inkscape:window-x="-9"
     inkscape:window-y="-9"
     inkscape:window-maximized="1"
     inkscape:current-layer="layer1" />
  <defs
     id="defs1" />
  <g
     inkscape:label="Ebene 1"
     inkscape:groupmode="layer"
     id="layer1"
     transform="translate(-94.230848,-137.65777)">
    <path
       d="m 101.41885,159.28733 c -0.87849,-0.36917 -1.0802,-0.96677 -1.529078,-4.53031 -0.579567,-4.60102 -0.830305,-5.99097 -0.997945,-5.53202 -0.07973,0.21828 -0.475107,2.04438 -0.87861,4.058 -0.796475,3.97465 -0.908828,4.14408 -2.74805,4.14408 -1.405003,0 -1.400881,-0.21176 0.149061,-7.65841 l 1.453499,-6.98329 -0.676576,-0.62736 c -0.923512,-0.85633 -0.972511,-2.63186 -0.08126,-2.9446 1.082831,-0.37998 14.598249,-1.71832 15.544269,-1.53925 0.50932,0.0964 1.31299,0.41131 1.78594,0.69979 0.74512,0.4545 0.85989,0.66936 0.85989,1.60972 0,0.95114 -0.0935,1.1205 -0.7571,1.37097 l -0.75709,0.28578 0.34687,1.34489 c 0.65782,2.55048 3.01941,13.62043 3.01941,14.15346 0,1.0556 -2.18845,1.49682 -2.99636,0.6041 -0.23789,-0.26287 -0.6032,-1.36419 -0.81179,-2.44739 -0.61946,-3.21682 -1.00494,-4.51023 -1.31355,-4.40736 -0.16005,0.0534 -0.47213,1.14825 -0.69351,2.43311 -0.43693,2.53595 -0.59811,2.72725 -2.32903,2.76433 -1.13198,0.0242 -1.26081,-0.36894 -0.87882,-2.68201 0.16974,-1.02779 0.2632,-1.91411 0.2077,-1.96961 -0.0555,-0.0555 -1.01178,0.0346 -2.12506,0.20015 -1.56133,0.23222 -2.02417,0.39863 -2.02417,0.72777 0,0.23469 0.20076,1.76968 0.44612,3.41109 0.28738,1.92246 0.35504,3.07546 0.19017,3.24033 -0.39059,0.3906 -1.75704,0.5463 -2.40493,0.27404 z m 1.76864,-0.87918 c 0,-0.23748 -2.1376,-13.47744 -2.30958,-14.30519 -0.11318,-0.54477 -0.29468,-0.98439 -0.40331,-0.97693 -0.10864,0.007 -0.4508,0.0136 -0.760353,0.0136 -0.6731,0 -0.688226,-0.23187 0.543673,8.33437 1.10455,7.68066 0.91285,7.01146 2.00857,7.01146 0.50655,0 0.921,-0.0348 0.921,-0.0773 z m 11.82886,-1.19222 c 0.23969,-0.15233 -0.0731,-1.98512 -1.25222,-7.33813 -0.86441,-3.9243 -1.57373,-7.33643 -1.57624,-7.5825 -0.006,-0.59721 -0.37592,-0.79291 -1.13729,-0.60182 l -0.62789,0.15759 0.63491,3.09165 c 0.41104,2.0015 0.81474,3.28426 1.14489,3.63787 0.51589,0.55255 0.69932,1.84915 0.28457,2.01142 -0.30627,0.11983 0.83475,5.89718 1.26771,6.41888 0.37772,0.45512 0.76822,0.51859 1.26156,0.20504 z M 96.275511,156.276 c 0.163107,-0.19653 0.77688,-2.48849 1.363937,-5.09323 0.832612,-3.69424 1.030798,-5.03248 0.901057,-6.08431 -0.169524,-1.37434 -0.496123,-2.19563 -0.76586,-1.92589 -0.158028,0.15803 -2.789235,12.53505 -2.789235,13.12038 0,0.44937 0.913043,0.43737 1.290101,-0.017 z m 12.641119,-1.16807 c 0.27091,-0.17257 0.88545,-2.74061 0.88545,-3.70014 0,-0.24203 -0.24275,-0.33752 -0.71721,-0.28214 -0.7557,0.0882 -0.82327,0.25512 -1.23905,3.06028 -0.14248,0.96133 -0.099,1.1239 0.29948,1.12043 0.25638,-0.002 0.60348,-0.0915 0.77133,-0.19843 z m -0.70205,-4.70547 c 1.96453,-0.23401 3.68108,-0.53123 3.81455,-0.6605 0.56021,-0.54255 -0.94956,-0.57555 -4.91135,-0.10732 -3.77118,0.44569 -4.19487,0.54655 -4.19487,0.99855 0,0.42245 0.13739,0.47817 0.8599,0.34876 0.47294,-0.0847 2.46724,-0.34549 4.43177,-0.57949 z m -2.13727,-1.4384 c 0.93456,-0.13942 1.82158,-0.37587 1.97115,-0.52545 0.35323,-0.35323 -0.2171,-0.35176 -2.45804,0.006 -2.59763,0.41509 -2.93209,0.50275 -2.93209,0.76846 0,0.24282 0.2347,0.2257 3.41898,-0.24934 z m 4.32882,-0.88452 c 0.24005,-0.34996 0.10555,-1.73724 -0.37635,-3.88163 l -0.32703,-1.4552 -0.46956,2.38125 c -0.67425,3.41928 -0.65703,3.6713 0.23551,3.44728 0.39872,-0.10007 0.82056,-0.32134 0.93743,-0.4917 z m -4.44813,-0.45709 c 1.01445,-0.15311 1.89303,-0.32696 1.95239,-0.38632 0.0594,-0.0594 0.31449,-1.24349 0.56696,-2.63141 l 0.45904,-2.52347 -0.82393,0.01 c -1.3329,0.0161 -6.21346,0.66119 -6.39796,0.84569 -0.0932,0.0932 0.0361,1.31066 0.28723,2.70552 l 0.45664,2.53612 0.82758,-0.13884 c 0.45517,-0.0764 1.65759,-0.26411 2.67205,-0.41723 z m -0.12467,-6.1855 c 7.97663,-0.90037 7.7235,-0.84878 7.6232,-1.55359 -0.0693,-0.48704 -0.23132,-0.56926 -1.00862,-0.5119 -2.39426,0.17669 -13.860412,1.40076 -13.948751,1.4891 -0.05496,0.055 -0.01939,0.42071 0.079,0.8128 0.14097,0.56167 0.298048,0.68347 0.740482,0.57422 0.308856,-0.0763 3.240469,-0.44105 6.514689,-0.81063 z m -7.937503,-0.0237 c 0,-0.47361 -0.197504,-0.7431 -0.678683,-0.92604 -0.898541,-0.34163 -0.908817,-0.33873 -0.908817,0.25613 0,0.47168 0.894635,1.33792 1.381789,1.33792 0.113141,0 0.205711,-0.30061 0.205711,-0.66801 z m 8.069793,-1.86397 c 3.4925,-0.3788 6.39381,-0.73218 6.44737,-0.78529 0.43889,-0.43527 -2.37616,-0.35063 -7.9979,0.24049 -3.65836,0.38466 -6.830149,0.70274 -7.04843,0.70684 -0.236506,0.004 -0.129595,0.16157 0.264584,0.38889 0.363802,0.2098 0.959114,0.32663 1.322916,0.25962 0.363802,-0.067 3.51896,-0.43175 7.01146,-0.81055 z"
       style="fill:#2b1e17;fill-opacity:1;stroke-width:0.264583"
       id="path1" />
  </g>
</svg>
