<?xml version="1.0" encoding="UTF-8" standalone="no"?>
<!-- Created with Inkscape (http://www.inkscape.org/) -->

<svg
   width="22.41873mm"
   height="22.971226mm"
   viewBox="0 0 22.41873 22.971226"
   version="1.1"
   id="svg1"
   inkscape:version="1.4.2 (f4327f4, 2025-05-13)"
   sodipodi:docname="screwdriver.svg"
   xmlns:inkscape="http://www.inkscape.org/namespaces/inkscape"
   xmlns:sodipodi="http://sodipodi.sourceforge.net/DTD/sodipodi-0.dtd"
   xmlns="http://www.w3.org/2000/svg"
   xmlns:svg="http://www.w3.org/2000/svg">
  <sodipodi:namedview
     id="namedview1"
     pagecolor="#ffffff"
     bordercolor="#000000"
     borderopacity="0.25"
     inkscape:showpageshadow="2"
     inkscape:pageopacity="0.0"
     inkscape:pagecheckerboard="0"
     inkscape:deskcolor="#d1d1d1"
     inkscape:document-units="mm"
     inkscape:zoom="0.68862935"
     inkscape:cx="41.38656"
     inkscape:cy="42.83872"
     inkscape:window-width="1920"
     inkscape:window-height="991"
     inkscape:window-x="-9"
     inkscape:window-y="-9"
     inkscape:window-maximized="1"
     inkscape:current-layer="layer1" />
  <defs
     id="defs1" />
  <g
     inkscape:label="Ebene 1"
     inkscape:groupmode="layer"
     id="layer1"
     transform="translate(-93.99793,-137.05417)">
    <path
       d="m 95.580525,159.29652 c -1.168638,-0.84655 -1.818113,-2.25228 -1.503574,-3.25434 0.324924,-1.03515 4.365411,-4.94539 6.133979,-5.93625 1.01154,-0.56672 1.65365,-1.10024 1.65365,-1.37399 0,-0.24614 0.19277,-0.72274 0.42837,-1.0591 0.34812,-0.49702 0.58673,-0.58187 1.27383,-0.45297 0.80404,0.15084 1.02287,-0.0216 4.46642,-3.5203 1.99153,-2.02339 3.62096,-3.86735 3.62096,-4.09767 0,-0.42333 2.46774,-2.54773 2.95948,-2.54773 0.43641,0 1.80302,1.06918 1.80302,1.41061 0,0.69171 -1.89754,3.09947 -2.71843,3.44938 -0.46939,0.20008 -2.38893,1.93323 -4.26565,3.85145 -2.56555,2.6223 -3.33694,3.56295 -3.10885,3.79104 0.75502,0.75502 0.10892,2.02835 -1.23773,2.43927 -0.38597,0.11778 -0.79544,0.60852 -1.09937,1.31758 -0.53224,1.24167 -3.38011,4.54724 -5.082652,5.89952 -1.335683,1.0609 -1.952789,1.07641 -3.323453,0.0835 z m 5.047845,-3.0746 c 1.08763,-1.17074 2.24905,-2.70627 2.58091,-3.41228 0.47296,-1.00619 0.82179,-1.36946 1.61372,-1.68054 0.55568,-0.21828 1.01033,-0.48158 1.01033,-0.58511 0,-0.10353 -0.60785,-0.75682 -1.35078,-1.45174 -1.05345,-0.98538 -1.402,-1.18263 -1.58345,-0.8961 -0.12797,0.20207 -0.23449,0.555 -0.23672,0.7843 -0.005,0.52039 -0.84102,1.27741 -2.3853,2.16004 -1.723686,0.98516 -5.291666,4.73344 -5.291666,5.55907 0,0.7751 0.899999,2.00522 1.69019,2.31017 0.791223,0.30534 1.626362,-0.28367 3.952766,-2.78781 z m -3.490404,1.82606 c 0.163986,-0.51905 4.488224,-4.88959 4.751094,-4.80197 0.13638,0.0455 -0.89851,1.21316 -2.299766,2.59489 -1.401252,1.38172 -2.50435,2.37491 -2.451328,2.20708 z m -1.358802,-1.35401 c 0,-0.38045 4.744656,-4.92917 4.938886,-4.73494 0.10613,0.10613 -0.869925,1.26079 -2.169008,2.56593 -2.217841,2.22816 -2.769878,2.66044 -2.769878,2.16901 z M 113.5611,140.93853 c 0.56195,-0.19272 1.87297,-2.22484 1.65886,-2.57129 -0.0866,-0.1401 -0.30188,-0.25474 -0.47842,-0.25474 -0.45161,0 -2.29363,1.56001 -2.29363,1.94248 0,0.17404 -1.675,2.0686 -3.72222,4.21012 -4.98991,5.21974 -4.5983,5.72091 0.51475,0.65876 2.12791,-2.10672 4.07221,-3.90012 4.32066,-3.98533 z"
       style="fill:#2b1e17;fill-opacity:1;stroke-width:0.264583"
       id="path1" />
  </g>
</svg>
