<?xml version="1.0" encoding="UTF-8" standalone="no"?>
<!-- Created with Inkscape (http://www.inkscape.org/) -->

<svg
   width="24mm"
   height="24mm"
   viewBox="0 0 24 24"
   version="1.1"
   id="svg1"
   inkscape:version="1.4.2 (f4327f4, 2025-05-13)"
   sodipodi:docname="spray_gun.svg"
   xmlns:inkscape="http://www.inkscape.org/namespaces/inkscape"
   xmlns:sodipodi="http://sodipodi.sourceforge.net/DTD/sodipodi-0.dtd"
   xmlns="http://www.w3.org/2000/svg"
   xmlns:svg="http://www.w3.org/2000/svg">
  <sodipodi:namedview
     id="namedview1"
     pagecolor="#ffffff"
     bordercolor="#000000"
     borderopacity="0.25"
     inkscape:showpageshadow="2"
     inkscape:pageopacity="0.0"
     inkscape:pagecheckerboard="0"
     inkscape:deskcolor="#d1d1d1"
     inkscape:document-units="mm"
     inkscape:zoom="0.68862935"
     inkscape:cx="44.29088"
     inkscape:cy="50.09952"
     inkscape:window-width="1920"
     inkscape:window-height="991"
     inkscape:window-x="-9"
     inkscape:window-y="-9"
     inkscape:window-maximized="1"
     inkscape:current-layer="layer1" />
  <defs
     id="defs1" />
  <g
     inkscape:label="Ebene 1"
     inkscape:groupmode="layer"
     id="layer1"
      transform="translate(1.414714 0) scale(0.906093) translate(-93.517248,-135.33782)">
    <path
       d="m 111.45573,161.65505 c -0.32742,-0.13319 -0.59532,-0.45396 -0.59532,-0.71281 0,-0.25885 -0.30321,-1.3811 -0.67379,-2.49388 l -0.6738,-2.02323 -1.13846,-0.17072 -1.13847,-0.17072 0.12242,-1.27405 0.12242,-1.27405 -1.77142,-0.1422 c -1.43466,-0.11516 -1.90839,-0.2734 -2.49183,-0.83237 -0.41643,-0.39898 -1.02479,-0.69019 -1.44182,-0.69019 -0.3972,0 -0.78988,-0.17837 -0.87373,-0.39687 -0.0838,-0.21828 -0.34904,-0.39688 -0.58951,-0.39688 -0.534398,0 -1.19833,0.96242 -0.82367,1.19398 0.142542,0.0881 0.259165,0.39528 0.259165,0.68264 0,0.31666 0.364805,0.73772 0.926045,1.06886 l 0.92604,0.54637 v 2.99453 c 0,1.72008 -0.1104,3.03206 -0.2594,3.08272 -0.14267,0.0485 -1.630949,0.0512 -3.307291,0.006 l -3.047894,-0.0822 v -2.87514 -2.87514 l 0.992187,-0.81893 0.992188,-0.81894 0.01368,-2.44147 c 0.0075,-1.34281 0.03729,-2.5903 0.06615,-2.7722 0.08928,-0.56281 1.85312,-0.40589 2.23053,0.19843 0.325197,0.52073 1.52609,0.75257 1.52609,0.29463 0,-0.129 0.53719,-0.3151 1.19376,-0.41356 1.05152,-0.15768 1.25708,-0.30313 1.72517,-1.22066 l 0.53142,-1.04166 -0.56325,-1.10405 c -0.76203,-1.4937 -0.57864,-2.49225 0.96347,-5.24595 0.69269,-1.23692 1.33264,-2.59478 1.4221,-3.01745 0.3553,-1.67864 0.98033,-1.53285 5.90598,1.3776 1.77711,1.05005 2.05053,1.3099 2.05053,1.9488 0,0.49097 -0.21717,0.87948 -0.65019,1.16321 -0.35761,0.23431 -1.11858,1.27946 -1.69106,2.32254 -1.30158,2.37154 -2.20961,3.29241 -3.44309,3.49177 -0.52939,0.0856 -1.26019,0.29681 -1.62399,0.46944 -0.54371,0.25801 0.1571,0.3268 3.93689,0.38643 5.66791,0.0894 5.96067,0.21643 6.2503,2.71184 0.21763,1.87516 -0.0571,2.37499 -1.30548,2.37499 -0.46369,0 -1.0679,0.1644 -1.34269,0.36534 -0.48234,0.35268 -0.46161,0.46947 0.5988,3.37343 1.47562,4.04111 1.475,4.03797 0.93028,4.6651 -0.53852,0.62 -3.23884,0.99363 -4.23945,0.5866 z m 3.54843,-1.20113 c 0.0871,-0.22701 -0.33428,-1.74506 -0.93642,-3.37344 -1.28764,-3.48215 -1.34723,-4.18486 -0.41267,-4.86564 l 0.67798,-0.49388 -0.47955,-1.50892 -0.47954,-1.50892 -1.65365,-0.0509 c -0.9095,-0.028 -1.91161,-0.0594 -2.22691,-0.0698 -0.31529,-0.0104 -0.62287,0.12993 -0.68351,0.31183 -0.0817,0.2452 0.40864,0.33073 1.89619,0.33073 1.60709,0 2.00642,0.079 2.00642,0.39687 0,0.31156 -0.36507,0.39688 -1.69815,0.39688 -2.06606,0 -2.50536,-0.15169 -2.81757,-0.97287 -0.23203,-0.61028 -0.33059,-0.63299 -2.42713,-0.55923 l -2.18528,0.0769 -0.081,1.41799 c -0.12158,2.12893 0.25239,2.41847 3.12368,2.41847 2.60997,0 3.00035,0.2262 3.31482,1.92069 0.1474,0.79428 0.32513,1.02398 0.88228,1.14024 1.22372,0.25535 1.47865,0.52686 2.09245,2.22851 0.68602,1.90188 0.59929,2.50286 -0.41468,2.87374 -0.62067,0.22703 -0.51277,0.26448 0.81416,0.2826 1.15532,0.0158 1.56842,-0.0801 1.68805,-0.39186 z m -2.46111,-0.45341 c 0.43481,-0.31794 0.4264,-0.4338 -0.14894,-2.05052 -0.47902,-1.34608 -0.73721,-1.73167 -1.20403,-1.79808 -0.32684,-0.0465 -0.59425,-0.006 -0.59425,0.089 0,0.46942 1.16266,4.09661 1.31313,4.09661 0.0953,0 0.38062,-0.15165 0.63409,-0.33699 z m -11.7368,-2.17655 v -1.98438 l -0.72761,-0.002 c -0.400178,-0.001 -1.531272,-0.0778 -2.513538,-0.17055 l -1.785937,-0.1687 v 2.15493 2.15492 h 2.513542 2.513543 z m 8.27792,-3.18626 c -0.0789,-1.04449 -0.29085,-1.50582 -0.60314,-1.31282 -0.29961,0.18517 -0.36522,1.79857 -0.0846,2.07924 0.37116,0.37116 0.74238,-0.0426 0.68769,-0.76642 z m -8.54251,0.4506 c 0,-0.73523 -2.621257,-1.07717 -3.875741,-0.50559 l -0.725647,0.33062 0.779341,0.16724 c 1.183325,0.25392 3.822047,0.25926 3.822047,0.008 z m -1.587495,-1.86216 c 0,-0.1277 -0.187669,-0.38793 -0.417042,-0.57829 -0.345622,-0.28685 -0.4582,-0.28107 -0.657405,0.0337 -0.383672,0.60634 -0.293071,0.77674 0.412989,0.77674 0.363802,0 0.661458,-0.10448 0.661458,-0.23219 z m 16.933335,-2.14906 c 0,-0.66266 -0.10545,-0.79375 -0.63848,-0.79375 -0.59961,0 -0.62023,0.0483 -0.33887,0.79375 0.16479,0.43656 0.4521,0.79375 0.63848,0.79375 0.20013,0 0.33887,-0.32497 0.33887,-0.79375 z m -17.197918,-1.05833 c 0,-1.23473 -0.08819,-1.5875 -0.396875,-1.5875 -0.308682,0 -0.396875,0.35277 -0.396875,1.5875 0,1.23472 0.08819,1.5875 0.396875,1.5875 0.308681,0 0.396875,-0.35278 0.396875,-1.5875 z m 3.704168,0 c 0,-0.88195 -0.0882,-1.05834 -0.52917,-1.05834 -0.40317,0 -0.52917,0.17639 -0.52917,0.74084 0,0.7141 0.40723,1.37583 0.84667,1.37583 0.11642,0 0.21167,-0.47625 0.21167,-1.05833 z m -1.85209,-0.13229 c 0,-0.21828 -0.17859,-0.39688 -0.39687,-0.39688 -0.218281,0 -0.396875,0.1786 -0.396875,0.39688 0,0.21828 0.178594,0.39687 0.396875,0.39687 0.21828,0 0.39687,-0.17859 0.39687,-0.39687 z m 15.55587,-0.59532 C 115.9536,148.43393 114.3,148.08911 114.3,148.91632 c 0,0.66704 0.22711,0.83784 1.11403,0.83784 0.57823,0 0.74256,-0.11132 0.6835,-0.46302 z m -10.52878,-2.44739 c 0.43355,-0.46412 1.01062,-0.79375 1.38959,-0.79375 1.75146,0 2.65746,-0.83904 4.35695,-4.0349 0.058,-0.10914 -1.49594,-0.19844 -3.45328,-0.19844 h -3.55881 l -0.16687,0.66486 c -0.10497,0.41822 0.0433,1.15343 0.3997,1.98188 0.53768,1.24988 0.55293,1.63126 0.10839,2.71108 -0.28607,0.69488 0.0929,0.55927 0.92433,-0.33073 z m 6.32718,-5.92563 c 0.24536,-0.29564 0.13299,-0.4725 -0.56292,-0.88599 -1.52298,-0.90491 -4.38952,-2.4488 -4.54667,-2.4488 -0.11827,0 -1.46158,2.39618 -1.96534,3.50573 -0.0496,0.10914 1.45306,0.19844 3.33914,0.19844 2.61197,0 3.50229,-0.088 3.73579,-0.36938 z m 1.16794,-1.12852 c 0.0962,-0.0962 -0.21134,-0.43282 -0.68351,-0.74797 -1.34493,-0.89765 -4.8602,-2.78122 -5.19054,-2.78122 -0.71768,0 -0.142,0.48348 2.01781,1.69463 1.27284,0.71376 2.55237,1.45165 2.84341,1.63977 0.62038,0.40097 0.7766,0.43102 1.01283,0.19479 z m -19.136788,12.89048 c 0,-0.29125 0.751543,-0.65576 1.996043,-0.96811 1.041836,-0.26148 0.748077,0.30762 -0.342398,0.66334 -0.545703,0.17801 -1.141015,0.38537 -1.322916,0.4608 -0.181901,0.0754 -0.330729,0.005 -0.330729,-0.15603 z m -0.396875,-2.13217 c -0.101603,-0.16439 0.399333,-0.26458 1.322916,-0.26458 0.923584,0 1.42452,0.10019 1.322917,0.26458 -0.08994,0.14553 -0.68525,0.26459 -1.322917,0.26459 -0.637667,0 -1.232979,-0.11906 -1.322916,-0.26459 z m 0.859895,-1.24784 c -1.092022,-0.16542 -0.875366,-0.60424 0.298334,-0.60424 0.589164,0 1.166162,0.16896 1.355312,0.39688 0.351552,0.42359 0.03542,0.46323 -1.653646,0.20736 z m 0.7951,-1.35726 c -0.544962,-0.24068 -0.991447,-0.58643 -0.992188,-0.76833 -7.93e-4,-0.1819 0.06293,-0.33073 0.141484,-0.33073 0.382082,0 2.238417,1.10156 2.238417,1.32829 0,0.33311 -0.182859,0.3029 -1.387713,-0.22923 z"
       style="fill:#2b1e17;fill-opacity:1;stroke-width:0.264583"
       id="path1" />
  </g>
</svg>

