<?xml version="1.0" encoding="UTF-8" standalone="no"?>
<!-- Created with Inkscape (http://www.inkscape.org/) -->

<svg
   width="22.104235mm"
   height="21.598177mm"
   viewBox="0 0 22.104235 21.598177"
   version="1.1"
   id="svg1"
   inkscape:version="1.4.2 (f4327f4, 2025-05-13)"
   sodipodi:docname="square_ruler.svg"
   xmlns:inkscape="http://www.inkscape.org/namespaces/inkscape"
   xmlns:sodipodi="http://sodipodi.sourceforge.net/DTD/sodipodi-0.dtd"
   xmlns="http://www.w3.org/2000/svg"
   xmlns:svg="http://www.w3.org/2000/svg">
  <sodipodi:namedview
     id="namedview1"
     pagecolor="#ffffff"
     bordercolor="#000000"
     borderopacity="0.25"
     inkscape:showpageshadow="2"
     inkscape:pageopacity="0.0"
     inkscape:pagecheckerboard="0"
     inkscape:deskcolor="#d1d1d1"
     inkscape:document-units="mm"
     inkscape:zoom="0.68862935"
     inkscape:cx="41.38656"
     inkscape:cy="41.38656"
     inkscape:window-width="1920"
     inkscape:window-height="991"
     inkscape:window-x="-9"
     inkscape:window-y="-9"
     inkscape:window-maximized="1"
     inkscape:current-layer="layer1" />
  <defs
     id="defs1" />
  <g
     inkscape:label="Ebene 1"
     inkscape:groupmode="layer"
     id="layer1"
     transform="translate(-94.059374,-137.62522)">
    <path
       d="m 95.911457,159.01961 -1.852083,-0.13732 v -10.58334 -10.58333 l 2.474044,-0.0764 c 1.596755,-0.0493 2.605323,0.0325 2.844271,0.23084 0.301308,0.25006 0.370226,1.70288 0.370226,7.80436 v 7.49709 l 7.947405,0.0773 c 6.71843,0.0653 7.98617,0.13865 8.19803,0.47415 0.43295,0.68559 0.31808,4.66536 -0.14811,5.13155 -0.35191,0.35191 -1.59327,0.39979 -9.19427,0.35465 -4.83309,-0.0287 -9.620867,-0.11398 -10.639513,-0.1895 z m 2.248958,-1.46024 c 0,-0.3638 0.119063,-0.66146 0.264584,-0.66146 0.145521,0 0.264583,0.29766 0.264583,0.66146 0,0.57957 0.114652,0.66146 0.926042,0.66146 0.824226,0 0.930396,-0.08 0.965686,-0.7276 l 0.0396,-0.72761 0.11022,0.72761 c 0.0956,0.63107 0.23075,0.7276 1.01869,0.7276 0.86549,0 0.91058,-0.0469 0.95295,-0.99219 l 0.0445,-0.99219 0.10378,0.99219 c 0.0977,0.93411 0.15706,0.99219 1.01386,0.99219 0.79435,0 0.91007,-0.0841 0.91007,-0.66146 0,-0.3638 0.11906,-0.66146 0.26458,-0.66146 0.14552,0 0.26459,0.29766 0.26459,0.66146 0,0.55857 0.12347,0.66146 0.79375,0.66146 0.70201,0 0.79375,-0.0899 0.79375,-0.77813 0,-0.42798 0.11906,-0.85173 0.26458,-0.94166 0.15746,-0.0973 0.26458,0.21774 0.26458,0.77813 0,0.89979 0.0412,0.94166 0.92604,0.94166 0.82423,0 0.9304,-0.08 0.96569,-0.7276 l 0.0396,-0.72761 0.11022,0.72761 c 0.0956,0.63107 0.23075,0.7276 1.01869,0.7276 0.86186,0 0.90847,-0.0475 0.90847,-0.92604 0,-0.50933 0.11906,-0.92604 0.26459,-0.92604 0.14552,0 0.26458,0.41671 0.26458,0.92604 0,0.85254 0.063,0.92604 0.79375,0.92604 0.67028,0 0.79375,-0.10289 0.79375,-0.66146 0,-0.3638 0.11906,-0.66146 0.26458,-0.66146 0.14552,0 0.26459,0.29766 0.26459,0.66146 0,0.48507 0.14111,0.66146 0.52916,0.66146 0.48213,0 0.52917,-0.17639 0.52917,-1.98438 v -1.98437 H 107.348 99.602319 l -1.97113,1.98437 -1.97113,1.98438 h 1.250148 c 1.157102,0 1.250148,-0.0492 1.250148,-0.66146 z m -1.113641,-2.06098 1.915821,-1.9287 -0.07036,-7.53016 -0.07036,-7.53016 H 96.8375 c -1.968088,0 -1.985063,0.006 -2.068095,0.72761 -0.07566,0.65754 7.94e-4,0.73168 0.79375,0.76994 l 0.87747,0.0423 -0.859896,0.10672 c -0.78263,0.0971 -0.859896,0.18841 -0.859896,1.01599 0,0.80866 0.07807,0.90928 0.705557,0.90928 0.388053,0 0.617775,0.0878 0.510492,0.19506 -0.107286,0.10728 -0.39502,0.19658 -0.639411,0.19844 -0.307017,0.002 -0.469971,0.26913 -0.527256,0.86327 -0.07724,0.80104 -0.02744,0.85989 0.727604,0.85989 0.445783,0 0.810514,0.11907 0.810514,0.26459 0,0.14552 -0.357187,0.26458 -0.79375,0.26458 -0.730753,0 -0.79375,0.0735 -0.79375,0.92604 0,0.82423 0.08,0.9304 0.727604,0.96569 l 0.727604,0.0396 -0.727604,0.11022 c -0.631076,0.0956 -0.727604,0.23075 -0.727604,1.01869 0,0.83302 0.06592,0.90847 0.79375,0.90847 0.436563,0 0.79375,0.11906 0.79375,0.26458 0,0.14552 -0.364731,0.26459 -0.810514,0.26459 -0.755044,0 -0.804839,0.0588 -0.727604,0.85989 0.06095,0.63212 0.200274,0.84052 0.525978,0.78674 0.24369,-0.0403 0.518607,0.049 0.610929,0.19843 0.09809,0.15872 -0.113546,0.2716 -0.509215,0.2716 -0.597411,0 -0.677074,0.10896 -0.677074,0.92604 0,0.85652 0.06076,0.92605 0.809366,0.92605 0.474175,0 0.741394,0.10997 0.645242,0.26555 -0.09026,0.14606 -0.462558,0.19065 -0.827315,0.0991 -0.631685,-0.15854 -0.659199,-0.11773 -0.579096,0.85893 0.06445,0.78591 0.19223,1.01679 0.547116,0.98863 0.254661,-0.0202 0.46302,0.0691 0.46302,0.19843 0,0.12936 -0.238125,0.23519 -0.529166,0.23519 -0.411576,0 -0.529167,0.17639 -0.529167,0.79375 0,0.43656 0.09228,0.79375 0.20506,0.79375 0.112781,0 1.067178,-0.86791 2.120882,-1.92869 z"
       style="fill:#2b1e17;fill-opacity:1;stroke-width:0.264583"
       id="path1" />
  </g>
</svg>
