<?xml version="1.0" encoding="UTF-8" standalone="no"?>
<!-- Created with Inkscape (http://www.inkscape.org/) -->

<svg
   width="25.500912mm"
   height="17.702057mm"
   viewBox="0 0 25.500912 17.702057"
   version="1.1"
   id="svg1"
   inkscape:version="1.4.2 (f4327f4, 2025-05-13)"
   sodipodi:docname="table_saw.svg"
   xmlns:inkscape="http://www.inkscape.org/namespaces/inkscape"
   xmlns:sodipodi="http://sodipodi.sourceforge.net/DTD/sodipodi-0.dtd"
   xmlns="http://www.w3.org/2000/svg"
   xmlns:svg="http://www.w3.org/2000/svg">
  <sodipodi:namedview
     id="namedview1"
     pagecolor="#ffffff"
     bordercolor="#000000"
     borderopacity="0.25"
     inkscape:showpageshadow="2"
     inkscape:pageopacity="0.0"
     inkscape:pagecheckerboard="0"
     inkscape:deskcolor="#d1d1d1"
     inkscape:document-units="mm"
     inkscape:zoom="0.68862935"
     inkscape:cx="48.64736"
     inkscape:cy="32.6736"
     inkscape:window-width="1920"
     inkscape:window-height="991"
     inkscape:window-x="-9"
     inkscape:window-y="-9"
     inkscape:window-maximized="1"
     inkscape:current-layer="layer1" />
  <defs
     id="defs1" />
  <g
     inkscape:label="Ebene 1"
     inkscape:groupmode="layer"
     id="layer1"
     transform="translate(-92.379502,-139.70495)">
    <path
       d="m 97.102077,156.94231 c 0,-0.27887 0.166709,-0.97953 0.370462,-1.55703 0.203752,-0.5775 0.412112,-1.74376 0.46302,-2.59169 l 0.09256,-1.54169 -2.482123,-0.96563 c -2.690693,-1.04677 -3.271676,-1.55939 -3.151928,-2.78106 l 0.0778,-0.79375 2.768205,-0.076 c 3.240225,-0.089 3.844558,-0.38258 3.370834,-1.63762 -0.308594,-0.81756 0.06265,-1.59364 0.762326,-1.59364 0.194855,0 0.485711,-0.4881 0.646347,-1.08467 0.25163,-0.93446 0.37213,-1.06309 0.8701,-0.92878 0.43553,0.11746 0.75113,-0.0535 1.28024,-0.69342 0.65519,-0.79242 0.7471,-0.82529 1.37225,-0.49072 0.58086,0.31087 0.7276,0.30102 1.10262,-0.074 0.5574,-0.55741 1.7177,-0.57429 1.7177,-0.025 0,0.30594 0.25065,0.39281 1.005,0.3483 1.16604,-0.0688 1.68503,0.17597 1.58171,0.74599 -0.0466,0.25734 0.26248,0.51468 0.85288,0.70999 0.79085,0.26162 0.92604,0.42498 0.92604,1.11904 0,0.57417 0.23223,1.01265 0.79127,1.49398 0.75909,0.65357 0.77252,0.702 0.33015,1.19081 -0.25361,0.28024 -0.38148,0.58917 -0.28415,0.6865 0.0973,0.0973 1.5136,0.17697 3.14727,0.17697 3.23178,0 3.31359,0.04 3.09544,1.51284 -0.16269,1.09853 -0.31022,1.2061 -3.12258,2.2768 l -2.36295,0.89958 0.0806,1.02883 c 0.0443,0.56585 0.25114,1.78035 0.45954,2.69888 0.58616,2.5834 0.66917,2.46426 -1.65555,2.37596 -2.02969,-0.0771 -2.03498,-0.0792 -2.24616,-0.89714 l -0.21166,-0.81987 -2.71479,-0.1531 c -3.62411,-0.20437 -4.52443,-0.0109 -4.70026,1.00978 -0.13441,0.78029 -0.14214,0.78333 -2.183563,0.86033 -1.869352,0.0705 -2.048671,0.0329 -2.048671,-0.42974 z m 3.481173,-1.10831 c 0.15326,-0.43964 0.49643,-0.91589 0.7626,-1.05834 0.65301,-0.34948 6.3205,-0.33035 7.33922,0.0248 0.53001,0.18476 0.90825,0.55402 1.08405,1.05833 0.24642,0.70688 0.37771,0.77456 1.50271,0.77456 0.96319,0 1.20079,-0.0832 1.08675,-0.38033 -0.50367,-1.31257 -0.78559,-3.0362 -0.93311,-5.7051 l -0.16818,-3.04271 h -6.08542 -6.085418 l -0.163566,3.43958 c -0.08996,1.89177 -0.298317,3.85552 -0.46302,4.36388 -0.424254,1.30949 -0.415404,1.32466 0.772641,1.32466 0.955003,0 1.102533,-0.0873 1.350743,-0.79933 z m 7.96191,-4.2939 c -0.14485,-0.1819 -0.4219,-0.77838 -0.61565,-1.32552 -0.31151,-0.87965 -0.30027,-1.0468 0.0972,-1.44424 0.42288,-0.42288 0.51211,-0.38826 1.5093,0.58547 1.09454,1.06879 1.29063,1.64925 0.74236,2.19752 -0.41445,0.41445 -1.39857,0.40694 -1.73317,-0.0132 z m 1.25692,-0.81013 c 0,-0.19092 -0.35719,-0.6112 -0.79375,-0.93397 -0.91907,-0.67949 -0.93179,-0.66443 -0.3775,0.44668 0.41496,0.83182 1.17125,1.14646 1.17125,0.48729 z m -11.693989,-1.8357 -0.07997,-1.38906 -2.315105,-0.0764 c -2.258644,-0.0746 -2.31508,-0.0617 -2.314077,0.52917 7.94e-4,0.51474 0.328406,0.73019 2.182812,1.43587 1.199981,0.45664 2.277306,0.84359 2.394051,0.85989 0.116745,0.0163 0.176276,-0.59544 0.132291,-1.35942 z m 18.337249,-0.21379 c 0.27527,-0.14732 0.50049,-0.50642 0.50049,-0.79801 0,-0.49592 -0.14952,-0.52522 -2.31511,-0.45371 l -2.3151,0.0764 -0.0838,1.02001 c -0.14137,1.72129 -0.0305,1.78193 1.94621,1.06443 0.97176,-0.35273 1.99204,-0.76186 2.26729,-0.90917 z m -15.68276,-3.22816 c 0.31117,-1.23576 1.5674,-2.63578 2.77287,-3.09026 2.54844,-0.9608 5.43989,0.58329 5.97295,3.18967 0.23317,1.14007 0.96553,1.33669 1.1652,0.31281 0.10017,-0.51371 -0.0112,-0.90791 -0.36355,-1.2868 -0.27939,-0.30042 -0.50873,-0.77667 -0.50965,-1.05833 -10e-4,-0.29092 -0.34379,-0.7068 -0.79375,-0.96283 -0.43564,-0.2479 -0.79207,-0.63485 -0.79207,-0.8599 0,-0.30709 -0.29,-0.40918 -1.16232,-0.40918 -0.80083,0 -1.21078,-0.1263 -1.31815,-0.4061 -0.13856,-0.36107 -0.22976,-0.35765 -0.82255,0.0307 -0.39667,0.25991 -0.95447,0.38184 -1.37717,0.30104 -0.5344,-0.10216 -0.83408,0.0214 -1.20934,0.49842 -0.27438,0.34882 -0.71913,0.63422 -0.98832,0.63422 -0.32348,0 -0.59167,0.30974 -0.7909,0.9134 -0.1658,0.50237 -0.52686,0.98495 -0.802375,1.07239 -0.40934,0.12992 -0.456084,0.27694 -0.255657,0.8041 0.134898,0.3548 0.176337,0.82473 0.09209,1.04427 -0.104899,0.27336 0.01262,0.39918 0.372888,0.39918 0.398264,0 0.594994,-0.27375 0.809804,-1.12685 z m 2.6895,0.76237 c 0,-0.47996 0.49725,-0.87394 1.38388,-1.09647 0.58471,-0.14675 0.87319,-0.0268 1.54023,0.64018 0.64372,0.64372 1.0485,0.82077 1.87657,0.82077 0.97123,0 1.04156,-0.0477 0.87793,-0.59532 -0.64457,-2.15718 -2.66229,-3.57194 -4.62207,-3.24084 -1.28539,0.21716 -2.58063,1.23851 -3.07689,2.42624 -0.5387,1.28927 -0.4677,1.40992 0.82972,1.40992 0.83491,0 1.19063,-0.1089 1.19063,-0.36448 z m 2.38125,-0.0324 c -0.18116,-0.21828 -0.47882,-0.39687 -0.66146,-0.39687 -0.18265,0 -0.4803,0.17859 -0.66146,0.39687 -0.28281,0.34076 -0.18929,0.39688 0.66146,0.39688 0.85074,0 0.94426,-0.0561 0.66146,-0.39688 z"
       style="fill:#2b1e17;fill-opacity:1;stroke-width:0.264583"
       id="path1" />
  </g>
</svg>
