<?xml version="1.0" encoding="UTF-8" standalone="no"?>
<!-- Created with Inkscape (http://www.inkscape.org/) -->

<svg
   width="23.84169mm"
   height="24.341669mm"
   viewBox="0 0 23.84169 24.341669"
   version="1.1"
   id="svg1"
   inkscape:version="1.4.2 (f4327f4, 2025-05-13)"
   sodipodi:docname="turning_chisels.svg"
   xmlns:inkscape="http://www.inkscape.org/namespaces/inkscape"
   xmlns:sodipodi="http://sodipodi.sourceforge.net/DTD/sodipodi-0.dtd"
   xmlns="http://www.w3.org/2000/svg"
   xmlns:svg="http://www.w3.org/2000/svg">
  <sodipodi:namedview
     id="namedview1"
     pagecolor="#ffffff"
     bordercolor="#000000"
     borderopacity="0.25"
     inkscape:showpageshadow="2"
     inkscape:pageopacity="0.0"
     inkscape:pagecheckerboard="0"
     inkscape:deskcolor="#d1d1d1"
     inkscape:document-units="mm"
     inkscape:zoom="0.68862935"
     inkscape:cx="45.74304"
     inkscape:cy="45.74304"
     inkscape:window-width="1920"
     inkscape:window-height="991"
     inkscape:window-x="-9"
     inkscape:window-y="-9"
     inkscape:window-maximized="1"
     inkscape:current-layer="layer1" />
  <defs
     id="defs1" />
  <g
     inkscape:label="Ebene 1"
     inkscape:groupmode="layer"
     id="layer1"
     transform="translate(-93.10414,-136.26041)">
    <path
       d="m 93.6625,160.07291 c -0.291042,-0.29104 -0.535094,-0.85658 -0.542338,-1.25677 -0.06881,-3.80185 0.09204,-8.12473 0.329001,-8.84168 0.16029,-0.48496 0.36316,-3.73925 0.450824,-7.23175 l 0.159388,-6.35 h 0.926041 0.926042 l 0.159388,6.35 c 0.08766,3.4925 0.284096,6.72434 0.436514,7.18187 0.228436,0.68571 0.473459,6.81747 0.360593,9.02385 -0.04362,0.85281 -0.955312,1.65365 -1.882537,1.65365 -0.440973,0 -1.028935,-0.23518 -1.322916,-0.52917 z m 2.413934,-0.89211 c 0.197781,-0.43409 0.216423,-1.96337 0.06047,-4.96094 l -0.225449,-4.3334 h -0.926042 -0.926041 l -0.14976,4.23333 c -0.173511,4.90464 -0.0209,5.68854 1.107355,5.68854 0.5572,0 0.853507,-0.17551 1.059464,-0.62753 z m -0.561851,-10.48497 c 0,-0.35278 -0.17639,-0.52917 -0.529167,-0.52917 -0.352777,0 -0.529166,0.17639 -0.529166,0.52917 0,0.35278 0.176389,0.52917 0.529166,0.52917 0.352777,0 0.529167,-0.17639 0.529167,-0.52917 z M 95.25,142.19792 c 0,-3.559 -0.09147,-5.38304 -0.264584,-5.27605 -0.162076,0.10017 -0.264583,2.20761 -0.264583,5.43958 0,3.34097 0.09704,5.27605 0.264583,5.27605 0.16781,0 0.264584,-1.98958 0.264584,-5.43958 z m 3.458786,17.70702 c -0.481962,-0.61272 -0.54837,-1.06255 -0.54837,-3.71459 0,-3.35232 0.444916,-8.00024 0.807649,-8.43731 0.137551,-0.16574 0.125886,-0.67763 -0.02816,-1.23552 -0.144656,-0.5239 -0.230391,-3.01631 -0.190521,-5.53868 l 0.07249,-4.58613 h 1.322916 1.32292 l 0.0795,4.36562 c 0.0523,2.87526 -0.0286,4.70043 -0.237,5.34634 -0.25838,0.80065 -0.23866,1.31073 0.10743,2.77812 0.27643,1.17203 0.45095,3.34683 0.50159,6.25059 0.0768,4.40393 0.0708,4.4588 -0.54697,4.96094 -0.89994,0.73157 -2.000607,0.65331 -2.663465,-0.18938 z m 2.369114,-0.502 c 0.25958,-0.31277 0.29394,-1.412 0.1504,-4.8109 -0.10233,-2.42302 -0.24618,-4.50278 -0.31967,-4.62169 -0.16808,-0.27195 -1.615964,-0.28526 -1.782143,-0.0164 -0.06792,0.1099 -0.164243,2.17511 -0.214051,4.58935 -0.07088,3.43557 -0.01164,4.48466 0.272563,4.82727 0.455623,0.54924 1.449821,0.56623 1.892901,0.0323 z m -0.3184,-10.61914 c -0.1223,-0.63077 -1.276167,-0.67033 -1.276167,-0.0438 0,0.34457 0.197083,0.48495 0.680857,0.48495 0.49342,0 0.65731,-0.12146 0.59531,-0.4412 z m -0.27271,-2.34072 c 0.18438,-0.68939 0.31946,-2.92685 0.31946,-5.29167 v -4.09725 h -0.79375 -0.79375 v 3.75439 c 0,3.41259 0.396123,6.82895 0.79181,6.82895 0.0862,0 0.30053,-0.53749 0.47623,-1.19442 z m -0.738874,-8.85975 c 0,-0.14552 0.119063,-0.26458 0.264584,-0.26458 0.14552,0 0.26458,0.11906 0.26458,0.26458 0,0.14552 -0.11906,0.26458 -0.26458,0.26458 -0.145521,0 -0.264584,-0.11906 -0.264584,-0.26458 z m 3.983824,22.50466 c -0.47555,-0.47555 -0.5437,-0.86983 -0.53994,-3.12393 0.006,-3.3602 0.42729,-8.40544 0.75085,-8.9836 0.17333,-0.30973 0.13365,-0.75595 -0.12462,-1.40144 -0.28946,-0.72344 -0.36177,-2.03764 -0.30629,-5.56666 l 0.0726,-4.61965 h 1.5875 1.5875 l 0.0722,4.69634 c 0.0609,3.95841 0.005,4.79865 -0.35436,5.34745 -0.36505,0.55713 -0.38061,0.83398 -0.10779,1.91824 0.17535,0.69692 0.43923,3.39138 0.58639,5.98769 0.25586,4.514 0.24469,4.75133 -0.25532,5.42396 -0.69568,0.93582 -2.19244,1.09796 -2.9688,0.3216 z m 2.31326,-0.59716 c 0.35637,-0.35637 0.41837,-3.47176 0.14559,-7.31477 l -0.17191,-2.4219 h -0.8654 c -1.08863,0 -1.13046,0.18085 -1.22967,5.31719 -0.0574,2.97119 0.009,3.96288 0.2885,4.29948 0.42471,0.51174 1.37869,0.5742 1.83289,0.12 z m -0.21167,-10.61861 c 0,-0.51805 -0.23111,-0.66477 -0.80907,-0.51363 -0.75287,0.19688 -0.6388,0.86641 0.14761,0.86641 0.37483,0 0.66146,-0.15287 0.66146,-0.35278 z m -0.16824,-2.36805 c 0.32459,-0.84992 0.43283,-2.04086 0.43283,-4.7625 v -3.62917 h -1.07193 -1.07193 l 0.10059,3.77031 c 0.0918,3.44145 0.49931,5.75469 1.01373,5.75469 0.0901,0 0.35866,-0.51 0.59671,-1.13333 z m 0.43283,-9.05313 c 0,-0.28663 -0.29399,-0.39688 -1.05834,-0.39688 -0.99309,0 -1.29086,0.20844 -0.88194,0.61736 0.097,0.097 0.57326,0.17639 1.05833,0.17639 0.60756,0 0.88195,-0.12347 0.88195,-0.39687 z m 2.64583,22.62187 c -0.46357,-0.46356 -0.52914,-0.88176 -0.52895,-3.37343 2.7e-4,-3.39422 0.45322,-8.51963 0.78862,-8.92377 0.14291,-0.17219 0.14042,-0.44448 -0.006,-0.67625 -0.13497,-0.2134 -0.24722,-2.29861 -0.24945,-4.63379 l -0.004,-4.24578 1.00334,-0.97974 c 0.55184,-0.53885 1.15289,-0.97974 1.33566,-0.97974 0.25868,0 0.32327,1.42167 0.29152,6.41615 -0.0243,3.81757 0.0679,6.69199 0.22761,7.09724 0.14763,0.3746 0.30908,2.71252 0.35878,5.19536 0.0829,4.14044 0.0486,4.56058 -0.41365,5.07359 -0.65715,0.72926 -2.08876,0.74466 -2.80326,0.0302 z m 2.32833,-0.58208 c 0.34643,-0.34642 0.38646,-3.51969 0.0928,-7.35542 -0.17128,-2.23721 -0.17618,-2.24941 -0.93722,-2.33629 -0.43454,-0.0496 -0.86142,0.0647 -0.98814,0.26459 -0.26246,0.41401 -0.31342,9.30962 -0.0548,9.56823 0.29232,0.29232 1.5478,0.19846 1.88736,-0.14111 z m -0.25841,-10.70703 c -0.1223,-0.63077 -1.27617,-0.67033 -1.27617,-0.0438 0,0.34457 0.19708,0.48495 0.68086,0.48495 0.49342,0 0.65731,-0.12146 0.59531,-0.4412 z m -0.24675,-2.13849 c 0.21175,-0.65577 0.29339,-2.4203 0.24079,-5.20404 l -0.0796,-4.21185 -0.79375,0.69776 c -0.69984,0.61521 -0.73114,0.6997 -0.26458,0.71417 0.48682,0.0151 0.49211,0.038 0.0661,0.28609 -0.85598,0.49856 -0.534,8.71006 0.34153,8.71006 0.093,0 0.31325,-0.44649 0.48945,-0.99219 z m 3.39869,13.62604 c -0.23954,-0.1819 -0.54818,-0.63492 -0.68586,-1.00671 -0.30368,-0.82008 0.0579,-9.16301 0.46376,-10.7011 0.15361,-0.58208 0.28212,-3.29617 0.28559,-6.0313 0.006,-4.96283 0.008,-4.97432 0.67529,-5.64194 0.36794,-0.36793 0.79837,-0.62584 0.95653,-0.57312 0.19665,0.0656 0.27346,1.8351 0.24299,5.59787 -0.0252,3.10855 0.0635,5.6363 0.20391,5.81068 0.42609,0.52931 0.83801,4.6034 0.83801,8.28821 0,3.17703 -0.0529,3.58269 -0.52916,4.05897 -0.59714,0.59714 -1.79799,0.69436 -2.45106,0.19844 z m 2.13899,-1.12592 c 0.20455,-0.44895 0.25551,-1.87937 0.15789,-4.43178 -0.19186,-5.01631 -0.19058,-5.01124 -1.24396,-4.90943 l -0.85082,0.0822 -0.22545,4.3334 c -0.25587,4.91815 -0.12353,5.58847 1.10335,5.58847 0.5511,0 0.83909,-0.18028 1.05899,-0.6629 z m -0.48168,-10.4496 c 0,-0.34741 -0.17639,-0.52917 -0.51355,-0.52917 -0.58147,0 -0.92137,0.39848 -0.67708,0.79375 0.30496,0.49343 1.19063,0.29662 1.19063,-0.26458 z m -0.26459,-6.23332 c 0,-3.38262 -0.0916,-5.11836 -0.26458,-5.01147 -0.16132,0.0997 -0.26458,2.11941 -0.26458,5.17499 0,3.16459 0.0975,5.01147 0.26458,5.01147 0.16737,0 0.26458,-1.90139 0.26458,-5.17499 z"
       style="fill:#2b1e17;fill-opacity:1;stroke-width:0.264583"
       id="path1" />
  </g>
</svg>
