<?xml version="1.0" encoding="UTF-8" standalone="no"?>
<!-- Created with Inkscape (http://www.inkscape.org/) -->

<svg
   width="25.632509mm"
   height="29.466858mm"
   viewBox="0 0 25.632509 29.466858"
   version="1.1"
   id="svg1"
   inkscape:version="1.4.2 (f4327f4, 2025-05-13)"
   sodipodi:docname="vacuum_cleaner.svg"
   xmlns:inkscape="http://www.inkscape.org/namespaces/inkscape"
   xmlns:sodipodi="http://sodipodi.sourceforge.net/DTD/sodipodi-0.dtd"
   xmlns="http://www.w3.org/2000/svg"
   xmlns:svg="http://www.w3.org/2000/svg">
  <sodipodi:namedview
     id="namedview1"
     pagecolor="#ffffff"
     bordercolor="#000000"
     borderopacity="0.25"
     inkscape:showpageshadow="2"
     inkscape:pageopacity="0.0"
     inkscape:pagecheckerboard="0"
     inkscape:deskcolor="#d1d1d1"
     inkscape:document-units="mm"
     inkscape:zoom="0.68862935"
     inkscape:cx="48.64736"
     inkscape:cy="55.90816"
     inkscape:window-width="1920"
     inkscape:window-height="991"
     inkscape:window-x="-9"
     inkscape:window-y="-9"
     inkscape:window-maximized="1"
     inkscape:current-layer="layer1" />
  <defs
     id="defs1" />
  <g
     inkscape:label="Ebene 1"
     inkscape:groupmode="layer"
     id="layer1"
     transform="translate(-92.315871,-133.75553)">
    <path
       d="m 94.452123,162.75801 c -2.071116,-1.10059 -2.774085,-3.75307 -1.494409,-5.63878 0.496665,-0.73188 0.650415,-1.40235 0.782423,-3.41196 0.351306,-5.34814 2.064822,-8.24338 5.215528,-8.8124 1.150825,-0.20784 1.449195,-0.82476 1.851215,-3.82759 0.46615,-3.48189 1.50701,-5.29874 3.74375,-6.53485 1.19329,-0.65946 1.70519,-0.78117 3.26708,-0.77679 2.05486,0.006 3.11636,0.42386 4.58725,1.80679 1.77714,1.67087 1.97837,2.40383 2.18925,7.97403 0.10467,2.76489 0.20036,7.55716 0.21264,10.64948 l 0.0223,5.62239 h 0.89673 c 1.4959,0 2.71206,1.58806 2.0262,2.64584 -0.33207,0.51214 -7.30629,0.75069 -8.1858,0.27999 -1.17039,-0.62637 -0.38855,-2.52014 1.16041,-2.81073 0.60165,-0.11287 0.96922,-0.35903 1.08613,-0.72738 0.0972,-0.30623 0.0911,-4.84788 -0.0134,-10.09256 -0.18128,-9.0896 -0.21699,-9.58489 -0.76336,-10.58539 -0.80994,-1.48316 -2.58589,-2.22671 -4.17866,-1.7495 -2.3488,0.70372 -3.43059,2.81464 -2.92598,5.70952 0.47883,2.74701 0.63443,3.14552 1.70458,4.36563 1.35375,1.54344 1.70583,2.25216 2.32866,4.68738 0.52216,2.04165 0.76022,7.13646 0.36345,7.77845 -0.10701,0.17315 -0.1745,0.88166 -0.14998,1.57446 0.0299,0.84575 -0.0934,1.3976 -0.37524,1.67947 -0.5156,0.5156 -1.93364,0.54661 -2.63825,0.0577 -0.84947,-0.58941 -6.244177,-0.49227 -7.473719,0.13459 -1.219015,0.62149 -2.072312,0.62207 -3.238765,0.002 z m 3.346598,-1.03733 c 1.954202,-1.58297 1.271889,-4.79335 -1.113872,-5.24092 -2.303751,-0.43218 -4.265506,1.93808 -3.262008,3.94128 0.820341,1.63757 3.116723,2.31959 4.37588,1.29964 z m -2.544326,-0.6651 c -1.479624,-0.74864 -1.262755,-2.91591 0.34848,-3.48255 2.00505,-0.70514 3.147457,2.43676 1.243931,3.42111 -0.923012,0.47731 -0.781278,0.47184 -1.592411,0.0614 z m 1.853039,-0.99266 c 0.364373,-0.68084 0.115133,-1.4944 -0.570177,-1.86117 -0.667528,-0.35725 -1.816423,0.31612 -1.816423,1.06461 0,1.21761 1.833716,1.82963 2.3866,0.79656 z m 10.048816,1.5975 c 0,-0.61927 -0.0276,-0.62582 -0.9211,-0.2187 -0.49322,0.22473 -0.588,0.36976 -0.34318,0.52512 0.62847,0.39881 1.26428,0.24472 1.26428,-0.30642 z m 9.74016,-0.19844 c -0.0751,-0.39419 -0.50086,-0.48518 -2.86368,-0.61206 -2.94282,-0.15802 -3.96606,0.0153 -3.96606,0.67165 0,0.34094 0.53576,0.40343 3.45898,0.40343 3.15149,0 3.45114,-0.0412 3.37076,-0.46302 z m -11.01817,-0.81548 c 1.48184,-0.71988 1.80718,-1.44947 1.80718,-4.05265 v -1.8126 h -2.53887 c -1.85164,0 -2.72896,-0.11403 -3.24114,-0.42126 -0.41179,-0.24701 -1.33158,-1.54418 -2.223639,-3.13598 -1.24443,-2.22058 -1.521354,-2.93855 -1.521354,-3.94437 0,-0.6763 -0.105209,-1.22964 -0.233796,-1.22964 -0.128588,0 -0.65726,0.46872 -1.17483,1.04161 -1.146309,1.26883 -1.950579,3.69931 -2.195348,6.63428 l -0.174982,2.0982 0.882697,-0.25315 c 2.717144,-0.77927 5.340112,2.13248 4.499954,4.99538 l -0.261265,0.89027 2.569933,-0.10493 c 1.97939,-0.0808 2.85384,-0.24286 3.80546,-0.70516 z m 7.95576,-10.56161 c -0.0448,-5.34789 -0.20338,-10.25921 -0.35235,-10.91406 -0.61432,-2.7006 -2.90591,-4.53571 -5.66394,-4.53571 -1.83492,0 -3.89129,1.05509 -4.83463,2.48058 -0.57198,0.86433 -1.36661,3.38269 -1.37895,4.37024 -0.002,0.1819 0.27878,0.33073 0.62457,0.33073 0.57019,0 0.6398,-0.13393 0.74805,-1.43929 0.37968,-4.57851 6.09995,-6.38323 8.6017,-2.7138 0.99756,1.46317 1.12086,2.85034 1.12758,12.6859 l 0.006,9.45885 h 0.6015 0.6015 z m -6.42145,3.73003 c 0.17839,-0.17196 -0.70276,-3.40962 -1.2308,-4.52238 -1.05177,-2.21644 -3.33984,-3.50712 -6.217271,-3.50712 h -1.274895 v 1.19271 c 0,0.94544 0.283988,1.69964 1.369886,3.63802 1.61758,2.88746 1.93925,3.30142 2.69264,3.46516 0.63652,0.13834 4.46776,-0.0806 4.66044,-0.26639 z m -3.69588,-8.67535 c 0,-0.50436 -0.20207,-0.60555 -1.43022,-0.71624 -1.42797,-0.12869 -1.50072,0.42518 -0.10003,0.76168 1.57213,0.37768 1.53025,0.37892 1.53025,-0.0454 z m -0.79375,-1.99999 c 0,-0.38805 -0.17639,-0.52916 -0.66146,-0.52916 -0.76059,0 -0.91652,0.68829 -0.19844,0.87594 0.81137,0.21204 0.8599,0.19247 0.8599,-0.34678 z"
       style="fill:#2b1e17;fill-opacity:1;stroke-width:0.264583"
       id="path1" />
  </g>
</svg>
