<?xml version="1.0" encoding="UTF-8" standalone="no"?>
<!-- Created with Inkscape (http://www.inkscape.org/) -->

<svg
   width="23.025833mm"
   height="23.269066mm"
   viewBox="0 0 23.025833 23.269066"
   version="1.1"
   id="svg1"
   inkscape:version="1.4.2 (f4327f4, 2025-05-13)"
   sodipodi:docname="wooden_mallet.svg"
   xmlns:inkscape="http://www.inkscape.org/namespaces/inkscape"
   xmlns:sodipodi="http://sodipodi.sourceforge.net/DTD/sodipodi-0.dtd"
   xmlns="http://www.w3.org/2000/svg"
   xmlns:svg="http://www.w3.org/2000/svg">
  <sodipodi:namedview
     id="namedview1"
     pagecolor="#ffffff"
     bordercolor="#000000"
     borderopacity="0.25"
     inkscape:showpageshadow="2"
     inkscape:pageopacity="0.0"
     inkscape:pagecheckerboard="0"
     inkscape:deskcolor="#d1d1d1"
     inkscape:document-units="mm"
     inkscape:zoom="0.68862935"
     inkscape:cx="42.83872"
     inkscape:cy="44.29088"
     inkscape:window-width="1920"
     inkscape:window-height="991"
     inkscape:window-x="-9"
     inkscape:window-y="-9"
     inkscape:window-maximized="1"
     inkscape:current-layer="layer1" />
  <defs
     id="defs1" />
  <g
     inkscape:label="Ebene 1"
     inkscape:groupmode="layer"
     id="layer1"
     transform="translate(-93.662497,-136.80286)">
    <path
       d="m 95.347023,159.56543 c -0.99866,-0.60895 -1.684526,-1.53211 -1.684526,-2.26733 0,-0.52763 3.206245,-3.83105 8.995833,-9.26848 3.39965,-3.19286 3.38889,-3.17599 2.58369,-4.05094 -2.05837,-2.23669 -2.02081,-2.76577 0.37144,-5.23292 2.36727,-2.44137 2.90373,-2.50539 5.20639,-0.62125 0.71761,0.58718 1.07225,0.69948 1.87075,0.59237 0.86134,-0.11553 1.07446,-0.0262 1.69421,0.71037 0.72448,0.86099 0.91408,1.70224 0.44851,1.98997 -0.1439,0.0889 0.21124,0.75765 0.79375,1.49459 1.58017,1.99906 1.483,2.53867 -0.88326,4.90493 -2.35727,2.35727 -2.7439,2.41778 -4.79164,0.74987 l -1.45801,-1.18757 -4.17121,4.6933 c -5.297462,5.96051 -7.277035,8.00083 -7.761418,7.99959 -0.212022,-5.3e-4 -0.75855,-0.22847 -1.214509,-0.5065 z m 6.595647,-6.23939 c 2.33403,-2.61937 4.60302,-5.14809 5.04219,-5.61936 l 0.79849,-0.85687 -0.61041,-0.64975 -0.61041,-0.64974 -5.71769,5.43805 c -3.144738,2.99092 -5.877526,5.66623 -6.072868,5.94512 -0.316698,0.45215 -0.251627,0.61061 0.600734,1.46297 l 0.9559,0.9559 0.685178,-0.63191 c 0.376849,-0.34755 2.594845,-2.77503 4.928886,-5.39441 z m 11.53399,-5.48685 c 2.16197,-1.9866 2.5231,-2.52296 2.19038,-3.2532 -0.68327,-1.49963 -6.46992,-7.00265 -7.36357,-7.00265 -0.49909,0 -3.46059,2.80888 -3.67554,3.48613 -0.21034,0.66273 1.46128,2.84304 3.9631,5.16911 1.60912,1.49607 3.20839,2.71744 3.56271,2.72085 0.0565,5.6e-4 0.6518,-0.50357 1.32292,-1.12024 z m 0.56682,-7.59495 c -0.27159,-0.50747 -1.04472,-0.91869 -1.2817,-0.68171 -0.21097,0.21096 1.05183,1.46518 1.31281,1.30389 0.12476,-0.0771 0.11076,-0.35709 -0.0311,-0.62218 z"
       style="fill:#2b1e17;fill-opacity:1;stroke-width:0.264583"
       id="path1" />
  </g>
</svg>
