<?xml version="1.0" encoding="UTF-8" standalone="no"?>
<!-- Created with Inkscape (http://www.inkscape.org/) -->

<svg
   width="14.110777mm"
   height="26.932856mm"
   viewBox="0 0 14.110777 26.932856"
   version="1.1"
   id="svg1"
   inkscape:version="1.4.2 (f4327f4, 2025-05-13)"
   sodipodi:docname="wood_glue.svg"
   xmlns:inkscape="http://www.inkscape.org/namespaces/inkscape"
   xmlns:sodipodi="http://sodipodi.sourceforge.net/DTD/sodipodi-0.dtd"
   xmlns="http://www.w3.org/2000/svg"
   xmlns:svg="http://www.w3.org/2000/svg">
  <sodipodi:namedview
     id="namedview1"
     pagecolor="#ffffff"
     bordercolor="#000000"
     borderopacity="0.25"
     inkscape:showpageshadow="2"
     inkscape:pageopacity="0.0"
     inkscape:pagecheckerboard="0"
     inkscape:deskcolor="#d1d1d1"
     inkscape:document-units="mm"
     inkscape:zoom="0.68862935"
     inkscape:cx="26.86496"
     inkscape:cy="51.55168"
     inkscape:window-width="1920"
     inkscape:window-height="991"
     inkscape:window-x="-9"
     inkscape:window-y="-9"
     inkscape:window-maximized="1"
     inkscape:current-layer="layer1" />
  <defs
     id="defs1" />
  <g
     inkscape:label="Ebene 1"
     inkscape:groupmode="layer"
     id="layer1"
     transform="translate(-97.940083,-134.96124)">
    <path
       d="m 99.487013,161.47231 c -1.572853,-0.80719 -1.636231,-1.1292 -1.499201,-7.6171 0.142066,-6.72621 0.411539,-8.05701 1.89525,-9.35973 0.662558,-0.58173 0.923188,-1.03083 0.923188,-1.59076 0,-1.1844 0.26464,-1.6431 1.16408,-2.01773 0.76587,-0.31899 0.86476,-0.5233 1.49046,-3.07943 0.58866,-2.40484 0.74326,-2.74829 1.27133,-2.82423 0.98114,-0.1411 1.25017,0.33598 1.76173,3.12402 0.40676,2.21692 0.56579,2.65098 0.97128,2.65098 0.77782,0 1.5432,0.96249 1.5432,1.94064 0,0.64413 0.2114,1.07067 0.78311,1.58006 1.7997,1.60354 2.23841,3.68825 2.25042,10.6939 l 0.009,5.35107 -0.73307,0.73435 -0.73308,0.73436 -5.08776,0.0765 c -4.46414,0.0671 -5.20081,0.0185 -6.010114,-0.39688 z m 11.087647,-0.98336 c 0.36817,-0.33319 0.55034,-0.82153 0.55034,-1.47532 v -0.97727 l -1.52136,0.24815 c -1.62876,0.26567 -9.30528,0.10569 -10.355797,-0.21583 -0.611391,-0.18711 -0.626007,-0.15928 -0.440635,0.83921 0.23185,1.24882 0.760196,1.88785 1.695812,2.05106 0.38506,0.0672 2.68487,0.10097 5.1107,0.0751 3.90754,-0.0417 4.47336,-0.10384 4.96094,-0.54509 z m 0.54069,-3.1882 c 0.15083,-0.0932 0.27217,-0.96613 0.26965,-1.93981 -0.005,-1.75956 -0.44898,-6.6777 -0.61877,-6.84749 -0.0488,-0.0489 -1.30535,0.0435 -2.79222,0.20528 -1.96851,0.21415 -3.50486,0.2155 -5.65162,0.005 -1.62151,-0.15902 -3.040016,-0.19732 -3.152226,-0.0851 -0.112207,0.11221 -0.283956,2.05802 -0.381662,4.32402 -0.132389,3.07035 -0.0972,4.16973 0.138129,4.31517 0.871394,0.53855 11.322619,0.55826 12.188719,0.023 z m -2.68721,-9.38131 c 1.06334,-0.12319 1.99187,-0.28251 2.0634,-0.35404 0.2483,-0.2483 -0.2155,-1.49769 -0.78164,-2.10559 -0.55078,-0.59141 -0.71108,-0.61109 -4.9349,-0.60585 l -4.36563,0.005 -0.62859,1.26758 c -0.345729,0.69718 -0.56827,1.32792 -0.494536,1.40165 0.496727,0.49673 6.143976,0.73816 9.141896,0.39084 z m -4.86016,-4.6187 c -0.0873,-0.34793 -0.0301,-0.71214 0.12725,-0.80937 0.18116,-0.11196 0.28602,0.11995 0.28602,0.6326 0,0.7486 0.0695,0.80936 0.92604,0.80936 0.81139,0 0.92604,-0.0819 0.92604,-0.66146 0,-0.3638 0.11907,-0.66146 0.26459,-0.66146 0.14552,0 0.26458,0.29766 0.26458,0.66146 0,0.41158 0.14993,0.66146 0.39687,0.66146 0.28127,0 0.39688,-0.28516 0.39688,-0.97896 0,-1.13759 0.43323,-0.90474 0.59073,0.3175 0.0824,0.63932 0.14337,0.70355 0.31348,0.33014 0.11615,-0.25499 0.13655,-0.761 0.0453,-1.12448 -0.16125,-0.64248 -0.23566,-0.66209 -2.67436,-0.70496 -1.37968,-0.0243 -2.71686,-0.054 -2.97152,-0.0661 -0.34904,-0.0166 -0.48324,0.22221 -0.54514,0.97014 -0.0475,0.57435 0.036,0.99219 0.19843,0.99219 0.15431,0 0.29677,-0.38696 0.31659,-0.8599 0.0295,-0.70385 0.0559,-0.73986 0.14527,-0.19844 0.17982,1.08892 0.31098,1.32292 0.74148,1.32292 0.30046,0 0.36774,-0.16926 0.25145,-0.63259 z m 2.5209,-2.87314 c -0.0142,-0.51874 -0.97218,-4.44285 -1.12098,-4.59164 -0.0734,-0.0734 -0.33362,0.79579 -0.57834,1.93146 -0.24472,1.13568 -0.50426,2.27323 -0.57675,2.52789 -0.11177,0.39263 0.0519,0.46302 1.07665,0.46302 0.7952,0 1.20537,-0.1131 1.19942,-0.33073 z"
       style="fill:#2b1e17;fill-opacity:1;stroke-width:0.264583"
       id="path1" />
  </g>
</svg>
