<?xml version="1.0" encoding="UTF-8" standalone="no"?>
<!-- Created with Inkscape (http://www.inkscape.org/) -->

<svg
   width="34.894363mm"
   height="16.13007mm"
   viewBox="0 0 34.894363 16.13007"
   version="1.1"
   id="svg1"
   inkscape:version="1.4.2 (f4327f4, 2025-05-13)"
   sodipodi:docname="workbench.svg"
   xmlns:inkscape="http://www.inkscape.org/namespaces/inkscape"
   xmlns:sodipodi="http://sodipodi.sourceforge.net/DTD/sodipodi-0.dtd"
   xmlns="http://www.w3.org/2000/svg"
   xmlns:svg="http://www.w3.org/2000/svg">
  <sodipodi:namedview
     id="namedview1"
     pagecolor="#ffffff"
     bordercolor="#000000"
     borderopacity="0.25"
     inkscape:showpageshadow="2"
     inkscape:pageopacity="0.0"
     inkscape:pagecheckerboard="0"
     inkscape:deskcolor="#d1d1d1"
     inkscape:document-units="mm"
     inkscape:zoom="0.68862935"
     inkscape:cx="66.07328"
     inkscape:cy="29.76928"
     inkscape:window-width="1920"
     inkscape:window-height="991"
     inkscape:window-x="-9"
     inkscape:window-y="-9"
     inkscape:window-maximized="1"
     inkscape:current-layer="layer1" />
  <defs
     id="defs1" />
  <g
     inkscape:label="Ebene 1"
     inkscape:groupmode="layer"
     id="layer1"
     transform="translate(-87.607718,-140.50327)">
    <path
       d="m 90.752081,154.16095 c 0,-1.35981 -0.07762,-3.74106 -0.1725,-5.29167 L 90.407083,146.05 h -1.118021 c -1.33518,0 -1.779092,-0.4364 -1.663888,-1.6357 0.07721,-0.80379 0.292786,-0.99599 2.59774,-2.31616 l 2.513542,-1.43963 14.308274,-0.11597 c 10.55921,-0.0856 14.45882,-0.0354 14.88282,0.19151 0.41004,0.21945 0.57453,0.55547 0.57453,1.17364 0,1.05637 -0.32987,1.49912 -1.78594,2.39712 l -1.12448,0.69349 v 3.90656 c 0,4.68713 -0.18219,5.15883 -1.94304,5.03049 l -1.09966,-0.0801 -0.19067,-2.91042 c -0.27152,-4.14472 -0.26884,-4.13069 -0.73538,-3.83926 -0.32026,0.20006 -0.41491,1.09349 -0.49032,4.62858 -0.10581,4.96027 -0.12443,5.00071 -2.23176,4.84779 l -1.11437,-0.0809 -0.0729,-4.16719 -0.0729,-4.16719 h -6.59861 -6.598609 l -0.0754,2.6957 -0.0754,2.6957 -0.837819,0.21656 c -0.484904,0.12534 -1.125749,0.1071 -1.521354,-0.0433 -0.672253,-0.25559 -0.683535,-0.30367 -0.683535,-2.91226 0,-2.18129 -0.07049,-2.65239 -0.396875,-2.65239 -0.33446,0 -0.396875,0.601 -0.396875,3.82146 0,3.64905 -0.02653,3.84004 -0.588039,4.23333 -0.33301,0.23325 -1.136243,0.41188 -1.852084,0.41188 h -1.264044 z m 1.852083,-3.21616 c 0,-4.7184 -0.01908,-4.89479 -0.529166,-4.89479 -0.510098,0 -0.529167,0.17639 -0.529167,4.89479 0,4.7184 0.01908,4.89479 0.529167,4.89479 0.510098,0 0.529166,-0.17639 0.529166,-4.89479 z m 20.784326,0.0703 c -0.0132,-4.37742 -0.0574,-4.83278 -0.47755,-4.91419 -0.42758,-0.0829 -0.46303,0.28649 -0.46303,4.82447 0,4.56079 0.0344,4.91419 0.47756,4.91419 0.44343,0 0.47653,-0.3448 0.46302,-4.82447 z m -19.752379,0.7185 c 0.0049,-2.12252 -0.09527,-3.56695 -0.247298,-3.56695 -0.152138,0 -0.255482,1.50466 -0.255482,3.71979 0,2.23914 0.09844,3.65894 0.247298,3.56694 0.136015,-0.0841 0.250981,-1.75796 0.255482,-3.71978 z M 114.3,150.79688 c 0,-3.11803 -0.0919,-4.7213 -0.26459,-4.61459 -0.16002,0.0989 -0.26458,1.98712 -0.26458,4.77811 0,2.90001 0.0983,4.6146 0.26458,4.6146 0.16663,0 0.26459,-1.7691 0.26459,-4.77812 z m 3.30729,-1.13091 c 0,-4.56031 -0.50539,-4.46642 -0.60316,0.11205 -0.0581,2.72235 -0.001,3.44087 0.26458,3.3522 0.25129,-0.0838 0.33858,-0.97688 0.33858,-3.46425 z m 0.99834,-3.85851 c -0.21538,-0.32843 -0.2893,0.43669 -0.34295,3.54983 -0.0803,4.66116 0.0675,4.81213 0.25916,0.26458 0.0859,-2.03729 0.12355,-3.75377 0.0838,-3.81441 z m -21.768132,4.74045 c 0,-1.94027 -0.0735,-2.38125 -0.396875,-2.38125 -0.323379,0 -0.396875,0.44098 -0.396875,2.38125 0,1.94028 0.0735,2.38125 0.396875,2.38125 0.323379,0 0.396875,-0.44097 0.396875,-2.38125 z m 0.79375,-0.0156 c 0,-1.53053 -0.09563,-2.33776 -0.264584,-2.23334 -0.14552,0.0899 -0.264583,1.16853 -0.264583,2.39687 0,1.3125 0.10909,2.23334 0.264583,2.23334 0.156919,0 0.264584,-0.97535 0.264584,-2.39687 z m 14.022912,-3.82084 V 146.05 h -9.26041 c -8.803412,0 -9.260419,0.0239 -9.260419,0.48507 0,0.26679 0.07937,0.56444 0.17639,0.66145 0.09701,0.097 4.264199,0.17639 9.260419,0.17639 h 9.08402 z m 4.49792,-0.55748 c 0,-0.0572 -0.17859,-0.10398 -0.39687,-0.10398 -0.21829,0 -0.39688,0.11532 -0.39688,0.25628 0,0.14095 0.17859,0.18774 0.39688,0.10398 0.21828,-0.0838 0.39687,-0.19909 0.39687,-0.25628 z m 1.01159,-1.3008 c -0.0754,-0.35501 -1.78926,-0.40307 -14.37305,-0.40307 -12.583782,0 -14.297697,0.0481 -14.373042,0.40307 -0.07581,0.35716 1.561139,0.40307 14.373042,0.40307 12.81191,0 14.44885,-0.0459 14.37305,-0.40307 z m 3.08613,-1.2375 c 0.72578,-0.48188 1.36042,-1.0881 1.41031,-1.34715 0.069,-0.35844 -0.34119,-0.19102 -1.71647,0.70056 -0.99395,0.64436 -1.84758,1.37292 -1.89696,1.61902 -0.10375,0.51712 0.0854,0.43363 2.20312,-0.97243 z m -1.05501,-1.13286 1.5875,-0.91472 -13.89063,-0.005 -13.890621,-0.005 -1.5875,0.91472 -1.5875,0.91472 13.890621,0.005 13.89063,0.005 z"
       style="fill:#2b1e17;fill-opacity:1;stroke-width:0.264583"
       id="path1" />
  </g>
</svg>
