<?xml version="1.0" encoding="UTF-8" standalone="no"?>
<!-- Created with Inkscape (http://www.inkscape.org/) -->

<svg
   width="18.497248mm"
   height="26.673956mm"
   viewBox="0 0 18.497248 26.673956"
   version="1.1"
   id="svg1"
   inkscape:version="1.4.2 (f4327f4, 2025-05-13)"
   sodipodi:docname="band_saw.svg"
   xmlns:inkscape="http://www.inkscape.org/namespaces/inkscape"
   xmlns:sodipodi="http://sodipodi.sourceforge.net/DTD/sodipodi-0.dtd"
   xmlns="http://www.w3.org/2000/svg"
   xmlns:svg="http://www.w3.org/2000/svg">
  <sodipodi:namedview
     id="namedview1"
     pagecolor="#ffffff"
     bordercolor="#000000"
     borderopacity="0.25"
     inkscape:showpageshadow="2"
     inkscape:pageopacity="0.0"
     inkscape:pagecheckerboard="0"
     inkscape:deskcolor="#d1d1d1"
     inkscape:document-units="mm"
     inkscape:zoom="0.68862935"
     inkscape:cx="35.57792"
     inkscape:cy="50.09952"
     inkscape:window-width="1920"
     inkscape:window-height="991"
     inkscape:window-x="-9"
     inkscape:window-y="-9"
     inkscape:window-maximized="1"
     inkscape:current-layer="layer1" />
  <defs
     id="defs1" />
  <g
     inkscape:label="Ebene 1"
     inkscape:groupmode="layer"
     id="layer1"
     transform="translate(-95.77675,-135.20208)">
    <path
       d="m 95.959656,161.75271 c -0.3508,-0.3508 -0.17395,-1.47235 0.333989,-2.11809 0.484738,-0.61625 0.505293,-0.97385 0.355589,-6.18672 -0.176334,-6.14009 0.281335,-13.9179 0.890239,-15.12912 0.536937,-1.06807 1.128209,-1.26379 3.844697,-1.27266 1.80377,-0.006 2.34061,-0.0804 2.00177,-0.27773 -0.25467,-0.14833 -0.46302,-0.56142 -0.46302,-0.918 0,-0.60158 0.0953,-0.64831 1.32291,-0.64831 1.20405,0 1.32292,0.0547 1.32292,0.60854 0,0.3347 -0.14288,0.75142 -0.3175,0.92605 -0.24694,0.24694 0.16116,0.3175 1.83647,0.3175 2.41366,0 2.57793,0.11057 2.48573,1.67323 -0.0466,0.78995 0.068,1.12789 0.48059,1.41687 0.74842,0.52421 0.77672,2.45425 0.0388,2.64722 -0.42889,0.11216 -0.5311,0.48688 -0.69392,2.54409 -0.13474,1.70233 -0.1035,2.44172 0.1061,2.51158 0.50677,0.16892 0.32791,0.58545 -0.36441,0.84867 -0.3638,0.13832 -0.66145,0.43303 -0.66145,0.65491 0,0.22188 -0.11907,0.40343 -0.26459,0.40343 -0.14552,0 -0.26458,-0.22539 -0.26458,-0.50086 0,-0.27548 -0.1786,-0.56939 -0.39688,-0.65316 -0.21828,-0.0838 -0.39687,-0.29173 -0.39687,-0.46216 0,-0.17042 -0.18471,-0.44492 -0.41046,-0.61 -0.3171,-0.23186 -0.351,-0.44913 -0.14906,-0.95521 0.1843,-0.46187 0.26634,-0.51851 0.27816,-0.19205 0.0234,0.64649 0.54594,0.58318 0.54594,-0.0661 0,-0.64358 -0.004,-0.64367 -3.37344,-0.0759 l -2.71197,0.45695 -0.022,1.26468 c -0.0121,0.69558 -0.0326,1.71117 -0.0456,2.25688 -0.0207,0.8735 0.0572,1.00183 0.65119,1.07279 0.53603,0.064 0.70987,-0.0594 0.84569,-0.60056 l 0.17096,-0.68116 5.61604,0.0714 5.61603,0.0714 0.0873,0.76504 c 0.11832,1.0365 -0.26362,1.21054 -2.66702,1.21529 l -2.05052,0.004 v 1.02747 c 0,0.80496 0.1146,1.05744 0.52917,1.16586 0.42976,0.11238 0.52916,0.36089 0.52916,1.32291 0,0.98774 -0.094,1.20913 -0.56603,1.33256 -0.49065,0.1283 -0.54738,0.28712 -0.42595,1.19241 0.077,0.57441 0.3985,1.3028 0.71435,1.61865 0.3706,0.3706 0.54513,0.82665 0.4921,1.28585 l -0.0822,0.71158 -7.29398,0.0702 c -4.011699,0.0386 -7.375215,-0.011 -7.474484,-0.11024 z m 14.107014,-1.01834 c 0,-0.3424 -0.92605,-0.39687 -6.74688,-0.39687 -5.820833,0 -6.746875,0.0545 -6.746875,0.39687 0,0.34241 0.926042,0.39688 6.746875,0.39688 5.82083,0 6.74688,-0.0545 6.74688,-0.39688 z m -10.583338,-5.42395 v -4.23334 h -0.903994 c -0.497194,0 -0.964046,-0.14883 -1.037444,-0.33073 -0.196705,-0.48748 -0.198866,4.93541 -0.0028,7.01146 l 0.168672,1.78594 h 0.887788 0.887783 z m 9.524998,0.52916 v -3.70416 h -4.0794 c -2.24367,0 -4.26773,-0.0723 -4.49792,-0.1606 -0.36986,-0.14193 -0.41851,0.2887 -0.41851,3.70416 v 3.86477 h 4.49792 4.49791 z m -1.46945,-2.66888 c -0.0978,-0.15821 -0.0556,-0.40977 0.0936,-0.55903 0.3338,-0.33381 0.84667,-0.0519 0.84667,0.4654 0,0.44546 -0.68095,0.51326 -0.94029,0.0936 z m 2.46164,2.53176 c 0,-0.36645 -0.10418,-0.73067 -0.23151,-0.80936 -0.12733,-0.0787 -0.23151,0.22113 -0.23151,0.66628 0,0.44515 0.10418,0.80937 0.23151,0.80937 0.12733,0 0.23151,-0.29983 0.23151,-0.66629 z m -9.45885,-6.74204 c 0,-1.41111 -0.1078,-2.38125 -0.26459,-2.38125 -0.15679,0 -0.26458,0.97014 -0.26458,2.38125 0,1.41111 0.10779,2.38125 0.26458,2.38125 0.15679,0 0.26459,-0.97014 0.26459,-2.38125 z m 13.09687,2.11666 c 0.10689,-0.17294 -1.62885,-0.26458 -5.01147,-0.26458 -3.2736,0 -5.17499,0.0972 -5.17499,0.26458 0,0.16708 1.84688,0.26459 5.01147,0.26459 3.05558,0 5.07529,-0.10327 5.17499,-0.26459 z m -14.684375,-0.78544 c 0,-0.14096 -0.178593,-0.18775 -0.396875,-0.10399 -0.251311,0.0964 -0.396875,-0.004 -0.396875,-0.27288 0,-0.23386 0.20836,-0.439 0.463021,-0.45588 0.440973,-0.0292 0.440973,-0.0365 0,-0.15169 -0.254661,-0.0666 -0.463021,-0.23133 -0.463021,-0.36618 0,-0.13486 0.20836,-0.25356 0.463021,-0.26378 0.395933,-0.0159 0.38635,-0.0516 -0.06615,-0.24599 -0.452495,-0.19444 -0.462079,-0.23008 -0.06614,-0.24599 0.64625,-0.0259 0.583239,-0.54776 -0.06615,-0.54776 -0.465027,0 -0.529167,0.17639 -0.529167,1.45521 0,1.27882 0.06414,1.45521 0.529167,1.45521 0.291041,0 0.529166,-0.11533 0.529166,-0.25628 z m -0.377475,-2.91872 h 0.906642 v -4.7625 c 0,-2.61938 -0.10061,-4.7625 -0.223576,-4.7625 -0.122967,0 -0.446788,0.24664 -0.719603,0.5481 -0.383847,0.42415 -0.568632,1.30674 -0.817062,3.9026 -0.314309,3.28419 -0.413983,6.45549 -0.17404,5.53732 0.08554,-0.32735 0.386656,-0.46302 1.027639,-0.46302 z m 9.90248,-0.52917 c 0,-0.7276 -0.11907,-1.32292 -0.26459,-1.32292 -0.14552,0 -0.26458,0.59532 -0.26458,1.32292 0,0.7276 0.11906,1.32292 0.26458,1.32292 0.14552,0 0.26459,-0.59532 0.26459,-1.32292 z m -3.63803,-1.50076 4.16719,-0.7102 v -3.39243 -3.39244 h -4.49791 -4.49792 v 4.10104 c 0,3.10359 0.0804,4.10143 0.33073,4.10263 0.1819,8e-4 2.20596,-0.31799 4.49791,-0.7086 z m 2.69774,-1.16813 c -0.27266,-0.44117 0.34057,-0.94708 0.70557,-0.58208 0.3053,0.30531 0.11422,0.86972 -0.29445,0.86972 -0.12835,0 -0.31335,-0.12944 -0.41112,-0.28764 z m 2.52779,-2.75507 c 0,-0.3638 -0.11907,-0.66146 -0.26459,-0.66146 -0.14552,0 -0.26458,0.29766 -0.26458,0.66146 0,0.3638 0.11906,0.66146 0.26458,0.66146 0.14552,0 0.26459,-0.29766 0.26459,-0.66146 z m -5.35782,-5.60634 c -0.25466,-0.0665 -0.67138,-0.0665 -0.92604,0 -0.25466,0.0666 -0.0463,0.121 0.46302,0.121 0.50932,0 0.71768,-0.0545 0.46302,-0.121 z"
       style="fill:#2b1e17;fill-opacity:1;stroke-width:0.264583"
       id="path1" />
  </g>
</svg>
