<?xml version="1.0" encoding="UTF-8" standalone="no"?>
<!-- Created with Inkscape (http://www.inkscape.org/) -->

<svg
   version="1.1"
   id="svg1"
   width="24mm"
   height="24mm"
   viewBox="0 0 24 24"
   sodipodi:docname="band_saw.svg"
   inkscape:version="1.4.2 (f4327f4, 2025-05-13)"
   xmlns:inkscape="http://www.inkscape.org/namespaces/inkscape"
   xmlns:sodipodi="http://sodipodi.sourceforge.net/DTD/sodipodi-0.dtd"
   xmlns="http://www.w3.org/2000/svg"
   xmlns:svg="http://www.w3.org/2000/svg">
  <defs
     id="defs1" />
  <sodipodi:namedview
     id="namedview1"
     pagecolor="#ffffff"
     bordercolor="#000000"
     borderopacity="0.25"
     inkscape:showpageshadow="2"
     inkscape:pageopacity="0.0"
     inkscape:pagecheckerboard="0"
     inkscape:deskcolor="#d1d1d1"
     inkscape:zoom="4.270262"
     inkscape:cx="68.028612"
     inkscape:cy="60.769104"
     inkscape:window-width="24mm"
     inkscape:window-height="24mm"
     inkscape:window-x="-9"
     inkscape:window-y="-9"
     inkscape:window-maximized="1"
     inkscape:current-layer="g1" />
  <g
     inkscape:groupmode="layer"
     inkscape:label="Image"
     id="g1"
      transform="translate(0 0) scale(0.028125) translate(-301.57802,-209.60025)">
    <path
       style="fill:#2b1e17;fill-opacity:1;stroke:#2b1e17;stroke-opacity:1"
       d="m 857.87108,1038.6687 c -2.59134,-0.5407 -88.96605,-9.4232 -184,-18.9219 -41.25,-4.1229 -85.8,-8.6199 -99,-9.9933 -13.2,-1.3733 -35.2178,-3.5581 -48.92844,-4.8551 -23.27223,-2.2015 -25.05085,-2.5093 -26.77069,-4.6333 -1.67217,-2.06498 -1.81725,-4.08408 -1.57155,-21.87178 l 0.27068,-19.59685 7,-4.24073 c 3.85,-2.3324 7.31882,-4.36498 7.70848,-4.51685 0.38966,-0.15187 -0.60717,-24.80113 -2.21517,-54.77613 -1.60801,-29.975 -3.61422,-68 -4.45824,-84.5 -7.45037,-145.64867 -5.72787,-255.71529 5.99802,-383.26801 5.4408,-59.18429 17.71933,-158.27729 20.06909,-161.96611 0.78272,-1.22877 2.55453,-2.51809 3.93736,-2.86516 4.63639,-1.16366 62.65872,0.40262 91.96046,2.48242 15.95,1.13212 30.0125,2.07154 31.25,2.08762 2.193,0.0285 2.25,-0.23804 2.25,-10.52042 0,-10.9481 1.2464,-15.56344 4.5448,-16.82915 0.89033,-0.34165 12.17932,-0.62119 25.08665,-0.62119 24.47366,0 28.22319,0.57286 29.74737,4.5448 0.34165,0.89033 0.62118,7.43197 0.62118,14.53699 v 12.91821 l 2.75,0.0186 c 1.5125,0.0102 18.28723,0.65666 37.27718,1.43653 l 34.52718,1.41796 19.63466,9.46448 c 11.94211,5.75644 20.06098,10.26107 20.72282,11.49773 0.76362,1.42685 1.08816,32.17528 1.08816,103.09899 0,99.73241 -0.0264,101.09213 -2,103.06574 -1.51515,1.51515 -3.33333,2 -7.5,2 h -5.5 v 11.94774 11.94774 l 5.14701,0.30226 c 5.80121,0.34068 7.52864,1.97414 6.48501,6.13225 -0.40782,1.62492 -1.52151,2.82214 -2.89725,3.11455 -2.4651,0.52396 -10.24056,1.42496 -12.98477,1.50464 -1.55681,0.0452 -1.75,1.25725 -1.75,10.97939 0,8.60173 -0.33458,11.26315 -1.57143,12.5 -1.74953,1.74953 -2.04662,1.78714 -15.42857,1.9534 l -9.5,0.118 v 38.5 38.5 l 27.5,1.18092 c 15.125,0.64951 50.9,2.12265 79.5,3.27365 73.10719,2.94219 95.75329,4.13129 97.63369,5.12656 2.2827,1.20825 2.8079,5.20697 2.9403,22.38751 0.1152,14.93908 0.1103,14.97265 -2.4528,17 -2.4233,1.91675 -19.66561,11.8122 -68.02882,39.04204 l -20.90763,11.77158 -11.84237,-0.66926 c -9.62055,-0.5437 -11.84237,-0.4153 -11.84237,0.6844 0,1.16373 3.67125,65.00328 5.56112,96.7026 l 0.626,10.5 8.15644,0.0761 c 10.87874,0.10151 17.59211,3.10148 25.86853,11.55976 14.15278,14.46376 17.6885,36.26901 8.81513,54.36413 -5.82296,11.87454 -14.4525,19.09641 -28.19964,23.59966 l -7.32758,2.40035 21.38301,0.82532 c 11.76065,0.45393 22.42462,1.22134 23.6977,1.70537 4.14307,1.57519 5.17073,4.69623 5.68008,17.2505 0.55848,13.76531 0.77753,13.29856 -10.55334,22.48737 -9.4517,7.6649 -57.88083,47.46218 -63.87089,52.48678 -4.60385,3.8618 -9.26025,5.2099 -14.33656,4.1506 z m 17.7182,-25.156 c 7.95173,-6.4625 23.98029,-19.62498 35.61902,-29.24998 l 21.16132,-17.49996 7.3e-4,-6.10767 7.3e-4,-6.10768 -11.25,-0.66766 c -6.1875,-0.36722 -14.5125,-0.94333 -18.5,-1.28026 l -7.25,-0.61259 v 5.55683 5.55683 l -7.75,6.96563 c -4.2625,3.8311 -12.925,11.33783 -19.25,16.68173 l -11.5,9.716 -7,-0.5812 c -3.85,-0.3197 -41.2,-3.709 -83,-7.5318 -77.67977,-7.1042 -99.5109,-9.0567 -180,-16.09857 -25.3,-2.21347 -52.525,-4.6483 -60.5,-5.41073 -7.975,-0.76243 -14.58649,-1.30559 -14.6922,-1.20702 -0.44666,0.41651 -0.50758,22.76172 -0.0633,23.20602 0.26822,0.2682 18.43543,2.2748 40.37157,4.4591 21.93614,2.1843 48.20889,4.8662 58.38389,5.9598 10.175,1.09358 31.775,3.33478 48,4.98038 57.10436,5.792 115.83214,11.912 167.5,17.4551 17.05,1.8291 31.95861,3.3802 33.13025,3.4467 1.34396,0.076 7.46668,-4.216 16.58795,-11.629 z m -9.283,-43.68084 c 13.50273,-11.4541 14.0648,-12.08199 14.0648,-15.71181 0,-2.0795 -0.90526,-19.2106 -2.01169,-38.0691 -1.10643,-18.85851 -3.13525,-53.63819 -4.50848,-77.28819 -1.37323,-23.65 -3.16892,-54.475 -3.99042,-68.5 -0.8215,-14.025 -1.49269,-26.89944 -1.49153,-28.60987 l 0.002,-3.10986 -18.00186,-0.89014 -18.00186,-0.89013 0.003,4.5 c 0.004,5.30476 4.35254,87.81415 6.48304,123 0.81591,13.475 2.18533,38.225 3.04316,55 2.4449,47.81051 3.28824,60.88976 4.00044,62.04206 1.79261,2.9006 6.75031,0.1136 20.40917,-11.47296 z m -35.34612,5.1809 c -0.30516,-2.8875 -1.02135,-14.025 -1.59153,-24.75 -0.57018,-10.725 -1.92659,-36.15 -3.01425,-56.5 -3.10273,-58.05182 -6.82204,-128.67452 -7.57052,-143.75 l -0.68267,-13.75 -3.61505,-0.0394 c -1.98828,-0.0217 -15.08586,-0.6522 -29.10573,-1.40123 -22.61482,-1.20822 -25.822,-1.19053 -28.42751,0.15683 -2.65419,1.37254 -3.05068,1.36303 -4.11958,-0.0988 -1.49146,-2.0397 -7.11038,-2.1122 -9.1051,-0.11748 -1.95242,1.95242 -2.89584,1.89155 -5.06818,-0.32703 -1.62903,-1.6637 -7.153,-2.07398 -61.78896,-4.5892 -33,-1.51918 -64.31311,-3.00444 -69.58468,-3.30057 l -9.58468,-0.53842 -0.6846,116.27499 c -0.37653,63.95125 -0.4623,116.4973 -0.1906,116.769 0.2717,0.27171 12.76788,1.55932 27.76928,2.86137 38.86949,3.37367 146.00644,13.1248 173.77528,15.81625 12.925,1.25275 25.66988,2.33525 28.32196,2.40565 l 4.82195,0.128 z m -50.5592,-89.8113 c -13.71992,-5.76044 -18.26945,-23.76263 -8.74638,-34.60881 11.28461,-12.85246 33.54516,-7.98151 37.62818,8.23362 1.67186,6.63959 1.31872,10.58145 -1.44479,16.12709 -3.77435,7.57414 -8.86476,10.71867 -17.86407,11.0353 -3.90655,0.13744 -8.21437,-0.2168 -9.57294,-0.7872 z M 582.37108,901.38408 V 844.5054 l -3.01272,-1.24791 c -1.84313,-0.76345 -3.26119,-2.2379 -3.65275,-3.79801 -1.09494,-4.36256 0.43357,-47.21237 1.74029,-48.78687 0.64354,-0.77542 2.01497,-1.40985 3.04762,-1.40985 1.78862,0 1.88094,-1.27896 1.94899,-27 0.0393,-14.85 0.10434,-29.1375 0.14456,-31.75 l 0.0731,-4.75 -5.26419,-0.65534 c -8.56407,-1.06615 -8.5249,-0.95764 -8.5249,-23.61872 v -19.70609 l 7.2972,-2.97146 7.2972,-2.97146 -0.65762,-68.03846 c -0.36168,-37.42116 -0.77719,-70.06347 -0.92335,-72.53847 -0.14617,-2.475 -0.32148,-35.86295 -0.38959,-74.19543 l -0.12384,-69.69544 -2.75,-1.3175 -2.75,-1.31751 -0.26663,-25.61116 -0.26662,-25.61115 2.51662,-1.64896 2.51663,-1.64896 v -28.47694 -28.47695 h -17.95469 -17.95468 l -0.5388,3.25 c -0.55216,3.33062 -3.88593,28.14449 -7.49747,55.80509 -5.61886,43.03446 -11.04587,97.82607 -14.50511,146.44491 -7.66886,107.78417 -8.5199,190.58936 -3.05245,297 0.81952,15.95 1.94684,38.225 2.50514,49.5 2.42861,49.04557 5.55674,104.98235 6.58488,117.75 l 0.58382,7.25 5.66468,0.0855 c 3.11557,0.047 13.76468,0.89027 23.66468,1.87386 9.9,0.9836 19.4625,1.84512 21.25,1.9145 l 3.25,0.12614 z m -52.65779,-273.6882 -2.56688,-2.56688 0.37345,-34.84041 c 0.34825,-32.48945 0.50124,-34.98163 2.26732,-36.93312 1.79751,-1.98623 2.87821,-2.09271 21.23889,-2.09271 18.01168,0 19.48286,0.13785 21.34501,2 1.92488,1.92488 2,3.33333 2,37.5 0,34.16667 -0.0751,35.57512 -2,37.5 -1.85998,1.85998 -3.33333,2 -21.04545,2 h -19.04546 z m 33.65779,-19.43312 v -11 h -12.5 -12.5 v 11 11 h 12.5 12.5 z m -13.5399,5.9745 c -3.19136,-1.18056 -4.62344,-3.56649 -4.27833,-7.12798 0.60645,-6.25854 8.83778,-7.79871 12.42446,-2.32474 3.19758,4.88013 -2.53253,11.52932 -8.14613,9.45272 z m 13.5399,-39.4745 v -11.5 h -12.5 -12.5 v 11.5 11.5 h 12.5 12.5 z m -14,6.80602 c -4.08293,-1.4592 -5.36714,-7.7588 -2.17126,-10.65103 4.01515,-3.63366 12.17126,-0.69156 12.17126,4.39046 0,4.30786 -5.61964,7.82607 -10,6.26057 z m 366.93767,331.75381 c 3.61943,-7.25308 4.14687,-9.68103 4.16775,-19.1852 0.014,-6.39445 -0.47458,-9.00122 -2.528,-13.48649 -3.6773,-8.03229 -7.90034,-12.87184 -13.79555,-15.80955 -4.89375,-2.43866 -12.78187,-3.52852 -12.78187,-1.76601 0,0.44691 2.74846,2.35851 6.10768,4.24799 7.72972,4.34777 12.03146,9.1065 14.96844,16.5586 1.93171,4.90138 2.32656,7.79616 2.3708,17.38083 0.0474,10.27127 -0.20266,11.97991 -2.3405,15.99161 -1.81488,3.40565 -1.97648,4.14544 -0.6684,3.05983 0.94885,-0.78748 2.97369,-3.9337 4.49965,-6.99161 z M 893.70509,717.51276 c -0.33682,-5.3625 -0.78059,-9.94333 -0.98616,-10.17962 -0.42732,-0.49119 -31.99567,-2.07203 -100.34785,-5.02509 -26.125,-1.1287 -51.22885,-2.33021 -55.78632,-2.67004 l -8.28632,-0.61786 0.28632,10.37131 0.28632,10.3713 25.5,1.14664 c 14.025,0.63066 43.05,1.912 64.5,2.84744 21.45,0.93543 44.625,2.03873 51.5,2.45178 6.875,0.41304 15.07544,0.8192 18.22321,0.90256 l 5.72321,0.15158 z m 46.16599,-10.94888 c 8.8,-4.93233 22.39776,-12.53036 30.21724,-16.8845 l 14.21725,-7.91662 0.033,-7.33333 c 0.018,-4.03334 -0.3048,-7.1629 -0.7173,-6.95458 -13.6136,6.87501 -65.65985,32.18555 -70.5761,34.32178 l -6.82614,2.96613 0.56903,6.5 c 0.31297,3.575 0.57223,7.99931 0.57614,9.8318 l 0.007,3.33179 8.25,-4.44729 c 4.5375,-2.44601 15.45,-8.48284 24.25,-13.41518 z m -224.5,2.7579 c 0,-5.46754 -0.3375,-10.14568 -0.75,-10.39586 -0.4125,-0.25018 -8.97888,-0.78486 -19.03641,-1.18817 l -18.28641,-0.7333 0.28641,10.37629 0.28641,10.37629 12,0.30656 c 6.6,0.16861 12.45,0.47187 13,0.67392 0.55,0.20204 3.5875,0.40288 6.75,0.4463 l 5.75,0.0789 z m -55,-2.55902 v -10.5 l -5.75,-0.0136 c -3.1625,-0.008 -6.7625,-0.285 -8,-0.61664 -2.22948,-0.59747 -2.25,-0.50655 -2.25,9.96985 v 10.57282 l 7.25,0.34511 c 3.9875,0.18982 7.5875,0.43453 8,0.54381 0.4125,0.10929 0.75,-4.5263 0.75,-10.3013 z m -39,-1.84114 v -10.34114 l -15.25,-1.16532 c -8.3875,-0.64093 -17.17824,-1.16242 -19.53498,-1.15886 l -4.28499,0.006 0.28499,10.25 0.28498,10.25 14,0.72163 c 7.7,0.3969 15.35,0.88738 17,1.08996 8.17416,1.00361 7.5,1.87128 7.5,-9.65273 z m 295.2469,-19.0135 c 11.13921,-5.14505 27.62791,-12.66179 36.64156,-16.70385 9.01365,-4.04206 15.98865,-7.46338 15.5,-7.60292 -0.48865,-0.13954 -17.53846,-0.95833 -37.88846,-1.81953 -20.35,-0.8612 -56.8,-2.43006 -81,-3.48635 -24.2,-1.0563 -47.6,-2.05382 -52,-2.21672 l -8,-0.29618 -0.30794,4.24924 c -0.20612,2.84407 0.12457,4.3859 1,4.66249 0.71936,0.22728 6.68798,0.67571 13.26359,0.9965 6.57562,0.3208 12.39053,1.01814 12.92204,1.54965 0.62184,0.62184 -1.50151,2.13083 -5.95566,4.23248 -6.28836,2.96711 -8.06633,3.32245 -19.42203,3.88165 -12.42393,0.61181 -12.57746,0.6494 -25.22808,6.17708 -7.00044,3.05884 -14.42544,6.10404 -16.5,6.76712 -5.90426,1.88713 -6.1952,2.96398 -0.8008,2.96398 4.72238,0 132.25814,5.15091 144.77578,5.8472 1.61431,0.0898 11.09759,-3.70427 23,-9.20184 z m -172.06622,-6.29496 c 11.72563,-4.75728 24.46932,-9.89707 28.31932,-11.42177 l 7,-2.77217 0.29478,-5.96504 0.29478,-5.96503 -11.79478,-0.67677 -11.79478,-0.67677 -19.7511,7.53392 c -10.86311,4.14365 -30.21311,11.39663 -43,16.11773 -30.2257,11.15974 -28.62267,10.30473 -19.7489,10.53348 4.125,0.10634 14.025,0.50788 22,0.89232 28.72487,1.38471 24.32504,2.07873 48.18068,-7.5999 z m -95.18139,-16.6004 c 7.8e-4,-22.6852 0.22302,-21.98339 -5.99929,-18.9447 -2.80857,1.37158 -3.73594,2.59679 -4.69432,6.20197 -0.65687,2.471 -1.49704,5.50595 -1.86704,6.74432 -0.5773,1.93218 -0.22551,2.34104 2.47983,2.8821 1.73391,0.34679 3.58658,1.44149 4.11705,2.43267 0.53046,0.99119 0.96448,6.28414 0.96448,11.76211 v 9.95996 l 2.49929,-0.14422 2.4993,-0.14421 z m -32.99929,17.75 c 0,-2.99023 -1.53047,-3.16336 -6.62988,-0.75 l -3.69773,1.75 4.4138,0.59981 c 2.4276,0.32989 4.75131,0.66739 5.16381,0.75 0.4125,0.0826 0.75,-0.97481 0.75,-2.34981 z m 16,-3.97568 c 0,-5.68461 -0.59946,-6.38349 -4.93022,-5.74787 -2.5067,0.36791 -2.58962,0.58658 -2.09002,5.51187 0.44981,4.4344 0.8587,5.21459 3.02024,5.7627 3.62828,0.92003 4,0.40644 4,-5.5267 z m 43.58371,-7.60951 c 16.06136,-6.32341 68.4554,-25.63554 71.88447,-26.49618 l 2.53182,-0.63545 v -15.89159 c 0,-15.73983 -0.0212,-15.89159 -2.21534,-15.89159 -1.21843,0 -21.24343,6.33754 -44.5,14.08341 l -42.28466,14.08342 v 17.91658 c 0,9.85413 0.37517,17.91659 0.83371,17.91659 0.45855,0 6.64605,-2.28833 13.75,-5.08519 z m -67.81898,-0.48967 8.26474,-2.9013 -0.20537,-58.01192 c -0.11294,-31.90656 -0.37499,-68.47442 -0.58233,-81.26192 l -0.37697,-23.25 h -9.59589 -9.59589 l 0.66243,51.75 c 0.36434,28.4625 0.66291,66.53564 0.66349,84.60699 8.3e-4,25.85524 0.26743,32.76242 1.25106,32.41322 0.6875,-0.24408 4.96913,-1.74936 9.51473,-3.34507 z m 23.23527,-29.42514 c 0,-0.55 -0.19844,-1 -0.44098,-1 -0.24254,0 -0.7191,0.45 -1.05902,1 -0.33992,0.55 -0.14148,1 0.44098,1 0.58246,0 1.05902,-0.45 1.05902,-1 z m 149,-36.86563 v -37.86564 l -6.9854,-0.4998 c -3.84196,-0.27489 -7.66696,-1.06545 -8.5,-1.75681 -1.18293,-0.98175 -1.5146,-3.63896 -1.5146,-12.13456 v -10.87756 h -4.8 c -5.2529,0 -7.2,-1.23791 -7.2,-4.57756 0,-2.9673 2.37471,-4.70442 7.33654,-5.36671 l 4.16346,-0.55573 v -12.5 -12.5 h -66.25 c -36.4375,0 -66.25,0.3375 -66.25,0.75 0,125.41989 0.0904,133.23102 1.51141,130.61559 0.78723,-1.44892 2.68172,-2.93721 4.20996,-3.30731 1.52825,-0.37011 25.24592,-8.07212 52.70595,-17.1156 l 49.92732,-16.44268 h 10.32268 c 14.89334,0 14.32268,-0.91638 14.32268,23 v 19 h 8.5 8.5 z m 7.76843,-75.88437 0.26843,-23.25 h -7.01843 -7.01843 v 22.83333 c 0,12.55834 0.31903,23.15237 0.70896,23.5423 0.38993,0.38992 3.42743,0.57742 6.75,0.41666 l 6.04104,-0.29229 z m 21.62458,1.16821 c 0.33385,-0.86998 0.60699,-6.71998 0.60699,-13 v -11.41821 h -5 -5 v 13 13 h 4.39301 c 3.08336,0 4.57397,-0.47156 5,-1.58179 z m -22.74627,-45.06909 c -0.35571,-4.20798 -0.64674,-49.6112 -0.64674,-100.89604 v -93.24516 l -14.75,-0.66788 c -20.24515,-0.91669 -102.25449,-5.38734 -110.25,-6.01015 -15.8015,-1.23087 -55.6085,-3.51973 -61.30955,-3.52524 l -4.80955,-0.005 0.18726,106 0.18725,106 h 96.01903 96.01903 z m -46.51754,-81.97203 c -7.74374,-3.85886 -10.62922,-8.69326 -10.62912,-17.80823 6e-5,-6.20669 0.36596,-7.60717 3,-11.48245 4.13928,-6.08986 9.28114,-8.58741 17.66932,-8.58251 5.78565,0.003 7.24325,0.40268 11,3.01337 6.2825,4.36592 9.09769,10.32418 8.53266,18.0591 -0.58932,8.06734 -4.09322,13.44302 -11.00836,16.88897 -6.58629,3.28209 -11.85133,3.25706 -18.5645,-0.0883 z m 13.41625,-12.83164 c 2.85095,-2.85094 3.03216,-4.52779 0.92887,-8.59511 -1.22461,-2.36814 -2.18069,-2.95034 -4.84501,-2.95034 -6.42355,0 -9.58081,8.1916 -4.68519,12.15583 3.08873,2.50111 5.67326,2.3177 8.60133,-0.61038 z m 68.79534,88.20455 c 0.35854,-7.8375 0.65354,-49.80905 0.65555,-93.27012 l 0.004,-79.02012 -11.5,-5.7244 -11.5,-5.72439 v 98.99452 98.99451 h 10.84445 10.84445 z m -115.34079,-214.25 v -8.5 h -12.875 c -7.08125,0 -14.28125,-0.28125 -16,-0.625 l -3.125,-0.625 v 8.02635 8.02635 l 11.75,0.64858 c 6.4625,0.35672 12.65,0.78983 13.75,0.96247 6.75245,1.05975 6.5,1.36711 6.5,-7.91375 z"
       id="path1" />
  </g>
</svg>


