<?xml version="1.0" encoding="UTF-8" standalone="no"?>
<!-- Created with Inkscape (http://www.inkscape.org/) -->

<svg
   width="24"
   height="24"
   viewBox="0 0 40 40"
   version="1.1"
   id="svg1"
   inkscape:version="1.4.2 (f4327f4, 2025-05-13)"
   sodipodi:docname="bar_stool_frame.svg"
   xmlns:inkscape="http://www.inkscape.org/namespaces/inkscape"
   xmlns:sodipodi="http://sodipodi.sourceforge.net/DTD/sodipodi-0.dtd"
   xmlns="http://www.w3.org/2000/svg"
   xmlns:svg="http://www.w3.org/2000/svg">
  <sodipodi:namedview
     id="namedview1"
     pagecolor="#ffffff"
     bordercolor="#000000"
     borderopacity="0.25"
     inkscape:showpageshadow="2"
     inkscape:pageopacity="0.0"
     inkscape:pagecheckerboard="0"
     inkscape:deskcolor="#d1d1d1"
     inkscape:document-units="mm"
     inkscape:zoom="15.581903"
     inkscape:cx="10.557118"
     inkscape:cy="15.88381"
     inkscape:window-width="1920"
     inkscape:window-height="991"
     inkscape:window-x="-9"
     inkscape:window-y="-9"
     inkscape:window-maximized="1"
     inkscape:current-layer="layer1" />
  <defs
     id="defs1" />
  <g
     inkscape:label="Ebene 1"
     inkscape:groupmode="layer"
     id="layer1"
     transform="translate(-92.920523,-131.23333)">
    <path
       d="m 111.08837,167.89085 c -0.51634,-0.42917 -0.56201,-0.76197 -0.62463,-4.55185 l -0.0675,-4.08883 -2.63682,-1.51388 c -1.45025,-0.83263 -2.7129,-1.46685 -2.80589,-1.40938 -0.093,0.0575 -0.25171,1.30421 -0.3527,2.77053 -0.10099,1.46633 -0.24727,2.83192 -0.32506,3.03465 -0.19612,0.51108 -1.5405,0.76134 -2.1984,0.40925 -0.65441,-0.35023 -0.65322,0.12715 -0.0205,-8.21039 0.90952,-11.98487 1.34477,-16.7917 1.53679,-16.9719 0.29214,-0.27414 10.90058,-3.6656 11.46595,-3.6656 0.27623,0 2.40583,0.9532 4.73245,2.11823 3.89759,1.95166 4.23153,2.17531 4.24683,2.84427 0.009,0.39932 0.46965,5.96479 1.02337,12.36771 1.0016,11.58222 1.00407,11.64403 0.48324,12.10469 -0.6642,0.58746 -1.0514,0.58335 -1.79532,-0.019 -0.51222,-0.41477 -0.63635,-0.8921 -0.88922,-3.41957 -0.16164,-1.61563 -0.35841,-3.00112 -0.43727,-3.07886 -0.0789,-0.0777 -1.44808,0.33651 -3.04271,0.92054 -1.59462,0.58404 -3.49464,1.26372 -4.22224,1.5104 l -1.32291,0.4485 -0.21802,4.10104 c -0.17464,3.28506 -0.30315,4.16685 -0.64588,4.43177 -0.59248,0.45798 -1.22697,0.41342 -1.8835,-0.13229 z m 0.50106,-25.56936 c -0.17988,-0.17989 -0.2672,3.84268 -0.2672,12.30932 0,6.91709 0.0893,12.66586 0.19843,12.77504 0.10914,0.10919 0.22939,-5.43001 0.26721,-12.30932 0.0449,-8.15984 -0.0241,-12.60072 -0.19844,-12.77504 z m 1.46557,12.30602 c 0.16294,-10.63474 0.13639,-12.51719 -0.17504,-12.41341 -0.30498,0.10162 -0.37874,2.26604 -0.43585,12.78969 -0.0419,7.72979 0.0263,12.56837 0.17504,12.41341 0.13593,-0.14161 0.32875,-5.79979 0.43585,-12.78969 z m 11.14475,6.64875 c -0.0854,-0.69122 -0.23542,-2.12261 -0.33344,-3.18087 -0.098,-1.05825 -0.28162,-1.98801 -0.40802,-2.06613 -0.29244,-0.18074 -0.29026,-0.0766 0.0735,3.51171 0.16684,1.64563 0.4203,2.99206 0.56325,2.99206 0.15547,0 0.19753,-0.50502 0.10468,-1.25677 z m 1.07128,0.13229 c -0.0803,-0.61846 -0.53917,-5.91674 -1.01967,-11.77395 -0.65882,-8.03082 -0.95705,-10.64948 -1.21284,-10.64948 -0.19262,0 -0.34105,0.31443 -0.34348,0.7276 -0.005,0.85834 1.81066,20.70597 2.00897,21.96042 0.20917,1.3231 0.74099,1.07494 0.56702,-0.26459 z m -21.74371,-10.29817 c 0.48911,-5.86853 0.95419,-11.10403 1.03349,-11.63444 0.10064,-0.67311 0.036,-1.00591 -0.21407,-1.10186 -0.39789,-0.15269 -0.30863,-1.00512 -1.36613,13.04645 -0.67335,8.94707 -0.7601,10.77741 -0.49841,10.51572 0.0857,-0.0857 0.556,-4.95734 1.04512,-10.82587 z m 0.39393,8.09007 c 0.31387,-2.98386 0.31766,-3.81117 0.0175,-3.81117 -0.25401,0 -0.43494,1.18177 -0.70887,4.63021 -0.23855,3.00296 0.36452,2.28857 0.6914,-0.81904 z m 16.69446,-2.88359 c 2.28439,-0.79363 2.99308,-1.18226 2.69659,-1.47875 -0.3698,-0.36981 -9.45645,3.0059 -9.56255,3.55251 -0.0718,0.36989 0.34365,0.28545 2.51354,-0.51083 1.42976,-0.52468 3.38835,-1.228 4.35242,-1.56293 z m -9.96799,1.65211 c -0.0708,-0.1819 -0.63262,-0.60682 -1.24847,-0.94427 -0.61585,-0.33745 -2.102,-1.15076 -3.30255,-1.80736 -1.46336,-0.80035 -2.18281,-1.0729 -2.18281,-0.82695 0,0.36406 5.92194,3.90138 6.54014,3.90659 0.17733,0.002 0.26449,-0.14611 0.19369,-0.32801 z m 7.92088,-2.18281 c 2.41406,-0.87313 4.2889,-1.62139 4.16629,-1.66282 -0.1226,-0.0414 -1.75834,0.47791 -3.63497,1.15407 -1.87664,0.67617 -3.85855,1.35974 -4.40426,1.51904 -0.5457,0.15931 -0.99218,0.39404 -0.99218,0.52163 0,0.12758 0.10708,0.19228 0.23795,0.14377 0.13088,-0.0485 2.2131,-0.80257 4.62717,-1.67569 z m -8.04012,1.2148 c 0,-0.25098 -5.55461,-3.4667 -5.97626,-3.45982 -0.18174,0.003 5.57216,3.58741 5.91011,3.68176 0.0364,0.0102 0.0662,-0.0897 0.0662,-0.22194 z m 3.45438,-3.06688 -0.20537,-2.11667 -0.037,2.36802 c -0.0225,1.43963 0.058,2.26948 0.20537,2.11667 0.14106,-0.1463 0.15653,-1.13608 0.037,-2.36802 z m 1.14101,-0.49436 c -0.10042,-1.30641 -0.27732,-2.20975 -0.4073,-2.07978 -0.12637,0.12637 -0.14988,1.26907 -0.0522,2.53932 0.10042,1.30642 0.27733,2.20976 0.4073,2.07979 0.12637,-0.12637 0.14988,-1.26907 0.0522,-2.53933 z m -4.59539,0.90919 v -1.56954 l -1.58727,0.57736 c -0.873,0.31754 -1.58737,0.63816 -1.5875,0.7125 -1.9e-4,0.11054 2.88698,1.82229 3.10862,1.84303 0.0364,0.003 0.0662,-0.7001 0.0662,-1.56335 z m 5.55625,-0.81171 c 0,-1.23472 -0.11025,-2.11667 -0.26459,-2.11667 -0.15434,0 -0.26458,0.88195 -0.26458,2.11667 0,1.23472 0.11024,2.11667 0.26458,2.11667 0.15434,0 0.26459,-0.88195 0.26459,-2.11667 z m 4.22695,0.51981 c 0.004,-0.0779 -0.76753,-0.52328 -1.71341,-0.98972 l -1.71979,-0.84807 v 1.55579 1.55578 l 1.7134,-0.56606 c 0.94238,-0.31134 1.71628,-0.62981 1.7198,-0.70772 z m 1.59388,-0.5174 c 0,-0.14419 -1.22039,-0.88748 -2.71198,-1.65176 -3.0079,-1.54121 -3.37344,-1.68249 -3.37344,-1.30377 0,0.23547 5.413,3.18532 5.88698,3.20815 0.10914,0.005 0.19844,-0.10842 0.19844,-0.25262 z m -13.42761,-0.72289 c 1.12779,-0.39911 2.05053,-0.86808 2.05053,-1.04216 0,-0.2099 -0.80234,-0.0474 -2.38209,0.4824 -1.31015,0.4394 -2.31515,0.90721 -2.23334,1.03958 0.21067,0.34088 0.28525,0.32693 2.5649,-0.47982 z m 14.91565,-0.007 c -0.0778,-0.40018 -0.33607,-2.98979 -0.57387,-5.75469 -0.46149,-5.36579 -0.52749,-5.79523 -0.85908,-5.5903 -0.11728,0.0725 -0.005,2.31245 0.24969,4.97771 0.59104,6.18695 0.72609,7.09488 1.05537,7.09488 0.1518,0 0.20763,-0.31761 0.12789,-0.7276 z m -18.83976,-1.05834 c 0.39171,-3.06841 0.95924,-10.4614 0.81421,-10.60643 -0.22533,-0.22533 -0.65088,0.51501 -0.65963,1.14758 -0.004,0.29104 -0.18297,2.4937 -0.39765,4.89479 -0.21469,2.4011 -0.39182,4.69305 -0.39361,5.09323 -0.005,1.20774 0.46484,0.81689 0.63668,-0.52917 z m 17.6163,1.02624 c 0,-0.28313 -5.81239,-3.30569 -5.99866,-3.11942 -0.0734,0.0734 1.21651,0.84064 2.86646,1.70498 1.64995,0.86434 3.02968,1.58805 3.06606,1.60825 0.0364,0.0202 0.0661,-0.067 0.0661,-0.19381 z m -13.96306,-0.99966 c 1.26986,-0.4148 2.31165,-0.83504 2.31511,-0.93387 0.008,-0.23353 -4.80625,1.35674 -5.15309,1.70213 -0.17601,0.17528 -0.13172,0.21703 0.13229,0.12471 0.21828,-0.0763 1.43584,-0.47816 2.70569,-0.89297 z m 0.0142,-1.04003 2.32302,-0.75442 -0.074,-3.04074 -0.074,-3.04073 -1.98439,-1.12679 c -1.0914,-0.61974 -2.05248,-1.13071 -2.13572,-1.13549 -0.0832,-0.005 -0.3007,1.9856 -0.48325,4.42307 -0.18254,2.43748 -0.40014,4.71924 -0.48356,5.07059 -0.11309,0.47631 -0.0575,0.60322 0.21866,0.49888 0.20369,-0.077 1.41569,-0.47943 2.69334,-0.89437 z m 13.30451,-4.24907 c -0.22767,-2.28688 -0.41396,-4.30723 -0.41396,-4.48968 0,-0.23352 -0.64613,-0.11494 -2.18281,0.4006 l -2.18281,0.73231 -0.0848,1.56459 c -0.0466,0.86053 -0.008,2.18939 0.0851,2.95304 l 0.16993,1.38845 2.42844,1.31663 c 2.18864,1.18663 2.43665,1.26605 2.51167,0.80432 0.0458,-0.28177 -0.10304,-2.38339 -0.33073,-4.67026 z m -7.16949,3.69472 c -0.50636,-0.50637 -0.65281,-0.43609 -0.65281,0.31326 0,0.58533 0.0592,0.62671 0.50162,0.35044 0.41634,-0.26001 0.44204,-0.37285 0.15119,-0.6637 z m 0.53561,-4.80302 c -0.0972,-0.92095 -0.25548,-1.59555 -0.35181,-1.49912 -0.21606,0.21629 -0.0531,4.92453 0.18313,5.29025 0.26274,0.4068 0.36621,-1.91881 0.16868,-3.79113 z m 1.19284,0.86509 c 0,-2.38566 -0.0593,-2.76251 -0.43457,-2.76251 -0.37434,0 -0.41101,0.22541 -0.26458,1.62632 0.0935,0.89447 0.16998,2.21118 0.16998,2.92603 0,0.7991 0.10191,1.23673 0.26458,1.1362 0.14906,-0.0921 0.26459,-1.36977 0.26459,-2.92604 z m -5.29308,-3.75469 c -10e-4,-0.65126 -0.28068,-0.8762 -2.6629,-2.1437 -1.46381,-0.77886 -2.69855,-1.37417 -2.74385,-1.32292 -0.0453,0.0513 -0.15384,0.3313 -0.2412,0.62235 -0.13586,0.45257 0.25194,0.74827 2.67911,2.0429 1.56088,0.83256 2.86772,1.51717 2.9041,1.52136 0.0364,0.004 0.0655,-0.31981 0.0647,-0.71999 z m 7.88577,-0.70703 c 3.10883,-1.03825 3.3667,-1.17514 3.44415,-1.8282 0.0461,-0.38825 -0.0135,-0.70493 -0.13229,-0.70372 -0.11881,10e-4 -2.00195,0.5896 -4.18476,1.30754 -3.70485,1.21856 -3.97448,1.35205 -4.05492,2.00761 -0.081,0.65979 -0.0362,0.69127 0.74061,0.52065 0.45473,-0.0999 2.33898,-0.68662 4.18721,-1.30388 z m -6.04923,-0.0867 c -0.0158,-0.18445 -5.82879,-3.21884 -6.63291,-3.46237 -0.9972,-0.302 0.50103,0.65683 3.23623,2.07111 3.09012,1.59779 3.42608,1.7354 3.39668,1.39126 z m 4.83978,-1.5598 c 3.91076,-1.27288 4.07535,-1.33803 3.87825,-1.53513 -0.0651,-0.0651 -2.01971,0.51995 -4.34357,1.30012 -2.32387,0.78017 -4.01947,1.42875 -3.76801,1.44128 0.25146,0.0125 2.15646,-0.53028 4.23333,-1.20627 z m -4.16137,0.23283 c 0.14595,-0.10723 0.20527,-0.74708 0.13229,-1.42704 l -0.13229,-1.23265 -2.11207,0.66784 -2.11207,0.66783 1.45061,0.75077 c 1.46542,0.75844 2.28961,0.92878 2.77353,0.57325 z m 1.45521,-1.7975 c 0,-0.91318 -0.10031,-1.40883 -0.26458,-1.3073 -0.14552,0.0899 -0.26459,0.7518 -0.26459,1.47082 0,0.71902 0.11907,1.3073 0.26459,1.3073 0.14552,0 0.26458,-0.66187 0.26458,-1.47082 z m 1.19255,-0.0875 c -0.2859,-1.55706 -0.66338,-1.60851 -0.66338,-0.0904 0,1.13951 0.0699,1.3407 0.41939,1.20659 0.32455,-0.12454 0.37973,-0.37693 0.24399,-1.11617 z m 1.73951,0.49997 c 0.4818,0 0.22885,-0.45065 -0.41852,-0.74561 -0.61271,-0.27917 -0.66146,-0.25097 -0.66146,0.38271 0,0.5151 0.10339,0.64442 0.41852,0.5235 0.23018,-0.0883 0.52784,-0.1606 0.66146,-0.1606 z m -6.3191,-1.37917 c 2.18957,-0.71769 2.56979,-0.9239 2.44259,-1.32465 -0.10506,-0.33102 0.035,-0.5491 0.46305,-0.72072 0.36425,-0.14606 0.447,-0.2529 0.20359,-0.26286 -0.22556,-0.009 -0.52322,0.0783 -0.66146,0.19459 -0.13825,0.11624 -1.71663,0.67844 -3.50753,1.24933 -2.82691,0.90113 -3.19521,1.08255 -2.79371,1.37614 0.65539,0.47923 0.94872,0.44027 3.85347,-0.51183 z m 8.54642,0.60476 c 0.43881,-0.17253 0.15748,-0.39523 -1.64778,-1.30432 -1.19731,-0.60295 -2.21377,-1.09627 -2.2588,-1.09627 -0.045,0 -0.10057,0.24847 -0.12345,0.55216 -0.0327,0.43378 0.3098,0.71481 1.59734,1.31077 1.83286,0.84838 1.71092,0.82143 2.43269,0.53766 z m 2.91041,-0.0193 c -0.0899,-0.14552 -0.40164,-0.26459 -0.69269,-0.26459 -0.29104,0 -0.45558,0.11907 -0.36564,0.26459 0.0899,0.14552 0.40164,0.26458 0.69269,0.26458 0.29104,0 0.45558,-0.11906 0.36564,-0.26458 z m -17.33021,-0.52917 c 0.35277,-0.22798 0.35277,-0.25648 0,-0.25648 -0.21828,0 -0.57547,0.11542 -0.79375,0.25648 -0.35278,0.22798 -0.35278,0.25648 0,0.25648 0.21828,0 0.57547,-0.11541 0.79375,-0.25648 z m 13.62605,-1.34048 c -1.45521,-0.71516 -2.82443,-1.2911 -3.04271,-1.27988 -0.49776,0.0256 4.74979,2.58722 5.29166,2.58316 0.21828,-0.002 -0.79375,-0.58811 -2.24895,-1.30328 z m -9.07263,-0.041 c 1.86125,-0.61427 3.38408,-1.19535 3.38408,-1.29127 0,-0.19744 -6.75689,1.93309 -7.04526,2.22145 -0.34598,0.34598 0.26402,0.191 3.66118,-0.93018 z m 4.707,0.0585 c 0,-0.14552 -0.0525,-0.26458 -0.11668,-0.26458 -0.0642,0 -0.19026,0.11906 -0.28019,0.26458 -0.0899,0.14553 -0.0374,0.26459 0.11667,0.26459 0.15411,0 0.2802,-0.11906 0.2802,-0.26459 z m 0.83061,-1.8237 c -0.32835,-0.20804 -1.35978,-0.10581 -1.35978,0.13477 0,0.0558 0.38696,0.0996 0.8599,0.0974 0.58463,-0.003 0.74465,-0.0771 0.49988,-0.23215 z"
       style="fill:#28220b;stroke-width:0.264583"
       id="path1" />
  </g>
</svg>
