<?xml version="1.0" encoding="UTF-8" standalone="no"?>
<!-- Created with Inkscape (http://www.inkscape.org/) -->

<svg
   width="24.00046"
   height="25.879999"
   viewBox="0 0 48.000919 51.759998"
   version="1.1"
   id="svg1"
   inkscape:version="1.4.2 (f4327f4, 2025-05-13)"
   sodipodi:docname="base_cabinet_carcass_two_doors.svg"
   xmlns:inkscape="http://www.inkscape.org/namespaces/inkscape"
   xmlns:sodipodi="http://sodipodi.sourceforge.net/DTD/sodipodi-0.dtd"
   xmlns="http://www.w3.org/2000/svg"
   xmlns:svg="http://www.w3.org/2000/svg">
  <sodipodi:namedview
     id="namedview1"
     pagecolor="#ffffff"
     bordercolor="#000000"
     borderopacity="0.25"
     inkscape:showpageshadow="2"
     inkscape:pageopacity="0.0"
     inkscape:pagecheckerboard="0"
     inkscape:deskcolor="#d1d1d1"
     inkscape:document-units="mm"
     inkscape:zoom="22.036139"
     inkscape:cx="11.86687"
     inkscape:cy="13.54593"
     inkscape:window-width="1920"
     inkscape:window-height="991"
     inkscape:window-x="-9"
     inkscape:window-y="-9"
     inkscape:window-maximized="1"
     inkscape:current-layer="layer1" />
  <defs
     id="defs1" />
  <g
     inkscape:label="Ebene 1"
     inkscape:groupmode="layer"
     id="layer1"
     transform="translate(-84.402084,-126.12797)">
    <path
       d="m 115.61939,173.92105 c -0.097,-0.097 -0.17639,-0.79356 -0.17639,-1.54787 v -1.37147 l -3.37344,-0.82708 c -1.85539,-0.4549 -5.29393,-1.29876 -7.6412,-1.87525 -2.34728,-0.57648 -4.497233,-0.98815 -4.777687,-0.91481 -0.409609,0.10711 -4.180981,-0.69789 -6.498822,-1.38718 -0.379006,-0.11271 -0.463021,0.0303 -0.463021,0.78834 0,0.72445 -0.129597,0.96977 -0.595312,1.12687 -0.650957,0.2196 -1.543918,0.15785 -1.844513,-0.12755 -0.207889,-0.19739 -0.419802,-1.16393 -0.45093,-2.05673 -0.01541,-0.44188 -0.277278,-0.62877 -1.210286,-0.8637 l -1.190625,-0.2998 v -14.26568 -14.26567 l 0.727604,-0.51718 c 0.400182,-0.28444 2.989791,-1.79844 5.754687,-3.36444 l 5.027083,-2.84728 4.762502,0.95679 c 9.86043,1.98095 24.35895,4.9616 24.80469,5.09941 0.43345,0.13402 0.46302,1.05117 0.46302,14.3619 v 14.21873 l -1.19063,0.83923 c -1.09791,0.77388 -1.19062,0.92826 -1.19062,1.98239 0,0.62874 -0.14288,1.28604 -0.3175,1.46067 -0.44858,0.44858 -1.68472,0.39415 -2.17462,-0.0958 -0.3746,-0.37461 -0.55573,-0.30954 -1.93713,0.69585 -0.83813,0.61001 -2.02989,1.47373 -2.64836,1.91939 -0.96537,0.69564 -1.12448,0.94534 -1.12448,1.76477 0,0.52497 -0.14287,1.09736 -0.3175,1.27199 -0.33595,0.33595 -2.11765,0.43998 -2.41652,0.14111 z m 1.14652,-1.52779 c 0,-0.50073 -0.11906,-0.98401 -0.26458,-1.07395 -0.15979,-0.0987 -0.26458,0.26184 -0.26458,0.91043 0,0.59067 0.11906,1.07395 0.26458,1.07395 0.14552,0 0.26458,-0.4097 0.26458,-0.91043 z m 1.05834,-0.0156 c 0,-0.34663 -0.11907,-0.70381 -0.26459,-0.79375 -0.15776,-0.0975 -0.26458,0.22294 -0.26458,0.79375 0,0.57081 0.10682,0.89125 0.26458,0.79375 0.14552,-0.0899 0.26459,-0.44712 0.26459,-0.79375 z m 0,-15.875 c 0,-9.26042 -0.0915,-14.15521 -0.26459,-14.15521 -0.17303,0 -0.26458,4.8066 -0.26458,13.89063 0,7.63984 -0.0449,13.89062 -0.0997,13.89062 -0.0548,0 -3.75749,-0.89898 -8.22811,-1.99775 -4.47062,-1.09876 -8.26552,-1.94021 -8.4331,-1.86989 -0.16759,0.0703 -0.007,0.22066 0.35675,0.33408 1.64982,0.51436 15.80694,4.01114 16.33802,4.03547 l 0.59532,0.0272 z m 4.99317,10.88637 c 2.27422,-1.65234 4.40284,-3.16926 4.73026,-3.37094 l 0.59532,-0.36668 v -13.5624 c 0,-7.45932 -0.0606,-13.5624 -0.13456,-13.5624 -0.13183,0 -6.70915,4.0303 -8.65956,5.30621 l -0.98892,0.64692 -0.003,13.95677 c -0.002,7.67622 0.0708,13.95677 0.16126,13.95677 0.0905,0 2.02525,-1.35192 4.29948,-3.00425 z m -6.31609,-2.23506 v -4.18098 l -7.34219,-1.68157 c -4.0382,-0.92487 -7.61008,-1.73622 -7.9375,-1.803 l -0.59531,-0.12142 v 4.0079 c 0,2.97414 0.0853,4.03487 0.33073,4.11249 0.32766,0.10362 14.96419,3.73739 15.34583,3.80986 0.10914,0.0207 0.19844,-1.84375 0.19844,-4.14329 z m 8.53741,2.04168 c -0.10142,-0.38785 -0.20445,-0.45371 -0.34756,-0.22217 -0.2415,0.39077 -0.0245,1.09249 0.2797,0.90447 0.11661,-0.0721 0.14715,-0.3791 0.0679,-0.6823 z m 0.98759,-0.25757 c 0,-0.4722 -0.11022,-0.74125 -0.26458,-0.64584 -0.14552,0.0899 -0.26459,0.45415 -0.26459,0.80936 0,0.35522 0.11907,0.64585 0.26459,0.64585 0.14552,0 0.26458,-0.36422 0.26458,-0.80937 z m -34.925,-0.51355 c 0,-0.58208 -0.119062,-1.05833 -0.264583,-1.05833 -0.292725,0 -0.368192,1.66028 -0.08819,1.94027 0.308979,0.30898 0.352777,0.19949 0.352777,-0.88194 z m 1.058334,0 c 0,-0.43656 -0.119063,-0.79375 -0.264584,-0.79375 -0.145521,0 -0.264583,0.35719 -0.264583,0.79375 0,0.43656 0.119062,0.79375 0.264583,0.79375 0.145521,0 0.264584,-0.35719 0.264584,-0.79375 z m 6.614583,-13.47203 v -13.73662 l -2.447396,-0.54528 c -1.346068,-0.29991 -3.727318,-0.82789 -5.291667,-1.17329 l -2.84427,-0.62801 v 13.58195 13.58194 l 0.727604,0.18402 c 0.400182,0.10122 2.692135,0.68798 5.093229,1.30391 2.401094,0.61594 4.454922,1.13071 4.564062,1.14393 0.109141,0.0132 0.198438,-6.15742 0.198438,-13.71256 z m 1.058333,-0.0217 c 0,-8.99583 -0.09159,-13.75833 -0.264583,-13.75833 -0.172997,0 -0.264584,4.7625 -0.264584,13.75833 0,8.99583 0.09159,13.75833 0.264584,13.75833 0.172997,0 0.264583,-4.7625 0.264583,-13.75833 z m 16.60627,-1.10525 -0.0698,-8.51359 -2.38125,-0.49927 c -1.30969,-0.2746 -4.78495,-1.02739 -7.72281,-1.67287 -2.93786,-0.64548 -5.43817,-1.17367 -5.55625,-1.17374 -0.11808,-8e-5 -0.18167,3.7434 -0.14131,8.31884 0.0671,7.60761 0.11236,8.3303 0.52917,8.45128 0.25068,0.0728 3.07516,0.73662 6.27662,1.47525 3.20145,0.73862 6.47567,1.5077 7.27604,1.70905 0.80036,0.20136 1.54615,0.37793 1.65731,0.39237 0.11115,0.0145 0.17068,-3.80485 0.13229,-8.48732 z m 0.18154,-9.45925 c -0.13824,-0.13517 -3.64463,-0.96979 -7.79198,-1.85471 -4.14734,-0.88492 -7.80851,-1.66957 -8.13593,-1.74366 -0.32743,-0.0741 -0.59532,-0.0342 -0.59532,0.0886 0,0.12284 2.35149,0.73507 5.22552,1.36053 2.87404,0.62545 6.41615,1.41037 7.87136,1.74426 2.94937,0.67672 3.80813,0.77822 3.42635,0.40495 z m 6.58947,-3.69206 c 2.43196,-1.51095 4.36309,-2.80584 4.2914,-2.87754 -0.14388,-0.14388 -0.57677,0.10804 -5.8007,3.37577 -1.9774,1.23692 -3.59898,2.34417 -3.6035,2.46054 -0.005,0.11637 0.1491,0.11637 0.3414,0 0.1923,-0.11637 2.33943,-1.44782 4.7714,-2.95877 z m -5.65279,2.48573 c 0.416,-0.50125 1.18553,-0.29156 -8.72866,-2.37848 -4.5839,-0.9649 -10.213263,-2.16652 -12.509686,-2.67026 -3.627175,-0.79566 -4.26213,-0.87041 -4.83661,-0.56941 -0.709956,0.37198 -1.507823,0.17773 19.198386,4.67411 6.95927,1.51121 6.46246,1.44301 6.87657,0.94404 z m 3.47438,-2.30458 c 1.19152,-0.75647 2.05867,-1.40953 1.92699,-1.45123 -0.13167,-0.0417 -4.28753,-0.91318 -9.23524,-1.9366 -4.9477,-1.02342 -9.79324,-2.03724 -10.76785,-2.25293 -2.69104,-0.59555 -2.5936,-0.64484 -2.5936,1.31201 0,0.9373 0.0905,1.76015 0.20123,1.82855 0.11067,0.0684 3.65278,0.85241 7.87135,1.74224 4.21857,0.88983 8.08684,1.72155 8.59617,1.84828 1.5557,0.38706 1.76288,0.3306 4.00095,-1.09032 z m -21.759098,-0.33135 c -0.21964,-0.21964 -9.844867,-2.28417 -10.267498,-2.20229 -0.229386,0.0444 1.785591,0.57022 4.477726,1.16841 4.731136,1.05125 6.041053,1.28516 5.789772,1.03388 z m 24.769598,-1.87911 c -0.47348,-0.18704 -22.98369,-4.81829 -24.20937,-4.98084 -2.615647,-0.3469 0.08792,0.28652 11.22963,2.63098 9.75462,2.05259 14.31921,2.87896 12.97974,2.34986 z m -24.473953,-2.36726 c 0,-1.94027 -0.0147,-1.98437 -0.661459,-1.98437 -0.363802,0 -0.661458,-0.11906 -0.661458,-0.26458 0,-0.46309 -0.405008,-0.29832 -3.042775,1.23793 l -2.579849,1.50252 3.009749,0.61675 c 1.655363,0.33921 3.128813,0.66571 3.274333,0.72555 0.59698,0.24549 0.661459,0.0667 0.661459,-1.8338 z m 26.186083,1.73013 c 0.21407,-0.13538 0.33313,-0.29286 0.26459,-0.34996 -0.12426,-0.10351 -6.48334,-1.43126 -18.77776,-3.92073 -3.56526,-0.72192 -6.76423,-1.2435 -7.10882,-1.15907 -0.344594,0.0844 -0.574041,0.20601 -0.509882,0.27017 0.06416,0.0641 4.453752,1.0177 9.754662,2.119 5.3009,1.10129 10.94769,2.28128 12.54842,2.62221 3.48054,0.74129 3.34212,0.72616 3.82879,0.41838 z m -32.510726,-2.27386 c 1.913359,-1.09942 4.135901,-2.34958 4.938983,-2.77813 0.803082,-0.42858 1.284769,-0.77921 1.070416,-0.77921 -0.362757,0 -9.037508,4.81568 -9.593402,5.32566 -0.619361,0.5682 0.349928,0.0899 3.584003,-1.76835 z"
       style="fill:#28220b;stroke-width:0.264583"
       id="path1" />
  </g>
</svg>
