<?xml version="1.0" encoding="UTF-8" standalone="no"?>
<!-- Created with Inkscape (http://www.inkscape.org/) -->

<svg
   width="24mm"
   height="24mm"
   viewBox="0 0 24 24"
   version="1.1"
   id="svg1"
   inkscape:version="1.4.2 (f4327f4, 2025-05-13)"
   sodipodi:docname="beam.svg"
   xmlns:inkscape="http://www.inkscape.org/namespaces/inkscape"
   xmlns:sodipodi="http://sodipodi.sourceforge.net/DTD/sodipodi-0.dtd"
   xmlns="http://www.w3.org/2000/svg"
   xmlns:svg="http://www.w3.org/2000/svg">
  <sodipodi:namedview
     id="namedview1"
     pagecolor="#ffffff"
     bordercolor="#000000"
     borderopacity="0.25"
     inkscape:showpageshadow="2"
     inkscape:pageopacity="0.0"
     inkscape:pagecheckerboard="0"
     inkscape:deskcolor="#d1d1d1"
     inkscape:document-units="mm"
     inkscape:zoom="0.68862935"
     inkscape:cx="41.38656"
     inkscape:cy="39.9344"
     inkscape:window-width="1920"
     inkscape:window-height="991"
     inkscape:window-x="-9"
     inkscape:window-y="-9"
     inkscape:window-maximized="1"
     inkscape:current-layer="layer1" />
  <defs
     id="defs1" />
  <g
     inkscape:label="Ebene 1"
     inkscape:groupmode="layer"
     id="layer1"
      transform="translate(0 0.512864) scale(1.113229) translate(-94.19621,-138.1125)">
    <path
       d="m 96.861843,158.46348 c -1.330357,-0.12821 -2.31254,-0.35303 -2.443345,-0.55926 -0.336817,-0.53103 -0.273955,-7.49257 0.07457,-8.25749 0.165769,-0.36382 2.279128,-2.32199 4.696354,-4.35149 2.417218,-2.02949 5.323498,-4.47586 6.458388,-5.43637 l 2.06343,-1.74637 h 3.50839 c 2.59261,0 3.64087,0.0969 4.01589,0.37109 0.46131,0.33732 0.50805,0.73782 0.51359,4.40065 l 0.006,4.02956 -2.02244,1.8832 c -1.11235,1.03577 -3.93297,3.69891 -6.26805,5.9181 l -4.2456,4.0349 -2.06633,-0.0361 c -1.13648,-0.0198 -3.067404,-0.13253 -4.29094,-0.25046 z m 1.033989,-1.28853 c 0,-1.22632 -1.27566,-2.65829 -2.368111,-2.65829 -0.51131,0 -0.296944,1.29401 0.26411,1.59428 0.298005,0.15949 0.652248,0.5804 0.787201,0.93535 0.303967,0.7995 1.3168,0.89846 1.3168,0.12866 z m 1.965653,-0.21089 c -0.527532,-2.38265 -1.651677,-3.84056 -3.227276,-4.18546 -0.397513,-0.087 -0.87158,-0.20407 -1.053481,-0.26011 -0.20963,-0.0646 -0.330729,0.16707 -0.330729,0.63264 0,0.60339 0.18996,0.81834 1.063995,1.20396 1.044533,0.46085 2.111005,1.94065 2.111005,2.92916 0,0.27687 0.255957,0.40741 0.79879,0.40741 0.734073,0 0.785741,-0.059 0.637696,-0.7276 z m 1.593115,-0.52917 c -0.38854,-2.74596 -1.738043,-4.53171 -3.855549,-5.1019 -1.340154,-0.36086 -2.481344,-0.24314 -2.481344,0.25597 0,0.23275 0.498306,0.5067 1.288193,0.7082 2.03477,0.51908 3.411026,2.09391 3.76514,4.3084 0.14817,0.92662 0.26822,1.0861 0.81753,1.0861 0.61667,0 0.63635,-0.0531 0.46603,-1.25677 z m 1.20373,-1.22056 v -2.47734 l -1.31158,-1.22683 -1.31158,-1.22683 h -2.376971 c -1.307335,0 -2.450555,0.11906 -2.540492,0.26458 -0.09994,0.16172 0.308766,0.26459 1.051216,0.26459 3.080184,0 5.280077,2.13523 5.622987,5.45772 0.0981,0.95022 0.266,1.42144 0.50656,1.42144 0.2778,0 0.35986,-0.5649 0.35986,-2.47733 z m -6.349998,2.00108 c 0,-0.27384 -0.572828,-0.84666 -0.846667,-0.84666 -0.116416,0 -0.211666,0.23812 -0.211666,0.52916 0,0.35278 0.176389,0.52917 0.529166,0.52917 0.291042,0 0.529167,-0.0952 0.529167,-0.21167 z m 14.882808,-7.37374 c 3.22434,-3.0964 3.63803,-3.59232 3.63803,-4.36124 v -0.86757 l -1.45521,1.43714 c -0.80037,0.79042 -1.45521,1.30964 -1.45521,1.15382 0,-0.15582 0.66107,-0.90853 1.46905,-1.67268 1.34053,-1.26782 1.46205,-1.47715 1.38906,-2.39277 l -0.08,-1.00342 -2.98372,2.52363 c -1.64104,1.388 -3.04402,2.46332 -3.11773,2.38961 -0.0737,-0.0737 1.29872,-1.34806 3.04986,-2.83189 2.73343,-2.31617 3.18389,-2.80778 3.18389,-3.47479 0,-0.42731 -0.0727,-0.77693 -0.16147,-0.77693 -0.0888,0 -1.42826,1.22259 -2.97656,2.71687 -1.54831,1.49428 -4.02061,3.84576 -5.49401,5.22552 -2.51335,2.35361 -2.67088,2.56212 -2.54889,3.37382 l 0.13003,0.86516 1.70056,-1.49301 c 0.9353,-0.82115 1.75621,-1.43735 1.82423,-1.36933 0.068,0.068 -0.71109,0.86558 -1.73136,1.77234 -1.71252,1.522 -1.85503,1.72989 -1.85503,2.70605 v 1.0574 l 2.90249,-2.66491 c 1.59637,-1.4657 2.99536,-2.66011 3.10885,-2.65423 0.1135,0.006 -1.19589,1.34532 -2.90976,2.97656 -2.60262,2.47714 -3.11493,3.09294 -3.10886,3.7369 0.008,0.87007 -0.59133,1.38069 7.48175,-6.37205 z m -8.53281,1.3677 c 0,-0.89131 -0.0367,-0.92604 -0.97794,-0.92604 h -0.97795 l 0.89756,0.92604 c 0.49365,0.50932 0.93373,0.92604 0.97794,0.92604 0.0442,0 0.0804,-0.41672 0.0804,-0.92604 z m -2.25511,-4.20983 c 1.55785,-1.27186 2.89016,-2.25478 2.96069,-2.18425 0.0705,0.0705 -0.98211,1.04505 -2.3392,2.1656 -1.35708,1.12055 -2.507107,2.14341 -2.555613,2.27303 -0.04851,0.12961 0.453152,0.23566 1.114798,0.23566 1.105165,0 1.349015,-0.1334 2.998605,-1.64038 2.98467,-2.72665 3.55615,-3.11885 1.22077,-0.83783 -1.2118,1.1836 -2.20327,2.2254 -2.20327,2.31511 0,0.0897 0.33141,0.1631 0.73647,0.1631 0.73876,0 2.26952,-1.32508 9.37466,-8.1151 l 2.30592,-2.20365 h -1.13111 c -0.95754,0 -1.34515,0.1827 -2.52596,1.19063 -1.79521,1.53236 -2.11547,1.52849 -0.50715,-0.006 l 1.24137,-1.18449 h -0.83897 c -0.69695,0 -1.20941,0.36852 -3.02731,2.17697 -1.20359,1.19734 -2.18834,2.04071 -2.18834,1.87417 0,-0.16654 0.91529,-1.14617 2.03397,-2.17697 1.75024,-1.61274 1.94346,-1.87417 1.38519,-1.87417 -0.44517,0 -1.7346,0.93414 -4.10865,2.97656 -1.90294,1.63711 -4.55024,3.86953 -5.882898,4.96094 -1.332662,1.09141 -2.423123,2.04391 -2.42325,2.11667 -1.27e-4,0.0728 0.343357,0.1221 0.763299,0.10966 0.548592,-0.0163 1.560877,-0.67361 3.595979,-2.33512 z"
       style="fill:#2b1e17;fill-opacity:1;stroke-width:0.264583"
       id="path1" />
  </g>
</svg>

