<?xml version="1.0" encoding="UTF-8" standalone="no"?>
<!-- Created with Inkscape (http://www.inkscape.org/) -->

<svg
   width="24"
   height="24"
   viewBox="0 0 60 60.000001"
   version="1.1"
   id="svg1"
   inkscape:version="1.4.2 (f4327f4, 2025-05-13)"
   sodipodi:docname="bed_frame_with_headboard.svg"
   xmlns:inkscape="http://www.inkscape.org/namespaces/inkscape"
   xmlns:sodipodi="http://sodipodi.sourceforge.net/DTD/sodipodi-0.dtd"
   xmlns="http://www.w3.org/2000/svg"
   xmlns:svg="http://www.w3.org/2000/svg">
  <sodipodi:namedview
     id="namedview1"
     pagecolor="#ffffff"
     bordercolor="#000000"
     borderopacity="0.25"
     inkscape:showpageshadow="2"
     inkscape:pageopacity="0.0"
     inkscape:pagecheckerboard="0"
     inkscape:deskcolor="#d1d1d1"
     inkscape:document-units="mm"
     inkscape:zoom="22.036139"
     inkscape:cx="14.49891"
     inkscape:cy="9.7793901"
     inkscape:window-width="1920"
     inkscape:window-height="991"
     inkscape:window-x="-9"
     inkscape:window-y="-9"
     inkscape:window-maximized="1"
     inkscape:current-layer="layer1" />
  <defs
     id="defs1" />
  <g
     inkscape:label="Ebene 1"
     inkscape:groupmode="layer"
     id="layer1"
     transform="translate(-78.052124,-130.05367)">
    <path
       d="m 107.00483,176.51034 c -0.43655,-0.36619 -0.56718,-0.82009 -0.62462,-2.1705 l -0.0726,-1.70748 -5.55624,-2.58056 c -3.055942,-1.41931 -7.802283,-3.6275 -10.547428,-4.9071 -2.745146,-1.2796 -5.089795,-2.36395 -5.210331,-2.40968 -0.120536,-0.0457 -0.255758,0.4862 -0.300493,1.18204 -0.07534,1.17182 -0.14416,1.28308 -0.932904,1.50808 -0.654553,0.18672 -1.006527,0.14138 -1.521354,-0.19595 l -0.669786,-0.43886 v -7.63442 c 0,-5.79114 0.07985,-7.6978 0.330729,-7.89692 0.181901,-0.14437 0.806979,-0.41248 1.389062,-0.5958 1.333283,-0.41989 20.178705,-7.15746 23.003765,-8.22425 1.79414,-0.6775 2.20923,-0.74909 2.83659,-0.48923 l 0.73489,0.3044 0.0738,3.3405 0.0738,3.3405 2.77813,1.14643 c 1.52797,0.63054 4.08781,1.65664 5.68854,2.28023 6.77319,2.63861 16.42928,6.58035 16.74158,6.83413 0.25259,0.20526 0.31911,1.27653 0.26458,4.26136 l -0.0728,3.98717 -0.69129,0.38765 c -0.58059,0.32557 -0.82423,0.33258 -1.52136,0.0438 -0.75163,-0.31133 -0.83006,-0.45328 -0.83006,-1.50234 0,-0.63719 -0.0893,-1.15639 -0.19843,-1.15379 -0.10915,0.003 -5.13954,2.12066 -11.17865,4.70677 l -10.98021,4.70203 -0.077,1.87028 c -0.0701,1.70414 -0.13588,1.89712 -0.74005,2.1724 -0.92789,0.42277 -1.5484,0.37718 -2.18988,-0.16091 z m 0.75795,-3.9026 c 0,-2.68084 -0.0825,-3.572 -0.33073,-3.57238 -0.25061,-2.6e-4 -0.31288,0.78474 -0.25708,3.24115 0.0405,1.78291 0.12607,3.39047 0.19014,3.57238 0.30016,0.85222 0.39767,0.0575 0.39767,-3.24115 z m 1.26449,-0.25893 c 0.0658,-3.25506 0.0296,-3.61838 -0.33073,-3.31935 -0.53902,0.44735 -0.61008,7.26252 -0.0739,7.08437 0.23839,-0.0792 0.35135,-1.13032 0.40459,-3.76502 z m -2.64092,-2.30164 -0.0788,-1.63452 -3.70416,-1.6895 c -8.34805,-3.80761 -18.899022,-8.5352 -19.048729,-8.5352 -0.08798,0 -0.124264,0.67826 -0.08062,1.50725 l 0.07935,1.50726 4.101041,1.93197 c 12.841888,6.04973 18.161588,8.5055 18.467308,8.52517 0.25462,0.0164 0.323,-0.40032 0.26459,-1.61243 z m 15.39935,-3.2373 c 6.03911,-2.56627 11.1588,-4.76469 11.37708,-4.88538 0.26469,-0.14635 0.42365,-0.72854 0.47726,-1.74799 0.0718,-1.36582 0.0296,-1.51437 -0.39688,-1.39532 -0.26249,0.0733 -5.18022,2.10154 -10.92829,4.50724 -5.74808,2.40571 -10.89753,4.5579 -11.44323,4.78265 l -0.99219,0.40863 v 1.63186 c 0,1.42873 0.0576,1.6152 0.46302,1.49806 0.25466,-0.0736 5.40412,-2.23347 11.44323,-4.79975 z m -13.09228,1.48094 c -0.0828,-0.0828 -0.38558,-0.1864 -0.67287,-0.23024 -0.57058,-0.0871 -0.72548,0.33117 -0.19162,0.5174 0.40595,0.1416 1.07201,-0.0796 0.86449,-0.28716 z m -1.72439,-0.55198 c 0,-0.13128 -0.32742,-0.35518 -0.7276,-0.49756 -0.40018,-0.14237 -5.31151,-2.34132 -10.914063,-4.88654 -5.602552,-2.54523 -10.484115,-4.71596 -10.847917,-4.82385 -1.654246,-0.49057 0.293128,0.50854 5.820834,2.98643 3.274218,1.46773 8.274843,3.7418 11.112496,5.05351 2.83766,1.3117 5.24868,2.38982 5.35782,2.39581 0.10914,0.006 0.19843,-0.0965 0.19843,-0.2278 z m 9.08298,-2.43593 c 3.51733,-1.47105 8.5978,-3.59756 11.28994,-4.72557 2.69214,-1.12801 5.12019,-2.12989 5.39568,-2.22638 0.27549,-0.0965 0.42814,-0.24821 0.33921,-0.33713 -0.18493,-0.18493 -0.32378,-0.13205 -6.39635,2.43606 -2.47385,1.0462 -7.29588,3.06003 -10.71562,4.47518 -5.56211,2.30171 -7.1643,3.05247 -6.51422,3.05247 0.11341,0 3.08402,-1.20358 6.60136,-2.67463 z m -0.35173,-1.03517 c 3.85631,-1.6279 7.87466,-3.3193 8.92969,-3.75867 1.77119,-0.73761 2.422,-1.26278 1.56489,-1.26278 -0.19433,0 -3.67691,-1.37798 -7.73906,-3.06218 -4.06215,-1.6842 -7.65362,-3.16953 -7.98104,-3.30074 -0.56379,-0.22593 -0.59531,-0.17637 -0.59531,0.9362 0,0.89067 -0.12376,1.24101 -0.51177,1.44866 -1.33338,0.7136 -2.3765,0.0748 -2.4669,-1.51067 -0.0352,-0.61771 -0.0981,-1.12373 -0.13977,-1.12448 -0.086,-0.002 -5.47596,2.0953 -12.038672,4.68344 -2.442818,0.96337 -4.347818,1.84079 -4.233334,1.94981 0.114485,0.10903 3.482373,1.68528 7.484196,3.50277 4.00182,1.8175 7.93089,3.61328 8.73125,3.99063 0.80036,0.37735 1.57427,0.63699 1.71979,0.57696 0.14552,-0.06 3.41974,-1.44104 7.27604,-3.06895 z m 17.99167,0.0117 c 0,-0.91568 -0.23713,-1.59351 -0.55747,-1.59351 -0.26751,0 -0.3275,2.20184 -0.0671,2.46225 0.31709,0.31709 0.62455,-0.11057 0.62455,-0.86873 z m 1.05833,-2.66748 c 0,-2.10624 -0.10182,-3.42395 -0.26458,-3.42395 -0.16338,0 -0.26458,1.37222 -0.26458,3.58749 0,2.32428 0.0932,3.52991 0.26458,3.42397 0.15433,-0.0954 0.26458,-1.59025 0.26458,-3.58749 z m -50.799996,1.71979 c 0,-0.64624 -0.119063,-1.17499 -0.264584,-1.17499 -0.145521,0 -0.264583,0.60234 -0.264583,1.33853 0,0.82498 0.101512,1.27579 0.264583,1.17501 0.145521,-0.0899 0.264584,-0.69228 0.264584,-1.33853 z m -1.236617,-5.96143 c -0.02529,-3.94224 -0.114591,-7.23631 -0.198437,-7.32016 -0.08384,-0.0838 -0.152446,3.14163 -0.152446,7.16771 0,4.02608 0.0893,7.32015 0.198437,7.32016 0.109141,1e-5 0.177742,-3.22545 0.152446,-7.16769 z m 45.276513,1.63375 c -0.13825,-0.13325 -4.06136,-1.80839 -8.71802,-3.72252 -4.65667,-1.91414 -8.6155,-3.54426 -8.7974,-3.6225 -0.1819,-0.0782 -0.33073,-0.0263 -0.33073,0.11537 0,0.14169 2.64914,1.33616 5.88698,2.65438 3.23784,1.31821 7.13714,2.93003 8.66511,3.58183 2.7219,1.16109 3.80774,1.48856 3.29406,0.99344 z M 93.475283,157.0056 c 2.401094,-0.94627 6.151563,-2.42342 8.334377,-3.28254 l 3.96875,-1.56203 0.0791,-1.47771 c 0.0787,-1.47031 0.0844,-1.47927 1.12448,-1.79089 0.57493,-0.17226 1.04533,-0.47245 1.04533,-0.66711 0,-0.27357 -0.31535,-0.23436 -1.38907,0.17271 -17.316079,6.56488 -21.842989,8.35958 -21.628076,8.57449 0.155107,0.15511 0.5048,0.1319 0.929707,-0.0617 0.988504,-0.45039 1.185353,-0.38996 1.185353,0.36391 0,0.50761 0.212496,0.76659 0.859895,1.04798 0.472943,0.20556 0.919427,0.38041 0.992188,0.38857 0.07276,0.008 2.096823,-0.7594 4.497916,-1.70568 z m 35.189587,1.25711 c -3.3278,-1.47799 -18.25625,-7.41308 -18.25625,-7.25811 0,0.23638 18.23914,7.69199 18.78541,7.6789 0.21828,-0.005 -0.0198,-0.19458 -0.52916,-0.42079 z m 3.01054,-0.54478 c 0.12782,-0.0728 0.0683,-0.22237 -0.1323,-0.33243 -0.43097,-0.23645 -22.7275,-9.25167 -22.88133,-9.25167 -0.0579,0 -0.10525,0.0951 -0.10525,0.21143 0,0.11629 0.40909,0.35936 0.90908,0.54016 0.58077,0.21001 0.9391,0.52875 0.99219,0.88257 0.0695,0.46305 1.68444,1.19745 9.85256,4.48041 9.55088,3.83872 10.30971,4.07038 11.36505,3.46953 z m 2.54571,-0.0591 c 0.30816,-0.19915 0.23074,-0.25738 -0.34635,-0.26053 -0.42891,-0.002 -0.67406,0.10784 -0.5797,0.26053 0.20304,0.32852 0.4177,0.32852 0.92605,0 z M 86.596117,157.3942 c 0,-0.14552 -0.0525,-0.26458 -0.116677,-0.26458 -0.06417,0 -0.190261,0.11906 -0.280198,0.26458 -0.08994,0.14552 -0.03743,0.26458 0.116677,0.26458 0.154109,0 0.280198,-0.11906 0.280198,-0.26458 z m 46.156563,-0.49177 c -0.13825,-0.12495 -1.02526,-0.52622 -1.97115,-0.89171 -0.94588,-0.36549 -4.39869,-1.74063 -7.67291,-3.05588 -10.33893,-4.15312 -13.5424,-5.3781 -13.82129,-5.28515 -0.14904,0.0497 2.92954,1.35846 6.8413,2.90838 3.91175,1.54993 9.13634,3.65111 11.61019,4.66929 4.2228,1.73802 5.61356,2.1971 5.01386,1.65507 z m -48.537813,-3.46868 c 0,-2.94132 -0.05667,-3.40953 -0.396875,-3.27898 -0.264007,0.10131 -0.397406,0.51928 -0.398461,1.24847 -8.73e-4,0.60289 -0.07805,2.07843 -0.171507,3.27898 -0.164204,2.10936 -0.150795,2.18281 0.398461,2.18281 0.552235,0 0.568382,-0.0975 0.568382,-3.43128 z m 7.672916,-0.0184 c 3.565261,-1.35754 8.565887,-3.26583 11.112497,-4.24065 l 4.63021,-1.77238 0.0745,-2.90488 0.0745,-2.90488 -8.938012,3.24244 c -4.915905,1.78334 -10.069103,3.6438 -11.451551,4.13434 l -2.513542,0.89191 -0.07482,3.13667 c -0.05879,2.46464 -0.0021,3.10978 0.264583,3.01117 0.18667,-0.069 3.256431,-1.23621 6.821691,-2.59375 z m 16.139587,0.0101 c 0,-0.72761 -0.11907,-1.32292 -0.26459,-1.32292 -0.29181,0 -0.36994,2.1877 -0.0882,2.46945 0.31563,0.31562 0.35278,0.19489 0.35278,-1.14653 z m 1.05833,0 c 0,-0.72761 -0.11906,-1.32292 -0.26458,-1.32292 -0.14552,0 -0.26459,0.59531 -0.26459,1.32292 0,0.7276 0.11907,1.32292 0.26459,1.32292 0.14552,0 0.26458,-0.59532 0.26458,-1.32292 z m -1.47685,-2.01268 c 0.47974,-0.1841 0.60496,-2.22065 0.13654,-2.22065 -0.78445,0 -1.30552,0.58453 -1.30552,1.46451 0,0.92987 0.26669,1.10238 1.16898,0.75614 z m -0.63982,-1.01441 c 0,-0.22687 0.11907,-0.41249 0.26459,-0.41249 0.14552,0 0.26458,0.11203 0.26458,0.24896 0,0.13694 -0.11906,0.32256 -0.26458,0.41249 -0.14552,0.0899 -0.26459,-0.0221 -0.26459,-0.24896 z m 2.91042,0.30188 c 0,-0.90872 -0.38909,-1.50812 -0.97896,-1.50812 -0.45378,0 -0.46591,2.02335 -0.0132,2.20602 0.76675,0.30939 0.99219,0.15082 0.99219,-0.6979 z m -1.05833,-0.33955 c 0,-0.46723 0.56958,-0.38586 0.73311,0.10473 0.0576,0.17281 -0.0838,0.3142 -0.31419,0.3142 -0.23041,0 -0.41892,-0.18852 -0.41892,-0.41893 z m -25.333857,-0.81464 c -0.181901,-0.0734 -0.479558,-0.0734 -0.661459,0 -0.181901,0.0734 -0.03307,0.13346 0.33073,0.13346 0.363802,0 0.51263,-0.0601 0.330729,-0.13346 z m 7.248578,-2.35697 c 3.471225,-1.24718 8.454442,-3.03398 11.073819,-3.97065 2.61937,-0.93667 4.92837,-1.76452 5.1311,-1.83965 0.20273,-0.0751 0.30849,-0.19672 0.23503,-0.27018 -0.0735,-0.0735 -2.44198,0.69186 -5.26339,1.70071 -2.821403,1.00885 -7.868262,2.81272 -11.215242,4.00861 -5.22342,1.86635 -7.105726,2.63878 -6.43038,2.63878 0.08676,0 2.997838,-1.02043 6.469063,-2.26762 z m 18.349859,-3.0744 c 0,-2.20548 -0.0796,-2.87776 -0.33073,-2.79441 -0.23202,0.077 -0.35304,0.99023 -0.40549,3.05976 -0.0649,2.56057 -0.0213,2.92947 0.33073,2.79441 0.33019,-0.12671 0.40549,-0.69493 0.40549,-3.05976 z m -0.66146,-3.38923 c 0.20695,-0.33486 -0.1433,-0.33486 -0.66146,0 -0.34202,0.22103 -0.33504,0.25704 0.0505,0.26053 0.24608,0.002 0.52099,-0.11501 0.61093,-0.26053 z"
       style="fill:#28220b;stroke-width:0.264583"
       id="path1" />
  </g>
</svg>
