<?xml version="1.0" encoding="UTF-8" standalone="no"?>
<!-- Created with Inkscape (http://www.inkscape.org/) -->

<svg
   width="24"
   height="24"
   viewBox="0 0 60 59.999999"
   version="1.1"
   id="svg1"
   inkscape:version="1.4.2 (f4327f4, 2025-05-13)"
   sodipodi:docname="bed_slats.svg"
   xmlns:inkscape="http://www.inkscape.org/namespaces/inkscape"
   xmlns:sodipodi="http://sodipodi.sourceforge.net/DTD/sodipodi-0.dtd"
   xmlns="http://www.w3.org/2000/svg"
   xmlns:svg="http://www.w3.org/2000/svg">
  <sodipodi:namedview
     id="namedview1"
     pagecolor="#ffffff"
     bordercolor="#000000"
     borderopacity="0.25"
     inkscape:showpageshadow="2"
     inkscape:pageopacity="0.0"
     inkscape:pagecheckerboard="0"
     inkscape:deskcolor="#d1d1d1"
     inkscape:document-units="mm"
     inkscape:zoom="15.581903"
     inkscape:cx="4.5886564"
     inkscape:cy="3.8827092"
     inkscape:window-width="1920"
     inkscape:window-height="991"
     inkscape:window-x="-9"
     inkscape:window-y="-9"
     inkscape:window-maximized="1"
     inkscape:current-layer="layer1" />
  <defs
     id="defs1" />
  <g
     inkscape:label="Ebene 1"
     inkscape:groupmode="layer"
     id="layer1"
     transform="translate(-79.374998,-135.94626)">
    <path
       d="m 101.14976,177.0212 c -0.58209,-0.32798 -4.332554,-2.33518 -8.334377,-4.46045 -4.001823,-2.12527 -7.543932,-4.05629 -7.871354,-4.29117 -0.386181,-0.27702 -0.595313,-0.70107 -0.595313,-1.20709 0,-0.72745 0.183719,-0.86934 2.724788,-2.10431 1.498634,-0.72835 2.977779,-1.32427 3.286993,-1.32427 0.30921,0 0.911968,-0.29431 1.339458,-0.65402 0.941782,-0.79245 1.948781,-1.19806 2.974427,-1.19806 0.421421,0 0.980848,-0.23038 1.243169,-0.51194 0.615156,-0.6603 1.722535,-1.07556 2.868181,-1.07556 0.583046,0 0.908817,-0.12704 0.908817,-0.35441 0,-0.49932 1.159611,-0.96851 2.393701,-0.96851 0.74909,0 1.04588,-0.11161 1.04588,-0.39332 0,-0.46521 1.61125,-1.19418 2.63951,-1.19418 0.40156,0 1.03561,-0.28989 1.42661,-0.65226 0.77269,-0.7161 2.52155,-1.29507 3.16552,-1.04796 0.25233,0.0968 0.54206,-0.0616 0.75594,-0.41341 0.36654,-0.60289 1.79681,-1.32595 2.62283,-1.32595 0.27039,0 1.24358,-0.30881 2.16265,-0.68624 l 1.67104,-0.68625 5.27951,2.51192 c 14.25584,6.78272 13.08473,6.14241 13.08473,7.15413 0,0.49613 -0.14883,1.02121 -0.33073,1.16684 -0.1819,0.14563 -3.60495,1.69653 -7.60677,3.44644 -4.00183,1.74991 -11.23391,4.91955 -16.0713,7.04365 -4.8374,2.12411 -9.00459,3.85316 -9.26042,3.84235 -0.25584,-0.0108 -0.94141,-0.288 -1.52349,-0.61597 z m 9.78958,-3.5422 c 2.03729,-0.87977 7.81183,-3.41033 12.83229,-5.62347 5.02047,-2.21314 9.69368,-4.2706 10.3849,-4.57214 0.69122,-0.30154 1.25677,-0.71024 1.25677,-0.90823 0,-0.19799 -0.0893,-0.30562 -0.19844,-0.23917 -0.10914,0.0664 -4.72281,2.09355 -10.2526,4.50467 -21.17619,9.23333 -21.95866,9.58949 -22.04419,10.03357 -0.0662,0.34352 0.38118,0.22094 2.11661,-0.58003 1.21027,-0.55859 3.86737,-1.73543 5.90466,-2.6152 z m -8.39559,3.06813 c -0.1062,-0.31858 -15.569057,-8.70295 -16.958019,-9.19508 -0.506445,-0.17944 -0.718286,-0.17758 -0.657165,0.006 0.08342,0.25025 17.006854,9.41551 17.500014,9.47752 0.12127,0.0152 0.17309,-0.11446 0.11517,-0.28823 z m 1.8922,-1.52705 c 0.95749,-0.43156 3.58636,-1.57752 5.84193,-2.54657 4.20694,-1.8074 8.6297,-3.73767 12.8323,-5.60051 1.30968,-0.58054 4.16718,-1.83032 6.35,-2.7773 5.10829,-2.21615 5.42395,-2.36563 5.42395,-2.56841 0,-0.0933 -0.56554,-0.41871 -1.25677,-0.72316 -0.69122,-0.30446 -4.36494,-2.04101 -8.16382,-3.859 -3.79888,-1.81799 -7.16501,-3.38731 -7.48028,-3.48737 -0.65379,-0.20751 -3.01025,0.59267 -2.79085,0.94767 0.0778,0.12579 0.59548,-0.003 1.15051,-0.28612 l 1.00916,-0.51484 8.10404,3.89024 c 4.45722,2.13964 8.10121,3.94978 8.09777,4.02254 -0.008,0.16767 -5.06654,2.64693 -5.39944,2.6463 -0.13606,-2.6e-4 -1.02903,0.3993 -1.98437,0.8879 -0.95534,0.4886 -2.14798,0.96669 -2.65031,1.0624 -0.50233,0.0957 -1.15717,0.39106 -1.45521,0.65631 -0.29804,0.26525 -0.9586,0.63317 -1.46793,0.81758 -0.85835,0.3108 -1.55845,0.62426 -5.58262,2.49951 -0.81487,0.37973 -1.63381,0.69041 -1.81987,0.69041 -0.18607,0 -0.97463,0.36407 -1.75237,0.80905 -0.77774,0.44498 -1.6852,0.83489 -2.01658,0.86646 -0.33138,0.0316 -1.49548,0.48629 -2.58689,1.01048 -1.97737,0.9497 -3.59842,1.58541 -4.10104,1.60826 -0.14552,0.007 -2.34818,-1.11545 -4.894794,-2.49348 -2.546614,-1.37802 -6.177722,-3.32171 -8.069125,-4.3193 -3.380441,-1.78296 -3.424306,-1.81759 -2.579687,-2.03645 0.472575,-0.12246 0.859229,-0.33831 0.859229,-0.47967 0,-0.37049 -0.328965,-0.32078 -1.578144,0.2385 l -1.106763,0.49551 0.879433,0.53048 c 0.483687,0.29176 3.14162,1.72766 5.906515,3.19089 2.764896,1.46322 6.217709,3.31357 7.672917,4.11189 1.455209,0.79831 2.695869,1.46115 2.757019,1.47297 0.0612,0.0118 0.8946,-0.3316 1.85209,-0.76317 z m -1.07385,-0.89101 c 0.31993,-0.38549 -0.7621,-1.02672 -8.76219,-5.1926 -3.604054,-1.87674 -4.266213,-2.13818 -4.889397,-1.93045 -0.674346,0.22478 -0.499475,0.35287 2.71339,1.9875 1.888804,0.96098 4.982001,2.58663 6.873771,3.61255 1.891776,1.02592 3.514306,1.86767 3.605626,1.87054 0.0913,0.003 0.29778,-0.15352 0.4588,-0.34754 z m 2.92499,-0.87074 c 0.0606,-0.0547 0.0398,-0.16982 -0.0462,-0.25587 -0.22801,-0.22801 -1.25466,0.14569 -1.25466,0.4567 0,0.23232 0.99006,0.0795 1.30087,-0.20083 z m -1.59841,-0.73118 c 0.59914,-0.33215 0.42605,-0.45394 -3.70416,-2.60639 -8.902866,-4.63969 -10.098516,-5.18291 -10.754077,-4.88589 -0.535844,0.24277 -0.0084,0.57867 4.894792,3.11698 3.022446,1.56469 6.209735,3.2612 7.082855,3.77002 1.86569,1.08724 1.68899,1.04412 2.48059,0.60528 z m 2.98554,-0.92393 c -0.31537,-0.23788 -3.40951,-1.88882 -6.87588,-3.66875 -5.590113,-2.87044 -6.357556,-3.19598 -6.789591,-2.88007 -0.439568,0.32142 -0.102047,0.55226 3.459247,2.36582 2.170491,1.1053 5.256034,2.70731 6.856764,3.56001 2.27064,1.20956 3.02169,1.49598 3.41663,1.30293 0.49007,-0.23954 0.48793,-0.26123 -0.0672,-0.67994 z m 3.00054,-0.29639 c 0.20819,-0.33687 -0.40478,-0.33687 -0.92604,0 -0.32266,0.20851 -0.28846,0.25724 0.18282,0.26053 0.31883,0.002 0.65328,-0.11501 0.74322,-0.26053 z m -1.32292,-0.26458 c 0.0899,-0.14553 0.0374,-0.26459 -0.11667,-0.26459 -0.15411,0 -0.2802,0.11906 -0.2802,0.26459 0,0.14552 0.0525,0.26458 0.11667,0.26458 0.0642,0 0.19027,-0.11906 0.2802,-0.26458 z m -0.11065,-0.52917 c 0.86632,0 -0.57382,-0.84415 -6.9743,-4.08805 -5.518563,-2.79693 -7.355624,-3.61393 -7.805206,-3.47124 -0.323382,0.10264 -0.57589,0.26789 -0.561129,0.36722 0.04792,0.32248 14.381925,7.42577 14.745325,7.30712 0.1938,-0.0633 0.46169,-0.11505 0.59531,-0.11505 z m 2.93314,-0.59064 c -0.13346,-0.13345 -3.19448,-1.7872 -6.80227,-3.67498 -5.662871,-2.96311 -6.610918,-3.38103 -6.934879,-3.05707 -0.323964,0.32396 0.523036,0.83593 6.195739,3.74499 3.61405,1.85336 6.68128,3.47323 6.81607,3.59971 0.33113,0.31076 1.04543,-0.29256 0.72534,-0.61265 z m 2.46918,-0.46769 c 0.0899,-0.14553 -0.0151,-0.26459 -0.23336,-0.26459 -0.21828,0 -0.47045,0.11906 -0.56039,0.26459 -0.0899,0.14552 0.0151,0.26458 0.23335,0.26458 0.21829,0 0.47046,-0.11906 0.5604,-0.26458 z m -1.13596,-1.08898 c -0.10282,-0.0916 -3.37599,-1.80015 -7.27369,-3.79689 -5.86071,-3.00237 -7.155065,-3.57373 -7.481698,-3.30265 -0.329367,0.27335 0.759775,0.93531 6.557568,3.9856 3.82389,2.01179 6.92505,3.7736 6.89146,3.91514 -0.0336,0.14154 0.28866,0.0566 0.71612,-0.18871 0.42746,-0.24533 0.69307,-0.52095 0.59024,-0.61249 z m 3.90642,0.041 c 0.52794,-0.33388 0.25018,-0.55338 -0.46393,-0.36664 -0.31944,0.0835 -0.51557,0.25741 -0.43586,0.38638 0.18298,0.29607 0.40824,0.29113 0.89979,-0.0197 z m -1.32648,-0.85848 c 0.45132,-0.28185 -0.29583,-0.74355 -6.41973,-3.96709 -3.81178,-2.00646 -7.09923,-3.6191 -7.30545,-3.58363 -0.20622,0.0355 -0.4118,0.18355 -0.45683,0.32907 -0.0572,0.18481 12.72691,7.25225 13.60152,7.51933 0.0383,0.0117 0.29957,-0.12224 0.58049,-0.29768 z m 2.50713,-0.46512 c -0.51328,-0.51156 -12.83479,-6.66162 -13.14154,-6.55937 -0.27519,0.0917 7.82046,4.42337 11.83626,6.33308 1.30736,0.62171 1.78515,0.70454 1.30528,0.22629 z m 2.39889,-0.27424 0.52917,-0.22739 -0.52917,-0.0145 c -0.29104,-0.008 -0.70776,0.10087 -0.92604,0.24193 -0.35278,0.22799 -0.35278,0.25487 0,0.24194 0.21828,-0.008 0.635,-0.11687 0.92604,-0.24194 z m -31.816148,-0.43981 c -0.181901,-0.0734 -0.479557,-0.0734 -0.661458,0 -0.181901,0.0734 -0.03307,0.13345 0.330729,0.13345 0.363802,0 0.51263,-0.06 0.330729,-0.13345 z m 21.512978,-0.23006 c -0.28248,-0.21365 -0.63967,-0.38424 -0.79375,-0.37908 -0.15409,0.005 0.0175,0.17953 0.38129,0.38749 0.85706,0.48994 1.06571,0.48568 0.41246,-0.008 z m 9.781,-0.0728 c -0.0815,-0.0815 -0.29495,-1.7e-4 -0.47443,0.18065 -0.25936,0.26131 -0.22897,0.2917 0.14812,0.14812 0.26093,-0.0994 0.40778,-0.24731 0.32631,-0.32877 z m -0.71318,-0.14739 c 0.57836,-0.32084 0.17504,-0.56596 -6.48229,-3.93962 -6.26236,-3.1735 -7.15562,-3.55592 -7.57925,-3.24477 -0.4297,0.31561 0.0991,0.65131 5.02708,3.19114 3.02902,1.56114 6.10262,3.16622 6.83023,3.56685 1.58982,0.87539 1.44526,0.84743 2.20423,0.4264 z m 3.48431,-0.40285 c 0,-0.12901 -3.03134,-1.76491 -6.73632,-3.63535 -5.63629,-2.84545 -6.79204,-3.34182 -7.0776,-3.03966 -0.20614,0.21813 -0.23652,0.40232 -0.0767,0.46515 0.14552,0.0572 3.00302,1.52516 6.35,3.2621 5.46601,2.83663 7.54063,3.64763 7.54063,2.94776 z m -33.337504,-0.82377 c 0.218281,-0.14107 0.277813,-0.25648 0.132292,-0.25648 -0.145521,0 -0.443177,0.11541 -0.661458,0.25648 -0.218282,0.14106 -0.277813,0.25647 -0.132292,0.25647 0.145521,0 0.443177,-0.11541 0.661458,-0.25647 z m 3.4925,-0.0529 c -0.246943,-0.24694 -0.388056,-0.24694 -0.635,0 -0.246943,0.24694 -0.17639,0.3175 0.3175,0.3175 0.49389,0 0.564444,-0.0706 0.3175,-0.3175 z m 32.093964,0.0529 c 0.20819,-0.33687 -0.40478,-0.33687 -0.92605,0 -0.32265,0.20851 -0.28846,0.25723 0.18283,0.26053 0.31883,0.002 0.65328,-0.11501 0.74322,-0.26053 z m -17.85938,-0.12692 c 0,-0.16044 -2.02359,-1.20012 -2.30456,-1.18404 -0.11494,0.007 0.3268,0.29885 0.98164,0.6495 1.3339,0.71426 1.32292,0.70982 1.32292,0.53454 z m -15.418795,-0.57987 c 0.06564,-0.19714 -0.09487,-0.25812 -0.441098,-0.16758 -0.299349,0.0783 -0.544274,0.25624 -0.544274,0.39546 0,0.35126 0.858671,0.15268 0.985372,-0.22788 z m 32.328195,-0.25321 c 0.21276,-0.18568 -14.01839,-7.01256 -14.44551,-6.92971 -0.23962,0.0465 -0.47287,0.20356 -0.51834,0.34908 -0.0455,0.14552 3.04029,1.8223 6.85724,3.72617 6.87377,3.4286 7.28346,3.57285 8.10661,2.85446 z m 2.53775,-0.0988 c 0.17722,-0.28675 -12.34693,-6.61414 -13.09171,-6.61414 -0.24553,0 -0.52328,0.0769 -0.61722,0.17081 -0.17157,0.17156 12.63976,6.6469 13.23002,6.68697 0.17331,0.0118 0.38882,-0.0979 0.47891,-0.24364 z m 2.12727,-0.54633 c 0.28822,-0.46635 -0.0156,-0.53173 -0.55936,-0.12037 -0.44764,0.33866 -0.45526,0.38676 -0.0624,0.39415 0.24608,0.005 0.52589,-0.11858 0.62181,-0.27378 z m -35.332754,-0.24698 c 0.342024,-0.22103 0.335039,-0.25704 -0.05053,-0.26053 -0.246073,-0.002 -0.520991,0.11501 -0.610928,0.26053 -0.206952,0.33486 0.143306,0.33486 0.661458,0 z m 10.451044,0 c -0.0899,-0.14552 -0.30533,-0.26276 -0.47864,-0.26053 -0.18934,0.002 -0.1567,0.10642 0.0818,0.26053 0.5083,0.32849 0.59989,0.32849 0.39688,0 z m 23.01875,0 c -0.0899,-0.14552 -0.30532,-0.26276 -0.47864,-0.26053 -0.18934,0.002 -0.1567,0.10642 0.0818,0.26053 0.5083,0.32849 0.59989,0.32849 0.39688,0 z m -30.956252,-0.52916 c 0.08994,-0.14553 -0.02209,-0.26459 -0.248968,-0.26459 -0.226869,0 -0.412491,0.11906 -0.412491,0.26459 0,0.14552 0.112036,0.26458 0.248968,0.26458 0.136932,0 0.322554,-0.11906 0.412491,-0.26458 z m 31.965832,-0.0492 c 0.5223,-0.28358 -0.10957,-0.64931 -6.56583,-3.80029 -6.11242,-2.98318 -7.23045,-3.44707 -7.74429,-3.21324 -0.53171,0.24195 0.21129,0.67491 6.48229,3.77732 3.89556,1.92723 7.12042,3.51439 7.16637,3.52703 0.0459,0.0126 0.34361,-0.11823 0.66146,-0.29082 z m -30.172449,-0.24762 c -0.163254,-0.16325 -0.233858,-0.46091 -0.156901,-0.66146 0.07696,-0.20054 0.0081,-0.36463 -0.152966,-0.36463 -0.403207,0 -0.370806,0.9828 0.03784,1.14769 0.534691,0.21575 0.586306,0.19268 0.272029,-0.1216 z m 4.688909,0.0322 c -0.21828,-0.14106 -0.51594,-0.25648 -0.66146,-0.25648 -0.14552,0 -0.086,0.11542 0.13229,0.25648 0.21828,0.14107 0.51594,0.25648 0.66146,0.25648 0.14552,0 0.086,-0.11541 -0.13229,-0.25648 z m 28.4487,-0.01 c 0.23439,-0.37925 -13.21925,-6.90974 -13.7865,-6.69206 -0.28561,0.1096 1.84897,1.30745 6.27699,3.52245 3.69037,1.84601 6.85157,3.37607 7.02488,3.40013 0.17332,0.0241 0.3914,-0.0797 0.48463,-0.23052 z m -29.50703,-2.37766 c 0,-0.11492 -0.23813,-0.14668 -0.52917,-0.0706 -0.29104,0.0761 -0.52917,0.23241 -0.52917,0.34733 0,0.11493 0.23813,0.14669 0.52917,0.0706 0.29104,-0.0761 0.52917,-0.23241 0.52917,-0.34734 z m 1.98437,-0.25849 c 0.0899,-0.14552 -0.0221,-0.26458 -0.24897,-0.26458 -0.22687,0 -0.41249,0.11906 -0.41249,0.26458 0,0.14552 0.11204,0.26458 0.24897,0.26458 0.13693,0 0.32255,-0.11906 0.41249,-0.26458 z m 1.5875,-1.05833 c 0.19341,-0.31295 -0.0655,-0.31295 -0.79375,0 -0.51018,0.21923 -0.50836,0.22805 0.0505,0.24598 0.31884,0.0102 0.65329,-0.10046 0.74322,-0.24598 z m 3.175,0 c 0.0899,-0.14553 -0.0887,-0.26459 -0.39687,-0.26459 -0.30822,0 -0.48681,0.11906 -0.39688,0.26459 0.0899,0.14552 0.26853,0.26458 0.39688,0.26458 0.12834,0 0.30694,-0.11906 0.39687,-0.26458 z m -1.19062,-0.52917 c 0.32093,-0.2074 0.28295,-0.25726 -0.19844,-0.26053 -0.32742,-0.002 -0.59531,0.11501 -0.59531,0.26053 0,0.3315 0.28078,0.3315 0.79375,0 z m 2.23573,-1.35265 c 0.40414,-0.3776 -0.17563,-0.26172 -0.91282,0.18244 l -0.66145,0.39853 0.66145,-0.17306 c 0.36381,-0.0952 0.77457,-0.27875 0.91282,-0.40791 z m 3.45281,0.29432 c 0.0899,-0.14553 -0.0221,-0.26459 -0.24897,-0.26459 -0.22687,0 -0.41249,0.11906 -0.41249,0.26459 0,0.14552 0.11204,0.26458 0.24897,0.26458 0.13693,0 0.32255,-0.11906 0.41249,-0.26458 z m -1.34608,-0.4246 c 0.22935,-0.088 0.35434,-0.26141 0.27775,-0.38532 -0.16915,-0.27369 -0.91605,-0.0217 -0.91605,0.30906 0,0.2791 0.0837,0.28909 0.6383,0.0763 z m 8.62212,-0.76603 c -0.65484,-0.35065 -1.30969,-0.63755 -1.45521,-0.63755 -0.14552,0 0.2712,0.2869 0.92604,0.63755 0.65485,0.35065 1.30969,0.63755 1.45521,0.63755 0.14552,0 -0.2712,-0.2869 -0.92604,-0.63755 z m -6.46671,-0.79011 c 0.46987,-0.35977 0.44039,-0.36883 -0.34631,-0.10641 -0.89786,0.29949 -1.1036,0.49965 -0.51359,0.49965 0.19047,0 0.57742,-0.17696 0.8599,-0.39324 z m 2.89484,0.12865 c 0.0899,-0.14552 -0.0221,-0.26458 -0.24897,-0.26458 -0.22687,0 -0.41249,0.11906 -0.41249,0.26458 0,0.14552 0.11203,0.26459 0.24897,0.26459 0.13693,0 0.32255,-0.11907 0.41249,-0.26459 z"
       style="fill:#28220b;stroke-width:0.264583"
       id="path1" />
  </g>
</svg>
