<?xml version="1.0" encoding="UTF-8" standalone="no"?>
<!-- Created with Inkscape (http://www.inkscape.org/) -->

<svg
   width="24"
   height="24"
   viewBox="0 0 48 48"
   version="1.1"
   id="svg1"
   inkscape:version="1.4.2 (f4327f4, 2025-05-13)"
   sodipodi:docname="bookshelf_carcass.svg"
   xmlns:inkscape="http://www.inkscape.org/namespaces/inkscape"
   xmlns:sodipodi="http://sodipodi.sourceforge.net/DTD/sodipodi-0.dtd"
   xmlns="http://www.w3.org/2000/svg"
   xmlns:svg="http://www.w3.org/2000/svg">
  <sodipodi:namedview
     id="namedview1"
     pagecolor="#ffffff"
     bordercolor="#000000"
     borderopacity="0.25"
     inkscape:showpageshadow="2"
     inkscape:pageopacity="0.0"
     inkscape:pagecheckerboard="0"
     inkscape:deskcolor="#d1d1d1"
     inkscape:document-units="mm"
     inkscape:zoom="11.01807"
     inkscape:cx="28.18098"
     inkscape:cy="17.74358"
     inkscape:window-width="1920"
     inkscape:window-height="991"
     inkscape:window-x="-9"
     inkscape:window-y="-9"
     inkscape:window-maximized="1"
     inkscape:current-layer="layer1" />
  <defs
     id="defs1" />
  <g
     inkscape:label="Ebene 1"
     inkscape:groupmode="layer"
     id="layer1"
     transform="translate(-93.922292,-128.38641)">
    <path
       d="m 105.93194,168.71557 -3.70417,-2.30296 -0.0685,-13.54078 -0.0685,-13.54077 0.99459,-0.25266 c 7.5587,-1.92016 11.42211,-2.91714 16.07584,-4.14849 3.05593,-0.80858 5.97939,-1.53575 6.49657,-1.61593 0.78988,-0.12246 1.50952,0.13903 4.49792,1.63441 1.95667,0.97911 3.64568,1.91439 3.75335,2.0784 0.10767,0.16401 0.16719,6.36184 0.13228,13.77296 l -0.0635,13.47474 -0.76543,0.20468 c -0.51745,0.13836 -1.01754,0.0743 -1.54366,-0.19777 -0.74628,-0.38592 -1.17368,-0.29033 -10.40828,2.32787 -9.03093,2.56044 -9.63037,2.76775 -9.63499,3.33217 -0.005,0.57664 -0.87925,1.14939 -1.6758,1.09751 -0.17243,-0.0112 -1.98037,-1.05675 -4.01767,-2.32338 z m 4.89479,-11.82702 c 0,-8.85068 -0.0895,-13.32174 -0.26458,-13.21355 -0.17068,0.10548 -0.26459,4.85344 -0.26459,13.37707 0,8.63264 0.0917,13.21355 0.26459,13.21355 0.1729,0 0.26458,-4.63541 0.26458,-13.37707 z m -1.32613,-0.0505 -0.003,-13.16302 -3.07964,-1.5875 c -1.6938,-0.87313 -3.18064,-1.62719 -3.30408,-1.6757 -0.12345,-0.0485 -0.22445,5.66917 -0.22445,12.70594 v 12.79414 l 3.24115,2.0286 c 1.78263,1.11574 3.27091,2.0358 3.30729,2.04458 0.0364,0.009 0.0647,-5.90738 0.0629,-13.14704 z m 21.76519,6.18609 c 0.40019,-0.0973 0.72761,-0.30858 0.72761,-0.46952 0,-0.38676 0.0937,-0.41055 -10.82619,2.7499 -5.15403,1.49169 -9.41422,2.84234 -9.46708,3.00143 -0.0528,0.15909 4.16408,-0.92443 9.37098,-2.40782 5.20689,-1.4834 9.7945,-2.7767 10.19468,-2.87399 z m -9.19427,1.26936 c 4.94771,-1.40558 9.03929,-2.59523 9.09239,-2.64366 0.0531,-0.0484 -1.26032,-0.76349 -2.91873,-1.589 l -3.01529,-1.50093 -6.80471,1.92551 -6.8047,1.92551 v 2.45839 2.45839 l 0.7276,-0.2393 c 0.40019,-0.13162 4.77573,-1.38932 9.72344,-2.79491 z m 11.24479,-13.60702 c 0,-8.33683 -0.094,-12.99147 -0.26458,-13.09687 -0.17505,-0.10818 -0.26458,4.32398 -0.26458,13.09687 0,8.77289 0.0895,13.20506 0.26458,13.09688 0.17055,-0.10541 0.26458,-4.76004 0.26458,-13.09688 z m -16.21101,9.38221 c 2.87694,-0.80613 5.85588,-1.6429 6.61987,-1.85947 l 1.38906,-0.39377 v -2.13758 c 0,-1.59644 -0.0837,-2.10779 -0.33073,-2.0199 -0.1819,0.0647 -3.21799,0.92575 -6.74687,1.91338 l -6.41615,1.79571 v 2.08367 c 0,1.14602 0.0572,2.08367 0.12701,2.08367 0.0699,0 2.48087,-0.65957 5.35781,-1.46571 z m 14.78713,-8.24845 c -0.0624,-0.0624 -1.4983,0.27412 -3.19085,0.74786 l -3.07737,0.86135 0.0757,2.26654 0.0757,2.26654 3.04271,1.5875 3.04271,1.5875 0.0724,-4.6019 c 0.0398,-2.53105 0.0213,-4.65297 -0.0411,-4.71539 z m -14.78713,3.21716 c 2.87694,-0.80846 7.37393,-2.07255 9.99331,-2.8091 2.61937,-0.73655 4.8121,-1.38478 4.87274,-1.4405 0.56202,-0.51652 -1.07456,-0.1897 -5.85408,1.16902 -3.09829,0.88078 -7.41919,2.09358 -9.602,2.6951 -2.18281,0.60152 -4.17711,1.15403 -4.43177,1.22778 -0.40469,0.11721 -0.67795,0.62762 -0.33601,0.62762 0.0699,0 2.48087,-0.66147 5.35781,-1.46992 z m 3.8299,-2.37815 c 4.9906,-1.38883 9.34745,-2.61114 9.68188,-2.71623 0.5169,-0.16243 0.15986,-0.41788 -2.38125,-1.70371 l -2.98931,-1.51263 -4.7625,1.32103 c -2.61937,0.72657 -5.68523,1.57104 -6.81302,1.8766 l -2.05052,0.55556 v 2.35227 c 0,1.29374 0.0542,2.35226 0.12045,2.35226 0.0662,0 4.20367,-1.13632 9.19427,-2.52515 z m -4.71034,-4.21408 c 2.34254,-0.65064 5.27119,-1.45813 6.50812,-1.79443 l 2.24896,-0.61143 0.0764,-2.30662 c 0.0536,-1.61664 -0.0153,-2.30662 -0.23028,-2.30662 -0.31976,0 -6.25824,1.5315 -9.23887,2.38266 -0.94588,0.27011 -2.22581,0.623 -2.84427,0.78421 l -1.12448,0.29311 v 2.37105 c 0,1.30408 0.0777,2.37105 0.17261,2.37105 0.0949,0 2.08924,-0.53234 4.43177,-1.18298 z m 15.71197,-6.57651 -0.0757,-2.46782 -3.04271,0.83343 -3.04271,0.83342 -0.075,2.50286 -0.075,2.50285 3.11773,1.63257 3.11775,1.63257 0.0757,-2.50103 c 0.0417,-1.37557 0.0417,-3.61155 0,-4.96885 z m -16.32551,1.16779 c 2.0979,-0.56951 6.55281,-1.77365 9.89979,-2.67589 3.34697,-0.90223 6.19654,-1.74398 6.33236,-1.87055 0.47883,-0.44622 -0.0216,-0.47974 -1.31763,-0.0883 -0.72081,0.21772 -5.12057,1.41821 -9.77723,2.66774 -4.65667,1.24954 -8.67503,2.33108 -8.92969,2.40342 -0.46541,0.13222 -0.65437,0.59899 -0.24249,0.59899 0.12129,0 1.93699,-0.46595 4.03489,-1.03545 z m -5.3358,-0.11425 c -0.53165,-0.44062 -6.32796,-3.32993 -6.32796,-3.15433 0,0.26606 6.14846,3.53543 6.32216,3.36174 0.0638,-0.0638 0.0664,-0.15716 0.006,-0.20741 z m 9.74373,-2.43784 c 4.62125,-1.24555 9.05712,-2.4543 9.85748,-2.68612 l 1.45521,-0.42148 -3.20535,-1.5716 -3.20535,-1.57161 -5.5259,1.4606 c -3.03924,0.80333 -7.4635,1.9624 -9.83169,2.57572 -2.36817,0.61331 -4.23792,1.18297 -4.15498,1.26591 0.20453,0.20453 5.76433,3.15058 6.01162,3.18546 0.10818,0.0153 3.97771,-0.99134 8.59896,-2.23688 z m 12.21668,-3.65811 c -0.328,-0.30319 -5.57661,-2.8064 -5.86012,-2.79485 -0.18455,0.008 1.03368,0.70955 2.70717,1.56009 1.67349,0.85053 3.09232,1.49923 3.15295,1.44154 0.0606,-0.0577 0.0606,-0.15074 0,-0.20678 z"
       style="fill:#28220b;stroke-width:0.264583"
       id="path1" />
  </g>
</svg>
