<?xml version="1.0" encoding="UTF-8" standalone="no"?>
<!-- Created with Inkscape (http://www.inkscape.org/) -->

<svg
   width="24"
   height="24"
   viewBox="0 0 47.999999 48"
   version="1.1"
   id="svg1"
   inkscape:version="1.4.2 (f4327f4, 2025-05-13)"
   sodipodi:docname="chair_carcass.svg"
   xmlns:inkscape="http://www.inkscape.org/namespaces/inkscape"
   xmlns:sodipodi="http://sodipodi.sourceforge.net/DTD/sodipodi-0.dtd"
   xmlns="http://www.w3.org/2000/svg"
   xmlns:svg="http://www.w3.org/2000/svg">
  <sodipodi:namedview
     id="namedview1"
     pagecolor="#ffffff"
     bordercolor="#000000"
     borderopacity="0.25"
     inkscape:showpageshadow="2"
     inkscape:pageopacity="0.0"
     inkscape:pagecheckerboard="0"
     inkscape:deskcolor="#d1d1d1"
     inkscape:document-units="mm"
     inkscape:zoom="15.581903"
     inkscape:cx="11.39142"
     inkscape:cy="19.285192"
     inkscape:window-width="1920"
     inkscape:window-height="991"
     inkscape:window-x="-9"
     inkscape:window-y="-9"
     inkscape:window-maximized="1"
     inkscape:current-layer="layer1" />
  <defs
     id="defs1" />
  <g
     inkscape:label="Ebene 1"
     inkscape:groupmode="layer"
     id="layer1"
     transform="translate(-87.073839,-127.00218)">
    <path
       d="m 107.95837,172.3787 c -0.51726,-0.2506 -0.57424,-0.55314 -0.73175,-3.88469 -0.0939,-1.98711 -0.24502,-5.07894 -0.33574,-6.87073 l -0.16493,-3.25781 -3.6481,-1.82753 -3.648094,-1.82753 -0.140367,0.71971 c -0.0772,0.39584 -0.456275,2.62471 -0.842385,4.95304 -0.38611,2.32834 -0.870151,4.50123 -1.075646,4.82865 -0.426333,0.67929 -1.314447,0.77193 -2.103299,0.21939 l -0.536697,-0.37591 0.599229,-4.9819 c 0.842946,-7.00811 0.788301,-10.63287 -0.284512,-18.87252 -0.973009,-7.47311 -0.979777,-7.40833 0.774098,-7.40833 0.454177,0 1.33842,-0.24768 1.964985,-0.55041 1.309849,-0.63285 6.471878,-2.36001 7.053448,-2.36001 0.21451,0 0.4573,-0.17535 0.53954,-0.38968 0.0822,-0.21432 0.56509,-0.46763 1.07298,-0.56291 1.65745,-0.31094 1.54569,-0.67846 3.38697,11.13777 0.38473,2.46897 0.72271,4.51223 0.75106,4.54058 0.0283,0.0284 2.95884,0.72235 6.51221,1.54222 3.55337,0.81987 6.6777,1.60682 6.94295,1.74878 0.45014,0.24091 0.48228,0.78535 0.48228,8.1713 0,7.87733 -0.003,7.91505 -0.58804,8.32506 -0.72247,0.50604 -1.02213,0.51482 -1.65971,0.0486 -0.41483,-0.30333 -0.55179,-0.99096 -0.83002,-4.16719 -0.18326,-2.09215 -0.33964,-4.60759 -0.34751,-5.58985 -0.008,-0.98227 -0.1036,-1.78673 -0.21274,-1.78769 -0.10914,-0.001 -2.47298,1.03825 -5.25298,2.30938 l -5.05453,2.31113 -0.17099,3.95039 c -0.094,2.17272 -0.17098,5.17488 -0.17098,6.67146 0,2.51192 -0.0452,2.75271 -0.58804,3.13293 -0.67074,0.46981 -0.90809,0.48443 -1.69269,0.10429 z m 0.005,-16.08298 c -0.39942,-0.37944 -0.41843,0.13874 -0.25142,6.85289 0.0994,3.99486 0.26218,7.62626 0.3618,8.0698 0.0996,0.44353 0.21276,-2.64028 0.25142,-6.8529 0.0624,-6.80021 0.0218,-7.70537 -0.3618,-8.06979 z m 1.66347,7.37547 c 0.15737,-7.23981 0.13839,-7.76047 -0.27063,-7.42282 -0.39169,0.32336 -0.43987,1.20573 -0.43987,8.05656 0,5.24345 0.0862,7.60726 0.27062,7.42282 0.16407,-0.16407 0.33727,-3.33622 0.43988,-8.05656 z m -12.707049,-4.64898 c 0.735461,-4.54355 0.905708,-6.2364 0.794439,-7.89946 -0.140211,-2.09568 -2.240922,-16.03745 -2.448481,-16.24983 -0.298889,-0.30582 -0.333989,0.29801 -0.101306,1.74284 0.655628,4.07108 1.580836,12.88041 1.578746,15.03196 -0.0013,1.31199 -0.2394,4.51766 -0.529167,7.1237 -0.54132,4.8684 -0.637619,6.44092 -0.378568,6.18186 0.08156,-0.0815 0.569507,-2.75053 1.084337,-5.93107 z m 0.855961,0.94885 c 0.852877,-4.82088 0.958654,-5.80589 0.6234,-5.80519 -0.109141,2.3e-4 -0.536158,2.11359 -0.948927,4.69635 -0.412769,2.58277 -0.814643,5.05313 -0.893055,5.48969 -0.09649,0.53723 -0.05542,0.70825 0.127089,0.52917 0.148311,-0.14552 0.639483,-2.35503 1.091493,-4.91002 z m 24.880738,1.47044 c -0.12184,-1.89177 -0.22713,-4.55084 -0.23396,-5.90903 -0.009,-1.85682 -0.0945,-2.44072 -0.34317,-2.35365 -0.39535,0.13842 -0.36864,2.57674 0.0862,7.8658 0.27999,3.2559 0.42621,4.15536 0.63728,3.92021 0.0413,-0.0461 -0.0245,-1.63156 -0.14634,-3.52333 z m 1.07652,-4.12309 c 0,-5.82605 -0.0714,-7.40685 -0.33073,-7.32139 -0.19447,0.0641 -0.36753,0.69995 -0.42004,1.5434 -0.15251,2.44957 0.26749,13.20837 0.51564,13.20837 0.13153,0 0.23513,-3.27369 0.23513,-7.43038 z m -16.83552,-0.30868 c 0.0877,-0.32743 0.16117,-0.74344 0.16315,-0.92449 0.003,-0.26335 -8.093727,-4.56562 -8.592231,-4.56562 -0.07447,0 -0.135403,0.39004 -0.135403,0.86675 0,0.8476 0.08919,0.91418 4.034894,3.01236 2.21919,1.18008 4.11031,2.15926 4.20248,2.17596 0.0922,0.0167 0.23937,-0.23754 0.32711,-0.56496 z m 8.93764,-1.74928 c 2.81586,-1.28952 5.44717,-2.49926 5.84736,-2.6883 0.58652,-0.27707 0.7276,-0.52053 0.7276,-1.2556 0,-1.09582 0.6674,-1.28978 -6.40739,1.86211 l -5.48134,2.442 -0.009,0.99219 c -0.005,0.5457 0.0388,0.99219 0.097,0.99219 0.0582,0 2.40966,-1.05506 5.22553,-2.34459 z m -6.80966,0.59707 c 0.53851,-0.20664 0.27612,-0.63373 -0.38933,-0.63373 -0.51359,0 -0.66934,0.28518 -0.33716,0.61736 0.21469,0.21469 0.20996,0.21458 0.72649,0.0164 z m -1.57757,-0.86841 c -0.46891,-0.43779 -8.358122,-4.31445 -8.497172,-4.1754 -0.159703,0.1597 7.788852,4.31366 8.364882,4.37154 0.23491,0.0236 0.2862,-0.0524 0.13229,-0.19614 z m 8.41245,-2.34296 c 3.16436,-1.41996 5.75397,-2.68377 5.75469,-2.80848 7.9e-4,-0.12471 -0.14753,-0.16278 -0.32943,-0.0846 -1.29378,0.55603 -8.83455,4.02766 -10.12031,4.65921 -3.43932,1.68933 -0.75617,0.68002 4.69505,-1.76612 z m -7.60103,-0.92809 c 0.12819,-1.38332 0.0991,-2.05052 -0.0894,-2.05052 -0.1537,0 -0.34095,0.50601 -0.4161,1.12448 -0.3159,2.59973 -0.36168,3.34851 -0.21375,3.49644 0.29833,0.29833 0.53024,-0.53043 0.71928,-2.5704 z m 0.90094,0.92604 c 0.16403,-0.98226 0.3674,-2.12747 0.45194,-2.54489 0.11473,-0.5665 0.0628,-0.72875 -0.20493,-0.63981 -0.21035,0.0699 -0.43157,0.71187 -0.53504,1.5527 -0.097,0.78846 -0.24726,1.88005 -0.33386,2.42575 -0.0866,0.5457 -0.0492,0.99219 0.0831,0.99219 0.1323,0 0.37476,-0.80367 0.53879,-1.78594 z m 4.01692,0.0367 c 1.80388,-0.81654 3.31269,-1.51422 3.35292,-1.55039 0.0915,-0.0823 -5.52116,-1.47119 -5.92603,-1.4664 -0.16315,0.002 -0.37566,0.62858 -0.47225,1.39256 -0.0966,0.76399 -0.24423,1.77602 -0.32811,2.24896 -0.0839,0.47294 -0.0971,0.85989 -0.0294,0.85989 0.0677,0 1.599,-0.66808 3.40289,-1.48462 z m -6.27097,-0.79765 c 0.0988,-0.96421 0.14499,-1.77951 0.10268,-1.81178 -0.0423,-0.0323 -1.02432,0.32584 -2.18224,0.79579 l -2.10532,0.85447 1.84073,0.9443 c 1.01241,0.51937 1.91359,0.95016 2.00264,0.95732 0.089,0.007 0.24272,-0.77589 0.34151,-1.7401 z m -2.65311,-1.5475 c 1.84016,-0.83859 2.01741,-0.98696 2.01741,-1.6887 v -0.76933 l -2.44058,1.00677 c -2.44755,1.00965 -2.764,1.26186 -2.48748,1.98247 0.21904,0.57081 0.67503,0.48759 2.91065,-0.53121 z m -3.53884,0.12561 c 0,-0.14552 -0.11907,-0.26459 -0.26459,-0.26459 -0.14552,0 -0.26458,0.11907 -0.26458,0.26459 0,0.14552 0.11906,0.26458 0.26458,0.26458 0.14552,0 0.26459,-0.11906 0.26459,-0.26458 z m -2.387158,-4.25164 c -0.531591,-3.72275 -1.444166,-9.43542 -1.740552,-10.89576 -0.228511,-1.1259 -0.727823,-0.89117 -0.56281,0.26459 0.377455,2.6437 2.091394,13.76896 2.207005,14.32577 0.08441,0.40653 0.222939,0.54219 0.386562,0.37857 0.163623,-0.16362 0.05962,-1.6233 -0.290205,-4.07317 z m 20.455418,3.72274 c 0.0761,-0.2909 0.0445,-0.58688 -0.0701,-0.65773 -0.22598,-0.13966 -6.60842,-1.72379 -6.94514,-1.72379 -0.11279,0 -0.20508,0.34397 -0.20508,0.76437 0,0.71595 0.10474,0.79126 1.65365,1.18889 0.9095,0.23349 2.07036,0.53362 2.57969,0.66698 1.69145,0.44285 2.83262,0.35165 2.98701,-0.23872 z m -15.91151,-1.23096 c 1.65144,-0.67687 3.57995,-1.43648 4.28557,-1.68799 0.70563,-0.25152 1.17571,-0.52359 1.04463,-0.6046 -0.21652,-0.13382 -3.21927,1.01407 -7.35466,2.81154 -2.720723,1.18257 -1.135452,0.77621 2.02446,-0.51895 z m 17.02554,0.96611 c 0.0899,-0.14552 -0.0221,-0.26459 -0.24897,-0.26459 -0.22687,0 -0.41249,0.11907 -0.41249,0.26459 0,0.14552 0.11204,0.26458 0.24897,0.26458 0.13693,0 0.32255,-0.11906 0.41249,-0.26458 z m 3.30729,-0.26459 c 0,-0.14552 -0.32742,-0.26276 -0.7276,-0.26053 -0.56699,0.003 -0.64,0.0607 -0.33073,0.26053 0.51766,0.33455 1.05833,0.33455 1.05833,0 z m -13.29531,-0.52625 c 0.82185,-0.002 1.12448,-0.10972 1.12448,-0.39979 0,-0.3197 -0.41158,-0.39687 -2.11667,-0.39687 -1.9836,0 -2.11667,0.0354 -2.11667,0.56378 0,0.50426 0.10477,0.54647 0.99219,0.39979 0.5457,-0.0902 1.4982,-0.16531 2.11667,-0.16691 z m 11.40414,0.1344 c -0.13257,-0.13258 -11.02279,-2.77843 -11.44824,-2.78143 -0.92924,-0.007 0.82587,0.52177 5.33487,1.60591 4.93594,1.1868 6.40765,1.46979 6.11337,1.17552 z m -17.58756,-1.797 3.40774,-1.38302 -0.17597,-2.50485 c -0.0968,-1.37766 -0.24168,-2.76666 -0.32199,-3.08665 l -0.14602,-0.5818 -1.36595,0.48509 c -0.75128,0.2668 -2.08033,0.77909 -2.95346,1.13842 -4.047954,1.66592 -3.723985,1.31132 -3.326794,3.6413 0.134792,0.79071 0.322091,2.0126 0.416219,2.71531 0.14012,1.04607 0.251562,1.2488 0.614819,1.11844 0.244026,-0.0876 1.977156,-0.78157 3.851406,-1.54224 z m 5.67589,0.32 c 1.27123,-0.0142 1.39901,-0.0569 0.83868,-0.28037 -0.77137,-0.3076 -3.17542,-0.0424 -3.17542,0.35028 0,0.14743 0.18833,0.19579 0.41851,0.10746 0.23018,-0.0883 1.09339,-0.16814 1.91823,-0.17737 z m -0.8307,-2.16604 c -0.0764,-0.32742 -0.28377,-1.72641 -0.46091,-3.10885 -0.17714,-1.38245 -0.42524,-2.62666 -0.55132,-2.7649 -0.13773,-0.15103 -0.22923,-0.0677 -0.22923,0.20886 0,0.74668 0.53958,5.56933 0.66342,5.92947 0.20485,0.59576 0.72332,0.35844 0.57804,-0.26458 z m 0.36289,-5.41347 c -1.16946,-7.46478 -1.44758,-8.88792 -1.75705,-8.99108 -0.14923,-0.0497 0.17486,2.82958 0.74242,6.5959 1.38396,9.18387 1.25468,8.51748 1.58783,8.18433 0.20835,-0.20835 0.049,-1.81745 -0.5732,-5.78915 z m -8.2109,1.08929 c 1.23251,-0.52291 3.25296,-1.28395 4.48988,-1.69119 1.8136,-0.59711 2.23822,-0.83562 2.19348,-1.23207 -0.13818,-1.22443 -0.91265,-6.34406 -1.00134,-6.6193 -0.11509,-0.35721 -3.73886,0.65189 -7.221855,2.01104 -1.719248,0.67089 -2.164702,0.95091 -2.061123,1.29563 0.131269,0.43687 1.211674,6.69419 1.211674,7.01759 0,0.23929 -0.07526,0.26391 2.389284,-0.7817 z m 27.31687,26.15843 c -0.4773,-0.42242 -0.57639,-1.13041 -0.9948,-7.1077 -0.3485,-4.97851 -0.39057,-6.77707 -0.16824,-7.1925 0.16306,-0.30467 0.29647,-1.30958 0.29647,-2.23313 0,-1.64225 0.0184,-1.68613 0.83743,-1.99527 0.65503,-0.24725 0.98639,-0.24472 1.52135,0.0116 l 0.68393,0.32771 0.0696,8.89093 c 0.0541,6.91223 -0.005,8.95046 -0.26458,9.15841 -0.69831,0.55889 -1.44796,0.61184 -1.98118,0.13994 z m 0.45635,-8.80352 c 0,-7.32997 -0.0449,-8.20209 -0.42183,-8.20209 -0.34978,0 -0.40006,0.24459 -0.29441,1.43213 0.0714,0.80256 0.009,1.55077 -0.1425,1.70203 -0.1835,0.1835 -0.17168,1.77925 0.0369,4.98402 0.3765,5.78458 0.59498,8.28599 0.72371,8.28599 0.054,0 0.0981,-3.69094 0.0981,-8.20208 z m 1.14907,3.7942 c 0.29014,-7.35659 0.22625,-12.32242 -0.15689,-12.19481 -0.25312,0.0843 -0.34713,2.04505 -0.40064,8.35642 -0.0384,4.53545 0.0322,8.24627 0.15689,8.24627 0.12474,0 0.30503,-1.98355 0.40064,-4.40788 z m -0.48762,-12.79004 c 0.0899,-0.14552 -0.0887,-0.26458 -0.39687,-0.26458 -0.30822,0 -0.48681,0.11906 -0.39688,0.26458 0.0899,0.14553 0.26854,0.26459 0.39688,0.26459 0.12834,0 0.30694,-0.11906 0.39687,-0.26459 z"
       style="fill:#28220b;stroke-width:0.264583"
       id="path1" />
  </g>
</svg>
