<?xml version="1.0" encoding="UTF-8" standalone="no"?>
<!-- Created with Inkscape (http://www.inkscape.org/) -->

<svg
   width="24mm"
   height="24mm"
   viewBox="0 0 24 24"
   version="1.1"
   id="svg1"
   inkscape:version="1.4.2 (f4327f4, 2025-05-13)"
   sodipodi:docname="circular_saw.svg"
   xmlns:inkscape="http://www.inkscape.org/namespaces/inkscape"
   xmlns:sodipodi="http://sodipodi.sourceforge.net/DTD/sodipodi-0.dtd"
   xmlns="http://www.w3.org/2000/svg"
   xmlns:svg="http://www.w3.org/2000/svg">
  <sodipodi:namedview
     id="namedview1"
     pagecolor="#ffffff"
     bordercolor="#000000"
     borderopacity="0.25"
     inkscape:showpageshadow="2"
     inkscape:pageopacity="0.0"
     inkscape:pagecheckerboard="0"
     inkscape:deskcolor="#d1d1d1"
     inkscape:document-units="mm"
     inkscape:zoom="0.68862935"
     inkscape:cx="397.16576"
     inkscape:cy="561.25984"
     inkscape:window-width="1920"
     inkscape:window-height="991"
     inkscape:window-x="-9"
     inkscape:window-y="-9"
     inkscape:window-maximized="1"
     inkscape:current-layer="layer1" />
  <defs
     id="defs1" />
  <g
     inkscape:label="Ebene 1"
     inkscape:groupmode="layer"
     id="layer1" transform="translate(3.515152 0) scale(0.080808)">
    <path
       d="m 103.40735,157.00438 c -0.33119,-0.3312 -0.54018,-0.35984 -0.96534,-0.13229 -0.85862,0.45951 -1.66882,0.35345 -1.82368,-0.23876 -0.10338,-0.39529 -0.3609,-0.52916 -1.01795,-0.52916 -0.937794,0 -1.341922,-0.37301 -1.218293,-1.12448 0.05031,-0.3058 -0.09524,-0.46302 -0.428617,-0.46302 -0.69202,0 -1.434967,-0.87326 -1.219861,-1.43382 0.114205,-0.29762 -0.01918,-0.58694 -0.390496,-0.84702 -0.310171,-0.21725 -0.563949,-0.5609 -0.563949,-0.76367 0,-0.26228 -0.431151,-0.39157 -1.493967,-0.44802 -1.675836,-0.089 -2.132171,-0.49066 -1.847244,-1.6259 l 0.176292,-0.70241 h 4.386723 4.386722 l 0.74147,-0.79375 c 0.40781,-0.43656 0.9436,-0.79375 1.19063,-0.79375 0.24703,0 0.78281,0.35719 1.19062,0.79375 l 0.74148,0.79375 h 4.12718 4.12718 v -1.58246 c 0,-1.46947 0.0475,-1.59437 0.66489,-1.74934 0.82676,-0.2075 1.45177,0.27545 1.45177,1.12179 0,0.43453 0.20926,0.71517 0.66146,0.8871 0.38659,0.14698 0.66146,0.46128 0.66146,0.75634 0,0.28234 0.23323,0.56584 0.52917,0.64324 0.40152,0.105 0.52916,0.36089 0.52916,1.06088 0,1.00129 -0.31364,1.2437 -1.60914,1.2437 h -0.77211 v 2.37621 c 0,2.3134 -0.0175,2.3806 -0.66086,2.54208 -1.30231,0.32686 -1.4558,0.0602 -1.4558,-2.52874 v -2.38955 h -1.48607 c -1.39285,0 -1.47668,0.0359 -1.3365,0.57194 0.19707,0.75359 -0.26425,1.5808 -0.82927,1.48701 -0.32454,-0.0539 -0.47406,0.14572 -0.53876,0.71918 -0.11643,1.0319 -0.46744,1.43298 -1.10758,1.26558 -0.34468,-0.0901 -0.57462,0.0288 -0.69195,0.35805 -0.35069,0.98395 -0.90515,1.4135 -1.41421,1.09559 -0.37329,-0.23313 -0.62032,-0.17553 -1.19881,0.27951 -0.87152,0.68553 -0.9525,0.69368 -1.49575,0.15044 z m 1.57608,-1.39225 c 0.33292,-0.18207 0.81904,-0.26319 1.08028,-0.18028 0.33304,0.1057 0.56455,-0.0459 0.77475,-0.50721 0.16489,-0.36188 0.58855,-0.73043 0.94147,-0.81901 0.44557,-0.11183 0.69036,-0.4045 0.80099,-0.95765 0.0984,-0.49223 0.36219,-0.84966 0.69024,-0.93544 0.29443,-0.077 0.53092,-0.36081 0.53092,-0.63715 0,-0.37729 -0.19277,-0.49831 -0.79375,-0.49831 -0.53525,0 -0.79375,0.13152 -0.79375,0.40384 0,0.22211 -0.51603,0.91987 -1.14675,1.55058 -2.53476,2.53477 -6.61503,2.01948 -8.435052,-1.06524 -0.363842,-0.61666 -0.71935,-0.88918 -1.159958,-0.88918 -0.77525,0 -0.807365,0.29146 -0.102414,0.92943 0.31773,0.28754 0.473336,0.66996 0.385376,0.9471 -0.104,0.32767 0.07055,0.56903 0.591571,0.81798 0.420436,0.20089 0.775557,0.60876 0.823651,0.94599 0.06897,0.48361 0.253304,0.59284 1.000496,0.59284 0.50428,0 0.97486,0.15354 1.04704,0.34164 0.1705,0.44433 2.93298,0.41503 3.76489,-0.0399 z m 9.84573,-2.56629 c 0,-1.57362 -0.0797,-1.96876 -0.39687,-1.96876 -0.44452,0 -0.46953,0.28559 -0.22765,2.59981 0.22951,2.19581 0.62452,1.79667 0.62452,-0.63105 z m -9.36653,0.43751 c 0.97726,-0.44382 2.22225,-1.74016 2.22312,-2.31482 1.9e-4,-0.12306 -2.02578,-0.18853 -4.50215,-0.14549 l -4.502491,0.0782 0.728366,0.95494 c 1.376525,1.80471 3.907705,2.40148 6.053155,1.42713 z m 11.28476,-3.45241 c 0.25466,-0.007 0.46302,-0.13125 0.46302,-0.27677 0,-0.17252 -4.18923,-0.26459 -12.03854,-0.26459 -7.622723,0 -12.038539,0.0944 -12.038539,0.25732 0,0.31344 4.803846,0.42306 15.345829,0.35018 4.29287,-0.0297 8.01357,-0.0594 8.26823,-0.0661 z m -12.5677,-1.66584 c -0.0606,-0.1819 -0.38806,-0.33073 -0.72761,-0.33073 -0.33955,0 -0.66697,0.14883 -0.7276,0.33073 -0.0727,0.21817 0.17492,0.33073 0.7276,0.33073 0.55269,0 0.80033,-0.11256 0.72761,-0.33073 z m 10.59782,-0.92604 c -0.0444,-0.69122 -0.1997,-1.25677 -0.34522,-1.25677 -0.14552,0 -0.30087,0.56555 -0.34523,1.25677 -0.0649,1.01217 0.002,1.25677 0.34523,1.25677 0.34298,0 0.41017,-0.2446 0.34522,-1.25677 z m 1.37457,0.8599 c 0,-0.21828 -0.11906,-0.39688 -0.26458,-0.39688 -0.14552,0 -0.26459,0.1786 -0.26459,0.39688 0,0.21828 0.11907,0.39687 0.26459,0.39687 0.14552,0 0.26458,-0.17859 0.26458,-0.39687 z m -21.960416,-0.53747 c 0,-0.22285 0.178594,-0.47371 0.396875,-0.55748 0.5494,-0.21082 0.496348,-0.79831 -0.169352,-1.87543 -0.541535,-0.87623 -0.547205,-0.95606 -0.129997,-1.83096 0.239927,-0.50313 0.987271,-1.50389 1.660766,-2.22391 1.222761,-1.30723 2.056865,-1.62147 2.671773,-1.00656 0.227031,0.22703 0.770821,0.152 2.178241,-0.30055 3.29307,-1.05886 6.258,-0.3788 8.61216,1.97536 1.33153,1.33153 2.48026,3.53611 2.70132,5.18423 l 0.13956,1.04048 h -2.65707 -2.65707 l -0.57987,-1.19785 c -1.2961,-2.67739 -4.41935,-2.68254 -5.83733,-0.01 l -0.640557,1.20748 H 97.03639 c -2.378167,0 -2.844726,-0.0665 -2.844726,-0.40518 z m 5.650905,-1.38076 c 1.137611,-1.79033 1.602991,-2.05052 3.667541,-2.05052 h 1.85455 l 1.02808,1.1585 c 0.56545,0.63718 1.02809,1.32179 1.02809,1.52136 0,0.27487 0.47693,0.36285 1.96703,0.36285 h 1.96702 l -0.53081,-1.57184 c -1.47275,-4.36105 -6.18717,-6.57905 -10.20667,-4.80197 -1.597471,0.70627 -3.573078,2.68633 -4.318337,4.32807 -0.860584,1.8958 -0.772883,2.04574 1.196575,2.04574 1.695008,0 1.724356,-0.0124 2.346931,-0.99219 z m -3.964495,-2.11667 c 0.207396,-0.40018 0.867843,-1.28455 1.467664,-1.96526 0.661398,-0.75059 0.979652,-1.30622 0.808702,-1.41187 -0.433935,-0.26819 -1.465122,0.53292 -2.359774,1.83325 -0.799031,1.16135 -0.977103,1.75086 -0.632862,2.0951 0.266753,0.26675 0.30934,0.23398 0.71627,-0.55122 z"
       style="fill:#2b1e17;fill-opacity:1;stroke-width:0.264583"
       id="path1" />
  </g>
</svg>

