<?xml version="1.0" encoding="UTF-8" standalone="no"?>
<!-- Created with Inkscape (http://www.inkscape.org/) -->

<svg
   width="24"
   height="24"
   viewBox="0 0 6.3500001 6.3500001"
   version="1.1"
   id="svg1"
   inkscape:version="1.4.2 (f4327f4, 2025-05-13)"
   sodipodi:docname="circular_saw.svg"
   xmlns:inkscape="http://www.inkscape.org/namespaces/inkscape"
   xmlns:sodipodi="http://sodipodi.sourceforge.net/DTD/sodipodi-0.dtd"
   xmlns="http://www.w3.org/2000/svg"
   xmlns:svg="http://www.w3.org/2000/svg">
  <sodipodi:namedview
     id="namedview1"
     pagecolor="#ffffff"
     bordercolor="#000000"
     borderopacity="0.25"
     inkscape:showpageshadow="2"
     inkscape:pageopacity="0.0"
     inkscape:pagecheckerboard="0"
     inkscape:deskcolor="#d1d1d1"
     inkscape:document-units="mm"
     inkscape:zoom="22.036139"
     inkscape:cx="5.24139"
     inkscape:cy="14.45353"
     inkscape:window-width="1920"
     inkscape:window-height="991"
     inkscape:window-x="-9"
     inkscape:window-y="-9"
     inkscape:window-maximized="1"
     inkscape:current-layer="layer1" />
  <defs
     id="defs1" />
  <g
     inkscape:label="Ebene 1"
     inkscape:groupmode="layer"
     id="layer1"
     transform="matrix(0.080808,0,0,0.080808,3.515152,0)">
    <path
       d="m -9.2675894,61.118693 c -0.9087666,-0.908794 -1.4822236,-0.98738 -2.6488386,-0.362996 -2.356005,1.260869 -4.579149,0.969847 -5.004075,-0.655144 -0.283669,-1.084653 -0.99029,-1.451985 -2.793198,-1.451985 -2.573254,0 -3.682158,-1.023519 -3.342927,-3.08551 0.138047,-0.839098 -0.261334,-1.270501 -1.176101,-1.270501 -1.898864,0 -3.937467,-2.396176 -3.347227,-3.934322 0.313372,-0.816651 -0.05263,-1.610529 -1.071499,-2.324175 -0.851092,-0.596121 -1.547445,-1.539077 -1.547445,-2.095467 0,-0.719682 -1.183054,-1.074446 -4.099361,-1.229342 -4.5984,-0.24421 -5.850557,-1.346343 -5.068733,-4.461377 l 0.483735,-1.927374 h 12.036918 12.036918 l 2.034552,-2.178006 c 1.119008,-1.197895 2.589185,-2.178005 3.2670214,-2.178005 0.6778374,0 2.147987,0.98011 3.2669947,2.178005 L -4.2062755,38.3205 H 7.118474 18.443223 v -4.342181 c 0,-4.032143 0.130338,-4.374862 1.82442,-4.800091 2.268584,-0.569368 3.983576,0.755819 3.983576,3.078128 0,1.192327 0.574198,1.962387 1.815009,2.434154 1.060781,0.403304 1.81501,1.265726 1.81501,2.075353 0,0.774726 0.639971,1.552634 1.452014,1.765015 1.101748,0.288114 1.451984,0.990262 1.451984,2.910995 0,2.747483 -0.860609,3.412643 -4.415391,3.412643 h -2.118626 v 6.520186 c 0,6.347839 -0.04802,6.532233 -1.813362,6.975325 -3.573465,0.896886 -3.994634,0.165185 -3.994634,-6.93872 V 44.854516 H 14.36553 c -3.821901,0 -4.051925,0.0985 -3.667279,1.569371 0.540749,2.067809 -0.725088,4.337627 -2.2754709,4.080271 -0.8905195,-0.147898 -1.3007939,0.399848 -1.4783271,1.97339 -0.3194773,2.831476 -1.282629,3.932017 -3.0391371,3.47268 -0.9457798,-0.247229 -1.5767221,0.07903 -1.8986691,0.982469 -0.9622736,2.699904 -2.4836806,3.878565 -3.8805126,3.006237 -1.0242894,-0.639695 -1.7021259,-0.481643 -3.2894698,0.766961 -2.3914019,1.881056 -2.6136064,1.903418 -4.1042538,0.412798 z m 4.3246748,-3.820255 c 0.9135137,-0.49959 2.2473997,-0.722179 2.9642302,-0.494678 0.913843,0.290034 1.54909339,-0.125948 2.12587039,-1.391756 C 0.59963477,54.419025 1.762134,53.407745 2.7305267,53.164686 3.9531429,52.857831 4.6248329,52.054761 4.9283953,50.536949 5.1983994,49.186297 5.9222243,48.20553 6.822375,47.970154 7.6302744,47.75887 8.2791896,46.980112 8.2791896,46.22185 c 0,-1.035262 -0.52895,-1.367334 -2.1780053,-1.367334 -1.4686959,0 -2.1780053,0.360883 -2.1780053,1.108114 0,0.609458 -1.4159545,2.524072 -3.14661467,4.254705 -6.95524153,6.955266 -18.15127333,5.541339 -23.14531133,-2.92296 -0.998361,-1.69208 -1.973855,-2.439859 -3.182859,-2.439859 -2.12724,0 -2.215361,0.799749 -0.281018,2.550303 0.871833,0.788994 1.298807,1.838333 1.05745,2.598789 -0.28537,0.899109 0.193586,1.561387 1.623237,2.244491 1.153653,0.551232 2.128085,1.670404 2.260052,2.595744 0.18925,1.326999 0.695052,1.626719 2.745305,1.626719 1.383716,0 2.674961,0.421305 2.873019,0.937441 0.467842,1.219217 8.0479321,1.13882 10.3306464,-0.109483 z M 22.073214,50.256682 c 0,-4.317924 -0.218693,-5.402166 -1.08899,-5.402166 -1.219737,0 -1.288363,0.783643 -0.624659,7.133732 0.629763,6.025179 1.713649,4.929962 1.713649,-1.731566 z M -3.6280169,51.457186 C -0.94646769,50.239368 2.4697147,46.682284 2.472102,45.105449 2.4726234,44.76778 -3.0865269,44.588134 -9.8815466,44.706233 l -12.3545824,0.214577 1.998595,2.620301 c 3.777108,4.952023 10.7225235,6.589526 16.6095171,3.915965 z M 27.336728,41.983967 c 0.698776,-0.01921 1.270503,-0.360143 1.270503,-0.759441 0,-0.473386 -11.495013,-0.726021 -33.033077,-0.726021 -20.916323,0 -33.033071,0.259029 -33.033071,0.706071 0,0.860062 13.181481,1.160854 42.1080886,0.960875 11.7793924,-0.08149 21.9887844,-0.16299 22.6875564,-0.181374 z m -34.48506,-4.570972 c -0.166283,-0.499122 -1.0648144,-0.907504 -1.9965212,-0.907504 -0.9317058,0 -1.8301268,0.408382 -1.9964928,0.907504 -0.199485,0.598647 0.47997,0.907505 1.9964928,0.907505 1.5165506,0 2.1960608,-0.308858 1.9965212,-0.907505 z m 29.079821,-2.541001 c -0.121831,-1.896669 -0.547966,-3.448506 -0.947265,-3.448506 -0.399298,0 -0.82557,1.551837 -0.947291,3.448506 -0.178082,2.777337 0.0055,3.448506 0.947291,3.448506 0.941119,0 1.125484,-0.671169 0.947265,-3.448506 z m 3.771742,2.359518 c 0,-0.598949 -0.326694,-1.089018 -0.725992,-1.089018 -0.399298,0 -0.72602,0.490069 -0.72602,1.089018 0,0.598947 0.326722,1.088988 0.72602,1.088988 0.399298,0 0.725992,-0.490041 0.725992,-1.088988 z M -34.55491,35.756724 c 0,-0.611488 0.490052,-1.299834 1.089002,-1.529694 1.507522,-0.578478 1.361951,-2.190518 -0.464692,-5.146075 -1.485942,-2.404325 -1.5015,-2.623374 -0.356704,-5.024051 0.658346,-1.38056 2.709015,-4.126589 4.557048,-6.102284 3.355185,-3.586964 5.643918,-4.449222 7.331192,-2.761943 0.62296,0.622957 2.115089,0.41708 5.976971,-0.824692 9.0359983,-2.905453 17.17160203,-1.039407 23.6312818,5.420276 3.6536432,3.653643 6.8056932,9.702887 7.4122692,14.225235 l 0.382945,2.855019 H 7.7135531 0.42270533 L -1.1684253,33.581681 C -4.7248534,26.235075 -13.294875,26.220943 -17.185733,33.554242 l -1.757653,3.313257 h -7.80576 c -6.525553,0 -7.805764,-0.182472 -7.805764,-1.111791 z m 15.505762,-3.788728 c 3.12154,-4.912565 4.398517,-5.626512 10.063526,-5.626512 h 5.088781 l 2.8209964,3.17886 c 1.55156295,1.748385 2.821021,3.626916 2.821021,4.174525 0,0.754228 1.3086692,0.995641 5.3974168,0.995641 H 12.539986 L 11.083473,30.377469 C 7.0423295,18.410993 -5.8937734,12.324926 -16.923055,17.201134 c -4.383371,1.937965 -9.804325,7.371138 -11.849272,11.87598 -2.361393,5.201969 -2.120746,5.613396 3.283332,5.613396 4.651007,0 4.731536,-0.03403 6.439847,-2.722514 z m -10.878348,-5.808023 c 0.569083,-1.098072 2.381312,-3.524734 4.027185,-5.392563 1.814838,-2.059577 2.688109,-3.584195 2.219032,-3.874092 -1.190693,-0.735899 -4.020209,1.462303 -6.475085,5.030335 -2.192496,3.186678 -2.681115,4.804261 -1.736537,5.748836 0.731956,0.731948 0.848812,0.642028 1.965405,-1.512516 z"
       style="fill:#2b1e17;fill-opacity:1;stroke-width:0.726"
       id="path1" />
  </g>
</svg>
