<?xml version="1.0" encoding="UTF-8" standalone="no"?>
<!-- Created with Inkscape (http://www.inkscape.org/) -->

<svg
   width="24mm"
   height="24mm"
   viewBox="0 0 24 24"
   version="1.1"
   id="svg1"
   inkscape:version="1.4.2 (f4327f4, 2025-05-13)"
   sodipodi:docname="clamp.svg"
   xmlns:inkscape="http://www.inkscape.org/namespaces/inkscape"
   xmlns:sodipodi="http://sodipodi.sourceforge.net/DTD/sodipodi-0.dtd"
   xmlns="http://www.w3.org/2000/svg"
   xmlns:svg="http://www.w3.org/2000/svg">
  <sodipodi:namedview
     id="namedview1"
     pagecolor="#ffffff"
     bordercolor="#000000"
     borderopacity="0.25"
     inkscape:showpageshadow="2"
     inkscape:pageopacity="0.0"
     inkscape:pagecheckerboard="0"
     inkscape:deskcolor="#d1d1d1"
     inkscape:document-units="mm"
     inkscape:zoom="0.68862935"
     inkscape:cx="28.31712"
     inkscape:cy="45.74304"
     inkscape:window-width="24mm"
     inkscape:window-height="24mm"
     inkscape:window-x="-9"
     inkscape:window-y="-9"
     inkscape:window-maximized="1"
     inkscape:current-layer="layer1" />
  <defs
     id="defs1" />
  <g
     inkscape:label="Ebene 1"
     inkscape:groupmode="layer"
     id="layer1"
      transform="translate(4.609343 0) scale(0.980373) translate(-97.631248,-136.28228)">
    <path
       d="m 99.549477,160.60615 c -0.589709,-0.24923 -0.595313,-0.30247 -0.595313,-5.65366 v -5.40205 l -0.674229,-0.44177 c -0.611069,-0.40039 -0.666838,-0.58294 -0.595313,-1.94866 0.0698,-1.33285 0.147675,-1.51665 0.67423,-1.59144 0.569425,-0.0809 0.595312,-0.19333 0.595312,-2.58623 0,-2.42502 -0.02027,-2.5094 -0.661458,-2.75318 -0.594685,-0.2261 -0.661458,-0.39811 -0.661458,-1.70393 0,-1.82536 0.311758,-2.0241 3.456382,-2.2034 2.03693,-0.11614 2.74526,-0.018 6.23385,0.86336 4.37536,1.10544 5.39293,1.51928 5.38697,2.19087 -0.0104,1.17459 -0.19529,1.20924 -5.39439,1.01102 l -4.92031,-0.18759 v 2.66067 2.66067 h 3.30729 c 2.63277,0 3.30729,-0.0743 3.30729,-0.36448 0,-0.20046 -0.17859,-0.5127 -0.39687,-0.69385 -0.21829,-0.18116 -0.39688,-0.59698 -0.39688,-0.92403 0,-0.50453 0.17266,-0.61412 1.13928,-0.72307 1.89536,-0.21363 2.82947,0.0236 2.82947,0.71869 0,0.32947 -0.17859,0.74725 -0.39687,0.92841 -0.49916,0.41426 -0.51639,1.05833 -0.0283,1.05833 0.42323,0 0.68976,0.56232 0.68976,1.45521 0,0.89289 -0.26653,1.45521 -0.68976,1.45521 -0.48195,0 -0.51787,2.28738 -0.0384,2.4472 0.3223,0.10743 0.49391,2.11734 0.56674,6.63802 0.0269,1.67152 -0.0273,1.85774 -0.7132,2.44739 -0.93556,0.80431 -1.80591,0.81056 -2.72548,0.0196 -0.79759,-0.68606 -0.81073,-0.82677 -0.583,-6.24414 0.0758,-1.80275 0.22504,-2.79806 0.42982,-2.86632 0.17309,-0.0577 0.31372,-0.58522 0.31372,-1.17683 v -1.07225 l -1.25677,0.17698 c -0.69122,0.0973 -2.17951,0.25023 -3.30729,0.33976 l -2.05052,0.16279 -0.004,5.3186 c -0.002,2.92522 -0.10116,5.47164 -0.21985,5.65869 -0.28377,0.44724 -1.86696,0.64386 -2.620371,0.32543 z m 1.785933,-6.08949 V 149.225 h -0.79375 -0.793746 v 5.29166 5.29167 h 0.793746 0.79375 z m 9.63113,4.79142 c 0.39617,-0.43777 0.43461,-0.93976 0.30775,-4.0195 -0.0797,-1.93559 -0.25127,-3.62556 -0.38119,-3.75549 -0.12993,-0.12992 -0.51786,-0.19638 -0.86206,-0.14768 -0.61027,0.0863 -0.6316,0.17925 -0.85768,3.73496 -0.21115,3.32089 -0.18977,3.69291 0.23945,4.16719 0.59026,0.65224 0.97741,0.65735 1.55373,0.0205 z m -0.37071,-9.68621 c 0,-0.50932 -0.11906,-0.92604 -0.26458,-0.92604 -0.14552,0 -0.26459,0.41672 -0.26459,0.92604 0,0.50932 0.11907,0.92604 0.26459,0.92604 0.14552,0 0.26458,-0.41672 0.26458,-0.92604 z m -3.04445,-1.67843 c 3.31317,-0.3823 3.98139,-0.53245 4.05429,-0.91101 0.0788,-0.40901 -0.26979,-0.45662 -3.57013,-0.48762 -2.01158,-0.0189 -4.66945,-0.0704 -5.90638,-0.11438 -3.174636,-0.11297 -3.704162,0.0185 -3.704162,0.91941 0,0.40074 0.07937,0.808 0.176389,0.90502 0.315968,0.31596 4.893043,0.1567 8.949993,-0.31142 z m -6.21597,-5.06844 v -2.64584 h -0.79375 -0.793746 v 2.64584 2.64583 h 0.793746 0.79375 z m 9.2166,1.96245 c 0.0487,-0.27899 0.27977,-0.65607 0.51359,-0.83797 0.3562,-0.27711 0.21316,-0.32943 -0.88222,-0.32269 -1.01691,0.006 -1.20448,0.068 -0.84432,0.27773 0.25466,0.14833 0.46302,0.57135 0.46302,0.94005 0,0.77941 0.61216,0.73278 0.74993,-0.0571 z m 1.10215,-5.36323 c 0,-0.12418 -1.66359,-0.66403 -3.69687,-1.19965 -3.33955,-0.87975 -3.97249,-0.96661 -6.54844,-0.8987 l -2.851561,0.0752 -0.08178,0.98654 -0.08178,0.98654 5.241151,0.0777 c 2.88264,0.0427 5.86624,0.10481 6.63022,0.13793 0.76399,0.0331 1.38906,-0.0414 1.38906,-0.16555 z"
       style="fill:#2b1e17;fill-opacity:1;stroke-width:0.264583"
       id="path1" />
  </g>
</svg>


