<?xml version="1.0" encoding="UTF-8" standalone="no"?>
<!-- Created with Inkscape (http://www.inkscape.org/) -->

<svg
   width="23.8125mm"
   height="24.418989mm"
   viewBox="0 0 23.8125 24.418989"
   version="1.1"
   id="svg1"
   inkscape:version="1.4.2 (f4327f4, 2025-05-13)"
   sodipodi:docname="collet.svg"
   xmlns:inkscape="http://www.inkscape.org/namespaces/inkscape"
   xmlns:sodipodi="http://sodipodi.sourceforge.net/DTD/sodipodi-0.dtd"
   xmlns="http://www.w3.org/2000/svg"
   xmlns:svg="http://www.w3.org/2000/svg">
  <sodipodi:namedview
     id="namedview1"
     pagecolor="#ffffff"
     bordercolor="#000000"
     borderopacity="0.25"
     inkscape:showpageshadow="2"
     inkscape:pageopacity="0.0"
     inkscape:pagecheckerboard="0"
     inkscape:deskcolor="#d1d1d1"
     inkscape:document-units="mm"
     inkscape:zoom="0.68862935"
     inkscape:cx="45.74304"
     inkscape:cy="47.1952"
     inkscape:window-width="1920"
     inkscape:window-height="991"
     inkscape:window-x="-9"
     inkscape:window-y="-9"
     inkscape:window-maximized="1"
     inkscape:current-layer="layer1" />
  <defs
     id="defs1" />
  <g
     inkscape:label="Ebene 1"
     inkscape:groupmode="layer"
     id="layer1"
     transform="translate(-93.13334,-136.18307)">
    <path
       d="m 106.68595,160.1902 c -0.75666,-0.52999 -0.77709,-1.78032 -0.0411,-2.5163 0.44951,-0.44951 1.20259,-2.04806 3.07273,-6.52239 0.0817,-0.1955 -0.78006,-0.0132 -2.18895,0.46302 -2.82252,0.95407 -3.03438,0.96033 -4.03411,0.11911 -0.74112,-0.62361 -0.867,-0.64629 -1.96188,-0.35345 -1.06708,0.2854 -1.2726,0.25646 -2.337235,-0.32915 -0.941676,-0.51797 -1.182807,-0.80102 -1.24764,-1.46455 -0.102622,-1.05025 -0.879959,-1.44098 -2.113555,-1.06238 -0.71927,0.22076 -1.056945,0.17995 -1.793487,-0.2167 l -0.907383,-0.48866 v -3.40359 c 0,-3.28057 0.02151,-3.41246 0.595313,-3.64894 0.327422,-0.13494 4.037936,-1.26981 8.245587,-2.52195 6.87196,-2.04498 7.72889,-2.24403 8.42305,-1.9565 1.15108,0.47679 1.52147,0.96532 1.52147,2.00678 0,0.84969 0.056,0.92105 0.59531,0.75797 1.55136,-0.46914 2.7173,-0.43652 3.57187,0.0999 l 0.8599,0.53978 v 3.3091 3.3091 l -0.99219,0.48136 c -0.57002,0.27654 -0.95602,0.63922 -0.9072,0.85236 0.30647,1.33781 -1.02452,3.43294 -2.18086,3.43294 -0.47863,0 -0.80758,0.56334 -2.08059,3.5631 -0.83164,1.95971 -1.51208,3.91749 -1.51208,4.35062 0,0.81516 -0.78437,1.61128 -1.5875,1.61128 -0.22628,0 -0.67604,-0.18535 -0.99946,-0.41188 z m 1.3747,-0.54247 c 0.48253,-0.18516 0.56076,-1.04317 0.11995,-1.31561 -0.20726,-0.12809 -0.17645,-0.25285 0.10073,-0.40797 0.21962,-0.1229 0.79016,-1.20775 1.26787,-2.41078 0.47772,-1.20303 1.1561,-2.76735 1.50753,-3.47626 0.45074,-0.90929 0.5562,-1.37168 0.35801,-1.56987 -0.15451,-0.15451 -0.33099,-0.22933 -0.39219,-0.16627 -0.21711,0.22371 -3.07255,7.04232 -3.07255,7.33704 0,0.16479 -0.23813,0.42706 -0.52917,0.58282 -0.59911,0.32064 -0.67939,0.80228 -0.21167,1.27 0.37104,0.37104 0.31863,0.36138 0.85149,0.1569 z m -0.50753,-8.86144 c 1.30969,-0.44886 2.4161,-0.84995 2.4587,-0.89132 0.0426,-0.0414 -0.34437,-0.32408 -0.8599,-0.62825 -0.82982,-0.48961 -0.93734,-0.67684 -0.93734,-1.63233 0,-1.79512 1.50145,-2.86762 2.93813,-2.09873 0.41974,0.22464 0.67282,0.1526 1.29086,-0.36744 0.42281,-0.35578 0.69671,-0.71891 0.60865,-0.80697 -0.25154,-0.25154 0.74941,-1.22167 1.26048,-1.22167 0.25291,0 0.53483,0.19537 0.62645,0.43415 0.19312,0.50326 -0.0431,1.41793 -0.36621,1.41793 -0.12131,0 -0.20926,0.39908 -0.19542,0.88684 l 0.0251,0.88684 0.87472,-0.5161 0.87471,-0.51609 v -2.752 c 0,-1.51359 -0.0834,-2.75199 -0.18531,-2.75199 -0.10195,0 -3.3464,1.00127 -7.20991,2.22503 -3.86352,1.22376 -7.29246,2.30335 -7.61988,2.39908 -0.57004,0.16666 -0.59532,0.2958 -0.59532,3.04187 0,2.60096 0.0431,2.85656 0.46302,2.74682 0.40168,-0.10496 0.45713,-0.4334 0.41854,-2.47898 -0.0245,-1.29689 -0.11011,-2.46418 -0.19033,-2.59398 -0.0802,-0.12979 0.17793,-0.23461 0.57365,-0.23293 0.39573,0.002 3.56406,-0.91287 7.04074,-2.03234 3.47668,-1.11947 6.45324,-1.98575 6.61458,-1.92507 0.16134,0.0607 -0.0638,0.25363 -0.50041,0.42875 -1.30112,0.52193 -12.38127,3.978 -12.75344,3.978 -0.25458,0 -0.34343,0.58184 -0.34343,2.24896 v 2.24896 h 0.69726 c 0.40389,0 0.9552,0.27831 1.31029,0.66146 0.33716,0.3638 0.76753,0.66059 0.95638,0.65954 0.18885,-0.001 1.41492,-0.36917 2.72461,-0.81804 z m -3.9125,-2.51929 c -0.38871,-0.3887 -0.17288,-1.41302 0.35754,-1.69689 0.73311,-0.39235 1.35958,0.1299 1.25323,1.04474 -0.0592,0.50909 -0.25128,0.70413 -0.75088,0.7624 -0.36925,0.0431 -0.7562,-0.007 -0.85989,-0.11025 z m 1.07374,-0.84448 c 0.0576,-0.1728 -0.0838,-0.31419 -0.31419,-0.31419 -0.23041,0 -0.41892,0.18852 -0.41892,0.41892 0,0.46724 0.56958,0.38587 0.73311,-0.10473 z m -5.28777,-2.73611 c -0.667292,-0.42339 -0.73701,-0.19079 -0.73701,2.4589 0,2.24941 0.0748,2.73762 0.463021,3.02211 0.432088,0.31664 0.468069,0.15211 0.538573,-2.46294 0.05561,-2.06263 -0.01423,-2.85922 -0.264584,-3.01807 z m 14.16484,5.11981 c 0.61062,-0.67473 0.66531,-1.63916 0.11325,-1.99764 -0.60565,-0.39329 -1.27588,0.0186 -1.59676,0.9812 -0.4179,1.25368 0.62324,1.96702 1.48351,1.01644 z m -2.07863,-1.04424 c 0.0993,-0.40019 0.40889,-0.97234 0.68792,-1.27145 0.50553,-0.54193 0.50262,-0.54554 -0.82478,-1.02287 -1.27497,-0.45847 -1.35431,-0.45892 -1.84986,-0.0104 -0.86029,0.77855 -0.66758,1.75531 0.47515,2.40837 1.29947,0.74264 1.30158,0.74249 1.51157,-0.1036 z m -14.344574,-1.23785 c 0.637373,-0.0166 0.727604,-0.12335 0.727604,-0.86099 0,-0.59642 -0.147397,-0.88885 -0.505272,-1.00243 -0.891521,-0.28296 -1.198536,-0.86478 -0.854623,-1.61959 0.234702,-0.51511 0.473411,-0.65347 1.031087,-0.59763 0.399127,0.04 2.630688,-0.54048 4.959018,-1.28989 2.32833,-0.74941 5.18583,-1.64621 6.35,-1.99288 2.053,-0.61136 2.11924,-0.65666 2.20215,-1.5061 0.0776,-0.795 0.0288,-0.86345 -0.52916,-0.74206 -0.82221,0.17889 -13.065751,3.83855 -14.2407,4.25662 l -0.926041,0.32951 -0.07711,2.35002 c -0.08941,2.72491 0.01998,3.19535 0.674647,2.90131 0.253434,-0.11383 0.788213,-0.21548 1.188395,-0.22589 z m -2.447396,-2.50007 c 0,-2.00027 -0.09312,-2.69071 -0.396875,-2.94281 -0.348475,-0.28921 -0.396875,0.008 -0.396875,2.43705 0,1.52153 0.07937,2.8458 0.17639,2.94281 0.483976,0.48398 0.61736,-0.0426 0.61736,-2.43705 z m 19.05,1.19062 c 0,-0.53527 -0.69984,-1.05984 -0.92593,-0.69403 -0.26155,0.4232 0.051,1.05851 0.52075,1.05851 0.22285,0 0.40518,-0.16401 0.40518,-0.36448 z m -15.875,-1.47198 c 0,-0.63729 -0.479716,-0.96465 -0.858507,-0.58586 -0.201255,0.20125 -0.185205,0.40135 0.05545,0.69132 0.462417,0.55718 0.803055,0.51244 0.803055,-0.10546 z m 16.57744,-0.42391 c 0.0862,-0.22455 0.0853,-0.47964 -0.003,-0.56687 -0.22879,-0.22877 -0.98714,0.46091 -0.8143,0.74056 0.22581,0.36538 0.64345,0.27651 0.8162,-0.17369 z m -10.09515,-1.13972 c 2.18281,-0.70271 5.4868,-1.74093 7.34219,-2.30713 3.21088,-0.97987 4.08966,-1.43473 2.77812,-1.43802 -0.53739,-0.001 -14.30296,4.1068 -14.844909,4.43026 -0.202465,0.12084 0.29056,0.58843 0.623559,0.59139 0.0728,5.3e-4 1.91823,-0.57378 4.10104,-1.2765 z m -1.87702,-3.49415 c 3.94278,-1.17246 7.33743,-2.18839 7.54366,-2.25763 0.27098,-0.091 0.29487,-0.20599 0.0861,-0.41474 -0.27269,-0.27269 -1.29724,0.006 -14.461884,3.93352 -0.950359,0.28353 -1.199835,0.45198 -0.926041,0.62528 0.206113,0.13047 0.423061,0.23904 0.482105,0.24126 0.05904,0.002 3.333263,-0.95523 7.27604,-2.12769 z"
       style="fill:#2b1e17;fill-opacity:1;stroke-width:0.264583"
       id="path1" />
  </g>
</svg>
