<?xml version="1.0" encoding="UTF-8" standalone="no"?>
<!-- Created with Inkscape (http://www.inkscape.org/) -->

<svg
   width="24"
   height="24"
   viewBox="0 0 48 47.999999"
   version="1.1"
   id="svg1"
   inkscape:version="1.4.2 (f4327f4, 2025-05-13)"
   sodipodi:docname="corner_shelving_unit_carcass.svg"
   xmlns:inkscape="http://www.inkscape.org/namespaces/inkscape"
   xmlns:sodipodi="http://sodipodi.sourceforge.net/DTD/sodipodi-0.dtd"
   xmlns="http://www.w3.org/2000/svg"
   xmlns:svg="http://www.w3.org/2000/svg">
  <sodipodi:namedview
     id="namedview1"
     pagecolor="#ffffff"
     bordercolor="#000000"
     borderopacity="0.25"
     inkscape:showpageshadow="2"
     inkscape:pageopacity="0.0"
     inkscape:pagecheckerboard="0"
     inkscape:deskcolor="#d1d1d1"
     inkscape:document-units="mm"
     inkscape:zoom="15.581903"
     inkscape:cx="18.25836"
     inkscape:cy="15.370394"
     inkscape:window-width="1920"
     inkscape:window-height="991"
     inkscape:window-x="-9"
     inkscape:window-y="-9"
     inkscape:window-maximized="1"
     inkscape:current-layer="layer1" />
  <defs
     id="defs1" />
  <g
     inkscape:label="Ebene 1"
     inkscape:groupmode="layer"
     id="layer1"
     transform="translate(-87.841664,-129.3441)">
    <path
       d="m 106.69872,169.98155 c -1.89177,-0.78871 -5.49341,-2.28143 -8.003647,-3.31716 l -4.564062,-1.88315 v -12.54206 -12.54206 l 0.727604,-0.28274 c 0.400182,-0.1555 4.570838,-1.58967 9.268125,-3.18702 l 8.54052,-2.90429 7.46677,2.95607 c 4.10673,1.62584 7.73583,3.12599 8.06468,3.33366 l 0.59788,0.37759 -0.0687,12.49073 -0.0687,12.49073 -3.83646,1.38544 c -10.38812,3.75138 -14.22512,5.101 -14.44437,5.0806 -0.132,-0.0123 -1.78782,-0.66763 -3.67959,-1.45634 z m 3.49072,-0.27818 c -0.0704,-0.0704 -2.13471,-0.94566 -4.58745,-1.94511 -2.45274,-0.99945 -5.709677,-2.33353 -7.237646,-2.96461 l -2.778125,-1.14744 -0.06903,-11.36234 c -0.04327,-7.12303 -0.16769,-11.461 -0.333462,-11.62677 -0.176191,-0.17619 -0.241448,3.73213 -0.195554,11.71177 l 0.06888,11.9762 7.540627,3.11791 c 5.61111,2.32009 7.56354,3.02201 7.63016,2.74312 0.0492,-0.20614 0.032,-0.43237 -0.0384,-0.50273 z m 17.08064,-5.0865 0.7276,-0.28731 v -11.80255 c 0,-9.32443 -0.0695,-11.77942 -0.33073,-11.69236 -0.25633,0.0854 -0.34623,2.6756 -0.39968,11.51346 l -0.0689,11.40326 -1.43376,0.53644 c -0.78857,0.29504 -3.85317,1.38873 -6.81023,2.43044 -8.18123,2.88205 -8.1546,2.87095 -8.1546,3.40038 0,0.40046 1.19994,0.039 7.87136,-2.37098 4.32924,-1.56391 8.19877,-2.97276 8.59896,-3.13078 z m -9.45886,1.76819 c 3.63802,-1.31027 6.95674,-2.50711 7.37494,-2.65963 0.58043,-0.21169 0.6698,-0.32799 0.37765,-0.49148 -0.79568,-0.44529 -12.66486,-5.26776 -12.97946,-5.27358 -0.18116,-0.003 -3.80149,1.21399 -8.04519,2.7052 l -7.715808,2.71131 5.334558,2.19526 c 2.93401,1.20739 5.98941,2.48261 6.78977,2.83381 0.80036,0.35121 1.6338,0.5762 1.85208,0.49999 0.21828,-0.0762 3.37344,-1.21061 7.01146,-2.52088 z m 8.86354,-7.87089 v -4.47938 l -1.58224,0.64292 c -1.49375,0.60697 -1.87938,0.64292 -6.89514,0.64292 h -5.31289 l 0.0821,0.95964 0.0821,0.95964 4.10104,1.69243 c 2.25558,0.93084 5.29167,2.21255 6.74688,2.84826 1.45521,0.6357 2.6756,1.16867 2.71198,1.18439 0.0364,0.0157 0.0661,-1.98716 0.0661,-4.45082 z m -24.13545,2.09349 c 11.07685,-3.90874 9.84795,-3.36119 9.84795,-4.38783 v -0.8992 l -6.54844,-0.006 c -6.272215,-0.006 -6.612606,-0.0327 -8.069788,-0.63192 l -1.521355,-0.62565 v 4.33609 c 0,2.38485 0.06303,4.33609 0.140066,4.33609 0.07704,0 2.845239,-0.95459 6.151567,-2.12131 z m 18.24847,-5.98081 c 1.05503,-0.0798 1.91823,-0.25402 1.91823,-0.38712 0,-0.33951 -22.67421,-0.32085 -22.88415,0.0188 -0.104307,0.16878 2.80869,0.28552 8.25262,0.33073 4.6276,0.0384 8.94961,0.0953 9.60445,0.12628 0.65484,0.031 2.05383,-0.009 3.10885,-0.0887 z m -22.565337,-1.07316 c -1.361242,-0.62967 -1.974766,-0.7583 -1.974766,-0.41404 0,0.2858 2.726934,1.33039 3.033099,1.16187 0.140237,-0.0772 -0.336013,-0.41371 -1.058333,-0.74783 z m 27.393987,0.11098 c 0.67264,-0.30565 1.01796,-0.58253 0.79375,-0.63643 -0.5452,-0.13106 -2.99746,0.83373 -3.13003,1.23145 -0.1282,0.38459 0.57405,0.20574 2.33628,-0.59502 z m -1.25,-0.80357 1.52812,-0.59138 -6.63628,-2.68944 -6.63628,-2.68944 -7.84131,2.68032 -7.841318,2.68033 0.910928,0.41009 c 0.921137,0.41469 0.850837,0.41227 21.28385,0.73278 3.28618,0.0515 3.8766,-0.009 5.23229,-0.53326 z m -22.34232,-3.11233 c 3.0076,-1.02724 6.56911,-2.24763 7.91447,-2.71198 l 2.4461,-0.84428 10e-4,-5.38612 c 0.001,-4.27642 -0.0687,-5.35926 -0.3384,-5.25577 -0.18683,0.0717 -3.81824,1.30449 -8.06979,2.73953 l -7.730133,2.60918 v 5.35857 c 0,2.94721 0.06932,5.35857 0.154041,5.35857 0.08472,0 2.6148,-0.84047 5.622392,-1.8677 z m 24.58998,-3.48755 -0.0716,-5.35524 -6.74687,-2.70425 c -3.71078,-1.48733 -6.77664,-2.70888 -6.81302,-2.71454 -0.0364,-0.006 -0.0661,2.41052 -0.0661,5.3693 v 5.37961 l 6.54844,2.66907 c 3.60164,1.46799 6.69973,2.67857 6.88464,2.69018 0.26371,0.0166 0.32076,-1.1336 0.26458,-5.33413 z m -22.27742,-8.81158 8.22128,-2.79512 7.06294,2.79243 c 3.88462,1.53584 7.26927,2.78767 7.52142,2.78184 0.74665,-0.0172 -0.35788,-0.50894 -7.66474,-3.41203 l -6.80032,-2.70184 -8.41323,2.83322 c -7.829163,2.63653 -9.514215,3.28705 -8.53228,3.29393 0.211005,0.002 4.083224,-1.25512 8.60493,-2.79243 z"
       style="fill:#28220b;stroke-width:0.264583"
       id="path1" />
  </g>
</svg>
