<?xml version="1.0" encoding="UTF-8" standalone="no"?>
<!-- Created with Inkscape (http://www.inkscape.org/) -->

<svg
   width="24"
   height="24"
   viewBox="0 0 68.571428 68.571429"
   version="1.1"
   id="svg1"
   inkscape:version="1.4.2 (f4327f4, 2025-05-13)"
   sodipodi:docname="desk_top_and_legs.svg"
   xmlns:inkscape="http://www.inkscape.org/namespaces/inkscape"
   xmlns:sodipodi="http://sodipodi.sourceforge.net/DTD/sodipodi-0.dtd"
   xmlns="http://www.w3.org/2000/svg"
   xmlns:svg="http://www.w3.org/2000/svg">
  <sodipodi:namedview
     id="namedview1"
     pagecolor="#ffffff"
     bordercolor="#000000"
     borderopacity="0.25"
     inkscape:showpageshadow="2"
     inkscape:pageopacity="0.0"
     inkscape:pagecheckerboard="0"
     inkscape:deskcolor="#d1d1d1"
     inkscape:document-units="mm"
     inkscape:zoom="11.01807"
     inkscape:cx="24.7321"
     inkscape:cy="10.6643"
     inkscape:window-width="1920"
     inkscape:window-height="991"
     inkscape:window-x="-9"
     inkscape:window-y="-9"
     inkscape:window-maximized="1"
     inkscape:current-layer="layer1" />
  <defs
     id="defs1" />
  <g
     inkscape:label="Ebene 1"
     inkscape:groupmode="layer"
     id="layer1"
     transform="translate(-73.742882,-128.01535)">
    <path
       d="m 122.51027,182.89446 c -0.59373,-0.4206 -0.59531,-0.44182 -0.59531,-8.01502 v -7.5933 l -2.20551,-1.23797 c -1.21302,-0.68088 -2.28254,-1.23796 -2.3767,-1.23796 -0.0942,0 -0.20301,2.99646 -0.24189,6.65881 l -0.0707,6.65881 -0.71147,0.23702 c -0.52827,0.176 -0.88595,0.12271 -1.38906,-0.20694 l -0.6776,-0.44398 v -8.13858 c 0,-4.47622 -0.0716,-8.49671 -0.15916,-8.93442 l -0.15917,-0.79584 7.63372,-2.54453 c 4.19855,-1.39949 7.93135,-2.53917 8.29511,-2.53263 0.36376,0.007 2.68544,1.04833 5.1593,2.3151 4.42632,2.26656 4.4964,2.31585 4.40332,3.09697 -0.052,0.43656 -0.17105,4.53988 -0.26458,9.11849 l -0.17,8.32474 -0.86219,0.247 c -0.6947,0.19903 -0.96453,0.15438 -1.38906,-0.22981 -0.49971,-0.45223 -0.52687,-0.82256 -0.52687,-7.18268 0,-3.68823 -0.0893,-6.70265 -0.19844,-6.69872 -0.10914,0.004 -1.15093,0.34681 -2.3151,0.76196 l -2.11667,0.75483 -0.0733,3.8775 -0.0733,3.87749 -0.70299,0.26728 c -0.49346,0.18761 -0.92505,0.17529 -1.44808,-0.0414 l -0.7451,-0.30863 v -3.3035 c 0,-2.53151 -0.0773,-3.27498 -0.33073,-3.18144 -0.1819,0.0671 -0.9558,0.32757 -1.71979,0.57874 l -1.38906,0.45668 v 7.48696 c 0,5.68458 -0.08,7.55334 -0.33221,7.76267 -0.61813,0.513 -1.63624,0.57926 -2.24748,0.14626 z m 1.78594,-8.97175 c 0,-5.36945 -0.0938,-8.31875 -0.26458,-8.31875 -0.17089,0 -0.26459,3.00381 -0.26459,8.48228 0,5.58748 0.0903,8.42647 0.26459,8.31876 0.16731,-0.10341 0.26458,-3.22185 0.26458,-8.48229 z m -1.12071,0.10372 c -0.0495,-5.84074 -0.15716,-8.27532 -0.369,-8.34587 -0.36157,-0.12041 -0.48915,8.02032 -0.20702,13.2102 0.33503,6.16312 0.64717,3.5272 0.57602,-4.86433 z m -6.55221,-3.13081 c 0,-4.1035 -0.0997,-6.64495 -0.26458,-6.74687 -0.17381,-0.10742 -0.26458,2.20732 -0.26458,6.74687 0,4.53956 0.0908,6.8543 0.26458,6.74688 0.16492,-0.10193 0.26458,-2.64338 0.26458,-6.74688 z m -1.05833,-1.3073 c 0,-4.99585 -0.0977,-7.98228 -0.26458,-8.08541 -0.17419,-0.10765 -0.26459,2.59899 -0.26459,7.92189 0,5.21388 0.094,8.08541 0.26459,8.08541 0.17049,0 0.26458,-2.81702 0.26458,-7.92189 z m 21.69583,0.63023 c 0,-4.61734 -0.0907,-6.971 -0.26458,-6.86355 -0.16467,0.10177 -0.26458,2.59727 -0.26458,6.60856 0,5.77635 0.0879,7.28206 0.42518,7.28206 0.0572,0 0.10398,-3.16218 0.10398,-7.02707 z m 1.32292,-1.4596 c 0,-7.14949 -0.0494,-8.14652 -0.39688,-8.01318 -0.34091,0.13083 -0.39687,1.30365 -0.39687,8.31777 0,7.1495 0.0494,8.14652 0.39687,8.01318 0.34092,-0.13082 0.39688,-1.30365 0.39688,-8.31777 z m -8.99583,0.68146 c 0,-2.02847 -0.10231,-3.30729 -0.26459,-3.30729 -0.16148,0 -0.26458,1.22003 -0.26458,3.1309 0,2.74733 0.0932,3.48369 0.44097,3.48369 0.0485,0 0.0882,-1.48829 0.0882,-3.3073 z m 1.05833,-0.4281 c 0,-2.22568 -0.0934,-3.38187 -0.26458,-3.27606 -0.15444,0.0954 -0.26459,1.59545 -0.26459,3.6031 0,2.22568 0.0934,3.38188 0.26459,3.27606 0.15443,-0.0954 0.26458,-1.59545 0.26458,-3.6031 z m 0.66146,-4.42094 c 5.66867,-1.97705 5.82311,-2.05009 5.90806,-2.79413 0.0741,-0.64886 0.0143,-0.73509 -0.39687,-0.57215 -0.41622,0.16495 -11.77954,4.11395 -11.83943,4.11447 -0.012,1e-4 -0.0389,0.29776 -0.0599,0.66146 -0.021,0.3637 0.0981,0.65209 0.26459,0.64087 0.1665,-0.0112 2.92211,-0.93395 6.12357,-2.05052 z m -9.39271,1.16173 c 0,-0.53492 -0.39392,-0.8658 -2.3151,-1.94461 -3.7851,-2.12545 -3.50573,-2.02338 -3.50573,-1.28083 0,0.54548 0.44417,0.89832 2.84284,2.25827 1.56356,0.88648 2.87325,1.61178 2.91042,1.61178 0.0372,0 0.0676,-0.29007 0.0676,-0.64461 z m 9.43553,-3.39029 c 3.97631,-1.34607 7.22978,-2.50693 7.22991,-2.57969 0,-0.22021 -8.31094,-4.23333 -8.76741,-4.23333 -0.40062,0 -14.1382,4.4088 -14.59386,4.68361 -0.11744,0.0708 1.17732,0.90223 2.87724,1.84757 1.69993,0.94533 3.4629,1.94569 3.91771,2.22302 0.4548,0.27733 1.11488,0.50468 1.46683,0.50523 0.35195,5.3e-4 3.89326,-1.10034 7.86958,-2.44641 z m -11.49988,0.13323 c -1.93575,-1.09854 -3.42403,-2.08507 -3.30729,-2.19228 0.11675,-0.1072 3.15302,-1.16499 6.74728,-2.35064 l 6.53502,-2.15573 3.75167,1.87942 c 2.06341,1.03367 3.64703,1.97178 3.51914,2.08469 -0.18712,0.1652 -12.50079,4.43491 -13.46168,4.66777 -0.14552,0.0353 -1.84838,-0.83468 -3.78414,-1.93323 z m 6.42932,0.46294 2.38191,-0.79289 -0.084,-2.65886 c -0.0742,-2.35031 -0.13564,-2.64238 -0.52917,-2.51687 -0.24485,0.0781 -2.6975,0.89427 -5.45032,1.81371 l -5.00513,1.67171 2.88847,1.63369 c 1.58865,0.89854 3.00723,1.63566 3.15239,1.63805 0.14516,0.002 1.33578,-0.35245 2.64583,-0.78854 z m 3.30795,-3.70502 c 0,-1.5875 -0.10584,-2.64584 -0.26459,-2.64584 -0.15875,0 -0.26458,1.05834 -0.26458,2.64584 0,1.5875 0.10583,2.64583 0.26458,2.64583 0.15875,0 0.26459,-1.05833 0.26459,-2.64583 z m 1.12165,0.0195 c -0.0122,-1.21052 -0.15055,-2.32924 -0.30737,-2.48606 -0.20377,-0.20376 -0.28512,0.45342 -0.28512,2.3034 0,1.84827 0.0879,2.5592 0.30737,2.48605 0.20307,-0.0677 0.29982,-0.8493 0.28512,-2.30339 z m 3.64832,0.96278 1.71232,-0.6419 -2.17694,-1.09624 c -1.19732,-0.60292 -2.29034,-1.09623 -2.42893,-1.09623 -0.13859,0 -0.25467,0.8472 -0.25794,1.88266 l -0.006,1.88265 0.72256,-0.14451 c 0.39741,-0.0795 1.49311,-0.43338 2.43488,-0.78642 z m -48.558517,1.24585 c -2.910417,-1.67107 -6.09999,-3.4789 -7.087939,-4.0174 -1.254853,-0.68398 -1.844776,-1.17234 -1.957189,-1.62024 -0.34962,-1.39299 -2.235547,-0.66571 25.439805,-9.81058 l 11.36759,-3.75623 4.90428,2.18763 c 2.69736,1.20319 6.12468,2.7549 7.61627,3.44824 2.6663,1.23939 2.71198,1.27589 2.71198,2.16679 v 0.90617 l -4.16719,1.50228 c -7.14658,2.57636 -32.993061,11.85683 -33.271357,11.94645 -0.145521,0.0469 -2.645834,-1.28204 -5.55625,-2.95311 z m 5.099372,1.6929 c -0.05725,-0.17176 -0.989909,-0.80614 -2.072568,-1.40974 -1.082659,-0.60359 -3.099565,-1.73364 -4.482013,-2.51122 -5.88695,-3.31121 -6.682401,-3.72391 -6.842704,-3.55014 -0.09282,0.10061 -0.04969,0.23163 0.09583,0.29115 0.145521,0.0595 3.122084,1.75918 6.614584,3.77702 3.4925,2.01784 6.449218,3.67924 6.570485,3.69201 0.121269,0.0128 0.173643,-0.11731 0.116387,-0.28908 z m 18.927165,-6.13917 c 9.86506,-3.54831 18.00988,-6.52487 18.09959,-6.61458 0.0897,-0.0897 0.10306,-0.22317 0.0297,-0.29657 -0.0982,-0.0982 -32.89367,11.47629 -36.004225,12.70689 -0.45884,0.18152 -0.648499,0.65573 -0.26226,0.65573 0.110418,0 8.272174,-2.90316 18.137235,-6.45147 z m -0.21403,-1.24109 c 9.45885,-3.36402 17.3407,-6.19566 17.51522,-6.29253 0.29427,-0.16334 -2.22691,-1.3688 -10.42657,-4.98529 l -3.23009,-1.42465 -15.687617,5.21267 c -8.62819,2.86697 -16.619752,5.50176 -17.759029,5.8551 -1.139278,0.35333 -2.017109,0.69672 -1.950739,0.76309 0.06637,0.0664 3.063029,1.77491 6.659243,3.79676 5.419047,3.04666 6.636429,3.63457 7.110113,3.43366 0.314351,-0.13332 8.310609,-2.99479 17.769469,-6.35881 z"
       style="fill:#28220b;stroke-width:0.264583"
       id="path1" />
  </g>
</svg>
