<?xml version="1.0" encoding="UTF-8" standalone="no"?>
<!-- Created with Inkscape (http://www.inkscape.org/) -->

<svg
   width="24"
   height="24"
   viewBox="0 0 60 60"
   version="1.1"
   id="svg1"
   inkscape:version="1.4.2 (f4327f4, 2025-05-13)"
   sodipodi:docname="disassembled_table.svg"
   xmlns:inkscape="http://www.inkscape.org/namespaces/inkscape"
   xmlns:sodipodi="http://sodipodi.sourceforge.net/DTD/sodipodi-0.dtd"
   xmlns="http://www.w3.org/2000/svg"
   xmlns:svg="http://www.w3.org/2000/svg">
  <sodipodi:namedview
     id="namedview1"
     pagecolor="#ffffff"
     bordercolor="#000000"
     borderopacity="0.25"
     inkscape:showpageshadow="2"
     inkscape:pageopacity="0.0"
     inkscape:pagecheckerboard="0"
     inkscape:deskcolor="#d1d1d1"
     inkscape:document-units="mm"
     inkscape:zoom="15.581903"
     inkscape:cx="17.295705"
     inkscape:cy="3.1125851"
     inkscape:window-width="1920"
     inkscape:window-height="991"
     inkscape:window-x="-9"
     inkscape:window-y="-9"
     inkscape:window-maximized="1"
     inkscape:current-layer="layer1" />
  <defs
     id="defs1" />
  <g
     inkscape:label="Ebene 1"
     inkscape:groupmode="layer"
     id="layer1"
     transform="translate(-79.639584,-128.59151)">
    <path
       d="m 111.5585,178.33911 c -0.92686,-0.48563 -0.98087,-1.06162 -1.19424,-12.73569 l -0.17502,-9.5763 0.93821,-0.44741 c 0.98158,-0.46808 1.82839,-0.39502 2.6852,0.23167 0.47333,0.3462 0.49705,0.77437 0.43675,7.88284 -0.0351,4.13422 -0.14124,9.05625 -0.23593,10.93785 l -0.17217,3.42109 -0.79604,0.32393 c -0.64311,0.26169 -0.92875,0.25439 -1.48676,-0.038 z m 0.56301,-10.82299 c 0,-9.79106 -0.0194,-10.18754 -0.51177,-10.45104 -0.28148,-0.15064 -0.57913,-0.27389 -0.66146,-0.27389 -0.24601,0 -0.17291,7.94788 0.12653,13.75833 0.31371,6.08743 0.43114,7.14375 0.7941,7.14375 0.15603,0 0.2526,-3.8908 0.2526,-10.17715 z m 1.14537,8.52351 c 0.0881,-0.90951 0.24215,-5.63235 0.34243,-10.49521 0.1718,-8.33102 0.15578,-8.83136 -0.2775,-8.6651 -0.25291,0.097 -0.50962,0.17645 -0.57048,0.17645 -0.0609,0 -0.11065,4.64344 -0.11065,10.31875 0,5.67531 0.10262,10.31875 0.22804,10.31875 0.12543,0 0.3001,-0.74414 0.38816,-1.65364 z m -0.35162,-19.77761 c 0,-0.14552 -0.30468,-0.26458 -0.67707,-0.26458 -0.38401,0 -0.6063,0.11452 -0.51356,0.26458 0.0899,0.14552 0.39463,0.26459 0.67708,0.26459 0.28245,0 0.51355,-0.11907 0.51355,-0.26459 z m -28.045837,13.05105 c -1.034148,-0.38393 -1.058333,-0.6491 -1.058333,-11.60394 v -10.62258 l 0.673907,-0.30706 c 0.822691,-0.37484 1.715193,-0.39156 2.61616,-0.049 0.62131,0.23623 0.678683,0.38832 0.678683,1.79917 0,0.84762 -0.140062,1.6812 -0.311249,1.85238 -0.238609,0.23861 -0.207734,0.42563 0.132292,0.80135 0.345368,0.38163 0.443377,1.01256 0.442803,2.85053 -9.52e-4,3.02229 -0.973778,14.6873 -1.247075,14.95336 -0.30633,0.29821 -1.471111,0.49514 -1.927188,0.32581 z m 0.346838,-1.62222 c 0.08162,-0.4081 0.233754,-4.86859 0.338073,-9.91221 0.190892,-9.22914 0.136706,-9.98328 -0.717308,-9.98328 -0.129224,0 -0.232186,4.57581 -0.232186,10.31875 0,9.28039 0.162292,11.82239 0.611421,9.57674 z m 1.612768,-5.21112 c 0.573185,-7.44593 0.569144,-10.86699 -0.0131,-11.09042 -0.239109,-0.0917 -0.461998,-0.13426 -0.495308,-0.0944 -0.03331,0.0398 -0.144326,3.9419 -0.246701,8.67133 -0.215522,9.95645 0.101039,11.01019 0.755109,2.51354 z m -0.263357,-12.56918 c -0.03436,-1.16051 -0.373332,-1.31933 -0.373332,-0.17492 0,0.53358 0.0893,0.97015 0.198437,0.97016 0.109141,1e-5 0.187843,-0.35785 0.174895,-0.79524 z m 0.607143,-1.65217 c -0.06306,-0.32742 -0.114662,-0.0595 -0.114662,0.59531 0,0.65484 0.0516,0.92273 0.114662,0.59531 0.06306,-0.32742 0.06306,-0.8632 0,-1.19062 z m -0.5836,0.0661 c 0.08994,-0.14552 0.03743,-0.26458 -0.116677,-0.26458 -0.154109,0 -0.280198,0.11906 -0.280198,0.26458 0,0.14552 0.0525,0.26459 0.116676,0.26459 0.06417,0 0.190262,-0.11907 0.280199,-0.26459 z m -0.132292,-1.08664 c 0,-0.31071 -0.984053,-0.30593 -1.176659,0.006 -0.179223,0.28999 0.380918,0.52319 0.84593,0.35219 0.181901,-0.0669 0.330729,-0.22795 0.330729,-0.3579 z m 45.839067,21.93619 c -0.32742,-0.1611 -0.59691,-0.42354 -0.59885,-0.58321 -0.002,-0.15966 -0.23974,-3.08826 -0.52843,-6.508 -0.67779,-8.02889 -0.69321,-10.72748 -0.0633,-11.08288 0.37086,-0.20925 0.39719,-0.32773 0.1323,-0.59523 -0.18191,-0.18369 -0.33073,-0.95826 -0.33073,-1.72127 0,-1.13364 0.10751,-1.46259 0.58804,-1.79916 0.6974,-0.48848 1.77332,-0.53015 2.7068,-0.10483 l 0.67391,0.30706 v 10.77305 c 0,8.32126 -0.0756,10.83579 -0.33221,11.04875 -0.54503,0.45234 -1.61186,0.57847 -2.24748,0.26572 z m 1.78594,-11.08489 v -10.3124 l -0.57113,0.30565 -0.57112,0.30566 0.1791,9.16251 c 0.0985,5.03938 0.25164,9.60662 0.34031,10.14944 0.43571,2.6675 0.62284,-0.22002 0.62284,-9.61082 z m -1.36169,6.04462 c -0.0941,-2.36495 -0.18339,-6.23467 -0.19844,-8.59938 -0.0151,-2.36471 -0.0772,-4.29948 -0.13803,-4.29948 -0.0608,0 -0.29898,0.0723 -0.52916,0.1606 -0.56823,0.21805 -0.56671,4.07713 0.004,11.08419 0.45891,5.63082 0.50357,5.95289 0.8256,5.95355 0.11371,2.3e-4 0.12976,-1.93454 0.0357,-4.29948 z m -0.22581,-14.73533 c 0,-0.71901 -0.0893,-1.36243 -0.19844,-1.4298 -0.10914,-0.0674 -0.20209,0.52091 -0.20656,1.3073 -0.004,0.78639 0.0848,1.4298 0.19844,1.4298 0.11361,0 0.20656,-0.58828 0.20656,-1.3073 z m -0.71716,-0.80963 c -0.19038,-0.72801 -0.34118,-0.66252 -0.34118,0.14817 0,0.37239 0.10789,0.6104 0.23975,0.52891 0.13186,-0.0815 0.1775,-0.38618 0.10143,-0.67708 z m 1.62606,-1.35037 c -0.0805,-0.13028 -0.39206,-0.23686 -0.69233,-0.23686 -0.44528,0 -0.48762,0.0703 -0.22963,0.38114 0.33129,0.39918 1.17613,0.26696 0.92196,-0.14428 z m -28.10796,13.8522 c -0.49796,-0.43116 -0.55475,-0.9637 -0.82521,-7.73906 -0.15974,-4.00183 -0.28948,-8.80017 -0.2883,-10.66298 l 0.002,-3.38694 0.97947,-0.40925 c 0.78448,-0.32777 1.17407,-0.35094 1.95699,-0.11637 0.53764,0.16108 1.02586,0.44061 1.08493,0.62118 0.26822,0.81989 0.20333,6.27255 -0.16129,13.55254 -0.34745,6.9374 -0.45489,7.97467 -0.85635,8.26823 -0.63242,0.46244 -1.25999,0.42021 -1.89239,-0.12735 z m 1.96985,-6.49368 c 0.17841,-3.23158 0.33203,-7.81909 0.34138,-10.19447 0.0156,-3.9759 -0.0198,-4.3118 -0.44603,-4.22977 -0.43008,0.0828 -0.46795,0.82154 -0.53232,10.3854 -0.0381,5.66296 0.0166,10.21037 0.12164,10.10535 0.10501,-0.10501 0.33691,-2.83494 0.51533,-6.06651 z m -0.43538,-12.0933 c 0,-0.14552 0.11907,-0.26458 0.26459,-0.26458 0.14552,0 0.26458,0.11906 0.26458,0.26458 0,0.14552 -0.11906,0.26458 -0.26458,0.26458 -0.14552,0 -0.26459,-0.11906 -0.26459,-0.26458 z m 0,-1.33853 c 0,-0.15411 0.11907,-0.20662 0.26459,-0.11668 0.14552,0.0899 0.26458,0.21603 0.26458,0.2802 0,0.0642 -0.11906,0.11668 -0.26458,0.11668 -0.14552,0 -0.26459,-0.12609 -0.26459,-0.2802 z m -0.79375,9.40832 c 0,-9.82105 -0.006,-9.92769 -0.5728,-10.49468 l -0.5728,-0.5728 0.17839,8.57645 c 0.19166,9.21414 0.38261,12.41291 0.74101,12.41291 0.12441,0 0.2262,-4.46485 0.2262,-9.92188 z m -0.79375,-8.06979 c 0,-0.14552 0.11907,-0.26458 0.26459,-0.26458 0.14552,0 0.26458,0.11906 0.26458,0.26458 0,0.14552 -0.11906,0.26458 -0.26458,0.26458 -0.14552,0 -0.26459,-0.11906 -0.26459,-0.26458 z m 0,-1.33853 c 0,-0.15411 0.11907,-0.20662 0.26459,-0.11668 0.14552,0.0899 0.26458,0.21603 0.26458,0.2802 0,0.0642 -0.11906,0.11668 -0.26458,0.11668 -0.14552,0 -0.26459,-0.12609 -0.26459,-0.2802 z m 1.43765,-1.8455 c -0.28138,-0.10028 -0.6902,-0.11499 -0.90848,-0.0327 -0.28328,0.10681 -0.20755,0.19799 0.26458,0.31858 0.81158,0.20728 1.35309,-0.0332 0.6439,-0.2859 z m -6.59703,18.11958 c -1.164162,-0.51315 -3.962131,-1.722 -6.217704,-2.68633 -2.255573,-0.96434 -4.24987,-1.86731 -4.431771,-2.00659 -0.202496,-0.15507 -0.330729,-0.89653 -0.330729,-1.91235 0,-1.73578 0.169153,-1.98028 1.37001,-1.98028 0.526819,0 6.770666,2.56272 10.999264,4.51453 l 2.18281,1.00753 v 1.68397 c 0,1.70238 -0.27953,2.32177 -1.04511,2.31574 -0.22555,-0.002 -1.3626,-0.42308 -2.52677,-0.93622 z m 1.67081,-2.27004 c -0.19134,-0.12057 -2.014764,-0.92629 -4.052056,-1.79049 -2.037291,-0.86421 -4.693199,-1.99613 -5.902016,-2.51538 l -2.197849,-0.94411 0.08118,1.10596 0.08118,1.10596 6.085416,2.67061 6.085415,2.67062 0.0833,-1.04197 c 0.0522,-0.6528 -0.0466,-1.12385 -0.26458,-1.2612 z m 1.3719,1.07721 c 0,-0.5735 -0.11906,-1.04272 -0.26458,-1.04272 -0.14552,0 -0.26458,0.54281 -0.26458,1.20624 0,0.73679 0.10297,1.1426 0.26458,1.04272 0.14552,-0.0899 0.26458,-0.63275 0.26458,-1.20624 z m -1.56432,-2.11317 c -3.849003,-1.74624 -11.212578,-4.76168 -11.333227,-4.64103 -0.07852,0.0785 0.08263,0.22588 0.358118,0.32744 0.27549,0.10157 2.941671,1.23145 5.924848,2.51084 2.983177,1.2794 5.602551,2.32758 5.820831,2.32929 0.21828,0.002 -0.12848,-0.23523 -0.77057,-0.52654 z m 13.90386,3.90791 c -0.37337,-0.27301 -0.44626,-0.66498 -0.3813,-2.05047 l 0.0803,-1.71294 4.63021,-2.03252 c 7.79003,-3.41958 8.44131,-3.65632 9.15911,-3.32927 0.57144,0.26036 0.63044,0.4505 0.63018,2.03073 l -2.7e-4,1.74347 -6.59296,2.84427 c -3.62613,1.56435 -6.69887,2.84427 -6.8283,2.84427 -0.12944,0 -0.44307,-0.15189 -0.69696,-0.33754 z m 0.62505,-1.64684 c 0,-0.65573 -0.1249,-1.19062 -0.27802,-1.19062 -0.17037,0 -0.22949,0.43544 -0.15267,1.12448 0.14781,1.32591 0.13139,1.25677 0.2984,1.25677 0.0728,0 0.13229,-0.53578 0.13229,-1.19063 z m 11.30383,-3.52127 c 1.64639,-0.712 1.64653,-0.71215 1.65364,-1.83654 0.004,-0.61846 -0.032,-1.12448 -0.0798,-1.12448 -0.0478,0 -1.56584,0.66612 -3.37344,1.48026 -1.8076,0.81414 -3.88185,1.71547 -4.60946,2.00297 -0.7276,0.2875 -2.00752,0.82827 -2.84427,1.20172 -1.50725,0.67269 -1.52135,0.68942 -1.52135,1.80449 v 1.12551 l 4.56406,-1.97093 c 2.51023,-1.08402 5.305,-2.29137 6.2106,-2.683 z m -5.70516,-0.35056 c 2.37776,-1.02677 4.89156,-2.11074 5.58621,-2.40882 0.69465,-0.29807 1.21358,-0.59137 1.15317,-0.65178 -0.11943,-0.11943 -10.4275,4.21137 -11.53026,4.84429 -1.3079,0.75064 0.35999,0.12967 4.79088,-1.78369 z m -31.197111,-4.49788 c -0.193068,-0.1956 -0.330729,-1.01861 -0.330729,-1.97726 v -1.64219 l 1.949816,-0.81167 c 3.235183,-1.34681 10.276624,-4.00017 10.615584,-4.00017 0.7587,0 1.22351,0.98439 1.14162,2.41774 -0.096,1.67965 0.39742,1.37644 -6.804768,4.18179 -5.471346,2.13116 -6.102426,2.30707 -6.571523,1.8318 z m 0.481071,-2.69828 c -0.200456,-0.20045 -0.282634,0.0276 -0.282634,0.78452 0,1.38797 0.371926,1.76223 0.481071,0.48409 0.04631,-0.54228 -0.04299,-1.11316 -0.198437,-1.26861 z m 7.330785,-0.42503 4.821995,-1.91245 v -1.06463 c 0,-0.74655 -0.0988,-1.02473 -0.33073,-0.93107 -0.1819,0.0735 -2.809375,1.11031 -5.838834,2.30411 -4.245826,1.67313 -5.473665,2.26031 -5.357813,2.56222 0.08266,0.21542 0.150297,0.68118 0.150297,1.03504 0,0.62417 0.02585,0.63256 0.866543,0.2813 0.476599,-0.19914 3.036443,-1.22267 5.688542,-2.27452 z m -5.761335,1.17427 c 0,-0.21828 0.119062,-0.39687 0.264583,-0.39687 0.145521,0 0.264583,0.17859 0.264583,0.39687 0,0.21829 -0.119062,0.39688 -0.264583,0.39688 -0.145521,0 -0.264583,-0.17859 -0.264583,-0.39688 z m 9.525,-3.85207 c 0,-0.15411 0.11906,-0.20661 0.26458,-0.11668 0.14552,0.0899 0.26459,0.21603 0.26459,0.2802 0,0.0642 -0.11907,0.11668 -0.26459,0.11668 -0.14552,0 -0.26458,-0.12609 -0.26458,-0.2802 z m -4.681882,0.36876 c 2.881992,-1.13481 5.139952,-2.09663 5.017672,-2.13739 -0.25137,-0.0838 -10.15384,3.72248 -10.859071,4.17396 -0.410579,0.26286 -0.403251,0.27905 0.07224,0.15962 0.291042,-0.0731 2.887164,-1.06138 5.769159,-2.19619 z m 22.012092,2.61656 -7.14375,-2.85015 -0.0799,-1.68933 c -0.0824,-1.74332 0.10716,-2.12185 1.06695,-2.13034 0.42121,-0.004 8.83367,3.18716 13.37797,5.07432 l 1.92965,0.80135 -0.0776,1.75649 -0.0776,1.7565 -0.92604,0.0657 c -0.66434,0.0471 -2.94485,-0.73979 -8.06979,-2.7845 z m 7.54063,1.05075 v -1.00662 l -6.95491,-2.69754 c -3.8252,-1.48365 -7.04708,-2.69754 -7.15972,-2.69754 -0.11265,0 -0.16786,0.4303 -0.1227,0.95622 l 0.0821,0.95622 6.74687,2.72525 c 3.71078,1.49888 6.89571,2.73546 7.07761,2.74794 0.21061,0.0144 0.33073,-0.34291 0.33073,-0.98393 z m -1.32292,-0.31629 c 0,-0.14552 0.11906,-0.26458 0.26458,-0.26458 0.14552,0 0.26459,0.11906 0.26459,0.26458 0,0.14552 -0.11907,0.26459 -0.26459,0.26459 -0.14552,0 -0.26458,-0.11907 -0.26458,-0.26459 z m -12.17083,-4.7625 c 0,-0.14552 0.11906,-0.26458 0.26458,-0.26458 0.14552,0 0.26458,0.11906 0.26458,0.26458 0,0.14552 -0.11906,0.26459 -0.26458,0.26459 -0.14552,0 -0.26458,-0.11907 -0.26458,-0.26459 z m 14.33284,5.02709 c 0.0555,-0.58209 0.008,-1.05834 -0.1045,-1.05834 -0.11298,0 -0.20543,0.47625 -0.20543,1.05834 0,0.58208 0.047,1.05833 0.1045,1.05833 0.0575,0 0.14992,-0.47625 0.20543,-1.05833 z m -0.58037,-1.57496 c -0.3997,-0.23417 -3.9002,-1.64387 -10.37904,-4.17978 -1.85539,-0.72622 -3.37343,-1.2345 -3.37343,-1.12951 0,0.10499 1.78767,0.87401 3.9726,1.70893 2.18493,0.83492 5.25079,2.03802 6.81302,2.67355 2.66483,1.08409 3.88695,1.46586 2.96685,0.92681 z"
       style="fill:#28220b;stroke-width:0.264583"
       id="path1" />
  </g>
</svg>
