<?xml version="1.0" encoding="UTF-8" standalone="no"?>
<!-- Created with Inkscape (http://www.inkscape.org/) -->

<svg
   width="24"
   height="24"
   viewBox="0 0 48 48"
   version="1.1"
   id="svg1"
   inkscape:version="1.4.2 (f4327f4, 2025-05-13)"
   sodipodi:docname="drawer_chest_carcass.svg"
   xmlns:inkscape="http://www.inkscape.org/namespaces/inkscape"
   xmlns:sodipodi="http://sodipodi.sourceforge.net/DTD/sodipodi-0.dtd"
   xmlns="http://www.w3.org/2000/svg"
   xmlns:svg="http://www.w3.org/2000/svg">
  <sodipodi:namedview
     id="namedview1"
     pagecolor="#ffffff"
     bordercolor="#000000"
     borderopacity="0.25"
     inkscape:showpageshadow="2"
     inkscape:pageopacity="0.0"
     inkscape:pagecheckerboard="0"
     inkscape:deskcolor="#d1d1d1"
     inkscape:document-units="mm"
     inkscape:zoom="15.581903"
     inkscape:cx="11.840659"
     inkscape:cy="22.301512"
     inkscape:window-width="1920"
     inkscape:window-height="991"
     inkscape:window-x="-9"
     inkscape:window-y="-9"
     inkscape:window-maximized="1"
     inkscape:current-layer="layer1" />
  <defs
     id="defs1" />
  <g
     inkscape:label="Ebene 1"
     inkscape:groupmode="layer"
     id="layer1"
     transform="translate(-83.603741,-125.95919)">
    <path
       d="m 96.692599,172.18998 c -0.326276,-0.19483 -0.463021,-0.61236 -0.463021,-1.41375 v -1.13727 l -2.579687,-1.77306 c -1.922942,-1.32167 -2.601458,-1.66874 -2.665199,-1.36331 -0.120771,0.57871 -1.290748,0.80637 -2.051542,0.3992 -0.53872,-0.28831 -0.641072,-0.54155 -0.641072,-1.58614 0,-1.15755 -0.07295,-1.29132 -1.06063,-1.94493 l -1.060627,-0.7019 0.06844,-14.21604 0.06844,-14.21604 15.610419,-3.48931 c 8.58573,-1.91912 15.84854,-3.49622 16.13958,-3.50466 0.29104,-0.008 2.85089,1.27447 5.68854,2.85092 l 5.15938,2.86627 v 14.1321 14.1321 l -1.11289,0.38472 c -1.10879,0.38331 -1.11317,0.39006 -1.19062,1.83415 -0.0728,1.35808 -0.12724,1.4626 -0.86312,1.65837 -1.14697,0.30514 -1.99275,-0.32334 -1.99275,-1.48076 v -0.89862 l -0.99218,0.28095 c -0.54571,0.15452 -6.05235,1.60811 -12.23698,3.23019 l -11.244796,2.94925 -0.132291,1.57712 -0.132292,1.57713 -0.926042,0.0649 c -0.509323,0.0357 -1.134401,-0.0595 -1.389062,-0.21158 z m 0.517858,-1.90075 c -0.06329,-0.32912 -0.11747,-0.12215 -0.120406,0.45993 -0.0029,0.58208 0.04884,0.85136 0.115067,0.5984 0.06622,-0.25297 0.06863,-0.72922 0.0053,-1.05833 z m 1.400371,0.1733 c 0,-1.56158 -0.626473,-1.46985 -0.742818,0.10876 -0.06322,0.8578 0.0105,1.10391 0.330729,1.10391 0.313122,0 0.412089,-0.29123 0.412089,-1.21267 z m -1.058333,-15.60398 c 0,-9.37984 -0.08945,-14.11554 -0.264584,-14.00731 -0.170997,0.10569 -0.264583,5.11803 -0.264583,14.17083 0,9.16181 0.09153,14.0073 0.264583,14.0073 0.173096,0 0.264584,-4.9 0.264584,-14.17082 z m -1.331693,-0.0505 -0.0088,-13.95678 -4.389303,-2.64583 c -2.414116,-1.45521 -4.49376,-2.68552 -4.621432,-2.73403 -0.131244,-0.0499 -0.231331,5.75711 -0.230291,13.36146 l 0.0019,13.44965 2.577849,1.77528 c 1.417817,0.97641 3.470817,2.43002 4.562224,3.23024 1.091406,0.80023 2.01414,1.45987 2.05052,1.46587 0.03638,0.006 0.0622,-6.26964 0.05737,-13.94586 z m 17.735858,9.72874 c 5.60255,-1.47365 11.10919,-2.92418 12.23698,-3.2234 l 2.05052,-0.54404 v -13.59706 c 0,-8.80448 -0.0924,-13.59706 -0.26216,-13.59706 -0.16881,0 -0.28657,4.78119 -0.33073,13.42761 l -0.0686,13.4276 -5.68854,1.49084 c -19.523,5.11653 -23.141873,6.04979 -23.459137,6.04979 -0.19435,0 -0.353362,0.16868 -0.353362,0.37484 0,0.3 0.567928,0.22464 2.844269,-0.37746 1.56435,-0.41377 7.42818,-1.95802 13.03073,-3.43166 z m -3.37344,-0.32252 c 0.69123,-0.16656 1.25374,-0.37169 1.25004,-0.45583 -0.004,-0.0842 -1.73395,-1.17689 -3.84497,-2.42832 l -3.83822,-2.27532 -2.90004,0.70445 -2.900042,0.70446 -0.133781,3.2504 c -0.07358,1.78772 -0.07905,3.33894 -0.01217,3.44716 0.06688,0.10823 2.596793,-0.44244 5.622013,-1.2237 3.02522,-0.78126 6.06595,-1.55674 6.75717,-1.7233 z m -21.315007,0.91253 c -0.06655,-0.25467 -0.121002,-0.0463 -0.121002,0.46302 0,0.50932 0.05445,0.71768 0.121002,0.46302 0.06655,-0.25466 0.06655,-0.67138 0,-0.92604 z m 1.140532,0.7276 c 0,-0.29104 -0.111662,-0.52917 -0.24814,-0.52917 -0.136477,0 -0.230203,0.23813 -0.20828,0.52917 0.02193,0.29104 0.133588,0.52917 0.24814,0.52917 0.114554,0 0.20828,-0.23813 0.20828,-0.52917 z m 35.454165,-2.67706 c 0,-0.63819 -0.10504,-0.99342 -0.26458,-0.89482 -0.14552,0.0899 -0.26459,0.63977 -0.26459,1.22186 0,0.63818 0.10504,0.99342 0.26459,0.89481 0.14552,-0.0899 0.26458,-0.63977 0.26458,-1.22185 z m -1.05833,0.1479 c 0,-0.51791 -0.0992,-0.88034 -0.22047,-0.8054 -0.20855,0.12889 -0.0991,1.74706 0.11821,1.74706 0.0562,0 0.10226,-0.42375 0.10226,-0.94166 z m -11.1125,-12.4198 c 0,-8.20208 -0.0919,-12.56771 -0.26459,-12.56771 -0.17267,0 -0.26458,4.36563 -0.26458,12.56771 0,8.20208 0.0919,12.56771 0.26458,12.56771 0.17268,0 0.26459,-4.36563 0.26459,-12.56771 z m -1.33268,-12.24023 c -0.0781,-0.0382 -1.86407,0.3304 -3.96875,0.81904 l -3.8267,0.88843 -0.0682,1.42992 -0.0682,1.42992 3.84733,2.24896 c 3.6946,2.15968 3.84436,2.28047 3.77233,3.04271 -0.12407,1.31301 -0.94565,1.16459 -4.28385,-0.77388 -1.64771,-0.95681 -3.07358,-1.73966 -3.1686,-1.73966 -0.095,0 -0.14083,2.82016 -0.10182,6.26703 l 0.0709,6.26703 3.83646,2.30995 3.83646,2.30994 0.13229,-12.215 c 0.0728,-6.71824 0.0684,-12.24622 -0.01,-12.28439 z m -1.31316,18.31003 c 0,-0.22687 0.12101,-0.3377 0.2689,-0.2463 0.1479,0.0914 0.2004,0.27703 0.11668,0.41249 -0.22681,0.36699 -0.38558,0.29856 -0.38558,-0.16619 z m 0,-1.98437 c 0,-0.15411 0.11907,-0.20662 0.26459,-0.11668 0.14552,0.0899 0.26458,0.21603 0.26458,0.2802 0,0.0642 -0.11906,0.11668 -0.26458,0.11668 -0.14552,0 -0.26459,-0.12609 -0.26459,-0.2802 z m -5.68854,-1.57189 c -0.0899,-0.14552 -0.0374,-0.26458 0.11668,-0.26458 0.15411,0 0.2802,0.11906 0.2802,0.26458 0,0.14552 -0.0525,0.26459 -0.11668,0.26459 -0.0642,0 -0.19026,-0.11907 -0.2802,-0.26459 z m 5.68854,-0.26458 c 0,-0.14552 0.11907,-0.26458 0.26459,-0.26458 0.14552,0 0.26458,0.11906 0.26458,0.26458 0,0.14552 -0.11906,0.26458 -0.26458,0.26458 -0.14552,0 -0.26459,-0.11906 -0.26459,-0.26458 z m -5.68854,-1.5875 c -0.0899,-0.14552 -0.0374,-0.26458 0.11668,-0.26458 0.15411,0 0.2802,0.11906 0.2802,0.26458 0,0.14552 -0.0525,0.26458 -0.11668,0.26458 -0.0642,0 -0.19026,-0.11906 -0.2802,-0.26458 z m 5.68854,-0.54478 c 0,-0.15411 0.11907,-0.20662 0.26459,-0.11668 0.14552,0.0899 0.26458,0.21603 0.26458,0.2802 0,0.0642 -0.11906,0.11668 -0.26458,0.11668 -0.14552,0 -0.26459,-0.12609 -0.26459,-0.2802 z m -5.68854,-3.15939 c -0.0899,-0.14552 -0.0374,-0.26458 0.11668,-0.26458 0.15411,0 0.2802,0.11906 0.2802,0.26458 0,0.14552 -0.0525,0.26459 -0.11668,0.26459 -0.0642,0 -0.19026,-0.11907 -0.2802,-0.26459 z m 20.86358,12.16525 c 0.0699,-0.0699 -1.65613,-1.10902 -3.83564,-2.30913 l -3.96276,-2.18201 -1.90238,0.4785 -1.90238,0.47851 -0.0738,3.32032 -0.0738,3.32032 5.8118,-1.4897 c 3.19649,-0.81934 5.869,-1.5469 5.93891,-1.61681 z m -25.36149,-0.87889 c 0.87312,-0.21076 1.91492,-0.45742 2.3151,-0.54815 l 0.7276,-0.16495 v -6.48556 c 0,-5.52086 -0.059,-6.50821 -0.39687,-6.63785 -0.22137,-0.0849 -0.39688,-0.47827 -0.39688,-0.88943 0,-0.41116 0.17551,-0.80448 0.39688,-0.88943 0.28001,-0.10745 0.39687,-0.54428 0.39687,-1.48352 0,-1.14062 -0.0734,-1.33122 -0.51274,-1.33122 -0.4693,0 -3.477466,0.62798 -4.580485,0.95621 -0.429191,0.12772 -0.46302,0.79504 -0.46302,9.13362 0,8.44295 0.02846,8.98746 0.46302,8.85965 0.254662,-0.0749 1.177396,-0.30862 2.050525,-0.51937 z m 26.32604,-11.81555 c 0,-6.69396 -0.0429,-12.17084 -0.0952,-12.17084 -0.0524,0 -1.86807,0.41531 -4.03489,0.92291 -2.16683,0.5076 -4.02898,0.92431 -4.13812,0.92604 -0.10914,0.002 -0.19844,0.58203 -0.19844,1.28956 v 1.28643 l 3.96875,2.18092 c 3.64405,2.0025 3.96875,2.24125 3.96875,2.91823 0,0.56625 -0.15381,0.7759 -0.66302,0.90371 -0.50456,0.12663 -1.37406,-0.2208 -3.63802,-1.45367 -1.63625,-0.89104 -3.12383,-1.7415 -3.30573,-1.88991 -0.26072,-0.21272 -0.33073,0.31813 -0.33073,2.50766 v 2.77751 l 3.90261,2.21583 c 3.67112,2.0844 3.90752,2.26683 3.98551,3.07572 0.0766,0.79405 0.0233,0.8599 -0.69541,0.8599 -0.6879,0 -3.10132,-1.18083 -5.86979,-2.87194 -0.50933,-0.31112 -1.01534,-0.56612 -1.12448,-0.56666 -0.10914,-5.3e-4 -0.19844,1.06227 -0.19844,2.36181 v 2.3628 l 4.0349,2.25043 c 2.21919,1.23773 4.12419,2.25807 4.23333,2.26741 0.10914,0.009 0.19844,-5.4599 0.19844,-12.15385 z m -1.5875,3.175 c 0,-0.14552 0.12609,-0.26459 0.2802,-0.26459 0.15411,0 0.20661,0.11907 0.11667,0.26459 -0.0899,0.14552 -0.21602,0.26458 -0.2802,0.26458 -0.0642,0 -0.11667,-0.11906 -0.11667,-0.26458 z m 0,-1.8677 c 0,-0.15411 0.11906,-0.20662 0.26458,-0.11668 0.14552,0.0899 0.26458,0.21603 0.26458,0.2802 0,0.0642 -0.11906,0.11668 -0.26458,0.11668 -0.14552,0 -0.26458,-0.12609 -0.26458,-0.2802 z m 0,-1.57189 c 0,-0.14552 0.11906,-0.26458 0.26458,-0.26458 0.14552,0 0.26458,0.11906 0.26458,0.26458 0,0.14552 -0.11906,0.26459 -0.26458,0.26459 -0.14552,0 -0.26458,-0.11907 -0.26458,-0.26459 z m -5.95313,-0.79375 c 0.0899,-0.14552 0.21603,-0.26458 0.2802,-0.26458 0.0642,0 0.11668,0.11906 0.11668,0.26458 0,0.14552 -0.12609,0.26459 -0.2802,0.26459 -0.15411,0 -0.20661,-0.11907 -0.11668,-0.26459 z m -3.16323,9.09596 1.70802,-0.42904 v -2.62197 c 0,-2.08657 -0.081,-2.65307 -0.39687,-2.77427 -0.21828,-0.0838 -0.39688,-0.44095 -0.39688,-0.79375 0,-0.3528 0.1786,-0.70998 0.39688,-0.79375 0.32073,-0.12307 0.39687,-0.73222 0.39687,-3.175 0,-2.44277 -0.0761,-3.05192 -0.39687,-3.175 -0.22623,-0.0868 -0.39688,-0.48142 -0.39688,-0.91773 0,-0.50401 0.13556,-0.76545 0.39688,-0.76545 0.29986,0 0.39687,-0.32338 0.39687,-1.32291 0,-1.4827 0.0406,-1.46427 -2.11666,-0.96105 l -1.45521,0.33944 -0.0697,8.90976 c -0.0383,4.90037 -0.003,8.90976 0.0779,8.90976 0.0812,0 0.91619,-0.19307 1.8556,-0.42904 z m 9.64552,-2.61367 c 0,-0.21828 -0.0992,-0.39687 -0.22048,-0.39687 -0.12127,0 -0.22049,0.17859 -0.22049,0.39687 0,0.21829 0.0992,0.39688 0.22049,0.39688 0.12127,0 0.22048,-0.17859 0.22048,-0.39688 z m -1.05833,0.0169 c 0,-0.0635 -1.10133,-0.73355 -2.44739,-1.48901 -1.34607,-0.75547 -2.98318,-1.67561 -3.63803,-2.04477 -0.65484,-0.36916 -1.04917,-0.51611 -0.87629,-0.32656 0.31846,0.34918 6.39786,3.89849 6.76327,3.94857 0.10914,0.015 0.19844,-0.0247 0.19844,-0.0882 z m 0.24254,-0.78745 c -0.33322,-0.32989 -6.68442,-3.85593 -6.77759,-3.76276 -0.12385,0.12385 6.26245,3.82878 6.64529,3.85517 0.1334,0.009 0.19293,-0.0324 0.1323,-0.0924 z m -14.79462,-3.61727 c -1.96109,-1.26332 -7.10475,-4.11496 -6.74688,-3.74046 0.39505,0.41341 6.57274,4.00625 6.87917,4.00082 0.14552,-0.003 0.086,-0.11975 -0.13229,-0.26036 z m 0.64823,-0.48147 c -0.5155,-0.49035 -6.76009,-4.056 -6.88485,-3.93124 -0.1105,0.1105 6.67888,4.1371 7.01714,4.16167 0.0655,0.005 0.006,-0.0989 -0.13229,-0.23043 z m 13.90385,-3.15361 c 0,-0.11974 -1.10133,-0.79528 -2.44739,-1.5012 -1.34607,-0.70593 -2.90514,-1.56906 -3.46459,-1.91807 -0.55945,-0.34901 -1.07458,-0.57717 -1.14473,-0.50702 -0.1256,0.1256 1.82981,1.31449 5.20463,3.16443 2.0086,1.10103 1.85208,1.03665 1.85208,0.76186 z m 0.13229,-1.01284 c -0.14552,-0.0549 -1.66357,-0.85973 -3.37343,-1.78857 -1.70987,-0.92885 -3.1082,-1.6118 -3.1074,-1.51767 0.002,0.25006 6.45673,3.71069 6.61312,3.54562 0.0728,-0.0768 0.0132,-0.18451 -0.13229,-0.23938 z m -20.83783,-4.07721 c 3.16612,-0.73644 9.38799,-2.16765 13.82637,-3.18045 8.24014,-1.88034 9.28336,-2.16369 8.84746,-2.40309 -0.13667,-0.0751 -3.93943,0.71483 -8.45058,1.75532 -4.51115,1.04049 -10.97029,2.52929 -14.35365,3.30843 -3.38336,0.77914 -6.151559,1.51611 -6.151559,1.6377 0,0.3367 0.1206,0.31524 6.281959,-1.11791 z m -11.97363,-2.28285 c -2.567374,-1.52651 -4.724509,-2.71892 -4.793634,-2.64979 -0.187208,0.1872 8.994479,5.70155 9.245844,5.55287 0.11866,-0.0702 -1.884834,-1.37657 -4.45221,-2.90308 z m 19.87975,-0.79361 c 7.47624,-1.71869 13.59165,-3.18449 13.58978,-3.25732 -0.002,-0.0728 -1.9818,-1.24798 -4.39987,-2.61144 l -4.39649,-2.47901 -11.67356,2.57944 c -15.823365,3.4964 -16.341763,3.61839 -16.164381,3.80385 0.08534,0.0892 2.023655,1.31678 4.307366,2.7279 2.465559,1.52348 4.353634,2.5242 4.648089,2.46357 0.272737,-0.0562 6.612816,-1.5083 14.089066,-3.22699 z m 15.15862,-3.60289 c -0.70183,-0.51469 -9.03941,-4.9688 -9.13051,-4.87771 -0.0678,0.0678 1.92982,1.26503 4.43906,2.6606 2.50924,1.39557 4.61613,2.48352 4.68198,2.41768 0.0658,-0.0658 0.0701,-0.1561 0.009,-0.20057 z"
       style="fill:#28220b;stroke-width:0.264583"
       id="path1" />
  </g>
</svg>
