<?xml version="1.0" encoding="UTF-8" standalone="no"?>
<!-- Created with Inkscape (http://www.inkscape.org/) -->

<svg
   width="24"
   height="24"
   viewBox="0 0 48 48"
   version="1.1"
   id="svg1"
   inkscape:version="1.4.2 (f4327f4, 2025-05-13)"
   sodipodi:docname="drawer_cabinet_carcass.svg"
   xmlns:inkscape="http://www.inkscape.org/namespaces/inkscape"
   xmlns:sodipodi="http://sodipodi.sourceforge.net/DTD/sodipodi-0.dtd"
   xmlns="http://www.w3.org/2000/svg"
   xmlns:svg="http://www.w3.org/2000/svg">
  <sodipodi:namedview
     id="namedview1"
     pagecolor="#ffffff"
     bordercolor="#000000"
     borderopacity="0.25"
     inkscape:showpageshadow="2"
     inkscape:pageopacity="0.0"
     inkscape:pagecheckerboard="0"
     inkscape:deskcolor="#d1d1d1"
     inkscape:document-units="mm"
     inkscape:zoom="15.581903"
     inkscape:cx="4.5886564"
     inkscape:cy="20.568732"
     inkscape:window-width="1920"
     inkscape:window-height="991"
     inkscape:window-x="-9"
     inkscape:window-y="-9"
     inkscape:window-maximized="1"
     inkscape:current-layer="layer1" />
  <defs
     id="defs1" />
  <g
     inkscape:label="Ebene 1"
     inkscape:groupmode="layer"
     id="layer1"
     transform="translate(-87.572225,-127.45961)">
    <path
       d="m 104.52259,172.24459 c -0.18125,-0.18124 -0.3312,-0.75221 -0.33323,-1.2688 -0.003,-0.88729 -0.1455,-1.03797 -2.56575,-2.7225 -1.40913,-0.98078 -2.630282,-1.67284 -2.713671,-1.53791 -0.224491,0.36323 -1.393505,0.72754 -1.941811,0.60514 -0.54328,-0.12128 -0.977162,-1.07375 -0.977162,-2.14509 0,-0.55946 -0.273161,-0.91813 -1.193051,-1.56653 l -1.193051,-0.84094 0.06857,-13.41979 0.06857,-13.41979 9.260416,-2.1759 c 5.09323,-1.19675 10.40322,-2.43799 11.79998,-2.75832 l 2.53957,-0.58241 5.43772,2.95028 c 2.99075,1.62265 5.50153,3.11652 5.5795,3.31971 0.078,0.20319 0.14539,6.20226 0.14984,13.33129 0.006,9.87278 -0.0686,13.02242 -0.31385,13.216 -0.17706,0.13978 -0.67911,0.36867 -1.11567,0.50865 -0.72468,0.23236 -0.80526,0.37755 -0.92604,1.66863 -0.11795,1.26073 -0.21214,1.44057 -0.86838,1.65797 -1.05794,0.35049 -2.04204,-0.33778 -2.04204,-1.42817 0,-0.71753 -0.072,-0.79699 -0.59531,-0.65652 -0.32742,0.0879 -3.92906,1.09948 -8.00365,2.24796 l -7.40833,2.08815 -0.13229,1.55103 -0.13229,1.55103 -1.05953,0.0782 c -0.59499,0.0439 -1.20401,-0.0663 -1.38907,-0.25136 z m 1.78713,-1.56223 c 0,-0.5735 -0.11907,-1.04272 -0.26459,-1.04272 -0.14552,0 -0.26458,0.54281 -0.26458,1.20624 0,0.73679 0.10297,1.1426 0.26458,1.04272 0.14552,-0.0899 0.26459,-0.63275 0.26459,-1.20624 z m -1.05834,0.1479 c 0,-0.50932 -0.11906,-0.92604 -0.26458,-0.92604 -0.29339,0 -0.36691,1.39698 -0.0882,1.6757 0.30452,0.30452 0.35278,0.20197 0.35278,-0.74966 z m -1.05833,-14.91142 v -13.19163 l -4.29948,-2.60064 c -2.364713,-1.43035 -4.56737,-2.77062 -4.894791,-2.97838 l -0.595313,-0.37774 v 12.8322 12.8322 l 4.828646,3.32484 c 2.655758,1.82866 4.858408,3.33067 4.894788,3.33781 0.0364,0.007 0.0661,-5.92326 0.0661,-13.17866 z m 9.54898,10.78392 c 4.71624,-1.32424 9.7656,-2.72938 11.22081,-3.12253 l 2.64583,-0.71481 0.0687,-12.88477 c 0.0378,-7.08662 -0.0217,-12.88484 -0.13229,-12.88494 -0.11051,-1e-4 -5.29087,1.27561 -11.51189,2.83491 l -11.31093,2.83508 v 13.17239 c 0,7.24481 0.10009,13.17238 0.22242,13.17238 0.12233,0 4.08115,-1.08347 8.79739,-2.40771 z m -8.49065,-10.92544 c 0,-11.94718 0.0321,-12.8606 0.45154,-12.8606 0.24834,0 4.94522,-1.13109 10.4375,-2.51354 5.49228,-1.38245 10.23018,-2.51354 10.52867,-2.51354 0.53944,0 0.54271,0.074 0.54271,12.30312 0,6.76672 -0.0532,12.30313 -0.11827,12.30313 -0.16377,0 -21.04799,5.83728 -21.48716,6.00581 -0.29393,0.11279 -0.35499,-2.07582 -0.35499,-12.72438 z m 11.06715,9.05315 c 8.89457,-2.46885 10.32428,-2.98294 10.35569,-3.72364 0.017,-0.40188 -0.463,-0.18343 -0.58144,0.26458 -0.0885,0.33483 -0.81124,0.64036 -2.61054,1.10358 -1.36848,0.35231 -5.58264,1.51317 -9.3648,2.57969 -3.78216,1.06652 -7.2052,1.93913 -7.60677,1.93913 -0.49421,0 -0.73012,0.13738 -0.73012,0.42518 0,0.27864 0.14395,0.36994 0.41767,0.26491 0.22972,-0.0882 4.78386,-1.3722 10.12031,-2.85343 z m -10.11973,0.37673 c -0.28822,-0.28823 -0.39762,0.0887 -0.21474,0.73983 l 0.18251,0.6499 0.093,-0.61803 c 0.0511,-0.33992 0.0238,-0.68718 -0.0607,-0.7717 z m 9.33935,-1.29204 c 4.45598,-1.2567 8.54826,-2.41239 9.09396,-2.56821 l 0.99219,-0.2833 v -2.32659 c 0,-1.27962 -0.055,-2.32659 -0.12221,-2.32659 -0.0672,0 -2.53777,0.65285 -5.49011,1.45078 -2.95234,0.79793 -7.09429,1.91299 -9.20435,2.47791 l -3.83645,1.02713 -0.0761,2.41688 c -0.0538,1.70851 0.0144,2.41689 0.23261,2.41689 0.16977,0 3.95447,-1.02821 8.41044,-2.2849 z m -9.22843,-1.15469 c 0,-0.88194 -0.11759,-1.5875 -0.26459,-1.5875 -0.14699,0 -0.26458,0.70556 -0.26458,1.5875 0,0.88195 0.11759,1.5875 0.26458,1.5875 0.147,0 0.26459,-0.70555 0.26459,-1.5875 z m 6.44669,-3.6954 c 3.18188,-0.86304 5.83728,-1.62121 5.9009,-1.68483 0.0636,-0.0636 -0.30812,-0.37757 -0.82608,-0.69768 l -0.94173,-0.58202 -5.09145,1.36186 c -2.8003,0.74902 -5.24029,1.41033 -5.42219,1.46958 -0.70083,0.22827 -0.32689,1.59002 0.46302,1.68615 0.0728,0.009 2.73565,-0.69002 5.91753,-1.55306 z m 13.92622,0.90166 c 0,-0.22687 -0.11906,-0.3389 -0.26458,-0.24897 -0.14552,0.0899 -0.26458,0.27556 -0.26458,0.4125 0,0.13693 0.11906,0.24896 0.26458,0.24896 0.14552,0 0.26458,-0.18562 0.26458,-0.41249 z m 0,-4.35001 c 0,-2.33828 -0.0938,-3.43958 -0.29289,-3.43958 -0.16109,0 -0.22863,0.16747 -0.15008,0.37215 0.14517,0.3783 -0.5568,0.76419 -2.00692,1.10326 -1.14439,0.26758 -1.06468,0.48712 0.47923,1.31991 l 1.43965,0.77655 7.9e-4,1.65365 c 5.3e-4,0.92543 0.11744,1.65365 0.26551,1.65365 0.16282,0 0.26458,-1.32292 0.26458,-3.43959 z m -20.48182,0.86124 c -0.28455,-0.28456 -0.43562,0.11397 -0.23587,0.62225 0.18738,0.47679 0.20153,0.47762 0.2942,0.0172 0.0536,-0.26605 0.0273,-0.55379 -0.0583,-0.63941 z m 5.74637,-0.21718 c 5.9024,-1.56744 10.8429,-2.94113 12.42035,-3.45343 l 1.25677,-0.40815 v -2.35999 c 0,-1.29799 -0.0518,-2.35999 -0.11507,-2.35999 -0.0633,0 -0.44473,0.12534 -0.84765,0.27853 -0.40292,0.15319 -4.3695,1.22847 -8.81462,2.38951 -4.44512,1.16104 -8.29039,2.17482 -8.54506,2.25284 -0.39582,0.12128 -0.46302,0.48484 -0.46302,2.50529 0,1.4841 0.10405,2.36342 0.27965,2.36342 0.15381,0 2.3267,-0.54362 4.82865,-1.20803 z m 12.35249,-0.37947 c 5.3e-4,-0.0728 -0.56425,-0.44296 -1.25533,-0.82267 l -1.2565,-0.69037 -2.0294,0.55901 c -1.11618,0.30746 -2.09833,0.62794 -2.18256,0.71217 -0.0842,0.0842 0.39276,0.45336 1.05999,0.82029 l 1.21314,0.66714 2.22475,-0.55664 c 1.22361,-0.30615 2.22527,-0.61617 2.22591,-0.68893 z m -17.98995,-1.73541 c 0,-1.08956 -0.0985,-1.67455 -0.26459,-1.57189 -0.47242,0.29198 -0.3116,3.3073 0.17639,3.3073 0.0485,0 0.0882,-0.78094 0.0882,-1.73541 z m 6.54598,-3.75001 c 3.23649,-0.83932 5.88563,-1.59726 5.88698,-1.6843 0.001,-0.087 -0.4721,-0.37224 -1.0521,-0.63379 l -1.05456,-0.47554 -5.22231,1.36764 c -2.87227,0.7522 -5.30231,1.45413 -5.40009,1.55984 -0.26358,0.28494 0.22532,1.38207 0.6183,1.3875 0.18659,0.003 2.98729,-0.68203 6.22378,-1.52135 z m 13.82693,0.9875 c 0,-0.14552 -0.11906,-0.26458 -0.26458,-0.26458 -0.14552,0 -0.26458,0.11906 -0.26458,0.26458 0,0.14552 0.11906,0.26458 0.26458,0.26458 0.14552,0 0.26458,-0.11906 0.26458,-0.26458 z m 0,-6.87917 c 0,-4.47714 -0.0763,-5.82219 -0.33073,-5.82671 -0.1819,-0.003 -2.38455,0.49933 -4.89479,1.11682 -4.16939,1.02562 -4.56406,1.17257 -4.56406,1.69931 0,0.47312 0.81914,1.02714 4.56406,3.08688 l 4.56407,2.51027 0.0788,1.61713 c 0.0433,0.88943 0.19215,1.61714 0.33073,1.61714 0.15191,0 0.25195,-2.31112 0.25195,-5.82084 z m -10.10872,0.56564 c 0.0581,-1.41142 -0.009,-1.8867 -0.26458,-1.88121 -0.76358,0.0164 -10.39165,2.55257 -10.33034,2.72117 0.0364,0.10004 0.0661,0.99298 0.0661,1.9843 v 1.8024 l 5.22552,-1.36905 5.22553,-1.36905 z m 6.00127,2.77296 2.11026,-0.58989 -3.16859,-1.73453 c -1.74273,-0.95399 -3.43648,-1.8743 -3.7639,-2.04512 -0.59192,-0.30882 -0.59532,-0.29934 -0.59532,1.66327 v 1.97386 l 1.12448,0.65482 c 1.38688,0.80761 1.66364,0.81262 4.29307,0.0776 z m -6.51488,-5.59265 c 0.33692,-0.33692 0.22091,-0.92091 -0.18285,-0.92054 -0.7652,7.1e-4 -9.96765,2.30578 -9.89846,2.47942 0.0364,0.0913 0.0661,0.38256 0.0661,0.64724 0,0.43699 0.45389,0.36424 4.93633,-0.79119 2.71498,-0.69983 5.00046,-1.33655 5.07884,-1.41493 z m -18.164334,23.63239 c -0.246944,-0.24695 -0.3175,-0.17639 -0.3175,0.3175 0,0.49389 0.07056,0.56444 0.3175,0.3175 0.246944,-0.24695 0.246944,-0.38806 0,-0.635 z m -0.928865,-0.67469 c -0.06655,-0.25466 -0.121002,-0.0463 -0.121002,0.46302 0,0.50932 0.05445,0.71768 0.121002,0.46302 0.06655,-0.25466 0.06655,-0.67138 0,-0.92604 z m 28.432949,0.007 c 0.0467,-0.46933 -0.0326,-0.88605 -0.17614,-0.92604 -0.14359,-0.04 -0.29835,0.46306 -0.34392,1.11791 -0.0954,1.37106 0.38205,1.19491 0.52006,-0.19187 z m -1.18086,-0.27114 c -0.0666,-0.25467 -0.12101,-0.0463 -0.12101,0.46302 0,0.50932 0.0545,0.71768 0.12101,0.46302 0.0665,-0.25466 0.0665,-0.67138 0,-0.92604 z m -19.6478,-23.07741 c -0.49081,-0.49082 -9.185791,-5.58286 -9.404585,-5.50762 -0.121108,0.0416 1.890016,1.35074 4.469169,2.90907 4.284226,2.58856 5.638436,3.30156 4.935416,2.59855 z m 10.67062,-2.4135 c 10.89762,-2.69678 10.6569,-2.63022 10.16863,-2.81173 -0.4388,-0.16313 -20.15926,4.743 -20.15926,5.01529 0,0.11111 0.0607,0.20201 0.1349,0.20201 0.0742,0 4.50927,-1.08251 9.85573,-2.40557 z m -4.96354,0.13498 c 2.69213,-0.64475 5.11474,-1.26477 5.38356,-1.37781 0.40879,-0.1719 0.5018,-0.56134 0.56834,-2.37961 0.0686,-1.87449 0.0195,-2.17434 -0.35648,-2.17603 -0.38145,-0.002 -15.70523,3.5488 -16.683664,3.8656 -0.206989,0.067 0.910284,0.87999 2.513544,1.82896 1.62073,0.95931 3.06016,1.64317 3.28303,1.55974 0.21828,-0.0817 2.59953,-0.6761 5.29167,-1.32085 z m 10.91213,-2.68422 c 1.7088,-0.40355 3.10778,-0.79566 3.10885,-0.87135 0.001,-0.0757 -1.37119,-0.82112 -3.04945,-1.65651 -2.24275,-1.11638 -3.22437,-1.47547 -3.70416,-1.35505 -0.63356,0.15901 -0.65279,0.23404 -0.65279,2.54726 0,2.34184 0.0104,2.38069 0.59531,2.2264 0.32742,-0.0864 1.99343,-0.4872 3.70224,-0.89075 z m -13.99631,-1.9286 c 8.29456,-1.94661 10.63791,-2.57578 9.7719,-2.62368 -0.17806,-0.01 -2.35095,0.45834 -4.82865,1.04042 -2.4777,0.58209 -6.55874,1.53559 -9.06897,2.11889 -4.305853,1.00056 -6.073947,1.52671 -5.266994,1.56737 0.195471,0.01 4.422194,-0.9365 9.392714,-2.103 z m 19.09147,1.10749 c -1.65856,-1.00772 -8.94313,-4.81602 -9.03548,-4.72367 -0.14322,0.14322 8.96837,5.14498 9.43235,5.17784 0.21828,0.0155 0.0397,-0.18892 -0.39687,-0.45417 z m -24.5376,-0.81729 c 2.4361,-0.57032 6.57239,-1.53635 9.19177,-2.14673 4.53749,-1.05735 6.15138,-1.55148 5.1303,-1.57076 -0.23427,-0.004 -2.1988,0.4099 -4.36562,0.92073 -2.16683,0.51083 -6.49051,1.52377 -9.60819,2.25097 -3.117678,0.72721 -5.727132,1.38082 -5.798786,1.45247 -0.331399,0.3314 1.37378,0.0478 5.450526,-0.90668 z"
       style="fill:#28220b;stroke-width:0.264583"
       id="path1" />
  </g>
</svg>
