<?xml version="1.0" encoding="UTF-8" standalone="no"?>
<!-- Created with Inkscape (http://www.inkscape.org/) -->

<svg
   width="24mm"
   height="24mm"
   viewBox="0 0 24 24"
   version="1.1"
   id="svg1"
   inkscape:version="1.4.2 (f4327f4, 2025-05-13)"
   sodipodi:docname="drill.svg"
   xmlns:inkscape="http://www.inkscape.org/namespaces/inkscape"
   xmlns:sodipodi="http://sodipodi.sourceforge.net/DTD/sodipodi-0.dtd"
   xmlns="http://www.w3.org/2000/svg"
   xmlns:svg="http://www.w3.org/2000/svg">
  <sodipodi:namedview
     id="namedview1"
     pagecolor="#ffffff"
     bordercolor="#000000"
     borderopacity="0.25"
     inkscape:showpageshadow="2"
     inkscape:pageopacity="0.0"
     inkscape:pagecheckerboard="0"
     inkscape:deskcolor="#d1d1d1"
     inkscape:document-units="mm"
     inkscape:zoom="0.68862935"
     inkscape:cx="45.74304"
     inkscape:cy="39.9344"
     inkscape:window-width="1920"
     inkscape:window-height="991"
     inkscape:window-x="-9"
     inkscape:window-y="-9"
     inkscape:window-maximized="1"
     inkscape:current-layer="layer1" />
  <defs
     id="defs1" />
  <g
     inkscape:label="Ebene 1"
     inkscape:groupmode="layer"
     id="layer1"
      transform="translate(0 1.546077) scale(1.009061) translate(-93.133327,-138.01368)">
    <path
       d="m 107.94999,158.56638 c -0.71054,-0.25394 -1.05833,-0.95358 -1.05833,-2.12905 0,-1.54794 0.52401,-2.46537 1.82614,-3.19721 1.22787,-0.69011 1.24877,-0.78565 0.64592,-2.95396 -0.38565,-1.38711 -0.54135,-1.61066 -1.29501,-1.8594 -0.85516,-0.28222 -1.16602,-0.82426 -1.17344,-2.04603 -0.003,-0.42713 -0.1605,-0.59532 -0.55894,-0.59532 -0.30543,0 -0.9305,-0.17327 -1.38906,-0.38505 -1.51569,-0.7 -3.20245,-1.19469 -4.08691,-1.1986 -0.56014,-0.002 -1.095569,-0.2275 -1.497376,-0.6293 -0.530953,-0.53096 -0.998861,-0.65453 -3.096826,-0.81784 -2.583538,-0.20112 -3.132831,-0.41601 -3.132831,-1.22563 0,-0.76107 0.843661,-1.03524 3.185557,-1.03524 1.920131,0 2.249961,-0.074 2.948112,-0.66146 0.432353,-0.3638 1.106774,-0.66146 1.498714,-0.66146 0.39195,0 1.6032,-0.26707 2.69168,-0.59348 1.7137,-0.51391 2.52896,-0.58868 6.0801,-0.55764 6.20205,0.0542 7.15484,0.47143 7.35365,3.22007 0.15983,2.20941 -0.38828,3.35574 -1.91802,4.01147 -1.33728,0.57322 -1.36192,0.6505 -0.79907,2.50606 0.21865,0.72074 0.5203,2.07901 0.67035,3.01837 0.15121,0.94643 0.52901,2.06768 0.84738,2.51477 0.39751,0.55827 0.60682,1.31427 0.6794,2.45406 0.0948,1.48804 0.0392,1.71286 -0.57425,2.32636 -0.66096,0.66094 -0.76978,0.67857 -4.0646,0.65824 -1.862,-0.0115 -3.56406,-0.0847 -3.78234,-0.16273 z m 6.89655,-0.88403 c 0.32933,-0.17624 0.51179,-0.55356 0.51179,-1.05833 v -0.78444 h -3.70417 -3.70417 v 0.90399 c 0,0.4972 0.14883,0.96405 0.33073,1.03745 0.63216,0.25508 6.05719,0.17356 6.56582,-0.0987 z m 0.51179,-2.98199 c 0,-0.19001 -0.29766,-0.74892 -0.66146,-1.24203 -0.38047,-0.51571 -0.66146,-1.25567 -0.66146,-1.74194 0,-0.46497 -0.28075,-1.92633 -0.6239,-3.24749 -0.71911,-2.76865 -0.5773,-3.42917 0.83501,-3.88934 0.47234,-0.1539 1.04391,-0.46494 1.27016,-0.6912 0.92504,-0.92504 0.66569,-4.15335 -0.3696,-4.6007 -0.59719,-0.25805 -8.57664,-0.49097 -9.43545,-0.27542 -0.66021,0.1657 -0.67205,0.21261 -0.67205,2.66217 0,2.27677 0.0511,2.52929 0.58804,2.90538 0.32341,0.22653 1.06756,0.4137 1.65364,0.41592 1.43763,0.005 1.76574,0.26973 2.01447,1.62244 0.11647,0.6334 0.51389,2.21781 0.88316,3.5209 0.6102,2.15331 0.63513,2.42463 0.27349,2.97657 -0.21886,0.33401 -0.56713,0.60729 -0.77394,0.60729 -0.20681,0 -0.71008,0.2939 -1.11838,0.6531 l -0.74236,0.6531 3.77031,0.008 c 2.92995,0.007 3.77032,-0.0686 3.77032,-0.33711 z M 111.38958,142.875 c 0,-0.14619 0.6808,-0.26277 1.52135,-0.26054 1.07987,0.003 1.40618,0.0785 1.12448,0.26054 -0.52401,0.33864 -2.64583,0.33864 -2.64583,0 z m -0.13229,-1.32292 c 0.0899,-0.14552 0.74478,-0.26458 1.4552,-0.26458 0.71043,0 1.36528,0.11906 1.45521,0.26458 0.10221,0.16537 -0.44343,0.26458 -1.45521,0.26458 -1.01178,0 -1.55741,-0.0992 -1.4552,-0.26458 z m 0.13229,-1.05833 c 0,-0.14552 0.59531,-0.26459 1.32291,-0.26459 0.72761,0 1.32292,0.11907 1.32292,0.26459 0,0.14552 -0.59531,0.26458 -1.32292,0.26458 -0.7276,0 -1.32291,-0.11906 -1.32291,-0.26458 z m -2.88449,6.30363 c -0.16921,-0.82733 -0.82311,-1.39086 -0.81607,-0.70329 0.008,0.76273 0.33927,1.54341 0.65529,1.54341 0.23332,0 0.28131,-0.25077 0.16078,-0.84012 z m -3.99468,-5.11301 c 0,-2.35912 -0.0311,-2.41066 -1.25677,-2.08219 -0.54843,0.14697 -0.59531,0.31166 -0.59531,2.091 0,2.00988 0.0955,2.17851 1.25677,2.21926 0.5723,0.0201 0.59531,-0.066 0.59531,-2.22807 z m -2.64583,-0.0346 v -1.75441 l -0.95883,0.1556 c -1.218959,0.19781 -1.23,0.2116 -1.23,1.53643 0,1.2201 0.51825,1.81679 1.57794,1.81679 0.57671,0 0.61089,-0.0982 0.61089,-1.75441 z m -6.032503,-0.15059 c -0.169775,-0.16977 -0.396513,-0.22084 -0.503865,-0.11349 -0.107352,0.10735 -0.02349,0.3013 0.186365,0.43099 0.494133,0.30539 0.717261,0.0823 0.3175,-0.3175 z m 1.534583,0.18521 c 0,-0.21828 -0.178594,-0.39687 -0.396875,-0.39687 -0.413165,0 -0.524925,0.31292 -0.220485,0.61736 0.304438,0.30444 0.61736,0.19268 0.61736,-0.22049 z m 1.322917,0 c 0,-0.21828 -0.178594,-0.39687 -0.396875,-0.39687 -0.688568,0 -0.465426,0.52144 0.330729,0.77286 0.03638,0.0115 0.06615,-0.15771 0.06615,-0.37599 z"
       style="fill:#2b1e17;fill-opacity:1;stroke-width:0.264583"
       id="path1" />
  </g>
</svg>

