<?xml version="1.0" encoding="UTF-8" standalone="no"?>
<!-- Created with Inkscape (http://www.inkscape.org/) -->

<svg
   width="21.224081mm"
   height="24.304041mm"
   viewBox="0 0 21.224081 24.304041"
   version="1.1"
   id="svg1"
   inkscape:version="1.4.2 (f4327f4, 2025-05-13)"
   sodipodi:docname="dust_mask.svg"
   xmlns:inkscape="http://www.inkscape.org/namespaces/inkscape"
   xmlns:sodipodi="http://sodipodi.sourceforge.net/DTD/sodipodi-0.dtd"
   xmlns="http://www.w3.org/2000/svg"
   xmlns:svg="http://www.w3.org/2000/svg">
  <sodipodi:namedview
     id="namedview1"
     pagecolor="#ffffff"
     bordercolor="#000000"
     borderopacity="0.25"
     inkscape:showpageshadow="2"
     inkscape:pageopacity="0.0"
     inkscape:pagecheckerboard="0"
     inkscape:deskcolor="#d1d1d1"
     inkscape:document-units="mm"
     inkscape:zoom="0.68862935"
     inkscape:cx="39.9344"
     inkscape:cy="45.74304"
     inkscape:window-width="1920"
     inkscape:window-height="991"
     inkscape:window-x="-9"
     inkscape:window-y="-9"
     inkscape:window-maximized="1"
     inkscape:current-layer="layer1" />
  <defs
     id="defs1" />
  <g
     inkscape:label="Ebene 1"
     inkscape:groupmode="layer"
     id="layer1"
     transform="translate(-94.347679,-136.29804)">
    <path
       d="m 97.203905,160.01298 c -1.084337,-0.83688 -1.368637,-1.21221 -2.140075,-2.82531 -0.478184,-0.99989 -0.692311,-1.90141 -0.711885,-2.99716 -0.02553,-1.42867 0.04315,-1.6308 0.777179,-2.28766 l 0.805172,-0.72052 -0.523046,-1.1771 c -0.731481,-1.64618 -0.904457,-5.55738 -0.322903,-7.30128 1.56882,-4.7044 7.333803,-7.4409 12.720103,-6.03795 4.80707,1.25208 7.36274,4.49625 7.39246,9.384 0.0114,1.8727 -0.0993,2.49242 -0.66141,3.70417 l -0.67507,1.4552 0.73722,0.60739 c 0.9237,0.76101 1.19328,2.08382 0.78507,3.85226 -0.57905,2.50862 -2.66158,4.93306 -4.23735,4.93306 -0.31604,0 -1.03056,-0.2326 -1.58782,-0.51689 -1.00873,-0.51462 -1.01946,-0.5145 -2.43686,0.0267 -1.60902,0.61435 -3.23338,0.55269 -4.77232,-0.18118 -0.88871,-0.4238 -0.97543,-0.41889 -2.02055,0.11429 -1.39467,0.71151 -2.174905,0.70352 -3.127915,-0.032 z m 2.441733,-0.87479 c 1.029322,-1.57094 -0.281389,-5.42126 -2.23362,-6.56142 -2.50249,-1.46153 -3.235534,2.14866 -1.07415,5.29012 1.376923,2.00129 2.537259,2.44725 3.30777,1.2713 z M 98.557286,158.75 c 0.08994,-0.14552 0.216027,-0.26458 0.280199,-0.26458 0.06417,0 0.116676,0.11906 0.116676,0.26458 0,0.14552 -0.12609,0.26458 -0.280199,0.26458 -0.15411,0 -0.206614,-0.11906 -0.116676,-0.26458 z m -1.190625,-0.2802 c 0,-0.15411 0.119062,-0.20661 0.264583,-0.11668 0.145521,0.0899 0.264583,0.21603 0.264583,0.2802 0,0.0642 -0.119062,0.11668 -0.264583,0.11668 -0.145521,0 -0.264583,-0.12609 -0.264583,-0.2802 z m -0.79375,-0.77813 c 0,-0.14553 0.119062,-0.26459 0.264583,-0.26459 0.145521,0 0.264583,0.11906 0.264583,0.26459 0,0.14552 -0.119062,0.26458 -0.264583,0.26458 -0.145521,0 -0.264583,-0.11906 -0.264583,-0.26458 z m 1.322916,0 c 0,-0.14553 0.119063,-0.26459 0.264584,-0.26459 0.14552,0 0.264583,0.11906 0.264583,0.26459 0,0.14552 -0.119063,0.26458 -0.264583,0.26458 -0.145521,0 -0.264584,-0.11906 -0.264584,-0.26458 z m 1.201926,0.0183 c -0.08373,-0.13547 -0.03122,-0.32109 0.116676,-0.41249 0.147894,-0.0914 0.268898,0.0194 0.268898,0.2463 0,0.46475 -0.158766,0.53318 -0.385574,0.16619 z m -0.143592,-1.35682 c 0,-0.15411 0.119062,-0.20661 0.264583,-0.11667 0.145521,0.0899 0.264583,0.21602 0.264583,0.2802 0,0.0642 -0.119062,0.11667 -0.264583,0.11667 -0.145521,0 -0.264583,-0.12609 -0.264583,-0.2802 z m -0.529167,-1.04271 c 0,-0.14553 0.119062,-0.26459 0.264583,-0.26459 0.145521,0 0.264584,0.11906 0.264584,0.26459 0,0.14552 -0.119063,0.26458 -0.264584,0.26458 -0.145521,0 -0.264583,-0.11906 -0.264583,-0.26458 z m -0.529167,-1.05834 c 0,-0.14552 0.119063,-0.26458 0.264584,-0.26458 0.14552,0 0.264583,0.11906 0.264583,0.26458 0,0.14552 -0.119063,0.26459 -0.264583,0.26459 -0.145521,0 -0.264584,-0.11907 -0.264584,-0.26459 z m -0.912074,-0.50657 c -0.08519,-0.13784 -0.04211,-0.32031 0.09573,-0.4055 0.13784,-0.0852 0.320318,-0.0421 0.405506,0.0957 0.08519,0.13784 0.04211,0.32032 -0.09573,0.40551 -0.13784,0.0852 -0.320318,0.0421 -0.405506,-0.0957 z m -0.940009,-0.55176 c 0,-0.14552 0.12609,-0.26458 0.280199,-0.26458 0.154109,0 0.206613,0.11906 0.116676,0.26458 -0.08994,0.14552 -0.216027,0.26458 -0.280199,0.26458 -0.06417,0 -0.116676,-0.11906 -0.116676,-0.26458 z m 10.857546,6.18298 c 0.84434,-0.33783 1.03271,-0.52464 0.86713,-0.85989 -0.11634,-0.23557 -0.20462,-1.12138 -0.19616,-1.96848 0.014,-1.40406 -0.0144,-1.48328 -0.32193,-0.89642 -0.75979,1.45012 -3.24283,1.58494 -4.37762,0.23769 l -0.61126,-0.72571 v 1.99148 1.99147 l 0.92604,0.3158 c 1.29941,0.44312 2.4586,0.4163 3.7138,-0.0859 z m 5.98018,-0.75462 c 1.87613,-1.95803 2.52212,-5.48988 1.13948,-6.22985 -0.68583,-0.36705 -2.17952,0.32452 -2.90674,1.3458 -1.23775,1.73825 -1.6717,4.38085 -0.90026,5.48223 0.62607,0.89384 1.40536,0.71908 2.66752,-0.59818 z m -0.16898,-0.66586 c 0,-0.14552 0.12609,-0.26458 0.2802,-0.26458 0.15411,0 0.20662,0.11906 0.11668,0.26458 -0.0899,0.14552 -0.21603,0.26458 -0.2802,0.26458 -0.0642,0 -0.11668,-0.11906 -0.11668,-0.26458 z m -2.24895,-0.26458 c -0.0899,-0.14553 -0.0374,-0.26459 0.11667,-0.26459 0.15411,0 0.2802,0.11906 0.2802,0.26459 0,0.14552 -0.0525,0.26458 -0.11668,0.26458 -0.0642,0 -0.19026,-0.11906 -0.28019,-0.26458 z m 2.77812,-0.52917 c 0,-0.14552 0.12609,-0.26458 0.2802,-0.26458 0.15411,0 0.20661,0.11906 0.11668,0.26458 -0.0899,0.14552 -0.21603,0.26458 -0.2802,0.26458 -0.0642,0 -0.11668,-0.11906 -0.11668,-0.26458 z m -0.79375,-0.80937 c 0,-0.15411 0.11906,-0.20661 0.26458,-0.11667 0.14552,0.0899 0.26459,0.21602 0.26459,0.2802 0,0.0642 -0.11907,0.11667 -0.26459,0.11667 -0.14552,0 -0.26458,-0.12609 -0.26458,-0.2802 z m 1.19063,-0.24896 c 0.0899,-0.14553 0.21602,-0.26459 0.28019,-0.26459 0.0642,0 0.11668,0.11906 0.11668,0.26459 0,0.14552 -0.12609,0.26458 -0.2802,0.26458 -0.15411,0 -0.20661,-0.11906 -0.11667,-0.26458 z m -2.91042,-0.26459 c -0.0899,-0.14552 -0.0374,-0.26458 0.11667,-0.26458 0.15411,0 0.2802,0.11906 0.2802,0.26458 0,0.14552 -0.0525,0.26459 -0.11667,0.26459 -0.0642,0 -0.19026,-0.11907 -0.2802,-0.26459 z m 2.24896,-0.52916 c 0,-0.14553 0.11906,-0.26459 0.26458,-0.26459 0.14552,0 0.26458,0.11906 0.26458,0.26459 0,0.14552 -0.11906,0.26458 -0.26458,0.26458 -0.14552,0 -0.26458,-0.11906 -0.26458,-0.26458 z m 0.93734,-0.24631 c -0.0837,-0.13546 -0.0312,-0.32108 0.11668,-0.41249 0.14789,-0.0914 0.26889,0.0194 0.26889,0.2463 0,0.46475 -0.15876,0.53318 -0.38557,0.16619 z m -2.65713,-0.54744 c 0.0899,-0.14553 0.21602,-0.26459 0.28019,-0.26459 0.0642,0 0.11668,0.11906 0.11668,0.26459 0,0.14552 -0.12609,0.26458 -0.2802,0.26458 -0.15411,0 -0.20661,-0.11906 -0.11667,-0.26458 z m 1.71979,-0.26459 c 0,-0.14552 0.12609,-0.26458 0.2802,-0.26458 0.15411,0 0.20661,0.11906 0.11667,0.26458 -0.0899,0.14552 -0.21602,0.26459 -0.2802,0.26459 -0.0642,0 -0.11667,-0.11907 -0.11667,-0.26459 z m -0.78845,-0.66785 c 0.18408,-0.2218 0.38917,-0.34878 0.45577,-0.28219 0.18349,0.18349 -0.18932,0.68546 -0.50908,0.68546 -0.17545,0 -0.15538,-0.15181 0.0533,-0.40327 z m 1.18799,-0.65938 c 0.0914,-0.14789 0.27702,-0.2004 0.41249,-0.11668 0.36699,0.22681 0.29856,0.38558 -0.16619,0.38558 -0.22687,0 -0.3377,-0.12101 -0.2463,-0.2689 z m -11.83038,3.67356 c -0.19577,-2.7065 -2.072991,-5.25674 -3.869456,-5.25674 -0.638339,0 -0.618866,0.0437 0.412649,0.92666 1.537933,1.31642 2.452227,3.27447 2.452227,5.25171 v 1.57656 l 0.55623,-0.50339 c 0.47044,-0.42574 0.53959,-0.73339 0.44835,-1.9948 z m 8.67866,-2.52444 c 0.43378,-0.7024 1.16636,-1.51522 1.62795,-1.80626 1.06232,-0.66981 1.09198,-1.03866 0.067,-0.83367 -1.31638,0.26328 -2.06144,0.93581 -2.90346,2.62084 -0.92151,1.84412 -1.04352,3.44217 -0.33882,4.43781 0.46208,0.65286 0.46332,0.65036 0.61081,-1.24372 0.11512,-1.47834 0.32215,-2.18023 0.93649,-3.175 z m -4.10406,1.69105 c 0.51274,-0.39367 1.0354,-1.33869 1.0354,-1.87212 0,-0.21668 -0.30824,-0.76029 -0.68497,-1.20802 -0.51177,-0.6082 -0.90725,-0.81405 -1.56398,-0.81405 -0.65673,0 -1.05222,0.20585 -1.56399,0.81405 -0.37673,0.44773 -0.68497,0.91623 -0.68497,1.04111 0,0.52842 0.58572,1.74157 0.98852,2.04745 0.55093,0.41836 1.92421,0.41369 2.47399,-0.008 z m -2.1396,-0.19002 c -0.20985,-0.1297 -0.29371,-0.32364 -0.18636,-0.431 0.10735,-0.10735 0.33409,-0.0563 0.50386,0.1135 0.39977,0.39976 0.17664,0.62289 -0.3175,0.3175 z m 1.10795,-0.0165 c 0.0637,-0.191 0.27202,-0.39935 0.46302,-0.46302 0.19843,-0.0661 0.29765,0.0331 0.23151,0.23151 -0.0637,0.191 -0.27203,0.39936 -0.46302,0.46302 -0.19844,0.0661 -0.29766,-0.0331 -0.23151,-0.23151 z m -1.9017,-1.04179 c 0,-0.14553 0.11907,-0.26459 0.26459,-0.26459 0.14552,0 0.26458,0.11906 0.26458,0.26459 0,0.14552 -0.11906,0.26458 -0.26458,0.26458 -0.14552,0 -0.26459,-0.11906 -0.26459,-0.26458 z m 1.05834,-0.0156 c 0,-0.15411 0.11906,-0.20662 0.26458,-0.11668 0.14552,0.0899 0.26458,0.21603 0.26458,0.2802 0,0.0642 -0.11906,0.11667 -0.26458,0.11667 -0.14552,0 -0.26458,-0.12609 -0.26458,-0.28019 z m 1.85208,0.0156 c 0,-0.14553 0.11906,-0.26459 0.26458,-0.26459 0.14552,0 0.26459,0.11906 0.26459,0.26459 0,0.14552 -0.11907,0.26458 -0.26459,0.26458 -0.14552,0 -0.26458,-0.11906 -0.26458,-0.26458 z m -0.92604,-0.52917 c -0.0899,-0.14552 -0.0445,-0.26458 0.10106,-0.26458 0.14552,0 0.33817,0.11906 0.42811,0.26458 0.0899,0.14552 0.0444,0.26458 -0.10107,0.26458 -0.14552,0 -0.33816,-0.11906 -0.4281,-0.26458 z m -1.98438,-0.38126 c 0,-0.22687 0.11907,-0.41249 0.26459,-0.41249 0.14552,0 0.26458,0.11203 0.26458,0.24897 0,0.13693 -0.11906,0.32255 -0.26458,0.41249 -0.14552,0.0899 -0.26459,-0.0221 -0.26459,-0.24897 z m 2.78943,-0.12963 c -0.18073,-0.29242 0.23664,-0.60818 0.48096,-0.36386 0.25156,0.25156 0.20468,0.61017 -0.0798,0.61017 -0.13693,0 -0.31747,-0.11084 -0.40119,-0.24631 z m -2.12797,-0.81203 c 0.0899,-0.14552 0.27556,-0.26458 0.41249,-0.26458 0.13694,0 0.24897,0.11906 0.24897,0.26458 0,0.14552 -0.18562,0.26459 -0.41249,0.26459 -0.22687,0 -0.33891,-0.11907 -0.24897,-0.26459 z m 1.19063,-0.12399 c 0,-0.23669 0.15512,-0.32904 0.39687,-0.23627 0.21828,0.0838 0.39688,0.25862 0.39688,0.38857 0,0.12995 -0.1786,0.23628 -0.39688,0.23628 -0.21828,0 -0.39687,-0.17486 -0.39687,-0.38858 z m -2.38578,-0.26743 c 0.65236,-0.78605 1.86535,-1.25333 2.79884,-1.07821 1.19267,0.22375 2.22892,1.49103 2.24596,2.7467 l 0.0132,0.97189 0.54186,-1.11707 c 0.69044,-1.42335 2.40012,-2.98397 3.269,-2.98397 0.36338,0 0.6607,-0.10848 0.6607,-0.24107 0,-0.31611 -1.18586,-1.26465 -2.94824,-2.35821 -0.77956,-0.48372 -1.80689,-1.40482 -2.28294,-2.0469 -1.45793,-1.96638 -2.67616,-1.86237 -4.34341,0.37084 -0.56227,0.75314 -1.47785,1.53035 -2.35357,1.99789 -1.49351,0.79736 -2.623926,1.6844 -2.623926,2.05899 0,0.12015 0.297312,0.21846 0.660696,0.21846 0.87969,0 2.63602,1.61411 3.23267,2.9709 l 0.47226,1.07394 0.14704,-1.07348 c 0.0809,-0.59042 0.31032,-1.27023 0.50989,-1.5107 z m -1.04545,-2.34465 c -0.005,-0.12239 0.4869,-0.92856 1.09221,-1.79149 1.71007,-2.43788 2.78795,-2.4262 4.46841,0.0484 1.26148,1.85761 1.00784,2.13528 -0.28498,0.31198 -0.49012,-0.69122 -1.01632,-1.34424 -1.16933,-1.45115 -0.65016,-0.45428 -1.47112,-0.17025 -2.18516,0.75599 -1.26506,1.64105 -1.91245,2.35757 -1.92115,2.12628 z m -4.366522,-0.90473 c -0.0873,-0.25313 -0.52578,-0.87696 -0.974397,-1.38628 l -0.815663,-0.92604 0.138753,0.94099 c 0.07631,0.51754 0.3317,1.40277 0.567523,1.96717 0.42636,1.02043 0.431054,1.02293 0.835641,0.4453 0.22378,-0.31949 0.335444,-0.788 0.248143,-1.04114 z m 16.382332,0.75818 c 0.41667,-0.80575 0.97037,-2.93821 0.76292,-2.93821 -0.14727,0 -1.45301,1.51392 -1.77001,2.05222 -0.19114,0.32456 0.23491,1.65195 0.53021,1.65195 0.0444,0 0.25903,-0.34469 0.47688,-0.76596 z m -16.556479,-2.88574 c -0.743074,-0.97475 -1.39651,-1.82187 -1.452075,-1.88251 -0.05557,-0.0606 -0.100145,0.11797 -0.09906,0.39688 0.0024,0.62692 2.334527,3.60872 2.663431,3.40544 0.131315,-0.0812 -0.369216,-0.94507 -1.112293,-1.91981 z m 17.210979,-1.17695 c 0.14212,-0.40018 0.17529,-0.7198 0.0737,-0.71027 -0.36324,0.0341 -2.9223,3.53832 -2.76722,3.78924 0.20457,0.331 2.35585,-2.12815 2.6935,-3.07897 z m -14.16742,1.94273 c 0.41811,-0.27565 1.43428,-1.22737 2.25814,-2.11493 1.33613,-1.43942 1.60859,-1.61374 2.52224,-1.61374 0.9225,0 1.19879,0.18263 2.78006,1.83771 1.91797,2.00749 3.05278,2.65803 3.55214,2.03629 0.16393,-0.20411 0.8685,-1.09705 1.56573,-1.98433 l 1.26768,-1.61324 -1.10717,-1.20113 c -2.17041,-2.35461 -6.26922,-3.65723 -9.71648,-3.08793 -2.90975,0.48054 -5.749635,1.98631 -6.816205,3.6141 -0.421439,0.6432 -0.409493,0.71562 0.295471,1.79119 1.033804,1.57728 2.062546,2.79942 2.373606,2.81983 0.145521,0.01 0.606677,-0.20817 1.024788,-0.48382 z m -0.527374,-7.58325 c 4.210264,-1.92324 9.970234,-1.21632 13.095564,1.60723 1.18166,1.06756 1.36779,0.98403 0.60275,-0.27047 -1.74204,-2.85658 -5.51274,-4.61866 -9.15558,-4.27849 -3.19821,0.29866 -5.606904,1.60957 -7.334509,3.99174 -1.067649,1.47217 -0.924864,1.7027 0.344379,0.55602 0.600999,-0.54297 1.702327,-1.26568 2.447396,-1.60603 z"
       style="fill:#2b1e17;fill-opacity:1;stroke-width:0.264583"
       id="path1" />
  </g>
</svg>
