<?xml version="1.0" encoding="UTF-8" standalone="no"?>
<!-- Created with Inkscape (http://www.inkscape.org/) -->

<svg
   width="22.357288mm"
   height="26.259302mm"
   viewBox="0 0 22.357288 26.259302"
   version="1.1"
   id="svg1"
   inkscape:version="1.4.2 (f4327f4, 2025-05-13)"
   sodipodi:docname="frame.svg"
   xmlns:inkscape="http://www.inkscape.org/namespaces/inkscape"
   xmlns:sodipodi="http://sodipodi.sourceforge.net/DTD/sodipodi-0.dtd"
   xmlns="http://www.w3.org/2000/svg"
   xmlns:svg="http://www.w3.org/2000/svg">
  <sodipodi:namedview
     id="namedview1"
     pagecolor="#ffffff"
     bordercolor="#000000"
     borderopacity="0.25"
     inkscape:showpageshadow="2"
     inkscape:pageopacity="0.0"
     inkscape:pagecheckerboard="0"
     inkscape:deskcolor="#d1d1d1"
     inkscape:document-units="mm"
     inkscape:zoom="0.68862935"
     inkscape:cx="42.83872"
     inkscape:cy="50.09952"
     inkscape:window-width="1920"
     inkscape:window-height="991"
     inkscape:window-x="-9"
     inkscape:window-y="-9"
     inkscape:window-maximized="1"
     inkscape:current-layer="layer1" />
  <defs
     id="defs1" />
  <g
     inkscape:label="Ebene 1"
     inkscape:groupmode="layer"
     id="layer1"
     transform="translate(-93.927081,-135.37119)">
    <path
       d="m 101.98594,159.69856 c -3.935077,-1.04935 -7.358124,-1.98597 -7.606771,-2.08139 -0.415089,-0.15928 -0.452088,-0.97217 -0.452088,-9.93224 v -9.75876 l 3.343497,-1.27749 3.343492,-1.27749 6.24765,1.14973 c 3.43621,0.63234 6.96203,1.27983 7.83515,1.43886 l 1.5875,0.28913 v 10.03481 10.03481 l -2.91041,1.66782 c -1.60073,0.9173 -3.20808,1.65709 -3.57188,1.64397 -0.3638,-0.0131 -3.88107,-0.88241 -7.81614,-1.93176 z m 7.81614,-8.48919 c 0,-6.43819 -0.0929,-9.92187 -0.26458,-9.92187 -0.1716,0 -0.26459,3.42488 -0.26459,9.74548 0,8.59842 0.0655,10.09827 0.44098,10.09827 0.0485,0 0.0882,-4.46485 0.0882,-9.92188 z m -1.05833,9.29349 c 0,-0.20009 -0.38696,-0.43995 -0.8599,-0.53303 -0.47294,-0.0931 -3.3988,-0.83335 -6.50191,-1.64505 -4.90924,-1.28414 -6.330793,-1.53752 -5.832974,-1.0397 0.06742,0.0674 3.034062,0.88963 6.592534,1.82713 3.55848,0.9375 6.49972,1.71578 6.5361,1.7295 0.0364,0.0137 0.0662,-0.13876 0.0662,-0.33885 z m 4.49791,-1.18582 2.51355,-1.51362 0.0595,-8.58869 c 0.0327,-4.72378 -0.002,-8.97205 -0.0766,-9.44061 l -0.13613,-0.85192 -1.37857,0.61529 c -0.75822,0.33841 -1.94412,0.88372 -2.63534,1.21179 l -1.25677,0.59649 v 9.76045 c 0,5.36824 0.0893,9.75235 0.19843,9.74244 0.10915,-0.01 1.32954,-0.69912 2.71198,-1.53162 z m -2.11666,0.50691 c 0,-0.13694 0.11906,-0.32256 0.26458,-0.41249 0.14552,-0.0899 0.26458,0.0221 0.26458,0.24896 0,0.22687 -0.11906,0.41249 -0.26458,0.41249 -0.14552,0 -0.26458,-0.11203 -0.26458,-0.24896 z m 3.43958,-1.83647 c 0,-0.14552 0.11906,-0.33817 0.26458,-0.42811 0.14552,-0.0899 0.26459,-0.0445 0.26459,0.10107 0,0.14552 -0.11907,0.33816 -0.26459,0.4281 -0.14552,0.0899 -0.26458,0.0445 -0.26458,-0.10106 z m -3.43958,-16.4354 c 0,-0.14552 0.11906,-0.26458 0.26458,-0.26458 0.14552,0 0.26458,0.11906 0.26458,0.26458 0,0.14552 -0.11906,0.26458 -0.26458,0.26458 -0.14552,0 -0.26458,-0.11906 -0.26458,-0.26458 z m 3.43958,-1.5875 c 0,-0.14552 0.11906,-0.26458 0.26458,-0.26458 0.14552,0 0.26459,0.11906 0.26459,0.26458 0,0.14552 -0.11907,0.26458 -0.26459,0.26458 -0.14552,0 -0.26458,-0.11906 -0.26458,-0.26458 z m -5.82083,17.73728 v -2.10647 l -0.99219,-0.2631 c -3.38048,-0.89641 -6.57051,-1.53198 -6.92723,-1.38016 -0.22823,0.0971 -1.426989,0.69745 -2.663916,1.33403 l -2.248958,1.15743 5.423954,1.41147 c 2.98318,0.77631 5.78115,1.52122 6.21771,1.65536 0.43656,0.13414 0.88305,0.25604 0.99219,0.2709 0.10914,0.0149 0.19844,-0.9209 0.19844,-2.07946 z m -13.758336,-9.94769 c 0,-6.20484 -0.09009,-9.35264 -0.264583,-9.2448 -0.16822,0.10397 -0.264584,3.53053 -0.264584,9.40833 0,5.98681 0.09324,9.2448 0.264584,9.2448 0.171428,0 0.264583,-3.3125 0.264583,-9.40833 z m 5.820836,-0.63042 c 0,-5.79999 -0.0388,-6.34117 -0.46302,-6.46615 -0.25467,-0.075 -1.236931,-0.26781 -2.182816,-0.42844 -0.945885,-0.16062 -1.928151,-0.35341 -2.182813,-0.42843 -0.433964,-0.12783 -0.46302,0.37958 -0.46302,8.08593 v 8.22233 l 2.645833,-1.32774 2.645836,-1.32774 z m -4.497919,5.92209 c 0,-0.22687 0.121004,-0.3377 0.268898,-0.2463 0.147894,0.0914 0.200401,0.27702 0.116676,0.41249 -0.226809,0.36699 -0.385574,0.29856 -0.385574,-0.16619 z m 3.321259,-1.41699 c -0.08519,-0.13784 -0.04211,-0.32032 0.09573,-0.40551 0.13784,-0.0852 0.32031,-0.0421 0.4055,0.0957 0.0852,0.13784 0.0421,0.32031 -0.0957,0.4055 -0.137841,0.0852 -0.320319,0.0421 -0.405506,-0.0957 z m -3.321259,-0.55177 c 0,-0.14552 0.119062,-0.26458 0.264583,-0.26458 0.145521,0 0.264583,0.11906 0.264583,0.26458 0,0.14552 -0.119062,0.26458 -0.264583,0.26458 -0.145521,0 -0.264583,-0.11906 -0.264583,-0.26458 z m 3.307291,-1.5875 c 0.08994,-0.14552 0.216027,-0.26458 0.280199,-0.26458 0.06417,0 0.116679,0.11906 0.116679,0.26458 0,0.14552 -0.126093,0.26458 -0.280202,0.26458 -0.154109,0 -0.206613,-0.11906 -0.116676,-0.26458 z m -3.307291,-0.41249 c 0,-0.22687 0.121004,-0.3377 0.268898,-0.2463 0.147894,0.0914 0.200401,0.27702 0.116676,0.41249 -0.226809,0.36699 -0.385574,0.29856 -0.385574,-0.16619 z m 3.321259,-1.41699 c -0.08519,-0.13784 -0.04211,-0.32032 0.09573,-0.40551 0.13784,-0.0852 0.32031,-0.0421 0.4055,0.0957 0.0852,0.13784 0.0421,0.32031 -0.0957,0.4055 -0.137841,0.0852 -0.320319,0.0421 -0.405506,-0.0957 z m -3.439584,-0.52917 c -0.08519,-0.13784 -0.04211,-0.32032 0.09573,-0.40551 0.13784,-0.0852 0.320317,-0.0421 0.405505,0.0957 0.08519,0.13784 0.04211,0.32032 -0.09573,0.40551 -0.13784,0.0852 -0.320318,0.0421 -0.405505,-0.0957 z m 3.425616,-1.6101 c 0.08994,-0.14552 0.216027,-0.26458 0.280199,-0.26458 0.06417,0 0.116679,0.11906 0.116679,0.26458 0,0.14552 -0.126093,0.26458 -0.280202,0.26458 -0.154109,0 -0.206613,-0.11906 -0.116676,-0.26458 z m -3.307291,-0.52917 c 0,-0.14552 0.126089,-0.26458 0.280199,-0.26458 0.154109,0 0.206613,0.11906 0.116676,0.26458 -0.08994,0.14553 -0.216027,0.26459 -0.280199,0.26459 -0.06417,0 -0.116676,-0.11906 -0.116676,-0.26459 z m 3.318592,-1.30463 c -0.08373,-0.13547 -0.03122,-0.32109 0.116676,-0.41249 0.147894,-0.0914 0.268901,0.0194 0.268901,0.2463 0,0.46475 -0.158769,0.53318 -0.385577,0.16619 z m 9.116827,5.02663 c 0,-5.80202 -0.0388,-6.34365 -0.46302,-6.46927 -0.72447,-0.21451 -6.13397,-1.22148 -6.56187,-1.22148 -0.3239,0 -0.38345,0.95765 -0.38345,6.1672 v 6.1672 l 3.24115,0.80968 c 1.78263,0.44532 3.4495,0.82524 3.70417,0.84426 0.42903,0.032 0.46302,-0.43016 0.46302,-6.29759 z m -0.0639,-7.22104 c -0.10712,-0.32136 -12.882854,-2.95696 -13.130938,-2.70888 -0.305419,0.30542 0.617106,0.55566 6.382778,1.73135 7.00557,1.42852 6.89306,1.41222 6.74816,0.97753 z m 3.82356,-1.72648 c 2.33958,-1.00329 2.81903,-1.38906 1.72635,-1.38906 -0.32968,0 -3.49551,-0.53261 -7.03518,-1.18358 l -6.43577,-1.18358 -2.291375,0.88495 c -1.260255,0.48672 -2.46997,0.94594 -2.688251,1.02048 -0.352777,0.12048 -0.352777,0.15069 0,0.27187 0.739836,0.25414 12.827076,2.50757 13.621406,2.53945 0.43401,0.0174 1.83028,-0.41482 3.10282,-0.96053 z"
       style="fill:#2b1e17;fill-opacity:1;stroke-width:0.264583"
       id="path1" />
  </g>
</svg>
