<?xml version="1.0" encoding="UTF-8" standalone="no"?>
<!-- Created with Inkscape (http://www.inkscape.org/) -->

<svg
   width="16.474634mm"
   height="25.861917mm"
   viewBox="0 0 16.474634 25.861917"
   version="1.1"
   id="svg1"
   inkscape:version="1.4.2 (f4327f4, 2025-05-13)"
   sodipodi:docname="furniture_oil.svg"
   xmlns:inkscape="http://www.inkscape.org/namespaces/inkscape"
   xmlns:sodipodi="http://sodipodi.sourceforge.net/DTD/sodipodi-0.dtd"
   xmlns="http://www.w3.org/2000/svg"
   xmlns:svg="http://www.w3.org/2000/svg">
  <sodipodi:namedview
     id="namedview1"
     pagecolor="#ffffff"
     bordercolor="#000000"
     borderopacity="0.25"
     inkscape:showpageshadow="2"
     inkscape:pageopacity="0.0"
     inkscape:pagecheckerboard="0"
     inkscape:deskcolor="#d1d1d1"
     inkscape:document-units="mm"
     inkscape:zoom="0.68862935"
     inkscape:cx="31.22144"
     inkscape:cy="48.64736"
     inkscape:window-width="1920"
     inkscape:window-height="991"
     inkscape:window-x="-9"
     inkscape:window-y="-9"
     inkscape:window-maximized="1"
     inkscape:current-layer="layer1" />
  <defs
     id="defs1" />
  <g
     inkscape:label="Ebene 1"
     inkscape:groupmode="layer"
     id="layer1"
     transform="translate(-96.806166,-135.48227)">
    <path
       d="m 100.80625,160.99868 c -2.134792,-0.4827 -3.015307,-0.83993 -3.563555,-1.44574 -0.375759,-0.41521 -0.427921,-1.61668 -0.4361,-10.04481 -0.007,-7.25524 0.07039,-9.66919 0.319776,-9.96969 0.51562,-0.62128 1.311568,-0.97998 2.886129,-1.30064 1.27282,-0.25922 1.46537,-0.38168 1.53627,-0.97708 0.12619,-1.05961 0.89856,-1.56052 2.65128,-1.71945 2.79685,-0.25361 4.27912,0.31368 4.27912,1.6377 0,0.52585 0.20359,0.66357 1.38906,0.93959 1.56147,0.36356 3.36802,1.26915 3.38397,1.6963 0.006,0.15511 0.0146,4.62062 0.0196,9.92336 l 0.009,9.64135 -0.61242,0.46195 c -1.72645,1.30226 -8.35911,1.94928 -11.86225,1.15716 z m 7.91583,-0.69577 c 1.82296,-0.31317 3.99042,-1.1754 3.99042,-1.58743 0,-0.13245 -0.45026,-0.0111 -1.00058,0.26964 -2.8877,1.47319 -11.14172,1.41377 -13.447148,-0.0968 -0.710792,-0.46573 -1.000066,-0.51735 -0.764651,-0.13644 0.886751,1.4348 6.989029,2.27822 11.221959,1.55103 z m 0.71719,-1.1101 c 0.89187,-0.18695 1.93366,-0.54441 2.31511,-0.79434 l 0.69354,-0.45442 v -7.89034 -7.89033 l -1.52136,0.54727 c -1.30578,0.46972 -2.13995,0.54727 -5.88698,0.54727 -3.74702,0 -4.58119,-0.0776 -5.886977,-0.54727 l -1.521354,-0.54727 v 7.89033 7.89034 l 0.604708,0.39622 c 1.668936,1.09353 7.820503,1.56164 11.203313,0.85254 z m -7.7362,-2.03556 c -0.74368,-0.1344 -1.66641,-0.36384 -2.050521,-0.50988 l -0.698384,-0.26552 v -5.85823 -5.85823 l 0.727605,0.16243 c 2.67906,0.59805 5.47011,0.76334 7.80443,0.46219 1.3465,-0.17372 2.74583,-0.37978 3.10963,-0.45791 l 0.66146,-0.14207 -0.13229,5.89425 -0.13229,5.89426 -1.19063,0.35448 c -1.51417,0.4508 -6.33146,0.64366 -8.09901,0.32423 z m 7.96672,-0.82869 1.05833,-0.35861 0.0717,-5.3873 c 0.0646,-4.849 0.0294,-5.37105 -0.35187,-5.22475 -0.23298,0.0894 -1.4762,0.2818 -2.76271,0.42753 -2.19601,0.24877 -6.20933,0.0311 -7.871199,-0.42684 l -0.595312,-0.16406 v 5.30691 c 0,3.95873 0.08402,5.3595 0.330729,5.51392 1.392972,0.8719 7.879062,1.07262 10.120312,0.3132 z m -6.42937,-1.33565 c -0.17463,-0.17462 -0.3175,-0.82528 -0.3175,-1.4459 0,-1.3182 0.66203,-1.90689 1.5875,-1.4116 0.40218,0.21524 0.52916,0.55399 0.52916,1.4116 0,1.18346 -0.34806,1.7634 -1.05833,1.7634 -0.23283,0 -0.56621,-0.14287 -0.74083,-0.3175 z m 1.21982,-1.35659 c 0.0631,-0.74667 -0.0154,-0.97174 -0.33903,-0.97174 -0.54144,0 -0.77208,0.61212 -0.55561,1.4746 0.24172,0.9631 0.79714,0.65092 0.89464,-0.50286 z m 1.10851,0.48347 c 0,-0.65484 0.11906,-1.19063 0.26458,-1.19063 0.14552,0 0.26459,0.53579 0.26459,1.19063 0,0.65484 -0.11907,1.19062 -0.26459,1.19062 -0.14552,0 -0.26458,-0.53578 -0.26458,-1.19062 z m 1.05833,-0.52917 c 0,-0.97014 0.11533,-1.71979 0.26459,-1.71979 0.14925,0 0.26458,0.74965 0.26458,1.71979 0,0.97014 -0.11533,1.71979 -0.26458,1.71979 -0.14926,0 -0.26459,-0.74965 -0.26459,-1.71979 z m -1.16507,-1.14929 c -0.0916,-0.14814 -0.0376,-0.34903 0.12003,-0.44642 0.40679,-0.25141 0.66925,0.093 0.32966,0.43255 -0.19002,0.19002 -0.33801,0.19458 -0.44969,0.0139 z M 102.139,150.1769 c -0.15093,-0.39697 -0.2885,-0.86284 -0.30572,-1.03527 -0.0172,-0.17243 -0.10652,0.0339 -0.19844,0.45842 -0.22887,1.05707 -0.74668,1.15001 -0.93678,0.16813 -0.086,-0.44427 -0.22538,-1.16495 -0.30971,-1.60152 -0.22229,-1.15084 0.31557,-0.98112 0.62885,0.19844 0.20982,0.78999 0.26992,0.85739 0.29492,0.33073 0.0332,-0.69948 0.43927,-1.52549 0.64659,-1.31525 0.0676,0.0685 0.24192,0.54135 0.3874,1.05067 0.22325,0.78164 0.26885,0.82289 0.29241,0.26458 0.0328,-0.77755 0.41961,-1.48172 0.62836,-1.14395 0.18185,0.29425 -0.31937,2.7782 -0.62659,3.10527 -0.13174,0.14024 -0.34194,-0.0611 -0.50129,-0.48025 z m 1.75406,0.45921 c -0.35481,-0.35481 -0.18318,-2.14565 0.22048,-2.30054 1.00728,-0.38653 1.7796,0.84726 1.20381,1.92312 -0.28624,0.53485 -1.06145,0.74027 -1.42429,0.37742 z m 0.94912,-0.68351 c 0.1532,-0.45532 -0.0781,-1.25677 -0.36262,-1.25677 -0.12855,0 -0.23373,0.35719 -0.23373,0.79375 0,0.79155 0.38519,1.09062 0.59635,0.46302 z m 1.30865,0.5424 c -0.45222,-0.45222 -0.39273,-1.67194 0.10155,-2.08216 0.57326,-0.47575 1.27538,-0.009 1.38601,0.92099 0.14027,1.17947 -0.76366,1.88507 -1.48756,1.16117 z m 1.00542,-1.00542 c 0,-0.27386 -0.11991,-0.57204 -0.26645,-0.66261 -0.34005,-0.21016 -0.63365,0.53302 -0.42519,1.07626 0.20345,0.53016 0.69164,0.23819 0.69164,-0.41365 z m 0.89681,0.6807 c -0.27151,-0.70754 0.0279,-1.60615 0.62199,-1.86682 0.32601,-0.14304 0.56414,-0.42834 0.52916,-0.63401 -0.035,-0.20566 0.0852,-0.42597 0.26714,-0.48957 0.24281,-0.0849 0.33073,0.34744 0.33073,1.6262 v 1.74183 h -0.80205 c -0.4507,0 -0.86554,-0.16543 -0.94697,-0.37763 z m 1.21986,-0.82861 c 0,-0.71168 -0.45785,-0.87498 -0.69807,-0.24896 -0.20334,0.52988 0.0967,1.26646 0.43161,1.05949 0.14655,-0.0906 0.26646,-0.45531 0.26646,-0.81053 z m -0.24287,-6.84301 c 2.06249,-0.36793 3.68245,-1.0228 3.68245,-1.48864 0,-0.14514 -0.2805,-0.0801 -0.62334,0.14454 -2.27548,1.49095 -10.8393,1.55179 -13.722547,0.0975 -0.749281,-0.37794 -0.95014,-0.40719 -0.840885,-0.12248 0.518996,1.35248 7.164342,2.14333 11.504322,1.3691 z m 1.28109,-1.25829 c 1.63302,-0.50416 1.62986,-0.90553 -0.011,-1.39279 -1.68231,-0.4996 -1.55643,-0.49945 -1.55643,-0.002 0,0.64948 -1.66137,1.17908 -3.62952,1.157 -2.01059,-0.0226 -3.64586,-0.49855 -3.64782,-1.06181 -0.002,-0.46206 -1.25541,-0.35696 -2.322456,0.19468 -0.974945,0.50402 -0.735272,0.7927 0.939206,1.13127 0.7615,0.15397 1.62267,0.33432 1.91372,0.40078 1.05156,0.24012 7.17109,-0.0744 8.31426,-0.42734 z m -2.95645,-1.16378 c 0.32742,-0.0671 0.59531,-0.22081 0.59531,-0.34147 0,-0.12065 -0.6655,-0.10471 -1.47889,0.0354 -0.97514,0.16801 -1.94398,0.1625 -2.84427,-0.0162 -1.30666,-0.25932 -1.76043,-0.22892 -1.43534,0.0962 0.48578,0.48578 3.29668,0.60886 5.16319,0.22607 z m 5.09323,0.1377 c 0,-0.32399 -1.84089,-1.16874 -3.14196,-1.4418 -0.62497,-0.13116 -0.83867,-0.0995 -0.71199,0.10547 0.0996,0.16108 0.44641,0.29287 0.77079,0.29287 0.48335,0 1.14698,0.28318 3.01701,1.2874 0.0364,0.0195 0.0661,-0.0902 0.0661,-0.24394 z m -12.964588,-0.67071 c 0.509323,-0.19223 1.127378,-0.35475 1.373448,-0.36114 0.24607,-0.006 0.51988,-0.12888 0.60846,-0.27221 0.22376,-0.36204 -1.31809,-0.0531 -2.709512,0.54292 -0.618464,0.26492 -1.124479,0.56064 -1.124479,0.65715 0,0.0965 0.208359,0.0871 0.463021,-0.0208 0.254661,-0.10798 0.879739,-0.35362 1.389062,-0.54586 z m 3.621968,-1.62952 c -0.0666,-0.25466 -0.121,-0.0463 -0.121,0.46302 0,0.50932 0.0544,0.71768 0.121,0.46302 0.0666,-0.25466 0.0666,-0.67138 0,-0.92604 z m 1.14053,0.59531 c 0,-0.3638 -0.11906,-0.66145 -0.26458,-0.66145 -0.14552,0 -0.26458,0.29765 -0.26458,0.66145 0,0.36381 0.11906,0.66146 0.26458,0.66146 0.14552,0 0.26458,-0.29765 0.26458,-0.66146 z m 0.79375,0 c 0,-0.3638 -0.11906,-0.66145 -0.26458,-0.66145 -0.14552,0 -0.26458,0.29765 -0.26458,0.66145 0,0.36381 0.11906,0.66146 0.26458,0.66146 0.14552,0 0.26458,-0.29765 0.26458,-0.66146 z m 0.85851,0 c -0.0695,-0.3638 -0.23163,-0.66145 -0.36019,-0.66145 -0.12855,0 -0.23373,0.29765 -0.23373,0.66145 0,0.38163 0.15237,0.66146 0.36018,0.66146 0.24153,0 0.31853,-0.21791 0.23374,-0.66146 z m 0.99358,0 c 0,-0.3638 -0.11907,-0.66145 -0.26459,-0.66145 -0.14552,0 -0.26458,0.29765 -0.26458,0.66145 0,0.36381 0.11906,0.66146 0.26458,0.66146 0.14552,0 0.26459,-0.29765 0.26459,-0.66146 z m 0.79375,-0.26458 c 0,-0.3638 -0.11907,-0.66146 -0.26459,-0.66146 -0.29558,0 -0.36266,0.87206 -0.0882,1.14653 0.29166,0.29166 0.35278,0.20763 0.35278,-0.48507 z m -5.21501,-0.13229 c 0.0761,-0.29104 0.0305,-0.52917 -0.10143,-0.52917 -0.1319,0 -0.23981,0.23813 -0.23981,0.52917 0,0.29104 0.0456,0.52917 0.10143,0.52917 0.0558,0 0.1637,-0.23813 0.23981,-0.52917 z m 4.67818,-1.048 c 0.5393,-0.34107 0.23536,-0.55931 -1.01194,-0.72661 -1.97276,-0.2646 -4.51112,0.40758 -3.0153,0.79847 0.86213,0.2253 3.63562,0.17581 4.02724,-0.0719 z"
       style="fill:#2b1e17;fill-opacity:1;stroke-width:0.264583"
       id="path1" />
  </g>
</svg>
