<?xml version="1.0" encoding="UTF-8" standalone="no"?>
<!-- Created with Inkscape (http://www.inkscape.org/) -->

<svg
   width="19.79043mm"
   height="25.624012mm"
   viewBox="0 0 19.79043 25.624012"
   version="1.1"
   id="svg1"
   inkscape:version="1.4.2 (f4327f4, 2025-05-13)"
   sodipodi:docname="furniture_varnish.svg"
   xmlns:inkscape="http://www.inkscape.org/namespaces/inkscape"
   xmlns:sodipodi="http://sodipodi.sourceforge.net/DTD/sodipodi-0.dtd"
   xmlns="http://www.w3.org/2000/svg"
   xmlns:svg="http://www.w3.org/2000/svg">
  <sodipodi:namedview
     id="namedview1"
     pagecolor="#ffffff"
     bordercolor="#000000"
     borderopacity="0.25"
     inkscape:showpageshadow="2"
     inkscape:pageopacity="0.0"
     inkscape:pagecheckerboard="0"
     inkscape:deskcolor="#d1d1d1"
     inkscape:document-units="mm"
     inkscape:zoom="0.68862935"
     inkscape:cx="37.03008"
     inkscape:cy="48.64736"
     inkscape:window-width="1920"
     inkscape:window-height="991"
     inkscape:window-x="-9"
     inkscape:window-y="-9"
     inkscape:window-maximized="1"
     inkscape:current-layer="layer1" />
  <defs
     id="defs1" />
  <g
     inkscape:label="Ebene 1"
     inkscape:groupmode="layer"
     id="layer1"
     transform="translate(-95.196677,-135.74727)">
    <path
       d="m 100.31051,160.96159 c -1.997359,-0.39288 -4.169728,-1.32477 -4.767607,-2.04518 -0.257299,-0.31002 -0.336992,-2.71892 -0.342516,-10.35331 -0.0081,-11.25121 -0.136652,-10.5651 2.166278,-11.56561 4.713625,-2.04785 14.348865,-1.48184 16.720085,0.9822 l 0.61012,0.634 -0.0953,8.58693 c -0.0673,6.06965 -0.005,8.86128 0.21361,9.52278 0.25585,0.77525 0.23492,1.07886 -0.122,1.76907 -1.18927,2.29978 -8.69394,3.58813 -14.38272,2.46912 z m 10.28532,-1.02881 c 1.91159,-0.58772 3.33669,-1.32676 3.53005,-1.83064 0.11016,-0.28708 -0.13187,-0.2185 -0.82727,0.23444 -1.88202,1.22581 -3.78697,1.59476 -8.25903,1.5996 -3.51303,0.004 -4.37,-0.0802 -5.976914,-0.58562 -1.03173,-0.32454 -2.192589,-0.83919 -2.579688,-1.14368 -0.782217,-0.61529 -0.975704,-0.31412 -0.231108,0.35973 0.68227,0.61745 2.294599,1.24226 4.27997,1.65858 2.31404,0.48524 8.07952,0.31773 10.06399,-0.29241 z m 0.26459,-1.1505 c 2.79054,-0.88567 2.91041,-1.02868 2.91041,-3.47199 v -2.08679 l -1.19209,0.52732 c -3.78499,1.67428 -11.90978,1.6568 -15.221581,-0.0327 -0.565261,-0.28838 -1.09202,-0.52432 -1.170578,-0.52432 -0.07856,0 -0.142832,0.87451 -0.142832,1.94337 0,2.11916 0.132445,2.35304 1.815687,3.20628 2.551344,1.29327 9.563204,1.52997 13.000984,0.43888 z m -1.26294,-4.65198 c 0.97887,-0.20744 2.31832,-0.6154 2.97656,-0.90656 l 1.19679,-0.5294 v -3.59355 -3.59355 l -0.78328,0.40505 c -1.1437,0.59144 -3.83026,1.16162 -6.37939,1.35394 -3.5813,0.27019 -6.879832,-0.25475 -10.10139,-1.60758 -0.427702,-0.1796 -0.463021,0.0779 -0.463021,3.3756 v 3.57004 l 0.894262,0.42435 c 0.762619,0.36189 2.330781,0.81469 4.529699,1.30794 1.23089,0.27611 6.48227,0.14286 8.12977,-0.20628 z m -5.48092,-1.82767 c -0.56095,-0.41017 -0.44439,-1.72295 0.18814,-2.11896 0.52544,-0.32896 0.90826,-0.0497 1.0435,0.76112 0.0637,0.38201 -0.0784,0.55282 -0.51098,0.61423 -0.32958,0.0468 -0.53413,0.19041 -0.45455,0.31917 0.0796,0.12876 0.31947,0.16704 0.53309,0.0851 0.21362,-0.082 0.38841,-0.03 0.38841,0.11554 0,0.43753 -0.71188,0.5717 -1.18761,0.22383 z m 0.92302,-1.34222 c 0,-0.27927 -0.50776,-0.39659 -0.65879,-0.15223 -0.0914,0.1479 0.0194,0.2689 0.2463,0.2689 0.22687,0 0.41249,-0.0525 0.41249,-0.11667 z m -3.31811,1.10886 c -0.0696,-0.1819 -0.0791,-0.74745 -0.0213,-1.25677 0.0579,-0.50932 0.11854,-1.1344 0.1348,-1.38906 0.0163,-0.25467 0.16253,-0.46303 0.32502,-0.46303 0.16249,0 0.2349,0.23154 0.16089,0.51452 -0.0986,0.3771 0.0161,0.53609 0.42947,0.59531 0.62083,0.0889 0.83498,0.70436 0.5878,1.68923 -0.11672,0.46502 -0.3429,0.64053 -0.82549,0.64053 -0.36559,0 -0.72164,-0.14883 -0.79122,-0.33073 z m 1.20145,-0.8599 c 0,-0.67552 -0.36113,-0.88282 -0.66929,-0.3842 -0.2201,0.35612 0.0413,1.04566 0.3964,1.04566 0.15009,0 0.27289,-0.29765 0.27289,-0.66146 z m 2.91041,-0.52916 c 0,-0.97014 0.11533,-1.7198 0.26459,-1.7198 0.14925,0 0.26458,0.74966 0.26458,1.7198 0,0.97014 -0.11533,1.71979 -0.26458,1.71979 -0.14926,0 -0.26459,-0.74965 -0.26459,-1.71979 z m 1.05834,0 c 0,-0.97014 0.11533,-1.7198 0.26458,-1.7198 0.14925,0 0.26458,0.74966 0.26458,1.7198 0,0.97014 -0.11533,1.71979 -0.26458,1.71979 -0.14925,0 -0.26458,-0.74965 -0.26458,-1.71979 z m 0.87361,1.2817 c -0.10637,-0.27719 0.0424,-0.60857 0.40518,-0.9023 0.66448,-0.53807 0.74836,-0.82685 0.17641,-0.60738 -0.21828,0.0838 -0.39687,0.0332 -0.39687,-0.11228 0,-0.31642 0.75307,-0.64215 1.05426,-0.45601 0.11702,0.0723 0.2576,0.60173 0.31241,1.17647 0.0831,0.87106 0.0107,1.06889 -0.43507,1.18867 -0.81277,0.21841 -0.93431,0.18714 -1.11632,-0.28717 z m 0.97847,-0.35566 c 0,-0.14552 -0.11906,-0.26459 -0.26458,-0.26459 -0.14553,0 -0.26459,0.11907 -0.26459,0.26459 0,0.14552 0.11906,0.26458 0.26459,0.26458 0.14552,0 0.26458,-0.11906 0.26458,-0.26458 z m -8.808285,0.36394 c -0.285226,-0.28523 -0.223821,-1.89779 0.07941,-2.0852 0.14682,-0.0907 0.51059,-0.0876 0.80838,0.007 0.77322,0.24541 0.63938,2.07412 -0.16018,2.18857 -0.29703,0.0425 -0.62445,-0.007 -0.72759,-0.11024 z m 0.870785,-1.0254 c 0,-0.3638 -0.11906,-0.66146 -0.26458,-0.66146 -0.14553,0 -0.26459,0.29766 -0.26459,0.66146 0,0.3638 0.11906,0.66146 0.26459,0.66146 0.14552,0 0.26458,-0.29766 0.26458,-0.66146 z m 9.03406,0.62482 c -0.3769,-1.01885 0.32419,-2.37784 1.00852,-1.9549 0.41532,0.25668 0.33204,0.74668 -0.0988,0.58134 -0.4356,-0.16715 -0.73697,0.43344 -0.51186,1.02008 0.12547,0.32696 0.23019,0.34113 0.55138,0.0746 0.3318,-0.27537 0.38022,-0.24459 0.29679,0.18864 -0.14608,0.75852 -0.97656,0.81869 -1.24602,0.0903 z m -11.1675,-0.55867 c -0.01521,-0.7805 -0.03887,-0.80493 -0.256056,-0.26459 -0.321709,0.80037 -0.46066,0.75162 -0.754078,-0.26458 l -0.248285,-0.8599 -0.02387,0.8599 c -0.04346,1.56604 -0.553027,0.89561 -0.553027,-0.72761 0,-1.86928 0.578593,-2.21422 0.998585,-0.59531 l 0.257402,0.99219 0.323932,-0.8599 c 0.504354,-1.33884 0.801331,-1.02016 0.801331,0.8599 0,1.71285 -0.513527,2.5217 -0.545939,0.8599 z m 12.97449,0.7276 c -0.013,-0.14552 -0.0846,-0.94919 -0.15909,-1.78594 -0.0879,-0.98813 -0.0362,-1.52135 0.14757,-1.52135 0.15564,0 0.28562,0.38695 0.28885,0.85989 l 0.006,0.8599 0.53854,-0.66146 0.53854,-0.66146 -0.16516,0.84438 c -0.0908,0.46441 -0.034,1.08949 0.12634,1.38906 0.23544,0.43992 0.21338,0.54469 -0.11467,0.54469 -0.2234,0 -0.40618,-0.14182 -0.40618,-0.31515 0,-0.17334 -0.17481,-0.084 -0.38847,0.19843 -0.21365,0.28248 -0.39912,0.39453 -0.41215,0.24901 z m -11.767093,-2.77813 c -0.08994,-0.14552 -0.04446,-0.26458 0.101063,-0.26458 0.14552,0 0.33817,0.11906 0.4281,0.26458 0.0899,0.14553 0.0445,0.26459 -0.10106,0.26459 -0.14552,0 -0.338166,-0.11906 -0.428103,-0.26459 z m 10.795143,-2.76692 c 0.8441,-0.22458 1.8859,-0.58991 2.3151,-0.81187 0.72061,-0.37264 0.78038,-0.515 0.78038,-1.85875 v -1.45521 l -0.7276,0.37593 c -1.16855,0.60376 -2.75157,0.95166 -5.53352,1.21611 -4.0862,0.38842 -7.975266,-0.1184 -11.00294,-1.43389 -0.409141,-0.17777 -0.463021,-0.0323 -0.463021,1.24976 v 1.45093 l 1.301768,0.56001 c 1.204857,0.51831 2.689193,0.89981 4.651353,1.19547 1.53717,0.23163 7.16176,-0.085 8.67848,-0.48849 z m 0.31736,-3.65401 c 1.62133,-0.46057 3.04271,-1.17505 3.04271,-1.52946 0,-0.14514 -0.2679,-0.0919 -0.59532,0.11838 -1.79944,1.15548 -7.16294,1.86934 -11.04635,1.47022 -2.458475,-0.25267 -5.66585,-1.11088 -5.965866,-1.59632 -0.08293,-0.13418 -0.277397,-0.24397 -0.432147,-0.24397 -0.187282,0 -0.179276,0.12301 0.02394,0.36788 0.450414,0.54271 2.696062,1.44729 4.305453,1.73428 1.97251,0.35175 9.0489,0.13881 10.66757,-0.32101 z m -0.46564,-1.14735 c 1.73976,-0.45315 2.9249,-1.08121 3.34812,-1.77431 0.78219,-1.28098 -3.02739,-2.78094 -7.64498,-3.01009 -4.60736,-0.22864 -9.417791,0.86225 -10.193478,2.31163 -0.549325,1.02642 2.098596,2.41086 5.515688,2.88381 2.27503,0.31487 7.02244,0.0974 8.97465,-0.41104 z m -10.17592,-0.23973 c -2.958966,-0.64296 -4.036047,-1.49495 -3.140681,-2.48432 1.913432,-2.11432 12.098711,-2.35113 15.171301,-0.35274 0.87894,0.57165 0.77451,1.54299 -0.22125,2.05791 -2.17149,1.12293 -8.35104,1.53063 -11.80937,0.77915 z m 10.33603,-0.80303 c 3.28193,-1.00346 1.90493,-2.14244 -3.37354,-2.79044 -3.94869,-0.48475 -9.667641,0.48912 -9.898045,1.68552 -0.116076,0.60273 0.357026,0.57876 0.985731,-0.0499 0.790475,-0.79047 3.255064,-1.21257 6.902844,-1.18222 3.4427,0.0286 6.04606,0.60053 6.29711,1.38328 0.0886,0.27635 -0.027,0.26515 -0.51162,-0.0495 -2.14268,-1.3913 -12.119979,-1.14777 -12.60513,0.30768 -0.112649,0.33796 0.818266,0.75977 2.45401,1.11196 1.78348,0.384 7.99932,0.11857 9.74864,-0.41628 z"
       style="fill:#2b1e17;fill-opacity:1;stroke-width:0.264583"
       id="path1" />
  </g>
</svg>
