<?xml version="1.0" encoding="UTF-8" standalone="no"?>
<!-- Created with Inkscape (http://www.inkscape.org/) -->

<svg
   width="24mm"
   height="24mm"
   viewBox="0 0 24 24"
   version="1.1"
   id="svg1"
   inkscape:version="1.4.2 (f4327f4, 2025-05-13)"
   sodipodi:docname="glue_clamp.svg"
   xmlns:inkscape="http://www.inkscape.org/namespaces/inkscape"
   xmlns:sodipodi="http://sodipodi.sourceforge.net/DTD/sodipodi-0.dtd"
   xmlns="http://www.w3.org/2000/svg"
   xmlns:svg="http://www.w3.org/2000/svg">
  <sodipodi:namedview
     id="namedview1"
     pagecolor="#ffffff"
     bordercolor="#000000"
     borderopacity="0.25"
     inkscape:showpageshadow="2"
     inkscape:pageopacity="0.0"
     inkscape:pagecheckerboard="0"
     inkscape:deskcolor="#d1d1d1"
     inkscape:document-units="mm"
     inkscape:zoom="0.68862935"
     inkscape:cx="50.09952"
     inkscape:cy="44.29088"
     inkscape:window-width="1920"
     inkscape:window-height="991"
     inkscape:window-x="-9"
     inkscape:window-y="-9"
     inkscape:window-maximized="1"
     inkscape:current-layer="layer1" />
  <defs
     id="defs1" />
  <g
     inkscape:label="Ebene 1"
     inkscape:groupmode="layer"
     id="layer1"
      transform="translate(0 1.395899) scale(0.91384) translate(-92.00599,-136.8267)">
    <path
       d="m 93.893836,159.89687 c -0.320448,-0.0854 -0.475996,-0.58023 -0.610037,-1.94053 -0.146296,-1.48468 -0.276045,-1.85638 -0.694357,-1.98914 -0.448172,-0.14225 -0.514442,-0.41424 -0.514442,-2.11142 0,-1.81886 0.03951,-1.95376 0.595312,-2.03269 0.594974,-0.0845 0.595313,-0.0876 0.595313,-5.44139 0,-4.77143 -0.04706,-5.35694 -0.430625,-5.35781 -0.738963,-0.002 -0.935337,-0.60229 -0.778878,-2.38223 l 0.15117,-1.71979 3.307291,-0.0727 c 3.17894,-0.0699 3.440777,-0.0328 6.746877,0.95562 l 3.43958,1.02829 0.087,0.88479 c 0.0538,0.54729 -0.0571,0.99016 -0.29081,1.16104 -0.29358,0.21469 -0.34962,0.7628 -0.25141,2.45908 l 0.12637,2.18281 h 1.12832 c 0.77225,0 1.1777,-0.12867 1.28479,-0.40775 0.11083,-0.28883 0.48563,-0.39607 1.28508,-0.36769 0.62073,0.022 1.96161,-0.10601 2.97971,-0.28455 2.19186,-0.38436 4.65657,-0.21593 5.56669,0.3804 0.52963,0.34703 0.652,0.64597 0.652,1.59283 0,1.25376 -0.4274,1.89515 -1.43064,2.14694 -1.03813,0.26056 -7.43706,-0.13806 -10.02201,-0.6243 -0.87257,-0.16414 -1.32319,-0.14796 -1.4495,0.052 -0.25335,0.40113 -0.0711,3.40799 0.22532,3.71657 0.13278,0.13824 0.24141,0.633 0.24141,1.09946 0,0.82514 -0.0627,0.87107 -2.3151,1.69671 -1.27331,0.46673 -3.29737,1.03854 -4.497918,1.27069 l -2.182812,0.42208 v 1.6713 c 0,1.55057 -0.04902,1.68993 -0.678683,1.92933 -0.687927,0.26155 -1.483402,0.29034 -2.264981,0.082 z m 1.525632,-0.82019 c 0.165968,-0.10692 0.344562,-0.81954 0.396875,-1.58362 l 0.09511,-1.38922 -0.859896,1.6e-4 -0.859896,1.6e-4 v 1.43316 c 0,0.89897 0.123275,1.48291 0.33073,1.56662 0.475464,0.19185 0.560956,0.18925 0.897072,-0.0273 z m 6.281422,-4.85526 c 2.86589,-0.97929 3.47209,-1.27401 3.16866,-1.54051 -0.12476,-0.10958 -2.87598,-0.14368 -6.113821,-0.0758 l -5.886979,0.12346 v 1.15862 1.15862 h 3.209742 c 2.900323,0 3.442325,-0.0795 5.622398,-0.82441 z m -5.921724,-7.64226 v -5.22552 c 0,-0.10914 -0.386953,-0.19843 -0.859895,-0.19843 -0.52564,0 -0.849612,0.12856 -0.833438,0.33072 0.01455,0.18191 0.04432,2.53339 0.06615,5.22553 l 0.03969,4.89479 h 0.79375 0.79375 z m 6.534614,-0.26458 0.0113,-5.29167 H 99.581292 96.8375 v 5.29167 5.29167 h 2.732492 2.732498 z m 2.09742,4.46484 c -0.0909,-0.45475 -0.16537,-1.16912 -0.16537,-1.5875 0,-0.91695 -0.65747,-1.0389 -0.89157,-0.16536 -0.21429,0.79963 -0.20874,2.18493 0.01,2.4033 0.097,0.097 0.40956,0.17639 0.69454,0.17639 0.4392,0 0.49295,-0.12596 0.35277,-0.82683 z m 12.38512,-3.13537 c 0.51335,-0.19518 0.67868,-0.4451 0.67868,-1.02594 0,-1.26867 -0.43023,-1.4117 -3.75158,-1.24724 -1.64741,0.0816 -3.50131,0.16367 -4.11977,0.18243 -1.10256,0.0334 -1.12448,0.0522 -1.12448,0.96147 0,0.89667 0.0285,0.92306 0.85989,0.79682 0.47294,-0.0718 1.21709,0.0263 1.65365,0.21803 0.93288,0.4097 4.82515,0.48643 5.80361,0.11443 z m -12.15361,-1.19718 c 0,-0.70211 -0.0993,-0.80332 -0.8599,-0.87666 -0.82731,-0.0798 -0.85989,-0.0465 -0.85989,0.87666 0,0.92321 0.0326,0.95643 0.85989,0.87666 0.76063,-0.0733 0.8599,-0.17454 0.8599,-0.87666 z m 1.98437,0.11668 c 0,-0.13693 -0.11906,-0.24897 -0.26458,-0.24897 -0.14552,0 -0.26458,0.18562 -0.26458,0.41249 0,0.22687 0.11906,0.33891 0.26458,0.24897 0.14552,-0.0899 0.26458,-0.27556 0.26458,-0.41249 z m -2.38125,-3.68855 c 0,-1.71498 -0.0418,-1.85209 -0.56513,-1.85209 -0.52009,0 -0.55172,0.0978 -0.39687,1.22756 0.0925,0.67515 0.16825,1.50859 0.16825,1.85208 0,0.37875 0.15619,0.62453 0.39688,0.62453 0.31498,0 0.39687,-0.38217 0.39687,-1.85208 z m 0.79375,-3.14072 c 0,-0.12666 -1.33945,-0.63148 -2.97656,-1.12181 -2.484881,-0.74425 -3.490097,-0.90654 -6.085416,-0.98249 l -3.108854,-0.091 v 1.21279 1.21278 h 6.085416 c 3.346984,0 6.085414,-0.10363 6.085414,-0.2303 z"
       style="fill:#2b1e17;fill-opacity:1;stroke-width:0.264583"
       id="path1" />
  </g>
</svg>

