<?xml version="1.0" encoding="UTF-8" standalone="no"?>
<!-- Created with Inkscape (http://www.inkscape.org/) -->

<svg
   width="24mm"
   height="24mm"
   viewBox="0 0 24 24"
   version="1.1"
   id="svg1"
   inkscape:version="1.4.2 (f4327f4, 2025-05-13)"
   sodipodi:docname="screw.svg"
   xmlns:inkscape="http://www.inkscape.org/namespaces/inkscape"
   xmlns:sodipodi="http://sodipodi.sourceforge.net/DTD/sodipodi-0.dtd"
   xmlns="http://www.w3.org/2000/svg"
   xmlns:svg="http://www.w3.org/2000/svg">
  <sodipodi:namedview
     id="namedview1"
     pagecolor="#ffffff"
     bordercolor="#000000"
     borderopacity="0.25"
     inkscape:showpageshadow="2"
     inkscape:pageopacity="0.0"
     inkscape:pagecheckerboard="0"
     inkscape:deskcolor="#d1d1d1"
     inkscape:document-units="mm"
     inkscape:zoom="0.68862935"
     inkscape:cx="45.74304"
     inkscape:cy="45.74304"
     inkscape:window-width="1920"
     inkscape:window-height="991"
     inkscape:window-x="-9"
     inkscape:window-y="-9"
     inkscape:window-maximized="1"
     inkscape:current-layer="layer1" />
  <defs
     id="defs1" />
  <g
     inkscape:label="Ebene 1"
     inkscape:groupmode="layer"
     id="layer1"
      transform="translate(0.00618 0) scale(0.988736) translate(-92.914755,-136.32852)">
    <path
       d="m 92.929949,160.27135 c 0.0648,-0.1819 0.516294,-1.55946 1.003329,-3.06124 0.742714,-2.29019 1.005615,-2.79262 1.630283,-3.11565 0.409622,-0.21182 0.74477,-0.56322 0.74477,-0.78089 0,-0.21766 0.297656,-0.53137 0.661458,-0.69713 0.363802,-0.16576 0.661459,-0.42616 0.661459,-0.57867 0,-0.15251 0.625078,-0.85221 1.389062,-1.55488 1.709,-1.57184 1.11567,-0.98031 5.37517,-5.35893 l 3.6034,-3.70417 -0.15682,-1.16203 c -0.20894,-1.5483 0.23778,-3.10311 1.0432,-3.63084 1.87024,-1.22543 6.04607,1.49643 7.68008,5.00597 0.82458,1.77105 0.81542,2.57751 -0.0384,3.3788 -0.59011,0.5538 -0.93784,0.64119 -2.5452,0.63966 l -1.86172,-0.002 -3.68737,3.63979 c -2.02805,2.00197 -3.79973,3.63987 -3.93708,3.63987 -0.13735,0 -0.24972,0.13758 -0.24972,0.30572 0,0.16815 -0.98226,1.24305 -2.18281,2.38868 -1.20055,1.14562 -2.420939,2.31132 -2.711981,2.59044 -0.590595,0.5664 -5.17068,2.38808 -6.004128,2.38808 -0.314267,0 -0.486199,-0.13637 -0.416962,-0.33073 z m 5.51218,-2.49098 c 0.207003,-0.20701 0.07812,-0.36366 -0.460107,-0.55926 -0.411208,-0.14944 -1.185265,-0.45978 -1.720128,-0.68965 l -0.972481,-0.41793 -0.455121,1.38438 c -0.250317,0.76141 -0.504348,1.51835 -0.564515,1.6821 -0.123727,0.33672 3.728106,-0.9554 4.172352,-1.39964 z m 1.570371,-1.54391 c 0.26553,-0.31995 0.25899,-0.3981 -0.03375,-0.40316 -0.199718,-0.003 -1.075324,-0.29903 -1.945793,-0.65684 -1.386919,-0.5701 -1.630402,-0.60283 -1.968624,-0.2646 -0.212278,0.21227 -0.333516,0.42112 -0.269418,0.46409 0.0641,0.043 0.652325,0.33608 1.307169,0.65134 1.413304,0.68042 2.457058,0.75543 2.910416,0.20917 z m 1.67415,-1.56399 c 0.15662,-0.40813 -3.252257,-1.56725 -3.889728,-1.32263 -0.879668,0.33756 -0.378992,0.83872 1.35568,1.35698 1.836108,0.54856 2.312848,0.5421 2.534048,-0.0343 z m 1.24157,-1.35283 c 0.42066,-0.50686 0.47479,-0.469 -1.68531,-1.17867 -1.650703,-0.54232 -1.849511,-0.55818 -2.229783,-0.17791 -0.353169,0.35317 -0.359299,0.4391 -0.03979,0.55772 1.125263,0.41776 3.310623,1.16609 3.454163,1.1828 0.0913,0.0106 0.31665,-0.16214 0.50072,-0.38394 z m 1.66258,-1.65603 c 0.4032,-0.44554 0.31579,-0.50633 -1.56987,-1.09166 -1.83155,-0.56855 -2.03193,-0.58476 -2.42074,-0.19595 -0.52301,0.52301 -0.53975,0.50895 1.39668,1.17314 1.99347,0.68374 2.07547,0.68736 2.59393,0.11447 z m 1.61325,-1.61596 c 0.43717,-0.48307 0.38464,-0.52316 -1.52767,-1.16612 -1.9465,-0.65445 -1.98824,-0.65718 -2.43857,-0.15957 -0.252,0.27846 -0.4093,0.54878 -0.34956,0.60073 0.16474,0.14324 3.24226,1.18046 3.57334,1.20434 0.15935,0.0115 0.49346,-0.20423 0.74246,-0.47938 z m 1.72586,-1.72448 c 0.25591,-0.30836 -0.0301,-0.48274 -1.65754,-1.01048 -1.65838,-0.53778 -2.04108,-0.5835 -2.44038,-0.29152 -0.58479,0.4276 -0.49571,0.51955 1.11158,1.14735 1.54856,0.60487 2.56884,0.6577 2.98634,0.15465 z m 1.46481,-1.30674 c 0.5804,-0.4244 0.52497,-0.46211 -1.80181,-1.22594 -1.59669,-0.52415 -1.85868,-0.54853 -2.20227,-0.20494 -0.3436,0.34359 -0.17521,0.47136 1.41541,1.07401 2.16549,0.82044 1.98813,0.79599 2.58867,0.35687 z m 1.48861,-1.64863 c 0.43299,-0.39185 0.3781,-0.49796 -0.88952,-1.71979 -0.74305,-0.7162 -1.42318,-1.30218 -1.51141,-1.30218 -0.0882,0 -0.62154,0.47222 -1.18512,1.04939 -0.74784,0.76585 -0.92319,1.08706 -0.64901,1.18883 1.43451,0.53248 3.32596,1.16586 3.52985,1.18203 0.13406,0.0106 0.45141,-0.16859 0.70521,-0.39828 z m 3.94583,-0.46445 c 0,-0.0486 -0.6498,-0.53585 -1.444,-1.08283 -1.32378,-0.91173 -3.08039,-2.74493 -4.19491,-4.37783 l -0.4465,-0.65418 v 0.94521 c 0,2.01183 3.34628,5.21029 5.4901,5.24759 0.32742,0.006 0.59531,-0.0294 0.59531,-0.078 z m 1.32292,-1.40406 c 0,-2.3654 -3.83284,-6.18054 -6.20921,-6.18054 -0.36848,0 -0.66951,0.0893 -0.66897,0.19844 0.002,0.35012 1.09402,2.01336 2.16383,3.29495 0.95142,1.13976 3.92326,3.38577 4.47992,3.38577 0.12894,0 0.23443,-0.31438 0.23443,-0.69862 z m -2.57981,-2.73357 c -0.19105,-0.30592 -0.49102,-0.45839 -0.7251,-0.36856 -0.2466,0.0946 -0.39926,10e-4 -0.39926,-0.24367 0,-0.21828 0.16493,-0.46017 0.36651,-0.53752 0.52304,-0.20071 1.48558,0.54917 1.48558,1.15736 0,0.65997 -0.31286,0.6567 -0.72773,-0.008 z"
       style="fill:#2b1e17;fill-opacity:1;stroke-width:0.264583"
       id="path1" />
  </g>
</svg>

