<?xml version="1.0" encoding="UTF-8" standalone="no"?>
<!-- Created with Inkscape (http://www.inkscape.org/) -->

<svg
   width="24"
   height="24"
   viewBox="0 0 39.999999 39.999999"
   version="1.1"
   id="svg1"
   inkscape:version="1.4.2 (f4327f4, 2025-05-13)"
   sodipodi:docname="headboard_panel.svg"
   xmlns:inkscape="http://www.inkscape.org/namespaces/inkscape"
   xmlns:sodipodi="http://sodipodi.sourceforge.net/DTD/sodipodi-0.dtd"
   xmlns="http://www.w3.org/2000/svg"
   xmlns:svg="http://www.w3.org/2000/svg">
  <sodipodi:namedview
     id="namedview1"
     pagecolor="#ffffff"
     bordercolor="#000000"
     borderopacity="0.25"
     inkscape:showpageshadow="2"
     inkscape:pageopacity="0.0"
     inkscape:pagecheckerboard="0"
     inkscape:deskcolor="#d1d1d1"
     inkscape:document-units="mm"
     inkscape:zoom="15.581903"
     inkscape:cx="15.24204"
     inkscape:cy="15.049509"
     inkscape:window-width="1920"
     inkscape:window-height="991"
     inkscape:window-x="-9"
     inkscape:window-y="-9"
     inkscape:window-maximized="1"
     inkscape:current-layer="layer1" />
  <defs
     id="defs1" />
  <g
     inkscape:label="Ebene 1"
     inkscape:groupmode="layer"
     id="layer1"
     transform="translate(-88.630487,-130.28152)">
    <path
       d="m 92.890293,168.30256 -0.73007,-0.39602 0.06861,-13.14307 0.06861,-13.14306 1.984375,-0.57772 c 1.820291,-0.52996 7.760042,-2.3341 23.505682,-7.13964 5.56008,-1.69693 5.95264,-1.78055 6.61458,-1.40901 l 0.7037,0.39498 v 12.67486 12.67486 l -1.64272,0.52546 c -1.33303,0.42641 -1.76947,0.46771 -2.3151,0.21911 -0.67002,-0.30528 -0.67239,-0.31851 -0.67239,-3.75162 0,-1.89489 -0.0893,-3.44321 -0.19844,-3.44071 -0.10914,0.002 -5.31812,1.69914 -11.57552,3.77031 l -11.377083,3.76577 -0.132292,4.10048 -0.132292,4.10047 -1.5875,0.58015 c -1.903761,0.69573 -1.687904,0.67948 -2.58215,0.1944 z m 3.508192,-7.76257 c 0,-5.03855 -0.07056,-6.40758 -0.3175,-6.16064 -0.925986,0.92599 -1.005417,0.46808 -1.005417,-5.79622 0,-5.46622 -0.04433,-6.09672 -0.418515,-5.95313 -0.230182,0.0883 -0.468307,0.1606 -0.529167,0.1606 -0.06086,0 -0.110651,5.64977 -0.110651,12.55504 v 12.55504 l 1.190625,-0.44128 1.190625,-0.44127 z m -1.5875,3.39523 c 0,-0.53505 0.113819,-0.77786 0.330729,-0.70556 0.294839,0.0983 0.343382,0.3618 0.231511,1.25678 -0.08144,0.65149 -0.56224,0.18011 -0.56224,-0.55122 z m 0.336645,-6.06337 c 0,-0.65484 0.0516,-0.92273 0.114663,-0.59531 0.06307,0.32742 0.06307,0.8632 0,1.19062 -0.06306,0.32743 -0.114663,0.0595 -0.114663,-0.59531 z m -1.659562,-2.63022 c 0,-7.99446 -0.09427,-12.47806 -0.264583,-12.58332 -0.174971,-0.10814 -0.264583,4.0983 -0.264583,12.4198 0,8.2125 0.0919,12.58333 0.264583,12.58333 0.17263,0 0.264583,-4.31633 0.264583,-12.41981 z m 15.415342,-0.52961 c 6.14641,-2.02895 11.50271,-3.76826 11.90289,-3.86514 0.71852,-0.17394 0.72761,-0.20261 0.72761,-2.29497 0,-2.05797 -0.0171,-2.11524 -0.59532,-1.99378 -0.32742,0.0688 -4.22672,1.28487 -8.6651,2.70243 -4.43839,1.41757 -9.64538,3.07182 -11.5711,3.67611 -3.283341,1.03033 -3.501577,1.14065 -3.505728,1.77227 l -0.0044,0.67355 3.092088,-0.99899 c 1.70065,-0.54945 3.13684,-0.95425 3.19154,-0.89955 0.0547,0.0547 -1.30698,0.56769 -3.02595,1.13999 l -3.125386,1.04055 -0.07997,1.36826 c -0.04918,0.84149 0.02851,1.36827 0.201797,1.36827 0.154975,0 5.310649,-1.66005 11.457059,-3.689 z m -4.83774,0.22898 c 2.54345,-0.86188 4.74611,-1.55787 4.89479,-1.54663 0.14868,0.0112 -1.81069,0.72561 -4.35415,1.5875 -2.54346,0.86188 -4.746117,1.55787 -4.894794,1.54663 -0.148678,-0.0112 1.810684,-0.72561 4.354154,-1.5875 z m 9.8228,-4.06399 c 0.21054,-0.21054 6.35163,-2.27015 6.707,-2.24941 0.15234,0.009 -1.03271,0.47745 -2.63344,1.04123 -3.14951,1.10927 -4.32256,1.45718 -4.07356,1.20818 z m 7.64544,3.93652 c 0,-2.32429 -0.0932,-3.52991 -0.26459,-3.42397 -0.15313,0.0946 -0.26458,1.53145 -0.26458,3.4111 0,2.85026 0.0919,3.60036 0.44097,3.60036 0.0485,0 0.0882,-1.61437 0.0882,-3.58749 z m 1.99287,3.20412 0.91754,-0.38338 v -12.06135 c 0,-11.97936 -0.004,-12.05943 -0.52916,-11.77815 -0.50499,0.27026 -0.52917,0.55399 -0.52917,6.20861 v 5.92542 l -0.59531,0.0845 -0.59532,0.0845 -0.071,6.15157 c -0.0481,4.16705 0.0186,6.15156 0.20694,6.15156 0.15287,0 0.69085,-0.17252 1.1955,-0.38337 z m -0.40537,-3.3208 c 0,-0.43656 0.11906,-0.79375 0.26458,-0.79375 0.14552,0 0.26458,0.35719 0.26458,0.79375 0,0.43656 -0.11906,0.79375 -0.26458,0.79375 -0.14552,0 -0.26458,-0.35719 -0.26458,-0.79375 z m 0.19292,-5.45152 c -0.10611,-0.10611 -0.18931,-0.44097 -0.18488,-0.74414 0.007,-0.50895 0.0292,-0.51495 0.28331,-0.0782 0.29596,0.50856 0.22026,1.14105 -0.0984,0.82236 z m -0.19292,-1.82452 c 0,-0.21828 0.11532,-0.39687 0.25628,-0.39687 0.14095,0 0.18774,0.17859 0.10398,0.39687 -0.0838,0.21828 -0.19909,0.39688 -0.25628,0.39688 -0.0572,0 -0.10398,-0.1786 -0.10398,-0.39688 z m -23.597632,5.31386 c 4.761752,-1.53628 19.872012,-6.33702 21.811692,-6.92988 l 1.52135,-0.46499 v -2.826 -2.826 l -4.16719,1.30496 c -2.29195,0.71773 -8.03671,2.49366 -12.76614,3.94652 -4.72943,1.45285 -8.985916,2.76361 -9.458859,2.91279 l -0.859896,0.27124 v 2.88989 c 0,1.58945 0.06693,2.8899 0.14873,2.8899 0.0818,0 1.778442,-0.52579 3.770313,-1.16843 z m -3.498919,-1.71948 c 0.313238,-0.2882 3.020737,-1.16775 3.161459,-1.02703 0.05925,0.0592 -0.682146,0.36452 -1.647537,0.67839 -0.96539,0.31387 -1.646656,0.47076 -1.513922,0.34864 z m 0.131546,-1.45612 c 0.08497,-0.085 6.741055,-2.12051 10.461325,-3.19924 0.27301,-0.0792 0.0167,0.0813 -0.56961,0.35669 -0.5863,0.27534 -2.99302,1.05246 -5.34828,1.72694 -4.183192,1.19793 -4.769797,1.34197 -4.543435,1.11561 z m 12.412915,-1.50842 c 0.80037,-0.28717 3.30068,-1.04676 5.55625,-1.68799 2.25558,-0.64123 4.98435,-1.46888 6.06394,-1.83923 1.07959,-0.37035 2.00981,-0.62644 2.06716,-0.56909 0.20602,0.20602 -14.29599,4.70425 -14.95185,4.63776 -0.10489,-0.0106 0.46414,-0.25428 1.2645,-0.54145 z m 4.7625,-2.78358 c 0,-0.1688 1.21594,-0.612 4.23334,-1.54301 3.15542,-0.9736 4.42844,-1.30495 4.2226,-1.09912 -0.19569,0.19569 -8.45594,2.77668 -8.45594,2.64213 z m -7.40833,-0.87479 c 5.31151,-1.63058 11.2944,-3.49803 13.29531,-4.14988 l 3.63802,-1.18518 v -2.52724 c 0,-1.91226 -0.0805,-2.49674 -0.33073,-2.40189 -0.1819,0.0689 -6.31362,1.9512 -13.62604,4.1828 l -13.295315,4.05744 v 2.6207 c 0,1.98756 0.0799,2.59015 0.330729,2.49431 0.181901,-0.0695 4.676506,-1.46049 9.988026,-3.09106 z m -9.741159,0.37837 c 0.206883,-0.20689 4.757649,-1.4955 4.873229,-1.37992 0.0957,0.0957 -4.419558,1.51654 -4.81946,1.51654 -0.104717,0 -0.128913,-0.0615 -0.05377,-0.13662 z m 0.695711,-1.36704 c 0.190995,-0.0764 0.419201,-0.067 0.507119,0.0209 0.08792,0.0879 -0.06835,0.15045 -0.347265,0.13896 -0.308227,-0.0127 -0.37092,-0.0754 -0.159854,-0.15985 z m 0.888368,-0.21704 c 0.409437,-0.40944 9.12821,-2.68803 9.36798,-2.44826 0.0634,0.0634 -0.57007,0.26698 -1.40771,0.45239 -0.83764,0.18542 -2.91632,0.74031 -4.61927,1.2331 -3.110299,0.90002 -3.587115,1.00888 -3.341,0.76277 z m 10.56038,-1.03159 c 0.20986,-0.20267 8.23616,-2.57144 8.34482,-2.46278 0.06,0.06 -1.71328,0.66263 -3.94064,1.33917 -3.81731,1.15946 -4.66536,1.37582 -4.40418,1.12361 z m 6.59361,-4.09098 c 0.54027,-0.34477 6.78455,-2.42225 7.20428,-2.39688 0.29328,0.0177 -5.6617,2.12994 -7.07307,2.50879 -0.41408,0.11115 -0.44261,0.0868 -0.13121,-0.11191 z m 5.1583,-0.56506 c 0.29104,-0.12507 0.70776,-0.2274 0.92604,-0.2274 0.25016,0 0.20125,0.0841 -0.13229,0.2274 -0.29104,0.12506 -0.70776,0.22739 -0.92604,0.22739 -0.25016,0 -0.20126,-0.0841 0.13229,-0.22739 z m -25.532298,4.49791 c 0,-0.3315 -0.280787,-0.3315 -0.79375,0 -0.320929,0.2074 -0.282956,0.25726 0.198437,0.26053 0.327422,0.002 0.595313,-0.11501 0.595313,-0.26053 z m 4.732554,-1.30943 c 1.835484,-0.57467 5.956614,-1.84049 9.158074,-2.81292 3.20146,-0.97244 7.13052,-2.16846 8.73125,-2.65782 1.60073,-0.48936 3.41643,-1.02362 4.0349,-1.18724 0.61846,-0.16362 1.12448,-0.41516 1.12448,-0.55897 0,-0.14382 -0.20802,-0.18166 -0.46226,-0.0841 -0.25423,0.0976 -1.77228,0.57247 -3.37343,1.05535 -18.26194,5.50752 -23.722696,7.2285 -23.049472,7.26413 0.274569,0.0145 2.000975,-0.44376 3.836458,-1.01843 z m 24.437764,-7.59705 c -0.1819,-0.0734 -0.47956,-0.0734 -0.66146,0 -0.1819,0.0734 -0.0331,0.13346 0.33073,0.13346 0.3638,0 0.51263,-0.0601 0.33073,-0.13346 z"
       style="fill:#28220b;stroke-width:0.264583"
       id="path1" />
  </g>
</svg>
