<?xml version="1.0" encoding="UTF-8" standalone="no"?>
<!-- Created with Inkscape (http://www.inkscape.org/) -->

<svg
   width="24mm"
   height="24mm"
   viewBox="0 0 24 24"
   version="1.1"
   id="svg1"
   inkscape:version="1.4.2 (f4327f4, 2025-05-13)"
   sodipodi:docname="japanese_saw.svg"
   xmlns:inkscape="http://www.inkscape.org/namespaces/inkscape"
   xmlns:sodipodi="http://sodipodi.sourceforge.net/DTD/sodipodi-0.dtd"
   xmlns="http://www.w3.org/2000/svg"
   xmlns:svg="http://www.w3.org/2000/svg">
  <sodipodi:namedview
     id="namedview1"
     pagecolor="#ffffff"
     bordercolor="#000000"
     borderopacity="0.25"
     inkscape:showpageshadow="2"
     inkscape:pageopacity="0.0"
     inkscape:pagecheckerboard="0"
     inkscape:deskcolor="#d1d1d1"
     inkscape:document-units="mm"
     inkscape:zoom="0.68862935"
     inkscape:cx="45.74304"
     inkscape:cy="41.38656"
     inkscape:window-width="1920"
     inkscape:window-height="991"
     inkscape:window-x="-9"
     inkscape:window-y="-9"
     inkscape:window-maximized="1"
     inkscape:current-layer="layer1" />
  <defs
     id="defs1" />
  <g
     inkscape:label="Ebene 1"
     inkscape:groupmode="layer"
     id="layer1"
      transform="translate(0 0.61586) scale(1.002576) translate(-93.133333,-137.08184)">
    <path
       d="m 93.906731,159.03494 c -0.42537,-0.42537 -0.773398,-0.95982 -0.773398,-1.18766 0,-0.43048 5.958763,-7.29936 6.332199,-7.29936 0.116636,0 0.543798,-0.50602 0.949238,-1.12448 1.66158,-2.53454 9.77439,-12.02393 10.46786,-12.24403 1.09279,-0.34684 2.16947,0.20114 4.17703,2.12593 l 2.01201,1.92903 -2.02986,1.98428 c -1.11642,1.09135 -1.95833,2.0558 -1.87091,2.14323 0.0874,0.0874 0.0341,0.15896 -0.1184,0.15896 -0.27017,0 -2.03057,1.694 -5.73055,5.5144 l -1.81867,1.87787 -1.14377,-0.67029 c -1.31898,-0.77298 -1.93777,-0.61619 -2.57001,0.65117 -0.20893,0.4188 -1.60575,2.14586 -3.104058,3.8379 -3.030463,3.42232 -3.454892,3.62687 -4.778711,2.30305 z m 1.70025,-0.22039 c 0.06799,-0.11001 -0.163928,-0.53433 -0.515379,-0.94292 -0.529273,-0.61531 -0.666922,-0.67014 -0.801561,-0.31928 -0.254942,0.66437 0.96424,1.83288 1.31694,1.2622 z m 0.831681,-1.1197 c 0.08886,-0.14378 -0.137137,-0.58354 -0.502206,-0.97725 -0.586049,-0.63203 -0.684339,-0.66223 -0.839491,-0.25791 -0.105706,0.27547 0.01154,0.66487 0.294246,0.97725 0.522896,0.5778 0.806579,0.64764 1.047451,0.25791 z m 0.919202,-1.01098 c -0.0048,-0.10056 -0.247719,-0.46978 -0.539729,-0.82049 -0.399269,-0.47954 -0.606168,-0.56243 -0.834358,-0.33424 -0.22819,0.22819 -0.150424,0.46631 0.313602,0.96025 0.552469,0.58807 1.084131,0.68557 1.060485,0.19448 z m 0.514562,-1.67091 c -0.300422,-0.4219 -0.65618,-0.69914 -0.790575,-0.61608 -0.36326,0.22451 -0.298612,0.60914 0.21867,1.30097 0.332457,0.44464 0.555384,0.54354 0.790575,0.35074 0.254627,-0.20874 0.205943,-0.43931 -0.21867,-1.03563 z m 0.943652,-0.86488 c -0.48613,-0.74193 -0.78613,-0.85621 -1.064641,-0.40557 -0.09659,0.15629 0.09721,0.57459 0.430673,0.92954 0.777065,0.82715 1.258525,0.42923 0.633968,-0.52397 z m 0.79375,-1.05833 C 99.361262,152.71039 99.05252,152.4 98.923737,152.4 c -0.367702,0 -0.274826,0.61794 0.193341,1.28634 0.61676,0.88055 1.087312,0.31083 0.49275,-0.59659 z m 1.080622,-0.18727 c 0.2347,-0.37975 -0.801016,-1.41492 -1.18082,-1.18019 -0.199967,0.12359 -0.145971,0.38062 0.171749,0.81755 0.516691,0.71055 0.743641,0.79212 1.009071,0.36264 z m 1.52351,-1.8187 c 0.74559,-0.37288 0.83864,-0.35911 2.63809,0.39013 0.37696,0.15695 1.52629,-0.87074 5.61748,-5.02298 5.71695,-5.80228 5.45629,-5.26637 3.43359,-7.05934 -1.34635,-1.19344 -2.09821,-1.58491 -2.64272,-1.37596 -0.53318,0.2046 -8.58345,9.66535 -10.16525,11.9463 -0.49187,0.70927 -0.54226,0.94216 -0.27385,1.26559 0.18093,0.21799 0.40038,0.35881 0.48768,0.31291 0.0873,-0.0459 0.49454,-0.25139 0.90498,-0.45665 z m 8.90761,-11.25562 c -0.38862,-0.46826 -0.11886,-0.92191 0.54821,-0.92191 0.32749,0 0.51355,0.18147 0.51355,0.50086 0,0.6403 -0.66195,0.9028 -1.06176,0.42105 z"
       style="fill:#2b1e17;fill-opacity:1;stroke-width:0.264583"
       id="path1" />
  </g>
</svg>

