<?xml version="1.0" encoding="UTF-8" standalone="no"?>
<!-- Created with Inkscape (http://www.inkscape.org/) -->

<svg
   width="24.831392mm"
   height="18.49544mm"
   viewBox="0 0 24.831392 18.49544"
   version="1.1"
   id="svg1"
   inkscape:version="1.4.2 (f4327f4, 2025-05-13)"
   sodipodi:docname="jointer.svg"
   xmlns:inkscape="http://www.inkscape.org/namespaces/inkscape"
   xmlns:sodipodi="http://sodipodi.sourceforge.net/DTD/sodipodi-0.dtd"
   xmlns="http://www.w3.org/2000/svg"
   xmlns:svg="http://www.w3.org/2000/svg">
  <sodipodi:namedview
     id="namedview1"
     pagecolor="#ffffff"
     bordercolor="#000000"
     borderopacity="0.25"
     inkscape:showpageshadow="2"
     inkscape:pageopacity="0.0"
     inkscape:pagecheckerboard="0"
     inkscape:deskcolor="#d1d1d1"
     inkscape:document-units="mm"
     inkscape:zoom="0.68862935"
     inkscape:cx="47.1952"
     inkscape:cy="35.57792"
     inkscape:window-width="1920"
     inkscape:window-height="991"
     inkscape:window-x="-9"
     inkscape:window-y="-9"
     inkscape:window-maximized="1"
     inkscape:current-layer="layer1" />
  <defs
     id="defs1" />
  <g
     inkscape:label="Ebene 1"
     inkscape:groupmode="layer"
     id="layer1"
     transform="translate(-92.643297,-139.17078)">
    <path
       d="m 97.961976,157.51644 c -0.249761,-0.10078 -0.330729,-1.48587 -0.330729,-5.65773 v -5.52427 l -2.447396,-0.0761 -2.447396,-0.0761 -0.08158,-0.84205 c -0.06418,-0.66249 0.125746,-1.07153 0.890683,-1.91823 0.534744,-0.5919 1.196533,-1.07618 1.470641,-1.07618 0.418899,0 0.49838,-0.20254 0.49838,-1.27 0,-0.6985 0.142875,-1.41287 0.3175,-1.5875 0.2344,-0.2344 2.654258,-0.3175 9.245411,-0.3175 8.92591,0 8.928,1.4e-4 9.3398,0.58804 0.22653,0.32342 0.41187,1.0378 0.41187,1.5875 0,0.69255 0.11676,0.99946 0.38021,0.99946 0.20913,0 0.80341,0.44649 1.32061,0.99219 0.73227,0.77255 0.94094,1.21182 0.94271,1.98438 l 0.002,0.99218 h -2.51355 -2.51354 v 0.92604 c 0,1.02144 0.44277,1.27526 0.57691,0.33073 0.0605,-0.42624 0.29119,-0.61908 0.81216,-0.67903 0.70903,-0.0816 0.7276,-0.0495 0.7276,1.25677 0,0.73727 0.11906,1.34049 0.26458,1.34049 0.14552,0 0.26459,0.23813 0.26459,0.52917 0,0.42909 -0.1764,0.52917 -0.93266,0.52917 -0.82699,0 -0.95085,-0.091 -1.09324,-0.80294 -0.30639,-1.53195 -0.48833,-0.45522 -0.61994,3.66891 l -0.13229,4.14548 -0.82671,0.0804 c -0.92866,0.0904 -1.68683,-0.48944 -1.68683,-1.28996 0,-0.48507 -0.23519,-0.51027 -4.7625,-0.51027 h -4.7625 v 0.60854 c 0,0.3347 -0.14287,0.75142 -0.317501,0.92605 -0.317823,0.31782 -1.375804,0.39317 -1.997604,0.14227 z m 1.727473,-4.25654 0.07382,-3.50573 h 5.416281 5.41628 v 3.57187 3.57188 h 0.66146 0.66146 v -4.10609 -4.10608 l -0.59532,0.14466 c -0.41456,0.10074 -0.99104,-0.13873 -1.89865,-0.7887 -1.64798,-1.18019 -2.26853,-1.21838 -2.26853,-0.13963 v 0.79375 h -2.11667 -2.11667 v -0.81158 c 0,-0.71634 -0.0699,-0.79134 -0.59531,-0.63913 -0.32742,0.0949 -0.94905,0.42355 -1.38139,0.73045 -0.43235,0.30689 -1.20111,0.62545 -1.708354,0.7079 l -0.922266,0.14991 -0.09188,3.67191 c -0.05054,2.01955 -0.02646,3.84242 0.05352,4.05082 0.08237,0.21467 0.403969,0.3422 0.7419,0.29422 0.580305,-0.0824 0.598498,-0.17985 0.670322,-3.59043 z m 10.377211,-0.46303 v -2.51354 h -5.02708 -5.02708 v 2.51354 2.51355 h 5.02708 5.02708 z m -9.33745,1.0254 c -0.10315,-0.10315 -0.18755,-0.76302 -0.18755,-1.46637 0,-1.24939 0.0186,-1.27882 0.80758,-1.27882 h 0.80758 l -0.08,1.38907 c -0.0671,1.16497 -0.16709,1.40153 -0.62002,1.46636 -0.29703,0.0425 -0.62445,-0.007 -0.72761,-0.11024 z M 101.6,152.53229 c 0,-0.50932 -0.11907,-0.92604 -0.26459,-0.92604 -0.14552,0 -0.26458,0.41672 -0.26458,0.92604 0,0.50932 0.11906,0.92604 0.26458,0.92604 0.14552,0 0.26459,-0.41672 0.26459,-0.92604 z m 12.43541,-3.83646 c 0,-0.7276 -0.11906,-1.32291 -0.26458,-1.32291 -0.29181,0 -0.36994,2.1877 -0.0882,2.46944 0.31563,0.31563 0.35277,0.19489 0.35277,-1.14653 z m -13.39793,-1.14879 c 0.84139,-0.57098 0.8693,-0.63421 0.40733,-0.92272 -0.27278,-0.17036 -1.03336,-0.30974 -1.690181,-0.30974 -1.177055,0 -1.194215,0.0127 -1.194215,0.88195 0,0.48507 0.08571,0.96765 0.19047,1.07241 0.282176,0.28218 1.263582,-0.0277 2.286596,-0.7219 z m -1.9479,-0.0612 c 0,-0.24639 0.180015,-0.38137 0.441095,-0.33073 0.663779,0.12873 0.754922,0.747 0.11012,0.747 -0.324996,0 -0.551215,-0.17084 -0.551215,-0.41627 z m 13.1811,-0.21444 0.0842,-1.02759 -1.35657,0.13035 c -1.87473,0.18014 -2.07466,0.49218 -0.86863,1.35569 1.38516,0.99176 2.03348,0.85294 2.14097,-0.45845 z m -1.35753,0.45984 c -0.34505,-0.34505 -0.18031,-0.62288 0.36931,-0.62288 0.30791,0 0.50499,0.13869 0.44649,0.3142 -0.12889,0.38664 -0.57067,0.55381 -0.8158,0.30868 z m -3.88607,-0.0937 c 0,-0.47037 -0.17639,-0.52917 -1.5875,-0.52917 -1.41111,0 -1.5875,0.0588 -1.5875,0.52917 0,0.47037 0.17639,0.52917 1.5875,0.52917 1.41111,0 1.5875,-0.0588 1.5875,-0.52917 z m 2.23043,-1.88206 c -0.0798,-0.12904 -1.74531,-0.23461 -3.70125,-0.23461 -2.95261,0 -3.55626,0.066 -3.55626,0.38897 0,0.31803 0.61526,0.40248 3.37343,0.46302 3.20306,0.0703 4.21016,-0.0898 3.88408,-0.61738 z m -7.85168,-0.43304 c 0.0839,-0.25446 -0.78081,-0.33073 -3.74941,-0.33073 -4.232786,0 -5.378183,0.44701 -1.543402,0.60234 3.844036,0.1557 5.174372,0.0874 5.292812,-0.27161 z m 15.88978,-0.0478 c 0.064,-0.19194 -1.10413,-0.28294 -3.6319,-0.28294 -2.17077,0 -3.72621,0.10467 -3.72621,0.25075 0,0.50743 7.18923,0.53888 7.35811,0.0322 z m -7.88728,-0.54753 c 0,-0.15793 -1.01944,-0.26458 -2.52916,-0.26458 -1.61873,0 -2.47029,0.0952 -2.36563,0.26458 0.0899,0.14552 1.22806,0.26459 2.52916,0.26459 1.4007,0 2.36563,-0.10793 2.36563,-0.26459 z m -5.75608,-0.92604 -0.12644,-0.66146 h -4.156369 c -4.091364,0 -4.166087,0.0104 -4.777777,0.66146 l -0.621409,0.66146 h 4.904222 4.904223 z m 12.7432,0 c -0.4236,-0.64652 -0.50729,-0.66146 -3.70459,-0.66146 h -3.27118 l 0.30137,0.66146 c 0.29874,0.65565 0.33126,0.66146 3.7046,0.66146 h 3.40321 z m -8.47608,0.13521 c 1.1399,-0.003 1.24936,-0.0509 0.94532,-0.41724 -0.62742,-0.75598 -1.7937,-1.17318 -3.27968,-1.17318 -1.57252,0 -1.78158,0.24325 -1.17815,1.37078 0.23985,0.44817 0.45787,0.5145 1.25677,0.38239 0.53162,-0.0879 1.5467,-0.16115 2.25574,-0.16275 z m -4.15023,-1.87789 c 0.18662,-0.18663 0.97092,-0.22926 2.23573,-0.12154 1.07154,0.0913 3.41395,0.22753 5.20536,0.30282 l 3.25712,0.1369 -0.0821,-1.13983 -0.0821,-1.13984 -8.92969,-0.0697 -8.929683,-0.0697 v 1.19415 1.19414 h 3.518958 c 2.179985,0 3.628345,-0.10938 3.806435,-0.28747 z"
       style="fill:#2b1e17;fill-opacity:1;stroke-width:0.264583"
       id="path1" />
  </g>
</svg>
