<?xml version="1.0" encoding="UTF-8" standalone="no"?>
<!-- Created with Inkscape (http://www.inkscape.org/) -->

<svg
   width="24mm"
   height="24mm"
   viewBox="0 0 24 24"
   version="1.1"
   id="svg1"
   inkscape:version="1.4.2 (f4327f4, 2025-05-13)"
   sodipodi:docname="vise.svg"
   xmlns:inkscape="http://www.inkscape.org/namespaces/inkscape"
   xmlns:sodipodi="http://sodipodi.sourceforge.net/DTD/sodipodi-0.dtd"
   xmlns="http://www.w3.org/2000/svg"
   xmlns:svg="http://www.w3.org/2000/svg">
  <sodipodi:namedview
     id="namedview1"
     pagecolor="#ffffff"
     bordercolor="#000000"
     borderopacity="0.25"
     inkscape:showpageshadow="2"
     inkscape:pageopacity="0.0"
     inkscape:pagecheckerboard="0"
     inkscape:deskcolor="#d1d1d1"
     inkscape:document-units="mm"
     inkscape:zoom="0.68862935"
     inkscape:cx="45.74304"
     inkscape:cy="38.48224"
     inkscape:window-width="1920"
     inkscape:window-height="991"
     inkscape:window-x="-9"
     inkscape:window-y="-9"
     inkscape:window-maximized="1"
     inkscape:current-layer="layer1" />
  <defs
     id="defs1" />
  <g
     inkscape:label="Ebene 1"
     inkscape:groupmode="layer"
     id="layer1"
      transform="translate(0 1.5289) scale(1.008303) translate(-93.152454,-138.24475)">
    <path
       d="m 101.83655,158.68385 c -0.13626,-1.60731 0.91577,-3.99341 1.89816,-4.30521 0.37012,-0.11747 0.51112,-0.40495 0.51112,-1.04212 0,-0.93945 -0.33234,-1.20111 -1.5256,-1.20111 -1.25452,0 -2.93334,-1.02988 -3.637513,-2.23147 -0.361746,-0.61727 -0.65772,-1.30632 -0.65772,-1.53123 0,-0.2249 -0.26789,-0.48071 -0.595312,-0.56845 -1.358144,-0.36397 -1.343885,-0.40125 -1.191959,3.1166 0.09495,2.19849 0.04647,3.37869 -0.146717,3.57187 -0.46442,0.46442 -1.648441,0.33241 -2.168027,-0.24172 -0.399817,-0.4418 -0.428726,-0.64248 -0.173297,-1.20308 0.168609,-0.37006 0.306562,-1.71056 0.306562,-2.97889 0,-2.1377 -0.04346,-2.32513 -0.595312,-2.56724 -0.416171,-0.18258 -0.621083,-0.53096 -0.680953,-1.15768 -0.117097,-1.22581 0.148725,-2.14621 0.619847,-2.14621 0.271947,0 0.391835,-0.28534 0.391835,-0.93259 0,-0.75131 0.128577,-0.98147 0.661458,-1.18407 0.423934,-0.16118 0.909199,-0.1573 1.351365,0.0108 0.596233,0.22669 0.675296,0.38746 0.582295,1.18407 -0.05918,0.50698 -0.03619,0.92178 0.0511,0.92178 0.584097,0 1.625656,-0.78399 1.892131,-1.42422 0.456872,-1.09767 1.432517,-2.17863 3.034577,-3.36214 1.14907,-0.84887 1.61796,-1.03448 2.61336,-1.03448 h 1.21306 l -0.0773,2.05052 -0.0773,2.05052 -0.99219,0.0821 c -0.90289,0.0747 -0.99219,0.15212 -0.99219,0.8599 v 0.77777 h 2.66341 2.6634 l -0.0837,-0.7276 c -0.07,-0.60806 -0.23586,-0.74934 -1.00976,-0.8599 l -0.92604,-0.13229 v -2.11666 -2.11667 l 1.07189,0.0189 c 1.40324,0.0248 3.83077,1.78188 4.95059,3.58329 l 0.80349,1.29256 h 1.54291 c 1.4256,0 1.55555,0.0504 1.70913,0.66224 0.28929,1.15263 0.002,4.63267 -0.40291,4.883 -0.20209,0.12491 -0.94362,0.17358 -1.64783,0.10817 l -1.28039,-0.11894 v 3.6842 c 0,3.46168 0.032,3.69255 0.52916,3.82258 0.4418,0.11553 0.52917,0.36089 0.52917,1.48606 v 1.34769 h -6.35 c -4.88866,0 -6.35645,-0.0761 -6.37803,-0.33073 z m 11.93428,-1.12448 v -0.66146 h -5.55625 -5.55625 v 0.66146 0.66146 h 5.55625 5.55625 z m -1.19208,-7.9375 c -0.002,-7.1118 -0.0431,-7.30395 -1.91125,-8.84542 l -0.99771,-0.82326 -0.14819,4.56976 c -0.0815,2.51336 -0.1708,4.60319 -0.19843,4.64404 -0.0276,0.0409 -1.50877,0.0409 -3.2914,0 l -3.24115,-0.0743 -0.0724,-4.56407 c -0.0398,-2.51023 -0.13706,-4.56406 -0.21609,-4.56406 -0.44052,0 -2.07737,1.56044 -2.635045,2.51204 -0.564065,0.96251 -0.648218,1.43006 -0.647358,3.59662 7.94e-4,2.03039 0.09954,2.65194 0.534633,3.36558 0.81817,1.34195 2.3092,1.8901 5.16019,1.89703 3.0279,0.007 3.62963,0.34123 3.51246,1.94885 -0.0892,1.22461 -0.55969,1.39155 -0.69887,0.248 -0.13391,-1.10022 -0.52409,-1.41297 -1.66538,-1.33492 -0.99256,0.0679 -1.02242,0.0989 -1.0228,1.06211 -2.7e-4,0.81593 0.0936,0.99219 0.52878,0.99219 0.29398,0 0.52916,0.17639 0.52916,0.39688 0,0.2815 -0.28843,0.39805 -0.99218,0.40092 -1.07111,0.004 -1.80703,0.32751 -1.58049,0.69397 0.0775,0.12541 2.14661,0.22802 4.59796,0.22802 h 4.45701 z m -16.601024,3.90261 c 0.0639,-0.19194 -0.11466,-0.33073 -0.425482,-0.33073 -0.57862,0 -0.926862,0.34552 -0.638686,0.6337 0.266216,0.26621 0.938366,0.0748 1.064168,-0.30297 z m -0.198562,-3.50573 c 0,-1.41111 -0.107794,-2.38125 -0.264583,-2.38125 -0.15679,0 -0.264584,0.97014 -0.264584,2.38125 0,1.41111 0.107794,2.38125 0.264584,2.38125 0.156789,0 0.264583,-0.97014 0.264583,-2.38125 z m 12.832296,-2.11667 c 0,-0.32046 -0.49668,-0.41146 -2.57969,-0.4726 -2.04432,-0.06 -2.57969,-5.3e-4 -2.57969,0.28663 0,0.65305 0.34216,0.7345 2.7653,0.65821 1.91818,-0.0604 2.39408,-0.15426 2.39408,-0.47224 z m 7.41977,-0.61285 c 0.0846,-0.33706 0.11663,-1.20027 0.0712,-1.91823 l -0.0826,-1.30538 -1.25677,-0.0806 -1.25677,-0.0806 v 1.99887 1.99887 h 1.18558 c 1.01889,0 1.20721,-0.0862 1.3394,-0.61285 z m -17.606233,-1.50382 c 0,-0.7276 -0.119062,-1.32291 -0.264583,-1.32291 -0.145521,0 -0.264583,0.11906 -0.264583,0.26458 0,0.15287 -0.837849,0.26458 -1.984375,0.26458 h -1.984375 v 0.96424 0.96423 l 1.984375,-0.15008 c 1.144399,-0.0865 1.984375,-0.0467 1.984375,0.0941 0,0.1343 0.119062,0.24418 0.264583,0.24418 0.145521,0 0.264583,-0.59531 0.264583,-1.32292 z m 5.356423,0.1323 c -0.0695,-0.36381 -0.17209,-0.66146 -0.22789,-0.66146 -0.0558,0 -0.10145,0.29765 -0.10145,0.66146 0,0.3638 0.10255,0.66145 0.22789,0.66145 0.12535,0 0.171,-0.29765 0.10145,-0.66145 z m 0.82911,-0.0661 c -0.20125,-0.83885 -0.30716,-1.00563 -0.50987,-0.80292 -0.2163,0.2163 0.1645,1.53052 0.44348,1.53052 0.13251,0 0.16239,-0.32742 0.0664,-0.7276 z m 1.2228,0.61254 c 0,-0.0633 -0.11611,-0.42048 -0.25803,-0.79375 -0.37265,-0.98014 -0.84007,-0.87172 -0.49607,0.11506 0.15218,0.43657 0.38412,0.79375 0.5154,0.79375 0.13128,0 0.2387,-0.0518 0.2387,-0.11506 z m 1.05833,0 c 0,-0.0633 -0.11611,-0.42048 -0.25803,-0.79375 -0.37265,-0.98014 -0.84006,-0.87172 -0.49607,0.11506 0.15219,0.43657 0.38412,0.79375 0.5154,0.79375 0.13129,0 0.2387,-0.0518 0.2387,-0.11506 z m 0.55157,-1.29129 c -0.20626,-0.20625 -0.28698,-0.0984 -0.28698,0.3833 0,0.8724 0.37079,1.24554 0.48542,0.48849 0.0487,-0.32164 -0.0406,-0.71394 -0.19844,-0.87179 z m 0.92355,-0.11714 c -0.2874,-0.2874 -0.36985,0.0692 -0.19931,0.86204 l 0.17074,0.79375 0.0904,-0.7518 c 0.0497,-0.41348 0.0219,-0.82028 -0.0618,-0.90399 z m -12.455324,-1.65151 c 0,-0.21429 -0.20836,-0.42975 -0.463021,-0.47879 -0.324869,-0.0626 -0.463021,0.0803 -0.463021,0.47879 0,0.39851 0.138152,0.54136 0.463021,0.4788 0.254661,-0.049 0.463021,-0.2645 0.463021,-0.4788 z m 12.779244,-2.80328 c 0.0812,-1.10585 -0.43209,-1.9166 -0.9937,-1.5695 -0.30761,0.19011 -0.38159,2.32708 -0.0906,2.61804 0.48646,0.48646 1.00868,-0.0185 1.08433,-1.04854 z m -4.18029,-0.23942 c 0,-1.01424 -0.0784,-1.19063 -0.52916,-1.19063 -0.45077,0 -0.52917,0.17639 -0.52917,1.19063 0,1.01423 0.0784,1.19062 0.52917,1.19062 0.45077,0 0.52916,-0.17639 0.52916,-1.19062 z"
       style="fill:#2b1e17;fill-opacity:1;stroke-width:0.264583"
       id="path1" />
  </g>
</svg>

