<?xml version="1.0" encoding="UTF-8" standalone="no"?>
<!-- Created with Inkscape (http://www.inkscape.org/) -->

<svg
   width="21.119789mm"
   height="18.847719mm"
   viewBox="0 0 21.119789 18.847719"
   version="1.1"
   id="svg1"
   inkscape:version="1.4.2 (f4327f4, 2025-05-13)"
   sodipodi:docname="knob.svg"
   xmlns:inkscape="http://www.inkscape.org/namespaces/inkscape"
   xmlns:sodipodi="http://sodipodi.sourceforge.net/DTD/sodipodi-0.dtd"
   xmlns="http://www.w3.org/2000/svg"
   xmlns:svg="http://www.w3.org/2000/svg">
  <sodipodi:namedview
     id="namedview1"
     pagecolor="#ffffff"
     bordercolor="#000000"
     borderopacity="0.25"
     inkscape:showpageshadow="2"
     inkscape:pageopacity="0.0"
     inkscape:pagecheckerboard="0"
     inkscape:deskcolor="#d1d1d1"
     inkscape:document-units="mm"
     inkscape:zoom="0.68862935"
     inkscape:cx="39.9344"
     inkscape:cy="35.57792"
     inkscape:window-width="1920"
     inkscape:window-height="991"
     inkscape:window-x="-9"
     inkscape:window-y="-9"
     inkscape:window-maximized="1"
     inkscape:current-layer="layer1" />
  <defs
     id="defs1" />
  <g
     inkscape:label="Ebene 1"
     inkscape:groupmode="layer"
     id="layer1"
     transform="translate(-94.503121,-139.17083)">
    <path
       d="m 103.82209,157.704 c -2.09132,-0.73801 -3.00026,-1.30223 -3.11783,-1.93538 -0.0603,-0.32477 -0.23515,-1.56592 -0.38854,-2.7581 -0.16848,-1.30943 -0.539777,-2.68243 -0.937847,-3.46798 -0.592945,-1.17012 -0.820323,-1.36073 -2.269866,-1.90282 -2.138656,-0.79981 -2.743277,-1.57157 -2.57959,-3.29269 0.08688,-0.9135 0.29464,-1.4441 0.691177,-1.7652 0.640368,-0.51854 9.115296,-3.411 9.994256,-3.411 0.8802,0 9.02106,2.91536 9.75671,3.49402 0.54504,0.42872 0.65235,0.74107 0.65235,1.89857 0,0.77045 -0.16457,1.61049 -0.37073,1.89244 -0.20389,0.27885 -1.12662,0.80762 -2.05051,1.17504 -1.55473,0.61832 -1.73388,0.7764 -2.40617,2.12326 -0.5171,1.03597 -0.79345,2.12199 -0.95923,3.76965 -0.12808,1.27294 -0.39652,2.51268 -0.59655,2.75497 -0.37023,0.44848 -2.11209,1.30627 -3.40625,1.67743 -0.47218,0.13542 -1.15587,0.0497 -2.01138,-0.25221 z m 3.41293,-1.19052 1.46754,-0.64901 0.15125,-1.5338 c 0.14698,-1.49046 0.72597,-4.24932 1.08237,-5.15745 0.14698,-0.37453 -0.1583,-0.3199 -1.84795,0.33073 -1.11321,0.42866 -2.4851,0.77938 -3.04865,0.77938 -0.56355,0 -1.93544,-0.35072 -3.04865,-0.77938 -1.68137,-0.64744 -1.991731,-0.70343 -1.8333,-0.33073 0.64837,1.5252 0.9246,2.64193 1.10564,4.46992 l 0.20444,2.06415 1.4365,0.7276 c 1.76646,0.89473 2.45704,0.90727 4.33081,0.0786 z m -2.28363,-0.32112 c -0.28298,-0.28297 -0.20298,-4.80304 0.0882,-4.98299 0.16969,-0.10487 0.26458,0.79101 0.26458,2.49793 0,2.66006 -0.0221,2.81574 -0.35277,2.48506 z m 4.777,-8.17853 c 4.938,-1.86369 5.10077,-1.96716 5.10077,-3.24228 0,-0.55091 -0.14882,-1.19052 -0.33073,-1.42135 -0.1819,-0.23082 -2.34209,-1.10265 -4.80043,-1.93739 l -4.46971,-1.51771 -4.56321,1.49397 c -2.50977,0.82168 -4.678938,1.64099 -4.820374,1.82068 -0.38495,0.48905 -0.551114,1.56657 -0.354415,2.29823 0.148511,0.55241 0.800833,0.89313 4.398807,2.29758 2.323442,0.90694 4.608002,1.65687 5.076792,1.6665 0.4688,0.01 2.61193,-0.64657 4.7625,-1.45823 z m -4.09711,-1.48998 c 0.0587,-0.17595 1.87132,-0.95288 4.02817,-1.72653 3.58044,-1.28428 4.63216,-1.51969 3.96145,-0.88669 -0.20765,0.19596 -7.66141,2.93312 -7.98742,2.93312 -0.0599,0 -0.0609,-0.14396 -0.002,-0.3199 z m -5.712631,-1.27105 c -3.45907,-1.30859 -3.805991,-1.47657 -3.559201,-1.72336 0.16039,-0.1604 6.423842,2.02056 7.539092,2.62513 l 0.74417,0.40341 -0.66146,-0.009 c -0.36381,-0.005 -2.19198,-0.58826 -4.062601,-1.29593 z"
       style="fill:#2b1e17;fill-opacity:1;stroke-width:0.264583"
       id="path1" />
  </g>
</svg>
