<?xml version="1.0" encoding="UTF-8" standalone="no"?>
<!-- Created with Inkscape (http://www.inkscape.org/) -->

<svg
   width="29.038424mm"
   height="21.286528mm"
   viewBox="0 0 29.038424 21.286528"
   version="1.1"
   id="svg1"
   inkscape:version="1.4.2 (f4327f4, 2025-05-13)"
   sodipodi:docname="lamello.svg"
   xmlns:inkscape="http://www.inkscape.org/namespaces/inkscape"
   xmlns:sodipodi="http://sodipodi.sourceforge.net/DTD/sodipodi-0.dtd"
   xmlns="http://www.w3.org/2000/svg"
   xmlns:svg="http://www.w3.org/2000/svg">
  <sodipodi:namedview
     id="namedview1"
     pagecolor="#ffffff"
     bordercolor="#000000"
     borderopacity="0.25"
     inkscape:showpageshadow="2"
     inkscape:pageopacity="0.0"
     inkscape:pagecheckerboard="0"
     inkscape:deskcolor="#d1d1d1"
     inkscape:document-units="mm"
     inkscape:zoom="0.68862935"
     inkscape:cx="54.456"
     inkscape:cy="39.9344"
     inkscape:window-width="1920"
     inkscape:window-height="991"
     inkscape:window-x="-9"
     inkscape:window-y="-9"
     inkscape:window-maximized="1"
     inkscape:current-layer="layer1" />
  <defs
     id="defs1" />
  <g
     inkscape:label="Ebene 1"
     inkscape:groupmode="layer"
     id="layer1"
     transform="translate(-90.519325,-137.97084)">
    <path
       d="m 95.034805,157.44115 c -2.228408,-0.9866 -4.172482,-1.91466 -4.320163,-2.06234 -0.147681,-0.14768 -0.229438,-0.60547 -0.181681,-1.01731 0.06793,-0.58583 0.360363,-0.89386 1.343601,-1.41525 1.199238,-0.63594 1.256771,-0.7182 1.256771,-1.79697 0,-0.95414 -0.08256,-1.13053 -0.529167,-1.13053 -0.291041,0 -0.767291,-0.23812 -1.058333,-0.52916 -0.291042,-0.29105 -0.529167,-0.7673 -0.529167,-1.05834 0,-0.76849 0.972988,-1.65024 1.601034,-1.45091 0.472605,0.15 0.515633,0.0291 0.515633,-1.44822 0,-1.5107 0.04518,-1.62906 0.719752,-1.88553 0.780081,-0.29659 0.796577,-0.29359 3.06863,0.55654 0.846683,0.31681 1.594155,0.52128 1.661048,0.45439 0.06689,-0.0669 -7.67e-4,-0.44355 -0.150361,-0.837 -0.149592,-0.39346 -0.271986,-1.57985 -0.271986,-2.63641 0,-1.65435 0.08264,-1.99667 0.595313,-2.46591 0.327422,-0.29968 0.866027,-0.62701 1.196901,-0.7274 0.80949,-0.2456 7.17537,1.84226 7.79799,2.55755 0.45995,0.52842 0.47306,0.52647 2.84609,-0.42333 2.53858,-1.01604 3.82325,-1.17944 4.63074,-0.58899 0.43149,0.31551 0.66132,0.29579 1.68944,-0.14491 1.62032,-0.69455 2.51764,-0.56826 2.62567,0.36954 0.0739,0.64154 -0.0811,0.8027 -1.38906,1.44418 -1.39283,0.68311 -1.47225,0.77509 -1.47225,1.70498 0,1.41733 -0.8392,2.2548 -4.00829,4 -3.90646,2.15127 -3.67262,1.91026 -2.68678,2.76914 0.72921,0.63531 0.85663,0.93592 0.92604,2.18481 l 0.0805,1.44814 -1.85209,1.02483 c -7.16524,3.96482 -9.05192,4.9398 -9.521357,4.92034 -0.293043,-0.0122 -2.356049,-0.82932 -4.584458,-1.81593 z m 4.383435,0.7167 c -0.09307,-0.27921 -7.370088,-3.60943 -7.938553,-3.63296 -0.10914,-0.005 -0.198437,0.0932 -0.198437,0.21719 0,0.22312 1.588169,1.00075 5.688541,2.78534 2.380599,1.0361 2.602738,1.0933 2.448449,0.63043 z m 2.88253,-0.87691 c 1.2153,-0.66247 2.20965,-1.31731 2.20965,-1.45521 0,-0.1379 -0.0893,-0.23992 -0.19844,-0.22671 -0.53323,0.0645 -4.417304,2.26738 -4.506189,2.55567 -0.159212,0.51638 0.131543,0.41456 2.494979,-0.87375 z m -1.41783,-0.43054 1.11393,-0.57669 -0.99218,-0.38525 c -0.75054,-0.29143 -0.99219,-0.5347 -0.99219,-0.99883 0,-0.95692 -1.535237,-1.15222 -2.639526,-0.33579 -0.689608,0.50985 -2.387558,0.93664 -2.387558,0.60012 0,-0.052 0.386953,-0.29273 0.859896,-0.53496 0.472943,-0.24224 1.122103,-0.69963 1.442578,-1.01642 0.320475,-0.31679 1.06325,-0.80627 1.65061,-1.08772 0.776988,-0.37232 1.06876,-0.67392 1.07096,-1.10704 0.003,-0.67835 -0.194512,-0.72974 -0.861452,-0.22364 -0.278308,0.21119 -0.40074,0.52912 -0.302422,0.78533 0.181597,0.47324 -0.533719,0.62501 -0.81334,0.17258 -0.09128,-0.14769 -0.671204,0.0606 -1.356988,0.48748 -1.053077,0.65545 -1.315085,0.7144 -2.171318,0.48855 -0.825164,-0.21766 -1.128535,-0.16493 -1.988328,0.34562 l -1.014596,0.60247 1.781178,0.75986 c 1.000508,0.42681 1.998937,0.69074 2.278014,0.60216 0.311091,-0.0987 0.469621,-0.04 0.424042,0.15723 -0.06136,0.26544 2.936019,1.80074 3.575769,1.83156 0.114938,0.006 0.710251,-0.24944 1.322921,-0.56662 z m 1.70355,-3.85508 c -0.0571,-0.54571 -0.10379,-0.0992 -0.10379,0.99218 0,1.09141 0.0467,1.53789 0.10379,0.99219 0.0571,-0.5457 0.0571,-1.43867 0,-1.98437 z m 3.04841,2.47595 c 0.3098,-0.23517 0.46302,-0.71392 0.46302,-1.44679 0,-1.22366 0.0321,-1.19502 -0.93019,-0.82915 -0.62743,0.23855 -0.68515,0.36893 -0.55639,1.25677 0.079,0.54484 0.14817,1.07991 0.15367,1.18905 0.0147,0.29257 0.34588,0.2279 0.86989,-0.16988 z m -3.77032,-3.83622 v -3.93996 l -3.77031,-1.39057 c -2.073671,-0.76481 -3.91914,-1.44535 -4.101041,-1.51231 -0.25473,-0.0938 -0.330729,0.73792 -0.330729,3.61926 0,3.63774 0.01643,3.7471 0.595312,3.96181 0.589154,0.21852 0.596093,0.1938 0.670714,-2.38978 0.05106,-1.76782 0.17494,-2.61058 0.383737,-2.61058 0.169585,0 1.415576,0.42902 2.768869,0.95338 l 2.460538,0.95338 v 2.8916 c 0,3.00178 0.0273,3.07521 1.25677,3.38695 0.0364,0.009 0.0661,-1.75621 0.0661,-3.92318 z m 2.11667,2.48474 c 0,-0.76393 -0.12952,-1.18371 -0.39688,-1.2863 -0.32279,-0.12387 -0.39687,0.11625 -0.39687,1.2863 0,1.17006 0.0741,1.41018 0.39687,1.28631 0.26736,-0.10259 0.39688,-0.52237 0.39688,-1.28631 z m 4.69708,-0.36759 c 1.43331,-0.77761 1.65292,-0.99732 1.65292,-1.65364 0,-0.97524 -0.34705,-0.95831 -2.12837,0.1038 -1.23394,0.73574 -1.45585,0.98953 -1.52853,1.74813 -0.0468,0.4881 0.0131,0.84493 0.13302,0.79296 0.11992,-0.052 0.96185,-0.49803 1.87096,-0.99125 z m -8.66583,-0.56776 c 0,-0.46784 -0.0741,-0.49882 -0.564912,-0.23614 -0.451344,0.24155 -0.491237,0.34899 -0.198438,0.53442 0.570138,0.36108 0.76335,0.28558 0.76335,-0.29828 z m -4.304578,-4.03357 c -0.05549,-0.61407 -0.10023,-0.0449 -0.09942,1.26476 7.94e-4,1.30969 0.04621,1.81211 0.10089,1.11649 0.05468,-0.69561 0.05402,-1.76717 -0.0015,-2.38125 z m 10.075318,2.80401 c 0.11413,-0.80166 -0.90471,-1.3593 -1.46318,-0.80083 -0.24945,0.24945 -0.32659,0.60307 -0.211,0.96725 0.2523,0.79492 1.55577,0.66535 1.67418,-0.16642 z m 2.72642,-0.38567 c 1.4395,-0.74918 1.55616,-0.87094 1.1876,-1.23951 -0.36857,-0.36857 -0.54115,-0.34669 -1.75681,0.22269 -1.52183,0.71279 -1.64476,0.83647 -1.41821,1.42686 0.20785,0.54166 0.12657,0.55843 1.98742,-0.41004 z m -4.71204,-0.28572 c 0.41604,-0.66537 0.41671,-0.70687 0.009,-0.55035 -0.29681,0.1139 -0.37856,0.068 -0.24985,-0.14026 0.10522,-0.17025 0.0722,-0.30954 -0.0733,-0.30954 -0.14552,0 -0.33817,0.11906 -0.4281,0.26458 -0.0899,0.14552 -0.0352,0.26458 0.12172,0.26458 0.17709,0 0.21906,0.27586 0.11068,0.72761 -0.19428,0.80982 -0.1396,0.78231 0.51001,-0.25662 z m -6.283086,0.19889 c 0.282475,-0.21366 0.388575,-0.39225 0.235778,-0.39688 -0.152797,-0.005 -0.43407,0.14041 -0.62505,0.32232 -0.282818,0.26937 -0.31607,0.22721 -0.179235,-0.22723 0.109862,-0.36487 0.01144,-0.68535 -0.284384,-0.92604 -0.400381,-0.32577 -0.431484,-0.31237 -0.270557,0.11657 0.100007,0.26657 0.18183,0.71305 0.18183,0.99219 0,0.60826 0.252614,0.6402 0.941618,0.11907 z m 1.729538,-0.85921 c 0.938738,-0.55453 0.953068,-0.69993 0.106969,-1.08544 -0.580499,-0.26449 -0.661458,-0.23922 -0.661458,0.2065 0,0.27933 -0.119063,0.58146 -0.264583,0.6714 -0.286081,0.17681 -0.364457,0.66146 -0.106969,0.66146 0.08669,0 0.503406,-0.20427 0.926041,-0.45392 z m 8.471468,-0.38855 c 0.56551,-0.31784 1.02821,-0.66833 1.02821,-0.77888 0,-0.21683 -2.35032,0.73794 -2.7649,1.12319 -0.50386,0.46822 0.72417,0.22475 1.73669,-0.34431 z m -5.242,-3.13424 c -0.4276,-0.39112 -7.545013,-2.93019 -7.972696,-2.84418 -0.242808,0.0488 1.433765,0.78926 3.725718,1.64541 l 4.167188,1.55662 0.051,1.61099 0.051,1.61099 0.095,-1.69292 c 0.0522,-0.9311 -4.8e-4,-1.78021 -0.11713,-1.88691 z m -4.577707,2.41606 c 0,-0.25909 -0.284244,-0.60059 -0.631654,-0.75888 -0.573734,-0.26141 -0.618752,-0.23498 -0.490952,0.28826 0.293685,1.20241 1.122606,1.54991 1.122606,0.47062 z m 8.114297,0.57212 c 0.37818,-0.15198 0.28121,-0.22464 -0.44138,-0.33073 -0.91648,-0.13455 -0.92741,-0.15174 -1.05833,-1.66452 -0.13199,-1.52502 -0.13367,-1.52759 -0.72761,-1.10947 -0.44794,0.31534 -0.59531,0.68053 -0.59531,1.47519 0,0.93844 0.0958,1.09774 0.8599,1.42985 1.00019,0.43472 1.30157,0.46539 1.96273,0.19968 z m -13.345096,-2.12033 c 0.194445,-0.2395 0.14781,-0.33073 -0.169066,-0.33073 -0.538236,0 -0.81133,0.63486 -0.540621,1.25677 0.183757,0.42216 0.21212,0.41632 0.321362,-0.0661 0.0659,-0.29104 0.240646,-0.678 0.388325,-0.8599 z m 13.429956,0.72214 c -0.29683,-0.55463 -0.15736,-1.05287 0.29472,-1.05287 0.14331,0 0.22558,0.17079 0.18283,0.37953 -0.0428,0.20874 0.0413,0.35756 0.18683,0.33073 0.14553,-0.0268 0.22881,-0.40683 0.18508,-0.84441 -0.0437,-0.43759 0.10511,-1.23744 0.33073,-1.77744 0.22727,-0.54394 0.41024,-1.74595 0.41024,-2.69511 0,-2.11187 -0.079,-2.17903 -4.12982,-3.51226 -2.65748,-0.87464 -3.02579,-0.93616 -3.766982,-0.62915 -0.951866,0.39428 -1.266285,1.43807 -1.005754,3.33885 0.177228,1.29302 0.891399,3.18986 1.116317,2.96494 0.07937,-0.0794 -0.04125,-0.58844 -0.268057,-1.13127 -0.450629,-1.0785 -0.537067,-2.69707 -0.174593,-3.26927 0.190043,-0.3 0.543203,-0.25872 2.046469,0.2392 0.99924,0.33098 2.32281,0.81732 2.94127,1.08077 l 1.12448,0.479 v 2.65524 c 0,1.59377 -0.10577,2.65524 -0.26458,2.65524 -0.14552,0 -0.26459,0.12609 -0.26459,0.28019 0,0.15411 0.11907,0.20662 0.26459,0.11668 0.14552,-0.0899 0.26458,0.0816 0.26458,0.38126 0,0.31341 0.17251,0.54478 0.40618,0.54478 0.32558,0 0.34941,-0.10609 0.12006,-0.53463 z m -0.24077,-2.26554 c 0.0127,-0.30822 0.0754,-0.37092 0.15985,-0.15985 0.0764,0.19099 0.067,0.4192 -0.0209,0.50712 -0.0879,0.0879 -0.15045,-0.0684 -0.13896,-0.34727 z m 0.29264,-2.01125 c -0.0873,-2.21143 -0.25497,-2.39575 -3.1586,-3.4728 -1.44745,-0.53691 -2.82819,-0.97619 -3.068323,-0.97619 -0.240132,0 -0.436604,-0.11907 -0.436604,-0.26459 0,-0.40349 0.238769,-0.34763 3.547387,0.82988 3.43393,1.22211 3.43309,1.22117 3.26406,3.68218 l -0.099,1.44107 z m 1.92792,4.29441 c 0.0858,-0.13884 1.69771,-1.09745 3.582,-2.13026 1.8843,-1.0328 3.60706,-2.13632 3.82836,-2.45227 0.2213,-0.31595 0.40236,-1.08915 0.40236,-1.71823 0,-1.42232 -0.88162,-2.44264 -2.11058,-2.44264 -1.08252,0 -5.55073,1.83905 -5.40308,2.22383 0.0631,0.16448 -0.0128,1.07086 -0.16876,2.01417 -0.6831,4.13228 -0.72156,5.46207 -0.1303,4.5054 z m 0.31619,-1.24688 c -0.097,-0.097 -0.17639,-0.56189 -0.17639,-1.03307 0,-0.76327 0.15991,-0.94694 1.4665,-1.68433 0.80658,-0.45521 1.58049,-0.7572 1.7198,-0.6711 0.13931,0.0861 0.25329,0.60096 0.25329,1.14414 0,0.93467 -0.0783,1.026 -1.46107,1.70418 -1.63803,0.80336 -1.5618,0.78051 -1.80213,0.54018 z m 1.80799,-0.95908 c 0.76686,-0.43301 1.08139,-0.79616 1.14205,-1.31856 0.10118,-0.87127 -0.0455,-0.88323 -1.40664,-0.11466 -0.76686,0.43301 -1.08139,0.79616 -1.14205,1.31856 -0.10117,0.87127 0.0455,0.88323 1.40664,0.11466 z m 3.04271,-1.63586 c 0,-0.20936 1.62699,-0.98154 1.76896,-0.83956 0.0728,0.0728 -0.23004,0.31966 -0.6729,0.54868 -0.83945,0.43409 -1.09606,0.50219 -1.09606,0.29088 z m 0.15222,-1.02167 c 0.16988,-0.44268 1.96444,-1.32088 1.96444,-0.96133 0,0.25789 -1.53215,1.3118 -1.90992,1.31376 -0.10458,5.6e-4 -0.12911,-0.15805 -0.0545,-0.35243 z m -0.41681,-0.65619 c 0,-0.11873 0.49159,-0.49215 1.09241,-0.82983 1.25766,-0.70685 1.33346,-0.18369 0.08,0.55191 -0.88331,0.51836 -1.17239,0.58689 -1.17239,0.27792 z m -0.39571,-0.84436 c 0.24277,-0.3928 1.70848,-1.10393 2.04448,-0.99193 0.15949,0.0532 -0.15304,0.35805 -0.69452,0.67753 -1.04845,0.6186 -1.62027,0.75178 -1.34996,0.3144 z m -8.58698,4.09613 c 1.10053,-0.5691 1.07384,-1.55901 -0.0526,-1.95169 -0.45828,-0.15976 -0.99406,-0.29047 -1.19063,-0.29047 -0.67441,0 -0.35695,0.42302 0.56865,0.75772 0.50932,0.18418 0.92604,0.44864 0.92604,0.5877 0,0.13906 -0.4715,0.0123 -1.04779,-0.28171 -1.22657,-0.62575 -1.55862,-0.64781 -2.2191,-0.14741 -0.45459,0.34442 -0.39909,0.41696 0.79375,1.0376 1.54934,0.80612 1.28627,0.77199 2.2217,0.28826 z m -2.9484,-2.96897 c -0.13186,-0.34681 -0.23974,-0.91627 -0.23974,-1.26548 0,-0.35678 -0.22403,-0.75482 -0.5114,-0.90862 -0.911118,-0.48761 -1.013225,0.66394 -0.23837,2.68833 0.23121,0.60405 0.34639,0.66767 0.75116,0.41489 0.37353,-0.23327 0.42565,-0.43647 0.23835,-0.92912 z m 3.92084,0.46223 c -0.0426,-0.56506 -0.17112,-0.62204 -0.83165,-0.36857 -0.75627,0.29021 -0.45042,0.6748 0.68952,0.86704 0.1001,0.0169 0.16406,-0.20743 0.14213,-0.49847 z m -1.65324,-1.61318 c -1.83814,-0.81107 -2.22685,-0.66285 -1.72479,0.65767 l 0.25338,0.66644 1.26177,-0.42993 1.26177,-0.42993 z m 15.48433,-2.4083 c 0,-0.32334 -0.62797,-0.25412 -1.67915,0.18509 -0.63744,0.26634 -0.90175,0.52274 -0.80332,0.77926 0.12235,0.31884 0.3406,0.28812 1.31459,-0.18509 0.64233,-0.31207 1.16788,-0.66273 1.16788,-0.77926 z"
       style="fill:#2b1e17;fill-opacity:1;stroke-width:0.264583"
       id="path1" />
  </g>
</svg>
