<?xml version="1.0" encoding="UTF-8" standalone="no"?>
<!-- Created with Inkscape (http://www.inkscape.org/) -->

<svg
   width="24"
   height="24"
   viewBox="0 0 48 47.999999"
   version="1.1"
   id="svg1"
   inkscape:version="1.4.2 (f4327f4, 2025-05-13)"
   sodipodi:docname="long_console_table_carcass.svg"
   xmlns:inkscape="http://www.inkscape.org/namespaces/inkscape"
   xmlns:sodipodi="http://sodipodi.sourceforge.net/DTD/sodipodi-0.dtd"
   xmlns="http://www.w3.org/2000/svg"
   xmlns:svg="http://www.w3.org/2000/svg">
  <sodipodi:namedview
     id="namedview1"
     pagecolor="#ffffff"
     bordercolor="#000000"
     borderopacity="0.25"
     inkscape:showpageshadow="2"
     inkscape:pageopacity="0.0"
     inkscape:pagecheckerboard="0"
     inkscape:deskcolor="#d1d1d1"
     inkscape:document-units="mm"
     inkscape:zoom="15.581903"
     inkscape:cx="20.055316"
     inkscape:cy="17.809121"
     inkscape:window-width="1920"
     inkscape:window-height="991"
     inkscape:window-x="-9"
     inkscape:window-y="-9"
     inkscape:window-maximized="1"
     inkscape:current-layer="layer1" />
  <defs
     id="defs1" />
  <g
     inkscape:label="Ebene 1"
     inkscape:groupmode="layer"
     id="layer1"
     transform="translate(-75.134041,-97.287901)">
    <path
       d="m 88.229871,136.56392 c -0.51345,-0.36713 -0.595312,-0.664 -0.595312,-2.15876 0,-1.54838 -0.04935,-1.71234 -0.463021,-1.53832 -0.254661,0.10713 -1.058333,0.22408 -1.785937,0.25989 -0.727605,0.0358 -1.659118,0.1546 -2.070032,0.26399 -1.131451,0.30118 -2.03101,-0.21593 -2.03101,-1.16752 0,-0.84501 -0.543568,-1.34528 -2.5835,-2.37771 l -1.128292,-0.57104 0.06996,-8.12247 0.06996,-8.12246 2.645833,-0.59178 c 1.455209,-0.32548 7.348802,-1.73252 13.096875,-3.12676 5.748073,-1.39424 12.486575,-3.02367 14.974465,-3.62094 l 4.52344,-1.08596 3.84914,1.66369 3.84915,1.66371 0.0959,3.93193 c 0.0527,2.16256 0.0527,5.70362 -1.2e-4,7.86901 l -0.096,3.93708 -1.69173,0.45793 -1.69172,0.45793 v 2.22525 c 0,2.13815 -0.0269,2.23748 -0.6861,2.53785 -0.55137,0.25122 -0.82412,0.23547 -1.38906,-0.0802 -0.56049,-0.31322 -0.71952,-0.62028 -0.78462,-1.51493 -0.0449,-0.61715 -0.17949,-1.06162 -0.29907,-0.98772 -0.11958,0.0739 -4.9644,1.44138 -10.76626,3.03884 -5.801861,1.59745 -10.995328,3.03358 -11.541031,3.19139 -0.981824,0.28392 -0.99223,0.3013 -0.996238,1.66354 -0.0021,0.75716 -0.09744,1.52366 -0.21159,1.70337 -0.351965,0.55414 -1.708938,0.66963 -2.364047,0.20121 z m 1.85242,-2.72129 c 0.09057,-1.35474 0.04081,-1.89961 -0.167201,-1.83084 -0.175982,0.0582 -0.327988,0.94781 -0.374605,2.19241 -0.09903,2.64394 0.361407,2.33668 0.541806,-0.36157 z m -1.152536,0.34126 c -0.03062,-0.94589 -0.155974,-1.71979 -0.278561,-1.71979 -0.122587,0 -0.222885,0.7739 -0.222885,1.71979 0,1.02767 0.112106,1.71979 0.278561,1.71979 0.172167,0 0.257297,-0.65685 0.222885,-1.71979 z M 83.401226,132.612 c 0,-0.0642 -0.119063,-0.19026 -0.264584,-0.28019 -0.145521,-0.0899 -0.264583,-0.0374 -0.264583,0.11667 0,0.15411 0.119062,0.2802 0.264583,0.2802 0.145521,0 0.264584,-0.0525 0.264584,-0.11668 z m -1.058334,-0.39687 c 0,-0.13693 -0.119062,-0.32255 -0.264583,-0.41249 -0.145521,-0.0899 -0.264583,0.0221 -0.264583,0.24897 0,0.22687 0.119062,0.41249 0.264583,0.41249 0.145521,0 0.264583,-0.11204 0.264583,-0.24897 z m 18.917708,-4.00115 c 8.00364,-2.17898 15.50458,-4.23159 16.66874,-4.56137 l 2.11667,-0.59958 0.0706,-6.98456 c 0.0388,-3.84151 -0.0207,-7.07445 -0.13229,-7.18431 -0.11161,-0.10986 -7.94198,1.73506 -17.40084,4.09982 l -17.197909,4.29957 -0.07025,7.61999 -0.07025,7.61998 0.731711,-0.17388 c 0.402441,-0.0956 7.280148,-1.95668 15.283788,-4.13566 z m -15.33898,3.50732 c -0.07653,-0.0765 -0.139144,-3.27219 -0.139144,-7.10147 v -6.96232 l 0.595312,-0.14082 c 1.662306,-0.39321 32.411322,-8.10463 32.808322,-8.22786 0.43264,-0.13429 0.46303,0.29951 0.46303,6.60978 v 6.7535 l -1.78594,0.528 c -0.98227,0.2904 -7.32235,2.02928 -14.08906,3.86419 -6.766717,1.83489 -13.520431,3.66917 -15.008249,4.07616 -1.487821,0.40699 -2.767743,0.67737 -2.844271,0.60084 z m 9.062027,-3.001 c 4.405799,-1.19299 7.918133,-2.25014 7.805203,-2.34923 -0.11294,-0.0991 -1.40536,-0.80837 -2.87206,-1.57619 l -2.666728,-1.39603 -5.336918,1.40011 -5.336919,1.4001 v 2.33877 c 0,1.28632 0.0893,2.34164 0.198438,2.34515 0.109141,0.004 3.803182,-0.9697 8.208984,-2.16268 z m 9.584243,-8.83953 c 0,-3.42833 -0.0944,-6.17499 -0.20972,-6.10371 -0.32063,0.19816 -0.37615,12.33704 -0.0564,12.33704 0.17093,0 0.26614,-2.22992 0.26614,-6.23333 z m -1.05834,-0.0127 c 0,-4.67451 -0.0723,-5.95449 -0.33073,-5.85814 -0.1819,0.0678 -1.49158,0.40163 -2.91041,0.74184 l -2.579685,0.61856 v 1.13613 1.13614 l 2.645835,1.32775 c 2.47487,1.24195 2.64583,1.3794 2.64583,2.12738 0,0.4398 -0.16236,0.86194 -0.36079,0.93809 -0.19842,0.0761 -1.38905,-0.33662 -2.645825,-0.91725 l -2.28505,-1.0557 v 1.42043 1.42043 l 2.711975,1.44602 c 1.49159,0.79531 2.80127,1.45811 2.91042,1.47289 0.10914,0.0148 0.19843,-2.66477 0.19843,-5.95456 z m 5.89767,4.94477 c 7.43275,-2.04947 8.92353,-2.50351 8.72438,-2.65716 -0.11124,-0.0858 -1.4198,-0.74219 -2.90792,-1.4586 l -2.70567,-1.30255 -2.85058,0.75445 c -1.56782,0.41495 -3.17801,0.80927 -3.57819,0.87627 l -0.7276,0.12182 v 2.35122 c 0,1.29317 0.0643,2.35122 0.14297,2.35122 0.0786,0 1.83481,-0.46649 3.90261,-1.03666 z m -13.189152,-1.82402 c 0.76237,-0.2034 0.776819,-0.23988 0.706022,-1.78234 -0.0469,-1.02178 -0.204049,-1.64898 -0.447569,-1.78627 -0.559356,-0.31535 -0.481055,-1.68341 0.105122,-1.8367 0.374396,-0.0979 0.457176,-0.32473 0.375094,-1.02782 l -0.105325,-0.90218 -4.409988,1.09668 c -2.425496,0.60317 -4.737412,1.17313 -5.137594,1.26657 l -0.727605,0.16992 v 3.66783 3.66784 l 4.431771,-1.16294 c 2.437474,-0.63961 4.782005,-1.25637 5.210072,-1.37058 z m 22.901902,-7.18131 v -5.77744 l -2.40314,0.61147 c -1.32172,0.33631 -2.45351,0.66185 -2.51509,0.72343 -0.0616,0.0616 0.90077,0.56321 2.13855,1.11474 2.18085,0.97175 2.25051,1.0304 2.25051,1.89463 0,1.20089 -0.39965,1.16673 -3.39264,-0.28998 l -2.42819,-1.18183 v 1.80014 1.80015 l 2.91042,1.3505 c 2.77549,1.2879 2.91041,1.38803 2.91041,2.15981 0,1.07399 -0.34168,1.0466 -3.10649,-0.24903 -3.42019,-1.60276 -3.26962,-1.23078 0.19608,0.48441 1.67349,0.82821 3.132,1.46773 3.24114,1.42114 0.10914,-0.0466 0.19844,-2.68455 0.19844,-5.86214 z m -17.34344,5.30372 c -0.46554,-0.44519 -4.952307,-2.68749 -5.09402,-2.54578 -0.198983,0.19898 -0.175094,0.21404 2.461424,1.55145 2.325206,1.17949 3.153286,1.49225 2.632596,0.99433 z m 0.67469,-0.41868 c 0,-0.1606 -5.204111,-2.78574 -5.485291,-2.76697 -0.156922,0.0105 5.131811,2.82438 5.419151,2.88329 0.0364,0.007 0.0661,-0.0449 0.0661,-0.11632 z m 6.15591,-0.94314 c 4.07312,-1.10788 3.85664,-1.01466 3.30294,-1.42244 -0.56668,-0.41735 -0.61024,-1.62476 -0.0661,-1.83355 0.29475,-0.11311 0.39687,-0.58185 0.39687,-1.82159 0,-1.3762 -0.099,-1.75408 -0.56395,-2.15217 -0.54828,-0.46945 -0.64387,-0.4624 -3.43958,0.25376 l -2.87563,0.73663 v 3.5239 c 0,1.93814 0.0615,3.5239 0.13663,3.5239 0.0751,0 1.47414,-0.3638 3.10886,-0.80844 z m 9.45451,0.15079 c 0,-0.3789 -3.10565,-2.14574 -3.34715,-1.90423 -0.0652,0.0652 0.60166,0.45112 1.48198,0.85753 0.88032,0.40641 1.60058,0.82932 1.60058,0.9398 0,0.11048 -1.26524,-0.39144 -2.81165,-1.11537 -1.5464,-0.72393 -2.87593,-1.25194 -2.95451,-1.17337 -0.19545,0.19546 -0.26405,0.15837 2.85575,1.54398 3.11324,1.3827 3.175,1.39926 3.175,0.85166 z m -3.83646,-2.25277 c -0.0899,-0.14552 -0.28259,-0.26458 -0.42811,-0.26458 -0.14552,0 -0.191,0.11906 -0.10106,0.26458 0.0899,0.14552 0.28258,0.26458 0.4281,0.26458 0.14553,0 0.191,-0.11906 0.10107,-0.26458 z m 4.10104,-3.47081 c 0,-0.14552 -0.11906,-0.191 -0.26458,-0.10106 -0.14553,0.0899 -0.26459,0.28258 -0.26459,0.4281 0,0.14552 0.11906,0.191 0.26459,0.10106 0.14552,-0.0899 0.26458,-0.28258 0.26458,-0.4281 z m -0.79375,0.15412 c 0,-0.0779 -0.50602,-0.35883 -1.12448,-0.62421 -0.61846,-0.26538 -1.68349,-0.73739 -2.36673,-1.04893 -0.68324,-0.31153 -1.45715,-0.56139 -1.7198,-0.55524 -0.26264,0.006 0.17731,0.28979 0.97768,0.63031 0.80036,0.34052 1.99099,0.86866 2.64583,1.17363 1.22945,0.57259 1.5875,0.66832 1.5875,0.42444 z m -1.17505,-1.32193 c -0.28247,-0.21366 -0.63265,-0.38846 -0.77817,-0.38846 -0.14552,0 -0.0335,0.1748 0.249,0.38846 0.28248,0.21365 0.63266,0.38846 0.77818,0.38846 0.14552,0 0.0335,-0.17481 -0.24901,-0.38846 z m -1.33849,-0.65305 c -0.0899,-0.14552 -0.28259,-0.26458 -0.42811,-0.26458 -0.14552,0 -0.191,0.11906 -0.10106,0.26458 0.0899,0.14552 0.28258,0.26459 0.4281,0.26459 0.14553,0 0.191,-0.11907 0.10107,-0.26459 z m -1.19063,-0.52916 c -0.21828,-0.14107 -0.51594,-0.25648 -0.66146,-0.25648 -0.14552,0 -0.086,0.11541 0.1323,0.25648 0.21828,0.14106 0.51593,0.25648 0.66145,0.25648 0.14552,0 0.086,-0.11542 -0.13229,-0.25648 z m -14.899174,18.39871 c 14.416854,-3.95916 16.265724,-4.50328 16.217014,-4.77267 -0.0263,-0.14552 -0.12523,-0.24725 -0.21982,-0.22605 -0.0946,0.0212 -3.44619,0.93699 -7.44802,2.03511 -4.00182,1.09812 -9.413123,2.58072 -12.025124,3.29467 -2.611998,0.71396 -4.794811,1.43527 -4.850693,1.60291 -0.05588,0.16765 -0.03952,0.30482 0.03637,0.30482 0.07588,0 3.80651,-1.00746 8.290276,-2.23879 z m -14.26701,-5.50028 -0.07026,-7.47447 -3.093125,-1.58118 c -1.701221,-0.86965 -3.129971,-1.5245 -3.175,-1.45521 -0.04503,0.0693 -0.02236,3.3966 0.05042,7.39404 l 0.132292,7.26807 2.910417,1.65974 c 1.600729,0.91286 3.001568,1.66059 3.112973,1.66162 0.111408,0.001 0.17094,-3.36164 0.132292,-7.47261 z m 32.076604,1.88993 c 0,-1.44475 -0.0825,-1.82378 -0.39688,-1.82378 -0.31735,0 -0.39687,0.39595 -0.39687,1.97607 0,1.64781 0.0659,1.95077 0.39687,1.82378 0.29967,-0.115 0.39688,-0.59902 0.39688,-1.97607 z m -1.32292,0.95435 c 0,-0.50933 -0.11906,-0.92605 -0.26458,-0.92605 -0.29339,0 -0.36691,1.39698 -0.0882,1.6757 0.30452,0.30452 0.35277,0.20197 0.35277,-0.74965 z m -14.22898,-14.9612 c 8.77183,-2.18954 16.41819,-4.1053 16.99192,-4.25725 l 1.04314,-0.27627 -2.49835,-1.0568 c -1.3741,-0.58123 -2.80166,-1.18278 -3.17237,-1.33677 -0.55668,-0.23125 -2.7905,0.23169 -12.83229,2.6594 -6.687046,1.61666 -14.241863,3.43025 -16.788478,4.0302 -2.546614,0.59995 -4.672486,1.13236 -4.724159,1.18315 -0.09847,0.0968 5.509728,2.99803 5.84101,3.0217 0.104947,0.007 7.36776,-1.77782 16.139577,-3.96736 z"
       style="fill:#28220b;stroke-width:0.264583"
       id="path1" />
  </g>
</svg>
