<?xml version="1.0" encoding="UTF-8" standalone="no"?>
<!-- Created with Inkscape (http://www.inkscape.org/) -->

<svg
   width="24"
   height="24"
   viewBox="0 0 48 48"
   version="1.1"
   id="svg1"
   inkscape:version="1.4.2 (f4327f4, 2025-05-13)"
   sodipodi:docname="low_cabinet_on_legs.svg"
   xmlns:inkscape="http://www.inkscape.org/namespaces/inkscape"
   xmlns:sodipodi="http://sodipodi.sourceforge.net/DTD/sodipodi-0.dtd"
   xmlns="http://www.w3.org/2000/svg"
   xmlns:svg="http://www.w3.org/2000/svg">
  <sodipodi:namedview
     id="namedview1"
     pagecolor="#ffffff"
     bordercolor="#000000"
     borderopacity="0.25"
     inkscape:showpageshadow="2"
     inkscape:pageopacity="0.0"
     inkscape:pagecheckerboard="0"
     inkscape:deskcolor="#d1d1d1"
     inkscape:document-units="mm"
     inkscape:zoom="11.01807"
     inkscape:cx="19.83106"
     inkscape:cy="17.10826"
     inkscape:window-width="1920"
     inkscape:window-height="991"
     inkscape:window-x="-9"
     inkscape:window-y="-9"
     inkscape:window-maximized="1"
     inkscape:current-layer="layer1" />
  <defs
     id="defs1" />
  <g
     inkscape:label="Ebene 1"
     inkscape:groupmode="layer"
     id="layer1"
     transform="translate(-141.55208,-161.8581)">
    <path
       d="m 156.58273,205.82007 c -0.53145,-0.37999 -0.59531,-0.65053 -0.59531,-2.52198 v -2.0963 l -1.38906,-0.79662 c -0.76399,-0.43814 -1.47836,-0.79774 -1.5875,-0.7991 -0.10914,-10e-4 -0.19844,0.58009 -0.19844,1.29212 0,0.93644 -0.11579,1.33906 -0.41852,1.45521 -0.67336,0.25839 -1.53045,0.17065 -2.02888,-0.2077 -0.43178,-0.32779 -0.46302,-1.40641 -0.46302,-15.98869 v -15.6372 l 0.99219,-0.25904 c 0.5457,-0.14247 4.74266,-0.98303 9.32656,-1.86791 4.58391,-0.88487 9.55255,-1.8595 11.04142,-2.16585 l 2.70705,-0.55699 3.95317,1.78393 3.95318,1.78394 0.0866,1.88753 c 0.0477,1.03815 0.051,8.16728 0.008,15.84253 l -0.0791,13.95499 -0.6536,0.16404 c -0.35948,0.0902 -1.00848,0.017 -1.44222,-0.16261 -0.76531,-0.317 -0.78861,-0.3796 -0.78861,-2.1185 v -1.79185 l -0.99219,0.23255 c -0.82541,0.19347 -7.62695,1.74736 -16.93333,3.86862 l -1.91823,0.43724 -0.004,1.86983 c -0.002,1.02844 -0.0974,2.01689 -0.21159,2.1966 -0.35196,0.55414 -1.70894,0.66963 -2.36405,0.20121 z m 1.72434,-7.23059 c 0.0616,-5.80711 0.0193,-6.65881 -0.33073,-6.65881 -0.34838,0 -0.40142,0.89444 -0.40142,6.76892 0,5.29748 0.0719,6.74499 0.33073,6.65881 0.25036,-0.0833 0.3479,-1.72825 0.40142,-6.76892 z m -1.71955,-6.87039 c -0.58764,-0.43196 -4.73026,-2.69884 -4.932,-2.69884 -0.0822,0 -0.0871,0.16234 -0.011,0.36075 0.0761,0.19842 1.20239,0.94256 2.50277,1.65365 l 2.36434,1.29289 0.0558,1.45521 c 0.0307,0.80037 0.0646,3.06255 0.0754,5.02708 0.0108,1.96453 0.0739,4.22672 0.14024,5.02709 0.0664,0.80036 0.15479,-1.52136 0.19646,-5.15938 0.0696,-6.07106 0.0373,-6.64284 -0.39204,-6.95845 z m -5.53622,3.49944 c -0.0227,-3.57578 -0.11203,-6.57212 -0.19844,-6.65853 -0.0864,-0.0864 -0.15711,2.8393 -0.15711,6.50157 0,3.66227 0.0893,6.65863 0.19844,6.65852 0.10914,-8e-5 0.17984,-2.92577 0.15711,-6.50156 z m 1.2279,5.24495 c -0.002,-0.69122 -0.11947,-1.43537 -0.26053,-1.65365 -0.18074,-0.27967 -0.25768,0.0915 -0.26053,1.25677 -0.002,0.92875 0.11193,1.65365 0.26053,1.65365 0.14552,0 0.26276,-0.56555 0.26053,-1.25677 z m 23.26533,-3.38075 c 2.24345,-0.5053 4.13853,-0.97826 4.21129,-1.05102 0.37576,-0.37576 -1.85281,0.0653 -10.69469,2.11667 -5.33149,1.23692 -9.73976,2.24895 -9.79616,2.24895 -0.0564,0 -0.10255,0.10065 -0.10255,0.22366 0,0.12302 2.7682,-0.41605 6.15156,-1.19793 3.38336,-0.78188 7.98711,-1.83503 10.23055,-2.34033 z m -19.55711,3.09081 c 0,-0.29065 -4.00389,-2.73968 -4.18423,-2.55934 -0.17662,0.17662 -0.23238,0.13198 1.93527,1.54929 1.89999,1.2423 2.24896,1.39903 2.24896,1.01005 z m 25.33839,-6.61114 c 0.0617,-5.80711 0.0194,-6.65882 -0.33072,-6.65882 -0.34838,0 -0.40142,0.89445 -0.40142,6.76893 0,5.29747 0.0719,6.74498 0.33073,6.65881 0.25036,-0.0833 0.3479,-1.72825 0.40141,-6.76892 z m -1.3328,3.99656 c -0.0573,-0.54894 -0.1051,-0.16465 -0.10627,0.854 -0.001,1.01864 0.0457,1.46779 0.10414,0.99809 0.0584,-0.4697 0.0594,-1.30314 0.002,-1.85209 z m -12.30671,0.21552 c 4.40692,-1.006 8.78483,-1.99613 9.72869,-2.20028 l 1.71611,-0.37118 -2.11298,-1.12937 c -1.16215,-0.62114 -2.58924,-1.18083 -3.17133,-1.24373 -0.68757,-0.0743 -3.46828,0.42474 -7.9375,1.42452 l -6.87916,1.5389 -0.0192,1.90512 c -0.014,1.3882 0.0733,1.90512 0.3218,1.90512 0.18755,0 3.94665,-0.82309 8.35357,-1.8291 z m -11.7769,-1.24753 c -0.16632,-0.16631 -2.8324,0.44886 -2.8324,0.65354 0,0.0984 0.62508,0.55611 1.38906,1.01715 l 1.38907,0.83826 0.0818,-1.1998 c 0.045,-0.6599 0.0326,-1.24901 -0.0275,-1.30915 z m -3.62615,-2.72858 c 0,-1.64447 -0.11428,-2.96544 -0.26458,-3.05833 -0.17056,-0.10541 -0.26459,0.9233 -0.26459,2.8948 0,1.8625 0.10346,3.05833 0.26459,3.05833 0.16026,0 0.26458,-1.14133 0.26458,-2.8948 z m 3.34112,1.91916 c 0.2428,-0.0932 0.36305,-0.5917 0.36305,-1.50514 v -1.36583 l -1.5875,-0.87273 -1.5875,-0.87273 v 2.56149 2.56149 l 1.22445,-0.18361 c 0.67345,-0.101 1.38782,-0.24631 1.5875,-0.32294 z m 24.37224,-5.42893 c -0.0504,-1.0614 -0.0919,-0.26293 -0.0923,1.77436 -5.3e-4,2.03729 0.0408,2.9057 0.0915,1.9298 0.0508,-0.9759 0.0511,-2.64277 8e-4,-3.70416 z m -14.74878,3.39476 c 2.98318,-0.64515 5.81092,-1.25337 6.28386,-1.35158 0.76774,-0.15944 0.85989,-0.27557 0.85989,-1.08359 0,-0.49776 -0.13145,-0.90502 -0.29211,-0.90502 -0.4468,0 -12.74968,2.66232 -12.99041,2.8111 -0.24524,0.15157 -0.28667,1.52317 -0.0531,1.75678 0.087,0.087 0.29535,0.11027 0.46303,0.0517 0.16767,-0.0585 2.74564,-0.63427 5.72881,-1.27942 z m 13.75834,-2.1674 c 0,-2.53667 -0.0429,-2.78372 -0.46302,-2.66405 -0.25466,0.0725 -1.15352,0.26882 -1.99746,0.43618 l -1.53444,0.30428 0.0792,1.36758 0.0792,1.36759 1.85208,0.98383 c 1.01865,0.5411 1.88185,0.98758 1.91823,0.99218 0.0364,0.005 0.0661,-1.24981 0.0661,-2.78759 z m -10.70281,-1.17863 c 4.64962,-1.02185 9.16047,-2.01062 10.02412,-2.19727 1.47066,-0.31783 2.36985,-0.98476 1.29605,-0.96129 -1.22865,0.0269 -20.57568,4.43413 -20.66695,4.70795 -0.0566,0.16969 0.12121,0.30853 0.39505,0.30853 0.27384,0 4.30212,-0.83606 8.95173,-1.85792 z m 4.92274,0.50488 -0.25762,-0.89592 -0.0239,1.1774 c -0.0169,0.83205 0.0587,1.09483 0.25762,0.89591 0.19162,-0.19162 0.19924,-0.56749 0.0239,-1.17739 z m 1.28215,0.0145 c 0,-0.5735 -0.11906,-1.04272 -0.26458,-1.04272 -0.14552,0 -0.26459,0.54281 -0.26459,1.20624 0,0.73679 0.10298,1.1426 0.26459,1.04272 0.14552,-0.0899 0.26458,-0.63275 0.26458,-1.20624 z m -5.82083,-2.10108 c 5.45703,-1.17704 10.54695,-2.2703 11.31094,-2.42947 l 1.38906,-0.28939 v -8.03326 c 0,-4.4183 -0.0667,-8.03327 -0.14814,-8.03327 -0.2477,0 -22.70455,4.50934 -23.20134,4.65883 -0.42804,0.1288 -0.46302,0.75989 -0.46302,8.35227 v 8.21293 l 0.59531,-0.14928 c 0.32742,-0.0821 5.06016,-1.11231 10.51719,-2.28936 z m -10.58334,-6.04197 v -7.6295 l 5.49011,-1.11708 c 14.24639,-2.89874 16.8813,-3.39616 17.06989,-3.22248 0.11149,0.10268 0.17103,3.50227 0.1323,7.55466 l -0.0704,7.36798 -5.82083,1.26872 c -9.94021,2.16659 -15.89638,3.4072 -16.35793,3.4072 -0.40418,0 -0.44312,-0.67029 -0.44312,-7.6295 z m 6.32501,5.78942 c 7.70441,-1.63856 14.65718,-3.17891 14.74494,-3.26668 0.044,-0.044 -1.20412,-0.71366 -2.77366,-1.48807 l -2.85371,-1.40804 -6.06764,1.24272 c -3.3372,0.6835 -6.63319,1.36291 -7.32441,1.50982 l -1.25678,0.26709 v 2.09474 c 0,1.40808 0.10023,2.09475 0.30574,2.09475 0.16815,0 2.51964,-0.47085 5.22552,-1.04633 z m 15.70899,-10.3969 c -0.059,-5.14298 -0.15244,-6.66949 -0.40585,-6.63191 -0.7686,0.11399 -4.86586,0.92317 -5.29012,1.04476 -0.41789,0.11977 -0.46303,0.57639 -0.46303,4.68435 v 4.55165 l 2.97657,1.50056 c 1.63711,0.82532 3.04013,1.50749 3.11783,1.51594 0.0777,0.008 0.10677,-2.99095 0.0646,-6.66535 z m -0.99962,5.09323 c -0.0899,-0.14552 -0.0374,-0.26459 0.11668,-0.26459 0.1541,0 0.28019,0.11907 0.28019,0.26459 0,0.14552 -0.0525,0.26458 -0.11667,0.26458 -0.0642,0 -0.19026,-0.11906 -0.2802,-0.26458 z m 0,-3.70417 c -0.0899,-0.14552 -0.0374,-0.26458 0.11668,-0.26458 0.1541,0 0.28019,0.11906 0.28019,0.26458 0,0.14552 -0.0525,0.26458 -0.11667,0.26458 -0.0642,0 -0.19026,-0.11906 -0.2802,-0.26458 z m 0,-1.85208 c 0.0899,-0.14552 0.21603,-0.26459 0.2802,-0.26459 0.0642,0 0.11667,0.11907 0.11667,0.26459 0,0.14552 -0.12609,0.26458 -0.28019,0.26458 -0.15411,0 -0.20662,-0.11906 -0.11668,-0.26458 z m -4.63021,-1.05834 c 0,-0.14552 0.11906,-0.26458 0.26458,-0.26458 0.14553,0 0.26459,0.11906 0.26459,0.26458 0,0.14552 -0.11906,0.26459 -0.26459,0.26459 -0.14552,0 -0.26458,-0.11907 -0.26458,-0.26459 z m 0,-2.91041 c 0,-0.14552 0.12609,-0.26459 0.2802,-0.26459 0.15411,0 0.20661,0.11907 0.11668,0.26459 -0.0899,0.14552 -0.21603,0.26458 -0.2802,0.26458 -0.0642,0 -0.11668,-0.11906 -0.11668,-0.26458 z m 4.63021,-1.05834 c -0.0899,-0.14552 -0.0374,-0.26458 0.11668,-0.26458 0.1541,0 0.28019,0.11906 0.28019,0.26458 0,0.14552 -0.0525,0.26459 -0.11667,0.26459 -0.0642,0 -0.19026,-0.11907 -0.2802,-0.26459 z m -12.7,10.49106 6.61458,-1.39427 0.0725,-4.4161 c 0.0399,-2.42886 -0.0196,-4.42035 -0.1323,-4.42554 -0.11265,-0.005 -3.33022,0.6137 -7.15014,1.37531 l -6.94532,1.38475 v 4.44552 c 0,4.06143 0.04,4.44462 0.46303,4.43506 0.25466,-0.006 3.43958,-0.63788 7.0776,-1.40473 z m -9.41131,-0.75647 0.0186,-7.59561 -1.12448,-0.63532 c -0.61846,-0.34943 -2.04721,-1.13143 -3.175,-1.73779 l -2.05052,-1.10246 0.004,8.14278 0.004,8.14277 2.97291,1.63861 c 2.56357,1.413 2.99767,1.57693 3.15274,1.19063 0.0989,-0.24639 0.18821,-3.86602 0.19844,-8.04361 z m 11.90831,-10.65732 c 6.16584,-1.2351 11.2472,-2.28223 11.29193,-2.32696 0.0447,-0.0447 -1.38797,-0.70715 -3.18377,-1.47207 l -3.26508,-1.39075 -11.1902,2.20423 -11.19019,2.20422 2.88994,1.50364 c 1.58948,0.827 3.01299,1.50808 3.16336,1.51349 0.15037,0.005 5.31818,-1.00069 11.48401,-2.2358 z"
       style="fill:#28220b;stroke-width:0.264583"
       id="path1" />
  </g>
</svg>
