<?xml version="1.0" encoding="UTF-8" standalone="no"?>
<!-- Created with Inkscape (http://www.inkscape.org/) -->

<svg
   width="24"
   height="24"
   viewBox="0 0 40 40.000001"
   version="1.1"
   id="svg1"
   inkscape:version="1.4.2 (f4327f4, 2025-05-13)"
   sodipodi:docname="low_panel_with_legs.svg"
   xmlns:inkscape="http://www.inkscape.org/namespaces/inkscape"
   xmlns:sodipodi="http://sodipodi.sourceforge.net/DTD/sodipodi-0.dtd"
   xmlns="http://www.w3.org/2000/svg"
   xmlns:svg="http://www.w3.org/2000/svg">
  <sodipodi:namedview
     id="namedview1"
     pagecolor="#ffffff"
     bordercolor="#000000"
     borderopacity="0.25"
     inkscape:showpageshadow="2"
     inkscape:pageopacity="0.0"
     inkscape:pagecheckerboard="0"
     inkscape:deskcolor="#d1d1d1"
     inkscape:document-units="mm"
     inkscape:zoom="15.581903"
     inkscape:cx="9.6586403"
     inkscape:cy="13.701792"
     inkscape:window-width="1920"
     inkscape:window-height="991"
     inkscape:window-x="-9"
     inkscape:window-y="-9"
     inkscape:window-maximized="1"
     inkscape:current-layer="layer1" />
  <defs
     id="defs1" />
  <g
     inkscape:label="Ebene 1"
     inkscape:groupmode="layer"
     id="layer1"
     transform="translate(-88.37083,-133.90904)">
    <path
       d="m 92.634781,168.01829 -0.841177,-0.53259 v -8.42168 -8.42167 l 1.486165,-0.55605 c 1.473015,-0.55112 1.493792,-0.55154 2.347947,-0.0476 l 0.861779,0.50846 10.815075,-3.94438 c 5.94829,-2.16941 11.32109,-4.13094 11.93955,-4.35894 0.97701,-0.36018 1.12448,-0.51747 1.12448,-1.19935 0,-0.66684 0.16902,-0.86152 1.12448,-1.29522 1.36652,-0.62029 2.09777,-0.64802 3.122,-0.11837 l 0.7806,0.40366 v 8.17628 8.17628 l -1.52135,0.57474 c -1.4963,0.56527 -1.53661,0.56667 -2.4474,0.0851 -0.90506,-0.47849 -0.92782,-0.53056 -1.00481,-2.29898 -0.0689,-1.58167 -0.13545,-1.78673 -0.52916,-1.6293 -0.8242,0.32957 -6.44646,2.43644 -14.46383,5.42016 -4.3604,1.62275 -8.09673,3.04488 -8.302946,3.16028 -0.290042,0.16232 -0.363803,0.80947 -0.325745,2.858 0.03655,1.96752 -0.03953,2.68368 -0.296005,2.78635 -0.189862,0.076 -0.948941,0.37875 -1.686841,0.67277 l -1.341638,0.53458 z m 0.684115,-8.34845 c -0.06459,-7.25059 -0.106408,-7.87481 -0.533104,-7.9569 -0.432337,-0.0832 -0.463021,0.41716 -0.463021,7.55032 0,7.49867 0.07975,8.2744 0.850604,8.2744 0.118581,0 0.184065,-3.54052 0.145521,-7.86782 z m 2.071163,7.44114 0.636879,-0.15985 v -7.90882 c 0,-4.34985 -0.04499,-7.90881 -0.09998,-7.90881 -0.05499,0 -0.531238,0.18019 -1.058333,0.40042 l -0.958353,0.40043 v 7.82996 c 0,7.05423 0.04175,7.81394 0.421455,7.66824 0.231801,-0.089 0.708051,-0.23366 1.058332,-0.32157 z m -0.889987,-7.29584 c 0.163531,-0.4906 0.733116,-0.57197 0.733116,-0.10473 0,0.2304 -0.188516,0.41892 -0.418923,0.41892 -0.23041,0 -0.371795,-0.14139 -0.314193,-0.31419 z m -0.0099,-3.40982 c 0.05214,-0.15644 0.207918,-0.28443 0.346163,-0.28443 0.138244,0 0.294018,0.12799 0.346162,0.28443 0.05215,0.15643 -0.103627,0.28443 -0.346162,0.28443 -0.242536,0 -0.398309,-0.128 -0.346163,-0.28443 z m 10.929488,1.3547 c 4.36563,-1.62354 9.12813,-3.40679 10.58334,-3.96278 1.4552,-0.55599 3.38997,-1.29289 4.29947,-1.63754 l 1.65365,-0.62664 v -4.18636 c 0,-3.86949 -0.0351,-4.17467 -0.46302,-4.03184 -0.25466,0.085 -5.91734,2.14685 -12.58372,4.5819 l -12.120693,4.42736 -0.05013,4.31307 c -0.04331,3.72563 0.0039,4.29683 0.346739,4.19389 0.218281,-0.0656 3.968754,-1.44753 8.334364,-3.07106 z m 16.53646,-3.34128 c 0,-1.48694 -0.0856,-1.97818 -0.33073,-1.89733 -0.20073,0.0662 -0.36235,0.71324 -0.41117,1.64607 -0.0867,1.65574 0.0384,2.25768 0.46901,2.25768 0.16347,0 0.27289,-0.80449 0.27289,-2.00642 z m 1.97191,1.69937 0.67392,-0.30705 v -7.60917 -7.60916 l -1.05833,0.41573 -1.05833,0.41572 v 7.50049 c 0,8.14169 -0.0535,7.87516 1.44274,7.19344 z m -0.59938,-6.85323 c 0.0637,-0.191 0.27201,-0.39936 0.46302,-0.46303 0.19843,-0.0661 0.29765,0.0331 0.23151,0.23152 -0.0637,0.19099 -0.27202,0.39935 -0.46302,0.46302 -0.19844,0.0661 -0.29766,-0.0331 -0.23151,-0.23151 z m 0.0966,-3.40045 c -0.0852,-0.13784 -0.0421,-0.32032 0.0957,-0.40551 0.13785,-0.0852 0.32031,-0.0421 0.4055,0.0957 0.0852,0.13784 0.0421,0.32032 -0.0957,0.4055 -0.13785,0.0852 -0.32032,0.0421 -0.4055,-0.0957 z m -22.60769,4.38064 c 2.09457,-0.77967 7.49924,-2.76177 12.01039,-4.40468 7.49727,-2.73041 9.23049,-3.43814 8.41983,-3.43814 -0.30686,0 -3.14074,1.01966 -20.19379,7.26597 -3.733707,1.36761 -5.092776,1.99444 -4.324246,1.99444 0.153722,0 1.993238,-0.63791 4.087816,-1.41759 z m -6.143968,0.78447 c 0.347081,-0.19239 0.515557,-0.42118 0.374386,-0.50843 -0.353251,-0.21832 -2.209271,0.37697 -2.038226,0.65373 0.199356,0.32256 0.935792,0.25825 1.66384,-0.1453 z m 27.191178,-9.54192 c -0.0862,-0.22456 -0.27947,-0.40829 -0.42956,-0.40829 -0.38776,0 -0.33937,0.72591 0.0578,0.86777 0.44948,0.16053 0.55811,0.0263 0.37172,-0.45948 z m 1.6788,-1.06975 0.66146,-0.37812 -0.66146,-0.006 c -0.97521,-0.008 -1.86707,0.27788 -1.7012,0.54626 0.21084,0.34114 0.94256,0.2713 1.7012,-0.16237 z"
       style="fill:#28220b;stroke-width:0.264583"
       id="path1" />
  </g>
</svg>
