<?xml version="1.0" encoding="UTF-8" standalone="no"?>
<!-- Created with Inkscape (http://www.inkscape.org/) -->

<svg
   width="24mm"
   height="24mm"
   viewBox="0 0 24 24"
   version="1.1"
   id="svg1"
   inkscape:version="1.4.2 (f4327f4, 2025-05-13)"
   sodipodi:docname="lumber_stack.svg"
   xmlns:inkscape="http://www.inkscape.org/namespaces/inkscape"
   xmlns:sodipodi="http://sodipodi.sourceforge.net/DTD/sodipodi-0.dtd"
   xmlns="http://www.w3.org/2000/svg"
   xmlns:svg="http://www.w3.org/2000/svg">
  <sodipodi:namedview
     id="namedview1"
     pagecolor="#ffffff"
     bordercolor="#000000"
     borderopacity="0.25"
     inkscape:showpageshadow="2"
     inkscape:pageopacity="0.0"
     inkscape:pagecheckerboard="0"
     inkscape:deskcolor="#d1d1d1"
     inkscape:document-units="mm"
     inkscape:zoom="0.68862935"
     inkscape:cx="48.64736"
     inkscape:cy="37.03008"
     inkscape:window-width="1920"
     inkscape:window-height="991"
     inkscape:window-x="-9"
     inkscape:window-y="-9"
     inkscape:window-maximized="1"
     inkscape:current-layer="layer1" />
  <defs
     id="defs1" />
  <g
     inkscape:label="Ebene 1"
     inkscape:groupmode="layer"
     id="layer1"
      transform="translate(0 2.709881) scale(0.936277) translate(-92.37313,-138.64064)">
    <path
       d="m 92.45167,158.1313 c -0.07474,-0.19477 -0.100767,-1.29609 -0.05784,-2.4474 l 0.07804,-2.09328 1.389063,-0.91353 c 1.315206,-0.86497 1.389062,-0.97344 1.389062,-2.04022 0,-1.20832 0.401363,-1.75128 2.050521,-2.7739 0.792123,-0.49119 0.859896,-0.64201 0.859896,-1.91359 V 144.569 l 4.431778,-2.96418 4.43177,-2.96418 2.29346,5.3e-4 c 3.19368,7e-4 3.13049,-0.045 3.13049,2.26577 v 1.94408 l 0.99219,0.16489 c 1.64965,0.27417 1.62504,0.24112 1.70794,2.29363 l 0.078,1.93108 1.05498,0.0859 c 1.56682,0.12752 1.72314,0.37021 1.72314,2.67516 0,2.40846 0.27071,2.08286 -4.9229,5.92106 l -3.4677,2.56271 h -8.513 c -6.866181,0 -8.539292,-0.0685 -8.648893,-0.35411 z m 2.589813,-0.73826 c -0.533122,-0.15375 -1.070578,-0.5799 -1.388073,-1.10061 l -0.518099,-0.84972 -0.0011,1.12447 -0.0011,1.12448 1.389062,-0.0239 c 1.325357,-0.0228 1.349164,-0.0354 0.519089,-0.27476 z m 2.854349,-0.38902 c 0,-0.78106 -0.19204,-0.78393 -1.129044,-0.0169 l -0.732171,0.59938 0.930609,0.0264 c 0.813353,0.023 0.930606,-0.0537 0.930606,-0.6089 z m 1.746959,0.29083 c -0.505561,-0.38268 -0.953209,-0.31325 -0.953209,0.14785 0,0.13693 0.327421,0.24518 0.727604,0.24055 0.689404,-0.008 0.701254,-0.0284 0.225605,-0.3884 z m 2.486369,0.28394 c 0,-0.13634 -2.772892,-1.73921 -3.008765,-1.73921 -0.493663,0 -0.0497,0.81708 0.693666,1.27664 0.752199,0.46503 2.315099,0.7773 2.315099,0.46257 z m 1.30528,-0.51859 c -0.0631,-0.0611 -1.09692,-0.71924 -2.29746,-1.4625 -1.851888,-1.1465 -2.182815,-1.27485 -2.182815,-0.84658 0,0.62676 3.957365,3.05776 4.345615,2.66951 0.13712,-0.13712 0.19772,-0.29932 0.13466,-0.36043 z m 5.57389,0.36688 c 0,-0.14552 -0.11227,-0.26458 -0.2495,-0.26458 -0.13723,0 -0.95681,-0.65485 -1.8213,-1.45521 -1.38874,-1.28573 -2.42712,-1.82729 -2.42712,-1.26586 0,0.10414 0.56555,0.76554 1.25678,1.46977 0.69122,0.70423 1.04841,1.20159 0.79375,1.10526 -0.28308,-0.10709 -0.46303,-0.0502 -0.46303,0.14641 0,0.19735 0.22999,0.2691 0.59532,0.18574 0.32742,-0.0747 0.83343,-0.0365 1.12448,0.085 0.73737,0.30775 1.19062,0.30526 1.19062,-0.007 z m -3.57187,-0.43265 c -0.51396,-0.40388 -0.51016,-0.41034 0.13229,-0.22475 l 0.66146,0.19108 -0.77711,-0.82517 c -0.42741,-0.45385 -0.81436,-0.82518 -0.85989,-0.82518 -0.0455,0 -0.0828,0.47625 -0.0828,1.05834 0,0.98019 0.0537,1.05771 0.72761,1.04992 0.70984,-0.008 0.71468,-0.0186 0.19844,-0.42424 z m -8.35468,-0.51691 c 0.447728,-0.37674 0.814052,-0.86532 0.814052,-1.08574 0,-0.27868 -0.284912,-0.15061 -0.93525,0.42039 -0.514384,0.45164 -1.099113,0.82116 -1.299395,0.82116 -0.355269,0 -1.47312,-1.16813 -1.973511,-2.06228 -0.137538,-0.24577 -0.340363,-0.35656 -0.450715,-0.24621 -0.110355,0.11035 -0.05975,0.34153 0.112448,0.51373 0.172199,0.1722 0.313089,0.48997 0.313089,0.70615 0,0.6676 1.102958,1.61778 1.877904,1.61778 0.400032,0 1.093653,-0.30824 1.541378,-0.68498 z m 16.49061,-2.10616 c 3.18628,-2.38108 3.37344,-2.57176 3.37344,-3.43678 0,-0.50371 -0.0444,-0.91583 -0.0986,-0.91583 -0.0542,0 -1.3361,0.92273 -2.84862,2.05052 -1.51251,1.12778 -3.02967,2.23298 -3.37147,2.45599 -0.34179,0.223 -0.57796,0.59733 -0.52481,0.83183 0.0732,0.32319 0.89699,-0.14677 3.40392,-1.94197 1.81901,-1.30258 2.83104,-1.94736 2.24896,-1.43282 -0.58209,0.51453 -2.09706,1.6822 -3.36661,2.59483 -2.06359,1.48343 -2.9287,2.32608 -2.37978,2.31798 0.10458,-0.002 1.70818,-1.13723 3.56357,-2.52375 z m -10.12031,1.62209 c 0,-0.89484 -1.50953,-1.80178 -2.8157,-1.69169 l -0.980178,0.0826 1.831798,1.11017 c 1.00748,0.61059 1.86156,1.11661 1.89794,1.12448 0.0364,0.008 0.0661,-0.27364 0.0661,-0.62557 z m 5.54807,0.30915 c -0.009,-0.37511 -2.13153,-2.05052 -2.5974,-2.05052 -0.52826,0 -0.33857,0.31461 0.81964,1.35941 1.14568,1.03349 1.79245,1.28492 1.77776,0.69111 z m -12.151386,-0.91315 c 1.075732,-1.22519 0.578469,-1.49052 -0.553659,-0.29542 l -0.831588,0.87784 0.572714,-0.85989 c 0.475446,-0.71385 0.502251,-0.8599 0.157824,-0.8599 -0.22819,0 -0.41489,0.14288 -0.41489,0.3175 0,0.24694 -0.07056,0.24694 -0.3175,0 -0.417997,-0.418 -0.826773,-0.40856 -0.573368,0.0132 0.131471,0.21884 0.04508,0.20608 -0.255363,-0.0377 -0.249732,-0.20264 -0.507558,-0.31494 -0.572947,-0.24955 -0.211516,0.21152 1.19742,2.07319 1.569016,2.07319 0.197962,0 0.746853,-0.44068 1.219761,-0.9793 z m 12.159566,-0.44588 c 0,-0.49931 -0.16608,-0.6558 -0.79375,-0.74793 -0.97819,-0.14357 -1.00814,0.11398 -0.0966,0.83099 0.87202,0.68592 0.89036,0.68421 0.89036,-0.0831 z m -5.67766,-0.67389 c -0.0959,-0.1552 -0.37574,-0.2784 -0.62181,-0.27377 -0.39281,0.007 -0.38519,0.0555 0.0624,0.39414 0.54374,0.41137 0.84758,0.34598 0.55936,-0.12037 z m 9.04702,-1.40666 c 3.82362,-2.67612 4.53347,-3.22117 4.69021,-3.60134 0.25902,-0.62818 -0.5246,-0.14861 -3.80598,2.32927 -2.83057,2.13746 -3.73826,2.92571 -3.36901,2.92571 0.0671,0 1.18529,-0.74414 2.48478,-1.65364 z m -17.249104,0.31312 c 0.288219,-0.46634 -0.01561,-0.53173 -0.559361,-0.12036 -0.44764,0.33865 -0.45526,0.38675 -0.06245,0.39414 0.246073,0.005 0.525886,-0.11857 0.621808,-0.27378 z m 3.39902,-0.44541 c -0.220175,-0.93111 -1.113644,-1.91823 -1.736227,-1.91823 -0.675019,0 -0.601782,0.4919 0.162771,1.0933 0.355201,0.2794 0.720413,0.74302 0.811581,1.03027 0.09117,0.28724 0.338597,0.52226 0.549846,0.52226 0.284324,0 0.339397,-0.18899 0.212029,-0.7276 z m 1.484894,0.45452 c 0,-0.47419 -0.796234,-2.20154 -1.241726,-2.6938 -0.269459,-0.29775 -0.804315,-0.4727 -1.445117,-0.4727 -1.2426,0 -1.319956,0.33064 -0.15743,0.67289 0.661424,0.19472 0.998477,0.54322 1.460312,1.50992 0.532271,1.11413 1.383961,1.7195 1.383961,0.98369 z m 2.38125,0.0409 c 0,-0.1277 -0.1786,-0.3804 -0.39688,-0.56156 -0.43079,-0.35753 -0.48464,-0.27201 -0.23627,0.37524 0.17001,0.44303 0.63315,0.57933 0.63315,0.18632 z m 10.29078,-2.3475 c 2.16346,-1.60685 3.31198,-2.61398 3.04556,-2.67062 -0.23524,-0.05 -0.80207,0.25664 -1.25963,0.68146 -0.45756,0.42482 -1.3677,1.16271 -2.02255,1.63978 -1.27385,0.92801 -0.60302,0.24407 1.32686,-1.3528 0.6478,-0.53601 1.12028,-1.02739 1.04996,-1.09196 -0.0703,-0.0646 -1.43988,0.90978 -3.04345,2.1652 -1.60358,1.25543 -3.21092,2.4847 -3.57188,2.73173 l -0.65628,0.44915 0.82907,0.0139 c 0.64616,0.0108 1.59535,-0.55526 4.30234,-2.56581 z m -15.317865,2.10344 c 0,-0.11642 -0.142875,-0.35454 -0.3175,-0.52917 -0.466458,-0.46645 -0.740833,-0.38806 -0.740833,0.21167 0,0.35278 0.176389,0.52917 0.529166,0.52917 0.291042,0 0.529167,-0.0952 0.529167,-0.21167 z m 3.350115,-2.81486 c -0.3043,-0.79298 -0.777204,-0.45147 -0.61877,0.44684 l 0.15165,0.8599 -0.431168,-0.8599 c -0.23714,-0.47294 -0.528626,-0.8599 -0.647747,-0.8599 -0.334619,0 -0.271621,0.22547 0.511024,1.82899 l 0.727601,1.49075 0.23296,-1.24681 c 0.12812,-0.68575 0.16162,-1.43269 0.0744,-1.65987 z m 2.4612,2.82809 c -0.0183,-0.38152 -1.29155,-1.76369 -1.46497,-1.59027 -0.0962,0.0962 0.10685,0.53148 0.45132,0.96721 0.60713,0.76797 1.03316,1.02984 1.01365,0.62306 z m 2.11208,-0.13229 c 0.28506,-0.26459 0.31897,-0.26459 0.1696,0 -0.11461,0.203 -0.0274,0.33073 0.22576,0.33073 0.28194,0 0.41249,-0.25123 0.41249,-0.79375 0,-0.97814 -0.15282,-0.98695 -1.17614,-0.0678 -0.5526,0.49632 -0.49441,0.38818 0.18396,-0.34189 1.25271,-1.34819 1.30369,-1.8481 0.0661,-0.64862 -0.50932,0.49366 -0.92604,0.81627 -0.92604,0.71692 0,-0.0993 0.44649,-0.59573 0.99219,-1.10307 0.57423,-0.53387 0.8311,-0.92546 0.60979,-0.9296 -0.21032,-0.004 -0.72197,0.31817 -1.137,0.7158 -0.46542,0.44589 -0.82585,0.61762 -0.94052,0.44809 -0.75525,-1.11658 -1.12287,-1.51292 -1.26835,-1.36744 -0.0927,0.0927 0.0932,0.6213 0.41317,1.17466 l 0.58172,1.0061 -0.68252,-0.79375 c -0.37538,-0.43656 -0.68311,-0.88304 -0.68383,-0.99219 -7.9e-4,-0.10914 -0.13311,-0.19843 -0.29421,-0.19843 -0.40314,0 -0.14297,0.5837 0.87999,1.97427 0.90853,1.23504 1.84096,1.55022 2.5738,0.87 z m 4.24744,-2.0186 c 3.7359,-2.73273 4.7625,-3.72085 4.7625,-4.58403 0,-0.43101 -0.0909,-0.74397 -0.20196,-0.69546 -0.73086,0.31917 -7.18734,5.3862 -6.9598,5.46205 0.1556,0.0519 0.72933,-0.25342 1.27494,-0.67842 1.45753,-1.13532 4.32675,-3.03715 4.42522,-2.93321 0.0468,0.0494 -1.24097,1.04401 -2.86174,2.21021 -1.62078,1.16619 -2.9894,2.34115 -3.04137,2.61102 -0.11322,0.58791 -0.0817,0.57103 2.60221,-1.39216 z m -4.57237,-0.98832 c -0.0975,-0.0975 -0.35881,-0.0267 -0.58061,0.15734 -0.27578,0.22888 -0.40327,0.2408 -0.40327,0.0377 0,-0.16333 -0.18134,-0.29698 -0.40298,-0.29698 -0.35008,0 -0.34461,0.0891 0.0417,0.6786 l 0.44464,0.67859 0.53895,-0.53895 c 0.29642,-0.29642 0.45915,-0.61876 0.36161,-0.7163 z m 5.49841,-1.97429 c 2.62709,-1.89645 4.00933,-3.06235 3.83646,-3.23598 -0.1705,-0.17125 -7.24127,5.0468 -7.38338,5.44874 -0.12718,0.35975 0.68651,-0.14787 3.54692,-2.21276 z m -12.303125,0.82232 c 0,-0.14095 -0.178594,-0.18774 -0.396875,-0.10398 -0.218281,0.0838 -0.396875,0.19909 -0.396875,0.25628 0,0.0572 0.178594,0.10398 0.396875,0.10398 0.218281,0 0.396875,-0.11532 0.396875,-0.25628 z m 3.757905,-0.37633 c 1.15036,-0.64614 1.77613,-1.32988 1.48426,-1.62175 -0.0897,-0.0897 -0.71968,0.26178 -1.39997,0.78106 -0.86168,0.65773 -1.51166,0.94414 -2.142671,0.94414 -0.498176,0 -0.905774,0.11906 -0.905774,0.26458 0,0.49468 1.833515,0.26704 2.964155,-0.36803 z m 1.53376,0.23574 c 0,-0.49972 -0.50805,-0.49608 -1.17505,0.008 -0.48614,0.3677 -0.46846,0.38846 0.33073,0.38846 0.57412,0 0.84432,-0.12701 0.84432,-0.39687 z m 6.23237,-1.88433 c 4.03775,-2.91454 4.14099,-3.01046 3.24003,-3.01046 -0.45365,0 -1.78323,0.79005 -3.82701,2.27405 -3.96878,2.88175 -4.11466,3.01761 -3.24003,3.01761 0.41658,0 1.85218,-0.85573 3.82701,-2.2812 z m -7.73065,0.41456 c 0.82405,-0.59009 1.49828,-1.22432 1.49828,-1.40939 0,-0.2422 -0.63028,-0.34969 -2.24896,-0.38355 -1.846619,-0.0386 -2.248955,0.0242 -2.248955,0.35106 0,0.49116 1.591055,0.5533 2.063745,0.0806 0.24695,-0.24695 0.3175,-0.2451 0.3175,0.008 0,0.37729 -0.41455,0.56945 -1.471661,0.68215 -0.41357,0.0441 -0.797337,0.21634 -0.852815,0.38277 -0.157941,0.47383 1.454736,0.36299 2.267646,-0.15585 0.68376,-0.43641 0.70062,-0.43615 0.3506,0.006 -0.20222,0.25517 -0.88683,0.59467 -1.52135,0.75444 -1.304957,0.32859 -1.532982,0.75684 -0.402987,0.75684 0.454777,0 1.341267,-0.42291 2.248957,-1.07289 z m 6.13272,-1.5568 3.49709,-2.62971 v -1.33904 c 0,-0.73648 -0.0529,-1.33906 -0.11749,-1.33906 -0.0646,0 -1.65365,1.0418 -3.53118,2.31511 -3.06858,2.08106 -3.92242,2.83144 -3.59472,3.15915 0.13795,0.13794 2.1364,-1.19515 4.75254,-3.17025 1.13785,-0.85903 2.12606,-1.50463 2.19604,-1.43465 0.12001,0.12001 -3.01851,2.49843 -5.7862,4.38487 -0.69122,0.47114 -1.25677,1.02949 -1.25677,1.24078 0,0.59626 0.22323,0.48919 2.30595,-1.10604 1.07007,-0.81961 2.0005,-1.43529 2.06762,-1.36818 0.12652,0.12653 -2.73149,2.50961 -3.77826,3.15041 -0.56396,0.34524 -0.79667,0.7663 -0.42351,0.7663 0.0945,0 1.74549,-1.18336 3.66889,-2.62969 z m 1.71556,-2.22536 c 0,-0.0611 0.31232,-0.31581 0.69404,-0.56592 0.38171,-0.25011 0.61321,-0.32398 0.51443,-0.16414 -0.18877,0.30543 -1.20847,0.92145 -1.20847,0.73006 z m -6.49186,-0.5692 c 1.41499,-0.94604 2.68272,-1.65208 2.81718,-1.56898 0.13447,0.0831 0.72411,-0.22877 1.31033,-0.69306 0.58621,-0.46429 1.12673,-0.78327 1.20116,-0.70884 0.0744,0.0744 -0.25848,0.40559 -0.7398,0.73592 -0.48133,0.33033 -1.22777,0.90887 -1.65878,1.28563 -0.431,0.37678 -0.6224,0.47381 -0.42532,0.21563 0.72343,-0.9477 0.0611,-0.6836 -1.82558,0.72789 -1.0638,0.79588 -1.99509,1.50797 -2.06954,1.58242 -0.0744,0.0745 0.34444,0.0947 0.93088,0.045 0.82452,-0.0699 1.83828,-0.61689 4.4718,-2.4128 1.87307,-1.27733 3.45181,-2.36254 3.50832,-2.41159 0.3364,-0.29199 -3.15337,0.0434 -3.80691,0.36584 -0.94305,0.4653 -6.74688,4.29206 -6.74688,4.44855 0,0.3195 0.70565,-0.0554 3.03314,-1.61157 z"
       style="fill:#2b1e17;fill-opacity:1;stroke-width:0.264583"
       id="path1" />
  </g>
</svg>

