<?xml version="1.0" encoding="UTF-8" standalone="no"?>
<!-- Created with Inkscape (http://www.inkscape.org/) -->

<svg
   width="24mm"
   height="24mm"
   viewBox="0 0 24 24"
   version="1.1"
   id="svg1"
   inkscape:version="1.4.2 (f4327f4, 2025-05-13)"
   sodipodi:docname="mallet.svg"
   xmlns:inkscape="http://www.inkscape.org/namespaces/inkscape"
   xmlns:sodipodi="http://sodipodi.sourceforge.net/DTD/sodipodi-0.dtd"
   xmlns="http://www.w3.org/2000/svg"
   xmlns:svg="http://www.w3.org/2000/svg">
  <sodipodi:namedview
     id="namedview1"
     pagecolor="#ffffff"
     bordercolor="#000000"
     borderopacity="0.25"
     inkscape:showpageshadow="2"
     inkscape:pageopacity="0.0"
     inkscape:pagecheckerboard="0"
     inkscape:deskcolor="#d1d1d1"
     inkscape:document-units="mm"
     inkscape:zoom="0.68862935"
     inkscape:cx="42.83872"
     inkscape:cy="42.83872"
     inkscape:window-width="1920"
     inkscape:window-height="991"
     inkscape:window-x="-9"
     inkscape:window-y="-9"
     inkscape:window-maximized="1"
     inkscape:current-layer="layer1" />
  <defs
     id="defs1" />
  <g
     inkscape:label="Ebene 1"
     inkscape:groupmode="layer"
     id="layer1"
      transform="translate(0 0.015233) scale(1.041454) translate(-93.636546,-137.05895)">
    <path
       d="m 94.747504,159.07033 c -1.829077,-1.73996 -1.723461,-1.97687 2.796813,-6.27345 2.143358,-2.03729 5.263333,-5.03093 6.933273,-6.65253 l 3.03626,-2.94837 -1.63401,-1.81046 c -0.8987,-0.99575 -1.63401,-1.90107 -1.63401,-2.01181 0,-0.48844 1.95997,-2.31915 2.47818,-2.31475 0.5333,0.005 2.3581,0.90883 3.91347,1.93936 0.46087,0.30536 0.7625,0.36974 0.87551,0.18689 0.32431,-0.52474 1.3646,-0.27947 2.10866,0.49717 0.5965,0.62261 0.71795,0.9497 0.614,1.65365 -0.11278,0.76369 0.0374,1.06046 1.15801,2.2879 0.72542,0.79461 1.28759,1.66533 1.28759,1.99432 0,0.66721 -2.30306,3.07759 -2.94057,3.07759 -0.22486,0 -1.15413,-0.67445 -2.06503,-1.49877 -0.94021,-0.85084 -1.73178,-1.38303 -1.83103,-1.23105 -0.0962,0.14725 -1.43864,1.6849 -2.98329,3.417 -1.54465,1.7321 -4.28782,4.81615 -6.09593,6.85344 -3.879626,4.37137 -4.228799,4.5358 -6.017896,2.83387 z m 3.581011,-1.45301 c 0.85343,-0.91402 2.676755,-2.96785 4.051825,-4.56407 1.37507,-1.59621 3.48843,-3.99092 4.69635,-5.32158 1.20792,-1.33065 2.19622,-2.53259 2.19622,-2.67097 0,-0.13838 -0.23293,-0.4624 -0.51762,-0.72004 -0.50349,-0.45565 -0.62431,-0.36824 -4.42344,3.20013 -6.271543,5.89062 -9.875602,9.44036 -9.875602,9.72677 0,0.37862 1.628392,2.01161 2.005942,2.01161 0.17305,0 1.012896,-0.74783 1.866325,-1.66185 z m 16.575105,-10.97892 0.9756,-0.99911 -1.12034,-1.3513 c -1.78599,-2.15417 -4.81144,-4.77157 -6.50169,-5.62481 l -1.55846,-0.78671 -0.74414,0.77672 c -0.40928,0.42719 -0.69329,0.83186 -0.63114,0.89926 1.87484,2.0333 8.09278,8.08505 8.30708,8.08505 0.16362,0 0.73651,-0.44959 1.27309,-0.9991 z m -1.39737,-5.56936 c 0,-0.36067 -1.21565,-1.38811 -1.41111,-1.19265 -0.0997,0.0997 0.0787,0.45795 0.39648,0.79617 0.58711,0.62495 1.01463,0.79201 1.01463,0.39648 z"
       style="fill:#2b1e17;fill-opacity:1;stroke-width:0.264583"
       id="path1" />
  </g>
</svg>

