<?xml version="1.0" encoding="UTF-8" standalone="no"?>
<!-- Created with Inkscape (http://www.inkscape.org/) -->

<svg
   width="25.421534mm"
   height="26.069939mm"
   viewBox="0 0 25.421534 26.069939"
   version="1.1"
   id="svg1"
   inkscape:version="1.4.2 (f4327f4, 2025-05-13)"
   sodipodi:docname="miter_saw.svg"
   xmlns:inkscape="http://www.inkscape.org/namespaces/inkscape"
   xmlns:sodipodi="http://sodipodi.sourceforge.net/DTD/sodipodi-0.dtd"
   xmlns="http://www.w3.org/2000/svg"
   xmlns:svg="http://www.w3.org/2000/svg">
  <sodipodi:namedview
     id="namedview1"
     pagecolor="#ffffff"
     bordercolor="#000000"
     borderopacity="0.25"
     inkscape:showpageshadow="2"
     inkscape:pageopacity="0.0"
     inkscape:pagecheckerboard="0"
     inkscape:deskcolor="#d1d1d1"
     inkscape:document-units="mm"
     inkscape:zoom="0.68862935"
     inkscape:cx="47.1952"
     inkscape:cy="48.64736"
     inkscape:window-width="1920"
     inkscape:window-height="991"
     inkscape:window-x="-9"
     inkscape:window-y="-9"
     inkscape:window-maximized="1"
     inkscape:current-layer="layer1" />
  <defs
     id="defs1" />
  <g
     inkscape:label="Ebene 1"
     inkscape:groupmode="layer"
     id="layer1"
     transform="translate(-92.463261,-135.47052)">
    <path
       d="m 99.483332,161.48115 c -0.765154,-0.29761 -1.322917,-0.9668 -1.322917,-1.58721 0,-0.8879 -1.188317,-1.42915 -1.675362,-0.76308 -0.323591,0.44254 -0.438677,0.42183 -1.979933,-0.35619 -0.900004,-0.45432 -1.634548,-0.97315 -1.63232,-1.15296 0.0074,-0.59973 0.385389,-0.93705 1.319278,-1.17746 0.779963,-0.20078 0.938445,-0.3681 1.007068,-1.06323 0.04479,-0.45372 0.253153,-0.96745 0.463021,-1.14163 0.20987,-0.17418 0.381582,-0.59976 0.381582,-0.94574 0,-0.46324 0.146891,-0.62907 0.557233,-0.62907 0.306478,0 0.791369,-0.29765 1.077537,-0.66146 0.662848,-0.84267 0.958461,-0.83426 1.289598,0.0367 0.145989,0.38398 0.31695,0.64664 0.379912,0.58368 0.06296,-0.063 -0.133008,-0.7863 -0.435483,-1.60741 l -0.549957,-1.49294 -0.653775,0.77697 c -0.359574,0.42733 -0.877917,0.77696 -1.151874,0.77696 -0.849019,0 -3.328146,-1.22946 -3.780025,-1.87461 -0.412279,-0.58861 -0.418524,-2.17614 -0.01635,-4.15402 0.255281,-1.25543 2.274554,-1.24938 4.044498,0.0121 0.457253,0.3259 1.299736,0.93151 1.872184,1.34579 l 1.040815,0.75325 1.205548,-1.00771 c 0.94402,-0.78911 1.20586,-1.1821 1.20702,-1.81158 0.004,-2.00341 1.0997,-3.97385 2.65887,-4.78013 0.40988,-0.21195 1.31288,-1.13041 2.00667,-2.04101 0.69378,-0.91061 1.38604,-1.74312 1.53835,-1.85003 0.15231,-0.10692 1.31453,-0.19621 2.58272,-0.19844 2.03733,-0.004 2.33877,0.0576 2.589,0.52511 0.36087,0.67431 0.0299,1.34948 -1.37953,2.81434 -1.03584,1.07656 -1.04584,1.1057 -0.60862,1.77299 0.29947,0.45704 0.37811,0.87692 0.24097,1.2867 -0.11195,0.33455 -0.21113,1.56942 -0.22037,2.74417 -0.0147,1.87164 -0.10689,2.272 -0.74473,3.23592 -0.77595,1.17265 -2.3851,2.16881 -3.50338,2.16881 -0.37427,0 -1.10793,-0.17859 -1.63035,-0.39688 -1.18594,-0.49552 -1.14981,-0.49918 -1.14981,0.11668 0,0.28245 -0.11907,0.58714 -0.26459,0.67707 -0.14552,0.0899 -0.26458,0.55834 -0.26458,1.04088 0,0.77769 0.0977,0.89715 0.85989,1.05164 0.71569,0.14507 0.94912,0.0634 1.39189,-0.48716 0.40175,-0.49954 1.17389,-0.82824 3.15417,-1.34276 1.44221,-0.37472 2.78039,-0.6206 2.97374,-0.5464 0.2189,0.084 0.35156,0.57571 0.35156,1.3031 0,1.16534 0.003,1.16963 1.42812,1.74784 1.36442,0.55377 1.43592,0.63159 1.60279,1.74435 0.0961,0.6406 0.28685,1.23405 0.42396,1.3188 0.472,0.29171 0.2723,1.37802 -0.27987,1.52242 -0.83529,0.21843 -0.62108,0.60579 0.52485,0.94912 1.23688,0.37058 1.74863,1.09724 1.32723,1.88463 -0.33533,0.62658 -0.76208,0.66005 -1.97172,0.15463 -0.5291,-0.22107 -1.32378,-0.31721 -1.93947,-0.23462 -0.68377,0.0917 -1.26068,0.003 -1.6748,-0.25744 -1.19362,-0.75077 -2.47595,-1.02578 -3.30559,-0.70892 -0.42114,0.16085 -2.14749,0.2871 -3.83634,0.28056 l -3.07063,-0.0119 0.11898,0.62242 c 0.0654,0.34233 0.0176,0.68509 -0.10638,0.7617 -0.40141,0.24808 -2.062181,0.43138 -2.470296,0.27264 z m 2.001648,-2.53271 c 0.1606,-0.98227 0.26994,-1.78594 0.24299,-1.78594 -0.027,0 -0.42396,0.13071 -0.88224,0.29047 -0.78177,0.27252 -0.83323,0.37057 -0.83323,1.5875 0,0.74902 -0.120233,1.29703 -0.284569,1.29703 -0.173498,0 -0.254733,-0.48515 -0.208129,-1.24299 l 0.07644,-1.24298 -1.908537,-0.86564 -1.908538,-0.86564 v 0.6654 c 0,0.61717 -0.06714,0.65281 -0.926041,0.49168 -1.177139,-0.22083 -1.23095,0.24307 -0.09626,0.82984 0.702519,0.36329 0.929069,0.37596 1.477182,0.0826 0.925449,-0.49529 2.525697,0.36433 2.717829,1.45996 0.13947,0.79532 0.794999,1.22945 1.717023,1.13711 0.43226,-0.0433 0.57526,-0.36543 0.81608,-1.83842 z m 15.28417,1.01246 c 0.0952,-0.24814 -0.13423,-0.47377 -0.67263,-0.66146 -1.02108,-0.35595 -1.00277,-0.35725 -1.00277,0.0716 0,0.19604 0.26789,0.48564 0.59531,0.64355 0.80529,0.38837 0.9125,0.38304 1.08009,-0.0537 z m -2.73373,-0.59476 c 0,-0.2432 0.20803,-0.67206 0.46229,-0.95301 0.44577,-0.49257 0.43868,-0.5075 -0.19844,-0.41771 -0.52815,0.0744 -0.67737,0.26567 -0.74364,0.95302 -0.0466,0.48301 0.0404,0.85989 0.19844,0.85989 0.15474,0 0.28135,-0.19898 0.28135,-0.44219 z m -0.79375,-0.32968 c 0,-0.41031 -0.54377,-0.6868 -2.84428,-1.44627 -2.41309,-0.79663 -3.24536,-0.94587 -5.4901,-0.98445 -2.43321,-0.0418 -2.64583,-0.005 -2.64583,0.45409 0,0.40023 0.263,0.53359 1.32291,0.67081 1.56156,0.20215 3.35829,-2.7e-4 3.63802,-0.40987 0.1366,-0.20001 0.27718,-0.16803 0.4511,0.10262 0.25775,0.40114 4.26526,2.04441 5.10515,2.09337 0.28937,0.0169 0.46303,-0.16328 0.46303,-0.4803 z m -4.55734,-0.13885 c 0.35424,-0.35424 -0.35821,-0.46054 -3.35896,-0.50119 -2.31396,-0.0313 -3.19627,0.0434 -3.19624,0.27067 2e-5,0.17268 0.38699,0.3698 0.85993,0.43804 1.06951,0.15432 5.49467,-0.007 5.69527,-0.20752 z m 1.77921,-2.14543 c -1.74625,-0.6469 -3.7789,-1.41714 -4.51701,-1.71164 -1.25489,-0.5007 -1.45768,-0.51122 -3.12377,-0.16197 -0.97997,0.20541 -1.8466,0.43832 -1.92584,0.51757 -0.32956,0.32955 2.32443,0.78162 4.53954,0.77325 2.05048,-0.008 2.71202,0.11236 4.7625,0.86466 1.30968,0.48051 2.61937,0.87831 2.91041,0.88399 0.29105,0.006 -0.89958,-0.51896 -2.64583,-1.16586 z m -9.64415,0.27123 c 0.42933,-0.22201 0.78061,-0.45455 0.78061,-0.51675 0,-0.38501 -1.927689,-0.95894 -2.698836,-0.80353 -1.983727,0.39981 -2.00528,0.43827 -0.604144,1.07793 1.621213,0.74013 1.5694,0.73515 2.52237,0.24235 z m 13.33509,0.17547 c -0.45119,-0.40962 -7.4993,-2.99122 -7.92196,-2.90168 -0.22631,0.0479 1.34746,0.76242 3.49727,1.58772 3.77477,1.44912 4.96184,1.80163 4.42469,1.31396 z m 1.58943,-0.0181 c 0.0837,-0.13547 0.0312,-0.32109 -0.11668,-0.41249 -0.14789,-0.0914 -0.2689,0.0194 -0.2689,0.2463 0,0.46475 0.15877,0.53317 0.38558,0.16619 z m -0.65016,-1.32559 c 0,-0.5735 -0.0893,-1.08948 -0.19844,-1.14664 -0.38004,-0.19903 -3.33237,0.20686 -3.41554,0.46956 -0.0683,0.21575 2.70007,1.58617 3.41554,1.69078 0.10914,0.016 0.19844,-0.44021 0.19844,-1.0137 z m -18.708755,-0.80937 c -0.07611,-0.29104 -0.184026,-0.52916 -0.239813,-0.52916 -0.05579,0 -0.101433,0.23812 -0.101433,0.52916 0,0.29104 0.107915,0.52917 0.239813,0.52917 0.131897,0 0.177543,-0.23813 0.101433,-0.52917 z m 4.159465,-0.15415 c 1.81727,-0.37583 3.34552,-0.72471 3.3961,-0.7753 0.0506,-0.0506 -0.41062,-0.34837 -1.0249,-0.66175 -0.96024,-0.48988 -1.34417,-0.54074 -2.73762,-0.36271 -0.891412,0.11389 -1.977937,0.21316 -2.4145,0.2206 -0.742161,0.0127 -0.799039,0.0866 -0.875109,1.138 -0.04475,0.61846 0.01611,1.12448 0.135276,1.12448 0.119147,0 1.703488,-0.3075 3.520753,-0.68332 z m 10.31596,-0.21587 c 0,-0.43202 -1.29115,-1.06409 -1.98438,-0.97143 -1.30219,0.17404 -1.25328,0.48737 0.15862,1.01594 1.47046,0.5505 1.82576,0.54184 1.82576,-0.0445 z m 2.77812,-0.95289 c -1.08448,-0.50203 -3.30729,-0.70703 -3.30729,-0.30502 0,0.44706 1.22496,0.79833 2.77812,0.79665 l 1.5875,-0.002 z m -8.39501,-0.21498 c 0.0636,-0.19092 -0.17614,-0.31419 -0.61117,-0.31419 -0.61327,0 -0.66764,0.0582 -0.37921,0.40568 0.36843,0.44394 0.826,0.40167 0.99038,-0.0915 z m 4.01932,-0.35056 2.6559,-0.56553 v -0.89472 c 0,-0.79404 -0.067,-0.87855 -0.59531,-0.75103 -3.98119,0.96088 -4.24917,1.06572 -4.90023,1.91692 -0.80584,1.05358 -0.75206,1.05916 2.83964,0.29436 z M 98.543323,152.3774 c -0.08519,-0.13784 -0.267666,-0.18092 -0.405506,-0.0957 -0.13784,0.0852 -0.180916,0.26767 -0.09573,0.40551 0.08519,0.13784 0.267666,0.18092 0.405506,0.0957 0.13784,-0.0852 0.180917,-0.26767 0.09573,-0.40551 z m 4.850797,-0.24198 c 0.0164,-0.57517 -0.10006,-0.79475 -0.42275,-0.79737 -0.24493,-0.002 -0.69049,-0.0695 -0.99013,-0.14994 -0.4079,-0.10956 -0.6247,0.029 -0.86276,0.55152 -0.29238,0.64169 -0.27537,0.68433 0.21129,0.52987 0.30502,-0.0968 0.77958,0.007 1.12007,0.24584 0.81518,0.57097 0.91843,0.52943 0.94428,-0.37992 z m -3.11704,0.28019 c 0,-0.13693 -0.11906,-0.32255 -0.26458,-0.41249 -0.145522,-0.0899 -0.264585,0.0221 -0.264585,0.24897 0,0.22687 0.119063,0.41249 0.264585,0.41249 0.14552,0 0.26458,-0.11203 0.26458,-0.24897 z m 0.79375,-1.51524 c 0,-0.43545 -1.16599,-1.67537 -1.575473,-1.67537 -0.152135,0 -0.276608,0.25086 -0.276608,0.55747 0,0.36661 0.125627,0.50927 0.366929,0.41667 0.257646,-0.0989 0.327147,0.0113 0.233355,0.36998 -0.188471,0.72072 0.414007,1.40306 0.890027,1.008 0.19898,-0.16514 0.36177,-0.46967 0.36177,-0.67675 z m 2.27091,-1.58129 c -0.15541,-0.405 -0.2195,-0.41794 -0.42901,-0.0867 -0.13546,0.2142 -0.24812,0.62333 -0.25035,0.90917 -0.004,0.48127 0.028,0.48768 0.42901,0.0867 0.26696,-0.26696 0.36298,-0.61566 0.25035,-0.90917 z m -5.96401,0.41441 c 0.161846,-0.30241 0.229629,-0.71828 0.15063,-0.92415 -0.079,-0.20587 0.120192,-0.62101 0.442648,-0.92253 l 0.586282,-0.54823 -0.926041,-0.76926 c -1.441337,-1.1973 -3.319539,-1.99162 -3.87255,-1.63776 -0.16537,0.10582 -0.343964,1.0246 -0.396875,2.04174 l -0.0962,1.84934 1.322916,0.72416 c 1.592215,0.87159 2.393927,0.92525 2.78919,0.18669 z m 3.66131,-0.50849 c -0.61295,-1.0906 -1.02654,-1.3571 -1.02654,-0.66146 0,0.21828 0.12161,0.39688 0.27025,0.39688 0.14864,0 0.40588,0.29765 0.57164,0.66145 0.16576,0.36381 0.40895,0.66146 0.54042,0.66146 0.13148,0 -0.0286,-0.47625 -0.35577,-1.05833 z m 1.35471,-0.0158 c 0,-0.29975 0.57602,-1.16295 1.28003,-1.91823 1.16827,-1.25332 1.27033,-1.46587 1.16888,-2.43437 -0.084,-0.80194 0.0281,-1.23819 0.45896,-1.78594 0.6212,-0.78973 1.19303,-0.89434 2.25182,-0.41192 0.61875,0.28192 0.76895,0.23061 1.51819,-0.51864 0.80921,-0.8092 0.81865,-0.84572 0.35212,-1.36124 -0.65926,-0.72846 -2.09671,-1.15784 -3.12831,-0.93445 -1.95585,0.42353 -3.35492,2.30191 -3.36671,4.52011 -0.005,0.96925 -0.13878,1.20156 -1.18359,2.05771 l -1.17778,0.9651 0.64861,0.95577 c 0.35674,0.52568 0.64861,1.05823 0.64861,1.18344 0,0.12522 0.11906,0.22767 0.26459,0.22767 0.14552,0 0.26458,-0.24526 0.26458,-0.54501 z m 5.90783,-0.0805 c 1.11959,-0.46779 2.2081,-1.77616 2.55764,-3.07424 0.31056,-1.15332 0.1121,-2.92663 -0.40698,-3.63651 -0.50256,-0.6873 -0.75703,-0.23016 -0.41617,0.74763 0.4236,1.21511 0.35618,2.32761 -0.21763,3.59142 -0.71898,1.58355 -1.54683,2.04608 -3.33233,1.8618 -0.79559,-0.0821 -1.44653,-0.0926 -1.44653,-0.0233 0,0.16971 1.63336,0.8708 2.05902,0.8838 0.18657,0.006 0.72792,-0.15205 1.20298,-0.35055 z m -9.182881,-0.78074 c 0.423368,0.16246 0.498118,-0.33213 0.08846,-0.58531 -0.317246,-0.19607 -1.046745,0.32936 -1.046745,0.75393 0,0.19679 0.09195,0.19316 0.296826,-0.0117 0.163253,-0.16325 0.460909,-0.23386 0.661458,-0.1569 z m 5.888151,-1.10732 0.33235,-0.79375 -0.71159,0.70009 c -0.41555,0.40883 -0.63057,0.83121 -0.51683,1.01524 0.23099,0.37376 0.4465,0.15211 0.89607,-0.92158 z m 3.08116,0.77331 c 1.06822,-0.50691 1.71552,-1.76621 1.71002,-3.32683 -0.006,-1.64013 -0.28085,-1.98434 -1.13732,-1.42317 -0.40325,0.26422 -0.61933,0.59968 -0.53232,0.82641 0.27941,0.72814 -0.47046,1.97838 -1.2842,2.14113 -0.67954,0.13591 -1.54002,0.9421 -1.54002,1.44285 0,0.17187 1.18188,0.68973 1.6798,0.73604 0.12353,0.0115 0.62035,-0.1669 1.10404,-0.39643 z m -0.63083,-2.86409 c 0.39075,-0.8576 -0.035,-2.11662 -0.7517,-2.22278 -0.61397,-0.0909 -1.40131,0.57585 -1.40131,1.18677 0,0.29606 0.13326,0.24272 0.48795,-0.19531 0.47768,-0.58991 1.36413,-0.59108 1.36413,-0.002 0,0.14552 -0.16655,0.20067 -0.37011,0.12256 -0.20357,-0.0781 -0.44872,-0.0148 -0.54479,0.1406 -0.0961,0.15544 0.011,0.28262 0.23782,0.28262 0.48739,0 0.54581,0.41554 0.0974,0.69268 -0.17331,0.10712 -0.36183,0.0546 -0.41892,-0.11667 -0.0571,-0.17124 -0.27667,-0.31138 -0.48795,-0.31138 -0.30214,0 -0.32369,0.11295 -0.10093,0.52917 0.40522,0.75716 1.52368,0.69414 1.88843,-0.10641 z m 3.13865,-4.65609 c 0,-0.14552 -0.18562,-0.26458 -0.41249,-0.26458 -0.22687,0 -0.3389,0.11906 -0.24897,0.26458 0.0899,0.14552 0.27556,0.26458 0.41249,0.26458 0.13694,0 0.24897,-0.11906 0.24897,-0.26458 z m 1.17346,-2.39027 c 0.68523,-0.73257 1.19813,-1.47671 1.13978,-1.65365 -0.0618,-0.18742 -0.7182,-0.3544 -1.57249,-0.40004 -1.28972,-0.0689 -1.48347,-0.0131 -1.60797,0.46302 -0.12843,0.4911 -0.0211,0.54136 1.15658,0.54136 0.71398,0 1.29814,0.113 1.29814,0.25111 0,0.13812 -0.41844,0.57028 -0.92987,0.96037 -0.76383,0.5826 -1.11817,0.68399 -1.98437,0.56781 -0.57998,-0.0778 -1.05451,-0.0436 -1.05451,0.0759 0,0.30383 0.51992,0.48067 1.48515,0.50515 0.66093,0.0168 1.06987,-0.2423 2.06956,-1.31105 z m -3.53536,-0.0571 c 1.04011,-1.14971 1.2971,-1.79399 0.70826,-1.77562 -0.27786,0.009 -1.98737,2.03778 -2.27101,2.69557 -0.26321,0.61041 0.68125,0.0544 1.56275,-0.91995 z m 2.03117,0.16397 c 0.32742,-0.0877 0.59532,-0.27133 0.59532,-0.40796 0,-0.35799 -1.6657,-0.11674 -1.79108,0.25941 -0.11522,0.34564 0.27802,0.39449 1.19576,0.14855 z"
       style="fill:#2b1e17;fill-opacity:1;stroke-width:0.264583"
       id="path1" />
  </g>
</svg>
