<?xml version="1.0" encoding="UTF-8" standalone="no"?>
<!-- Created with Inkscape (http://www.inkscape.org/) -->

<svg
   width="24mm"
   height="24mm"
   viewBox="0 0 24 24"
   version="1.1"
   id="svg1"
   inkscape:version="1.4.2 (f4327f4, 2025-05-13)"
   sodipodi:docname="miter_saw.svg"
   xmlns:inkscape="http://www.inkscape.org/namespaces/inkscape"
   xmlns:sodipodi="http://sodipodi.sourceforge.net/DTD/sodipodi-0.dtd"
   xmlns="http://www.w3.org/2000/svg"
   xmlns:svg="http://www.w3.org/2000/svg">
  <sodipodi:namedview
     id="namedview1"
     pagecolor="#ffffff"
     bordercolor="#000000"
     borderopacity="0.25"
     inkscape:showpageshadow="2"
     inkscape:pageopacity="0.0"
     inkscape:pagecheckerboard="0"
     inkscape:deskcolor="#d1d1d1"
     inkscape:document-units="mm"
     inkscape:zoom="0.68862935"
     inkscape:cx="51.55168"
     inkscape:cy="55.90816"
     inkscape:window-width="1920"
     inkscape:window-height="991"
     inkscape:window-x="-9"
     inkscape:window-y="-9"
     inkscape:window-maximized="1"
     inkscape:current-layer="layer1" />
  <defs
     id="defs1" />
  <g
     inkscape:label="Ebene 1"
     inkscape:groupmode="layer"
     id="layer1"
      transform="translate(0.758984 0) scale(0.826037) translate(-91.58119,-133.87918)">
    <path
       d="m 111.36936,162.4202 c -0.40283,-0.5678 -0.48154,-0.57728 -2.29993,-0.27698 -2.73341,0.45142 -6.44252,0.36824 -9.321514,-0.20904 l -2.513542,-0.504 -0.54865,0.65625 c -0.511681,0.61204 -0.689962,0.65099 -2.645834,0.57814 l -2.097182,-0.0781 0.04742,-1.46922 c 0.02609,-0.80808 0.293907,-2.11776 0.595177,-2.91042 0.315447,-0.82996 0.547823,-2.06533 0.547899,-2.91279 1.2e-4,-1.32838 -0.07712,-1.52871 -0.793617,-2.05845 -0.925068,-0.68393 -0.982972,-1.07259 -0.28765,-1.93075 0.465296,-0.57427 0.576755,-0.598 1.382456,-0.2944 0.869452,0.32762 0.889518,0.31719 2.546358,-1.32292 l 1.669999,-1.65314 -0.15092,-1.32291 c -0.08301,-0.72761 -0.05033,-1.67538 0.07262,-2.10616 0.187084,-0.65548 0.120438,-0.87192 -0.408612,-1.32699 -0.895459,-0.77024 -0.578292,-1.74192 1.151525,-3.52786 1.439235,-1.48592 1.499219,-1.50444 3.172397,-0.97905 0.43307,0.13599 1.17661,-0.36305 3.51611,-2.35989 1.6318,-1.39279 3.1982,-2.53234 3.48089,-2.53234 0.28269,0 1.52817,0.46855 2.76773,1.04123 2.05427,0.94908 2.25376,1.10768 2.25376,1.7918 0,0.44707 -0.32782,1.14826 -0.81071,1.7341 -0.76279,0.9254 -0.78625,1.01845 -0.39688,1.57436 0.54892,0.78369 0.52824,0.9215 -0.24597,1.63901 -0.65035,0.60273 -0.65329,0.62434 -0.20556,1.50872 0.25772,0.50908 0.49803,1.71898 0.55548,2.79673 0.0847,1.58925 -0.004,2.12969 -0.544,3.3089 -1.20083,2.62296 -3.35776,4.15961 -6.14979,4.38126 -1.95764,0.15542 -3.55115,-0.24907 -4.66131,-1.18321 l -0.84113,-0.70777 -0.635194,0.78087 c -0.505976,0.62201 -0.60166,0.96827 -0.470331,1.70204 0.326459,1.82405 0.121595,1.75397 5.726925,1.95895 5.4085,0.19779 8.50983,0.61225 9.51942,1.27216 0.4398,0.28748 1.04622,0.36549 2.13521,0.2747 1.75199,-0.14608 2.31551,0.16194 2.31551,1.26565 0,0.87935 -0.37129,1.05425 -2.2381,1.05425 h -1.40107 l 0.13031,1.15614 c 0.15591,1.38319 0.0113,1.50333 -1.99922,1.66109 -1.32515,0.10398 -1.55283,0.0483 -1.92048,-0.46995 z m 2.95141,-0.64981 c 0.0842,-0.0468 0.0136,-0.77532 -0.15675,-1.6189 -0.27776,-1.37508 -0.37573,-1.5302 -0.94681,-1.4992 -0.35035,0.019 -2.18481,0.17537 -4.07659,0.34745 -3.78422,0.3442 -8.2821,0.16158 -10.186454,-0.41358 -0.654844,-0.19778 -2.163024,-0.36089 -3.351514,-0.36247 l -2.160887,-0.003 -0.286509,1.33594 c -0.499684,2.32995 -0.481282,2.36823 1.138272,2.36823 1.245021,0 1.482056,-0.0874 1.878759,-0.69286 0.508002,-0.77531 0.652578,-0.77509 4.766253,0.007 2.99905,0.57036 6.60561,0.46863 9.54563,-0.26926 0.43747,-0.1098 0.78206,0.0326 1.22052,0.50436 0.49492,0.53253 0.78678,0.63112 1.53698,0.51918 0.50932,-0.076 0.99491,-0.17648 1.0791,-0.2233 z m 3.5511,-2.8881 c 0,-0.33391 -1.04584,-0.49058 -1.87899,-0.28147 -1.12595,0.28259 -0.70006,0.71154 0.62222,0.6267 0.69123,-0.0444 1.25677,-0.19971 1.25677,-0.34523 z m -6.61458,-0.89359 1.32292,-0.18578 -1.19063,-0.19375 c -2.39004,-0.38894 -6.82982,-0.69365 -10.2337,-0.70234 -2.808589,-0.007 -3.567707,-0.0898 -3.902606,-0.42469 -0.228677,-0.22867 -0.415775,-0.52633 -0.415775,-0.66146 0,-0.13512 -0.582575,-0.24568 -1.294609,-0.24568 -1.338119,0 -1.615807,0.23107 -1.615807,1.34456 0,0.45519 0.211436,0.50927 2.050521,0.52451 1.127786,0.009 2.764895,0.17796 3.63802,0.3747 1.705286,0.38425 9.323586,0.49545 11.641666,0.16993 z m -12.73154,-2.87672 c -0.233082,-0.97516 -0.356148,-1.16139 -0.6482,-0.98089 -0.282959,0.17488 -0.332891,1.26912 -0.06991,1.5321 0.470072,0.47007 0.885926,0.15087 0.71811,-0.55121 z m -1.688251,-0.5733 c 0,-0.30201 1.142376,-1.58305 2.824224,-3.16703 2.705767,-2.54833 2.811197,-2.68849 2.513537,-3.34176 -0.57933,-1.2715 -0.38868,-2.66639 0.50328,-3.68228 1.2969,-1.47708 2.31381,-1.52392 4.75366,-0.21895 0.079,0.0423 0.75059,-0.44122 1.49238,-1.0744 0.74178,-0.63318 1.68917,-1.4008 2.10529,-1.70583 0.59306,-0.43473 0.68753,-0.62463 0.43707,-0.87863 -0.25202,-0.25559 -0.40743,-0.25108 -0.73574,0.0214 -0.34996,0.29044 -0.65713,0.22337 -1.92944,-0.42132 -1.27668,-0.64689 -1.82341,-0.76553 -3.49759,-0.75893 -2.17464,0.009 -3.01477,0.32909 -4.66857,1.78114 -1.4797,1.2992 -2.204904,3.0992 -2.208016,5.48044 l -0.0026,1.97774 -1.682527,1.72643 c -0.961642,0.98674 -1.868535,2.21051 -2.116667,2.85627 -0.682559,1.77648 -0.619191,1.91286 0.888839,1.91286 1.127384,0 1.322916,-0.075 1.322916,-0.50715 z m -2.910416,-1.78712 c 0,-0.26683 -0.843217,-1.14531 -1.099341,-1.14531 -0.330939,0 -0.271114,0.64038 0.09392,1.00542 0.340402,0.3404 1.005417,0.43293 1.005417,0.13989 z m 13.117597,-0.21065 c 1.42859,-0.42424 3.12911,-1.95542 3.97649,-3.58049 0.65316,-1.25261 0.65579,-4.04259 0.005,-5.25842 -0.42589,-0.7956 -0.52133,-0.84936 -0.87681,-0.49389 -0.32899,0.32899 -0.34138,0.50638 -0.0707,1.01217 0.18052,0.33729 0.32821,1.23096 0.32821,1.98592 0,3.83699 -3.63698,6.52266 -7.15596,5.28421 -1.64565,-0.57916 -1.9675,-0.61171 -2.10804,-0.21319 -0.16134,0.45745 2.46937,1.64613 3.65028,1.64936 0.51929,0.001 1.53249,-0.17213 2.25155,-0.38567 z m 0.35472,-1.98206 c 1.93987,-0.98965 3.00003,-3.39767 2.42388,-5.50551 l -0.30859,-1.12895 -1.12063,0.65673 -1.12063,0.65674 -0.7862,-0.51823 c -1.19286,-0.78629 -2.32489,-0.68103 -3.14392,0.29234 -0.79709,0.94729 -0.81704,1.12634 -0.29148,2.61596 0.41991,1.19014 0.25164,1.88697 -0.56618,2.34465 -1.03074,0.57683 0.8705,1.42718 2.75322,1.23141 0.61893,-0.0644 1.59116,-0.35467 2.16053,-0.64514 z m -3.26696,-3.33713 c -0.55243,-0.55242 -0.52575,-1.25477 0.0681,-1.79217 0.62888,-0.56913 1.18075,-0.55442 1.7241,0.046 1.21157,1.33877 -0.51618,3.0222 -1.79218,1.7462 z m 1.38594,-0.84099 c -0.049,-0.25466 -0.2645,-0.46302 -0.4788,-0.46302 -0.21429,0 -0.42975,0.20836 -0.4788,0.46302 -0.0626,0.32487 0.0803,0.46302 0.4788,0.46302 0.3985,0 0.54136,-0.13815 0.4788,-0.46302 z m -5.804251,-5.67006 c 0.957591,-1.0488 1.081211,-1.29605 0.717751,-1.43552 -0.806072,-0.30932 -3.022547,2.39537 -2.673184,3.26199 0.177901,0.4413 0.208222,0.43856 0.494065,-0.0446 0.167492,-0.28314 0.825108,-1.08496 1.461368,-1.78182 z m 11.760411,-2.46143 c 0.68088,-0.65239 1.23796,-1.29058 1.23796,-1.41819 0,-0.12761 -0.92274,-0.65201 -2.05052,-1.16533 -2.37452,-1.08077 -2.24825,-1.11415 -4.98817,1.31856 l -1.56027,1.38532 1.12448,0.004 c 0.93196,0.003 1.12448,-0.0828 1.12448,-0.5019 0,-0.6197 1.43661,-1.8756 2.14546,-1.8756 0.80013,0 2.34196,0.7231 2.51756,1.18072 0.19749,0.51464 -0.57329,1.72969 -1.09724,1.72969 -0.44434,0 -0.52367,-0.41581 -0.1262,-0.66146 0.50937,-0.3148 0.25751,-0.86477 -0.54899,-1.19883 -0.74963,-0.31051 -0.86809,-0.28247 -1.50732,0.35675 -0.38156,0.38157 -0.64053,0.73559 -0.57549,0.78672 0.17716,0.13927 2.74078,1.2274 2.9152,1.23736 0.0831,0.005 0.70818,-0.52515 1.38906,-1.17755 z"
       style="fill:#2b1e17;fill-opacity:1;stroke-width:0.264583"
       id="path1" />
  </g>
</svg>

