<?xml version="1.0" encoding="UTF-8" standalone="no"?>
<!-- Created with Inkscape (http://www.inkscape.org/) -->

<svg
   width="24mm"
   height="24mm"
   viewBox="0 0 24 24"
   version="1.1"
   id="svg1"
   inkscape:version="1.4.2 (f4327f4, 2025-05-13)"
   sodipodi:docname="wooden_board.svg"
   xmlns:inkscape="http://www.inkscape.org/namespaces/inkscape"
   xmlns:sodipodi="http://sodipodi.sourceforge.net/DTD/sodipodi-0.dtd"
   xmlns="http://www.w3.org/2000/svg"
   xmlns:svg="http://www.w3.org/2000/svg">
  <sodipodi:namedview
     id="namedview1"
     pagecolor="#ffffff"
     bordercolor="#000000"
     borderopacity="0.25"
     inkscape:showpageshadow="2"
     inkscape:pageopacity="0.0"
     inkscape:pagecheckerboard="0"
     inkscape:deskcolor="#d1d1d1"
     inkscape:document-units="mm"
     inkscape:zoom="0.68862935"
     inkscape:cx="57.36032"
     inkscape:cy="37.03008"
     inkscape:window-width="1920"
     inkscape:window-height="991"
     inkscape:window-x="-9"
     inkscape:window-y="-9"
     inkscape:window-maximized="1"
     inkscape:current-layer="layer1" />
  <defs
     id="defs1" />
  <g
     inkscape:label="Ebene 1"
     inkscape:groupmode="layer"
     id="layer1"
      transform="translate(0 4.075529) scale(0.794574) translate(-89.958332,-138.51816)">
    <path
       d="m 101.86458,157.42647 c -1.67349,-0.55944 -4.828644,-1.57534 -7.011456,-2.25755 -2.182813,-0.68221 -4.17711,-1.42416 -4.431771,-1.64878 -0.328142,-0.28944 -0.463021,-0.80525 -0.463021,-1.77071 0,-1.19439 0.105979,-1.46213 0.859896,-2.17235 1.096735,-1.03317 13.546142,-10.22768 14.940722,-11.03448 0.17738,-0.10262 1.48707,0.12743 2.91042,0.51122 6.08099,1.63964 10.81165,3.07646 11.10093,3.37163 0.27593,0.28155 0.44917,1.60828 0.37617,2.8808 -0.0141,0.24579 -3.17526,3.31165 -7.0248,6.81302 -5.0414,4.58545 -7.16911,6.3603 -7.60677,6.34526 -0.33418,-0.0115 -1.97683,-0.47862 -3.65032,-1.03806 z m 2.40067,-0.75685 c -0.38732,-0.72373 -2.08957,-2.15296 -2.56421,-2.15296 -0.45231,0 -0.44581,0.027 0.30226,1.25496 0.69882,1.14711 2.85296,2.00231 2.26195,0.898 z m 0.86116,-1.10813 c -0.12051,-0.1175 -0.57179,-0.30083 -1.00283,-0.40741 l -0.7837,-0.19378 0.916,1.16007 0.91599,1.16006 0.0868,-0.75265 c 0.0478,-0.41397 -0.0118,-0.8488 -0.13229,-0.96629 z m 8.39959,-5.03961 c 5.85646,-5.30471 5.87195,-5.3209 5.75525,-6.01608 -0.0702,-0.41797 -0.70951,0.0315 -3.39375,2.38579 -1.81901,1.59543 -4.76581,4.16659 -6.54844,5.71369 -2.9515,2.56154 -3.24114,2.89287 -3.24114,3.70755 v 0.89464 l 1.14377,-1.01467 c 0.62908,-0.55808 3.45702,-3.10998 6.28431,-5.67092 z m -12.03823,4.87489 c -0.36326,-0.53458 -1.05216,-1.13584 -1.530892,-1.33614 -0.843452,-0.35289 -0.829741,-0.32277 0.442552,0.97197 1.54511,1.57239 2.01653,1.73013 1.08834,0.36417 z m -0.68152,0.48423 c 0,-0.12274 -0.60537,-0.73362 -1.345257,-1.3575 -1.071631,-0.90362 -1.885712,-1.29546 -4.00236,-1.92648 -2.557745,-0.76252 -2.691003,-0.77598 -3.563638,-0.35985 -1.697191,0.80934 -0.184198,1.33695 1.64371,0.5732 1.157648,-0.48369 1.192956,-0.30426 0.05765,0.29296 l -0.859896,0.45235 1.583148,0.48859 c 0.87073,0.26873 2.179158,0.66559 2.907617,0.88192 l 1.324472,0.39333 -0.575339,-0.57534 c -0.316436,-0.31644 -1.386739,-0.794 -2.37845,-1.06125 l -1.803115,-0.48591 1.434828,0.14584 c 1.597147,0.16234 2.222555,0.42102 3.195381,1.32169 0.537842,0.49795 2.040359,1.43121 2.315099,1.43798 0.0364,8e-4 0.0662,-0.0988 0.0662,-0.22153 z m 9.40665,-5.20079 c 8.48482,-7.50757 8.60967,-7.62621 8.25926,-7.84862 -0.18464,-0.11719 -0.5853,-0.2149 -0.89037,-0.21713 -0.30506,-0.002 -0.93606,-0.19431 -1.40221,-0.42686 l -0.84755,-0.42282 -1.37591,1.29206 c -1.87698,1.76258 -4.90769,4.16162 -5.88297,4.6568 -1.12818,0.57281 -2.66886,0.82908 -2.88472,0.47982 -0.10875,-0.17596 -0.0204,-0.22551 0.23033,-0.12927 0.76602,0.29395 3.74859,-1.40771 6.5135,-3.71619 1.52054,-1.26953 2.79954,-2.40369 2.84224,-2.52036 0.0427,-0.11667 -0.3145,-0.27386 -0.79375,-0.3493 -0.7619,-0.11993 -1.0285,0.0153 -2.12205,1.07682 -0.68787,0.66769 -1.31979,1.14486 -1.40425,1.0604 -0.0845,-0.0845 0.4188,-0.69961 1.11838,-1.36698 1.12398,-1.07223 1.20171,-1.21411 0.66815,-1.21953 -0.68959,-0.007 -4.27696,2.42746 -5.5169,3.74389 -0.45597,0.4841 -1.0291,1.23737 -1.27361,1.67393 -0.24452,0.43656 -0.37746,0.57566 -0.29544,0.30909 0.082,-0.26656 0.14914,-0.59364 0.14914,-0.72684 0,-0.53762 2.10657,-2.52111 4.08333,-3.84476 1.25734,-0.84192 1.94692,-1.45246 1.71979,-1.52266 -0.20854,-0.0644 -0.59945,-0.18898 -0.86867,-0.27672 -0.32131,-0.10472 -1.45508,0.39558 -3.29945,1.45592 -2.69348,1.5485 -4.54542,2.21069 -4.54542,1.62529 0,-0.35398 1.34275,-1.51477 3.28537,-2.84015 1.394,-0.95108 1.48425,-1.06645 0.89058,-1.1384 -0.71105,-0.0862 -0.65265,-0.12584 -9.733524,6.61012 -2.880016,2.13633 -5.306677,3.99794 -5.392576,4.13694 -0.0859,0.13899 0.162628,0.31365 0.552286,0.38814 0.569994,0.10896 1.280472,-0.26653 3.634938,-1.92109 4.235455,-2.97639 6.651446,-4.08698 7.449686,-3.4245 0.20437,0.16961 0.37157,0.48703 0.37157,0.7054 0,0.61515 -2.33877,3.76443 -3.81979,5.14354 l -1.331339,1.23974 0.789628,0.30484 c 1.827211,0.7054 2.412871,0.64685 3.587611,-0.35868 1.15053,-0.98481 5.21609,-3.231 5.44099,-3.00611 0.0708,0.0708 -0.83319,0.64135 -2.00893,1.26781 -2.14297,1.14182 -3.98108,2.46937 -3.98108,2.87529 0,0.24869 2.82711,1.04705 3.47005,0.97991 0.23504,-0.0246 2.31119,-1.71149 4.61368,-3.74878 z m 0.38293,-2.38125 c 3.12616,-3.1287 5.77757,-5.68855 5.89203,-5.68855 0.11446,0 -2.31809,2.55985 -5.40565,5.68855 -3.08756,3.12869 -5.73897,5.68854 -5.89203,5.68854 -0.15305,0 2.27949,-2.55985 5.40565,-5.68854 z m -4.0962,-1.97654 c -0.0946,-0.15306 0.19857,-0.64883 0.65147,-1.10173 0.71131,-0.71131 0.95462,-0.80216 1.78663,-0.66714 0.58518,0.095 1.1255,0.0299 1.37679,-0.16581 0.36415,-0.28361 0.37019,-0.26676 0.0505,0.1409 -0.19972,0.25466 -0.47556,0.46302 -0.61297,0.46302 -0.13741,0 -0.62885,0.28384 -1.09208,0.63075 -1.0401,0.77893 -1.93277,1.06818 -2.16032,0.70001 z m 1.47569,-0.72634 c 0.75633,-0.44678 1.00831,-0.869 0.5186,-0.869 -0.31587,0 -1.81365,1.30324 -1.51079,1.31456 0.12307,0.005 0.56956,-0.19591 0.99219,-0.44556 z m -15.958958,5.96833 c -0.528463,-0.33536 -1.26428,-0.25968 -1.26428,0.13003 0,0.57763 0.279395,0.68747 0.959948,0.37738 0.468469,-0.21345 0.550923,-0.35093 0.304332,-0.50741 z m 7.727418,-1.21493 c 1.61887,-1.66563 3.44372,-4.10819 3.44372,-4.60943 0,-0.52726 -1.71148,-0.13952 -3.491493,0.79099 -1.861318,0.97303 -6.088854,3.85909 -6.238523,4.25894 -0.04,0.10685 0.333981,0.3191 0.831064,0.47166 0.871955,0.26761 0.97681,0.21799 2.976983,-1.4088 1.140259,-0.9274 2.195031,-1.68486 2.343936,-1.68324 0.148907,0.002 -0.143296,0.32903 -0.649341,0.7276 -0.506044,0.39857 -1.436957,1.17197 -2.068695,1.71866 -1.128463,0.97656 -1.137851,0.99831 -0.535127,1.24 1.205132,0.48326 1.642872,0.2886 3.387476,-1.50638 z m 4.84158,-7.63664 c 0.75914,-0.38022 2.08735,-1.11687 2.95156,-1.63699 1.56269,-0.9405 1.56735,-0.947 0.84995,-1.18613 -0.61419,-0.20473 -0.94088,-0.0893 -2.19894,0.7771 -1.68571,1.16088 -3.49827,2.70995 -3.19007,2.72633 0.11398,0.006 0.82835,-0.30008 1.5875,-0.68031 z"
       style="fill:#2b1e17;fill-opacity:1;stroke-width:0.264583"
       id="path1" />
  </g>
</svg>

