<?xml version="1.0" encoding="UTF-8" standalone="no"?>
<!-- Created with Inkscape (http://www.inkscape.org/) -->

<svg
   width="24mm"
   height="24mm"
   viewBox="0 0 24 24"
   version="1.1"
   id="svg1"
   inkscape:version="1.4.2 (f4327f4, 2025-05-13)"
   sodipodi:docname="nail_gun.svg"
   xmlns:inkscape="http://www.inkscape.org/namespaces/inkscape"
   xmlns:sodipodi="http://sodipodi.sourceforge.net/DTD/sodipodi-0.dtd"
   xmlns="http://www.w3.org/2000/svg"
   xmlns:svg="http://www.w3.org/2000/svg">
  <sodipodi:namedview
     id="namedview1"
     pagecolor="#ffffff"
     bordercolor="#000000"
     borderopacity="0.25"
     inkscape:showpageshadow="2"
     inkscape:pageopacity="0.0"
     inkscape:pagecheckerboard="0"
     inkscape:deskcolor="#d1d1d1"
     inkscape:document-units="mm"
     inkscape:zoom="0.68862935"
     inkscape:cx="51.55168"
     inkscape:cy="45.74304"
     inkscape:window-width="1920"
     inkscape:window-height="991"
     inkscape:window-x="-9"
     inkscape:window-y="-9"
     inkscape:window-maximized="1"
     inkscape:current-layer="layer1" />
  <defs
     id="defs1" />
  <g
     inkscape:label="Ebene 1"
     inkscape:groupmode="layer"
     id="layer1"
      transform="translate(0 1.281605) scale(0.890679) translate(-91.578312,-136.53411)">
    <path
       d="m 96.625832,160.28458 c -0.550807,-0.55081 -0.374335,-1.52003 0.335661,-1.84353 0.766813,-0.34938 0.636789,-0.74939 -0.243594,-0.74939 -0.339646,0 -0.689806,-0.18833 -0.778134,-0.41851 -0.08833,-0.23018 -0.162224,-3.29604 -0.164211,-6.81302 -0.0021,-3.51698 -0.06986,-6.63263 -0.150823,-6.92367 -0.151816,-0.54573 -1.511657,-1.3004 -3.16651,-1.75733 -0.818052,-0.22587 -0.933312,-0.35575 -0.862192,-0.97149 0.06882,-0.59587 0.295952,-0.77947 1.405011,-1.13574 0.727605,-0.23374 1.881931,-0.68022 2.565173,-0.99219 0.683239,-0.31197 1.522629,-0.56721 1.865312,-0.56721 0.342681,0 0.766646,-0.14359 0.942144,-0.31909 0.222825,-0.22282 2.054661,-0.34962 6.072191,-0.42031 3.99754,-0.0703 6.09905,-0.21517 6.88682,-0.47466 1.32563,-0.43665 4.73054,-0.49472 5.7728,-0.0985 1.20227,0.4571 1.4104,0.97967 1.41845,3.56148 0.009,2.90683 -0.45993,3.91265 -2.02736,4.34791 -0.55327,0.15364 -1.19973,0.28001 -1.43657,0.28082 -0.23684,7.9e-4 -0.58978,0.19325 -0.78431,0.42763 -0.37593,0.45298 -0.42343,0.28602 1.83581,6.45301 1.01112,2.76003 1.14577,5.3776 0.32854,6.38684 -0.44448,0.5489 -0.73056,0.62462 -2.35993,0.62462 -1.55867,0 -1.95513,-0.0949 -2.48783,-0.59531 -0.61598,-0.57869 -0.79022,-0.59532 -6.23902,-0.59532 -4.80614,0 -5.605345,0.0566 -5.605345,0.39688 0,0.21828 0.174406,0.39687 0.387565,0.39687 0.60429,0 1.00846,0.95653 0.67077,1.5875 -0.24036,0.44911 -0.55399,0.52917 -2.073059,0.52917 -1.039334,0 -1.922992,-0.13313 -2.107359,-0.3175 z m 3.386668,-0.723 c 0,-0.13572 -0.238126,-0.32233 -0.529168,-0.41471 -0.291042,-0.0924 -0.529167,-0.39805 -0.529167,-0.67929 0,-0.28123 -0.178593,-0.51133 -0.396875,-0.51133 -0.226401,0 -0.396875,0.23794 -0.396875,0.55393 0,0.33891 -0.214095,0.60993 -0.551532,0.69817 -0.419327,0.10966 -0.466894,0.19788 -0.198437,0.36805 0.480475,0.30457 2.602054,0.29248 2.602054,-0.0148 z m 15.69957,-1.85324 c 0.17356,-0.17356 0.30605,-1.08057 0.30388,-2.08043 -0.003,-1.50459 -0.19867,-2.25291 -1.29197,-4.9477 -1.50905,-3.71955 -1.77553,-5.19059 -1.07957,-5.95961 0.26016,-0.28748 0.6885,-0.52269 0.95187,-0.52269 0.71801,0 0.97333,-0.72155 1.07078,-3.02608 l 0.0881,-2.08478 -1.76834,0.0595 c -1.48315,0.0499 -1.85653,-0.0287 -2.31511,-0.48727 -0.50946,-0.50946 -0.83104,-0.54452 -4.71395,-0.5139 -2.29195,0.0181 -5.00062,0.10738 -6.01927,0.19844 l -1.852083,0.16557 -0.08291,0.8599 -0.08291,0.85989 4.316243,0.004 c 2.88452,0.003 4.1846,0.0891 3.91937,0.26054 -0.21828,0.14106 -2.15305,0.2583 -4.29948,0.26053 l -3.902605,0.004 v 1.43645 1.43645 l 1.389065,0.27071 c 0.76398,0.14888 2.71517,0.46712 4.33596,0.70717 1.62079,0.24006 3.21262,0.57317 3.53741,0.74024 0.39201,0.20167 0.83544,0.9708 1.31918,2.28815 0.40077,1.0914 1.16042,2.95616 1.68811,4.1439 0.80744,1.8174 0.95944,2.45456 0.95944,4.02175 0,1.48864 0.0929,1.91936 0.46302,2.14707 0.56394,0.34692 2.64078,0.18307 3.06572,-0.24188 z m -15.1704,-6.89584 v -6.08542 h -0.661463 -0.661458 v 5.55625 c 0,4.01725 -0.08445,5.55625 -0.304869,5.55625 -0.225211,0 -0.26611,-1.47474 -0.15653,-5.64415 l 0.148336,-5.64416 -0.967949,-0.37379 c -0.532371,-0.20559 -1.053881,-0.41296 -1.15891,-0.46082 -0.238479,-0.10868 -0.265022,12.76937 -0.02681,13.00758 0.09552,0.0955 0.987266,0.17367 1.98166,0.17367 h 1.807993 z m -2.910421,-0.39688 c 0,-3.61597 0.0964,-5.68854 0.264583,-5.68854 0.168185,0 0.264583,2.07257 0.264583,5.68854 0,3.61598 -0.0964,5.68854 -0.264583,5.68854 -0.168185,0 -0.264583,-2.07256 -0.264583,-5.68854 z m 13.626041,5.02709 v -1.32292 l -4.82865,-0.0721 c -3.16074,-0.0472 -4.82864,0.0213 -4.82864,0.19844 0,0.17404 1.65169,0.27055 4.63021,0.27055 2.91041,0 4.63021,0.0983 4.63021,0.26459 0,0.16631 -1.7198,0.26458 -4.63021,0.26458 -2.91042,0 -4.63021,0.0983 -4.63021,0.26458 0,0.16628 1.71459,0.26459 4.61459,0.26459 2.791,0 4.67922,0.10456 4.77812,0.26458 0.10671,0.17266 -1.49656,0.26458 -4.6146,0.26458 -4.10228,0 -4.77811,0.057 -4.77811,0.40285 0,0.34865 0.64953,0.39314 4.82864,0.33073 l 4.82865,-0.0721 z m -1.40902,-4.62697 c -0.90039,-1.95727 -1.04065,-2.12496 -1.89827,-2.26958 -1.59819,-0.26948 -1.59321,-0.26399 -1.41552,-1.56039 0.0905,-0.66019 0.059,-1.20293 -0.0699,-1.20607 -0.12892,-0.003 -1.2762,-0.16238 -2.54951,-0.35385 L 101.6,145.07772 v 3.92572 3.92572 h 4.61025 4.61025 z m -1.62627,-4.22271 c -0.41729,-0.77973 -0.80117,-0.6689 -0.80117,0.23132 0,0.52562 0.14873,0.80425 0.46302,0.86745 0.57226,0.11506 0.72396,-0.37787 0.33815,-1.09877 z m 9.24693,-3.7067 c 0.44711,-0.83543 0.34124,-4.40086 -0.14512,-4.88722 -0.22868,-0.22868 -0.52633,-0.41578 -0.66146,-0.41578 -0.13547,0 -0.24568,1.23658 -0.24568,2.75649 0,1.51606 -0.0776,2.95866 -0.17242,3.20578 -0.14841,0.38675 -0.094,0.40733 0.39082,0.14787 0.30977,-0.16579 0.68501,-0.529 0.83386,-0.80714 z m -19.308515,-1.86342 c 0,-2.28057 -0.07459,-2.37699 -1.437984,-1.85863 -0.623416,0.23702 -0.678682,0.38605 -0.678682,1.83004 0,1.4741 0.04531,1.58855 0.727604,1.83774 1.357236,0.49571 1.389062,0.45425 1.389062,-1.80915 z m -2.910416,-0.15433 c 0,-0.64082 -0.107191,-0.91241 -0.330729,-0.83798 -0.621673,0.20699 -0.570535,1.78606 0.05784,1.78606 0.150087,0 0.272886,-0.42664 0.272886,-0.94808 z m -1.672291,-0.28324 c -0.07695,-0.077 -0.416777,-0.0485 -0.755166,0.0632 l -0.615252,0.20313 0.661459,0.16886 c 0.609817,0.15569 1.037378,-0.10678 0.708959,-0.43521 z m 22.140892,-2.60513 c -0.115,-0.29967 -0.59902,-0.39688 -1.97608,-0.39688 -1.44474,0 -1.82377,0.0825 -1.82377,0.39688 0,0.31735 0.39595,0.39687 1.97607,0.39687 1.6478,0 1.95077,-0.0659 1.82378,-0.39687 z"
       style="fill:#2b1e17;fill-opacity:1;stroke-width:0.264583"
       id="path1" />
  </g>
</svg>

