<?xml version="1.0" encoding="UTF-8" standalone="no"?>
<!-- Created with Inkscape (http://www.inkscape.org/) -->

<svg
   width="24"
   height="24"
   viewBox="0 0 48 47.999999"
   version="1.1"
   id="svg1"
   inkscape:version="1.4.2 (f4327f4, 2025-05-13)"
   sodipodi:docname="open_chest_crate.svg"
   xmlns:inkscape="http://www.inkscape.org/namespaces/inkscape"
   xmlns:sodipodi="http://sodipodi.sourceforge.net/DTD/sodipodi-0.dtd"
   xmlns="http://www.w3.org/2000/svg"
   xmlns:svg="http://www.w3.org/2000/svg">
  <sodipodi:namedview
     id="namedview1"
     pagecolor="#ffffff"
     bordercolor="#000000"
     borderopacity="0.25"
     inkscape:showpageshadow="2"
     inkscape:pageopacity="0.0"
     inkscape:pagecheckerboard="0"
     inkscape:deskcolor="#d1d1d1"
     inkscape:document-units="mm"
     inkscape:zoom="15.581903"
     inkscape:cx="12.225721"
     inkscape:cy="13.124199"
     inkscape:window-width="1920"
     inkscape:window-height="991"
     inkscape:window-x="-9"
     inkscape:window-y="-9"
     inkscape:window-maximized="1"
     inkscape:current-layer="layer1" />
  <defs
     id="defs1" />
  <g
     inkscape:label="Ebene 1"
     inkscape:groupmode="layer"
     id="layer1"
     transform="translate(-83.613657,-129.64583)">
    <path
       d="m 95.916951,167.82908 -4.960938,-3.06203 v -6.28684 c 0,-5.88621 -0.03372,-6.32971 -0.529166,-6.95956 -0.554106,-0.70444 -0.697815,-1.64443 -0.289944,-1.89651 0.131573,-0.0813 1.575185,-2.17194 3.208027,-4.64582 1.632842,-2.47389 3.020239,-4.49798 3.083103,-4.49798 0.06286,0 5.525807,-1.36922 12.139867,-3.0427 6.61406,-1.67349 12.13201,-3.04271 12.26211,-3.04271 0.13009,0 0.47779,0.38102 0.77265,0.84672 0.65379,1.03259 0.81968,0.69557 -2.9158,5.92367 -1.61034,2.25381 -2.88286,4.13465 -2.82781,4.17966 0.0551,0.045 2.27148,1.20129 4.9254,2.56953 l 4.82532,2.48771 0.003,6.52792 0.003,6.52792 -0.8599,0.27273 c -2.40605,0.76313 -23.66163,7.1755 -23.76194,7.16849 -0.0642,-0.005 -2.349131,-1.38608 -5.077647,-3.0702 z m 21.298959,-2.62511 7.60677,-2.31054 v -5.90314 -5.90314 l -1.11105,0.392 c -0.61107,0.2156 -5.64146,1.70481 -11.17864,3.30934 -5.53718,1.60454 -10.27596,2.97869 -10.53062,3.05368 -0.42346,0.12468 -0.46302,0.65202 -0.46302,6.17101 v 6.03467 l 4.03489,-1.26667 c 2.2192,-0.69667 7.45795,-2.30642 11.64167,-3.57721 z m -14.88281,3.32221 c 0,-0.43657 0.11906,-0.79375 0.26458,-0.79375 0.14552,0 0.26458,0.35718 0.26458,0.79375 0,0.43656 -0.11906,0.79375 -0.26458,0.79375 -0.14552,0 -0.26458,-0.35719 -0.26458,-0.79375 z m 2.13871,-1.43039 c 0.19889,-0.19389 5.31258,-1.52526 5.42534,-1.41251 0.0605,0.0605 -1.07306,0.42725 -2.51902,0.815 -2.60877,0.69955 -3.11848,0.80433 -2.90632,0.59751 z m -2.13466,-1.67847 c 0.003,-0.73802 0.0697,-0.89052 0.26053,-0.59531 0.337,0.52146 0.337,1.5875 0,1.5875 -0.14552,0 -0.26276,-0.44648 -0.26053,-0.99219 z m 8.14842,0.0177 c 0.191,-0.0764 0.4192,-0.067 0.50712,0.0209 0.0879,0.0879 -0.0683,0.15045 -0.34726,0.13896 -0.30823,-0.0127 -0.37092,-0.0754 -0.15986,-0.15985 z m 5.19575,-1.68978 c 2.46658,-0.86784 4.6097,-1.53619 4.7625,-1.48524 0.28278,0.0943 -8.4996,3.10279 -8.98281,3.07715 -0.1454,-0.008 1.75374,-0.72407 4.22031,-1.59191 z m -10.96697,-0.22488 c 0.21828,-0.12497 3.61156,-1.14914 7.54062,-2.27593 8.59537,-2.465 8.14854,-2.34877 7.01971,-1.82588 -0.82643,0.38282 -14.37351,4.35648 -14.78607,4.33708 -0.0941,-0.004 0.008,-0.1103 0.22574,-0.23527 z m -2.31453,-1.21189 c 0.003,-0.58208 0.0571,-0.78906 0.12041,-0.45994 0.0633,0.32912 0.0609,0.80537 -0.005,1.05834 -0.0662,0.25296 -0.11801,-0.0163 -0.11507,-0.5984 z m 21.36453,-0.11668 c 0,-0.28245 0.11906,-0.58713 0.26458,-0.67707 0.15006,-0.0927 0.26459,0.12954 0.26459,0.51355 0,0.37239 -0.11907,0.67707 -0.26459,0.67707 -0.14552,0 -0.26458,-0.23109 -0.26458,-0.51355 z m -6.61458,-0.10635 c 0,-0.20978 5.8282,-2.06757 6.14991,-1.96033 0.14671,0.0489 -0.99608,0.47371 -2.53952,0.94401 -1.54345,0.47031 -2.9872,0.92453 -3.20833,1.00939 -0.22114,0.0849 -0.40206,0.088 -0.40206,0.007 z m -9.31003,-1.6775 c 0.191,-0.0764 0.4192,-0.067 0.50712,0.0209 0.0879,0.0879 -0.0683,0.15046 -0.34727,0.13897 -0.30822,-0.0127 -0.37092,-0.0754 -0.15985,-0.15985 z m -4.70843,-0.3351 c 0.64137,-0.37581 5.33505,-1.64118 5.49487,-1.48136 0.0798,0.0798 0.0952,0.14511 0.0343,0.14511 -0.0609,0 -1.36045,0.35719 -2.88781,0.79375 -2.96791,0.84832 -3.26873,0.9101 -2.64137,0.5425 z m 5.94866,-0.0133 c 0.29105,-0.12507 0.7673,-0.22389 1.05834,-0.21961 0.42539,0.006 0.39945,0.0493 -0.13229,0.21961 -0.90466,0.28972 -1.60026,0.28972 -0.92605,0 z m -6.68015,-0.92604 c 0.003,-0.58208 0.0571,-0.78906 0.12041,-0.45994 0.0633,0.32912 0.0609,0.80537 -0.005,1.05834 -0.0662,0.25296 -0.11801,-0.0163 -0.11507,-0.5984 z m 8.61492,0.48072 c 0.191,-0.0764 0.4192,-0.067 0.50712,0.0209 0.0879,0.0879 -0.0684,0.15046 -0.34727,0.13897 -0.30822,-0.0127 -0.37092,-0.0754 -0.15985,-0.15985 z m 12.89454,-0.41458 c -0.11085,-0.25466 -0.11085,-0.67138 0,-0.92604 0.19195,-0.44097 0.20682,-0.44097 0.31229,0 0.0609,0.25466 0.0609,0.67138 0,0.92604 -0.10547,0.44098 -0.12034,0.44098 -0.31229,0 z m -10.88859,-1.89588 c -0.0791,-0.20598 -0.10507,-0.712 -0.0578,-1.12447 0.0682,-0.5953 0.23592,-0.76722 0.81348,-0.83368 0.68534,-0.0789 0.7276,-0.0229 0.7276,0.96388 0,0.7112 -0.13439,1.09917 -0.41851,1.2082 -0.64436,0.24726 -0.90809,0.19428 -1.06473,-0.21393 z m 0.95408,-0.94839 c 0,-0.29104 -0.11907,-0.52916 -0.26459,-0.52916 -0.14552,0 -0.26458,0.23812 -0.26458,0.52916 0,0.29105 0.11906,0.52917 0.26458,0.52917 0.14552,0 0.26459,-0.23812 0.26459,-0.52917 z m 6.50761,0.27524 c 0.74153,-0.26391 1.75356,-0.54894 2.24896,-0.63339 0.49539,-0.0845 0.008,0.13951 -1.08366,0.49768 -2.28113,0.74862 -3.18229,0.85357 -1.1653,0.13571 z m 3.28197,-0.6565 c 0,-0.35521 0.11906,-0.71942 0.26458,-0.80936 0.15437,-0.0954 0.26459,0.17364 0.26459,0.64584 0,0.44515 -0.11907,0.80937 -0.26459,0.80937 -0.14552,0 -0.26458,-0.29063 -0.26458,-0.64585 z m -5.06693,-0.80285 c 1.06949,-0.35061 2.31964,-0.69994 2.77812,-0.77628 0.45848,-0.0763 -0.0414,0.14806 -1.11093,0.49867 -1.06948,0.35061 -2.31964,0.69994 -2.77812,0.77629 -0.45848,0.0763 0.0414,-0.14806 1.11093,-0.49868 z m 5.24332,-1.90269 c -0.27698,-0.27698 -0.2061,-1.41111 0.0882,-1.41111 0.14552,0 0.26459,0.35718 0.26459,0.79375 0,0.82202 -0.0539,0.91628 -0.35278,0.61736 z m -23.52067,4.51458 c -0.34333,-0.32839 -7.675634,-4.44585 -8.419709,-4.7281 -0.334825,-0.127 -0.390512,0.0185 -0.300909,0.78597 0.10382,0.88929 0.281691,1.04355 3.188986,2.7657 1.693468,1.00314 3.317159,2.0193 3.6082,2.25814 0.636295,0.52216 -1.266428,-0.51961 -4.431771,-2.42646 l -2.315104,-1.39466 0.0029,0.85425 c 0.0025,0.76075 0.169081,0.94997 1.521354,1.7287 0.835169,0.48094 1.816144,1.11401 2.179946,1.40682 l 0.661459,0.53238 -0.661459,-0.32203 c -0.363802,-0.17711 -1.288848,-0.72088 -2.055658,-1.20838 -0.766809,-0.4875 -1.451419,-0.88636 -1.521353,-0.88636 -0.06994,0 -0.127155,0.38862 -0.127155,0.86358 0,0.72056 0.17341,0.97076 1.046985,1.51066 1.302491,0.80498 1.225276,1.03083 -0.0876,0.25621 l -0.959388,-0.56605 v 1.71577 1.71578 l 1.852084,1.1003 c 1.018645,0.60516 1.852083,1.16325 1.852083,1.2402 0,0.14111 -2.759823,-1.35225 -3.373438,-1.82539 -0.24707,-0.19051 -0.330306,-0.0628 -0.329056,0.50499 0.0012,0.547 0.205119,0.88025 0.727604,1.18907 0.399262,0.23599 2.392807,1.4493 4.430098,2.69624 l 3.704171,2.26716 0.0713,-5.85659 c 0.0544,-4.46493 -0.008,-5.93294 -0.26459,-6.1779 z m -0.532981,10.34618 c -0.06954,-0.3638 -0.02389,-0.66146 0.101448,-0.66146 0.125343,0 0.227893,0.29766 0.227893,0.66146 0,0.3638 -0.0457,0.66146 -0.10145,0.66146 -0.0558,0 -0.158345,-0.29766 -0.227891,-0.66146 z m -0.01191,-2.51354 c -0.07611,-0.29104 -0.03046,-0.52917 0.101433,-0.52917 0.131898,0 0.239818,0.23813 0.239818,0.52917 0,0.29104 -0.0456,0.52917 -0.10144,0.52917 -0.0558,0 -0.163702,-0.23813 -0.239811,-0.52917 z m 0.01052,-1.47557 c -0.109141,-0.11007 -0.198438,-0.44222 -0.198438,-0.73811 0,-0.38941 0.07992,-0.45806 0.289396,-0.24859 0.159173,0.15917 0.248463,0.49132 0.198443,0.73811 -0.05,0.24679 -0.180261,0.35866 -0.289401,0.24859 z m -5.541186,-1.62715 c -1.119502,-0.68691 -1.987338,-1.29705 -1.928525,-1.35587 0.115999,-0.116 4.096273,2.30641 4.096273,2.49301 0,0.18784 -0.05759,0.15763 -2.167748,-1.13714 z m 5.658917,-0.99832 c 0.005,-0.43656 0.0647,-0.58313 0.13177,-0.3257 0.0671,0.25744 0.0627,0.61462 -0.01,0.79375 -0.0725,0.17914 -0.127365,-0.0315 -0.12197,-0.46805 z m -0.175617,-2.5911 c -0.113258,-0.26094 -0.131684,-0.54867 -0.04095,-0.63941 0.268687,-0.26868 0.485267,0.10873 0.361607,0.63011 -0.10963,0.46222 -0.1239,0.46263 -0.32066,0.009 z m 10.839657,-4.30109 c 10.55206,-3.03096 13.36149,-3.88588 13.36131,-4.06592 -2.7e-4,-0.27683 -8.71,-4.63422 -9.19024,-4.59779 -0.25679,0.0195 -4.51502,1.1329 -9.46274,2.47425 -4.94771,1.34135 -9.978096,2.68493 -11.178643,2.98572 -1.200547,0.3008 -2.178384,0.61184 -2.17297,0.69121 0.0054,0.0794 2.059241,1.28643 4.564062,2.68236 4.288691,2.39008 4.608211,2.52337 5.480261,2.28609 0.50932,-0.13858 4.37886,-1.24375 8.59896,-2.45592 z m -12.303123,0.65198 c -1.527969,-0.89017 -3.355511,-1.91213 -4.061205,-2.27101 -0.705693,-0.35888 -1.230698,-0.70489 -1.166676,-0.76892 0.06402,-0.064 4.987189,-1.4379 10.940374,-3.05306 l 10.82397,-2.93666 4.07093,2.0294 c 2.26338,1.12832 3.96682,2.12818 3.83646,2.25187 -0.12896,0.12236 -2.25854,0.82202 -4.73239,1.5548 -6.37101,1.88715 -15.77786,4.58767 -16.40417,4.70931 -0.31135,0.0605 -1.672712,-0.56344 -3.307293,-1.51573 z m 9.789583,-1.0147 6.21771,-1.80314 0.0754,-2.68089 c 0.0415,-1.47448 -0.0184,-2.68088 -0.13313,-2.68088 -0.1147,0 -1.04159,0.23944 -2.05978,0.5321 -1.01818,0.29266 -5.18499,1.43843 -9.25957,2.54617 -4.074588,1.10773 -7.556912,2.09326 -7.738502,2.19007 -0.359435,0.19162 5.609082,3.70941 6.283292,3.70331 0.21828,-0.002 3.19484,-0.81501 6.61458,-1.80674 z m 10.64907,-3.09613 c 1.4186,-0.41882 2.57112,-0.82102 2.56116,-0.89378 -0.01,-0.0728 -1.379,-0.82217 -3.0423,-1.66535 l -3.02418,-1.53305 v 2.5561 c 0,2.30723 0.0451,2.54351 0.46302,2.42684 0.25466,-0.0711 1.6237,-0.47194 3.0423,-0.89076 z m -24.14282,-1.09008 c 0,-0.75959 3.003152,-1.50987 3.236886,-0.80867 0.161761,0.48528 10.742294,-2.38768 11.073674,-3.00687 0.13784,-0.25755 0.87351,-0.65326 1.63482,-0.87934 1.19929,-0.35615 1.42128,-0.36035 1.66181,-0.0314 0.43944,0.60097 2.43201,-0.0406 3.19909,-1.03003 1.05877,-1.36569 5.323,-7.40582 5.2725,-7.46831 -0.0264,-0.0327 -5.24934,1.27698 -11.60647,2.91041 l -11.558428,2.96988 -1.214635,1.81084 c -1.06798,1.5922 -1.141379,1.78759 -0.607911,1.61827 1.565611,-0.49691 13.335064,-3.5107 13.411494,-3.43427 0.11922,0.11922 -1.76361,0.65917 -8.47978,2.43178 l -5.750917,1.51785 -1.458983,2.19236 c -0.802441,1.20579 -1.458983,2.24211 -1.458983,2.30292 0,0.0608 0.595312,-0.0798 1.322916,-0.31249 0.73173,-0.234 1.322917,-0.58388 1.322917,-0.78293 z m 6.64142,-3.6229 c 0.13509,-0.13509 13.88365,-3.59706 14.18698,-3.57236 0.57023,0.0464 -1.70516,0.70112 -7.36997,2.12056 -5.86738,1.4702 -7.09735,1.73214 -6.81701,1.4518 z m 1.58361,-4.22944 c 0.1908,-0.19081 5.59026,-1.5076 5.70625,-1.39162 0.0605,0.0605 -1.14071,0.42333 -2.66928,0.80635 -2.80929,0.70394 -3.23833,0.78662 -3.03697,0.58527 z m 7.42599,-1.07599 c 0.20807,-0.20807 8.50643,-2.52487 8.62367,-2.40763 0.0588,0.0588 -0.11047,0.17087 -0.3761,0.24911 -2.89558,0.85285 -8.02519,2.28731 -8.17937,2.28731 -0.10835,0 -0.13904,-0.058 -0.0682,-0.12879 z m -1.14854,-0.58111 c 0.19099,-0.0764 0.4192,-0.067 0.50711,0.0209 0.0879,0.0879 -0.0683,0.15046 -0.34726,0.13897 -0.30823,-0.0127 -0.37092,-0.0754 -0.15985,-0.15985 z m -15.131633,6.27894 c 1.921737,-2.8841 2.757864,-4.36227 2.640512,-4.66808 -0.09445,-0.24614 -0.231137,-0.38812 -0.303743,-0.31552 -0.524059,0.52406 -5.676366,8.54395 -5.676366,8.83562 0,0.91149 0.715368,0.0864 3.339597,-3.85202 z m 3.121197,2.89267 c 0.391108,-0.39111 -0.371579,-0.30219 -1.301419,0.15173 l -0.79375,0.38748 0.917773,-0.1398 c 0.504776,-0.0769 1.034604,-0.25662 1.177396,-0.39941 z m 14.389026,-3.82333 c 0.18665,-0.18665 -0.46279,-0.17247 -1.2045,0.0263 -0.32743,0.0877 -0.59532,0.2564 -0.59532,0.37479 0,0.2122 1.52678,-0.12806 1.79982,-0.4011 z m -2.32898,-6.88393 c 6.03911,-1.54119 11.18555,-2.88682 11.43653,-2.99029 0.2957,-0.1219 0.3798,-0.31024 0.23893,-0.53508 -0.17143,-0.27361 -2.7013,0.27738 -11.9657,2.60605 -6.46157,1.62416 -11.795041,2.99781 -11.852158,3.05255 -0.20302,0.19459 0.544705,0.87287 0.850798,0.77178 0.171262,-0.0566 5.25248,-1.36381 11.2916,-2.90501 z"
       style="fill:#28220b;stroke-width:0.264583"
       id="path1" />
  </g>
</svg>
