<?xml version="1.0" encoding="UTF-8" standalone="no"?>
<!-- Created with Inkscape (http://www.inkscape.org/) -->

<svg
   width="24mm"
   height="24mm"
   viewBox="0 0 24 24"
   version="1.1"
   id="svg1"
   inkscape:version="1.4.2 (f4327f4, 2025-05-13)"
   sodipodi:docname="paintbrush.svg"
   xmlns:inkscape="http://www.inkscape.org/namespaces/inkscape"
   xmlns:sodipodi="http://sodipodi.sourceforge.net/DTD/sodipodi-0.dtd"
   xmlns="http://www.w3.org/2000/svg"
   xmlns:svg="http://www.w3.org/2000/svg">
  <sodipodi:namedview
     id="namedview1"
     pagecolor="#ffffff"
     bordercolor="#000000"
     borderopacity="0.25"
     inkscape:showpageshadow="2"
     inkscape:pageopacity="0.0"
     inkscape:pagecheckerboard="0"
     inkscape:deskcolor="#d1d1d1"
     inkscape:document-units="mm"
     inkscape:zoom="0.68862935"
     inkscape:cx="41.38656"
     inkscape:cy="42.83872"
     inkscape:window-width="1920"
     inkscape:window-height="991"
     inkscape:window-x="-9"
     inkscape:window-y="-9"
     inkscape:window-maximized="1"
     inkscape:current-layer="layer1" />
  <defs
     id="defs1" />
  <g
     inkscape:label="Ebene 1"
     inkscape:groupmode="layer"
     id="layer1"
      transform="translate(0.189205 0) scale(1.066052) translate(-93.994075,-137.18993)">
    <path
       d="m 95.36142,159.43608 c -0.970489,-0.42636 -1.554744,-1.65222 -1.312698,-2.75425 0.247528,-1.12699 1.631008,-2.6195 3.950099,-4.26141 1.273464,-0.9016 2.086229,-1.67258 2.187159,-2.0747 0.0883,-0.35196 -0.0515,-1.26401 -0.310792,-2.02677 -0.30806,-0.90629 -0.404328,-1.65407 -0.277831,-2.15808 0.171371,-0.6828 1.813243,-2.47231 4.260543,-4.64364 0.43164,-0.38297 1.43965,-1.47588 2.24002,-2.4287 0.80036,-0.95281 1.6272,-1.80548 1.83741,-1.89482 0.46576,-0.19796 8.21675,7.43587 8.21675,8.09255 0,0.23842 -1.01622,1.32916 -2.25826,2.42385 -1.24205,1.09469 -2.59175,2.44892 -2.99935,3.00939 -1.02076,1.40361 -2.79367,2.95548 -3.61073,3.16055 -0.40798,0.1024 -1.17733,-0.0204 -1.9249,-0.30724 -2.17093,-0.83296 -2.50999,-0.63826 -4.67642,2.68534 -1.982276,3.04108 -3.529329,3.96505 -5.321,3.17793 z m 2.668244,-1.26373 c 0.403897,-0.31771 1.362561,-1.55144 2.130366,-2.74163 2.1494,-3.33185 3.07109,-3.81977 5.2601,-2.78459 0.57311,0.27103 1.22795,0.4271 1.45521,0.34683 1.26381,-0.44638 1.15979,-0.63258 -2.27855,-4.07857 -1.86232,-1.86646 -3.48088,-3.39356 -3.59681,-3.39356 -0.48887,0 -0.64155,1.23367 -0.29472,2.38125 0.78039,2.58209 0.40766,3.42135 -2.413566,5.43454 -2.296404,1.63868 -3.306279,2.83432 -3.306279,3.91446 0,0.47515 0.142875,1.00679 0.3175,1.18142 0.504815,0.50481 1.926717,0.36915 2.726749,-0.26015 z m -1.834724,-0.63188 c -0.491885,-0.49188 -0.496105,-0.52725 -0.141883,-1.18912 0.446214,-0.83376 1.842775,-0.49402 1.842775,0.44829 0,0.37136 -0.718526,1.15661 -1.058333,1.15661 -0.124733,0 -0.413885,-0.1871 -0.642559,-0.41578 z m 1.053682,-0.40103 c 0.227047,-0.36737 -0.276215,-0.8853 -0.641096,-0.65979 -0.303864,0.18779 -0.109297,0.94743 0.242665,0.94743 0.121364,0 0.300656,-0.12944 0.398431,-0.28764 z m 11.444138,-6.72399 c -0.33576,-0.31442 -1.94738,-1.85837 -3.58138,-3.43099 -2.06563,-1.98805 -3.01536,-2.74344 -3.11682,-2.47904 -0.0935,0.2437 1.06566,1.58136 3.22761,3.72459 2.64243,2.61954 3.4502,3.28068 3.72729,3.05071 0.28816,-0.23914 0.24055,-0.39961 -0.2567,-0.86527 z m 1.25948,-0.16103 c 0.10485,-0.16965 -1.25343,-1.73151 -3.2189,-3.70135 -2.78609,-2.79229 -3.46228,-3.34586 -3.74348,-3.06466 -0.2812,0.2812 0.2672,0.94929 3.03608,3.69861 1.8586,1.84549 3.46154,3.35666 3.56209,3.35816 0.10055,0.002 0.26445,-0.12934 0.36421,-0.29076 z m 2.92638,-2.89477 c 1.21832,-1.02593 2.21513,-1.96385 2.21513,-2.08427 0,-0.12041 -0.15705,-0.34926 -0.34899,-0.50856 -0.26784,-0.22228 -0.61906,-0.0144 -1.5103,0.89364 -0.63872,0.65081 -1.28087,1.18329 -1.427,1.18329 -0.14613,0 0.32078,-0.59543 1.03758,-1.32317 1.22888,-1.24764 1.27748,-1.34896 0.85147,-1.77497 -0.42602,-0.42602 -0.50916,-0.3958 -1.45667,0.52942 -1.43788,1.40405 -1.98598,1.2174 -0.593,-0.20194 1.1434,-1.16505 1.15366,-1.19148 0.66968,-1.72627 l -0.49151,-0.54311 -0.87521,0.84829 c -1.1416,1.10648 -1.50203,0.74604 -0.39555,-0.39556 l 0.84828,-0.87521 -0.56091,-0.50762 c -0.55821,-0.50517 -0.56475,-0.50284 -1.35506,0.4823 -0.43677,0.54446 -0.91599,0.98992 -1.06493,0.98992 -0.14893,0 0.14745,-0.51042 0.65864,-1.13426 0.84906,-1.03616 0.89592,-1.17917 0.54179,-1.65364 -0.37254,-0.49916 -0.4389,-0.46405 -1.70359,0.90148 -0.72378,0.78149 -1.37274,1.36409 -1.44215,1.29468 -0.0694,-0.0694 0.42264,-0.79285 1.09343,-1.60766 1.07975,-1.31156 1.31664,-2.03393 0.66701,-2.03393 -0.17622,0 -2.9732,3.19158 -3.8562,4.40024 -0.19832,0.27145 0.50946,1.13247 2.90628,3.53555 1.74263,1.74719 3.21528,3.17671 3.27254,3.17671 0.0573,0 1.10092,-0.83941 2.31924,-1.86535 z"
       style="fill:#2b1e17;fill-opacity:1;stroke-width:0.264583"
       id="path1" />
  </g>
</svg>

