<?xml version="1.0" encoding="UTF-8" standalone="no"?>
<!-- Created with Inkscape (http://www.inkscape.org/) -->

<svg
   width="24"
   height="24"
   viewBox="0 0 40 40.000002"
   version="1.1"
   id="svg1"
   inkscape:version="1.4.2 (f4327f4, 2025-05-13)"
   sodipodi:docname="pedestal_table_base.svg"
   xmlns:inkscape="http://www.inkscape.org/namespaces/inkscape"
   xmlns:sodipodi="http://sodipodi.sourceforge.net/DTD/sodipodi-0.dtd"
   xmlns="http://www.w3.org/2000/svg"
   xmlns:svg="http://www.w3.org/2000/svg">
  <sodipodi:namedview
     id="namedview1"
     pagecolor="#ffffff"
     bordercolor="#000000"
     borderopacity="0.25"
     inkscape:showpageshadow="2"
     inkscape:pageopacity="0.0"
     inkscape:pagecheckerboard="0"
     inkscape:deskcolor="#d1d1d1"
     inkscape:document-units="mm"
     inkscape:zoom="15.581903"
     inkscape:cx="6.0647276"
     inkscape:cy="8.8885161"
     inkscape:window-width="1920"
     inkscape:window-height="991"
     inkscape:window-x="-9"
     inkscape:window-y="-9"
     inkscape:window-maximized="1"
     inkscape:current-layer="layer1" />
  <defs
     id="defs1" />
  <g
     inkscape:label="Ebene 1"
     inkscape:groupmode="layer"
     id="layer1"
     transform="translate(-92.367423,-131.62832)">
    <path
       d="m 103.02214,167.88765 c -1.59159,-0.96791 -1.06563,-1.92496 2.13785,-3.89008 1.13895,-0.69867 2.07056,-1.38101 2.07024,-1.51631 -2.6e-4,-0.1353 -0.93218,-0.63134 -2.07081,-1.1023 -1.73802,-0.71888 -2.08345,-0.96358 -2.15251,-1.52481 -0.13136,-1.06758 1.17596,-1.60229 3.37142,-1.37895 0.95586,0.0972 2.00582,0.24344 2.33324,0.32489 l 0.59531,0.14809 v -7.7016 c 0,-4.23589 -0.078,-7.7016 -0.17328,-7.7016 -0.0953,0 -1.47106,0.41954 -3.05722,0.93231 -2.6147,0.84528 -2.98168,0.90303 -3.9309,0.61864 -1.28212,-0.38413 -1.63366,-0.77665 -1.52282,-1.70031 0.0779,-0.64928 0.35896,-0.8105 3.26026,-1.87021 1.74625,-0.63782 3.35236,-1.22547 3.56913,-1.30587 0.22407,-0.0831 -0.94638,-0.68754 -2.71259,-1.40078 -1.70869,-0.69003 -3.23481,-1.38269 -3.39137,-1.53925 -0.15656,-0.15656 -0.24559,-0.62137 -0.19783,-1.03291 0.0732,-0.63067 0.27394,-0.80543 1.27746,-1.11202 1.17573,-0.35921 1.24822,-0.34363 5.79414,1.24519 2.53194,0.88493 4.85366,1.60848 5.15938,1.6079 0.30572,-5.3e-4 2.5627,-0.71834 5.01551,-1.59501 4.38711,-1.56801 4.47965,-1.58832 5.68854,-1.24836 1.13912,0.32035 1.23468,0.41407 1.30819,1.28318 l 0.0793,0.93759 -3.30301,1.29941 c -1.81665,0.71468 -3.24145,1.36096 -3.16622,1.43619 0.0752,0.0752 1.64496,0.68633 3.48829,1.358 3.07964,1.12215 3.35842,1.27906 3.43677,1.93434 0.10897,0.91144 -0.23073,1.30721 -1.47429,1.71762 -0.914,0.30165 -1.2511,0.24867 -3.93154,-0.61786 -1.61251,-0.52129 -3.00981,-0.94779 -3.10511,-0.94779 -0.0953,0 -0.17329,3.46571 -0.17329,7.7016 v 7.7016 l 0.59532,-0.14478 c 1.84051,-0.44759 3.82772,-0.48015 4.78911,-0.0785 0.85824,0.35859 0.98978,0.52278 0.91757,1.14529 -0.0752,0.6487 -0.33426,0.82315 -2.41378,1.62572 l -2.3295,0.89904 2.1972,1.31486 c 1.20846,0.72317 2.47051,1.56791 2.80455,1.8772 0.84692,0.78417 0.67886,1.74425 -0.41695,2.38184 l -0.86793,0.50501 -3.85531,-1.66065 c -2.12041,-0.91335 -4.05156,-1.63845 -4.29143,-1.61131 -0.23988,0.0271 -0.94906,0.0493 -1.57597,0.0491 -0.782,-1.2e-4 -2.19401,0.44325 -4.49791,1.41235 -4.444,1.8693 -4.27926,1.83109 -5.27721,1.2242 z m 0.84476,-0.9932 c 0.13421,-0.40906 5.35792,-3.73933 6.56446,-4.18504 0.58151,-0.21482 0.59386,-0.53678 0.0289,-0.75357 -0.27963,-0.1073 -1.51469,0.51202 -3.47059,1.74033 -3.83756,2.40999 -4.16313,2.67546 -3.95293,3.22322 0.21953,0.57208 0.63839,0.5595 0.83015,-0.0249 z m 4.23783,-0.92604 c 3.15184,-1.33693 3.27852,-1.42133 3.37593,-2.24896 0.0557,-0.47294 -0.005,-0.85989 -0.13377,-0.85989 -0.36838,0 -7.06709,4.07381 -7.06709,4.29784 0,0.37204 0.54191,0.20359 3.82493,-1.18899 z m 13.83716,1.05834 c -0.11637,-0.35281 -6.21405,-4.12174 -6.71461,-4.15026 -0.19539,-0.0111 -0.23791,0.27352 -0.12404,0.83029 0.16112,0.7878 0.39541,0.94517 3.34002,2.24359 3.40656,1.50211 3.66531,1.58171 3.49863,1.07638 z m 1.56527,-0.0882 c 0.22941,-0.59785 -0.42047,-1.13533 -3.95558,-3.27146 -2.32562,-1.40528 -3.22584,-1.82229 -3.5465,-1.64284 -0.49564,0.27738 -0.72743,0.10467 3.62055,2.69771 2.79143,1.66475 3.25056,2.0346 3.00964,2.42442 -0.0717,0.11609 0.0589,0.21108 0.29034,0.21108 0.23144,0 0.49313,-0.18851 0.58155,-0.41891 z m -10.49611,-13.60399 c 0,-6.11188 -0.0298,-11.1124 -0.0662,-11.11229 -0.0364,1.2e-4 -0.66145,0.22627 -1.38906,0.50256 l -1.32292,0.50233 -0.0696,9.0008 -0.0696,9.00078 0.90609,0.29904 c 1.00531,0.33179 1.21747,0.6829 1.21747,2.01488 0,0.62752 0.1215,0.9044 0.39687,0.9044 0.34648,0 0.39688,-1.41111 0.39688,-11.1125 z m 1.32697,10.12031 c 0.005,-1.21973 0.16223,-1.45813 1.25272,-1.8992 l 0.85989,-0.34781 v -9.09603 c 0,-5.00281 -0.0893,-9.09731 -0.19843,-9.09888 -0.10915,-0.002 -0.76399,-0.17448 -1.45521,-0.38422 l -1.25677,-0.38136 v 11.09984 c 0,9.69014 0.0504,11.09985 0.39687,11.09985 0.2815,0 0.39805,-0.28843 0.40093,-0.99219 z m -5.08715,-2.31813 c 0.0684,-0.47717 -0.20029,-0.58241 -2.59822,-1.01775 -1.47098,-0.26706 -2.74399,-0.41606 -2.82893,-0.33113 -0.0849,0.0849 0.54848,0.45701 1.4076,0.82684 0.85911,0.36983 1.80015,0.78272 2.09119,0.91755 0.86958,0.40283 1.84254,0.20327 1.92836,-0.39551 z m 11.3008,-0.17162 c 2.37227,-0.94025 2.39867,-0.95447 2.1793,-1.17383 -0.0868,-0.0868 -1.35682,0.0598 -2.82222,0.32586 -2.06583,0.37504 -2.66437,0.57891 -2.66437,0.9075 0,1.02341 0.6024,1.01257 3.30729,-0.0595 z m -11.24479,-1.24371 c 0,-0.24407 -2.26369,-0.58086 -3.57187,-0.53142 -0.48633,0.0184 -0.12767,0.1587 0.92604,0.36228 2.18371,0.4219 2.64583,0.45144 2.64583,0.16914 z m 10.58334,-0.15954 c 1.90917,-0.39369 1.46662,-0.49635 -1.01953,-0.23649 -0.89447,0.0935 -1.62631,0.27208 -1.62631,0.39687 0,0.30086 0.57945,0.26573 2.64584,-0.16038 z m 5.2338,-15.71101 c 0.0707,-0.21216 -0.0821,-0.23706 -0.50192,-0.0818 -0.33197,0.12281 -0.64935,0.36055 -0.70527,0.52833 -0.0707,0.21216 0.0821,0.23705 0.50191,0.0817 0.33198,-0.12281 0.64936,-0.36055 0.70528,-0.52832 z m -22.96049,0.10326 c -0.70753,-0.39157 -0.95477,-0.35393 -0.67273,0.10242 0.0959,0.1552 0.43526,0.27797 0.75409,0.27281 0.55905,-0.009 0.55615,-0.0224 -0.0814,-0.37523 z m 6.32867,-0.99555 c 4.08219,-1.28438 5.26128,-1.81721 4.43168,-2.00265 -0.33525,-0.0749 -8.67697,2.69821 -9.43783,3.13755 -1.02337,0.59092 0.92436,0.14937 5.00615,-1.1349 z m 14.4275,1.15622 c -0.29666,-0.26431 -8.66114,-3.21565 -9.11355,-3.21565 -0.17051,0 -0.26089,0.14744 -0.20082,0.32765 0.0601,0.1802 2.00476,0.9429 4.32153,1.69489 4.06568,1.31965 5.52676,1.6688 4.99284,1.19311 z m -19.5891,-0.72983 c 0.22935,-0.088 0.33953,-0.28536 0.24485,-0.43855 -0.10969,-0.17749 0.0387,-0.22342 0.40891,-0.12659 0.53583,0.14012 6.6918,-1.73953 7.87838,-2.40557 0.46307,-0.25992 0.46384,-0.28214 0.0157,-0.4548 -0.66914,-0.25778 -1.53499,-0.0411 -5.32621,1.33322 -5.12617,1.85817 -4.8803,1.74275 -4.25678,1.99827 0.29105,0.11926 0.5492,0.22521 0.57368,0.23544 0.0245,0.0102 0.23215,-0.0534 0.4615,-0.14142 z m 20.92524,-0.0948 c 0.42631,-0.1753 0.45203,-0.2481 0.13229,-0.37455 -2.86312,-1.13234 -8.58684,-3.07391 -9.05262,-3.07079 -0.33257,0.002 -0.76108,0.10324 -0.95224,0.22446 -0.22642,0.14359 1.06472,0.69929 3.70417,1.59426 2.22845,0.75561 4.28986,1.47998 4.5809,1.60971 0.65312,0.29112 0.91386,0.2939 1.5875,0.0169 z m -14.48203,-3.86441 c -0.0458,-0.0458 -1.56854,-0.62989 -3.38393,-1.29804 -1.81539,-0.66816 -3.5686,-1.32741 -3.89602,-1.465 -0.33341,-0.14012 -0.59531,-0.14714 -0.59531,-0.016 0,0.21583 1.25264,0.78478 5.42396,2.46355 0.87312,0.35139 1.80058,0.58485 2.06101,0.51879 0.26044,-0.0661 0.43607,-0.15756 0.39029,-0.20333 z m 4.67858,0.25144 c 0.38295,-0.14695 0.37842,-0.19954 -0.0445,-0.51709 -0.41549,-0.31197 -0.362,-0.33735 0.45524,-0.21611 0.7054,0.10466 1.92098,-0.23239 5.10184,-1.41458 3.94734,-1.46706 4.69651,-1.92725 3.12229,-1.91792 -0.55702,0.003 -0.61006,0.0565 -0.28663,0.28753 0.31555,0.2254 0.26894,0.25519 -0.22745,0.14543 -0.37998,-0.084 -2.24394,0.43135 -4.7625,1.31681 -2.75207,0.96756 -4.40404,1.41448 -4.93192,1.33427 -0.43656,-0.0663 -2.63922,-0.78495 -4.89479,-1.59694 -4.04806,-1.45725 -5.12561,-1.70931 -5.40119,-1.26342 -0.21561,0.34887 8.19116,3.29656 8.97463,3.14679 0.49693,-0.095 0.59779,-0.0466 0.39992,0.1918 -0.14554,0.17535 -0.18626,0.39716 -0.0905,0.49292 0.22017,0.22017 2.02014,0.22748 2.58557,0.0105 z m -10.70176,-3.54059 c 0,-0.14552 0.11907,-0.26458 0.26459,-0.26458 0.14552,0 0.26458,0.11906 0.26458,0.26458 0,0.14552 -0.11906,0.26459 -0.26458,0.26459 -0.14552,0 -0.26459,-0.11907 -0.26459,-0.26459 z m 17.238,2.22401 c 1.65145,-0.66857 3.15146,-1.27662 3.33336,-1.35123 0.1819,-0.0746 0.33073,-0.22611 0.33073,-0.33668 0,-0.19897 -6.80581,2.1491 -7.63803,2.6352 -0.35193,0.20556 -0.30205,0.25368 0.26978,0.26024 0.38584,0.004 2.05272,-0.53896 3.70416,-1.20753 z"
       style="fill:#28220b;stroke-width:0.264583"
       id="path1" />
  </g>
</svg>
