<?xml version="1.0" encoding="UTF-8" standalone="no"?>
<!-- Created with Inkscape (http://www.inkscape.org/) -->

<svg
   width="24"
   height="24"
   viewBox="0 0 43.636364 43.636364"
   version="1.1"
   id="svg1"
   inkscape:version="1.4.2 (f4327f4, 2025-05-13)"
   sodipodi:docname="pegboard.svg"
   xmlns:inkscape="http://www.inkscape.org/namespaces/inkscape"
   xmlns:sodipodi="http://sodipodi.sourceforge.net/DTD/sodipodi-0.dtd"
   xmlns="http://www.w3.org/2000/svg"
   xmlns:svg="http://www.w3.org/2000/svg">
  <sodipodi:namedview
     id="namedview1"
     pagecolor="#ffffff"
     bordercolor="#000000"
     borderopacity="0.25"
     inkscape:showpageshadow="2"
     inkscape:pageopacity="0.0"
     inkscape:pagecheckerboard="0"
     inkscape:deskcolor="#d1d1d1"
     inkscape:document-units="mm"
     inkscape:zoom="15.581903"
     inkscape:cx="9.4019322"
     inkscape:cy="10.685472"
     inkscape:window-width="1920"
     inkscape:window-height="991"
     inkscape:window-x="-9"
     inkscape:window-y="-9"
     inkscape:window-maximized="1"
     inkscape:current-layer="layer1" />
  <defs
     id="defs1" />
  <g
     inkscape:label="Ebene 1"
     inkscape:groupmode="layer"
     id="layer1"
     transform="translate(-90.476657,-129.11666)">
    <path
       d="m 98.741798,170.08326 -0.5639,-0.46302 0.07157,-14.54262 0.07157,-14.54263 4.630212,-1.51283 c 15.93787,-5.20742 21.93528,-7.10505 22.45535,-7.10505 0.32432,0 0.94197,0.18219 1.37255,0.40485 l 0.78289,0.40485 -0.0684,14.32183 -0.0684,14.32184 -13.74427,4.5879 c -7.55935,2.52335 -13.886235,4.5879 -14.059749,4.5879 -0.173513,0 -0.569233,-0.20836 -0.879378,-0.46302 z m 15.057362,-4.9475 12.83229,-4.29649 0.0685,-13.66733 c 0.0544,-10.84653 -2.3e-4,-13.667 -0.26459,-13.66573 -0.18321,7.9e-4 -2.89295,0.8224 -6.02165,1.8256 -13.06455,4.1891 -19.20617,6.19281 -19.77212,6.45067 l -0.60079,0.27374 v 13.87646 c 0,13.11108 0.0255,13.86607 0.46302,13.68802 0.25466,-0.10365 6.23755,-2.12187 13.29531,-4.48494 z m -12.06765,1.8582 c -0.24557,-0.63995 0.0842,-1.21018 0.69984,-1.21018 0.44905,0 0.53905,0.13851 0.47132,0.72534 -0.0939,0.8137 -0.91459,1.15344 -1.17116,0.48484 z m 0.82286,-0.41643 c 0.0899,-0.14552 0.0374,-0.26458 -0.11668,-0.26458 -0.15411,0 -0.2802,0.11906 -0.2802,0.26458 0,0.14552 0.0525,0.26458 0.11668,0.26458 0.0642,0 0.19026,-0.11906 0.2802,-0.26458 z m 2.34464,-0.66146 c -0.23747,-0.61881 0.0978,-1.19062 0.69806,-1.19062 0.67316,0 0.96601,0.66427 0.52638,1.19399 -0.42014,0.50624 -1.02953,0.50456 -1.22444,-0.003 z m 0.96265,-0.39687 c 0,-0.14552 -0.11906,-0.26459 -0.26459,-0.26459 -0.14552,0 -0.26458,0.11907 -0.26458,0.26459 0,0.14552 0.11906,0.26458 0.26458,0.26458 0.14553,0 0.26459,-0.11906 0.26459,-0.26458 z m 2.25655,-0.51689 c -0.2417,-0.39106 0.0692,-1.25729 0.5123,-1.42732 0.56151,-0.21547 1.09877,0.56743 0.75932,1.10649 -0.33553,0.53284 -1.032,0.70856 -1.27162,0.32083 z m 0.91845,-0.54145 c 0,-0.14552 -0.11907,-0.26458 -0.26459,-0.26458 -0.14552,0 -0.26458,0.11906 -0.26458,0.26458 0,0.14552 0.11906,0.26459 0.26458,0.26459 0.14552,0 0.26459,-0.11907 0.26459,-0.26459 z m 2.24749,-0.53153 c -0.0907,-0.14682 -0.0897,-0.50401 0.002,-0.79375 0.19628,-0.6184 1.13772,-0.706 1.36007,-0.12656 0.29481,0.76824 -0.9405,1.60277 -1.36228,0.92031 z m 0.92751,-0.5268 c 0,-0.14552 -0.11907,-0.26458 -0.26459,-0.26458 -0.14552,0 -0.26458,0.11906 -0.26458,0.26458 0,0.14552 0.11906,0.26458 0.26458,0.26458 0.14552,0 0.26459,-0.11906 0.26459,-0.26458 z m -10.58333,-0.47837 c 0,-0.68677 0.7202,-1.28851 1.09435,-0.91435 0.44514,0.44513 0.14381,1.25287 -0.50175,1.34498 -0.4398,0.0627 -0.5926,-0.0483 -0.5926,-0.43063 z m 12.83082,-0.0532 c -0.0907,-0.14683 -0.0897,-0.50401 0.002,-0.79375 0.19628,-0.6184 1.13772,-0.706 1.36007,-0.12656 0.29481,0.76824 -0.9405,1.60276 -1.36228,0.92031 z m 0.92751,-0.5268 c 0,-0.14552 -0.11907,-0.26459 -0.26459,-0.26459 -0.14552,0 -0.26458,0.11907 -0.26458,0.26459 0,0.14552 0.11906,0.26458 0.26458,0.26458 0.14552,0 0.26459,-0.11906 0.26459,-0.26458 z m -10.48765,-0.13229 c -0.34141,-0.88968 0.76883,-1.92277 1.24988,-1.16304 0.3253,0.51374 0.30179,0.66851 -0.17384,1.14414 -0.52249,0.52249 -0.88039,0.52877 -1.07604,0.0189 z m 0.96265,-0.67708 c 0,-0.13693 -0.11906,-0.24897 -0.26459,-0.24897 -0.14552,0 -0.26458,0.18562 -0.26458,0.41249 0,0.22687 0.11906,0.33891 0.26458,0.24897 0.14553,-0.0899 0.26459,-0.27556 0.26459,-0.41249 z m 11.73605,0.14454 c -0.18172,-0.47354 0.3427,-1.18726 0.87236,-1.18726 0.52675,0 0.74166,0.72614 0.35337,1.194 -0.42119,0.50751 -1.02968,0.50416 -1.22573,-0.007 z m 0.96395,-0.39351 c 0,-0.14552 -0.11907,-0.26458 -0.26459,-0.26458 -0.14552,0 -0.26458,0.11906 -0.26458,0.26458 0,0.14552 0.11906,0.26459 0.26458,0.26459 0.14552,0 0.26459,-0.11907 0.26459,-0.26459 z m -10.50146,-0.16825 c -0.22264,-0.58019 0.2548,-1.28695 0.86938,-1.28695 0.66771,0 0.81588,0.93407 0.21757,1.37157 -0.62813,0.4593 -0.88593,0.43923 -1.08695,-0.0846 z m 0.97646,-0.65673 c 0,-0.14552 -0.11907,-0.191 -0.26459,-0.10106 -0.14552,0.0899 -0.26458,0.28258 -0.26458,0.42811 0,0.14552 0.11906,0.191 0.26458,0.10106 0.14552,-0.0899 0.26459,-0.28258 0.26459,-0.42811 z m 11.73605,0.16016 c -0.17802,-0.46391 0.33891,-1.18726 0.84844,-1.18726 0.49302,0 0.70729,0.44423 0.51163,1.0607 -0.19627,0.6184 -1.13772,0.706 -1.36007,0.12656 z m 0.96395,-0.39351 c 0,-0.14552 -0.11907,-0.26458 -0.26459,-0.26458 -0.14552,0 -0.26458,0.11906 -0.26458,0.26458 0,0.14552 0.11906,0.26458 0.26458,0.26458 0.14552,0 0.26459,-0.11906 0.26459,-0.26458 z m -10.50146,-0.16825 c -0.22264,-0.5802 0.2548,-1.28696 0.86938,-1.28696 0.64622,0 0.78085,0.74364 0.23369,1.2908 -0.54548,0.54548 -0.89274,0.54427 -1.10307,-0.004 z m 0.97646,-0.65673 c 0,-0.14552 -0.11907,-0.191 -0.26459,-0.10106 -0.14552,0.0899 -0.26458,0.28258 -0.26458,0.4281 0,0.14552 0.11906,0.191 0.26458,0.10107 0.14552,-0.0899 0.26459,-0.28259 0.26459,-0.42811 z m 11.77249,0.29345 c -0.0907,-0.14683 -0.0897,-0.50401 0.002,-0.79375 0.19627,-0.6184 1.13771,-0.706 1.36007,-0.12656 0.2948,0.76824 -0.9405,1.60276 -1.36229,0.92031 z m 0.92751,-0.5268 c 0,-0.14552 -0.11907,-0.26459 -0.26459,-0.26459 -0.14552,0 -0.26458,0.11907 -0.26458,0.26459 0,0.14552 0.11906,0.26458 0.26458,0.26458 0.14552,0 0.26459,-0.11906 0.26459,-0.26458 z m -23.18015,0.15184 c -0.24557,-0.63995 0.0842,-1.21018 0.69984,-1.21018 0.44905,0 0.53905,0.13851 0.47132,0.72535 -0.0939,0.81369 -0.91459,1.15343 -1.17116,0.48483 z m 0.82286,-0.41643 c 0.0899,-0.14552 0.0374,-0.26458 -0.11668,-0.26458 -0.15411,0 -0.2802,0.11906 -0.2802,0.26458 0,0.14552 0.0525,0.26459 0.11668,0.26459 0.0642,0 0.19026,-0.11907 0.2802,-0.26459 z m 11.95034,0.35278 c -0.3454,-0.3454 -0.16861,-1.13207 0.31225,-1.38942 0.33618,-0.17992 0.58382,-0.16631 0.79375,0.0436 0.40566,0.40566 0.38516,0.6106 -0.11066,1.10643 -0.4503,0.4503 -0.71964,0.51508 -0.99534,0.23938 z m 0.88195,-0.91317 c 0,-0.14552 -0.11907,-0.191 -0.26459,-0.10106 -0.14552,0.0899 -0.26458,0.28258 -0.26458,0.4281 0,0.14552 0.11906,0.191 0.26458,0.10106 0.14552,-0.0899 0.26459,-0.28258 0.26459,-0.4281 z m -10.45251,0.0289 c -0.0907,-0.14682 -0.0897,-0.50401 0.002,-0.79375 0.19628,-0.6184 1.13772,-0.706 1.36007,-0.12656 0.29481,0.76824 -0.9405,1.60277 -1.36228,0.92031 z m 0.92751,-0.5268 c 0,-0.14552 -0.11906,-0.26458 -0.26459,-0.26458 -0.14552,0 -0.26458,0.11906 -0.26458,0.26458 0,0.14552 0.11906,0.26458 0.26458,0.26458 0.14553,0 0.26459,-0.11906 0.26459,-0.26458 z m 11.78155,0.27687 c -0.2417,-0.39107 0.0692,-1.2573 0.5123,-1.42733 0.56151,-0.21547 1.09877,0.56743 0.75932,1.10649 -0.33553,0.53284 -1.032,0.70856 -1.27162,0.32084 z m 0.91845,-0.68936 c 0,-0.22687 -0.11907,-0.33891 -0.26459,-0.24897 -0.14552,0.0899 -0.26458,0.27556 -0.26458,0.41249 0,0.13694 0.11906,0.24897 0.26458,0.24897 0.14552,0 0.26459,-0.18562 0.26459,-0.41249 z m -10.48895,-0.25234 c -0.18171,-0.47354 0.3427,-1.18725 0.87236,-1.18725 0.52675,0 0.74166,0.72614 0.35337,1.19399 -0.42119,0.50751 -1.02968,0.50417 -1.22573,-0.007 z m 0.96395,-0.3935 c 0,-0.14552 -0.11907,-0.26459 -0.26459,-0.26459 -0.14552,0 -0.26458,0.11907 -0.26458,0.26459 0,0.14552 0.11906,0.26458 0.26458,0.26458 0.14552,0 0.26459,-0.11906 0.26459,-0.26458 z m 11.77249,0.26221 c -0.24396,-0.39474 0.0932,-1.24838 0.56458,-1.42925 0.54004,-0.20724 0.89209,0.0298 0.89209,0.60057 0,0.85344 -1.06642,1.46012 -1.45667,0.82868 z m 0.92751,-0.6747 c 0,-0.22687 -0.11907,-0.33891 -0.26459,-0.24897 -0.14552,0.0899 -0.26458,0.27556 -0.26458,0.41249 0,0.13693 0.11906,0.24897 0.26458,0.24897 0.14552,0 0.26459,-0.18562 0.26459,-0.41249 z m -10.32901,0.003 c -0.37474,-0.45154 -0.16524,-1.12753 0.41892,-1.35169 0.57504,-0.22066 1.00305,0.27058 0.79817,0.9161 -0.22074,0.69549 -0.82262,0.9109 -1.21709,0.43559 z m 0.80401,-0.6491 c 0,-0.14552 -0.0525,-0.26458 -0.11668,-0.26458 -0.0642,0 -0.19026,0.11906 -0.2802,0.26458 -0.0899,0.14552 -0.0374,0.26459 0.11668,0.26459 0.15411,0 0.2802,-0.11907 0.2802,-0.26459 z m 11.78155,0.27687 c -0.2417,-0.39107 0.0692,-1.2573 0.5123,-1.42732 0.56151,-0.21547 1.09877,0.56742 0.75932,1.10649 -0.33553,0.53283 -1.032,0.70855 -1.27162,0.32083 z m 0.91845,-0.83726 c 0,-0.14552 -0.11907,-0.191 -0.26459,-0.10106 -0.14552,0.0899 -0.26458,0.28258 -0.26458,0.4281 0,0.14552 0.11906,0.191 0.26458,0.10106 0.14552,-0.0899 0.26459,-0.28258 0.26459,-0.4281 z m -23.20145,0.39214 c -0.20205,-0.52651 0.23563,-1.28695 0.7407,-1.28695 0.48817,0 0.64386,1.20144 0.19275,1.48738 -0.52241,0.33113 -0.74807,0.28267 -0.93345,-0.20043 z m 0.84416,-0.36066 c 0.0899,-0.14552 0.0374,-0.26459 -0.11668,-0.26459 -0.15411,0 -0.2802,0.11907 -0.2802,0.26459 0,0.14552 0.0525,0.26458 0.11668,0.26458 0.0642,0 0.19026,-0.11906 0.2802,-0.26458 z m 11.86834,-0.13566 c -0.17802,-0.46391 0.33891,-1.18726 0.84844,-1.18726 0.49302,0 0.70729,0.44423 0.51163,1.0607 -0.19627,0.6184 -1.13772,0.706 -1.36007,0.12656 z m 0.96395,-0.40913 c 0,-0.13693 -0.11907,-0.24896 -0.26459,-0.24896 -0.14552,0 -0.26458,0.18562 -0.26458,0.41249 0,0.22687 0.11906,0.3389 0.26458,0.24897 0.14552,-0.0899 0.26459,-0.27556 0.26459,-0.4125 z m -10.40695,0.10381 c -0.34895,-0.34895 -0.16639,-1.13325 0.325,-1.39624 0.36898,-0.19747 0.58344,-0.16946 0.81211,0.10607 0.57386,0.69146 -0.50816,1.91912 -1.13711,1.29017 z m 0.88195,-0.89756 c 0,-0.13693 -0.11906,-0.24896 -0.26459,-0.24896 -0.14552,0 -0.26458,0.18562 -0.26458,0.41249 0,0.22687 0.11906,0.3389 0.26458,0.24897 0.14553,-0.0899 0.26459,-0.27556 0.26459,-0.4125 z m 11.73605,0.14454 c -0.17802,-0.4639 0.33891,-1.18725 0.84844,-1.18725 0.49302,0 0.70729,0.44422 0.51163,1.0607 -0.19627,0.6184 -1.13772,0.706 -1.36007,0.12655 z m 0.96395,-0.40912 c 0,-0.13693 -0.11907,-0.24897 -0.26459,-0.24897 -0.14552,0 -0.26458,0.18562 -0.26458,0.41249 0,0.22687 0.11906,0.33891 0.26458,0.24897 0.14552,-0.0899 0.26459,-0.27556 0.26459,-0.41249 z M 108.074,153.48066 c -0.23746,-0.61882 0.0978,-1.19063 0.69807,-1.19063 0.67316,0 0.966,0.66427 0.52637,1.19399 -0.42013,0.50624 -1.02953,0.50456 -1.22444,-0.003 z m 0.96266,-0.39688 c 0,-0.14552 -0.11907,-0.26458 -0.26459,-0.26458 -0.14552,0 -0.26458,0.11906 -0.26458,0.26458 0,0.14552 0.11906,0.26458 0.26458,0.26458 0.14552,0 0.26459,-0.11906 0.26459,-0.26458 z m 11.73659,-0.13425 c -0.0934,-0.2433 0.015,-0.61825 0.24525,-0.84849 0.56201,-0.56201 1.30742,-0.23984 1.19974,0.51854 -0.10435,0.73483 -1.19413,0.98368 -1.44499,0.32995 z m 0.96341,-0.39492 c 0,-0.14552 -0.0525,-0.26458 -0.11668,-0.26458 -0.0642,0 -0.19026,0.11906 -0.2802,0.26458 -0.0899,0.14552 -0.0374,0.26459 0.11668,0.26459 0.15411,0 0.2802,-0.11907 0.2802,-0.26459 z M 111.249,152.42232 c -0.23746,-0.61881 0.0978,-1.19062 0.69807,-1.19062 0.67316,0 0.966,0.66427 0.52637,1.19399 -0.42013,0.50624 -1.02953,0.50456 -1.22444,-0.003 z m 0.96266,-0.54478 c 0,-0.22687 -0.11907,-0.33891 -0.26459,-0.24897 -0.14552,0.0899 -0.26458,0.27556 -0.26458,0.41249 0,0.13694 0.11906,0.24897 0.26458,0.24897 0.14552,0 0.26459,-0.18562 0.26459,-0.41249 z m 11.72354,0.24424 c -0.22264,-0.5802 0.2548,-1.28696 0.86938,-1.28696 0.59325,0 0.80859,0.79645 0.36111,1.33563 -0.4242,0.51113 -1.02479,0.48737 -1.23049,-0.0487 z m 0.97646,-0.65673 c 0,-0.14552 -0.11907,-0.191 -0.26459,-0.10106 -0.14552,0.0899 -0.26458,0.28258 -0.26458,0.4281 0,0.14552 0.11906,0.191 0.26458,0.10107 0.14552,-0.0899 0.26459,-0.28259 0.26459,-0.42811 z m -23.20145,0.39214 c -0.20141,-0.52486 0.23507,-1.28695 0.73708,-1.28695 0.48381,0 0.62985,0.85242 0.22882,1.33563 -0.41806,0.50373 -0.76055,0.48647 -0.9659,-0.0487 z m 0.83286,-0.34263 c 0.0837,-0.13546 0.0312,-0.32108 -0.11668,-0.41249 -0.14789,-0.0914 -0.2689,0.0194 -0.2689,0.2463 0,0.46475 0.15877,0.53318 0.38558,0.16619 z m 11.91608,-0.0207 c -0.0907,-0.14682 -0.0897,-0.50401 0.002,-0.79375 0.19628,-0.6184 1.13772,-0.706 1.36007,-0.12656 0.29481,0.76825 -0.9405,1.60277 -1.36228,0.92031 z m 0.92751,-0.52679 c 0,-0.14552 -0.11907,-0.26458 -0.26459,-0.26458 -0.14552,0 -0.26458,0.11906 -0.26458,0.26458 0,0.14552 0.11906,0.26459 0.26458,0.26459 0.14552,0 0.26459,-0.11907 0.26459,-0.26459 z m -10.35021,-0.17019 c -0.24126,-0.29071 -0.25721,-0.52643 -0.0571,-0.84417 0.37303,-0.59239 1.04357,-0.69492 1.23762,-0.18925 0.357,0.93032 -0.58307,1.75327 -1.18049,1.03342 z m 0.82521,-0.63917 c 0,-0.13693 -0.11906,-0.24897 -0.26459,-0.24897 -0.14552,0 -0.26458,0.18562 -0.26458,0.41249 0,0.22687 0.11906,0.33891 0.26458,0.24897 0.14553,-0.0899 0.26459,-0.27556 0.26459,-0.41249 z m 11.73605,0.14454 c -0.18172,-0.47355 0.3427,-1.18726 0.87236,-1.18726 0.52675,0 0.74166,0.72614 0.35337,1.19399 -0.42119,0.50751 -1.02968,0.50417 -1.22573,-0.007 z m 0.96395,-0.39351 c 0,-0.14552 -0.11907,-0.26458 -0.26459,-0.26458 -0.14552,0 -0.26458,0.11906 -0.26458,0.26458 0,0.14552 0.11906,0.26458 0.26458,0.26458 0.14552,0 0.26459,-0.11906 0.26459,-0.26458 z m -10.25261,0.0745 c -0.49962,-0.17915 -0.39633,-1.0791 0.15791,-1.37571 0.52823,-0.28271 1.09886,0.0722 1.09886,0.68337 0,0.41058 -0.80531,0.85422 -1.25677,0.69234 z m 0.72761,-0.75156 c 0,-0.22687 -0.11907,-0.33891 -0.26459,-0.24897 -0.14552,0.0899 -0.26458,0.27556 -0.26458,0.41249 0,0.13693 0.11906,0.24897 0.26458,0.24897 0.14552,0 0.26459,-0.18562 0.26459,-0.41249 z m 11.73605,0.0122 c -0.18172,-0.47355 0.3427,-1.18726 0.87236,-1.18726 0.52675,0 0.74166,0.72614 0.35337,1.19399 -0.42119,0.50751 -1.02968,0.50417 -1.22573,-0.007 z m 0.96395,-0.39351 c 0,-0.14552 -0.11907,-0.26459 -0.26459,-0.26459 -0.14552,0 -0.26458,0.11907 -0.26458,0.26459 0,0.14552 0.11906,0.26458 0.26458,0.26458 0.14552,0 0.26459,-0.11906 0.26459,-0.26458 z m -10.3978,0.0973 c -0.32087,-0.32087 -0.2022,-1.07706 0.22462,-1.43128 0.5973,-0.49572 1.43429,0.33793 1.01221,1.00817 -0.31544,0.5009 -0.94401,0.71593 -1.23683,0.42311 z m 0.8728,-0.77442 c 0,-0.22687 -0.11907,-0.3389 -0.26459,-0.24896 -0.14552,0.0899 -0.26458,0.27555 -0.26458,0.41249 0,0.13693 0.11906,0.24896 0.26458,0.24896 0.14552,0 0.26459,-0.18562 0.26459,-0.41249 z m 11.89599,0.26784 c -0.37474,-0.45153 -0.16524,-1.12753 0.41892,-1.35169 0.57504,-0.22066 1.00305,0.27058 0.79817,0.9161 -0.22074,0.69549 -0.82262,0.9109 -1.21709,0.43559 z m 0.80401,-0.6491 c 0,-0.14552 -0.11907,-0.26458 -0.26459,-0.26458 -0.14552,0 -0.26458,0.11906 -0.26458,0.26458 0,0.14552 0.11906,0.26459 0.26458,0.26459 0.14552,0 0.26459,-0.11907 0.26459,-0.26459 z m -23.23476,-0.19843 c 0.0981,-0.853 1.09698,-1.17456 1.37752,-0.44348 0.21587,0.56254 -0.27619,1.17108 -0.9469,1.17108 -0.40501,0 -0.49655,-0.15467 -0.43062,-0.7276 z m 0.87747,-0.0661 c 0.0899,-0.14552 0.0374,-0.26458 -0.11668,-0.26458 -0.15411,0 -0.2802,0.11906 -0.2802,0.26458 0,0.14552 0.0525,0.26458 0.11668,0.26458 0.0642,0 0.19026,-0.11906 0.2802,-0.26458 z m 11.91384,0.27687 c -0.2417,-0.39107 0.0692,-1.2573 0.5123,-1.42733 0.56151,-0.21547 1.09877,0.56743 0.75932,1.10649 -0.33553,0.53284 -1.032,0.70856 -1.27162,0.32084 z m 0.91845,-0.68936 c 0,-0.22687 -0.11907,-0.33891 -0.26459,-0.24897 -0.14552,0.0899 -0.26458,0.27556 -0.26458,0.41249 0,0.13694 0.11906,0.24897 0.26458,0.24897 0.14552,0 0.26459,-0.18562 0.26459,-0.41249 z M 104.89901,146.866 c -0.23747,-0.61881 0.0978,-1.19062 0.69806,-1.19062 0.67316,0 0.96601,0.66427 0.52638,1.19399 -0.42014,0.50624 -1.02953,0.50456 -1.22444,-0.003 z m 0.96265,-0.39687 c 0,-0.14552 -0.11906,-0.26459 -0.26459,-0.26459 -0.14552,0 -0.26458,0.11907 -0.26458,0.26459 0,0.14552 0.11906,0.26458 0.26458,0.26458 0.14553,0 0.26459,-0.11906 0.26459,-0.26458 z m 11.77249,0.26221 c -0.0907,-0.14682 -0.0897,-0.50401 0.002,-0.79375 0.19627,-0.61839 1.13771,-0.706 1.36007,-0.12655 0.2948,0.76824 -0.9405,1.60276 -1.36229,0.9203 z m 0.92751,-0.5268 c 0,-0.14552 -0.11907,-0.26458 -0.26459,-0.26458 -0.14552,0 -0.26458,0.11906 -0.26458,0.26458 0,0.14552 0.11906,0.26459 0.26458,0.26459 0.14552,0 0.26459,-0.11907 0.26459,-0.26459 z m -10.48895,-0.40024 c -0.17802,-0.4639 0.33891,-1.18726 0.84844,-1.18726 0.49302,0 0.70729,0.44423 0.51163,1.06071 -0.19627,0.61839 -1.13772,0.70599 -1.36007,0.12655 z m 0.96395,-0.39351 c 0,-0.14552 -0.11907,-0.26458 -0.26459,-0.26458 -0.14552,0 -0.26458,0.11906 -0.26458,0.26458 0,0.14552 0.11906,0.26459 0.26458,0.26459 0.14552,0 0.26459,-0.11907 0.26459,-0.26459 z m 11.73605,0.12893 c -0.18172,-0.47355 0.3427,-1.18726 0.87236,-1.18726 0.52675,0 0.74166,0.72614 0.35337,1.19399 -0.42119,0.50751 -1.02968,0.50417 -1.22573,-0.007 z m 0.96395,-0.39351 c 0,-0.14552 -0.11907,-0.26458 -0.26459,-0.26458 -0.14552,0 -0.26458,0.11906 -0.26458,0.26458 0,0.14552 0.11906,0.26458 0.26458,0.26458 0.14552,0 0.26459,-0.11906 0.26459,-0.26458 z m -10.32901,-0.14465 c -0.37474,-0.45154 -0.16524,-1.12753 0.41892,-1.35169 0.57504,-0.22067 1.00305,0.27058 0.79817,0.9161 -0.22074,0.69549 -0.82262,0.9109 -1.21709,0.43559 z m 0.80401,-0.6491 c 0,-0.14552 -0.11907,-0.26458 -0.26459,-0.26458 -0.14552,0 -0.26458,0.11906 -0.26458,0.26458 0,0.14552 0.11906,0.26458 0.26458,0.26458 0.14552,0 0.26459,-0.11906 0.26459,-0.26458 z m 11.73605,0.12892 c -0.18172,-0.47354 0.3427,-1.18725 0.87236,-1.18725 0.52675,0 0.74166,0.72614 0.35337,1.19399 -0.42119,0.50751 -1.02968,0.50417 -1.22573,-0.007 z m 0.96395,-0.3935 c 0,-0.14552 -0.11907,-0.26459 -0.26459,-0.26459 -0.14552,0 -0.26458,0.11907 -0.26458,0.26459 0,0.14552 0.11906,0.26458 0.26458,0.26458 0.14552,0 0.26459,-0.11906 0.26459,-0.26458 z m -23.10695,0.35277 c -0.34607,-0.34607 -0.16867,-1.35745 0.26746,-1.52481 0.69599,-0.26708 1.26276,0.45511 0.89559,1.14117 -0.29611,0.55328 -0.82045,0.72625 -1.16305,0.38364 z m 0.73836,-0.59907 c 0.0837,-0.13547 0.0312,-0.32109 -0.11668,-0.41249 -0.14789,-0.0914 -0.2689,0.0194 -0.2689,0.2463 0,0.46475 0.15877,0.53317 0.38558,0.16619 z m 11.86713,0.078 c -0.22264,-0.58019 0.2548,-1.28695 0.86938,-1.28695 0.66771,0 0.81588,0.93408 0.21757,1.37157 -0.62813,0.4593 -0.88593,0.43923 -1.08695,-0.0846 z m 0.97646,-0.64111 c 0,-0.13693 -0.11907,-0.24897 -0.26459,-0.24897 -0.14552,0 -0.26458,0.18562 -0.26458,0.41249 0,0.22687 0.11906,0.33891 0.26458,0.24897 0.14552,-0.0899 0.26459,-0.27556 0.26459,-0.41249 z m -10.3978,0.11296 c -0.357,-0.357 -0.18116,-1.1394 0.31585,-1.40539 0.67736,-0.36252 1.32199,0.34542 0.91012,0.9995 -0.30609,0.48608 -0.93692,0.69494 -1.22597,0.40589 z m 0.74051,-0.62651 c 0.0899,-0.14552 0.0374,-0.26458 -0.11668,-0.26458 -0.15411,0 -0.2802,0.11906 -0.2802,0.26458 0,0.14552 0.0525,0.26458 0.11668,0.26458 0.0642,0 0.19026,-0.11906 0.2802,-0.26458 z m 11.85583,0.0963 c -0.22264,-0.58019 0.2548,-1.28695 0.86938,-1.28695 0.59325,0 0.80859,0.79644 0.36111,1.33562 -0.4242,0.51113 -1.02479,0.48738 -1.23049,-0.0487 z m 0.97646,-0.65672 c 0,-0.14553 -0.11907,-0.191 -0.26459,-0.10107 -0.14552,0.0899 -0.26458,0.28259 -0.26458,0.42811 0,0.14552 0.11906,0.191 0.26458,0.10106 0.14552,-0.0899 0.26459,-0.28258 0.26459,-0.4281 z m -10.48895,-0.10444 c -0.18171,-0.47354 0.3427,-1.18725 0.87236,-1.18725 0.52675,0 0.74166,0.72614 0.35337,1.19399 -0.42119,0.50751 -1.02968,0.50417 -1.22573,-0.007 z m 0.96395,-0.3935 c 0,-0.14552 -0.11907,-0.26459 -0.26459,-0.26459 -0.14552,0 -0.26458,0.11907 -0.26458,0.26459 0,0.14552 0.11906,0.26458 0.26458,0.26458 0.14552,0 0.26459,-0.11906 0.26459,-0.26458 z m 11.7977,0.0987 c -0.19165,-0.49943 0.26913,-1.15709 0.81071,-1.15709 0.52675,0 0.74166,0.72614 0.35337,1.194 -0.42916,0.5171 -0.95792,0.50034 -1.16408,-0.0369 z m 0.9023,-0.51124 c 0,-0.22687 -0.11907,-0.33891 -0.26459,-0.24897 -0.14552,0.0899 -0.26458,0.27556 -0.26458,0.41249 0,0.13693 0.11906,0.24897 0.26458,0.24897 0.14552,0 0.26459,-0.18562 0.26459,-0.41249 z m -10.48895,-0.25234 c -0.18171,-0.47354 0.3427,-1.18726 0.87236,-1.18726 0.52675,0 0.74166,0.72614 0.35337,1.194 -0.42119,0.50751 -1.02968,0.50416 -1.22573,-0.007 z m 0.96395,-0.39351 c 0,-0.14552 -0.0525,-0.26458 -0.11668,-0.26458 -0.0642,0 -0.19026,0.11906 -0.2802,0.26458 -0.0899,0.14552 -0.0374,0.26459 0.11668,0.26459 0.15411,0 0.2802,-0.11907 0.2802,-0.26459 z m 11.77249,0.26222 c -0.0907,-0.14682 -0.0897,-0.50401 0.002,-0.79375 0.19627,-0.6184 1.13771,-0.706 1.36007,-0.12656 0.2948,0.76825 -0.9405,1.60277 -1.36229,0.92031 z m 0.92751,-0.67471 c 0,-0.22687 -0.11907,-0.3389 -0.26459,-0.24896 -0.14552,0.0899 -0.26458,0.27555 -0.26458,0.41249 0,0.13693 0.11906,0.24896 0.26458,0.24896 0.14552,0 0.26459,-0.18562 0.26459,-0.41249 z m -10.48895,-0.25233 c -0.17802,-0.46391 0.33891,-1.18726 0.84844,-1.18726 0.49302,0 0.70729,0.44423 0.51163,1.0607 -0.19627,0.6184 -1.13772,0.706 -1.36007,0.12656 z m 0.96395,-0.39351 c 0,-0.14552 -0.0525,-0.26458 -0.11668,-0.26458 -0.0642,0 -0.19026,0.11906 -0.2802,0.26458 -0.0899,0.14552 -0.0374,0.26458 0.11668,0.26458 0.15411,0 0.2802,-0.11906 0.2802,-0.26458 z m 2.21105,-0.66483 c -0.17802,-0.4639 0.33891,-1.18725 0.84844,-1.18725 0.49302,0 0.70729,0.44422 0.51163,1.0607 -0.19627,0.6184 -1.13772,0.706 -1.36007,0.12655 z m 0.96395,-0.3935 c 0,-0.14552 -0.11907,-0.26459 -0.26459,-0.26459 -0.14552,0 -0.26458,0.11907 -0.26458,0.26459 0,0.14552 0.11906,0.26458 0.26458,0.26458 0.14552,0 0.26459,-0.11906 0.26459,-0.26458 z m 2.43416,-0.3175 c -0.4518,-0.4518 -0.39284,-0.94805 0.14552,-1.22494 0.61343,-0.3155 1.12448,-0.10951 1.12448,0.45323 0,0.44096 -0.4724,1.08921 -0.79375,1.08921 -0.0873,0 -0.30162,-0.14288 -0.47625,-0.3175 z m 0.74084,-0.62416 c 0,-0.22687 -0.11907,-0.3389 -0.26459,-0.24897 -0.14552,0.0899 -0.26458,0.27556 -0.26458,0.41249 0,0.13694 0.11906,0.24897 0.26458,0.24897 0.14552,0 0.26459,-0.18562 0.26459,-0.41249 z m 2.25655,-0.36898 c -0.2417,-0.39106 0.0692,-1.25729 0.5123,-1.42732 0.56151,-0.21547 1.09877,0.56743 0.75932,1.10649 -0.33553,0.53284 -1.032,0.70856 -1.27162,0.32083 z m 0.91845,-0.68935 c 0,-0.22687 -0.11907,-0.33891 -0.26459,-0.24897 -0.14552,0.0899 -0.26458,0.27556 -0.26458,0.41249 0,0.13693 0.11906,0.24897 0.26458,0.24897 0.14552,0 0.26459,-0.18562 0.26459,-0.41249 z m -25.400002,19.09392 c 0,-12.07799 -0.05109,-13.88192 -0.396875,-14.01461 -0.34966,-0.13418 -0.396875,1.49398 -0.396875,13.68593 0,7.61102 0.07937,13.91759 0.176389,14.01461 0.09701,0.097 0.275607,0.17639 0.396875,0.17639 0.121267,0 0.220486,-6.23805 0.220486,-13.86232 z m 7.251242,-16.53466 c 3.50614,-1.14761 9.25695,-3.01272 12.77958,-4.1447 3.52263,-1.13197 6.3474,-2.15097 6.27728,-2.26443 -0.15278,-0.2472 0.50028,-0.44403 -14.13727,4.26088 -6.47568,2.08146 -11.887066,3.8858 -12.025311,4.00964 -0.614463,0.55045 1.146281,0.0892 7.105721,-1.86139 z"
       style="fill:#28220b;stroke-width:0.264583"
       id="path1" />
  </g>
</svg>
