<?xml version="1.0" encoding="UTF-8" standalone="no"?>
<!-- Created with Inkscape (http://www.inkscape.org/) -->

<svg
   width="24mm"
   height="24mm"
   viewBox="0 0 24 24"
   version="1.1"
   id="svg1"
   inkscape:version="1.4.2 (f4327f4, 2025-05-13)"
   sodipodi:docname="compressor.svg"
   xmlns:inkscape="http://www.inkscape.org/namespaces/inkscape"
   xmlns:sodipodi="http://sodipodi.sourceforge.net/DTD/sodipodi-0.dtd"
   xmlns="http://www.w3.org/2000/svg"
   xmlns:svg="http://www.w3.org/2000/svg">
  <sodipodi:namedview
     id="namedview1"
     pagecolor="#ffffff"
     bordercolor="#000000"
     borderopacity="0.25"
     inkscape:showpageshadow="2"
     inkscape:pageopacity="0.0"
     inkscape:pagecheckerboard="0"
     inkscape:deskcolor="#d1d1d1"
     inkscape:document-units="mm"
     inkscape:zoom="0.68862935"
     inkscape:cx="54.456"
     inkscape:cy="45.74304"
     inkscape:window-width="1920"
     inkscape:window-height="991"
     inkscape:window-x="-9"
     inkscape:window-y="-9"
     inkscape:window-maximized="1"
     inkscape:current-layer="layer1" />
  <defs
     id="defs1" />
  <g
     inkscape:label="Ebene 1"
     inkscape:groupmode="layer"
     id="layer1"
      transform="translate(0 1.886556) scale(0.827261) translate(-90.4875,-136.39271)">
    <path
       d="m 95.35269,160.60735 c -0.673796,-0.27224 -1.69019,-1.51074 -1.69019,-2.05953 0,-0.21748 -0.523846,-0.88603 -1.164101,-1.48568 -1.369401,-1.28255 -2.010899,-3.06524 -2.010899,-5.58818 0,-2.97602 1.411377,-5.96421 3.006042,-6.36444 0.540409,-0.13564 0.565833,-0.29104 0.565833,-3.45856 0,-4.05911 0.0067,-4.06763 3.207168,-4.06763 2.059286,0 2.184667,-0.033 2.264534,-0.59531 0.08053,-0.567 0.197794,-0.59531 2.465793,-0.59531 h 2.38125 l 0.0338,1.19062 c 0.0632,2.22714 0.0953,2.38125 0.49536,2.38125 0.21828,0 0.39688,-0.1318 0.39688,-0.29289 0,-0.16109 0.15478,-0.23349 0.34395,-0.1609 0.24196,0.0928 0.34396,-0.14335 0.34396,-0.79644 0,-0.60525 0.17418,-1.0558 0.50036,-1.29431 0.62384,-0.45616 2.8898,-0.48074 3.24076,-0.0351 0.44417,0.56392 0.61061,1.71844 0.34752,2.41045 -0.30193,0.79413 -0.0556,2.60845 0.33638,2.47778 0.15287,-0.051 0.39068,-0.4424 0.52845,-0.86987 0.37701,-1.16971 0.68714,-1.43867 1.65891,-1.43867 1.52141,0 2.89129,0.9136 3.41121,2.27499 0.25137,0.65821 0.3849,1.26889 0.29673,1.35706 -0.0882,0.0882 -0.16032,-0.0381 -0.16032,-0.28066 0,-0.24253 -0.11906,-0.44097 -0.26458,-0.44097 -0.14552,0 -0.26458,0.24927 -0.26458,0.55394 0,0.33142 -0.21257,0.60952 -0.52917,0.69231 -0.8826,0.23081 -0.63422,0.87041 0.338,0.87041 1.49308,0 2.82894,1.21885 3.47983,3.175 0.93023,2.7957 0.74123,5.92496 -0.46606,7.71645 -0.76147,1.12994 -2.17753,2.07314 -3.11249,2.07314 -0.70711,0 -0.74443,0.0631 -0.82077,1.38906 l -0.08,1.38906 h -1.19062 -1.19063 l -0.08,-1.38906 -0.08,-1.38906 h -6.01844 -6.01844 l -0.341492,0.94438 c -0.569333,1.57446 -2.513396,2.37204 -4.160038,1.70672 z m 2.254432,-0.91883 c 1.082067,-0.55956 1.501979,-1.72352 0.983491,-2.72617 -0.507045,-0.98051 -1.671273,-1.50596 -2.575232,-1.16228 -0.855446,0.32524 -1.253972,0.82881 -1.456222,1.84006 -0.136861,0.68432 -0.02839,0.9605 0.639535,1.62844 0.901811,0.90181 1.331669,0.97676 2.408428,0.41995 z m -1.943089,-1.18415 c -0.550074,-0.60782 -0.359397,-1.47548 0.415377,-1.89012 1.136716,-0.60835 2.414524,1.16723 1.498923,2.08283 -0.475483,0.47548 -1.393203,0.3831 -1.9143,-0.19271 z m 1.614826,-0.43635 c 0.08809,-0.22956 -0.03471,-0.61226 -0.272889,-0.85044 -0.401015,-0.40102 -0.465092,-0.40102 -0.866108,0 -0.540938,0.54093 -0.29265,1.26783 0.433054,1.26783 0.300175,0 0.61785,-0.18782 0.705943,-0.41739 z m 16.441801,0.87821 c 0.0705,-0.84983 0.005,-0.98998 -0.46302,-0.98998 -0.46124,0 -0.54514,0.16586 -0.54514,1.07773 0,0.88345 0.0835,1.06192 0.46302,0.98999 0.32359,-0.0613 0.48775,-0.38586 0.54514,-1.07774 z m 1.76996,-7.47227 v -5.55625 l -2.60631,-0.0761 c -2.49689,-0.0729 -2.63244,-0.0479 -3.22852,0.59531 l -0.62219,0.67136 h -5.44862 -5.448617 l -0.661458,-0.66146 c -0.952154,-0.95215 -3.166354,-0.94828 -4.302263,0.008 -1.174065,0.98791 -1.761559,2.76576 -1.746149,5.28414 0.01349,2.20339 0.387141,3.32585 1.519327,4.56406 0.674193,0.73733 0.897498,0.74688 1.119349,0.0479 0.224999,-0.70891 1.640507,-1.56699 2.587032,-1.56825 1.072494,-0.001 2.231218,0.68223 2.703185,1.59491 l 0.410178,0.79319 7.862526,-0.0701 7.86253,-0.0701 z m 1.43548,4.90535 c 0.26106,-0.13972 0.74315,-0.87817 1.07131,-1.641 0.79002,-1.83646 0.68246,-5.02613 -0.23327,-6.9178 -0.49838,-1.0295 -1.52791,-2.07413 -1.70086,-1.7258 -0.1152,0.23202 0.12864,10.53862 0.24933,10.53862 0.0764,0 0.35244,-0.11431 0.61349,-0.25402 z m -12.21725,-10.23149 c 0.56293,-0.15086 0.59532,-0.29261 0.59532,-2.60537 v -2.44583 l -1.3735,-0.16267 c -0.75542,-0.0895 -2.42454,-0.0881 -3.70916,0.003 -2.684283,0.19054 -2.750582,0.26567 -2.534436,2.87209 0.187873,2.26549 0.549121,2.50615 3.755496,2.50181 1.46903,-0.002 2.93886,-0.0754 3.26628,-0.16315 z m -6.09044,-0.52177 c -0.443058,-0.44306 0.268036,-0.63439 2.35779,-0.63439 1.68632,0 2.22777,0.0834 2.1459,0.33073 -0.11802,0.3565 -4.177163,0.63018 -4.50369,0.30366 z m 0.07117,-1.42814 c 0,-0.15563 0.926041,-0.26458 2.24896,-0.26458 1.32292,0 2.24896,0.10895 2.24896,0.26458 0,0.15564 -0.92604,0.26459 -2.24896,0.26459 -1.322919,0 -2.24896,-0.10895 -2.24896,-0.26459 z m 0,-1.05833 c 0,-0.15564 0.926041,-0.26458 2.24896,-0.26458 1.32292,0 2.24896,0.10894 2.24896,0.26458 0,0.15564 -0.92604,0.26458 -2.24896,0.26458 -1.322919,0 -2.24896,-0.10894 -2.24896,-0.26458 z m 0,-1.32292 c 0,-0.15563 0.926041,-0.26458 2.24896,-0.26458 1.32292,0 2.24896,0.10895 2.24896,0.26458 0,0.15564 -0.92604,0.26459 -2.24896,0.26459 -1.322919,0 -2.24896,-0.10895 -2.24896,-0.26459 z m 10.26235,1.50787 0.0759,-2.59319 -1.52477,0.0796 c -1.39197,0.0727 -1.52211,0.13149 -1.49435,0.67496 0.0167,0.32742 0.0436,1.4945 0.0598,2.59351 l 0.0294,1.9982 1.38906,-0.08 1.38906,-0.08 z m 3.49599,1.2866 c 0,-0.2508 -0.248,-0.36356 -0.72734,-0.33073 -0.5714,0.0391 -0.74552,-0.0778 -0.81215,-0.54551 -0.14212,-0.99749 -0.84176,-0.7226 -0.84176,0.33073 0,0.92114 0.006,0.92604 1.19062,0.92604 0.85923,0 1.19063,-0.10591 1.19063,-0.38053 z m 1.32291,0.16005 c 0,-0.34451 -0.31453,-0.57363 -0.57038,-0.4155 -0.27364,0.16912 -0.0377,0.63598 0.32141,0.63598 0.13694,0 0.24897,-0.0992 0.24897,-0.22048 z m -18.274414,-3.11179 c 0.02787,-2.39061 -0.03918,-3.04286 -0.303768,-2.95521 -0.362654,0.12014 -0.629049,4.29723 -0.346146,5.42759 0.35003,1.39857 0.616611,0.38445 0.649914,-2.47238 z m 1.435336,1.01717 c 0.074,-1.12779 0.214638,-2.55654 0.312523,-3.175 0.171757,-1.08522 0.15345,-1.12448 -0.524425,-1.12448 h -0.702392 l 0.139586,2.57969 c 0.07677,1.41883 0.142221,2.84758 0.145436,3.175 0.0032,0.32742 0.115845,0.59531 0.250285,0.59531 0.13444,0 0.304985,-0.92273 0.378987,-2.05052 z m 15.251578,-0.32958 c 0,-0.95921 0.0559,-1.0329 0.8599,-1.13267 0.85087,-0.10559 0.84954,-0.10715 -0.12725,-0.14905 -0.87625,-0.0376 -1.00506,0.0394 -1.14658,0.68526 -0.0877,0.40018 -0.2094,0.88718 -0.27048,1.08221 -0.14483,0.46244 0.12365,0.88677 0.43811,0.69243 0.13547,-0.0837 0.2463,-0.61391 0.2463,-1.17818 z m 2.64584,0.25413 c 0,-0.69753 -0.0639,-0.76886 -0.4864,-0.54275 -0.26751,0.14317 -0.74376,0.193 -1.05833,0.11074 -0.47859,-0.12516 -0.57194,-0.0366 -0.57194,0.54275 0,0.63131 0.0932,0.69231 1.05833,0.69231 1.00227,0 1.05834,-0.0425 1.05834,-0.80305 z m -15.289402,-3.43028 c -0.09697,-0.66071 -0.238138,-0.79375 -0.842245,-0.79375 -0.636141,0 -0.722268,0.0979 -0.697574,0.79315 0.02498,0.70304 0.120655,0.79321 0.842245,0.79375 0.754121,5.3e-4 0.805492,-0.0579 0.697574,-0.79315 z M 103.71667,139.7 c 0,-0.30798 -0.96327,-0.3129 -2.64584,-0.0135 -1.129339,0.20095 -1.09189,0.21356 0.72761,0.24497 1.12451,0.0194 1.91823,-0.0764 1.91823,-0.23146 z m 5.55625,-0.13229 c 0,-0.29398 -0.30869,-0.39688 -1.19063,-0.39688 -0.88194,0 -1.19062,0.1029 -1.19062,0.39688 0,0.29398 0.30868,0.39687 1.19062,0.39687 0.88194,0 1.19063,-0.10289 1.19063,-0.39687 z m -5.82084,-1.05834 c 0,-0.30824 -0.35104,-0.39687 -1.57188,-0.39687 -1.46812,0 -2.081283,0.22739 -1.68412,0.62455 0.0931,0.0931 0.86373,0.1692 1.7126,0.1692 1.19553,0 1.5434,-0.0895 1.5434,-0.39688 z m 5.55625,-0.37904 c 0,-0.41176 -1.00371,-0.59485 -1.5775,-0.28776 -0.78298,0.41903 -0.67081,0.53451 0.51917,0.53451 0.58208,0 1.05833,-0.11104 1.05833,-0.24675 z m -5.42396,-0.81158 c 0.10267,-0.16612 -0.48232,-0.26459 -1.57188,-0.26459 -0.98055,0 -1.73541,0.11509 -1.73541,0.26459 0,0.1467 0.70035,0.26458 1.57189,0.26458 0.86453,0 1.64547,-0.11906 1.7354,-0.26458 z"
       style="fill:#2b1e17;fill-opacity:1;stroke-width:0.264583"
       id="path1" />
  </g>
</svg>

