<?xml version="1.0" encoding="UTF-8" standalone="no"?>
<!-- Created with Inkscape (http://www.inkscape.org/) -->

<svg
   width="24"
   height="24"
   viewBox="0 0 48.000003 48"
   version="1.1"
   id="svg1"
   inkscape:version="1.4.2 (f4327f4, 2025-05-13)"
   sodipodi:docname="rolling_cart_frame.svg"
   xmlns:inkscape="http://www.inkscape.org/namespaces/inkscape"
   xmlns:sodipodi="http://sodipodi.sourceforge.net/DTD/sodipodi-0.dtd"
   xmlns="http://www.w3.org/2000/svg"
   xmlns:svg="http://www.w3.org/2000/svg">
  <sodipodi:namedview
     id="namedview1"
     pagecolor="#ffffff"
     bordercolor="#000000"
     borderopacity="0.25"
     inkscape:showpageshadow="2"
     inkscape:pageopacity="0.0"
     inkscape:pagecheckerboard="0"
     inkscape:deskcolor="#d1d1d1"
     inkscape:document-units="mm"
     inkscape:zoom="15.581903"
     inkscape:cx="13.509261"
     inkscape:cy="10.364587"
     inkscape:window-width="1920"
     inkscape:window-height="991"
     inkscape:window-x="-9"
     inkscape:window-y="-9"
     inkscape:window-maximized="1"
     inkscape:current-layer="layer1" />
  <defs
     id="defs1" />
  <g
     inkscape:label="Ebene 1"
     inkscape:groupmode="layer"
     id="layer1"
     transform="translate(-50.090697,-113.58214)">
    <path
       d="m 68.01861,153.50682 c -0.756028,-0.59468 -0.89848,-1.49146 -0.388336,-2.44467 0.491881,-0.91909 0.48818,-2.05044 -0.0073,-2.23231 -0.238588,-0.0876 -1.604169,-0.80349 -3.034623,-1.59093 -2.496433,-1.37425 -3.368831,-1.62912 -2.457754,-0.71804 1.031436,1.03143 0.11842,3.03641 -1.382702,3.03641 -1.142222,0 -1.733873,-0.80976 -1.489601,-2.03872 0.109754,-0.55219 0.244255,-4.99259 0.298889,-9.86753 0.108572,-9.68802 0.103889,-9.66137 1.64533,-9.36519 0.569224,0.10937 4.471426,-0.73115 16.106978,-3.46938 0.40435,-0.0952 0.595313,-0.33544 0.595313,-0.74907 0,-0.96876 1.385602,-3.44235 2.168689,-3.87157 0.853017,-0.46754 1.827308,-0.18678 6.293591,1.81361 3.598772,1.61185 3.80152,1.92444 2.827043,4.35863 l -0.705987,1.76353 v 8.77583 c 0,6.14888 0.0948,9.03798 0.316682,9.6516 0.660445,1.82643 -0.806288,3.33422 -2.385213,2.45201 -0.890265,-0.49744 -1.063456,-1.64557 -0.42671,-2.82877 0.254982,-0.47381 0.396277,-0.92881 0.313987,-1.0111 -0.08229,-0.0823 -3.226811,0.64814 -6.987829,1.62318 -3.761015,0.97504 -7.355837,1.88864 -7.98849,2.03022 -1.145953,0.25644 -1.149649,0.26105 -0.982035,1.22267 0.487381,2.7962 0.484679,2.86179 -0.141912,3.44556 -0.758331,0.7065 -1.303253,0.70999 -2.188007,0.014 z m 1.960822,-0.79719 c 0.162431,-0.30353 0.228952,-0.61823 0.147828,-0.69935 -0.08113,-0.0811 -0.222573,0.0482 -0.314327,0.28726 -0.275133,0.71697 -1.168546,0.54364 -1.168546,-0.22672 0,-0.3638 -0.119062,-0.66146 -0.264583,-0.66146 -0.370652,0 -0.330973,1.1507 0.05292,1.53458 0.488276,0.48827 1.219256,0.37754 1.546712,-0.23431 z m -0.01213,-1.27196 c 0,-0.12996 -0.178594,-0.3048 -0.396875,-0.38857 -0.241753,-0.0928 -0.396875,0 -0.396875,0.23628 0,0.2137 0.178593,0.38856 0.396875,0.38856 0.218281,0 0.396875,-0.10633 0.396875,-0.23627 z m -0.529167,-9.6856 c 0,-7.46713 -0.05224,-8.59896 -0.396875,-8.59896 -0.344636,0 -0.396875,1.13183 -0.396875,8.59896 0,7.46713 0.05224,8.59896 0.396875,8.59896 0.344636,0 0.396875,-1.13183 0.396875,-8.59896 z m -8.088691,6.86027 c 0.527736,-0.52774 0.544486,-0.81418 0.02228,-0.38078 -0.570664,0.47362 -1.142571,0.14728 -1.242848,-0.70918 -0.07918,-0.67626 -0.102103,-0.69113 -0.254421,-0.16503 -0.166846,0.57629 0.375909,1.67076 0.828548,1.67076 0.126873,0 0.41778,-0.1871 0.646454,-0.41577 z m 26.827247,-0.90715 0.41066,-0.66145 -0.60161,0.60875 c -0.675275,0.6833 -1.230119,0.46532 -1.430065,-0.56182 -0.08117,-0.41698 -0.122097,-0.35078 -0.148177,0.2397 -0.01982,0.44869 0.04837,0.90019 0.151519,1.00335 0.359071,0.35907 1.209733,0.0286 1.617673,-0.62853 z m -20.064685,0.0662 c -0.0021,-0.32229 -0.939257,-0.94554 -3.082853,-2.05052 -3.771355,-1.94407 -3.598627,-1.87849 -3.48764,-1.32418 0.0753,0.37607 5.656424,3.71192 6.375268,3.8105 0.10914,0.015 0.196993,-0.18114 0.195225,-0.4358 z m 10.374413,-1.52135 c 4.245399,-1.09141 7.75629,-1.98438 7.801978,-1.98438 0.04569,0 0.08307,-0.17859 0.08307,-0.39687 0,-0.21829 -0.08077,-0.39688 -0.179491,-0.39688 -0.328517,0 -15.758673,3.97656 -15.993639,4.12177 -0.373215,0.23066 -0.265011,0.64073 0.169067,0.64073 0.220059,0 3.873613,-0.89297 8.119015,-1.98437 z m -17.172926,0.66443 c -0.07568,-0.28941 -0.243129,-0.46097 -0.372105,-0.38126 -0.373801,0.23102 -0.27123,0.90745 0.137602,0.90745 0.241141,0 0.323675,-0.1852 0.234503,-0.52619 z m 26.380892,-0.28318 c 0,-0.29963 -0.119063,-0.47119 -0.264584,-0.38125 -0.14552,0.0899 -0.264583,0.33508 -0.264583,0.54478 0,0.20969 0.119063,0.38126 0.264583,0.38126 0.145521,0 0.264584,-0.24516 0.264584,-0.54479 z m -10.666786,-1.59867 c 3.465637,-0.88785 6.450005,-1.69627 6.631924,-1.79647 0.198348,-0.10925 -0.706659,-0.69262 -2.26065,-1.45722 l -2.591411,-1.27503 -4.420079,1.12577 -4.420081,1.12577 v 1.94574 c 0,1.51372 0.08427,1.94573 0.379568,1.94573 0.208762,0 3.21509,-0.72643 6.680729,-1.61429 z m -8.912381,-0.23779 c 0,-0.87313 -0.07211,-1.5875 -0.160247,-1.5875 -0.217702,0 -3.313584,0.7806 -3.808503,0.96028 -0.25043,0.0909 0.335349,0.52128 1.5875,1.16631 1.091407,0.56222 2.073672,1.02811 2.182813,1.03531 0.10914,0.007 0.198437,-0.70128 0.198437,-1.5744 z m -6.976345,0.65755 c -0.08459,-0.22042 -0.163412,-3.97089 -0.17517,-8.33437 -0.0129,-4.78933 -0.120462,-7.9336 -0.271388,-7.9336 -0.15167,0 -0.250013,3.27835 -0.250013,8.33438 0,7.47855 0.04366,8.33437 0.425183,8.33437 0.271076,0 0.36944,-0.14526 0.271388,-0.40078 z m 26.555512,-8.61607 v -8.75227 l 0.697714,-1.74401 c 0.500441,-1.25091 0.624295,-1.86214 0.438044,-2.1618 -0.389456,-0.62659 -6.949466,-3.45355 -7.856474,-3.38565 -0.929574,0.0696 -1.620737,0.92453 -2.138664,2.64547 -0.327305,1.08755 -0.32621,1.24844 0.0085,1.24844 0.220771,0 0.386072,-0.25324 0.388573,-0.59531 0.0059,-0.81003 1.101174,-2.68834 1.626581,-2.78953 0.419952,-0.0809 6.988186,2.63771 7.42274,3.07227 0.122989,0.12299 -0.07667,0.86871 -0.443696,1.65715 l -0.667308,1.43355 -0.0026,9.06198 c -0.0016,5.86665 0.09071,9.06198 0.261999,9.06198 0.171055,0 0.264583,-3.09382 0.264583,-8.75227 z m -22.1107,6.28617 c 1.299792,-0.33053 2.416003,-0.75919 2.480469,-0.95258 0.07126,-0.2138 -0.0254,-0.29701 -0.246592,-0.21227 -0.200091,0.0767 -1.46513,0.41262 -2.811198,0.74661 -1.346067,0.33398 -2.447396,0.70287 -2.447396,0.81975 0,0.31584 0.426294,0.25925 3.024717,-0.40151 z m 2.472812,-5.24162 0.07357,-3.27575 -3.053048,-1.51973 c -1.679176,-0.83584 -3.111265,-1.51972 -3.182422,-1.51972 -0.07116,0 -0.129376,2.53951 -0.129376,5.64334 v 5.64335 l 3.108855,-0.84787 3.108854,-0.84787 z m 17.521221,4.84907 c 0,-0.27131 -6.380982,-3.28398 -6.565273,-3.09969 -0.198543,0.19854 -0.193661,0.2015 2.993398,1.81333 2.87038,1.45166 3.571875,1.7043 3.571875,1.28636 z m 0.79375,-6.28731 c 0,-5.31048 -0.03212,-5.69686 -0.463021,-5.56925 -0.4675,0.13845 -4.079393,1.02445 -5.423958,1.3305 l -0.727604,0.16562 5.29e-4,3.23611 5.29e-4,3.2361 3.108315,1.61513 c 1.709573,0.88832 3.197611,1.63246 3.306751,1.65364 0.109141,0.0212 0.198438,-2.52934 0.198438,-5.66785 z m -11.826645,4.49807 c 3.277677,-0.82336 4.965237,-1.43753 3.949878,-1.43753 -0.697103,0 -8.140068,1.88809 -8.37701,2.12503 -0.44405,0.44405 0.516165,0.29493 4.427132,-0.6875 z m -0.211896,-1.26222 3.439583,-0.86898 0.07481,-2.96046 c 0.04115,-1.62825 0.02194,-2.96045 -0.04269,-2.96045 -0.15803,0 -5.597864,1.27915 -6.845144,1.60961 l -0.992187,0.26287 v 2.90021 c 0,2.5884 0.04978,2.89947 0.46302,2.89321 0.254662,-0.004 2.010834,-0.39806 3.902605,-0.87601 z m 4.894791,-4.01177 c 0,-1.85208 -0.103531,-3.04271 -0.264583,-3.04271 -0.161052,0 -0.264583,1.19063 -0.264583,3.04271 0,1.85209 0.103531,3.04271 0.264583,3.04271 0.161052,0 0.264583,-1.19062 0.264583,-3.04271 z m -0.926041,-3.68371 c 6.341504,-1.54889 7.95569,-2.0303 8.027966,-2.39419 0.06639,-0.33426 -0.03924,-0.41785 -0.396875,-0.31406 -0.268039,0.0778 -3.523435,0.86677 -7.234216,1.7533 -8.838086,2.11147 -8.73125,2.08049 -8.73125,2.53219 0,0.21267 0.0893,0.38101 0.198437,0.37408 0.109141,-0.007 3.770313,-0.88502 8.135938,-1.95132 z m -10.186459,1.3045 c 0,-0.23967 -1.246105,-1.01949 -3.17093,-1.98437 -1.744015,-0.87425 -3.232296,-1.58954 -3.307292,-1.58954 -0.075,0 -0.136361,0.17762 -0.136361,0.39472 0,0.23809 1.233591,1.02005 3.108854,1.97065 1.70987,0.86677 3.198151,1.58211 3.307292,1.58966 0.10914,0.008 0.198437,-0.16396 0.198437,-0.38112 z m 9.525,-2.76865 6.217708,-1.53265 -2.627095,-1.23714 -2.627098,-1.23715 -6.897902,1.57933 c -3.793847,0.86863 -7.136029,1.62568 -7.427071,1.68233 -0.708578,0.13791 3.038351,2.08332 4.497917,2.33532 1.386115,0.23932 1.591778,0.20242 8.863541,-1.59004 z m -7.230102,-2.7951 c 8.093168,-1.8965 8.172786,-1.91817 7.932182,-2.15878 -0.234778,-0.23477 -16.036078,3.42455 -15.879749,3.67749 0.18946,0.30655 0.02109,0.33873 7.947567,-1.51871 z m 15.022081,0.7008 c -0.491244,-0.45089 -6.479016,-3.02254 -6.646846,-2.85471 -0.21676,0.21676 5.689729,3.06352 6.382263,3.07607 0.308904,0.006 0.415076,-0.0832 0.264583,-0.22136 z m 1.523685,-2.05086 c 0.277956,-0.82334 0.409001,-1.59224 0.291211,-1.70867 -0.276484,-0.2733 -5.781656,-2.62435 -6.145109,-2.62435 -0.320193,0 -1.345099,1.9036 -1.345099,2.49831 0,0.24711 0.835922,0.78483 2.163342,1.39161 1.189839,0.54389 2.648354,1.24915 3.241145,1.56724 0.592791,0.3181 1.125353,0.53211 1.183468,0.47559 0.05812,-0.0565 0.333087,-0.7764 0.611042,-1.59973 z"
       style="fill:#28220b;stroke-width:0.264583"
       id="path1" />
  </g>
</svg>
