<?xml version="1.0" encoding="UTF-8" standalone="no"?>
<!-- Created with Inkscape (http://www.inkscape.org/) -->

<svg
   width="24mm"
   height="24mm"
   viewBox="0 0 24 24"
   version="1.1"
   id="svg1"
   inkscape:version="1.4.2 (f4327f4, 2025-05-13)"
   sodipodi:docname="router.svg"
   xmlns:inkscape="http://www.inkscape.org/namespaces/inkscape"
   xmlns:sodipodi="http://sodipodi.sourceforge.net/DTD/sodipodi-0.dtd"
   xmlns="http://www.w3.org/2000/svg"
   xmlns:svg="http://www.w3.org/2000/svg">
  <sodipodi:namedview
     id="namedview1"
     pagecolor="#ffffff"
     bordercolor="#000000"
     borderopacity="0.25"
     inkscape:showpageshadow="2"
     inkscape:pageopacity="0.0"
     inkscape:pagecheckerboard="0"
     inkscape:deskcolor="#d1d1d1"
     inkscape:document-units="mm"
     inkscape:zoom="0.68862935"
     inkscape:cx="39.9344"
     inkscape:cy="48.64736"
     inkscape:window-width="24mm"
     inkscape:window-height="24mm"
     inkscape:window-x="-9"
     inkscape:window-y="-9"
     inkscape:window-maximized="1"
     inkscape:current-layer="layer1" />
  <defs
     id="defs1" />
  <g
     inkscape:label="Ebene 1"
     inkscape:groupmode="layer"
     id="layer1"
      transform="translate(2.057582 0) scale(0.946018) translate(-94.45625,-135.76176)">
    <path
       d="m 96.096667,160.81375 c -0.46676,-0.46676 -0.386493,-1.72685 0.14552,-2.28452 1.007581,-1.05619 1.12448,-1.58298 1.12448,-5.06731 0,-1.89374 -0.106157,-3.44317 -0.2359,-3.44317 -0.129747,0 -0.306795,-0.28246 -0.393444,-0.6277 -0.10846,-0.43215 -0.407257,-0.67764 -0.95909,-0.78801 -0.992037,-0.19841 -1.321983,-0.96768 -1.321983,-3.08221 0,-1.85974 0.307255,-2.77303 1.070311,-3.18141 0.748133,-0.40039 1.762879,-0.12456 1.972593,0.53619 0.134451,0.42362 0.400582,0.52856 1.340551,0.52856 h 1.172795 v -2.38975 c 0,-4.16993 0.76022,-5.05961 4.46532,-5.22567 4.44661,-0.1993 5.32315,0.62981 5.32385,5.03573 l 4.1e-4,2.57969 h 1.09414 c 0.83819,0 1.24314,-0.16078 1.73111,-0.6873 0.50244,-0.54215 0.78825,-0.65023 1.35326,-0.51176 1.31143,0.3214 1.51143,0.75361 1.49419,3.22912 -0.0142,2.0455 -0.0774,2.32555 -0.62463,2.76864 -0.33482,0.27113 -0.83371,0.49296 -1.10863,0.49296 -0.30495,0 -0.49985,0.1857 -0.49985,0.47625 0,0.26194 -0.11283,0.58936 -0.25072,0.72761 -0.27466,0.27535 -0.43719,6.92768 -0.17565,7.18922 0.089,0.089 0.16178,0.36637 0.16178,0.61642 0,0.25005 0.29766,0.64968 0.66146,0.88805 0.70066,0.45909 0.83904,1.18251 0.38757,2.0261 -0.26224,0.48999 -0.6429,0.51177 -8.94292,0.51177 -6.389797,0 -8.752499,-0.0835 -8.986523,-0.3175 z m 17.230753,-0.84726 c 0.0783,-0.20405 0.0712,-0.44218 -0.0158,-0.52916 -0.087,-0.087 -3.88877,-0.15816 -8.44843,-0.15816 -6.732171,0 -8.290273,0.0663 -8.290273,0.35277 0,0.19403 0.07937,0.43216 0.176389,0.52917 0.09701,0.097 3.834744,0.17639 8.306064,0.17639 6.73039,0 8.15419,-0.0639 8.27205,-0.37101 z m -3.57849,-2.35976 c 0.39186,-1.08367 0.43742,-7.58798 0.0532,-7.58798 -0.14552,0 -0.26458,0.45848 -0.26458,1.01885 0,1.41068 -0.46479,2.60676 -1.07498,2.76633 -0.33641,0.088 -0.51252,0.36378 -0.51252,0.80268 0,0.53276 -0.14788,0.68567 -0.7276,0.75238 -0.60193,0.0693 -0.73483,0.22082 -0.76944,0.87747 -0.023,0.43656 -0.0528,0.92933 -0.0662,1.09503 -0.0352,0.43612 -1.77382,0.69827 -2.40185,0.36216 -0.37214,-0.19916 -0.53288,-0.55391 -0.53288,-1.17604 0,-0.75195 -0.12375,-0.93399 -0.79375,-1.16755 -0.6023,-0.20996 -0.79375,-0.43955 -0.79375,-0.95192 0,-0.4166 -0.14844,-0.67522 -0.38756,-0.67522 -0.53164,0 -0.93535,-0.83965 -0.93535,-1.94535 0,-1.06646 -0.21945,-1.75882 -0.557478,-1.75882 -0.422463,0 -0.281638,6.44139 0.164148,7.50831 l 0.40043,0.95836 h 4.44121 4.44122 z m -10.397888,0.34952 c -0.08994,-0.14552 -0.447125,-0.26458 -0.79375,-0.26458 -0.346626,0 -0.703813,0.11906 -0.79375,0.26458 -0.0975,0.15776 0.222943,0.26458 0.79375,0.26458 0.570806,0 0.891254,-0.10682 0.79375,-0.26458 z m 12.832288,0 c 0,-0.14552 -0.35016,-0.26458 -0.77813,-0.26458 -0.42798,0 -0.85172,0.11906 -0.94166,0.26458 -0.0973,0.15746 0.21774,0.26458 0.77814,0.26458 0.51791,0 0.94165,-0.11906 0.94165,-0.26458 z m -13.229163,-4.49792 c 0,-2.88102 -0.06445,-3.43958 -0.396875,-3.43958 -0.332426,0 -0.396875,0.55856 -0.396875,3.43958 0,2.88102 0.06445,3.43959 0.396875,3.43959 0.332425,0 0.396875,-0.55857 0.396875,-3.43959 z m 6.614583,2.77813 c 0,-0.52917 -0.13229,-0.66146 -0.66146,-0.66146 -0.52917,0 -0.66146,0.13229 -0.66146,0.66146 0,0.52916 0.13229,0.66146 0.66146,0.66146 0.52917,0 0.66146,-0.1323 0.66146,-0.66146 z m 6.08542,-2.77813 c 0,-2.88102 -0.0644,-3.43958 -0.39688,-3.43958 -0.33242,0 -0.39687,0.55856 -0.39687,3.43958 0,2.88102 0.0644,3.43959 0.39687,3.43959 0.33243,0 0.39688,-0.55857 0.39688,-3.43959 z m -4.36563,0.66146 c 0,-0.37175 -4.1096,-0.49415 -4.4706,-0.13314 -0.20691,0.2069 -0.20289,0.33999 0.0143,0.47489 0.44418,0.27583 4.45627,-0.0319 4.45627,-0.34175 z m 1.2963,-2.28588 c 0.4366,-1.76679 0.33882,-1.81516 -3.66925,-1.81516 h -3.58017 v 1.27882 c 0,0.70335 0.0828,1.36158 0.18391,1.46273 0.10114,0.10115 1.67872,0.15075 3.50572,0.11024 l 3.32182,-0.0737 z m -8.49176,-2.80735 c 0.0615,-0.10914 0.0536,-1.24023 -0.0176,-2.51354 l -0.129368,-2.3151 h -1.289738 c -0.991743,0 -1.289737,0.0953 -1.289737,0.41249 0,0.22687 -0.119063,0.3389 -0.264584,0.24896 -0.145521,-0.0899 -0.264583,-0.50665 -0.264583,-0.92604 0,-1.01813 -0.386509,-1.20099 -1.077661,-0.50984 -0.491593,0.4916 -0.553191,0.79714 -0.458978,2.27672 0.104857,1.64673 0.393012,2.18718 1.171823,2.19782 0.163153,0.002 0.388721,-0.62103 0.501261,-1.38501 l 0.204619,-1.38906 0.234952,1.19062 c 0.129225,0.65485 0.177337,1.50399 0.106916,1.88699 -0.07042,0.38301 -0.05445,0.76996 0.03549,0.8599 0.232989,0.23299 2.403038,0.20313 2.537158,-0.0349 z m -1.242897,-1.01383 c -0.08833,-0.23018 -0.157951,-0.61713 -0.154715,-0.85989 0.0045,-0.33933 0.125507,-0.28845 0.523282,0.22008 0.28457,0.3638 0.520046,0.75075 0.523282,0.85989 0.01125,0.37933 -0.732239,0.19586 -0.891849,-0.22008 z m 9.997547,0.79375 c 0.0883,-0.23018 0.1606,-1.4208 0.1606,-2.64583 0,-1.93318 -0.0611,-2.23137 -0.46302,-2.25801 -0.44097,-0.0292 -0.44097,-0.0365 0,-0.15169 0.39352,-0.10284 0.4628,-0.44576 0.46155,-2.28441 -0.002,-2.54673 -0.3572,-4.03793 -1.05104,-4.40926 -0.74462,-0.39851 -0.79567,-0.35469 -0.84405,0.72449 l -0.0445,0.99219 -0.10378,-0.99219 c -0.0805,-0.76983 -0.2188,-0.99219 -0.61698,-0.99219 -0.41457,0 -0.5132,0.18645 -0.5132,0.97014 0,1.12574 -0.24871,1.02172 -0.50049,-0.20933 -0.26523,-1.29685 -0.82242,-1.28948 -0.82242,0.0109 0,0.59421 -0.11907,1.08039 -0.26459,1.08039 -0.14552,0 -0.26458,-0.48618 -0.26458,-1.08039 0,-1.38168 -0.62581,-1.28562 -0.74391,0.11419 -0.0968,1.1474 -0.57901,1.03929 -0.57901,-0.1298 0,-0.92743 -0.39732,-0.9078 -1.10046,0.0543 -0.32811,0.44898 -0.52489,1.38241 -0.64799,3.07382 l -0.17678,2.42904 0.89647,0.55027 0.89647,0.55027 -0.85989,-0.16811 -0.8599,-0.16811 v 2.50251 c 0,1.37639 0.0794,2.5819 0.17639,2.67891 0.097,0.097 1.87021,0.17639 3.94044,0.17639 3.18825,0 3.78862,-0.064 3.92465,-0.41852 z m -6.01301,-1.87454 c -0.097,-0.097 -0.17639,-0.51373 -0.17639,-0.92604 v -0.74965 h 2.38629 2.38629 l -0.17391,0.7276 c -0.0957,0.40019 -0.22401,0.8169 -0.28524,0.92604 -0.13768,0.24542 -3.89366,0.26543 -4.13704,0.022 z m 3.72736,-0.8158 c 0.0799,-0.24213 -0.35747,-0.33072 -1.63274,-0.33072 -1.61852,0 -2.02023,0.16258 -1.55391,0.6289 0.31861,0.31861 3.06806,0.0613 3.18665,-0.29818 z m 5.88584,0.62363 c 0,-2.75712 -0.0842,-2.88832 -1.68658,-2.62828 l -0.92333,0.14983 -0.0841,2.37278 c -0.0463,1.30503 -0.0345,2.42186 0.0261,2.48184 0.0606,0.06 0.68571,0.10906 1.38906,0.10906 h 1.27882 z m -2.07767,1.05009 c 0.38207,-0.83855 0.82185,-0.89386 0.70701,-0.0889 -0.0465,0.32594 -0.29447,0.63262 -0.55104,0.68153 -0.40983,0.0781 -0.42877,0.006 -0.15597,-0.59261 z m 3.90944,-0.26018 c 0.19162,-0.23089 0.27934,-1.1106 0.23083,-2.3151 -0.075,-1.86341 -0.10586,-1.94592 -0.75525,-2.02154 -0.67243,-0.0783 -0.67745,-0.0644 -0.7403,2.05523 -0.0348,1.17375 0.009,2.25102 0.0973,2.39395 0.23176,0.37499 0.80897,0.31934 1.1674,-0.11254 z"
       style="fill:#2b1e17;fill-opacity:1;stroke-width:0.264583"
       id="path1" />
  </g>
</svg>


