<?xml version="1.0" encoding="UTF-8" standalone="no"?>
<!-- Created with Inkscape (http://www.inkscape.org/) -->

<svg
   width="25.889988mm"
   height="24.701258mm"
   viewBox="0 0 25.889988 24.701258"
   version="1.1"
   id="svg1"
   inkscape:version="1.4.2 (f4327f4, 2025-05-13)"
   sodipodi:docname="router_table.svg"
   xmlns:inkscape="http://www.inkscape.org/namespaces/inkscape"
   xmlns:sodipodi="http://sodipodi.sourceforge.net/DTD/sodipodi-0.dtd"
   xmlns="http://www.w3.org/2000/svg"
   xmlns:svg="http://www.w3.org/2000/svg">
  <sodipodi:namedview
     id="namedview1"
     pagecolor="#ffffff"
     bordercolor="#000000"
     borderopacity="0.25"
     inkscape:showpageshadow="2"
     inkscape:pageopacity="0.0"
     inkscape:pagecheckerboard="0"
     inkscape:deskcolor="#d1d1d1"
     inkscape:document-units="mm"
     inkscape:zoom="0.68862935"
     inkscape:cx="48.64736"
     inkscape:cy="45.74304"
     inkscape:window-width="1920"
     inkscape:window-height="991"
     inkscape:window-x="-9"
     inkscape:window-y="-9"
     inkscape:window-maximized="1"
     inkscape:current-layer="layer1" />
  <defs
     id="defs1" />
  <g
     inkscape:label="Ebene 1"
     inkscape:groupmode="layer"
     id="layer1"
     transform="translate(-92.075005,-136.26042)">
    <path
       d="m 113.3296,160.65222 c -0.3482,-0.3482 -0.39176,-1.10624 -0.29071,-5.0585 0.0654,-2.55691 0.0737,-3.60714 0.0186,-2.33383 l -0.10026,2.31511 h -1.03058 c -1.25116,0 -1.39467,-0.31376 -1.30155,-2.84542 l 0.0656,-1.78479 -1.56881,-0.0733 c -1.48188,-0.0692 -1.58714,-0.0333 -1.89954,0.64806 -0.1819,0.39676 -0.33073,1.11016 -0.33073,1.58535 0,0.58341 -0.1662,0.95293 -0.51178,1.13788 -0.7561,0.40465 -2.19693,0.3327 -2.87704,-0.14366 -0.49365,-0.34577 -0.56695,-0.57323 -0.4263,-1.32292 0.10525,-0.56104 0.0648,-0.90536 -0.10636,-0.90536 -0.15191,0 -0.35177,-0.23813 -0.44415,-0.52917 -0.1408,-0.44362 -0.40032,-0.52916 -1.60533,-0.52916 h -1.437378 l -0.004,2.05052 c -0.0049,2.50543 -0.167127,2.81166 -1.412055,2.66632 l -0.947828,-0.11065 -0.0748,2.65784 -0.07481,2.65784 h -1.322917 -1.322916 l -0.07198,-4.96094 -0.07198,-4.96093 h -0.891897 c -0.917731,0 -1.213094,-0.33376 -1.213094,-1.37079 0,-0.29356 0.654844,-1.64642 1.455209,-3.00636 1.283298,-2.18051 1.455208,-2.64291 1.455208,-3.91422 0,-1.70697 0.08449,-1.7628 2.667474,-1.7628 h 1.830443 v -0.921 c 0,-0.76624 0.113223,-0.94942 0.673781,-1.09011 0.87106,-0.21862 1.0477,-0.0146 0.95174,1.09926 -0.0758,0.88029 -0.0466,0.91185 0.84518,0.91185 h 0.92374 l 0.18667,-1.99209 c 0.20958,-2.23656 0.4427,-2.50583 2.16941,-2.50583 1.43963,0 1.65781,0.33778 1.65781,2.56646 v 1.93146 h 1.05834 1.05833 V 139.7 c 0,-0.84275 0.097,-1.05834 0.47625,-1.05834 0.68725,0 1.11125,0.52496 1.11125,1.37584 v 0.74083 l 1.91823,0.004 c 1.05503,0.002 2.07036,0.10059 2.2563,0.21859 0.18991,0.12051 0.36891,0.84508 0.40843,1.6532 0.0579,1.18326 0.3182,1.86809 1.46647,3.85771 1.0723,1.85797 1.37647,2.62424 1.31137,3.30369 -0.0751,0.78361 -0.18295,0.8941 -0.94465,0.96754 l -0.8599,0.0829 -0.004,4.67959 c -0.002,2.57378 -0.095,4.82272 -0.20622,4.99766 -0.32567,0.51235 -2.13928,0.60187 -2.61221,0.12894 z m -17.021268,-5.0948 v -4.78007 l -0.727604,0.0837 -0.727605,0.0837 -0.07297,4.35547 c -0.04013,2.3955 -0.0141,4.50886 0.05784,4.69635 0.07195,0.18749 0.432202,0.34089 0.800574,0.34089 h 0.669761 z m 19.049998,0.0176 v -4.7625 h -0.79375 -0.79375 v 4.7625 4.7625 h 0.79375 0.79375 z m -16.668748,-2.79374 c 0,-1.7184 -0.06048,-1.96876 -0.47556,-1.96876 -0.420206,0 -0.464386,0.20788 -0.379558,1.78593 0.112549,2.0937 0.226065,2.54036 0.588666,2.31626 0.146548,-0.0906 0.266452,-1.05062 0.266452,-2.13343 z m 13.758328,0.0156 c 0,-1.80799 -0.047,-1.98438 -0.52916,-1.98438 -0.48213,0 -0.52917,0.17639 -0.52917,1.98438 0,1.80798 0.047,1.98437 0.52917,1.98437 0.48213,0 0.52916,-0.17639 0.52916,-1.98437 z m -6.13316,0.16963 c 0.0771,-0.51643 -0.0356,-0.5665 -1.27517,-0.5665 -1.25173,0 -1.353,0.0464 -1.27517,0.58446 0.16219,1.12117 2.38267,1.10554 2.55034,-0.018 z m 0.18004,-1.62484 c 0.47474,-0.52458 0.46213,-0.52916 -1.45521,-0.52916 -1.91734,0 -1.92995,0.005 -1.45521,0.52916 0.31407,0.34705 0.81491,0.52917 1.45521,0.52917 0.6403,0 1.14114,-0.18212 1.45521,-0.52917 z m 2.97656,-1.2887 c 6.68757,-0.0296 7.73906,-0.0881 7.73906,-0.43109 0,-0.34702 -1.5287,-0.39687 -12.17083,-0.39687 -10.492244,0 -12.170832,0.0533 -12.170832,0.38617 0,0.41515 2.051963,0.57272 6.614584,0.50794 1.236928,-0.0176 5.731538,-0.0473 9.988018,-0.0661 z m 7.43038,-1.57122 c -0.0485,-0.11775 -0.55941,-1.01071 -1.13535,-1.98437 l -1.04716,-1.77029 h -2.59086 c -1.42498,0 -2.59086,0.0446 -2.59086,0.099 0,0.0545 0.18194,0.61471 0.40432,1.24499 0.22237,0.63028 0.34517,1.30009 0.27288,1.48847 -0.10116,0.26364 -1.28739,0.34251 -5.1512,0.34251 -2.76087,0 -5.084802,-0.10522 -5.16428,-0.23382 -0.07948,-0.1286 0.03127,-0.81321 0.2461,-1.52135 0.21484,-0.70815 0.39191,-1.3173 0.39348,-1.35368 0.002,-0.0364 -1.157994,-0.0654 -2.576823,-0.0645 -2.5353,0.002 -2.586791,0.0142 -2.992614,0.72761 -0.227111,0.39926 -0.74444,1.29147 -1.14962,1.9827 l -0.736693,1.25677 h 11.95344 c 6.57439,0 11.91375,-0.0963 11.86524,-0.21409 z m -8.20208,-1.39214 c 0.0485,-0.13522 0.20436,-0.24585 0.34634,-0.24585 0.14199,0 0.18457,0.11906 0.0946,0.26458 -0.0899,0.14552 0.0221,0.26458 0.24897,0.26458 0.22687,0 0.41068,-0.0298 0.40848,-0.0661 -0.002,-0.0364 -0.16372,-0.60193 -0.35891,-1.25677 l -0.35488,-1.19063 -1.62548,-0.0788 c -1.00673,-0.0488 -1.62547,0.0268 -1.62547,0.19844 0,0.15246 0.16402,0.27721 0.36448,0.27721 0.20046,0 0.5127,0.17859 0.69385,0.39687 0.26279,0.31663 0.26279,0.47712 0,0.79375 -0.45271,0.54549 -3.24933,0.54804 -3.70137,0.003 -0.43739,-0.52702 -0.14801,-1.19398 0.51807,-1.19398 0.29561,0 0.53747,-0.11907 0.53747,-0.26459 0,-0.14652 -0.69726,-0.26458 -1.56263,-0.26458 h -1.56263 l -0.4227,1.24056 c -0.23713,0.69595 -0.3178,1.30576 -0.18375,1.38907 0.39877,0.24782 8.09085,-0.003 8.18553,-0.26711 z m -7.76111,0.0187 c -0.0899,-0.14552 -0.0374,-0.26458 0.11668,-0.26458 0.15411,0 0.28019,0.11906 0.28019,0.26458 0,0.14552 -0.0525,0.26458 -0.11667,0.26458 -0.0642,0 -0.19026,-0.11906 -0.2802,-0.26458 z m 5.21251,-0.82219 c 0.41389,-0.2215 0.46375,-0.3448 0.20428,-0.50516 -0.20129,-0.1244 -0.49743,-0.0579 -0.7161,0.16074 -0.48178,0.48177 -0.7293,0.46999 -1.25922,-0.0599 -0.33198,-0.33199 -0.50533,-0.36023 -0.74429,-0.12128 -0.68826,0.68826 1.39716,1.12405 2.51533,0.52562 z m -1.08214,-2.03069 c -0.10907,-1.78922 -0.29391,-1.74221 -0.29391,0.0747 0,0.84888 0.0832,1.46016 0.18499,1.35841 0.10175,-0.10175 0.15076,-0.74667 0.10892,-1.43316 z m -0.77291,-1.04972 c 0.0655,-0.79181 0.20047,-1.00902 0.66808,-1.07551 0.43225,-0.0615 0.62741,0.0818 0.74397,0.54622 0.0869,0.34625 0.12088,0.80046 0.0755,1.00936 -0.0687,0.316 0.66223,0.39201 4.34926,0.45236 l 4.43177,0.0726 v -1.33266 -1.33265 l -9.45885,0.0695 -9.458857,0.0695 -0.08479,0.88509 c -0.157753,1.64674 -0.207457,1.62845 4.426138,1.62845 h 4.225669 z m -3.75434,-3.10886 c 0,-0.3638 -0.11906,-0.66146 -0.26458,-0.66146 -0.14552,0 -0.26458,0.29766 -0.26458,0.66146 0,0.3638 0.11906,0.66146 0.26458,0.66146 0.14552,0 0.26458,-0.29766 0.26458,-0.66146 z m 5.82084,0.26458 c 0,-0.2987 -0.32023,-0.39687 -1.29461,-0.39687 -0.90669,0 -1.34024,0.11892 -1.44691,0.39687 -0.12393,0.32297 0.11718,0.39688 1.29461,0.39688 1.10975,0 1.44691,-0.0925 1.44691,-0.39688 z m 3.70416,-0.26458 c 0,-0.3638 -0.11906,-0.66146 -0.26458,-0.66146 -0.14552,0 -0.26458,0.29766 -0.26458,0.66146 0,0.3638 0.11906,0.66146 0.26458,0.66146 0.14552,0 0.26458,-0.29766 0.26458,-0.66146 z m -3.76894,-0.7276 c -0.0609,-0.18485 -0.65412,-0.3663 -1.34497,-0.41137 -0.97629,-0.0637 -1.23609,0.006 -1.23609,0.33072 0,0.31816 0.30477,0.41138 1.34497,0.41138 0.95765,0 1.31361,-0.0952 1.23609,-0.33073 z m 0.0648,-0.99219 c 0,-0.14552 -0.52876,-0.26458 -1.17501,-0.26458 -0.64626,0 -1.2486,0.11906 -1.33853,0.26458 -0.10079,0.16307 0.35003,0.26458 1.17501,0.26458 0.73619,0 1.33853,-0.11906 1.33853,-0.26458 z m -0.13299,-0.79263 c 0.29945,-0.48452 -1.11001,-0.91622 -1.86631,-0.57163 -0.91588,0.4173 -0.57749,0.83509 0.67638,0.83509 0.56491,0 1.10038,-0.11855 1.18993,-0.26346 z"
       style="fill:#2b1e17;fill-opacity:1;stroke-width:0.264583"
       id="path1" />
  </g>
</svg>
