<?xml version="1.0" encoding="UTF-8" standalone="no"?>
<!-- Created with Inkscape (http://www.inkscape.org/) -->

<svg
   width="24mm"
   height="24mm"
   viewBox="0 0 24 24"
   version="1.1"
   id="svg1"
   inkscape:version="1.4.2 (f4327f4, 2025-05-13)"
   sodipodi:docname="routing.svg"
   xmlns:inkscape="http://www.inkscape.org/namespaces/inkscape"
   xmlns:sodipodi="http://sodipodi.sourceforge.net/DTD/sodipodi-0.dtd"
   xmlns="http://www.w3.org/2000/svg"
   xmlns:svg="http://www.w3.org/2000/svg">
  <sodipodi:namedview
     id="namedview1"
     pagecolor="#ffffff"
     bordercolor="#000000"
     borderopacity="0.25"
     inkscape:showpageshadow="2"
     inkscape:pageopacity="0.0"
     inkscape:pagecheckerboard="0"
     inkscape:deskcolor="#d1d1d1"
     inkscape:document-units="mm"
     inkscape:zoom="0.68862935"
     inkscape:cx="47.1952"
     inkscape:cy="38.48224"
     inkscape:window-width="1920"
     inkscape:window-height="991"
     inkscape:window-x="-9"
     inkscape:window-y="-9"
     inkscape:window-maximized="1"
     inkscape:current-layer="layer1" />
  <defs
     id="defs1" />
  <g
     inkscape:label="Ebene 1"
     inkscape:groupmode="layer"
     id="layer1"
      transform="translate(0 2.005351) scale(0.962879) translate(-92.549756,-138.14638)">
    <path
       d="m 95.072476,158.78121 c -1.189045,-0.0899 -2.260608,-0.2636 -2.38125,-0.38594 -0.22475,-0.22794 -0.16642,-6.83485 0.0673,-7.62339 0.251381,-0.84811 1.762133,-1.2823 4.461711,-1.2823 2.356464,0 2.601426,0.0497 3.201163,0.64943 0.46434,0.46434 0.64943,0.9394 0.64943,1.66687 0,1.21745 0.3703,1.65245 1.40669,1.65245 0.67116,0 0.75091,-0.0776 0.61216,-0.59532 -0.0877,-0.32742 -0.16117,-1.20233 -0.16315,-1.94424 -0.004,-1.32658 -0.0211,-1.3558 -1.06013,-1.76394 -0.68702,-0.26986 -1.14969,-0.66006 -1.32292,-1.11569 -0.30417,-0.80002 -0.35902,-8.32059 -0.0639,-8.76256 0.43345,-0.64915 1.62035,-0.98544 3.88948,-1.10203 2.51865,-0.12941 4.32488,0.19051 5.02425,0.88987 0.33533,0.33533 0.40878,1.18638 0.40878,4.73631 v 4.32752 l -0.69714,0.54837 c -0.38342,0.30161 -0.90943,0.54837 -1.16891,0.54837 -0.39605,0 -0.48802,0.28665 -0.57298,1.78594 -0.0557,0.98227 -0.1896,1.97443 -0.29765,2.2048 -0.16221,0.34585 -0.0525,0.39774 0.62939,0.29766 0.8884,-0.13039 1.16962,-0.56609 1.43955,-2.23027 0.24828,-1.5307 0.8536,-1.79354 4.13052,-1.79354 2.4481,0 2.90691,0.0716 3.513,0.54837 0.69268,0.54486 0.69714,0.57161 0.69714,4.18276 0,2.67672 -0.0964,3.76628 -0.36601,4.13495 -0.34651,0.47387 -0.88541,0.50289 -10.12031,0.5448 -5.36487,0.0243 -10.727163,-0.0293 -11.916206,-0.11925 z m 21.551884,-3.66924 0.0754,-2.71198 h -2.75907 c -3.0171,0 -3.08027,0.034 -3.08027,1.65824 0,0.479 -0.23973,1.07638 -0.57529,1.43357 -0.56033,0.59643 -0.70009,0.61236 -5.37339,0.61236 -5.708036,0 -5.750242,-0.0163 -5.952381,-2.28998 l -0.137485,-1.54648 -2.71198,-0.0754 -2.711979,-0.0754 v 2.92245 2.92245 l 11.575525,-0.0689 11.57552,-0.0689 z m -12.90769,-0.33073 c -0.2101,-0.39257 -0.55399,-0.52916 -1.33223,-0.52916 -1.39881,0 -2.10736,-0.70963 -2.10736,-2.11057 0,-1.60114 -0.714019,-1.95202 -3.683376,-1.81006 -1.518711,0.0726 -2.51949,0.24848 -2.818284,0.49526 -0.411914,0.3402 -0.147926,0.39734 2.3792,0.51495 3.288659,0.15306 3.593295,0.35548 3.593295,2.38772 0,0.67554 0.07937,1.30763 0.17639,1.40464 0.09698,0.097 1.053705,0.17639 2.125975,0.17639 1.8676,0 1.93768,-0.0222 1.66639,-0.52917 z m 3.30729,0 c 0.46539,-0.51425 0.46213,-0.52916 -0.1157,-0.52916 -0.32703,0 -0.89732,0.23812 -1.26731,0.52916 l -0.67273,0.52917 h 0.78842 c 0.45241,0 0.99253,-0.22553 1.26732,-0.52917 z m 2.70994,0.31233 c 0.18078,-0.11481 0.40559,-0.7976 0.49957,-1.51731 0.094,-0.71971 0.28807,-1.45739 0.43131,-1.63929 0.17981,-0.22835 1.15132,-0.33073 3.13845,-0.33073 1.5947,0 2.87802,-0.10955 2.87802,-0.24568 0,-0.13513 -0.1871,-0.43278 -0.41578,-0.66146 -0.32144,-0.32144 -1.00442,-0.41577 -3.01031,-0.41577 -2.92937,0 -3.06753,0.0764 -3.35172,1.85363 -0.18083,1.13082 -0.59188,1.68813 -1.9904,2.69864 l -0.6245,0.45124 1.05833,0.008 c 0.58209,0.004 1.20625,-0.0862 1.38703,-0.20101 z m -3.47906,-2.36026 c -0.12261,-0.12261 -2.00901,0.64938 -2.00901,0.82217 0,0.0683 0.0754,0.32051 0.16744,0.5605 0.14106,0.36759 0.3072,0.3009 1.05437,-0.4233 0.48781,-0.4728 0.84205,-0.90452 0.7872,-0.95937 z m 0.1634,-1.40237 c 0.16326,-0.44133 0.1261,-0.54331 -0.15823,-0.4342 -0.20438,0.0784 -0.86518,0.29047 -1.46845,0.47122 -0.76094,0.22798 -1.05297,0.44295 -0.95358,0.70197 0.0788,0.20534 0.14327,0.47685 0.14327,0.60335 0,0.45082 2.22755,-0.77615 2.43699,-1.34234 z m -0.72618,-0.96433 c 0.51426,-0.24523 0.93502,-0.54289 0.93502,-0.66145 0,-0.11857 -0.65484,-0.21558 -1.45521,-0.21558 -1.37583,0 -1.4552,0.0361 -1.4552,0.66146 0,0.8023 0.60627,0.86846 1.97539,0.21557 z m 2.62661,-2.28943 c 0.68649,-0.44981 0.68966,-0.46821 0.68966,-4.0052 v -3.5533 l -1.38906,0.18597 c -1.8344,0.24559 -3.74648,0.23523 -5.29167,-0.0287 l -1.25677,-0.21465 v 3.40523 c 0,3.71968 0.13517,4.14339 1.45552,4.56254 1.26539,0.4017 4.98726,0.17559 5.79232,-0.35191 z m 0.0936,-8.34502 c 0.33114,-0.18531 0.22847,-0.27874 -0.48402,-0.44049 -1.24571,-0.28281 -5.43387,-0.20364 -5.99857,0.11338 -0.49243,0.27645 -0.41057,0.33951 0.86093,0.66329 0.77808,0.19813 5.13217,-0.0622 5.62166,-0.33618 z"
       style="fill:#2b1e17;fill-opacity:1;stroke-width:0.264583"
       id="path1" />
  </g>
</svg>

