<?xml version="1.0" encoding="UTF-8" standalone="no"?>
<!-- Created with Inkscape (http://www.inkscape.org/) -->

<svg
   width="24"
   height="24"
   viewBox="0 0 39.999999 40"
   version="1.1"
   id="svg1"
   inkscape:version="1.4.2 (f4327f4, 2025-05-13)"
   sodipodi:docname="set_of_furniture_legs.svg"
   xmlns:inkscape="http://www.inkscape.org/namespaces/inkscape"
   xmlns:sodipodi="http://sodipodi.sourceforge.net/DTD/sodipodi-0.dtd"
   xmlns="http://www.w3.org/2000/svg"
   xmlns:svg="http://www.w3.org/2000/svg">
  <sodipodi:namedview
     id="namedview1"
     pagecolor="#ffffff"
     bordercolor="#000000"
     borderopacity="0.25"
     inkscape:showpageshadow="2"
     inkscape:pageopacity="0.0"
     inkscape:pagecheckerboard="0"
     inkscape:deskcolor="#d1d1d1"
     inkscape:document-units="mm"
     inkscape:zoom="15.581903"
     inkscape:cx="-2.4066379"
     inkscape:cy="15.24204"
     inkscape:window-width="1920"
     inkscape:window-height="991"
     inkscape:window-x="-9"
     inkscape:window-y="-9"
     inkscape:window-maximized="1"
     inkscape:current-layer="layer1" />
  <defs
     id="defs1" />
  <g
     inkscape:label="Ebene 1"
     inkscape:groupmode="layer"
     id="layer1"
     transform="translate(-86.457018,-131.49792)">
    <path
       d="m 103.37,167.20345 c -0.48587,-0.90787 -0.31394,-1.56738 0.52121,-1.99925 0.43656,-0.22576 0.79375,-0.58326 0.79375,-0.79445 0,-0.56683 0.58055,-0.88419 8.22496,-4.49628 l 6.98858,-3.3022 0.0816,-1.06534 c 0.0609,-0.79522 0.25146,-1.17667 0.7516,-1.50437 0.64613,-0.42337 0.74033,-0.40425 2.63997,0.53572 l 1.96994,0.97475 -0.0757,2.54905 c -0.0901,3.0358 -0.29398,3.30113 -2.15392,2.80367 l -1.17427,-0.31407 -7.23729,3.45288 c -6.85899,3.27238 -7.33715,3.45853 -9.14757,3.56101 -1.67835,0.095 -1.94335,0.0463 -2.18281,-0.40112 z m 0.85971,-0.55453 c -0.0776,-0.29682 -0.20024,-0.48055 -0.2725,-0.40829 -0.14314,0.14314 0.10969,0.94795 0.2978,0.94795 0.0637,0 0.0523,-0.24285 -0.0253,-0.53966 z m 1.77816,-0.43286 c 0,-0.2099 0.11387,-0.31126 0.25303,-0.22525 0.13917,0.086 0.18596,0.33116 0.10399,0.54478 -0.082,0.21362 -0.0173,0.3884 0.14384,0.3884 0.45049,0 0.34704,-1.35371 -0.14499,-1.89739 -0.47161,-0.52113 -1.14962,-0.65045 -1.14962,-0.21927 0,0.14552 0.17157,0.26458 0.38126,0.26458 0.2097,0 0.46644,0.13782 0.57054,0.30626 0.1291,0.20889 0.0118,0.25985 -0.36896,0.16028 -0.30703,-0.0803 -0.77213,0.0262 -1.03356,0.2366 -0.44427,0.3576 -0.43644,0.37189 0.12,0.21877 0.34786,-0.0957 0.59531,-0.0464 0.59531,0.11859 0,0.15533 -0.18562,0.28242 -0.41249,0.28242 -0.22687,0 -0.34582,0.10788 -0.26432,0.23974 0.22284,0.36056 1.20597,0.0194 1.20597,-0.41851 z m 9.32657,-3.27434 c 7.07586,-3.37951 7.34218,-3.53406 7.34218,-4.26089 0,-0.91043 0.89377,-1.25123 -8.43423,3.21608 -6.64279,3.18133 -6.90592,3.33608 -6.9087,4.0632 -0.002,0.50046 0.10887,0.7107 0.32783,0.62212 0.1819,-0.0736 3.63471,-1.71182 7.67292,-3.64051 z m 0.4355,-2.36773 c 3.50553,-1.67349 6.37456,-3.12974 6.37561,-3.2361 0.001,-0.10637 -0.26598,-0.26039 -0.59341,-0.34226 -0.41771,-0.10445 -2.48964,0.75032 -6.94531,2.86528 -9.13113,4.33426 -8.74501,4.11982 -8.17235,4.53856 0.55631,0.40679 -0.0537,0.65677 9.33546,-3.82548 z m 7.96502,-2.06155 v -2.06155 l -1.46107,-0.71657 c -1.73936,-0.85306 -1.71393,-0.84987 -1.71393,-0.21548 0,0.33392 0.41929,0.70907 1.25677,1.12448 l 1.25677,0.62338 v 1.45521 c 0,1.20768 0.19845,1.82372 0.59531,1.84803 0.0364,0.002 0.0661,-0.92365 0.0661,-2.0575 z m 1.05833,-0.46761 c 0,-1.13611 -0.1119,-1.96875 -0.26458,-1.96875 -0.1545,0 -0.26459,0.88715 -0.26459,2.13228 0,1.35414 0.0966,2.0726 0.26459,1.96876 0.14552,-0.0899 0.26458,-1.04947 0.26458,-2.13229 z m -1.82692,-2.91315 c -0.78653,-0.35713 -1.48237,-0.59701 -1.54632,-0.53306 -0.19001,0.19001 1.87305,1.18979 2.4472,1.18594 0.29104,-0.002 -0.11436,-0.29575 -0.90088,-0.65288 z m -24.887488,9.0308 c -0.379807,-0.21028 -1.020585,-0.30185 -1.531779,-0.2189 -1.515245,0.24589 -2.246175,-1.38039 -0.990266,-2.20329 0.479578,-0.31423 0.661458,-0.6684 0.661458,-1.28801 0,-0.48113 0.202345,-1.03401 0.463021,-1.26513 0.64272,-0.56985 16.650014,-8.13856 17.207944,-8.13641 0.24914,0.001 0.8084,0.23601 1.2428,0.52234 0.576,0.37967 1.04777,0.47936 1.7427,0.36823 0.88177,-0.141 0.97933,-0.0885 1.30728,0.70323 0.34081,0.82279 0.32209,0.88216 -0.48831,1.54826 -0.46915,0.3856 -0.84165,0.94218 -0.84032,1.25557 0.001,0.3096 -0.14645,0.68545 -0.32835,0.83521 -0.62118,0.51142 -16.924091,8.25919 -17.359278,8.24979 -0.23867,-0.005 -0.727773,-0.17206 -1.0869,-0.37089 z m 0.68326,-2.94347 c -0.07446,-0.19402 -0.498684,-0.54064 -0.942734,-0.77027 -0.769771,-0.39806 -0.807363,-0.39293 -0.807363,0.11015 0,0.33827 0.130201,0.4777 0.36276,0.38846 0.836718,-0.32108 1.701794,1.68182 0.93191,2.15764 -0.204055,0.12611 -0.184002,0.24885 0.06615,0.40486 0.276352,0.17236 0.378042,-0.0249 0.441814,-0.85709 0.04556,-0.59453 0.02193,-1.23972 -0.05253,-1.43375 z m 9.005508,-1.40549 8.1621,-3.93547 0.0805,-1.3704 0.0805,-1.37039 -0.74192,0.36933 c -0.40806,0.20313 -4.16497,2.01756 -8.3487,4.03207 l -7.606765,3.66275 v 1.27379 c 0,0.70059 0.04776,1.27379 0.106132,1.27379 0.05837,0 3.779073,-1.77096 8.268223,-3.93547 z m -11.718257,3.00943 c -0.08376,-0.21828 -0.254884,-0.39687 -0.380267,-0.39687 -0.125386,0 -0.159441,0.17859 -0.07568,0.39687 0.08376,0.21828 0.254884,0.39688 0.380267,0.39688 0.125386,0 0.159441,-0.1786 0.07568,-0.39688 z m 1.925304,-0.26458 c 0.08376,-0.21828 0.08217,-0.57964 -0.0035,-0.80301 -0.140015,-0.36487 -0.23603,-0.36466 -0.945243,0.002 -0.515345,0.26649 -0.736806,0.54527 -0.637905,0.803 0.196977,0.51332 1.389523,0.51175 1.586698,-0.002 z m -1.227235,-0.10399 c 0,-0.29344 0.813969,-0.62545 1.022395,-0.41702 0.0841,0.0841 -0.02225,0.26367 -0.236308,0.39905 -0.494733,0.31288 -0.786087,0.31954 -0.786087,0.018 z m 10.908998,-5.92978 c 4.32646,-2.0657 7.86857,-3.82119 7.87135,-3.9011 0.006,-0.16337 -1.60047,-0.78076 -2.03117,-0.78076 -0.15337,0 -3.82966,1.73164 -8.16953,3.84808 l -7.890652,3.84809 0.779981,0.49824 c 0.42899,0.27403 0.958575,0.44087 1.176856,0.37075 0.218281,-0.0701 3.936705,-1.81761 8.263165,-3.8833 z m 9.38007,-3.40855 c -0.0845,-0.21107 -0.14716,-0.14837 -0.15985,0.15985 -0.0115,0.27892 0.051,0.43519 0.13896,0.34727 0.0879,-0.0879 0.0973,-0.31613 0.0209,-0.50712 z m 0.52917,-0.26458 c -0.0845,-0.21107 -0.14716,-0.14838 -0.15985,0.15985 -0.0115,0.27891 0.051,0.43518 0.13896,0.34727 0.0879,-0.0879 0.0973,-0.31613 0.0209,-0.50712 z m -27.498967,5.98331 c -0.887077,-0.58091 -0.992447,-0.76846 -0.994638,-1.77037 -0.0013,-0.61634 -0.171339,-3.74 -0.377756,-6.94146 -0.20642,-3.20146 -0.457332,-7.3314 -0.557583,-9.17764 l -0.182274,-3.35681 1.816804,-0.82558 1.816801,-0.82558 1.54383,0.73605 c 0.849106,0.40483 1.652037,0.93824 1.784292,1.18536 0.132255,0.24712 0.179033,1.32172 0.10395,2.38801 -0.07508,1.06628 -0.311407,4.91525 -0.525167,8.55327 -0.586925,9.98906 -0.51644,9.57435 -1.73269,10.19483 -1.277088,0.65152 -1.474078,0.63983 -2.695569,-0.16008 z m 1.124479,-9.76015 v -9.64728 l -1.124479,-0.49275 -1.12448,-0.49275 -0.08678,0.79914 c -0.04773,0.43952 0.166767,4.79418 0.476647,9.67701 0.524306,8.26154 0.601247,8.91001 1.108273,9.34089 0.29967,0.25466 0.591196,0.46302 0.647833,0.46302 0.05664,0 0.102981,-4.34128 0.102981,-9.64728 z m 1.978607,8.47744 c 0.120822,-0.58369 1.204529,-17.25636 1.199409,-18.45271 l -0.003,-0.70484 -1.322917,0.55891 -1.322917,0.55892 v 9.59911 9.5991 l 0.667803,-0.30427 c 0.36729,-0.16735 0.719029,-0.55175 0.781638,-0.85422 z m -0.258816,-19.17932 1.058334,-0.49153 -1.219931,-0.55595 c -1.182502,-0.53889 -1.253447,-0.54186 -2.312413,-0.0968 -0.600866,0.25251 -1.093695,0.53567 -1.095174,0.62924 -0.0029,0.18279 1.807829,0.98882 2.246268,0.99992 0.145521,0.004 0.740833,-0.21449 1.322916,-0.48484 z m -1.719791,-0.55292 c 0,-0.14553 0.178593,-0.26459 0.396875,-0.26459 0.218281,0 0.396875,0.11906 0.396875,0.26459 0,0.14552 -0.178594,0.26458 -0.396875,0.26458 -0.218282,0 -0.396875,-0.11906 -0.396875,-0.26458 z m 7.474479,17.20081 c -0.472943,-0.28836 -0.859896,-0.74345 -0.859896,-1.01131 0,-0.553 -0.912177,-10.03131 -1.324237,-13.75995 -0.149841,-1.35588 -0.209182,-2.56759 -0.131874,-2.69268 0.07731,-0.12509 0.549395,-0.36236 1.049076,-0.52727 0.843206,-0.27829 0.91426,-0.38867 0.988502,-1.53564 0.06945,-1.07291 0.174493,-1.26886 0.796935,-1.48658 0.485249,-0.16974 0.934153,-0.15182 1.389063,0.0554 0.56629,0.25802 0.67254,0.48418 0.67481,1.43639 0.003,1.07345 0.0576,1.15324 1.09776,1.59036 l 1.09508,0.46022 -0.16559,2.18562 c -0.0911,1.20209 -0.4878,5.06122 -0.88161,8.57586 l -0.71603,6.39023 -0.88658,0.42279 c -1.107544,0.52814 -1.087888,0.5291 -2.125409,-0.10349 z m 0.859896,-7.92961 v -7.66221 l -1.140556,-0.43564 c -0.627303,-0.23961 -1.187431,-0.38877 -1.244727,-0.33148 -0.05729,0.0573 0.2402,3.54867 0.661096,7.75862 0.642094,6.42241 0.839933,7.70904 1.229151,7.99364 0.255135,0.18656 0.470892,0.33922 0.47946,0.33924 0.0086,2e-5 0.01558,-3.44795 0.01558,-7.66217 z m 1.367053,6.84716 c 0.27861,-0.5778 1.7001,-13.1207 1.68281,-14.84866 l -0.007,-0.71467 -1.12447,0.50252 -1.12448,0.50252 -0.16519,3.78403 c -0.306729,7.02619 -0.267031,11.64502 0.099,11.52392 0.1819,-0.0602 0.46965,-0.39752 0.63944,-0.74966 z m 0.33345,-15.56461 c 1.01463,-0.41147 1.1072,-0.51091 0.69193,-0.7433 -0.36718,-0.20549 -0.60136,-0.14632 -1.00045,0.25277 -0.39016,0.39016 -0.72686,0.4799 -1.340247,0.35723 -0.450548,-0.0901 -0.90238,-0.29846 -1.004067,-0.46299 -0.109802,-0.17767 -0.383773,-0.21688 -0.674613,-0.0966 -0.413227,0.17094 -0.324406,0.2792 0.56861,0.69307 1.281025,0.5937 1.294318,0.5937 2.758837,-2.1e-4 z m -0.60118,-0.96204 c 0.21475,-0.55964 -0.14316,-0.85863 -0.45225,-0.3778 -0.219607,0.34162 -0.282052,0.34069 -0.510731,-0.008 -0.143293,-0.21829 -0.262355,-0.53868 -0.264583,-0.71199 -0.0054,-0.41947 0.448725,-0.684 0.640774,-0.37326 0.0837,0.13546 0.003,0.3066 -0.180156,0.3803 -0.182808,0.0737 -0.06449,0.1434 0.262936,0.15489 0.42589,0.0149 0.59531,-0.12971 0.59531,-0.50828 0,-0.41157 -0.17639,-0.52916 -0.793748,-0.52916 -0.7439,0 -0.79375,0.0637 -0.79375,1.01423 0,0.55783 0.07937,1.09361 0.176389,1.19063 0.326602,0.3266 1.161809,0.17985 1.319809,-0.2319 z m -0.26829,-2.58351 c 0.10076,-0.10076 -0.1343,-0.1832 -0.522352,-0.1832 -0.388056,0 -0.705556,0.11831 -0.705556,0.26292 0,0.28272 0.925548,0.22263 1.227908,-0.0797 z m 6.91091,15.78331 c -1.04326,-0.43278 -1.27949,-0.92064 -1.68056,-3.47082 -0.0978,-0.62168 -0.28119,-1.19426 -0.4076,-1.27238 -0.12641,-0.0781 -0.22983,-2.02091 -0.22983,-4.31729 v -4.17525 l 0.67391,-0.30705 c 0.37065,-0.16888 0.8469,-0.30706 1.05833,-0.30706 0.27878,0 0.38443,-0.32465 0.38443,-1.18131 0,-1.27573 0.4325,-1.7291 1.64948,-1.7291 0.87766,0 1.26093,0.48059 1.26093,1.58111 0,0.85476 0.10859,0.99656 1.12448,1.46844 l 1.12448,0.52232 -0.0235,4.23333 c -0.0196,3.53041 -0.12259,4.59141 -0.62035,6.38977 -0.58476,2.11268 -0.61935,2.16501 -1.70515,2.57968 -1.32609,0.50644 -1.35389,0.50629 -2.60906,-0.0144 z m 1.11798,-1.0837 c -0.006,-1.28907 -0.31074,-1.93038 -1.11294,-2.34521 -0.43159,-0.22318 -0.83564,-0.35485 -0.8979,-0.2926 -0.0623,0.0623 0.0149,0.71063 0.17154,1.44083 0.19985,0.93189 0.4578,1.41126 0.86538,1.6082 0.87523,0.4229 0.97785,0.37957 0.97392,-0.41122 z m 1.24413,0.4521 c 0.66638,-0.2323 0.83923,-0.48745 1.1023,-1.62711 0.17159,-0.74339 0.26872,-1.39488 0.21583,-1.44776 -0.0529,-0.0529 -0.53115,0.0856 -1.06281,0.30774 -0.84414,0.35271 -0.96667,0.51808 -0.96667,1.30475 0,0.49547 -0.0723,1.08918 -0.1606,1.31937 -0.18989,0.49486 -0.15417,0.50071 0.87195,0.14301 z m -1.5051,-6.94986 v -3.78578 l -1.19062,-0.54774 -1.19063,-0.54775 v 3.75235 3.75236 l 0.99219,0.57509 c 0.5457,0.3163 1.08148,0.57783 1.19062,0.58117 0.10914,0.003 0.19844,-1.69752 0.19844,-3.7797 z m 2.71198,3.08401 0.7276,-0.37015 v -3.80691 -3.8069 l -1.32291,0.55892 -1.32292,0.55892 v 3.80177 3.80178 l 0.59531,-0.18364 c 0.32743,-0.101 0.92274,-0.35021 1.32292,-0.55379 z m -0.83722,-7.93713 c 0.87769,-0.35118 1.00812,-0.4836 0.66534,-0.67543 -0.28566,-0.15986 -0.61996,-0.10302 -1.01294,0.17223 -0.74962,0.52505 -1.64025,0.52454 -2.16603,-0.001 -0.28514,-0.28514 -0.54595,-0.33717 -0.84663,-0.16891 -0.49359,0.27623 -0.2549,0.49929 0.91092,0.85126 1.04521,0.31556 1.25389,0.30041 2.44934,-0.17792 z m -0.61635,-1.08454 c 0.0597,-0.1819 -0.0799,-0.33073 -0.31032,-0.33073 -0.23041,0 -0.42075,0.14883 -0.42297,0.33073 -0.003,0.22049 -0.0895,0.19844 -0.26054,-0.0661 -0.38072,-0.58913 -0.32566,-0.70566 0.32248,-0.68247 0.95623,0.0342 0.91656,-0.81845 -0.0447,-0.95953 -0.79512,-0.1167 -0.80699,-0.10133 -0.80699,1.04394 0,1.1044 0.0353,1.15819 0.7072,1.07865 0.38896,-0.0461 0.75607,-0.23255 0.81579,-0.41445 z m -1.04344,-1.30522 c 0.191,-0.0764 0.41921,-0.067 0.50712,0.0209 0.0879,0.0879 -0.0683,0.15045 -0.34726,0.13896 -0.30823,-0.0127 -0.37092,-0.0754 -0.15986,-0.15985 z m 0.77722,-1.05998 c -0.25466,-0.0665 -0.67138,-0.0665 -0.92604,0 -0.25466,0.0666 -0.0463,0.12101 0.46302,0.12101 0.50932,0 0.71768,-0.0545 0.46302,-0.12101 z m 6.96882,13.60609 c -0.42195,-0.21616 -0.80314,-0.81455 -1.12583,-1.76725 -0.26833,-0.79224 -0.60993,-1.51586 -0.7591,-1.60806 -0.16958,-0.1048 -0.24345,-1.49488 -0.1971,-3.70881 l 0.0741,-3.54117 1.79463,-0.79025 1.79463,-0.79024 1.7111,0.84378 1.71109,0.84378 v 3.55873 c 0,2.05549 -0.11029,3.62689 -0.2611,3.7201 -0.14361,0.0888 -0.44983,0.81055 -0.68049,1.60399 -0.23648,0.81345 -0.63428,1.55763 -0.91212,1.70632 -0.67752,0.3626 -2.37841,0.3243 -3.14986,-0.0709 z m 2.73298,-0.61972 c 0.83724,-0.32128 0.3813,-0.50096 -1.28309,-0.50565 -1.34409,-0.004 -1.64252,0.0656 -1.42249,0.33073 0.28846,0.34756 1.97203,0.45641 2.70558,0.17492 z m 0.48628,-1.36653 c 0.67237,-0.59315 0.42062,-0.65605 -0.71939,-0.17972 -0.90377,0.37762 -1.09394,0.37815 -2.02499,0.006 -1.25834,-0.50349 -1.41233,-0.0294 -0.16766,0.5162 0.96784,0.42423 2.2086,0.27847 2.91204,-0.3421 z m -2.18444,-3.73865 v -3.14912 l -0.7276,-0.2634 c -0.40018,-0.14487 -0.93596,-0.34785 -1.19063,-0.45107 -0.42488,-0.1722 -0.46302,0.061 -0.46302,2.83123 v 3.01889 l 1.12448,0.56488 c 0.61847,0.31068 1.15425,0.57227 1.19063,0.58129 0.0364,0.009 0.0661,-1.40069 0.0661,-3.1327 z m 2.51355,2.37951 0.79375,-0.4495 0.0748,-2.96232 c 0.0441,-1.74672 -0.0283,-2.96232 -0.1765,-2.96232 -0.13823,0 -0.79697,0.23389 -1.46388,0.51976 l -1.21256,0.51977 v 3.06993 c 0,3.05996 0.002,3.06937 0.59531,2.89207 0.32743,-0.0978 0.9525,-0.38016 1.38907,-0.62739 z m -0.8906,-6.41603 c 0.56259,-0.16855 1.02289,-0.38859 1.02289,-0.48898 0,-0.10038 -0.47396,-0.39624 -1.05325,-0.65747 -1.00273,-0.45217 -1.11058,-0.45304 -2.24896,-0.0183 -0.65764,0.25115 -1.19571,0.51207 -1.19571,0.57982 0,0.17383 1.64487,0.86856 2.08597,0.88103 0.2014,0.006 0.82648,-0.12755 1.38906,-0.29611 z m -1.62295,-0.75186 c 0,-0.14553 0.1786,-0.26459 0.39688,-0.26459 0.21828,0 0.39687,0.11906 0.39687,0.26459 0,0.14552 -0.17859,0.26458 -0.39687,0.26458 -0.21828,0 -0.39688,-0.11906 -0.39688,-0.26458 z"
       style="fill:#28220b;stroke-width:0.264583"
       id="path1" />
  </g>
</svg>
