<?xml version="1.0" encoding="UTF-8" standalone="no"?>
<!-- Created with Inkscape (http://www.inkscape.org/) -->

<svg
   width="24"
   height="24"
   viewBox="0 0 43.636363 43.636364"
   version="1.1"
   id="svg1"
   inkscape:version="1.4.2 (f4327f4, 2025-05-13)"
   sodipodi:docname="shelving_unit.svg"
   xmlns:inkscape="http://www.inkscape.org/namespaces/inkscape"
   xmlns:sodipodi="http://sodipodi.sourceforge.net/DTD/sodipodi-0.dtd"
   xmlns="http://www.w3.org/2000/svg"
   xmlns:svg="http://www.w3.org/2000/svg">
  <sodipodi:namedview
     id="namedview1"
     pagecolor="#ffffff"
     bordercolor="#000000"
     borderopacity="0.25"
     inkscape:showpageshadow="2"
     inkscape:pageopacity="0.0"
     inkscape:pagecheckerboard="0"
     inkscape:deskcolor="#d1d1d1"
     inkscape:document-units="mm"
     inkscape:zoom="11.01807"
     inkscape:cx="19.7403"
     inkscape:cy="20.10334"
     inkscape:window-width="1920"
     inkscape:window-height="991"
     inkscape:window-x="-9"
     inkscape:window-y="-9"
     inkscape:window-maximized="1"
     inkscape:current-layer="layer1" />
  <defs
     id="defs1" />
  <g
     inkscape:label="Ebene 1"
     inkscape:groupmode="layer"
     id="layer1"
     transform="translate(-36.273757,-92.964583)">
    <path
       d="m 44.030258,132.25023 -4.017414,-2.02259 -0.136851,-1.20336 c -0.182173,-1.60189 -0.182594,-25.41392 -5.29e-4,-26.01497 0.10079,-0.33262 0.387858,-0.45979 0.982274,-0.43516 0.461925,0.0191 4.530801,-0.94385 9.041947,-2.13999 4.511146,-1.196131 10.343364,-2.734919 12.960482,-3.419528 l 4.758402,-1.24474 3.910888,1.738018 3.910888,1.738022 -0.07033,1.168998 -0.07033,1.169 -3.439584,0.95075 c -2.84018,0.78506 -3.439583,1.03673 -3.439583,1.44414 0,0.37827 0.80259,0.84786 3.439583,2.0125 l 3.439584,1.5191 0.08029,1.21698 c 0.07545,1.14366 0.03561,1.22694 -0.661459,1.38235 -1.194765,0.26639 -4.372448,1.14535 -4.461052,1.23396 -0.04471,0.0447 1.13103,0.61522 2.612755,1.2678 2.644392,1.16464 2.695512,1.20399 2.773569,2.13519 0.09932,1.18479 -0.09079,1.329 -2.725356,2.06753 -1.164167,0.32635 -2.741745,0.77192 -3.505729,0.99016 l -1.389063,0.3968 v 1.45153 1.45153 l 1.918229,0.83853 c 3.664209,1.60177 5.620584,2.69336 5.711973,3.1871 0.22438,1.21225 -0.169561,1.68636 -1.739881,2.09394 -0.838581,0.21766 -6.721025,1.89956 -13.072097,3.73757 -6.351071,1.83801 -11.827946,3.33499 -12.170833,3.32663 -0.342887,-0.008 -2.431269,-0.92536 -4.640847,-2.03779 z m 4.149707,0.79065 c 0,-0.39096 -2.256631,-1.71142 -4.54981,-2.66231 -0.11698,-0.0485 -0.21269,0.0915 -0.21269,0.31124 0,0.29549 3.269416,2.24057 4.696354,2.79401 0.03638,0.0141 0.06615,-0.18521 0.06615,-0.44294 z m 12.185009,-2.71201 c 14.210006,-4.09586 14.537907,-4.20053 14.537907,-4.64061 0,-0.20948 -0.08319,-0.38087 -0.184854,-0.38087 -0.101668,0 -3.465184,0.95117 -7.474479,2.11371 -4.009294,1.16254 -9.730406,2.81402 -12.713583,3.66994 -4.208854,1.20758 -5.444644,1.66069 -5.516296,2.02258 -0.112858,0.57003 -1.286898,0.85805 11.351305,-2.78475 z m -1.596678,-1.19468 c 5.308761,-1.53328 10.941386,-3.1613 12.51694,-3.61781 2.659163,-0.77048 2.820485,-0.85452 2.248958,-1.17159 -0.82759,-0.45912 -1.771253,-0.44345 -3.162109,0.0525 -1.610064,0.57415 -6.33793,1.70902 -6.978579,1.67513 -0.291041,-0.0154 0.0066,-0.14163 0.661459,-0.28052 1.654513,-0.35091 6.937113,-1.82598 7.357469,-2.05443 0.231024,-0.12556 0.0016,-0.34335 -0.690245,-0.65534 l -1.036259,-0.46729 -5.213432,1.50595 c -2.867385,0.82827 -5.263181,1.45619 -5.323991,1.39538 -0.06081,-0.0608 2.08983,-0.75396 4.779198,-1.54033 2.689368,-0.78638 4.88976,-1.50995 4.88976,-1.60795 0,-0.65878 -1.785935,-0.36767 -7.19989,1.17361 -3.243342,0.92334 -8.843782,2.50124 -12.445423,3.50646 -3.60164,1.00522 -6.548437,1.90389 -6.548437,1.99705 0,0.54747 1.538181,0.39002 4.452842,-0.45579 1.794219,-0.52067 3.310501,-0.89839 3.369514,-0.83938 0.05901,0.059 -1.349455,0.52877 -3.129926,1.0439 l -3.237222,0.93661 2.116667,1.08256 c 1.164166,0.59542 2.297509,1.08852 2.518539,1.0958 0.221031,0.007 4.745406,-1.24128 10.054167,-2.77456 z m -10.70188,2.02055 c 0.345229,-0.31882 5.688076,-1.68393 5.87176,-1.50025 0.08295,0.0829 0.04167,0.15353 -0.09172,0.15684 -0.133395,0.003 -1.543789,0.35801 -3.13421,0.78823 -1.59042,0.43022 -2.781045,0.68005 -2.645833,0.55518 z m -1.738535,-0.67196 c 0,-0.31649 9.639912,-2.89229 10.150026,-2.7121 0.165557,0.0585 -0.413359,0.25683 -1.286484,0.44079 -0.873125,0.18395 -3.16843,0.79642 -5.100682,1.36102 -3.689035,1.07795 -3.76286,1.09581 -3.76286,0.91029 z m 8.152474,-1.1228 c 0.190995,-0.0764 0.419201,-0.067 0.507119,0.0209 0.08792,0.0879 -0.06835,0.15045 -0.347265,0.13896 -0.308227,-0.0127 -0.37092,-0.0754 -0.159854,-0.15985 z m 2.645834,-1.85208 c 0.190994,-0.0764 0.4192,-0.067 0.507119,0.0209 0.08792,0.0879 -0.06835,0.15045 -0.347266,0.13896 -0.308226,-0.0127 -0.370919,-0.0754 -0.159853,-0.15985 z m -13.973307,3.01591 c 0,-0.1869 -0.357188,-0.55082 -0.79375,-0.80871 -0.673492,-0.39784 -0.79375,-0.40875 -0.79375,-0.0721 0,0.37981 0.951825,1.22059 1.381789,1.22059 0.113141,0 0.205711,-0.15292 0.205711,-0.33983 z m -2.378753,-27.01559 c -0.179718,-0.17972 -0.267081,4.06302 -0.267081,12.97091 0,7.28089 0.0893,13.32731 0.198438,13.43649 0.10914,0.10918 0.229327,-5.72773 0.267081,-12.9709 0.04483,-8.601 -0.024,-13.26206 -0.198438,-13.4365 z m 21.031877,19.2132 5.55625,-1.56237 0.08114,-1.39912 c 0.07775,-1.34064 0.05563,-1.39346 -0.529167,-1.26347 -0.335669,0.0746 -4.241715,1.16348 -8.680101,2.41971 -4.438385,1.25622 -8.48651,2.35079 -8.995833,2.43238 -0.760063,0.12175 -1.530673,-0.13753 -4.299479,-1.44661 L 41.565382,120.307 v 4.04959 4.04959 l 7.342187,-2.06119 c 4.038203,-1.13366 9.8425,-2.76426 12.898437,-3.62357 z m -13.623827,-0.58489 c -0.15454,-0.28876 -1.282729,-1.00314 -2.507083,-1.5875 -2.510075,-1.19801 -2.522214,-1.20133 -2.522214,-0.68989 0,0.20733 1.085506,0.90312 2.447395,1.56873 2.819882,1.37819 2.960947,1.41691 2.581902,0.70866 z m 8.688192,-1.60331 c 17.3195,-4.86208 18.03251,-5.0774 18.03251,-5.44569 0,-0.19991 -0.124701,-0.36347 -0.277114,-0.36347 -0.152413,0 -2.801554,0.71114 -5.886979,1.58031 -3.085425,0.86917 -8.765021,2.45907 -12.621323,3.53312 -5.285685,1.47215 -7.032514,2.06003 -7.097004,2.38844 -0.04705,0.2396 -0.0059,0.43563 0.09145,0.43563 0.09735,0 3.588654,-0.95775 7.758464,-2.12834 z m -0.22374,-1.5486 c 3.710782,-1.04996 9.167384,-2.57865 12.125786,-3.39707 5.08037,-1.40547 5.340675,-1.50809 4.690078,-1.84897 -0.378854,-0.1985 -0.794081,-0.29586 -0.922727,-0.21636 -0.394388,0.24375 -9.3277,2.29922 -9.45208,2.17484 -0.06413,-0.0641 1.984393,-0.61911 4.552283,-1.23328 2.567887,-0.61416 4.567933,-1.20449 4.444545,-1.31183 -0.123389,-0.10734 -0.596067,-0.34144 -1.050394,-0.52023 -0.740195,-0.29129 -1.244957,-0.19776 -4.856487,0.89989 -2.21674,0.67373 -4.077706,1.17769 -4.13548,1.11992 -0.09964,-0.0996 5.294812,-1.83008 6.841455,-2.1946 0.884391,-0.20844 0.962599,-0.64329 0.115697,-0.64329 -0.33655,0 -4.057253,0.95971 -8.268229,2.13268 -12.21959,3.40378 -12.095781,3.37352 -12.775133,3.12221 -0.399302,-0.14771 -1.100839,-0.0931 -1.982886,0.15437 -0.750734,0.21063 -1.894895,0.51949 -2.542585,0.68635 l -1.177615,0.30341 1.240314,0.53689 1.240316,0.5369 3.906052,-1.09252 c 2.148326,-0.60089 4.084642,-1.08283 4.302924,-1.07099 0.218281,0.0119 -1.27,0.49198 -3.307292,1.06697 -4.920954,1.38885 -4.66286,1.25626 -3.527724,1.81234 l 0.970193,0.47528 3.31751,-1.00104 c 1.82463,-0.55058 3.709762,-1.06694 4.189182,-1.14748 0.846643,-0.14223 -1.515377,0.6542 -5.147336,1.73559 -1.869086,0.55651 -2.179985,1.14534 -0.498465,0.94409 0.528675,-0.0633 3.997317,-0.97411 7.708098,-2.02407 z m 5.506641,-3.11839 c 0.190995,-0.0764 0.4192,-0.067 0.507119,0.0209 0.08792,0.0879 -0.06835,0.15045 -0.347266,0.13896 -0.308226,-0.0127 -0.370919,-0.0754 -0.159853,-0.15985 z m -19.264974,3.84793 c 0,-0.30785 -0.765842,-0.99773 -1.124479,-1.01294 -0.370724,-0.0157 -0.200456,0.59318 0.264583,0.94619 0.575265,0.43669 0.859896,0.45879 0.859896,0.0667 z m 1.288931,-2.69684 2.214973,-0.60893 -2.306529,-1.10675 c -1.26859,-0.60871 -2.354625,-1.10675 -2.41341,-1.10675 -0.05879,0 -0.106881,0.77391 -0.106881,1.71979 0,0.94589 0.0893,1.71794 0.198437,1.71569 0.109141,-0.002 1.195176,-0.27813 2.41341,-0.61305 z m 4.002736,-1.05234 c 0,-0.28599 -5.896443,-3.35759 -6.445454,-3.35759 -0.09302,0 -0.169129,0.16586 -0.169129,0.36857 0,0.39843 0.707704,0.77417 1.054486,0.55985 0.117139,-0.0724 0.274381,0.0284 0.349424,0.22394 0.07504,0.19556 0.950725,0.69438 1.945955,1.10849 0.99523,0.41412 2.044362,0.90827 2.331403,1.09813 0.661675,0.43764 0.933315,0.43724 0.933315,-0.001 z m 11.810074,-2.59611 c 5.800971,-1.61848 11.499675,-3.2043 12.663791,-3.52406 1.531456,-0.42065 2.141606,-0.71137 2.207133,-1.05161 0.06749,-0.35045 -0.03359,-0.43266 -0.396782,-0.32273 -0.603044,0.18254 -11.352813,3.14224 -17.420675,4.79638 -7.354535,2.00491 -8.069791,2.24059 -8.069791,2.65904 0,0.21212 0.10555,0.38567 0.234553,0.38567 0.129005,0 4.980802,-1.32421 10.781771,-2.94269 z M 53.074756,113.66 c 3.73978,-1.02679 16.550368,-4.57564 19.69598,-5.45629 l 1.439731,-0.40306 -1.836606,-0.78768 c -1.010131,-0.43322 -2.465461,-1.02855 -3.23406,-1.32294 l -1.397458,-0.53527 -12.360875,3.35879 c -6.798485,1.84734 -12.475591,3.42785 -12.615794,3.51225 -0.508465,0.3061 1.274112,0.79766 1.954509,0.53897 0.360831,-0.13718 3.162128,-0.88849 6.225106,-1.66956 3.062978,-0.78108 8.107175,-2.21545 11.209324,-3.18749 3.102153,-0.97204 5.683383,-1.72424 5.736069,-1.67155 0.211193,0.21119 -12.238736,4.0169 -17.197176,5.25686 -6.936581,1.73463 -6.462424,1.56823 -5.662668,1.98726 0.564264,0.29565 1.023499,0.23759 3.402034,-0.43014 1.512342,-0.42456 2.937327,-0.76246 3.166631,-0.75089 0.229307,0.0116 -0.714174,0.34658 -2.096622,0.74446 -1.382447,0.39789 -2.692135,0.7861 -2.910416,0.86271 -0.512157,0.17974 1.550559,1.29916 2.116666,1.1487 0.218282,-0.058 2.182813,-0.59582 4.365625,-1.19513 z m 7.394594,-3.20072 c 1.738693,-0.56983 3.272097,-0.9991 3.407561,-0.95395 0.26344,0.0878 -5.935052,2.06202 -6.332424,2.01686 -0.130019,-0.0148 1.186169,-0.49308 2.924863,-1.06291 z m 7.289781,-2.7716 c 1.091406,-0.34866 2.401094,-0.69473 2.910417,-0.76906 0.509323,-0.0743 -0.264584,0.22246 -1.719792,0.6595 -1.455208,0.43705 -2.764896,0.78312 -2.910416,0.76905 -0.145521,-0.0141 0.628385,-0.31084 1.719791,-0.65949 z m -18.832351,1.83817 c 3.445553,-0.94092 8.705424,-2.37316 11.688601,-3.18274 2.983177,-0.80959 5.713857,-1.55351 6.068177,-1.65317 0.354319,-0.0996 0.695848,-0.33609 0.758954,-0.5254 0.149191,-0.44757 0.138478,-0.44516 -9.985748,2.25537 -4.574897,1.2203 -8.525322,2.21873 -8.778724,2.21873 -0.253404,0 -1.623396,-0.53963 -3.04443,-1.19918 -1.421035,-0.65954 -2.745307,-1.13716 -2.942831,-1.06136 -0.197522,0.0758 -0.2941,0.0326 -0.214617,-0.096 0.120055,-0.19425 -0.399444,-0.55386 -0.800129,-0.55386 -0.06086,0 -0.110651,1.31771 -0.110651,2.92825 0,2.84204 0.01614,2.92312 0.548378,2.7542 0.301609,-0.0957 3.367468,-0.9439 6.81302,-1.88482 z m -0.741021,-2.1993 c -0.321543,-0.60081 -2.576967,-1.6757 -2.985847,-1.423 -0.161178,0.0996 -0.197887,0.0435 -0.08792,-0.13444 0.103833,-0.16801 0.131967,-0.30547 0.06252,-0.30547 -0.06945,0 -0.334129,-0.0798 -0.588185,-0.17725 -0.350639,-0.13456 -0.40758,-0.0868 -0.236363,0.19843 0.124053,0.20664 -0.07018,0.0954 -0.431633,-0.24721 -0.361453,-0.3426 -1.038733,-0.78334 -1.505066,-0.97942 -0.735756,-0.30936 -0.847883,-0.30402 -0.847883,0.0404 0,0.24396 0.994142,0.85761 2.579687,1.59236 1.418828,0.65749 2.877344,1.36293 3.241146,1.56764 0.910368,0.51227 1.125371,0.47676 0.799544,-0.13205 z m 2.772331,0.1069 c 0.727604,-0.22314 4.239948,-1.18073 7.805208,-2.12799 13.125392,-3.48729 16.139583,-4.38425 16.139583,-4.80281 0,-0.50131 1.008766,-0.737076 -13.625271,3.18453 -9.601502,2.57299 -12.188283,3.3559 -12.256381,3.70951 -0.106048,0.55067 0.239744,0.55723 1.936861,0.0368 z m 8.415432,-3.95077 c 16.178337,-4.328871 14.993215,-3.970424 14.108994,-4.267352 -0.620311,-0.208307 -1.719593,0.02106 -6.019197,1.255902 -5.492697,1.5775 -7.072786,1.97778 -6.843527,1.73366 0.121666,-0.12955 7.50094,-2.291634 10.570752,-3.097168 1.179192,-0.309428 1.180653,-0.31128 0.529167,-0.671973 -0.35931,-0.19893 -0.861648,-0.365911 -1.116309,-0.371065 -0.254661,-0.0052 -0.463021,-0.109101 -0.463021,-0.230987 0,-0.121885 -0.647224,-0.441605 -1.438272,-0.710493 l -1.438273,-0.488884 -12.602527,3.307612 -12.602527,3.307608 2.994445,1.48448 c 1.646944,0.81646 3.209515,1.49323 3.472379,1.50392 0.262863,0.0107 5.144426,-1.22917 10.847916,-2.75526 z m -13.288176,1.07713 c 0.211817,-0.2115 6.200261,-1.74099 6.724827,-1.71757 0.291042,0.013 -1.018646,0.42638 -2.910417,0.91862 -3.387341,0.8814 -4.032271,1.01649 -3.81441,0.79895 z m 8.841494,-1.742 c 0.291041,-0.12507 0.767291,-0.22389 1.058333,-0.21961 0.425394,0.006 0.399449,0.0493 -0.132292,0.21961 -0.904655,0.28972 -1.600258,0.28972 -0.926041,0 z m -0.79375,-1.7176 c 2.037291,-0.48682 5.004736,-1.252015 6.594324,-1.700433 2.872092,-0.810208 4.063942,-1.028227 2.798384,-0.511895 -1.084472,0.442452 -11.923112,3.137788 -12.533498,3.116818 -0.309858,-0.0107 1.103498,-0.41767 3.14079,-0.90449 z m 11.195182,-1.902726 c 0.190995,-0.07643 0.4192,-0.06703 0.507119,0.02088 0.08792,0.08792 -0.06835,0.150452 -0.347266,0.138964 -0.308226,-0.0127 -0.370919,-0.07539 -0.159853,-0.159851 z m 1.240234,-0.312798 c 0.291042,-0.12736 0.945886,-0.307129 1.455209,-0.399484 0.635717,-0.115276 0.760142,-0.09532 0.396875,0.06364 -0.291042,0.12736 -0.945886,0.307128 -1.455209,0.399484 -0.635717,0.115276 -0.760142,0.09532 -0.396875,-0.06364 z m 2.728516,-0.745535 c 0.190995,-0.07643 0.4192,-0.06703 0.507119,0.02087 0.08792,0.08792 -0.06835,0.150453 -0.347266,0.138965 -0.308226,-0.0127 -0.370919,-0.07539 -0.159853,-0.159851 z"
       style="fill:#28220b;stroke-width:0.264583"
       id="path1" />
  </g>
</svg>
