<?xml version="1.0" encoding="UTF-8" standalone="no"?>
<!-- Created with Inkscape (http://www.inkscape.org/) -->

<svg
   width="24"
   height="24"
   viewBox="0 0 48 48"
   version="1.1"
   id="svg1"
   inkscape:version="1.4.2 (f4327f4, 2025-05-13)"
   sodipodi:docname="single_drawer_desk.svg"
   xmlns:inkscape="http://www.inkscape.org/namespaces/inkscape"
   xmlns:sodipodi="http://sodipodi.sourceforge.net/DTD/sodipodi-0.dtd"
   xmlns="http://www.w3.org/2000/svg"
   xmlns:svg="http://www.w3.org/2000/svg">
  <sodipodi:namedview
     id="namedview1"
     pagecolor="#ffffff"
     bordercolor="#000000"
     borderopacity="0.25"
     inkscape:showpageshadow="2"
     inkscape:pageopacity="0.0"
     inkscape:pagecheckerboard="0"
     inkscape:deskcolor="#d1d1d1"
     inkscape:document-units="mm"
     inkscape:zoom="11.01807"
     inkscape:cx="15.92838"
     inkscape:cy="15.38382"
     inkscape:window-width="1920"
     inkscape:window-height="991"
     inkscape:window-x="-9"
     inkscape:window-y="-9"
     inkscape:window-maximized="1"
     inkscape:current-layer="layer1" />
  <defs
     id="defs1" />
  <g
     inkscape:label="Ebene 1"
     inkscape:groupmode="layer"
     id="layer1"
     transform="translate(-58.208332,-71.663051)">
    <path
       d="m 64.802949,111.4335 -4.960937,-2.97937 V 97.417416 86.380696 l 0.958315,-0.264605 c 0.527071,-0.145531 7.839604,-1.945846 16.250071,-4.000701 l 15.291755,-3.736099 4.85045,2.033108 c 6.999637,2.93396 6.305657,2.394948 6.305657,4.897557 0,1.999824 0.0362,2.132031 0.66146,2.416924 0.62878,0.286493 0.66146,0.410662 0.66146,2.513541 0,2.102882 -0.0327,2.227051 -0.66146,2.513542 l -0.66146,0.301382 v 6.032748 6.032747 l -1.12448,0.29286 c -0.61846,0.16108 -2.958894,0.82932 -5.200957,1.48499 -2.242066,0.65566 -4.266129,1.20583 -4.497917,1.2226 -0.381413,0.0276 -9.488183,-4.77549 -10.277165,-5.42036 -0.238263,-0.19474 -0.33073,-1.3965 -0.33073,-4.298433 v -4.028115 l -3.902604,1.028677 c -2.146432,0.565771 -4.526036,1.205224 -5.28801,1.421005 l -1.385406,0.39233 -0.0698,8.526486 -0.0698,8.52648 -0.79375,0.0718 c -0.612588,0.0554 -1.926011,-0.60825 -5.754688,-2.90762 z m 6.154558,-8.47507 0.003,-10.649483 3.502735,-0.850733 c 1.926502,-0.467903 6.751679,-1.688293 10.722615,-2.711979 3.970932,-1.023684 7.304682,-1.861291 7.408333,-1.861344 0.103648,-5.6e-5 0.155937,4.583851 0.1162,10.186458 -0.04833,6.814921 0.01735,10.186561 0.198442,10.186561 0.179888,0 0.27069,-3.4493 0.27069,-10.28261 V 86.692698 l 4.299479,-1.12008 c 2.364714,-0.616042 4.418539,-1.138322 4.564059,-1.160623 0.14552,-0.02231 0.33448,0.614296 0.4199,1.41466 l 0.15531,1.455209 0.0431,-1.763702 0.0431,-1.763702 -3.505727,0.913405 c -1.928151,0.502372 -7.494323,1.936568 -12.369271,3.1871 -4.874947,1.250529 -10.530416,2.704726 -12.567708,3.231546 l -3.704166,0.957853 -0.06911,10.781766 c -0.04575,7.13676 0.02133,10.78178 0.198438,10.78178 0.175866,0 0.268578,-3.64944 0.270547,-10.64948 z m -1.06321,1.4552 c -0.0011,-4.911324 -0.07772,-9.732701 -0.170415,-10.714171 l -0.168537,-1.784487 -4.355092,-2.250408 c -2.395302,-1.237724 -4.402209,-2.250409 -4.459793,-2.250409 -0.05758,0 -0.104698,4.642343 -0.104698,10.316319 v 10.316316 l 0.859896,0.547 c 2.816018,1.79135 7.788894,4.70249 8.069791,4.72409 0.258588,0.0199 0.330319,-1.92239 0.328848,-8.90425 z M 92.059094,91.763606 c -0.03861,-0.03761 -2.09427,0.491059 -4.568124,1.174827 l -4.497917,1.243216 -0.07292,4.002977 -0.07292,4.002984 4.570836,2.47573 4.570838,2.47573 0.07021,-7.653536 c 0.03861,-4.209444 0.03861,-7.684312 0,-7.721928 z m 6.742813,13.880234 3.902603,-1.11099 -0.058,-5.715074 -0.058,-5.715079 -0.14042,5.529474 -0.14041,5.529479 -4.167191,1.20538 c -2.291953,0.66297 -4.167188,1.30812 -4.167188,1.43367 0,0.12556 0.20836,0.16659 0.463021,0.0912 0.254662,-0.0754 2.219193,-0.63702 4.365625,-1.24806 z M 97.7802,104.82791 c 1.616964,-0.45705 3.02662,-0.90429 3.13257,-0.99387 0.10596,-0.0896 -1.41209,-0.96264 -3.373433,-1.94013 l -3.566076,-1.77726 v 2.93748 c 0,2.61269 0.04793,2.91908 0.433502,2.77112 0.238424,-0.0915 1.75647,-0.54029 3.373437,-0.99734 z m 3.86598,-6.403918 v -4.865164 l -2.693106,0.786276 -2.693101,0.786275 -0.980943,-0.55132 c -0.539517,-0.303226 -1.054028,-0.55132 -1.143354,-0.55132 -0.08933,0 -0.162415,1.222319 -0.162415,2.716265 v 2.716265 l 3.770313,1.898711 c 2.073672,1.04429 3.800076,1.90556 3.836456,1.91394 0.0364,0.008 0.0662,-2.17409 0.0662,-4.849928 z m -21.695835,-4.22868 c 3.56526,-0.944922 7.672916,-2.031132 9.128125,-2.413796 1.455208,-0.382667 2.764896,-0.815917 2.910416,-0.962782 0.323771,-0.326757 0.506934,-0.369845 -8.202083,1.929488 -3.783542,0.998921 -8.097776,2.126654 -9.58719,2.506075 -1.489414,0.37942 -2.649339,0.784812 -2.577608,0.900871 0.07173,0.11606 0.516432,0.109131 0.988232,-0.0154 0.4718,-0.124529 3.774847,-0.999535 7.340108,-1.944458 z m 1.472022,-1.49733 c 5.083982,-1.330359 9.273247,-2.448181 9.309476,-2.484045 0.03623,-0.03587 -0.678497,-0.360543 -1.588286,-0.721506 -1.352785,-0.536726 -1.822733,-0.610677 -2.579415,-0.405903 -0.508891,0.137719 -4.080412,1.057225 -7.936714,2.043346 l -7.011458,1.792949 -0.08479,0.842729 c -0.09696,0.963758 0.111365,1.682668 0.430461,1.485456 0.119417,-0.0738 4.376743,-1.222664 9.460724,-2.553026 z m 22.605063,-2.380977 v -1.780016 l -3.63802,1.024035 c -2.000914,0.563219 -3.727321,1.024956 -3.836461,1.026084 -0.236988,0.0024 -0.262163,1.733946 -0.04127,2.838418 l 0.157168,0.785847 3.679293,-1.057177 3.67929,-1.057178 z m -8.202085,1.998737 c 0,-1.62932 -0.03813,-1.732717 -0.780611,-2.116667 -0.429337,-0.222017 -0.846056,-0.40367 -0.926042,-0.40367 -0.07999,0 -0.145431,0.752306 -0.145431,1.671789 0,1.621946 0.02564,1.684549 0.859896,2.099746 0.472943,0.235376 0.889662,0.435571 0.926042,0.444879 0.03638,0.0093 0.06615,-0.753928 0.06615,-1.696077 z M 77.789622,89.434228 c 4.171575,-1.071771 11.245419,-2.887475 15.719655,-4.034896 4.474234,-1.147421 8.135233,-2.145749 8.135543,-2.21851 2.6e-4,-0.07276 -2.113293,-1.000707 -4.696899,-2.062104 l -4.69746,-1.929813 -10.449538,2.553883 c -5.747245,1.404636 -12.707652,3.112884 -15.467568,3.796107 l -5.018032,1.242224 4.224282,2.269664 c 2.323354,1.248315 4.323519,2.283717 4.444809,2.300894 0.12129,0.01717 3.633634,-0.845677 7.805208,-1.917449 z m 20.681556,-0.159414 c 0,-0.371184 -1.905823,-0.832776 -2.718684,-0.658469 -1.320429,0.28315 -1.394912,0.42911 -0.464486,0.910252 0.701114,0.362561 1.079886,0.396372 2.022903,0.18058 0.638146,-0.146028 1.160267,-0.340592 1.160267,-0.432363 z m -7.541726,0.01122 c -1.415079,-0.630452 -2.432764,-0.935318 -2.163,-0.647967 0.234484,0.249775 2.523723,1.115171 2.957851,1.118153 0.145521,0.0011 -0.212161,-0.210585 -0.794851,-0.470186 z m 1.191726,-0.950875 c 0,-0.592863 -0.08039,-0.647285 -0.727604,-0.492586 -1.035421,0.247489 -1.230966,0.400585 -0.828982,0.649023 0.207333,0.128138 0.43057,0.09041 0.543182,-0.0918 0.132558,-0.214485 0.2448,-0.169635 0.366019,0.146259 0.259929,0.677362 0.647385,0.551143 0.647385,-0.210894 z m 9.104922,0.191021 1.56431,-0.468291 -2.18113,-0.982967 c -2.330623,-1.050343 -3.461019,-1.103008 -3.461019,-0.161248 0,0.275265 -0.0182,0.58978 -0.04046,0.698921 -0.04516,0.221472 1.875165,1.379929 2.289421,1.381117 0.14552,5.29e-4 0.968518,-0.209973 1.828888,-0.467532 z m -5.466901,-0.611637 c 0.36154,-0.13525 0.595312,-0.444191 0.595312,-0.786728 0,-0.429014 -0.110831,-0.521145 -0.463021,-0.384895 -0.254661,0.09852 -0.790442,0.245205 -1.190625,0.325964 -0.555066,0.112017 -0.727604,0.300075 -0.727604,0.793052 0,0.679466 0.102227,0.682479 1.785938,0.05261 z m 5.951731,-1.955594 c -0.13151,-0.687972 -0.28568,-0.7346 -1.38767,-0.419685 l -0.661457,0.189027 0.793747,0.435464 c 1.11754,0.613101 1.40284,0.566555 1.25538,-0.204806 z"
       style="fill:#28220b;stroke-width:0.264583"
       id="path1" />
  </g>
</svg>
