<?xml version="1.0" encoding="UTF-8" standalone="no"?>
<!-- Created with Inkscape (http://www.inkscape.org/) -->

<svg
   width="24mm"
   height="24mm"
   viewBox="0 0 24 24"
   version="1.1"
   id="svg1"
   inkscape:version="1.4.2 (f4327f4, 2025-05-13)"
   sodipodi:docname="spirit_level.svg"
   xmlns:inkscape="http://www.inkscape.org/namespaces/inkscape"
   xmlns:sodipodi="http://sodipodi.sourceforge.net/DTD/sodipodi-0.dtd"
   xmlns="http://www.w3.org/2000/svg"
   xmlns:svg="http://www.w3.org/2000/svg">
  <sodipodi:namedview
     id="namedview1"
     pagecolor="#ffffff"
     bordercolor="#000000"
     borderopacity="0.25"
     inkscape:showpageshadow="2"
     inkscape:pageopacity="0.0"
     inkscape:pagecheckerboard="0"
     inkscape:deskcolor="#d1d1d1"
     inkscape:document-units="mm"
     inkscape:zoom="0.68862935"
     inkscape:cx="58.81248"
     inkscape:cy="15.24768"
     inkscape:window-width="1920"
     inkscape:window-height="991"
     inkscape:window-x="-9"
     inkscape:window-y="-9"
     inkscape:window-maximized="1"
     inkscape:current-layer="layer1" />
  <defs
     id="defs1" />
  <g
     inkscape:label="Ebene 1"
     inkscape:groupmode="layer"
     id="layer1"
      transform="translate(0 8.644207) scale(0.782072) translate(-89.697704,-144.33021)">
    <path
       d="m 90.4875,152.73631 c -0.706062,-0.26877 -0.785583,-0.6804 -0.7897,-4.08773 -0.0033,-2.70066 0.07699,-3.43558 0.411724,-3.77031 0.44931,-0.44931 2.580854,-0.58044 7.257142,-0.44646 2.289278,0.0656 2.561643,0.1292 3.052644,0.71281 0.52607,0.6253 0.6346,0.64079 4.48798,0.64079 h 3.94887 l 0.58082,-0.7276 0.58081,-0.7276 4.84106,0.0448 c 4.29616,0.0398 4.87965,0.0976 5.18382,0.51359 0.23785,0.32529 0.34275,1.49333 0.34275,3.81674 0,2.90748 -0.0637,3.40563 -0.48386,3.78589 -0.43826,0.39662 -1.82825,0.43592 -14.75052,0.417 -7.846665,-0.0115 -14.445259,-0.0889 -14.66354,-0.17197 z m 0.655245,-7.44218 c -0.404079,-0.40408 -0.647504,0.87246 -0.651195,3.41493 -0.0027,1.88475 0.103368,2.89901 0.326679,3.12282 0.264628,0.26522 0.345583,-0.3395 0.405048,-3.02572 0.04087,-1.84645 0.0046,-3.42686 -0.08053,-3.51203 z m 26.948375,3.4017 0.0453,-3.30729 -3.88486,-0.0731 -3.88486,-0.0731 -0.87764,1.7883 c -0.76349,1.55569 -0.99809,1.81815 -1.80368,2.01781 -1.30054,0.32233 -5.93211,0.10403 -6.4222,-0.3027 -0.2192,-0.18192 -0.66434,-1.04148 -0.98919,-1.91012 l -0.590633,-1.57934 h -3.936491 -3.93649 v 3.44205 3.44205 l 13.117684,-0.0686 13.11769,-0.0686 z m -23.919806,1.87244 c -1.333465,-1.33347 -0.951042,-3.59341 0.744194,-4.39785 2.46044,-1.16756 4.918533,1.37937 3.667016,3.79953 -0.537506,1.03942 -1.153226,1.37171 -2.541733,1.37171 -0.858678,0 -1.263591,-0.16751 -1.869477,-0.77339 z m 2.329945,-0.18021 c -0.08792,-0.0879 -0.316124,-0.0973 -0.507119,-0.0209 -0.211066,0.0845 -0.148373,0.14715 0.159853,0.15985 0.278914,0.0115 0.435184,-0.0511 0.347266,-0.13897 z m -1.207691,-1.82514 c 0.09488,-1.83983 -0.07809,-1.99572 -0.937405,-0.84476 -0.505682,0.6773 -0.509521,0.74993 -0.08652,1.63696 0.243448,0.51052 0.553463,0.92821 0.688919,0.92821 0.135459,0 0.286213,-0.77418 0.33501,-1.72041 z m 2.592957,1.20864 c 0.439933,-0.82203 0.320087,-2.01024 -0.255276,-2.53094 -0.524129,-0.47433 -0.529166,-0.46213 -0.529166,1.28191 0,1.76695 0.273875,2.20303 0.784442,1.24903 z m -1.405573,-1.6049 c -0.01992,-0.8745 -0.156879,-1.5875 -0.304911,-1.5875 -0.148032,0 -0.284977,0.713 -0.304911,1.5875 -0.02596,1.13807 0.06038,1.5875 0.304911,1.5875 0.244531,0 0.330854,-0.44943 0.304911,-1.5875 z m 15.937348,2.77822 c -1.65942,-0.90187 -1.64293,-3.44853 0.0296,-4.57442 1.04463,-0.7032 2.06041,-0.64797 3.175,0.17264 0.85861,0.63214 1.17725,1.56817 0.94865,2.7867 -0.31616,1.68529 -2.47759,2.5258 -4.15327,1.61508 z m 2.93194,-0.86638 c 0.42405,-0.34338 0.55624,-0.69505 0.49233,-1.3098 l -0.0874,-0.8404 -1.36939,1.30981 -1.3694,1.3098 h 0.87706 c 0.48239,0 1.13793,-0.21123 1.45676,-0.46941 z m -1.21079,-1.18729 c 0.15077,-0.23902 0.19192,-0.51679 0.0914,-0.61727 -0.25171,-0.25171 -0.98922,0.3993 -0.98922,0.87321 0,0.47892 0.52945,0.32799 0.89778,-0.25594 z m -0.14302,-1.57741 0.6084,-0.73464 h -0.6459 c -1.00489,0 -2.04018,0.9598 -2.04018,1.89142 v 0.79467 l 0.73464,-0.60841 c 0.40405,-0.33462 1.00841,-0.93899 1.34304,-1.34304 z m 1.193,0.19141 c 0.0838,-0.21829 0.0515,-0.39688 -0.0716,-0.39688 -0.12313,0 -0.3721,0.17859 -0.55326,0.39688 -0.26813,0.32308 -0.25482,0.39687 0.0716,0.39687 0.22053,0 0.4695,-0.17859 0.55326,-0.39687 z m 4.40224,0.90378 c 0,-2.76977 -0.11512,-3.15274 -0.94769,-3.15274 -0.1958,0 -0.11765,6.51938 0.0805,6.71756 0.10515,0.10515 0.34327,-0.0168 0.52916,-0.27105 0.22442,-0.30691 0.338,-1.41371 0.338,-3.29377 z m -11.15497,-0.91623 c 0.41186,-0.90395 0.40782,-0.9136 -0.38248,-0.9136 -0.42035,0 -0.89263,0.25822 -1.20982,0.66146 -0.42863,0.54492 -0.74894,0.66146 -1.81792,0.66146 -1.09216,0 -1.36624,-0.10473 -1.73102,-0.66146 -0.32101,-0.48992 -0.66566,-0.66146 -1.32902,-0.66146 -1.00385,0 -1.07737,0.15192 -0.48373,0.99947 0.386,0.55108 0.60778,0.58803 3.52941,0.58803 3.08396,0 3.12083,-0.007 3.42458,-0.6739 z m -2.30195,-0.37563 0.62462,-0.52036 -1.65364,-0.009 c -0.90951,-0.005 -1.65365,0.0422 -1.65365,0.10459 0,0.0624 0.1871,0.30049 0.41578,0.52917 0.56621,0.56621 1.51419,0.52247 2.26689,-0.10459 z"
       style="fill:#2b1e17;fill-opacity:1;stroke-width:0.264583"
       id="path1" />
  </g>
</svg>

