<?xml version="1.0" encoding="UTF-8" standalone="no"?>
<!-- Created with Inkscape (http://www.inkscape.org/) -->

<svg
   width="26.682062mm"
   height="20.046854mm"
   viewBox="0 0 26.682062 20.046854"
   version="1.1"
   id="svg1"
   inkscape:version="1.4.2 (f4327f4, 2025-05-13)"
   sodipodi:docname="table_saw.svg"
   xmlns:inkscape="http://www.inkscape.org/namespaces/inkscape"
   xmlns:sodipodi="http://sodipodi.sourceforge.net/DTD/sodipodi-0.dtd"
   xmlns="http://www.w3.org/2000/svg"
   xmlns:svg="http://www.w3.org/2000/svg">
  <sodipodi:namedview
     id="namedview1"
     pagecolor="#ffffff"
     bordercolor="#000000"
     borderopacity="0.25"
     inkscape:showpageshadow="2"
     inkscape:pageopacity="0.0"
     inkscape:pagecheckerboard="0"
     inkscape:deskcolor="#d1d1d1"
     inkscape:document-units="mm"
     inkscape:zoom="0.68862935"
     inkscape:cx="50.09952"
     inkscape:cy="38.48224"
     inkscape:window-width="1920"
     inkscape:window-height="991"
     inkscape:window-x="-9"
     inkscape:window-y="-9"
     inkscape:window-maximized="1"
     inkscape:current-layer="layer1" />
  <defs
     id="defs1" />
  <g
     inkscape:label="Ebene 1"
     inkscape:groupmode="layer"
     id="layer1"
     transform="translate(-91.851277,-138.3771)">
    <path
       d="m 97.815016,158.19143 c -0.361318,-0.2102 -0.406533,-0.36364 -0.18559,-0.62986 0.201798,-0.24315 0.206333,-0.40497 0.01469,-0.52342 -0.157166,-0.0971 -0.277445,-1.11538 -0.277445,-2.34866 0,-2.0297 -0.05304,-2.23924 -0.782997,-3.09323 l -0.782998,-0.91605 -0.01074,0.97657 c -0.0059,0.53711 -0.142526,1.05801 -0.303583,1.15755 -0.204012,0.12609 -0.183949,0.2483 0.06615,0.40292 0.298125,0.18432 0.291436,0.28951 -0.03947,0.62051 -0.501391,0.50153 -1.624208,0.2528 -1.566386,-0.347 0.02275,-0.23611 0.02768,-2.40684 0.01093,-4.82382 l -0.03048,-4.39452 -1.077265,-1.22384 c -0.722849,-0.8212 -1.049274,-1.42102 -0.992187,-1.82319 0.08452,-0.59543 0.11752,-0.59982 5.046014,-0.67133 3.007207,-0.0436 4.960931,-0.17389 4.960931,-0.33073 0,-0.14231 0.23813,-0.25875 0.52917,-0.25875 0.29104,0 0.52917,-0.12609 0.52917,-0.2802 0,-0.15411 0.12427,-0.20339 0.27617,-0.10951 0.1519,0.0939 0.45862,0.0193 0.68162,-0.16581 0.24063,-0.1997 0.47792,-0.23585 0.58373,-0.0889 0.0981,0.13616 0.41639,0.26331 0.70743,0.28255 0.81902,0.0541 1.7198,0.39842 1.7198,0.65733 0,0.12855 0.53578,0.23373 1.19062,0.23373 h 1.19063 v -1.05833 c 0,-1.00072 0.0434,-1.05834 0.79775,-1.05834 0.84348,0 3.00228,1.56906 6.64047,4.82641 1.42978,1.28011 1.82219,1.79077 1.82219,2.37127 0,0.58976 -0.12075,0.74055 -0.59531,0.74343 -0.32742,0.002 -0.86586,0.0761 -1.19654,0.1647 -0.52147,0.13972 -0.57905,0.27925 -0.4341,1.05193 0.13174,0.70221 0.0694,0.92836 -0.29463,1.06803 -0.74167,0.28461 -1.32424,-0.27565 -1.24872,-1.2009 0.0546,-0.66926 -0.0318,-0.82278 -0.46302,-0.82278 -0.51231,0 -0.53018,0.17313 -0.53018,5.13732 0,3.8623 -0.0821,5.17045 -0.33073,5.27078 -0.26458,0.10676 -0.26458,0.13763 0,0.15434 0.1819,0.0115 0.33073,0.19948 0.33073,0.41776 0,0.27962 -0.28271,0.39688 -0.9569,0.39688 -0.82648,0 -0.93805,-0.0721 -0.81859,-0.5289 0.0761,-0.2909 0.0304,-0.59558 -0.10143,-0.67708 -0.13186,-0.0815 -0.23974,-0.97458 -0.23974,-1.98464 v -1.83646 h -1.05834 c -0.76435,0 -1.05833,0.11024 -1.05833,0.39687 0,0.2655 -0.26551,0.39688 -0.80205,0.39688 -0.46887,0 -0.86533,-0.16488 -0.95435,-0.39688 -0.12594,-0.32819 -0.8342,-0.39687 -4.09274,-0.39687 h -3.94044 v 1.96875 c 0,1.08282 -0.113864,2.03914 -0.253029,2.12515 -0.139166,0.086 -0.181346,0.34317 -0.09374,0.57148 0.279427,0.72818 -0.716325,1.10289 -1.586134,0.59688 z m 1.193998,-6.45319 c 0.07143,-4.51521 0.04151,-4.89508 -0.385577,-4.8948 -0.424276,2.7e-4 -0.463021,0.4099 -0.463021,4.8951 0,4.11079 0.06176,4.89479 0.385577,4.89479 0.32103,0 0.398542,-0.81947 0.463021,-4.89509 z m 14.232656,-0.26428 c 0,-4.75603 -0.0153,-4.89479 -0.54166,-4.89479 -0.52786,0 -0.54056,0.12474 -0.49864,4.89479 0.0405,4.60327 0.0727,4.89479 0.54166,4.89479 0.47049,0 0.49864,-0.2763 0.49864,-4.89479 z m -17.991671,-0.21167 c 0,-0.62574 -0.130228,-1.26794 -0.289396,-1.4271 -0.159168,-0.15917 -0.248465,-0.48682 -0.198437,-0.72812 0.06512,-0.31411 0.447942,-0.0133 1.347729,1.05894 0.920755,1.09725 1.256771,1.35819 1.256771,0.976 0,-0.28693 -0.60688,-1.08935 -1.348621,-1.78316 -0.877729,-0.82101 -1.24125,-1.32783 -1.041114,-1.45152 0.377645,-0.2334 0.213003,-2.28781 -0.217882,-2.7187 -0.227343,-0.22734 -0.3028,0.63343 -0.3028,3.45429 0,3.16324 0.06273,3.75708 0.396875,3.75708 0.291248,0 0.396875,-0.3028 0.396875,-1.13771 z m 14.726631,0.87313 c 0.96258,0 1.67754,-0.11489 1.67754,-0.26955 0,-0.17718 -2.0553,-0.24519 -5.99739,-0.19844 -4.88485,0.0579 -6.020455,0.14043 -6.121788,0.44482 -0.105391,0.31658 0.555118,0.34692 4.319848,0.19844 2.44434,-0.0964 5.19915,-0.17527 6.12179,-0.17527 z m -4.8709,-1.05604 2.57969,-0.002 v -1.5875 -1.5875 h -1.19063 c -0.65484,0 -1.19062,-0.11906 -1.19062,-0.26458 0,-0.14552 0.46651,-0.26458 1.03669,-0.26458 0.57018,0 1.22502,-0.0723 1.45521,-0.1606 0.35903,-0.13778 0.41851,0.12548 0.41851,1.85208 0,1.1654 0.11138,2.01268 0.26459,2.01268 0.15253,0 0.26458,-0.82841 0.26458,-1.95607 0,-1.45675 0.0971,-1.99332 0.3803,-2.102 0.22092,-0.0848 0.42982,0.042 0.49847,0.30243 0.0833,0.31609 0.12723,0.27081 0.14887,-0.15352 l 0.0307,-0.60186 -4.29948,0.0727 -4.29948,0.0727 -0.0785,1.34641 c -0.0545,0.93437 0.0396,1.4444 0.30729,1.66659 0.3298,0.27371 0.36585,0.17158 0.24845,-0.70372 -0.0998,-0.74376 -0.0158,-1.14544 0.30692,-1.46815 0.56717,-0.56717 1.68078,-0.57025 2.30385,-0.006 0.53234,0.48176 0.65332,1.80741 0.19103,2.09312 -0.20429,0.12625 -0.18495,0.24765 0.0639,0.40147 0.27736,0.17142 0.28615,0.29111 0.0395,0.5378 -0.24668,0.24668 -0.40863,0.24151 -0.72763,-0.0232 -0.24942,-0.207 -0.76221,-0.28344 -1.30767,-0.19493 -0.70664,0.11468 -1.00137,0.0236 -1.38682,-0.42876 -0.85494,-1.00323 -1.256396,-1.86215 -0.9224,-1.97348 0.49019,-0.1634 0.37492,-1.43291 -0.12097,-1.33228 -0.325566,0.0661 -0.449831,0.52951 -0.545581,2.03476 -0.171415,2.69473 -0.11412,2.78926 1.568071,2.58719 0.76092,-0.0914 2.54434,-0.16722 3.96317,-0.16848 z m 6.01927,-0.0827 c 0,-0.0442 -0.41672,-0.48429 -0.92604,-0.97794 l -0.92604,-0.89756 v 0.97795 c 0,0.94126 0.0347,0.97794 0.92604,0.97794 0.50932,0 0.92604,-0.0362 0.92604,-0.0804 z m -0.2941,-1.62375 c -0.80992,-1.07496 -1.60636,-1.69078 -1.13233,-0.87555 0.48079,0.82686 1.76841,2.32591 1.89183,2.20248 0.0754,-0.0754 -0.26641,-0.67248 -0.7595,-1.32693 z M 97.366666,149.0927 c 0,-0.54067 -0.129217,-0.66146 -0.707578,-0.66146 h -0.70758 l 0.621408,0.66146 c 0.341775,0.3638 0.660186,0.66146 0.707578,0.66146 0.04739,0 0.08617,-0.29766 0.08617,-0.66146 z m 6.770364,5.3e-4 c 0.26895,-1.07158 -0.0401,-1.5004 -1.01386,-1.40656 -0.66987,0.0646 -0.8811,0.21987 -0.94878,0.6976 -0.13934,0.98351 0.14261,1.36982 0.99976,1.36982 0.6293,0 0.83192,-0.13907 0.96288,-0.66086 z m -1.61024,-0.13052 c -0.092,-0.28974 -0.093,-0.64693 -0.002,-0.79375 0.42931,-0.69464 1.60104,0.10728 1.30063,0.89014 -0.23104,0.60209 -1.09714,0.53779 -1.29842,-0.0964 z m 0.92529,-0.39918 c 0,-0.21828 -0.11906,-0.39687 -0.26458,-0.39687 -0.14552,0 -0.26458,0.17859 -0.26458,0.39687 0,0.21828 0.11906,0.39688 0.26458,0.39688 0.14552,0 0.26458,-0.1786 0.26458,-0.39688 z m 8.20209,-0.66146 c 0,-1.22462 -0.0478,-1.32291 -0.64306,-1.32291 -0.92658,0 -1.02022,0.99137 -0.18118,1.91822 0.36226,0.40019 0.69591,0.72761 0.74144,0.72761 0.0455,0 0.0828,-0.59531 0.0828,-1.32292 z m 4.23333,-0.2802 c 0,-0.13693 -0.11906,-0.24896 -0.26458,-0.24896 -0.14553,0 -0.26459,0.18562 -0.26459,0.41249 0,0.22687 0.11906,0.3389 0.26459,0.24896 0.14552,-0.0899 0.26458,-0.27555 0.26458,-0.41249 z m -18.896069,0.0156 c 0.206378,0 0.375235,-0.1786 0.375235,-0.39688 0,-0.21828 -0.168857,-0.39687 -0.375235,-0.39687 -0.20638,0 -0.563568,-0.0723 -0.79375,-0.1606 -0.318275,-0.12214 -0.418515,0.0114 -0.418515,0.55747 0,0.54609 0.10024,0.67961 0.418515,0.55748 0.230182,-0.0883 0.58737,-0.1606 0.79375,-0.1606 z m 18.547639,-1.90169 c -0.0845,-0.21107 -0.14715,-0.14838 -0.15985,0.15985 -0.0115,0.27891 0.051,0.43518 0.13897,0.34726 0.0879,-0.0879 0.0973,-0.31612 0.0209,-0.50711 z m -1.30694,-0.0165 c -0.0874,-0.2583 -2.04784,-0.31 -8.95173,-0.23607 l -8.839776,0.0947 -1.918229,-2.15866 c -1.055026,-1.18726 -1.918229,-2.00193 -1.918229,-1.81037 0,0.19155 0.863203,1.26922 1.918229,2.39483 l 1.918229,2.04655 8.951736,-1e-4 c 7.04468,-8e-5 8.92788,-0.0706 8.83977,-0.33083 z m 3.77204,-0.19844 c 0,-0.14552 -0.41672,-0.26458 -0.92605,-0.26458 -0.50932,0 -0.92604,0.11906 -0.92604,0.26458 0,0.14552 0.41672,0.26459 0.92604,0.26459 0.50933,0 0.92605,-0.11907 0.92605,-0.26459 z m -17.99167,-0.7347 c 0,-0.11304 -0.812923,-1.01223 -1.806494,-1.99818 l -1.806493,-1.79265 -1.699236,0.08 -1.699236,0.08 1.829345,1.91823 1.829345,1.91823 h 1.676384 c 0.922012,0 1.676385,-0.0925 1.676385,-0.20554 z m 13.42609,-0.1095 c -0.0356,-0.10051 -0.9576,-0.96096 -2.04901,-1.91211 -1.55899,-1.35864 -2.16871,-1.73067 -2.84427,-1.73548 -1.03138,-0.007 -1.04901,0.0929 -0.20988,1.19302 0.35751,0.46871 0.57579,0.92644 0.48507,1.01716 -0.0907,0.0907 -1.96676,0.16495 -4.16897,0.16495 -4.31559,0 -5.027505,-0.19054 -4.18605,-1.12034 0.93091,-1.02863 0.6921,-1.26091 -1.296322,-1.26091 h -1.854851 l 1.342383,1.54953 c 1.66207,1.91854 1.85617,2.07855 2.67873,2.20814 1.1528,0.18162 12.17071,0.087 12.10317,-0.10396 z m 2.24247,-0.49036 c 0.11584,-0.78926 -0.0825,-1.19871 -0.41812,-0.86311 -0.25727,0.25728 -0.20199,1.66851 0.0654,1.66851 0.12901,0 0.28775,-0.36243 0.35276,-0.8054 z m 1.33092,0.22478 c -0.61193,-0.61193 -1.03329,-0.51745 -0.7686,0.17233 0.0862,0.22456 0.425,0.40829 0.75295,0.40829 h 0.59626 z m -4.07243,-2.41418 c -0.92524,-0.84677 -2.01901,-1.78426 -2.4306,-2.0833 l -0.74834,-0.54372 0.0869,0.67143 c 0.0588,0.45425 0.81431,1.31057 2.33584,2.64745 1.97538,1.73564 2.26049,1.90739 2.34372,1.41187 0.07,-0.41673 -0.34484,-0.96646 -1.5875,-2.10373 z m 2.1542,0.89391 c 0,-0.31533 -4.5175,-4.05314 -4.69006,-3.88059 -0.13095,0.13096 0.53961,0.75799 3.10256,2.90115 1.60644,1.34332 1.5875,1.33164 1.5875,0.97944 z m -11.71386,-0.54495 c 0.36999,-0.29104 0.8192,-0.52916 0.99823,-0.52916 0.17904,0 0.62824,0.23812 0.99824,0.52916 0.59143,0.46522 2.30906,0.75777 2.30906,0.39329 0,-0.21617 -0.62922,-1.26387 -1.0022,-1.66873 -0.1874,-0.20343 -0.8485,-0.52268 -1.46909,-0.70946 -0.92922,-0.27965 -1.27768,-0.2768 -1.97437,0.0161 -0.46531,0.19564 -0.84601,0.48053 -0.84601,0.63307 0,0.15255 -0.19133,0.27736 -0.42518,0.27736 -0.26512,0 -0.36908,0.14622 -0.27614,0.3884 0.082,0.21362 0.0352,0.45877 -0.10399,0.54478 -0.48385,0.29904 -0.24882,0.65432 0.43285,0.65432 0.37723,0 0.9886,-0.23813 1.3586,-0.52917 z m 1.65969,0.26459 c 0,-0.14553 -0.29765,-0.26459 -0.66146,-0.26459 -0.3638,0 -0.66145,0.11906 -0.66145,0.26459 0,0.14552 0.29765,0.26458 0.66145,0.26458 0.36381,0 0.66146,-0.11906 0.66146,-0.26458 z"
       style="fill:#2b1e17;fill-opacity:1;stroke-width:0.264583"
       id="path1" />
  </g>
</svg>
