<?xml version="1.0" encoding="UTF-8" standalone="no"?>
<!-- Created with Inkscape (http://www.inkscape.org/) -->

<svg
   width="24"
   height="24"
   viewBox="0 0 48 48"
   version="1.1"
   id="svg1"
   inkscape:version="1.4.2 (f4327f4, 2025-05-13)"
   sodipodi:docname="tall_back_panel.svg"
   xmlns:inkscape="http://www.inkscape.org/namespaces/inkscape"
   xmlns:sodipodi="http://sodipodi.sourceforge.net/DTD/sodipodi-0.dtd"
   xmlns="http://www.w3.org/2000/svg"
   xmlns:svg="http://www.w3.org/2000/svg">
  <sodipodi:namedview
     id="namedview1"
     pagecolor="#ffffff"
     bordercolor="#000000"
     borderopacity="0.25"
     inkscape:showpageshadow="2"
     inkscape:pageopacity="0.0"
     inkscape:pagecheckerboard="0"
     inkscape:deskcolor="#d1d1d1"
     inkscape:document-units="mm"
     inkscape:zoom="15.636904"
     inkscape:cx="13.014085"
     inkscape:cy="18.961554"
     inkscape:window-width="1920"
     inkscape:window-height="991"
     inkscape:window-x="-9"
     inkscape:window-y="-9"
     inkscape:window-maximized="1"
     inkscape:current-layer="layer1" />
  <defs
     id="defs1" />
  <g
     inkscape:label="Ebene 1"
     inkscape:groupmode="layer"
     id="layer1"
     transform="translate(17.462498,15.159027)">
    <path
       d="M -13.02572,25.055542 -13.753324,24.66081 V 13.456866 c 0,-8.7283108 0.07417,-11.2655009 0.335669,-11.4825253 0.184618,-0.1532202 4.1434461,-1.4297528 8.7973956,-2.8367408 4.65394935,-1.406988 11.378758,-3.4430784 14.9440184,-4.5246474 14.744607,-4.472972 14.450041,-4.397433 15.344431,-3.934926 l 0.800883,0.414153 -0.06901,11.1451729 -0.06901,11.1451756 -1.422183,0.483362 c -0.782201,0.265848 -1.514395,0.426371 -1.627097,0.356717 -0.112705,-0.06966 -4.413816,1.230532 -9.558028,2.889302 -5.1442089,1.658774 -12.2106079,3.92453 -15.7031079,5.035016 -3.4924999,1.110482 -7.084682,2.312791 -7.982627,2.671797 -1.8853731,0.753787 -2.0826891,0.76904 -3.0637271,0.23682 z m 0.595313,-11.225749 c 0,-7.0555562 -0.0925,-10.8479164 -0.264584,-10.8479164 -0.172016,0 -0.264583,3.7335645 -0.264583,10.6715264 0,9.418447 0.06424,11.024306 0.440973,11.024306 0.04851,0 0.08819,-4.881562 0.08819,-10.847916 z m 2.008954,10.421231 0.6368791,-0.159848 V 13.271943 c 0,-5.950577 -0.06335,-10.819233 -0.14079,-10.819233 -0.07743,0 -0.5536831,0.1725189 -1.0583341,0.3833733 l -0.917543,0.3833759 V 13.976891 c 0,9.732303 0.04016,10.742022 0.421455,10.595705 0.231801,-0.08895 0.708051,-0.233657 1.058333,-0.321572 z m -0.686038,-1.277491 c 0,-0.209693 0.119063,-0.454845 0.264583,-0.544782 0.145521,-0.08994 0.264584,0.08163 0.264584,0.381259 0,0.29963 -0.119063,0.544783 -0.264584,0.544783 -0.14552,0 -0.264583,-0.171567 -0.264583,-0.38126 z m 0,-4.248949 c 0,-0.218281 0.119063,-0.396875 0.264583,-0.396875 0.145521,0 0.264584,0.178594 0.264584,0.396875 0,0.218282 -0.119063,0.396875 -0.264584,0.396875 -0.14552,0 -0.264583,-0.178593 -0.264583,-0.396875 z m 6.6143665,3.458726 c 2.4012128,-0.789837 8.3544357,-2.702536 13.2293835,-4.250446 4.874948,-1.547911 9.875573,-3.143861 11.1125,-3.54656 l 2.248958,-0.732176 0.07382,-3.647585 c 0.05828,-2.8799367 0.0024,-3.6202065 -0.265206,-3.51749 -0.449694,0.1725639 -11.098977,3.5099281 -18.0648636,5.661324 -3.05593745,0.943819 -7.2528905,2.249847 -9.3265624,2.902289 l -3.7703129,1.186256 v 3.690226 c 0,2.029626 0.0892,3.690228 0.198221,3.690228 0.109024,0 2.162852,-0.646229 4.5640624,-1.436066 z M -5.3363648,14.248409 C -2.0252049,13.179715 17.367769,7.1627192 21.436259,5.9417545 l 1.719791,-0.5161121 0.07069,-6.4762988 0.07069,-6.4762961 -7.743603,2.348942 C 11.294845,-3.8860928 4.8336619,-1.9239587 1.1956411,-0.817712 -2.4423797,0.2885348 -6.2821453,1.4465287 -7.3371709,1.7556043 l -1.91823,0.5619592 V 8.867427 c 0,3.602426 0.06693,6.549866 0.148731,6.549866 0.0818,0 1.778442,-0.525997 3.7703121,-1.168884 z M 23.288342,9.7287516 c 0,-2.2048602 -0.101261,-3.571875 -0.264583,-3.571875 -0.163322,0 -0.264584,1.3670148 -0.264584,3.571875 0,2.2048604 0.101262,3.5718744 0.264584,3.5718744 0.163322,0 0.264583,-1.367014 0.264583,-3.5718744 z m 1.702567,3.3138404 0.678683,-0.258035 V 2.3269668 c 0,-6.3098786 -0.09811,-10.4575903 -0.247359,-10.4575903 -0.136049,0 -0.552767,0.116115 -0.926042,0.258035 l -0.678682,0.258035 v 10.45759 c 0,6.3098785 0.09811,10.4575895 0.247359,10.4575895 0.136048,0 0.552767,-0.116115 0.926041,-0.258034 z m -0.464621,-0.988314 c -0.07958,-0.12877 -0.04837,-0.38998 0.06936,-0.58047 0.162629,-0.263138 0.260953,-0.270457 0.409281,-0.03046 0.107374,0.173736 0.07617,0.434946 -0.06936,0.580467 -0.148024,0.148024 -0.328329,0.161443 -0.409281,0.03046 z m -0.02178,-4.0039822 c -0.09156,-0.1481455 -0.03754,-0.3490357 0.12003,-0.4464236 0.406792,-0.2514097 0.669256,0.092961 0.329666,0.4325515 -0.190018,0.1900184 -0.338011,0.1945825 -0.449696,0.013864 z M -10.710616,2.1881267 c 0.454327,-0.1952308 0.416909,-0.2294467 -0.264583,-0.241935 -0.436563,-0.00799 -0.972344,0.1008697 -1.190625,0.241935 -0.312796,0.2021443 -0.256744,0.2533993 0.264583,0.2419349 0.363802,-0.00799 0.899583,-0.1168691 1.190625,-0.2419349 z m 9.4875457,-2.9413835 C 3.1631552,-2.0799755 9.4903215,-3.997739 12.837301,-5.0149565 c 3.346979,-1.017214 6.978385,-2.102582 8.069791,-2.411931 1.091406,-0.309345 1.776725,-0.602832 1.522931,-0.652187 -0.253793,-0.04936 -2.218325,0.446548 -4.365625,1.102013 -2.1473,0.655466 -6.642618,2.022079 -9.9895973,3.0369196 -15.7753896,4.7832724 -17.7342776,5.38607 -17.8373266,5.4889955 -0.3268511,0.3264509 1.292754,-0.1101725 8.5394556,-2.3021104 z M 25.008134,-8.7299445 c 0.177358,-0.178588 0.04652,-0.212129 -0.396875,-0.101745 -0.363802,0.09057 -0.876845,0.166301 -1.140095,0.168288 -0.26325,0.0021 -0.404781,0.123111 -0.314513,0.269166 0.185182,0.29963 1.447898,0.07067 1.851483,-0.335709 z"
       style="fill:#28220b;stroke-width:0.264583"
       id="path1" />
  </g>
</svg>
