<?xml version="1.0" encoding="UTF-8" standalone="no"?>
<!-- Created with Inkscape (http://www.inkscape.org/) -->

<svg
   width="24mm"
   height="24mm"
   viewBox="0 0 24 24"
   version="1.1"
   id="svg1"
   inkscape:version="1.4.2 (f4327f4, 2025-05-13)"
   sodipodi:docname="tape_measure.svg"
   xmlns:inkscape="http://www.inkscape.org/namespaces/inkscape"
   xmlns:sodipodi="http://sodipodi.sourceforge.net/DTD/sodipodi-0.dtd"
   xmlns="http://www.w3.org/2000/svg"
   xmlns:svg="http://www.w3.org/2000/svg">
  <sodipodi:namedview
     id="namedview1"
     pagecolor="#ffffff"
     bordercolor="#000000"
     borderopacity="0.25"
     inkscape:showpageshadow="2"
     inkscape:pageopacity="0.0"
     inkscape:pagecheckerboard="0"
     inkscape:deskcolor="#d1d1d1"
     inkscape:document-units="mm"
     inkscape:zoom="0.68862935"
     inkscape:cx="53.00384"
     inkscape:cy="38.48224"
     inkscape:window-width="1920"
     inkscape:window-height="991"
     inkscape:window-x="-9"
     inkscape:window-y="-9"
     inkscape:window-maximized="1"
     inkscape:current-layer="layer1" />
  <defs
     id="defs1" />
  <g
     inkscape:label="Ebene 1"
     inkscape:groupmode="layer"
     id="layer1"
      transform="translate(0 3.503505) scale(0.848969) translate(-91.057481,-138.46937)">
    <path
       d="m 117.58453,158.184 c -0.13752,-0.22251 -2.87291,-0.25092 -10.44954,-0.10854 -11.746609,0.22075 -12.31808,0.15452 -14.056128,-1.62909 -1.456129,-1.4943 -1.862677,-2.69981 -1.989209,-5.89846 -0.08997,-2.27433 -0.0074,-3.13797 0.455287,-4.7625 0.310851,-1.0914 0.65065,-2.6657 0.755108,-3.49844 0.319317,-2.54564 2.011492,-4.08955 4.140575,-3.7778 0.582084,0.0852 2.19003,0.24074 3.573217,0.34556 4.12247,0.31242 6.36467,1.75025 7.9009,5.06653 0.60672,1.30973 0.69087,1.87212 0.78378,5.23759 l 0.10407,3.77031 h 4.21222 c 3.45137,0 4.23902,-0.0699 4.36064,-0.3868 0.2097,-0.54648 1.11175,-0.77461 1.56745,-0.39641 0.29466,0.24454 0.38418,1.02032 0.38418,3.32915 v 3.01031 h -0.77813 c -0.42798,0 -0.86197,-0.13563 -0.96442,-0.30141 z m 0.9488,-3.03827 c 0,-2.23306 -0.0488,-2.50546 -0.39687,-2.21657 -0.40757,0.33826 -0.57714,3.45573 -0.23628,4.34399 0.39397,1.02668 0.63315,0.22303 0.63315,-2.12742 z m -11.6919,1.53473 c 0.83269,-0.64068 0.98219,-1.62234 0.97426,-6.39713 -0.006,-3.40703 -0.0947,-4.34003 -0.52602,-5.51327 -1.05621,-2.87288 -3.46079,-4.696 -6.56287,-4.97586 -3.123942,-0.28184 -6.298452,1.60055 -7.77705,4.61156 -0.709908,1.44566 -0.74246,1.68016 -0.74246,5.3484 0,3.69961 0.02569,3.88018 0.720492,5.06207 1.246238,2.11992 2.036008,2.34689 8.143048,2.34018 4.53289,-0.005 5.23359,-0.0628 5.7706,-0.47595 z m -7.969101,-2.94887 c -1.466691,-0.28385 -3.130378,-1.55103 -3.837146,-2.92263 -0.507677,-0.98524 -0.596926,-1.51042 -0.524867,-3.08864 0.0735,-1.60975 0.209656,-2.07633 0.887277,-3.04046 1.954909,-2.7815 5.611637,-3.3294 8.166337,-1.22359 3.55431,2.92976 2.35885,8.82611 -2.05522,10.13695 -0.73022,0.21685 -1.39536,0.38059 -1.47809,0.36385 -0.08273,-0.0167 -0.60396,-0.1182 -1.158291,-0.22548 z m 2.521021,-0.81407 c 4.11115,-1.14178 4.93361,-6.97907 1.30734,-9.27878 -3.113893,-1.97477 -7.187603,-0.0206 -7.623142,3.65682 -0.279815,2.3626 0.859626,4.45604 2.939629,5.40086 1.226304,0.55703 1.987173,0.60686 3.376173,0.2211 z m -2.968217,-0.80039 c -2.362584,-0.99347 -3.347236,-3.91986 -2.125027,-6.31559 1.533234,-3.00539 5.927694,-2.95942 7.397784,0.0774 1.40917,2.91094 -0.32914,6.2088 -3.38847,6.42847 -0.672628,0.0483 -1.520559,-0.0373 -1.884287,-0.19027 z m 3.468747,-1.06091 c 1.51171,-1.07643 1.98404,-3.10283 1.13853,-4.8846 -1.02519,-2.16044 -3.600942,-2.49725 -5.468982,-0.71514 -1.519495,1.44959 -1.438479,3.80115 0.182242,5.28987 0.773417,0.71043 1.148172,0.8599 2.155952,0.8599 0.811128,0 1.478608,-0.18428 1.992258,-0.55003 z m 12.33997,5.93483 c 1.3131,-0.15772 1.38906,-0.20823 1.38906,-0.92374 0,-0.41629 0.11907,-0.7569 0.26459,-0.7569 0.14552,0 0.26458,0.42665 0.26458,0.94809 0,1.60926 0.65075,0.93237 0.74081,-0.77055 l 0.0794,-1.50045 h -2.55759 -2.55759 l 0.12644,0.66146 c 0.0695,0.3638 0.0239,0.66145 -0.10144,0.66145 -0.12534,0 -0.2279,-0.29765 -0.2279,-0.66145 0,-0.62538 -0.0794,-0.66146 -1.4552,-0.66146 -1.41072,0 -1.45526,0.0222 -1.45684,0.7276 -8e-4,0.40018 -0.17949,1.06864 -0.39688,1.48545 -0.21738,0.41682 -0.39524,0.80377 -0.39524,0.8599 0,0.16502 4.77089,0.11233 6.28385,-0.0694 z m -4.35971,-1.15147 c 0,-0.65484 0.0516,-0.92273 0.11467,-0.59531 0.0631,0.32742 0.0631,0.8632 0,1.19062 -0.0631,0.32743 -0.11467,0.0595 -0.11467,-0.59531 z m 3.94827,-0.92604 c 0.005,-0.43656 0.0647,-0.58313 0.13177,-0.32569 0.0671,0.25743 0.0627,0.61461 -0.01,0.79375 -0.0725,0.17913 -0.12736,-0.0315 -0.12197,-0.46806 z M 95.800501,140.01487 c 1.140899,-0.56447 1.016944,-0.97423 -0.207605,-0.68627 -1.016942,0.23914 -2.459564,1.65673 -2.459564,2.41688 0,0.58428 0.04454,0.56804 0.799287,-0.29157 0.439608,-0.50069 1.280155,-1.14826 1.867882,-1.43904 z"
       style="fill:#2b1e17;fill-opacity:1;stroke-width:0.264583"
       id="path1" />
  </g>
</svg>

