<?xml version="1.0" encoding="UTF-8" standalone="no"?>
<!-- Created with Inkscape (http://www.inkscape.org/) -->

<svg
   width="23.769001mm"
   height="25.795347mm"
   viewBox="0 0 23.769001 25.795347"
   version="1.1"
   id="svg1"
   inkscape:version="1.4.2 (f4327f4, 2025-05-13)"
   sodipodi:docname="tool_cart.svg"
   xmlns:inkscape="http://www.inkscape.org/namespaces/inkscape"
   xmlns:sodipodi="http://sodipodi.sourceforge.net/DTD/sodipodi-0.dtd"
   xmlns="http://www.w3.org/2000/svg"
   xmlns:svg="http://www.w3.org/2000/svg">
  <sodipodi:namedview
     id="namedview1"
     pagecolor="#ffffff"
     bordercolor="#000000"
     borderopacity="0.25"
     inkscape:showpageshadow="2"
     inkscape:pageopacity="0.0"
     inkscape:pagecheckerboard="0"
     inkscape:deskcolor="#d1d1d1"
     inkscape:document-units="mm"
     inkscape:zoom="2.7545174"
     inkscape:cx="65.16568"
     inkscape:cy="47.37672"
     inkscape:window-width="1920"
     inkscape:window-height="991"
     inkscape:window-x="-9"
     inkscape:window-y="-9"
     inkscape:window-maximized="1"
     inkscape:current-layer="layer1" />
  <defs
     id="defs1" />
  <g
     inkscape:label="Ebene 1"
     inkscape:groupmode="layer"
     id="layer1"
     transform="translate(-93.133359,-135.73125)">
    <path
       d="m 110.33925,161.32007 c -0.35941,-0.18082 -0.82481,-0.63403 -1.03422,-1.00714 -0.33459,-0.5961 -0.32999,-0.78013 0.0379,-1.51752 l 0.41862,-0.83916 h -6.35802 c -5.953024,0 -6.345636,0.0295 -6.16341,0.46302 0.427223,1.01639 0.432676,1.68316 0.01894,2.31461 -0.337499,0.51509 -0.658074,0.66195 -1.444953,0.66195 -1.177329,0 -1.953135,-0.68312 -1.953135,-1.71979 0,-0.37345 0.211928,-0.91317 0.470955,-1.19939 0.453041,-0.50062 0.451279,-0.5204 -0.04631,-0.5204 -1.137018,0 -1.152258,-0.14697 -1.152258,-11.1125 0,-7.79639 0.08125,-10.55875 0.3175,-10.795 0.235736,-0.23574 2.890708,-0.3175 10.309441,-0.3175 9.60795,0 10.00247,0.0197 10.26584,0.51177 0.15064,0.28148 0.27389,0.82082 0.27389,1.19855 v 0.68677 l 0.80472,-0.59496 c 0.94553,-0.69906 1.65851,-0.44578 1.78902,0.63554 0.063,0.52167 -0.20717,0.90512 -1.25677,1.78389 l -1.337,1.11938 v 7.93026 c 0,4.96055 -0.10257,8.1219 -0.27389,8.44203 -0.1618,0.30231 -0.5524,0.51177 -0.95435,0.51177 -0.54711,0 -0.64165,0.0907 -0.48244,0.46302 0.43846,1.02525 0.42055,1.8183 -0.0535,2.3682 -0.64617,0.74957 -1.40138,0.93268 -2.19659,0.5326 z m -14.013525,-0.7273 c 0.359328,-0.1923 0.499964,-0.52726 0.47213,-1.12448 -0.03576,-0.76729 -0.05023,-0.78152 -0.147706,-0.14537 -0.193286,1.26138 -1.65032,1.25626 -1.682642,-0.006 -0.01778,-0.69408 -0.02005,-0.69485 -0.305204,-0.10355 -0.230482,0.47792 -0.19267,0.7003 0.191206,1.12447 0.545222,0.60247 0.75488,0.63876 1.472216,0.25485 z m 15.573385,-0.23564 c 0.34952,-0.34952 0.45657,-0.70264 0.34088,-1.12448 -0.15943,-0.58132 -0.17654,-0.57173 -0.31313,0.17558 -0.0915,0.50058 -0.3314,0.82651 -0.65412,0.88866 -0.60915,0.11731 -1.23417,-0.63664 -1.01065,-1.21914 0.10499,-0.27359 0.0538,-0.3495 -0.15046,-0.22325 -0.50215,0.31035 -0.35487,1.15666 0.27849,1.60029 0.75336,0.52767 0.89268,0.51865 1.50899,-0.0977 z m -15.855362,-1.15734 c 0,-0.3347 0.142875,-0.75142 0.3175,-0.92604 0.246943,-0.24694 0.152458,-0.3175 -0.425183,-0.3175 -0.568526,0 -0.705022,0.0981 -0.582083,0.41851 0.08833,0.23019 0.160599,0.64691 0.160599,0.92605 0,0.27913 0.119063,0.50752 0.264583,0.50752 0.145521,0 0.264584,-0.27384 0.264584,-0.60854 z m 15.216922,0.0848 c -0.0881,-0.14251 -0.0314,-0.4997 0.12598,-0.79375 0.24572,-0.45912 0.20608,-0.53463 -0.28065,-0.53463 -0.40813,0 -0.52183,0.11715 -0.40619,0.41851 0.0883,0.23019 0.1606,0.58737 0.1606,0.79375 0,0.20638 0.12609,0.37524 0.2802,0.37524 0.15411,0 0.20814,-0.1166 0.12006,-0.25912 z m 2.18254,-12.50703 0.0693,-10.2526 h -9.79269 -9.792689 v 10.32201 10.32201 l 9.723439,-0.0694 9.72344,-0.0694 z m -18.542483,9.68285 c -0.09894,-0.0989 -0.179896,-4.50742 -0.179896,-9.79661 v -9.61671 l 8.929689,0.0697 8.92969,0.0697 0.0725,4.23333 0.0725,4.23333 -8.86994,-0.0763 c -7.902807,-0.068 -8.869936,-0.0312 -8.869936,0.33763 0,0.36872 0.968426,0.40594 8.869036,0.34087 l 8.86904,-0.073 -0.0716,5.15938 -0.0716,5.15937 -8.7498,0.0697 c -4.812381,0.0383 -8.83074,-0.0113 -8.929683,-0.11024 z m 17.282603,-2.20837 V 152.4 h -2.91696 c -2.86798,0 -2.92119,0.0111 -3.16846,0.66146 -0.23492,0.61789 -0.37247,0.66146 -2.08847,0.66146 -2.17961,0 -2.67403,-0.152 -2.67403,-0.82206 0,-0.46239 -0.23371,-0.50086 -3.042704,-0.50086 h -3.042708 v 1.85208 1.85209 h 8.466662 8.46667 z m -6.61458,-1.45521 c 0,-0.31498 -0.38218,-0.39687 -1.85209,-0.39687 -1.4699,0 -1.85208,0.0819 -1.85208,0.39687 0,0.31499 0.38218,0.39688 1.85208,0.39688 1.46991,0 1.85209,-0.0819 1.85209,-0.39688 z m 6.61458,-2.24895 V 149.225 h -3.04271 c -2.85656,0 -3.04271,0.0321 -3.04271,0.52413 0,0.65902 -0.72568,0.8535 -2.78915,0.74749 -1.33991,-0.0688 -1.61566,-0.17033 -1.83765,-0.67631 -0.24842,-0.56623 -0.40553,-0.59531 -3.21561,-0.59531 h -2.95443 l -0.09168,1.32308 -0.09168,1.32308 8.53281,-1.6e-4 8.53281,-1.7e-4 z m -6.67977,-0.99219 c 0.0805,-0.24374 -0.38365,-0.33073 -1.76485,-0.33073 -1.51412,0 -1.87413,0.0786 -1.87413,0.40896 0,0.33584 0.31556,0.39498 1.76485,0.33073 1.11738,-0.0495 1.80494,-0.19957 1.87413,-0.40896 z m 6.67977,-1.78594 v -0.92604 h -3.01185 c -2.78933,0 -3.02207,0.0391 -3.15023,0.52917 -0.12417,0.47481 -0.36089,0.52916 -2.30459,0.52916 -1.94369,0 -2.18042,-0.0543 -2.30458,-0.52916 -0.12859,-0.49172 -0.3609,-0.52917 -3.282524,-0.52917 h -3.144142 v 0.92604 0.92604 h 8.598956 8.59896 z m -6.61458,-0.66146 c 0,-0.15119 -0.79375,-0.26458 -1.85209,-0.26458 -1.05833,0 -1.85208,0.11339 -1.85208,0.26458 0,0.15119 0.79375,0.26459 1.85208,0.26459 1.05834,0 1.85209,-0.1134 1.85209,-0.26459 z m 6.61458,-5.68136 v -3.56469 l -8.45228,-0.0733 -8.452276,-0.0733 -0.08053,3.175 c -0.04429,1.74625 -0.03688,3.38336 0.01646,3.63802 0.08993,0.42927 0.712052,0.46303 8.532816,0.46303 h 8.43582 z m -16.187234,2.63973 c -0.243985,-0.53549 -0.219551,-0.75026 0.129199,-1.13563 0.321167,-0.35488 0.415557,-0.92096 0.372708,-2.23521 -0.06407,-1.96504 0.282175,-2.65633 1.07438,-2.14505 0.369097,0.23821 0.440703,0.61871 0.376648,2.00143 -0.0598,1.29074 0.0209,1.7903 0.330729,2.04743 0.524928,0.43565 0.531064,1.56833 0.0096,1.76844 -0.220136,0.0845 -0.56342,0.0182 -0.762852,-0.14735 -0.277916,-0.23065 -0.398783,-0.20666 -0.517493,0.1027 -0.230675,0.60112 -0.673124,0.48896 -1.012897,-0.25676 z m 0.841402,-0.39795 c 0,-0.70616 0.801753,-0.688 0.98752,0.0224 0.103931,0.39743 0.202351,0.45749 0.352256,0.21494 0.123721,-0.20019 -0.0042,-0.60637 -0.315582,-1.00226 -0.287986,-0.36612 -0.49181,-0.96886 -0.45294,-1.33942 0.03887,-0.37057 -0.04082,-0.67375 -0.177075,-0.67375 -0.136264,0 -0.211784,0.27446 -0.167823,0.60993 0.04396,0.33546 -0.108048,0.89682 -0.337796,1.24746 -0.472281,0.7208 -0.549291,1.44991 -0.153144,1.44991 0.145521,0 0.264584,-0.23813 0.264584,-0.52917 z m 0.180739,-4.01836 c -0.08446,-0.21107 -0.147156,-0.14837 -0.15985,0.15985 -0.01148,0.27892 0.05105,0.43519 0.138964,0.34727 0.08792,-0.0879 0.09732,-0.31613 0.02088,-0.50712 z m 0.331888,-0.8408 c -0.251595,-0.23175 -0.286874,-0.18968 -0.154694,0.18445 0.09418,0.26656 0.187447,0.68328 0.207264,0.92604 0.01982,0.24275 0.08943,0.15975 0.154694,-0.18445 0.06526,-0.34421 -0.02801,-0.76093 -0.207264,-0.92604 z m 2.993105,5.74226 c -0.21946,-0.0885 -0.33073,-0.7439 -0.33073,-1.94787 0,-0.99793 -0.119065,-1.888 -0.264586,-1.97794 -0.400195,-0.24733 -0.316804,-1.61166 0.120703,-1.97476 0.523163,-0.43418 0.912913,-0.13897 0.773593,0.58596 -0.10492,0.54589 -0.0876,0.54041 0.20912,-0.0664 0.4503,-0.92076 0.42658,-0.90626 0.87456,-0.53447 0.45171,0.37488 0.54669,1.73752 0.13869,1.98968 -0.14552,0.0899 -0.26458,0.90659 -0.26458,1.81478 0,1.91381 -0.3381,2.48173 -1.25677,2.11103 z m 0.27235,-0.89359 c -0.0776,-0.29682 -0.20024,-0.48055 -0.2725,-0.40829 -0.14314,0.14314 0.1097,0.94795 0.2978,0.94795 0.0637,0 0.0523,-0.24285 -0.0253,-0.53966 z m 0.55804,-1.14089 c -0.13056,-1.11082 -0.0656,-1.56989 0.3016,-2.13025 0.3524,-0.53782 0.39294,-0.78938 0.16411,-1.01821 -0.22883,-0.22883 -0.30392,-0.18824 -0.30392,0.16428 0,0.33424 -0.17033,0.44397 -0.59531,0.38352 -0.37524,-0.0534 -0.5819,-0.25474 -0.55904,-0.54472 0.0199,-0.25303 -0.0693,-0.39477 -0.198434,-0.31499 -0.369684,0.22848 -0.274182,1.07461 0.162164,1.43675 0.22791,0.18915 0.39687,0.76615 0.39687,1.35531 0,0.56427 0.11907,1.02594 0.26459,1.02594 0.14552,0 0.26458,0.23812 0.26458,0.52917 0,0.29104 0.0606,0.52916 0.13461,0.52916 0.074,0 0.0597,-0.63718 -0.0318,-1.41596 z m 2.06972,-0.367 c 0.0668,-2.01904 0.13951,-2.32419 0.57391,-2.40728 0.74966,-0.1434 0.94924,0.41515 0.9537,2.66889 l 0.004,2.05052 h -0.80405 -0.80406 z m 1.00249,0.32775 c 0,-0.80036 -0.11906,-1.4552 -0.26458,-1.4552 -0.14552,0 -0.26459,0.65484 -0.26459,1.4552 0,0.80037 0.11907,1.45521 0.26459,1.45521 0.14552,0 0.26458,-0.65484 0.26458,-1.45521 z m 0,-2.11666 c 0,-0.21828 -0.11906,-0.39688 -0.26458,-0.39688 -0.14552,0 -0.26459,0.1786 -0.26459,0.39688 0,0.21828 0.11907,0.39687 0.26459,0.39687 0.14552,0 0.26458,-0.17859 0.26458,-0.39687 z m 1.50798,3.93332 c -0.24239,-0.24239 -0.2308,-1.47065 0.0174,-1.84608 0.28299,-0.42803 2.35166,-0.6468 4.03084,-0.42627 l 1.45521,0.19111 v 1.05833 1.05834 l -2.65921,0.0748 c -1.46256,0.0411 -2.74249,-0.008 -2.84427,-0.11025 z m 5.05803,-1.08905 -0.0837,-0.72761 h -2.24896 -2.24895 l -0.0837,0.72761 -0.0837,0.7276 h 2.41639 2.4164 z m -3.99183,0.30317 c -0.55098,-0.55098 -0.085,-0.76386 1.59286,-0.72775 1.51274,0.0326 1.80014,0.11354 1.87791,0.52917 0.0742,0.39635 0.0258,0.42712 -0.25135,0.15999 -0.41736,-0.40221 -2.80181,-0.44255 -2.93279,-0.0496 -0.0515,0.15462 -0.18052,0.1943 -0.28663,0.0882 z m -0.64966,-2.78145 c -0.52801,-0.5321 0.12357,-1.02745 1.35153,-1.02745 0.80803,0 1.18109,-0.13853 1.42505,-0.52917 0.58272,-0.93309 2.44265,-0.62123 2.44265,0.40957 0,0.80806 -0.40523,1.04128 -1.85208,1.06592 -0.65485,0.0112 -1.60735,0.10753 -2.11667,0.21418 -0.61671,0.12912 -1.03441,0.0847 -1.25048,-0.13305 z m 2.17652,-0.49828 c 0.43238,-0.18581 0.35979,-0.23005 -0.39687,-0.24194 -0.50933,-0.008 -1.10464,0.10087 -1.32292,0.24194 -0.30309,0.19587 -0.20931,0.25304 0.39688,0.24193 0.43656,-0.008 1.03187,-0.11687 1.32291,-0.24193 z m 1.50292,-0.79375 c 0.15042,0 0.20496,0.17859 0.12119,0.39687 -0.10359,0.26995 0.0143,0.39688 0.36857,0.39688 0.34447,0 0.52086,-0.17921 0.52086,-0.52917 0,-0.41158 -0.17639,-0.52917 -0.79375,-0.52917 -0.65585,0 -0.78841,0.10343 -0.76305,0.59531 0.0231,0.44799 0.0606,0.48073 0.15169,0.1323 0.0666,-0.25466 0.24407,-0.46302 0.39449,-0.46302 z m 6.12109,-0.73893 c 0.33979,-0.37602 0.39114,-0.58653 0.17558,-0.71976 -0.35476,-0.21925 -2.11105,1.38266 -2.11105,1.92548 0,0.40903 1.08974,-0.26983 1.93547,-1.20572 z"
       style="fill:#2b1e17;fill-opacity:1;stroke-width:0.264583"
       id="path1" />
  </g>
</svg>
