<?xml version="1.0" encoding="UTF-8" standalone="no"?>
<!-- Created with Inkscape (http://www.inkscape.org/) -->

<svg
   width="24"
   height="24"
   viewBox="0 0 60 59.999999"
   version="1.1"
   id="svg1"
   inkscape:version="1.4.2 (f4327f4, 2025-05-13)"
   sodipodi:docname="unfinished_sofa_frame.svg"
   xmlns:inkscape="http://www.inkscape.org/namespaces/inkscape"
   xmlns:sodipodi="http://sodipodi.sourceforge.net/DTD/sodipodi-0.dtd"
   xmlns="http://www.w3.org/2000/svg"
   xmlns:svg="http://www.w3.org/2000/svg">
  <sodipodi:namedview
     id="namedview1"
     pagecolor="#ffffff"
     bordercolor="#000000"
     borderopacity="0.25"
     inkscape:showpageshadow="2"
     inkscape:pageopacity="0.0"
     inkscape:pagecheckerboard="0"
     inkscape:deskcolor="#d1d1d1"
     inkscape:document-units="mm"
     inkscape:zoom="22.036139"
     inkscape:cx="16.26873"
     inkscape:cy="11.50383"
     inkscape:window-width="1920"
     inkscape:window-height="991"
     inkscape:window-x="-9"
     inkscape:window-y="-9"
     inkscape:window-maximized="1"
     inkscape:current-layer="layer1" />
  <defs
     id="defs1" />
  <g
     inkscape:label="Ebene 1"
     inkscape:groupmode="layer"
     id="layer1"
     transform="translate(-78.052082,-129.38125)">
    <path
       d="m 95.289282,177.56541 c -0.607788,-0.18952 -1.058206,-0.88451 -1.059505,-1.6348 -0.0011,-0.5916 -0.560308,-1.0175 -4.431771,-3.37481 -4.141018,-2.52146 -4.439928,-2.6598 -4.573355,-2.11667 -0.165557,0.67394 -1.245946,0.90921 -2.093118,0.45582 -0.424085,-0.22696 -0.542251,-0.55135 -0.542251,-1.4886 0,-1.00674 -0.126942,-1.30521 -0.79375,-1.86629 l -0.79375,-0.6679 v -5.92351 c 0,-5.85643 0.0067,-5.92771 0.595313,-6.295 0.327422,-0.20433 0.929624,-0.44919 1.338228,-0.54415 l 0.742915,-0.17265 -0.177871,-2.43852 c -0.160327,-2.19802 -0.127918,-2.48349 0.32862,-2.89462 0.303477,-0.2733 4.053885,-1.35737 9.356828,-2.70464 4.867688,-1.23669 9.326595,-2.36958 9.908675,-2.51753 0.58208,-0.14795 4.49026,-1.16329 8.68484,-2.2563 4.19458,-1.09301 7.89683,-1.98729 8.22723,-1.98729 0.93029,0 1.47741,0.83811 1.79389,2.74797 0.2794,1.68613 0.31785,1.74994 1.05434,1.74994 0.75098,0 10.98929,4.94908 11.92355,5.76371 0.41458,0.36149 0.46302,1.00973 0.46302,6.19586 v 5.79213 l -0.76322,0.43803 c -0.63075,0.362 -0.7899,0.66324 -0.9169,1.7355 -0.17368,1.46644 -0.53141,2.03519 -1.28008,2.03519 -1.01054,0 -1.53771,-0.50208 -1.53771,-1.46452 0,-0.5042 -0.0371,-0.91673 -0.0824,-0.91673 -0.0453,0 -3.17071,1.01187 -6.94531,2.2486 -3.77461,1.23673 -11.14918,3.63924 -16.38793,5.33891 -5.23875,1.69967 -9.673824,3.20269 -9.855725,3.34004 -0.181902,0.13736 -0.33073,0.74819 -0.33073,1.3574 0,1.51668 -0.789249,2.39684 -1.852083,2.06543 z m 0,-1.93058 c 0,-0.64859 -0.104793,-1.00918 -0.264583,-0.91042 -0.448038,0.2769 -0.296262,1.98437 0.176389,1.98437 0.04851,0 0.08819,-0.48328 0.08819,-1.07395 z m 1.120317,-0.0505 c 0.131384,-1.25667 0.09625,-1.38579 -0.308964,-1.13536 -0.340429,0.2104 -0.381596,2.25984 -0.04539,2.25984 0.130239,0 0.289698,-0.50601 0.354359,-1.12448 z m -0.123142,-7.7967 0.07113,-5.84005 -0.740444,-0.62303 c -0.407244,-0.34267 -3.177691,-2.01184 -6.15655,-3.70928 -4.347805,-2.4775 -5.560393,-3.05838 -6.14762,-2.94497 -0.402334,0.0777 -0.79102,0.23756 -0.863751,0.35524 -0.07273,0.11768 0.911294,0.80362 2.186723,1.52431 1.275427,0.72069 3.863165,2.22588 5.750528,3.34486 2.970665,1.76125 3.557024,2.0164 4.365625,1.89965 0.908937,-0.13125 0.91449,-0.12681 0.206452,0.16482 l -0.727604,0.2997 v 5.85795 c 0,3.22188 0.07387,5.93182 0.164147,6.0221 0.09028,0.0903 0.536768,0.0122 0.992188,-0.17355 l 0.82804,-0.3377 z m -2.584675,0.33998 v -5.67078 l -2.182812,-1.30396 c -1.200547,-0.71718 -3.790157,-2.22841 -5.754688,-3.35831 -1.964531,-1.12989 -3.661172,-2.10594 -3.770312,-2.169 -0.109141,-0.0631 -0.196914,2.42246 -0.195048,5.52336 l 0.0034,5.63802 3.766926,2.31362 c 2.071807,1.2725 4.600361,2.83892 5.619006,3.48094 1.018646,0.64202 2.000912,1.17846 2.182813,1.1921 0.255066,0.0191 0.330729,-1.27253 0.330729,-5.64599 z m -5.85098,1.47766 c -2.563193,-1.55435 -4.855146,-2.98774 -5.093229,-3.18533 -0.369488,-0.30665 -0.432874,-1.01315 -0.432874,-4.82477 0,-3.45624 0.07669,-4.46553 0.339307,-4.46553 0.307575,0 3.283632,1.66658 8.259651,4.62537 l 1.852083,1.10127 0.07211,4.8096 c 0.03966,2.64528 -0.01987,4.79967 -0.132291,4.78753 -0.112425,-0.0121 -2.301566,-1.2938 -4.864762,-2.84814 z m 4.481825,0.65338 c -7.395446,-4.45018 -7.839292,-4.68546 -8.517565,-4.51523 -0.383137,0.0962 -0.690202,0.25123 -0.682368,0.3446 0.0078,0.0934 2.061665,1.37788 4.564062,2.85448 4.409382,2.60187 4.552474,2.66441 4.635871,2.02633 0.04733,-0.36212 0.04733,-0.6817 0,-0.71018 z m 0.04624,-1.21039 c 0,-0.68443 -6.226807,-4.47473 -6.652262,-4.04927 -0.195136,0.19514 -0.05283,0.44284 0.474832,0.82653 1.202825,0.87463 5.761034,3.71756 5.978993,3.72907 0.109141,0.006 0.198437,-0.22209 0.198437,-0.50633 z m 0,-1.45542 c 0,-0.49904 -4.845129,-3.39392 -5.473382,-3.27025 -0.316378,0.0623 0.511328,0.69763 2.430674,1.86582 1.600729,0.97426 2.940182,1.77538 2.976563,1.78027 0.03638,0.005 0.06614,-0.16424 0.06614,-0.37584 z m 0,-1.75297 c 0,-0.76765 -0.0459,-0.80469 -0.79375,-0.64043 -0.606649,0.13324 -0.79375,0.0808 -0.79375,-0.22254 0,-0.22584 0.342067,-0.47201 0.79375,-0.57121 0.436563,-0.0959 0.79375,-0.29668 0.79375,-0.44621 0,-0.14953 -0.189656,-0.19909 -0.421454,-0.11014 -1.00125,0.38422 -1.695212,0.46615 -1.695212,0.20014 0,-0.1547 0.425611,-0.36112 0.945806,-0.45871 0.520192,-0.0976 0.846346,-0.27689 0.724786,-0.39845 -0.22597,-0.22597 -2.941018,0.441 -3.354639,0.8241 -0.125862,0.11657 0.143135,0.4043 0.597768,0.6394 0.454636,0.2351 1.331518,0.77725 1.948633,1.20478 0.617111,0.42752 1.151786,0.78108 1.188167,0.78568 0.03638,0.005 0.06614,-0.35828 0.06614,-0.80641 z m -8.47827,-0.50817 c 0.115334,0 0.17799,-1.56261 0.139232,-3.47245 -0.06844,-3.37253 -0.204904,-3.91585 -0.987526,-3.93183 -0.109141,-0.002 -0.198437,1.73509 -0.198437,3.86071 0,3.41546 0.04865,3.84609 0.418515,3.70417 0.230182,-0.0883 0.512879,-0.1606 0.628216,-0.1606 z m 1.139899,-0.42275 c 0.211963,-0.21196 -0.06545,-0.90017 -0.362855,-0.90017 -0.12995,0 -0.236275,0.23813 -0.236275,0.52917 0,0.51572 0.280635,0.6895 0.59913,0.371 z m 1.878068,-1.10113 c 0.438134,-0.12529 0.472662,-0.31912 0.311147,-1.74672 -0.216865,-1.91685 -0.170399,-1.82915 -1.332293,-2.51468 -1.05846,-0.62451 -1.029803,-0.73624 -0.613389,2.39139 0.261586,1.96473 0.382069,2.32617 0.727604,2.18278 0.227759,-0.0945 0.635879,-0.23526 0.906931,-0.31277 z m -2.103435,-1.32039 c -0.248232,-1.37303 -0.373763,-1.41006 -0.373763,-0.11025 0,0.60634 0.124457,1.10243 0.276571,1.10243 0.175096,0 0.210757,-0.36404 0.09719,-0.99218 z m 5.311082,0.34279 0.790056,-0.3124 -1.583806,-0.93622 c -0.871093,-0.51492 -1.619515,-0.90773 -1.66316,-0.87291 -0.04365,0.0348 0.0013,0.671 0.09978,1.41372 0.171566,1.29334 0.208457,1.34343 0.873106,1.18531 0.381683,-0.0908 1.049491,-0.30567 1.484022,-0.4775 z m 16.112449,7.5455 c 4.81914,-1.59141 12.57208,-4.12682 17.22875,-5.63424 l 8.46666,-2.74077 0.0801,-1.53622 c 0.0617,-1.18159 5.3e-4,-1.50303 -0.26458,-1.39242 -0.65298,0.27237 -13.33248,4.39625 -24.02494,7.81385 l -10.715626,3.42501 -0.08183,1.47913 c -0.05614,1.01478 0.01725,1.47914 0.233748,1.47914 0.173567,0 4.258508,-1.30207 9.077658,-2.89348 z m -22.704675,-1.80626 c -0.284964,-0.28497 -0.352613,0.0707 -0.189376,0.99557 l 0.163439,0.92604 0.08845,-0.88533 c 0.04864,-0.48693 0.0205,-0.95326 -0.06251,-1.03628 z m 1.171964,1.27577 c 0,-0.28245 -0.119063,-0.58714 -0.264583,-0.67707 -0.150062,-0.0927 -0.264584,0.12954 -0.264584,0.51355 0,0.37239 0.119063,0.67707 0.264584,0.67707 0.14552,0 0.264583,-0.2311 0.264583,-0.51355 z m 27.648961,-5.03031 c 7.7126,-2.46832 15.20617,-4.88807 16.65237,-5.37723 l 2.62945,-0.88938 -1.43883,-0.80823 c -4.88339,-2.74316 -7.35068,-4.05005 -7.64614,-4.05005 -0.1854,0 -2.55554,0.65458 -5.26698,1.45461 -13.15351,3.88109 -20.242041,6.11731 -20.342045,6.41733 -0.06053,0.18158 0.07846,0.33014 0.308874,0.33014 0.230407,0 0.418923,0.11907 0.418923,0.26459 0,0.14552 -0.138906,0.26458 -0.308681,0.26458 -0.169773,0 -0.242102,0.0666 -0.160729,0.14795 0.187362,0.18736 2.767472,-0.57311 3.644408,-1.07417 0.77473,-0.44266 0.35279,-0.51773 -0.68732,-0.12228 -0.481176,0.18294 -0.809958,0.18622 -0.986347,0.01 -0.17639,-0.17639 -0.024,-0.35605 0.457184,-0.539 0.917083,-0.34867 2.194473,-0.35389 2.407113,-0.01 0.26825,0.43405 1.05444,0.30499 2.55341,-0.41918 1.05346,-0.50893 1.21239,-0.64897 0.62159,-0.54769 -0.43657,0.0748 -1.00211,0.21667 -1.25677,0.31519 -0.31327,0.12119 -0.46302,0.0523 -0.46302,-0.21298 0,-0.2275 0.34711,-0.46153 0.82682,-0.55747 1.2516,-0.25033 2.08359,-0.19895 2.08359,0.12866 0,0.40851 1.87112,0.0447 2.38125,-0.46303 0.35227,-0.35059 0.3151,-0.37494 -0.33073,-0.2166 -1.01648,0.24921 -0.92905,-0.28616 0.10563,-0.64685 1.15156,-0.40143 1.99266,-0.36319 2.16989,0.0986 0.12995,0.33865 0.28556,0.34105 1.19973,0.0185 0.57772,-0.20383 1.38647,-0.56511 1.79722,-0.80283 0.41074,-0.23773 0.50868,-0.34828 0.21764,-0.24568 -1.16823,0.41185 -2.05483,0.45537 -1.9347,0.095 0.24292,-0.72878 3.12532,-0.93332 3.12532,-0.22178 0,0.21915 1.27173,0.0583 1.56819,-0.19831 0.0621,-0.0538 -0.11646,-0.26628 -0.39688,-0.47218 -0.49038,-0.36008 -0.48162,-0.38516 0.22942,-0.65661 1.58888,-0.6066 2.11021,-0.64409 2.45223,-0.17635 0.29144,0.39857 0.46852,0.41413 1.48019,0.13009 0.98595,-0.27682 1.06238,-0.34497 0.53822,-0.47986 -0.33602,-0.0865 -0.61259,-0.2716 -0.61461,-0.4114 -0.006,-0.38289 1.91378,-0.978 2.25704,-0.69982 0.16028,0.12988 0.70813,0.47058 1.21745,0.75709 0.50932,0.28652 1.98492,1.13265 3.27912,1.88028 1.29418,0.74764 2.51457,1.35934 2.71197,1.35934 1.64643,0 -0.90337,0.86281 -28.41064,9.61365 -2.464045,0.78389 -4.29725,1.50515 -4.299478,1.69161 -0.0028,0.23721 0.156993,0.2554 0.591426,0.0673 0.327422,-0.14176 6.905622,-2.27728 14.618232,-4.7456 z m -14.537839,3.13956 c 0.117441,-0.19003 0.266756,-0.19865 0.439981,-0.0254 0.173226,0.17323 0.660049,0.12665 1.43451,-0.13723 0.934788,-0.31852 1.112218,-0.47183 0.875778,-0.75673 -0.37963,-0.45742 -0.10203,-0.90964 0.55839,-0.90964 0.28245,0 0.51355,-0.11609 0.51355,-0.25797 0,-0.14188 -0.32742,-0.19282 -0.7276,-0.11319 -1.398648,0.27831 -1.78594,0.24404 -1.78594,-0.15801 0,-0.21828 -0.287835,-0.45641 -0.63963,-0.52917 -0.895075,-0.18512 -0.989086,-0.74012 -0.160594,-0.94805 0.963552,-0.24184 0.626248,-0.46586 -0.37148,-0.24673 -0.804257,0.17665 -0.812671,0.19609 -0.812671,1.87727 0,1.17148 0.102656,1.70525 0.33073,1.71965 0.264583,0.0167 0.264583,0.0476 0,0.15434 -0.385533,0.15557 -0.446731,0.61852 -0.08176,0.61852 0.136932,0 0.328964,-0.12943 0.426738,-0.28763 z m 4.748249,-1.29987 c 0.19522,-0.31587 -0.32326,-0.31587 -1.05833,0 -0.4725,0.20305 -0.45292,0.22939 0.18282,0.24599 0.3916,0.0102 0.78558,-0.10046 0.87551,-0.24599 z m 2.14836,-0.42847 c 0.51836,-0.1301 0.58363,-0.23435 0.33459,-0.53443 -0.36818,-0.44363 -0.35849,-0.45536 0.82435,-0.9986 0.62843,-0.28863 0.71346,-0.37859 0.26458,-0.27994 -1.86882,0.41072 -2.38125,0.44502 -2.38125,0.1594 0,-0.16456 0.20836,-0.30103 0.46302,-0.30326 0.25466,-0.002 0.63931,-0.11552 0.85477,-0.25176 0.25504,-0.16127 -0.13737,-0.1931 -1.12448,-0.0912 -1.07132,0.11058 -1.51623,0.0656 -1.51623,-0.15341 0,-0.17045 0.14883,-0.34765 0.33073,-0.39378 0.1819,-0.0461 0.71768,-0.21064 1.19063,-0.36558 0.47294,-0.15495 0.85989,-0.18128 0.85989,-0.0585 0,0.12276 0.26789,0.26407 0.59531,0.31403 0.32743,0.0499 0.56555,0.23683 0.52917,0.41527 -0.0364,0.17845 0.17572,0.32445 0.47132,0.32445 0.29562,0 0.60427,0.17406 0.68591,0.3868 0.1976,0.51495 0.95445,0.73267 1.80491,0.51922 0.52334,-0.13135 0.65403,-0.29347 0.5361,-0.66503 -0.11795,-0.37162 0.0574,-0.58895 0.71952,-0.89193 l 0.87547,-0.40058 -0.92604,0.15788 c -1.04533,0.17822 -0.98175,0.17355 -1.78594,0.13122 -0.83133,-0.0437 -0.74431,-0.7279 0.13229,-1.04017 0.56846,-0.2025 0.39485,-0.22817 -0.79375,-0.11733 -1.29962,0.12119 -1.52135,0.0777 -1.52135,-0.29857 0,-0.24224 0.31417,-0.55989 0.69815,-0.70588 1.11195,-0.42276 0.58358,-0.53104 -0.57599,-0.11803 -0.57651,0.20534 -1.34586,0.38038 -1.70966,0.38897 -0.3638,0.009 -1.19724,0.19494 -1.85209,0.41409 -0.95468,0.3195 -1.01592,0.37159 -0.30907,0.26285 1.00265,-0.15424 2.09853,0.29287 1.69846,0.69294 -0.38471,0.38471 -3.00881,0.33708 -3.25364,-0.0591 -0.16476,-0.26658 -0.56576,-0.23861 -1.949705,0.13601 -0.95826,0.25939 -1.74229,0.53083 -1.74229,0.60321 0,0.0724 0.297657,0.0569 0.661459,-0.0344 0.741365,-0.18608 1.984375,0.0519 1.984375,0.37986 0,0.11762 -0.327422,0.33448 -0.727604,0.48192 -0.661853,0.24384 -0.620009,0.26377 0.46302,0.22049 1.222925,-0.0489 1.926885,0.41459 0.859895,0.56613 -0.32742,0.0465 -0.595311,0.18702 -0.595311,0.31226 0,0.12524 0.386171,0.11696 0.858151,-0.0184 1.18307,-0.3393 1.16748,-0.34371 1.96932,0.55622 0.40083,0.44987 0.87746,0.73995 1.08495,0.66033 0.20354,-0.0781 0.65987,-0.21474 1.01406,-0.30364 z m 2.21727,-0.89444 c 0.32265,-0.20852 0.28846,-0.25724 -0.18282,-0.26054 -0.31884,-0.002 -0.65329,0.11502 -0.74322,0.26054 -0.2082,0.33686 0.40478,0.33686 0.92604,0 z m 24.87083,-1.45521 c 0,-0.50932 -0.11906,-0.92604 -0.26458,-0.92604 -0.29433,0 -0.35152,0.7885 -0.10399,1.43357 0.25207,0.65688 0.36857,0.49646 0.36857,-0.50753 z m 1.05833,-0.41249 c 0,-0.5735 -0.11906,-1.04272 -0.26458,-1.04272 -0.14552,0 -0.26458,0.54281 -0.26458,1.20624 0,0.73679 0.10297,1.1426 0.26458,1.04272 0.14552,-0.0899 0.26458,-0.63275 0.26458,-1.20624 z m -21.29895,0.54478 c 0.42257,-0.18158 0.32615,-0.23114 -0.47864,-0.24598 -0.6085,-0.0112 -0.94301,0.0862 -0.84428,0.24598 0.19313,0.31249 0.59571,0.31249 1.32292,0 z m -7.3477,-0.42444 c -0.0879,-0.0879 -0.31613,-0.0973 -0.50712,-0.0209 -0.21107,0.0845 -0.14837,0.14715 0.15985,0.15985 0.27892,0.0115 0.43519,-0.0511 0.34727,-0.13897 z m 9.59666,-0.39327 c 0.25917,-0.14662 0.28212,-0.22732 0.0661,-0.23258 -0.56085,-0.0136 -0.36507,-0.80443 0.26458,-1.06873 0.46702,-0.19603 0.31021,-0.23695 -0.7276,-0.18991 -1.11805,0.0507 -1.31723,-0.0117 -1.28617,-0.40305 0.0235,-0.29558 -0.15027,-0.46302 -0.48041,-0.46302 -0.71588,0 -1.58824,-0.50279 -1.40022,-0.80702 0.20854,-0.33742 -0.98493,-0.31954 -1.90024,0.0285 -0.54405,0.20685 -0.64315,0.33707 -0.3802,0.49959 0.46691,0.28856 0.13163,0.80814 -0.5215,0.80814 -0.28245,0 -0.51355,0.10792 -0.51355,0.23982 0,0.13503 0.4035,0.11598 0.92352,-0.0436 0.67655,-0.20764 1.10507,-0.20072 1.60242,0.0259 0.73911,0.33675 0.65269,0.83623 -0.14469,0.83623 -0.27387,0 -0.57152,0.11906 -0.66146,0.26458 -0.21346,0.34538 0.11805,0.33426 1.1916,-0.04 0.70492,-0.24574 0.93094,-0.23296 1.17006,0.0661 0.75976,0.95036 1.68471,1.10874 2.79772,0.47905 z m 1.54371,-0.47255 c 0.26491,-0.16792 0.20388,-0.26285 -0.24435,-0.38006 -0.73053,-0.19104 -1.22596,0.0636 -0.7323,0.37643 0.44554,0.28231 0.53649,0.28265 0.97665,0.004 z m -12.19871,-0.19251 c -0.0879,-0.0879 -0.31612,-0.0973 -0.50711,-0.0209 -0.21107,0.0845 -0.14838,0.14715 0.15985,0.15985 0.27891,0.0115 0.43518,-0.0511 0.34726,-0.13897 z m 14.32815,-0.39815 c 0.63256,-0.22051 0.77304,-0.37614 0.56538,-0.62635 -0.30178,-0.36363 -0.003,-0.7088 0.89256,-1.02976 0.27549,-0.0988 0.44083,-0.23965 0.36743,-0.31306 -0.0734,-0.0734 -0.45539,-0.0111 -0.84885,0.13852 -1.48297,0.56383 -2.74089,0.16219 -1.40853,-0.44972 0.4703,-0.21599 0.32228,-0.24401 -0.70485,-0.13343 -1.13076,0.12175 -1.27835,0.0832 -1.13278,-0.29619 0.13185,-0.34359 0.004,-0.43617 -0.60245,-0.43617 -0.42341,0 -0.84369,-0.1195 -0.93396,-0.26556 -0.14233,-0.2303 -1.37937,-0.10424 -1.69987,0.17322 -0.0621,0.0538 0.11645,0.26667 0.39687,0.47305 0.54024,0.39761 0.48299,0.45257 -0.81306,0.78055 -0.29104,0.0737 0.0959,0.0695 0.85989,-0.009 1.50597,-0.1553 1.76271,0.10289 0.79375,0.79825 l -0.59531,0.42722 0.73609,-0.16118 c 1.21998,-0.26713 1.64813,-0.2476 1.58784,0.0724 -0.0315,0.16734 0.23636,0.37797 0.59531,0.46806 0.35895,0.0901 0.65264,0.2806 0.65264,0.42335 0,0.33378 0.25652,0.32706 1.2919,-0.0339 z m 16.85775,-1.05083 c 0.20368,-0.16903 0.25868,-1.8388 0.18007,-5.46663 -0.0623,-2.8728 -0.15634,-5.26642 -0.20908,-5.31917 -0.0528,-0.0528 -0.43077,0.0156 -0.84005,0.15196 l -0.74414,0.24786 -0.0716,5.49829 -0.0716,5.4983 0.73159,-0.18362 c 0.40237,-0.10099 0.86354,-0.29313 1.02482,-0.42699 z m -14.3132,0.0213 c 0.0927,-0.15006 -0.12954,-0.26458 -0.51355,-0.26458 -0.37239,0 -0.67707,0.11906 -0.67707,0.26458 0,0.14553 0.2311,0.26459 0.51355,0.26459 0.28245,0 0.58714,-0.11906 0.67707,-0.26459 z m 1.72287,-0.36058 c 0.51409,-0.21616 0.73821,-0.43436 0.55955,-0.54478 -0.52419,-0.32396 -0.32191,-0.65964 0.56185,-0.93242 0.7669,-0.2367 0.71682,-0.25129 -0.46302,-0.13489 -0.7276,0.0718 -1.50151,0.008 -1.71979,-0.14098 -0.33799,-0.23121 -0.29874,-0.35234 0.26459,-0.81647 0.64601,-0.53225 0.6469,-0.53782 0.0383,-0.23841 -0.80669,0.39683 -2.41953,0.10809 -2.41953,-0.43316 0,-0.25497 -0.16988,-0.35666 -0.46303,-0.27718 -0.25466,0.069 -0.80095,0.20103 -1.21397,0.29331 -0.65565,0.14649 -0.70602,0.22197 -0.39688,0.59474 0.19475,0.23483 0.74584,0.59071 1.22464,0.79086 0.47882,0.20014 0.79921,0.47936 0.712,0.62047 -0.0872,0.14112 0.12535,0.25658 0.47237,0.25658 0.34703,0 0.91059,0.29765 1.25237,0.66146 0.34177,0.3638 0.64651,0.66145 0.6772,0.66145 0.0307,0 0.4417,-0.16226 0.91337,-0.36058 z m -20.78732,-1.25962 c 2.4818,-0.74559 4.6189,-1.4534 4.74911,-1.57289 0.24223,-0.2223 -1.10598,-8.94859 -1.78936,-11.58165 -0.62888,-2.42306 -0.007,-2.42881 -9.828659,0.0908 -4.79988,1.23139 -8.994944,2.35757 -9.322366,2.50261 -0.652831,0.2892 -0.738762,1.02693 -0.424426,3.64378 0.146378,1.21861 0.274616,1.44826 1.071157,1.91823 0.497679,0.29364 0.941107,0.53389 0.985393,0.53389 0.231953,0 -0.717563,-4.70928 -1.052618,-5.22063 -0.216297,-0.33011 -0.286038,-0.60021 -0.154982,-0.60021 0.553116,0 0.917964,0.94365 1.341937,3.47084 l 0.450197,2.68346 4.613285,2.71718 c 2.537307,1.49445 4.666311,2.72911 4.731123,2.74369 0.06481,0.0146 2.148404,-0.58353 4.630209,-1.32912 z m 23.29779,0.29729 c -0.0899,-0.14552 -0.42439,-0.26276 -0.74322,-0.26053 -0.47129,0.003 -0.50548,0.052 -0.18282,0.26053 0.52126,0.33686 1.13423,0.33686 0.92604,0 z m -12.90395,-0.15986 c -0.0879,-0.0879 -0.31613,-0.0973 -0.50712,-0.0209 -0.21107,0.0845 -0.14837,0.14715 0.15985,0.15985 0.27892,0.0115 0.43519,-0.0511 0.34727,-0.13897 z M 126.292,159.2938 c 0.59092,-0.23971 0.14956,-0.83527 -1.1048,-1.49084 -0.50932,-0.26618 -1.10464,-0.58434 -1.32292,-0.70702 -1.68756,-0.94843 -2.17475,-1.03999 -3.41468,-0.64173 -0.82146,0.26385 -0.93676,0.34402 -0.35563,0.24729 1.05261,-0.17521 1.14525,0.27977 0.13229,0.64973 -0.40018,0.14616 -0.57095,0.27514 -0.37948,0.28663 0.19147,0.0115 0.56314,-0.0942 0.82594,-0.23483 0.32212,-0.17239 0.70367,-0.15084 1.17097,0.0662 0.81864,0.38012 0.77537,0.76335 -0.11569,1.02467 -0.35753,0.10485 -0.0558,0.13322 0.68107,0.064 1.05427,-0.099 1.45724,-0.016 1.98438,0.4085 0.68744,0.55361 1.14599,0.6327 1.89855,0.32742 z m -16.25771,-0.73657 c -0.0879,-0.0879 -0.31612,-0.0973 -0.50712,-0.0209 -0.21106,0.0845 -0.14837,0.14715 0.15986,0.15985 0.27891,0.0115 0.43518,-0.0511 0.34726,-0.13897 z m 18.32791,-0.10473 c 0,-0.14552 -0.0525,-0.26458 -0.11668,-0.26458 -0.0642,0 -0.19026,0.11906 -0.2802,0.26458 -0.0899,0.14552 -0.0374,0.26458 0.11668,0.26458 0.15411,0 0.2802,-0.11906 0.2802,-0.26458 z m -1.05834,-0.79375 c 0,-0.14552 -0.11203,-0.26458 -0.24896,-0.26458 -0.13694,0 -0.32256,0.11906 -0.41249,0.26458 -0.0899,0.14552 0.0221,0.26458 0.24896,0.26458 0.22687,0 0.41249,-0.11906 0.41249,-0.26458 z m 4.70383,-3.33343 -0.0736,-3.59801 -4.5827,-2.38057 c -2.52049,-1.30931 -4.64738,-2.31589 -4.72642,-2.23685 -0.079,0.079 0.0486,1.19183 0.28376,2.47285 0.23512,1.28103 0.42724,2.86745 0.42694,3.52539 l -5.3e-4,1.19625 4.16719,2.30249 c 2.29195,1.26637 4.25984,2.30563 4.37309,2.30948 0.11325,0.004 0.17278,-1.61212 0.13229,-3.59103 z m -19.27249,1.60264 c 3.13782,-0.95194 6.68739,-2.02735 7.88794,-2.3898 1.94975,-0.58864 2.18281,-0.72725 2.18281,-1.29815 0,-0.59526 -0.0545,-0.62015 -0.79375,-0.36245 -0.43656,0.15219 -0.79375,0.39214 -0.79375,0.53324 0,0.14109 -0.22614,0.18475 -0.50254,0.097 -0.27922,-0.0886 -3.1892,0.62169 -6.54844,1.59845 -3.32524,0.96688 -6.43285,1.86967 -6.90579,2.00619 -0.66898,0.19312 -0.8599,0.39234 -0.8599,0.89726 0,0.35696 0.14137,0.64902 0.31415,0.64902 0.17278,0 2.88145,-0.77886 6.01927,-1.73079 z m -4.74592,0.40787 c 0,-0.14552 0.11906,-0.26458 0.26459,-0.26458 0.14552,0 0.26458,0.11906 0.26458,0.26458 0,0.14553 -0.11906,0.26459 -0.26458,0.26459 -0.14553,0 -0.26459,-0.11906 -0.26459,-0.26459 z m 3.30729,-1.05833 c 0.0899,-0.14552 0.28259,-0.26458 0.42811,-0.26458 0.14552,0 0.191,0.11906 0.10106,0.26458 -0.0899,0.14552 -0.28258,0.26458 -0.4281,0.26458 -0.14552,0 -0.191,-0.11906 -0.10107,-0.26458 z m 6.74688,0.79375 c 0.35278,-0.22798 0.35278,-0.25648 0,-0.25648 -0.21828,0 -0.57547,0.11542 -0.79375,0.25648 -0.35278,0.22798 -0.35278,0.25648 0,0.25648 0.21828,0 0.57547,-0.11541 0.79375,-0.25648 z m -8.79151,-1.53901 c 0.0697,-0.20907 -0.14311,-0.25917 -0.66091,-0.15561 -1.44025,0.28805 -1.87447,-1.21078 -0.50194,-1.73261 1.10697,-0.42087 1.08026,-0.8061 -0.0559,-0.8061 -0.70942,0 -1.09729,-0.13458 -1.20625,-0.41852 -0.28429,-0.74087 -0.17785,-0.92419 0.76545,-1.31833 1.22111,-0.51021 1.17549,-0.90899 -0.10399,-0.90899 -0.69517,0 -1.08223,-0.13605 -1.19062,-0.41851 -0.2843,-0.74087 -0.17786,-0.92419 0.76544,-1.31833 1.23821,-0.51736 1.17054,-0.90899 -0.15706,-0.90899 -0.86059,0 -1.11153,-0.10871 -1.22149,-0.52917 -0.15013,-0.5741 -0.2984,-0.6323 -0.79968,-0.31389 -0.25305,0.16074 -0.18329,0.94547 0.31129,3.50168 0.35059,1.81198 0.7146,3.88982 0.80892,4.61742 0.26843,2.0708 0.20519,2.0172 1.75744,1.48958 0.76257,-0.25921 1.43275,-0.61004 1.48928,-0.77963 z m 13.42172,1.00984 c 0.0899,-0.14552 0.0374,-0.26458 -0.11668,-0.26458 -0.15411,0 -0.2802,0.11906 -0.2802,0.26458 0,0.14553 0.0525,0.26459 0.11668,0.26459 0.0642,0 0.19026,-0.11906 0.2802,-0.26459 z m 1.38355,0.10473 c -0.0879,-0.0879 -0.31613,-0.0973 -0.50712,-0.0209 -0.21107,0.0845 -0.14837,0.14715 0.15985,0.15985 0.27892,0.0115 0.43519,-0.0511 0.34727,-0.13897 z m -1.44466,-0.80744 c -0.17913,-0.0725 -0.53632,-0.0769 -0.79375,-0.01 -0.25744,0.0671 -0.11087,0.12638 0.32569,0.13177 0.43656,0.005 0.64719,-0.0495 0.46806,-0.12197 z m -10.72066,-0.80535 c 1.3884,-0.48618 1.43558,-0.81549 0.13229,-0.92336 -0.85215,-0.0705 -1.00368,-0.18137 -1.07356,-0.78536 -0.0689,-0.59562 0.0424,-0.73042 0.7276,-0.88091 1.09786,-0.24113 1.13517,-1.06077 0.0383,-0.8414 -1.38006,0.27601 -1.91708,-1.3533 -0.55225,-1.67549 0.36227,-0.0855 0.6973,-0.35602 0.7445,-0.60112 0.0699,-0.36285 -0.10189,-0.43441 -0.92465,-0.38527 -0.91937,0.0549 -1.01792,-0.004 -1.09305,-0.65543 -0.0709,-0.61497 0.0408,-0.74776 0.79375,-0.94286 1.14424,-0.2965 1.11919,-0.70138 -0.0497,-0.80357 -0.50933,-0.0445 -1.07427,-0.27481 -1.25544,-0.51175 -0.30382,-0.39737 -0.44244,-0.39518 -1.78593,0.0283 -1.70134,0.5363 -1.8899,0.96126 -0.42653,0.96126 0.69518,0 1.08224,0.13606 1.19063,0.41852 0.28492,0.74249 0.17742,0.92437 -0.78376,1.32598 -1.15979,0.48459 -1.07154,1.06867 0.1426,0.94378 0.86428,-0.0889 1.31837,0.24075 1.32687,0.96325 0.002,0.18932 -0.41266,0.51834 -0.92199,0.73115 -1.23031,0.51406 -1.17283,0.90899 0.1323,0.90899 0.94957,0 1.05833,0.0673 1.05833,0.65466 0,0.45981 -0.23626,0.77685 -0.79375,1.06513 -1.11355,0.57584 -1.02775,1.02883 0.15291,0.80734 0.8192,-0.15368 0.96639,-0.10219 1.09311,0.38239 0.1019,0.38968 0.27668,0.5067 0.57469,0.38475 0.23553,-0.0964 0.93426,-0.35243 1.55273,-0.569 z m 2.97656,-1.13498 c 0.21828,-0.25851 0.67496,-0.61267 1.01485,-0.78701 0.79571,-0.40816 0.51981,-0.67596 -0.59724,-0.57972 -0.64669,0.0557 -0.92507,-0.0499 -1.06033,-0.40242 -0.19964,-0.52025 0.65526,-1.40864 1.35554,-1.40864 0.21428,0 0.34212,-0.14248 0.28407,-0.31662 -0.058,-0.17413 -0.51445,-0.32296 -1.01423,-0.33072 -0.7426,-0.0115 -0.92453,-0.12573 -0.99525,-0.62471 -0.0674,-0.47573 0.0933,-0.67847 0.7276,-0.9179 1.15913,-0.43753 1.05252,-0.98322 -0.17798,-0.91099 -0.85185,0.05 -1.00422,-0.0269 -1.07765,-0.54411 -0.0667,-0.46963 0.0936,-0.66479 0.72755,-0.88578 1.09872,-0.38301 1.10531,-1.07064 0.008,-0.85121 -0.58899,0.1178 -0.89415,0.0389 -1.13756,-0.29393 -0.3139,-0.42929 -0.41013,-0.42957 -1.70863,-0.005 -1.59279,0.52098 -1.78388,0.91832 -0.44164,0.91832 1.46737,0 1.61101,1.58893 0.16311,1.80434 -0.31256,0.0465 -0.56829,0.26974 -0.56829,0.49609 0,0.31149 0.1836,0.37483 0.75517,0.26052 1.45215,-0.29043 1.94345,1.23411 0.56534,1.75428 -1.00297,0.37858 -0.87117,0.87026 0.20481,0.76405 0.62527,-0.0617 0.85079,0.044 0.98305,0.46066 0.21525,0.67822 -0.004,1.04078 -0.81428,1.349 -0.93335,0.35485 -0.77446,0.78397 0.2903,0.78397 0.75971,0 0.92604,0.0983 0.92604,0.54699 0,0.4437 0.11242,0.51333 0.59531,0.3687 0.32742,-0.0981 0.77391,-0.38981 0.99219,-0.64832 z m 3.10885,-0.52909 c 0.0364,-0.002 0.0661,-0.25133 0.0661,-0.55501 0,-0.37054 0.26109,-0.6507 0.79375,-0.85176 1.13628,-0.4289 1.05662,-1.05064 -0.10664,-0.83241 -0.77819,0.14599 -0.92624,0.0875 -1.09076,-0.43087 -0.19709,-0.62095 0.38633,-1.30157 1.11568,-1.30157 0.19046,0 0.3463,-0.18805 0.3463,-0.41789 0,-0.32448 -0.17332,-0.37983 -0.77535,-0.2476 -0.61088,0.13417 -0.83538,0.0581 -1.05834,-0.35846 -0.4077,-0.76181 -0.38002,-0.81458 0.65373,-1.24651 1.03598,-0.43286 0.98517,-1.04583 -0.0648,-0.78229 -0.64361,0.16154 -1.40103,-0.21296 -1.40103,-0.69273 0,-0.13261 0.41654,-0.48688 0.92565,-0.78726 1.06746,-0.62982 1.02894,-0.98574 -0.0889,-0.82167 -0.42574,0.0625 -0.8453,-0.002 -0.93236,-0.14251 -0.18185,-0.29425 -3.07937,0.43033 -3.07937,0.77005 0,0.11723 0.44648,0.18693 0.99219,0.1549 0.89253,-0.0524 1.00029,0.0117 1.07292,0.6384 0.0662,0.57103 -0.065,0.74745 -0.72761,0.97843 -1.13598,0.396 -1.06255,0.94506 0.0973,0.72747 0.75923,-0.14243 0.93307,-0.0834 1.07541,0.36507 0.21345,0.67254 -0.007,1.03565 -0.81611,1.34321 -0.93763,0.35649 -0.77348,0.74064 0.35643,0.83415 0.78246,0.0648 1.00935,0.20257 1.0734,0.65194 0.0639,0.44824 -0.11961,0.6361 -0.8599,0.88042 -1.24295,0.41021 -1.19665,0.79872 0.0952,0.79872 0.58939,0 1.08742,0.14262 1.15487,0.33073 0.19111,0.53298 -0.31428,1.25677 -0.87755,1.25677 -0.28592,0 -0.51985,0.11337 -0.51985,0.25193 0,0.14134 0.55163,0.0845 1.25677,-0.12943 0.69122,-0.20975 1.28653,-0.38265 1.32291,-0.38422 z m 2.11667,-0.52842 c 0.1819,-0.002 0.32873,-0.2715 0.32629,-0.59892 -0.006,-0.77673 -1.47329,-8.90811 -1.63726,-9.07209 -0.18139,-0.18139 -1.79788,0.17307 -1.79788,0.39423 0,0.10213 0.34021,0.13575 0.75604,0.0747 1.43064,-0.20997 1.32515,1.27785 -0.11626,1.63962 -0.91307,0.22917 -0.53527,0.69226 0.49967,0.61249 0.73577,-0.0567 0.85535,0.0249 0.92565,0.63152 0.0662,0.57102 -0.065,0.74744 -0.7276,0.97842 -1.13845,0.39687 -1.02551,0.87837 0.18385,0.78379 0.89836,-0.0703 0.99982,-0.0117 1.07292,0.61904 0.0662,0.57102 -0.065,0.74744 -0.72761,0.97842 -1.0909,0.38029 -1.07613,0.93934 0.0185,0.69893 1.41589,-0.31098 1.86332,1.2108 0.49612,1.68741 -0.92957,0.32404 -1.10622,0.97885 -0.19844,0.73557 0.32742,-0.0877 0.74414,-0.16116 0.92604,-0.16315 z m 0.47396,-5.10668 c -0.7427,-4.54367 -0.86808,-5.10819 -1.08615,-4.89012 -0.0752,0.0752 0.22526,2.20247 0.66768,4.72729 0.44242,2.52481 0.81381,4.71276 0.82529,4.86209 0.0115,0.14933 0.0824,0.11826 0.15762,-0.069 0.0752,-0.18732 -0.17879,-2.27091 -0.56444,-4.63021 z m 1.97344,4.15497 c 0,-0.69319 -1.33705,-8.67391 -1.53555,-9.16552 -0.11938,-0.29566 -0.30626,-0.37987 -0.53083,-0.23916 -0.28085,0.17596 -0.21762,0.99019 0.33335,4.29278 0.37396,2.24159 0.74774,4.40304 0.83062,4.80323 0.15922,0.76874 0.90241,1.02295 0.90241,0.30867 z m 11.11002,-0.87556 c 0.56001,-0.15586 -0.14254,-0.58903 -4.67755,-2.88404 -5.15037,-2.60642 -6.69706,-3.14176 -6.69706,-2.31797 0,0.40276 9.60085,5.42742 10.31875,5.40037 0.21828,-0.008 0.69342,-0.0975 1.05586,-0.19836 z m -20.89961,-7.03231 c 9.2142,-2.44583 8.37957,-2.15103 7.82499,-2.76384 -0.43704,-0.48292 -0.61413,-0.45402 -6.58445,1.07447 -11.07161,2.8345 -10.24679,2.56007 -9.91078,3.29755 0.18163,0.39861 0.45027,0.59405 0.7108,0.51711 0.23035,-0.068 3.8121,-1.02442 7.95944,-2.12529 z m -7.01146,1.18305 c 0.0899,-0.14552 0.21603,-0.26458 0.2802,-0.26458 0.0642,0 0.11668,0.11906 0.11668,0.26458 0,0.14552 -0.12609,0.26458 -0.2802,0.26458 -0.15411,0 -0.20661,-0.11906 -0.11668,-0.26458 z m 3.78685,-0.97449 c 0.191,-0.0764 0.4192,-0.067 0.50712,0.0209 0.0879,0.0879 -0.0684,0.15045 -0.34726,0.13896 -0.30823,-0.0127 -0.37092,-0.0754 -0.15986,-0.15985 z m 3.75378,-0.87759 c 0,-0.14552 0.11906,-0.26459 0.26458,-0.26459 0.14552,0 0.26459,0.11907 0.26459,0.26459 0,0.14552 -0.11907,0.26458 -0.26459,0.26458 -0.14552,0 -0.26458,-0.11906 -0.26458,-0.26458 z m 3.70417,-1.05834 c 0,-0.14552 0.11906,-0.26458 0.26458,-0.26458 0.14552,0 0.26458,0.11906 0.26458,0.26458 0,0.14553 -0.11906,0.26459 -0.26458,0.26459 -0.14552,0 -0.26458,-0.11906 -0.26458,-0.26459 z"
       style="fill:#28220b;stroke-width:0.264583"
       id="path1" />
  </g>
</svg>
