<?xml version="1.0" encoding="UTF-8" standalone="no"?>
<!-- Created with Inkscape (http://www.inkscape.org/) -->

<svg
   width="24"
   height="24"
   viewBox="0 0 48 48"
   version="1.1"
   id="svg1"
   inkscape:version="1.4.2 (f4327f4, 2025-05-13)"
   sodipodi:docname="unfinished_armchair_frame.svg"
   xmlns:inkscape="http://www.inkscape.org/namespaces/inkscape"
   xmlns:sodipodi="http://sodipodi.sourceforge.net/DTD/sodipodi-0.dtd"
   xmlns="http://www.w3.org/2000/svg"
   xmlns:svg="http://www.w3.org/2000/svg">
  <sodipodi:namedview
     id="namedview1"
     pagecolor="#ffffff"
     bordercolor="#000000"
     borderopacity="0.25"
     inkscape:showpageshadow="2"
     inkscape:pageopacity="0.0"
     inkscape:pagecheckerboard="0"
     inkscape:deskcolor="#d1d1d1"
     inkscape:document-units="mm"
     inkscape:zoom="22.036139"
     inkscape:cx="13.31903"
     inkscape:cy="14.58967"
     inkscape:window-width="1920"
     inkscape:window-height="991"
     inkscape:window-x="-9"
     inkscape:window-y="-9"
     inkscape:window-maximized="1"
     inkscape:current-layer="layer1" />
  <defs
     id="defs1" />
  <g
     inkscape:label="Ebene 1"
     inkscape:groupmode="layer"
     id="layer1"
     transform="translate(-87.047914,-128.85613)">
    <path
       d="m 107.7244,171.86426 c -0.54811,-0.38392 -0.58804,-0.61298 -0.58804,-3.37361 v -2.96173 l -4.96094,-2.99849 -4.960937,-2.99849 -0.179904,1.77627 c -0.09895,0.97695 -0.28126,1.87763 -0.405143,2.00151 -0.447519,0.44752 -1.789851,0.51113 -2.305476,0.10924 -0.493993,-0.38502 -0.499832,-0.60143 -0.194559,-7.21311 0.432517,-9.36764 0.483238,-8.61848 -0.619085,-9.14414 -0.829112,-0.39537 -0.926042,-0.55176 -0.926042,-1.49401 0,-1.00902 0.04495,-1.06452 1.089917,-1.3459 1.074179,-0.28925 1.087493,-0.30755 0.922081,-1.26697 -0.646848,-3.75189 -0.762905,-4.84113 -0.538819,-5.05704 0.427895,-0.41227 15.077077,-4.78018 16.017627,-4.77594 1.43744,0.006 1.65834,0.30559 2.08836,2.82767 0.38014,2.22951 0.42477,2.32518 1.05833,2.26892 0.41216,-0.0366 3.4536,1.35947 8.0698,3.70417 l 7.40833,3.7629 0.0695,9.45391 0.0695,9.45391 -0.99552,0.41758 c -0.89969,0.37739 -1.0783,0.37827 -1.85542,0.009 -0.85923,-0.40804 -0.8599,-0.40993 -0.8599,-2.42532 0,-1.5038 -0.0841,-1.98519 -0.33073,-1.89205 -0.1819,0.0687 -3.39658,1.29734 -7.14375,2.73031 l -6.81302,2.60539 v 2.73545 2.73546 l -0.91754,0.38337 c -1.16037,0.48483 -1.47145,0.4808 -2.19858,-0.0285 z m 0.36563,-18.00006 c -0.0616,-0.1606 -2.35524,-1.51627 -5.09692,-3.01261 -2.74168,-1.49633 -6.011037,-3.3006 -7.265234,-4.00949 -1.254196,-0.70888 -2.355524,-1.28888 -2.447396,-1.28888 -0.775419,0 0.661964,0.93272 5.71994,3.7117 3.23784,1.77894 6.54182,3.61215 7.34219,4.07378 l 1.45521,0.83934 0.1304,8.71832 0.1304,8.71832 0.0717,-8.72924 c 0.0394,-4.80108 0.0213,-8.86064 -0.0403,-9.02124 z m 1.7069,17.3536 c 0.13218,0 0.26818,-3.9 0.30909,-8.86366 l 0.073,-8.86367 -0.72761,1.2e-4 -0.7276,1.3e-4 v 9.02414 c 0,8.12013 0.0419,9.00805 0.41851,8.86354 0.23018,-0.0883 0.52473,-0.1606 0.65456,-0.1606 z m 6.40695,-8.03848 c 2.79823,-1.07419 6.21878,-2.37093 7.60123,-2.88164 l 2.51354,-0.92857 0.0811,-1.38576 c 0.0732,-1.24959 0.0342,-1.36593 -0.39687,-1.18393 -0.56706,0.23942 -12.41497,4.73079 -14.03793,5.32157 -1.11497,0.40587 -1.12448,0.42033 -1.12448,1.71036 0,0.71557 0.062,1.30103 0.13784,1.30103 0.0758,0 2.4273,-0.87888 5.22552,-1.95306 z m -9.06752,0.37236 c 0,-0.88438 -0.11791,-1.11251 -0.74171,-1.43509 -0.40793,-0.21095 -2.57448,-1.47322 -4.81454,-2.80504 -2.240068,-1.33182 -4.406614,-2.59409 -4.814549,-2.80504 l -0.741703,-0.38355 v 0.9173 c 0,0.90695 0.05449,0.95011 4.828642,3.82507 2.65576,1.59927 5.06677,3.09076 5.35782,3.31441 0.79474,0.61073 0.92604,0.52168 0.92604,-0.62806 z m 21.02759,-1.73568 c 0.22465,-2.69698 0.0848,-15.20372 -0.17001,-15.20415 -1.01475,-0.002 -1.01383,-0.01 -1.01383,9.16544 0,8.57316 0.0153,8.83638 0.49722,8.57844 0.40098,-0.2146 0.53388,-0.70617 0.68662,-2.53973 z m -1.71301,0.40597 c 0,-1.23472 -0.11024,-2.11667 -0.26458,-2.11667 -0.15434,0 -0.26459,0.88195 -0.26459,2.11667 0,1.23472 0.11025,2.11666 0.26459,2.11666 0.15434,0 0.26458,-0.88194 0.26458,-2.11666 z m -31.005911,-8.20209 c 0.125071,-3.12869 0.127878,-5.80165 0.0062,-5.93989 -0.127132,-0.14449 -0.229397,0.0242 -0.240535,0.39687 -0.01066,0.35653 -0.169016,3.68433 -0.351907,7.39511 -0.18289,3.71078 -0.264795,6.86594 -0.182009,7.01146 0.245559,0.43165 0.525973,-2.80371 0.768212,-8.86355 z m 0.950809,6.96975 c 0.12773,-1.24673 0.08196,-1.84699 -0.163425,-2.14316 -0.29718,-0.35869 -0.36226,-0.31288 -0.507982,0.35757 -0.09192,0.42293 -0.181218,1.44984 -0.198437,2.28202 -0.02439,1.17977 0.0484,1.48246 0.330557,1.37419 0.226975,-0.0871 0.427998,-0.78438 0.539287,-1.87062 z m 10.460192,0.34407 c -0.79009,-0.71832 -9.773244,-5.77061 -10.079084,-5.66867 -0.175815,0.0586 0.565079,0.60412 1.646436,1.21224 1.081355,0.60813 3.454378,1.98651 5.273388,3.06308 3.03038,1.79351 4.1355,2.28091 3.15926,1.39335 z m 11.65741,-2.2059 c 3.71078,-1.39142 6.90569,-2.59071 7.09979,-2.66508 0.24859,-0.0952 0.26503,-0.18954 0.0556,-0.31897 -0.16352,-0.10107 -1.69155,0.36782 -3.39562,1.04197 -1.70407,0.67415 -4.97355,1.93035 -7.2655,2.79155 -2.29195,0.86121 -4.16719,1.67178 -4.16719,1.80128 0,0.1295 0.20836,0.15527 0.46302,0.0573 0.25467,-0.098 3.49912,-1.3166 7.2099,-2.70802 z m -2.25869,-0.2473 c 2.46849,-0.94063 4.53488,-1.75694 4.59196,-1.81402 0.12673,-0.12673 -5.65534,-3.0466 -6.03303,-3.0466 -0.14794,0 -0.26899,0.53579 -0.26899,1.19063 0,1.79551 -1.07705,2.68236 -2.39864,1.97507 -0.41157,-0.22027 -0.51178,-0.56132 -0.51178,-1.74185 0,-1.05654 -0.0927,-1.43716 -0.33073,-1.35811 -0.23624,0.0785 -0.35195,1.07634 -0.40501,3.49307 -0.0692,3.15354 -0.0423,3.37062 0.39688,3.19763 0.25913,-0.10208 2.49084,-0.9552 4.95934,-1.89582 z m -9.11839,1.54452 c 0,-0.11519 -1.33694,-0.97839 -2.97097,-1.91823 -1.63403,-0.93983 -3.37457,-1.98268 -3.86787,-2.31744 -0.493309,-0.33476 -1.089809,-0.57152 -1.325564,-0.52611 -0.235754,0.0454 1.177374,1.01919 3.140274,2.16397 1.96291,1.14479 3.80704,2.2385 4.09809,2.43047 0.61577,0.40616 0.92604,0.46223 0.92604,0.16734 z m -0.0939,-4.73518 c -0.0651,-0.0651 -1.02637,0.20393 -2.13612,0.5979 -1.10975,0.39397 -1.96488,0.76915 -1.9003,0.83373 0.0646,0.0646 0.99057,0.62978 2.05774,1.256 l 1.94033,1.13858 0.0784,-1.8539 c 0.0431,-1.01965 0.0251,-1.90719 -0.04,-1.97231 z m -4.46653,0.73408 c 0.25268,-0.13299 1.39976,-0.5682 2.54905,-0.96714 1.88374,-0.65389 2.04168,-0.76041 1.60307,-1.08112 -0.66175,-0.48389 -0.76623,-0.46951 -3.29589,0.4537 -2.81098,1.02588 -2.84293,1.04836 -2.08619,1.46781 0.77158,0.42769 0.67673,0.41791 1.22996,0.12675 z m 10.35,-2.07331 c 0.0172,-0.47294 -0.0767,-0.85989 -0.2088,-0.85989 -0.25144,0 -0.51884,2.85742 -0.28907,3.08898 0.16973,0.17104 0.45738,-1.11683 0.49787,-2.22909 z m 1.05407,0.64564 c 0.14306,-0.7658 0.13714,-1.31046 -0.0153,-1.40466 -0.38114,-0.23556 -0.44766,-0.0648 -0.63591,1.63248 -0.21162,1.908 0.2846,1.7344 0.65118,-0.22782 z m 7.8413,1.14197 c -0.12852,-0.40494 -0.0712,-0.49058 0.24675,-0.36857 0.2278,0.0874 0.41418,0.26526 0.41418,0.39521 0,0.28565 0.97753,0.31788 1.14766,0.0378 0.11486,-0.18906 -8.52018,-4.45399 -9.34974,-4.61793 -0.26046,-0.0515 -0.39688,0.13071 -0.39688,0.53001 0,0.52072 0.57212,0.89091 3.96875,2.56796 2.18281,1.07774 4.00654,1.96481 4.05273,1.97125 0.0462,0.006 0.009,-0.22565 -0.0835,-0.51577 z m -6.62599,-3.19427 c -0.0959,-0.1552 -0.10808,-0.34851 -0.027,-0.42956 0.21766,-0.21766 0.96395,0.12211 0.96395,0.43886 0,0.3591 -0.71361,0.35202 -0.93692,-0.009 z m 9.66817,2.7848 c 0,-0.0788 -2.417,-1.33522 -5.3711,-2.79211 l -5.37111,-2.64888 -1.97108,0.7154 c -1.0841,0.39348 -2.08419,0.81649 -2.22244,0.94003 -0.49657,0.44374 0.534,0.19669 2.2279,-0.5341 l 1.71197,-0.73858 5.29949,2.59622 c 5.16227,2.529 5.69637,2.75984 5.69637,2.46202 z m 1.5875,-4.29728 v -4.44049 l -6.57437,-3.36471 c -3.61591,-1.8506 -6.66192,-3.36472 -6.76892,-3.36472 -0.85227,0 0.89677,1.04905 6.34326,3.80459 l 6.33857,3.20687 0.0727,4.29948 c 0.0434,2.56743 0.17665,4.29948 0.33073,4.29948 0.1574,0 0.25803,-1.73175 0.25803,-4.4405 z m -23.57042,3.13202 c 1.36972,-0.50138 2.3451,-0.96003 2.16751,-1.01923 -0.44749,-0.14916 -5.055422,1.53985 -5.055422,1.85304 0,0.1398 0.08944,0.2145 0.198752,0.16599 0.10931,-0.0485 1.31943,-0.49842 2.68916,-0.9998 z m -6.062912,-2.48809 c 0.09917,-2.34608 0.0479,-3.19932 -0.204833,-3.40835 -0.185417,-0.15335 -0.381762,-0.23209 -0.436319,-0.17497 -0.05456,0.0571 -0.140978,1.62492 -0.192045,3.48401 -0.07951,2.89464 -0.03584,3.36929 0.30403,3.30449 0.316979,-0.0604 0.423508,-0.70568 0.529167,-3.20518 z m 1.5875,2.73539 c 0,-0.54188 -0.831512,-5.41478 -0.943002,-5.52627 -0.06343,-0.0634 -0.115332,1.13483 -0.115332,2.6628 0,1.52797 0.07937,2.8575 0.17639,2.95451 0.271769,0.27177 0.881944,0.20878 0.881944,-0.091 z m 26.722912,0.0524 c 0,-0.27538 -10.01911,-5.19992 -10.20373,-5.01529 -0.0761,0.0761 2.15884,1.27544 4.96654,2.6652 5.87608,2.90856 5.23719,2.62187 5.23719,2.35009 z m -23.0882,-1.01838 c 1.19873,-0.41305 2.181,-0.82641 2.18282,-0.91858 0.009,-0.46689 -1.24793,-0.37896 -2.69616,0.1886 -0.89402,0.35036 -1.670559,0.59195 -1.725648,0.53686 -0.05509,-0.0551 -0.22961,-0.88136 -0.387826,-1.83617 -0.18165,-1.09623 -0.43434,-1.7923 -0.685652,-1.88873 -0.218892,-0.084 -0.427299,-0.12015 -0.463126,-0.0804 -0.03583,0.0398 0.125923,1.18088 0.359444,2.53572 0.340759,1.97703 0.504743,2.43871 0.830614,2.3385 0.223317,-0.0687 1.386814,-0.4628 2.585534,-0.87585 z m 23.0882,-2.99856 v -3.17361 l -4.7625,-2.38403 -4.7625,-2.38404 v 3.1785 3.1785 l 4.69636,2.33069 c 2.58299,1.28188 4.72612,2.35249 4.7625,2.37914 0.0364,0.0266 0.0661,-1.37967 0.0661,-3.12515 z m -13.30649,2.11781 c 0.10289,-0.39346 0.28825,-0.48885 0.73298,-0.37723 0.46257,0.1161 0.63044,0.0149 0.75307,-0.454 0.21329,-0.81565 0.0985,-0.86769 -0.84183,-0.38144 -0.44286,0.22901 -1.04924,0.41638 -1.3475,0.41638 -0.56591,0 -0.65121,0.2021 -0.38171,0.9044 0.22636,0.5899 0.92055,0.52072 1.08499,-0.10811 z m -2.45548,0.0251 c 0.58479,-0.22909 0.9425,-0.0104 -8.05053,-4.92234 -3.128694,-1.70888 -5.814696,-3.20743 -5.968892,-3.33011 -0.154197,-0.12267 -0.613969,-0.13382 -1.021715,-0.0248 -0.589296,0.1576 -0.667467,0.25694 -0.381104,0.48433 0.198142,0.15734 3.158226,1.81174 6.577961,3.67645 3.41974,1.86472 6.5749,3.60662 7.01146,3.87089 0.86104,0.52124 1.06074,0.548 1.83282,0.24555 z m -7.62907,-0.45433 c 0.35028,-0.0879 0.63688,-0.25197 0.63688,-0.36457 0,-0.23672 -1.74213,0.31863 -2.04558,0.65208 -0.11186,0.12292 0.016,0.14448 0.28422,0.0479 0.26818,-0.0966 0.7742,-0.24751 1.12448,-0.33542 z m -0.75218,-0.53383 c 0.32742,-0.0877 0.59455,-0.23495 0.59364,-0.32711 -0.002,-0.18704 -1.615582,-1.15283 -1.730597,-1.03574 -0.135916,0.13836 0.205107,1.52964 0.374047,1.526 0.0922,-0.002 0.43548,-0.0754 0.76291,-0.16315 z m 10.6732,-1.46137 2.27268,-0.83936 -0.61816,-3.46261 c -1.84434,-10.33101 -2.12242,-11.80018 -2.2594,-11.93716 -0.0822,-0.0822 -3.22534,0.80862 -6.98465,1.9797 -3.75931,1.17107 -6.981162,2.12923 -7.159663,2.12923 -0.622615,0 -0.630082,0.52191 -0.05263,3.67901 0.392073,2.14359 0.708107,3.22701 0.970714,3.32778 0.214154,0.0822 0.420044,0.11685 0.457531,0.077 0.03749,-0.0398 -0.151858,-1.20346 -0.420767,-2.58591 -0.26891,-1.38245 -0.495216,-2.76011 -0.502902,-3.06147 -0.01238,-0.48519 0.675275,-0.76406 6.005297,-2.43544 3.31059,-1.03813 6.27109,-1.95534 6.57888,-2.03826 0.50116,-0.135 0.59054,0.009 0.85574,1.37711 0.43326,2.23532 2.15652,12.01927 2.15652,12.24383 0,0.1055 -1.07234,0.5754 -2.38298,1.04423 -1.31064,0.46883 -2.31565,0.96137 -2.23335,1.09454 0.25151,0.40694 0.94872,0.28246 3.31714,-0.59226 z m -2.1894,-0.60924 c 0.77341,-0.2543 1.35963,-0.50895 1.30271,-0.56587 -0.13418,-0.13418 -3.37037,0.95664 -3.37037,1.13605 0,0.075 0.14883,0.0814 0.33073,0.0143 0.1819,-0.0671 0.96352,-0.33013 1.73693,-0.58444 z m -0.56206,-0.59529 c 1.50814,-0.49114 2.19623,-0.84427 2.19114,-1.12448 -0.012,-0.66212 -2.00709,-11.63932 -2.13943,-11.77166 -0.0666,-0.0666 -1.90268,0.45631 -4.0803,1.16192 -2.17761,0.70559 -4.43555,1.41427 -5.017634,1.57482 -1.906717,0.52593 -1.871028,0.4285 -1.334577,3.6437 0.263009,1.57634 0.614466,3.01376 0.781018,3.19428 0.341046,0.36963 6.766503,3.97458 7.152383,4.01278 0.13686,0.0135 1.23819,-0.29756 2.4474,-0.69136 z m 5.67935,-7.02155 c -0.5858,-0.58581 -0.65931,5.89661 -0.0772,6.81151 0.0926,0.14552 0.2018,-1.27357 0.24272,-3.15354 0.0409,-1.87996 -0.0336,-3.52605 -0.16548,-3.65797 z m -2.15787,6.27864 c 0,-0.38325 -2.19284,-12.44786 -2.2796,-12.54196 -0.45983,-0.49875 -0.3215,1.05666 0.53368,6.00059 1.12994,6.53239 1.16249,6.67736 1.49917,6.67736 0.13571,0 0.24675,-0.0612 0.24675,-0.13599 z m 14.82183,-2.64214 c -0.006,-0.14552 -3.01624,-1.77974 -6.68896,-3.6316 -6.032,-3.04146 -7.81769,-3.73759 -7.69466,-2.99968 0.0227,0.13634 2.99929,1.75787 6.61458,3.6034 5.99829,3.062 7.80048,3.76438 7.76904,3.02788 z m -30.432242,-1.27188 c 0,-0.88697 -1.150604,-5.89923 -1.38896,-6.05057 -0.866399,-0.55013 -0.906383,-0.16338 -0.309501,2.99375 0.383479,2.02836 0.905044,3.13808 1.474885,3.13808 0.122965,0 0.223576,-0.0366 0.223576,-0.0813 z m 16.649422,-2.93308 c -0.24053,-0.22429 -0.27577,-0.0449 -0.15033,0.76538 0.0901,0.58208 0.18717,1.35599 0.21569,1.71979 0.0285,0.3638 0.0962,0.0194 0.15034,-0.76538 0.0608,-0.88153 -0.0216,-1.5388 -0.2157,-1.71979 z m -10.62734,-5.58989 c 7.57123,-2.30139 7.32088,-2.21809 7.15746,-2.3815 -0.12913,-0.12913 -13.953393,3.99847 -14.192457,4.23753 -0.333486,0.33349 0.918395,0.003 7.034997,-1.85603 z"
       style="fill:#28220b;stroke-width:0.264583"
       id="path1" />
  </g>
</svg>
