<?xml version="1.0" encoding="UTF-8" standalone="no"?>
<!-- Created with Inkscape (http://www.inkscape.org/) -->

<svg
   width="24"
   height="24"
   viewBox="0 0 40 40.000001"
   version="1.1"
   id="svg1"
   inkscape:version="1.4.2 (f4327f4, 2025-05-13)"
   sodipodi:docname="upholstered_seat_back_cushion.svg"
   xmlns:inkscape="http://www.inkscape.org/namespaces/inkscape"
   xmlns:sodipodi="http://sodipodi.sourceforge.net/DTD/sodipodi-0.dtd"
   xmlns="http://www.w3.org/2000/svg"
   xmlns:svg="http://www.w3.org/2000/svg">
  <sodipodi:namedview
     id="namedview1"
     pagecolor="#ffffff"
     bordercolor="#000000"
     borderopacity="0.25"
     inkscape:showpageshadow="2"
     inkscape:pageopacity="0.0"
     inkscape:pagecheckerboard="0"
     inkscape:deskcolor="#d1d1d1"
     inkscape:document-units="mm"
     inkscape:zoom="15.581903"
     inkscape:cx="11.840659"
     inkscape:cy="9.4019322"
     inkscape:window-width="1920"
     inkscape:window-height="991"
     inkscape:window-x="-9"
     inkscape:window-y="-9"
     inkscape:window-maximized="1"
     inkscape:current-layer="layer1" />
  <defs
     id="defs1" />
  <g
     inkscape:label="Ebene 1"
     inkscape:groupmode="layer"
     id="layer1"
     transform="translate(-88.553334,-132.55625)">
    <path
       d="m 102.29637,164.7646 c -3.408329,-1.74059 -6.48682,-3.43416 -6.841094,-3.76349 -0.94419,-0.87772 -1.093491,-1.45582 -1.513846,-5.86164 -0.209772,-2.19866 -0.641519,-6.11732 -0.959437,-8.70814 l -0.578038,-4.71058 0.529204,-0.71338 c 0.330528,-0.44556 1.165418,-0.94399 2.223852,-1.32764 2.816487,-1.02089 11.917349,-3.48678 12.868679,-3.48678 1.07721,0 2.05976,0.942 2.28574,2.19141 0.4138,2.28782 1.48141,10.87039 1.54706,12.43683 0.0517,1.23429 0.17841,1.77581 0.41544,1.77586 0.40035,8e-5 8.49896,3.08 10.69429,4.06706 1.0272,0.46185 1.64079,0.93139 1.91823,1.46789 0.5489,1.06146 0.52185,2.73921 -0.0551,3.41754 -0.68904,0.81011 -14.46801,6.40108 -15.73977,6.38659 -0.32904,-0.004 -3.38688,-1.43094 -6.79521,-3.17153 z m 10.06368,1.34859 c 3.97875,-1.50009 9.89088,-3.91246 11.09916,-4.52888 0.96768,-0.49367 1.04141,-0.61162 1.04141,-1.66596 0,-1.48471 -0.32117,-1.86057 -2.38125,-2.78679 -1.69648,-0.76274 -8.86576,-3.54037 -9.95127,-3.85547 -0.60167,-0.17465 -13.909236,4.23656 -15.064764,4.99369 -0.72808,0.47706 -0.893847,1.83602 -0.31782,2.60549 0.436592,0.58321 11.546354,6.25942 12.267244,6.26759 0.30769,0.003 1.79597,-0.45987 3.30729,-1.02967 z m -3.42768,-0.15462 c -0.0276,-0.58208 -0.13774,-1.19277 -0.24466,-1.35708 -0.10691,-0.16431 -2.73732,-1.57027 -5.84537,-3.12436 -3.108035,-1.55409 -5.577269,-2.89933 -5.487181,-2.98941 0.238408,-0.23841 10.664241,4.97348 11.297651,5.64771 0.41303,0.43965 0.51195,0.83423 0.43265,1.72572 l -0.10281,1.15576 z m 0.88387,-1.92699 c 0.39338,-0.39648 13.37397,-5.42473 13.54992,-5.24879 0.18802,0.18803 -0.85254,0.63378 -7.33221,3.14101 -5.67677,2.19656 -6.62457,2.51786 -6.21771,2.10778 z m -13.594763,-6.04819 c 0.507664,-0.6117 -1.287695,-15.73376 -1.913935,-16.1208 -0.128704,-0.0795 -0.234005,-0.27124 -0.234005,-0.42599 0,-0.60665 0.800489,0.41349 1.048022,1.33561 0.370314,1.3795 1.597811,11.50222 1.597811,13.17656 0,0.77597 0.09122,1.41084 0.202697,1.41084 0.111485,0 1.808126,-0.57206 3.770313,-1.27124 1.96219,-0.69918 5.15827,-1.80051 7.10241,-2.4474 l 3.53479,-1.17615 -0.16405,-1.85208 c -0.36064,-4.0717 -1.56095,-12.21192 -1.89697,-12.86481 -0.62465,-1.2137 -0.73246,-1.20248 -7.91898,0.8239 -5.230309,1.47478 -7.070851,2.10304 -7.633448,2.60562 -0.58815,0.52541 -0.58398,0.60176 0.592455,10.84853 0.810969,7.06356 1.376887,9.70157 1.570601,7.32136 0.04723,-0.58024 0.201253,-1.19401 0.342289,-1.36395 z"
       style="fill:#28220b;stroke-width:0.264583"
       id="path1" />
  </g>
</svg>
