<?xml version="1.0" encoding="UTF-8" standalone="no"?>
<!-- Created with Inkscape (http://www.inkscape.org/) -->

<svg
   width="24mm"
   height="24mm"
   viewBox="0 0 24 24"
   version="1.1"
   id="svg1"
   inkscape:version="1.4.2 (f4327f4, 2025-05-13)"
   sodipodi:docname="utility_knife.svg"
   xmlns:inkscape="http://www.inkscape.org/namespaces/inkscape"
   xmlns:sodipodi="http://sodipodi.sourceforge.net/DTD/sodipodi-0.dtd"
   xmlns="http://www.w3.org/2000/svg"
   xmlns:svg="http://www.w3.org/2000/svg">
  <sodipodi:namedview
     id="namedview1"
     pagecolor="#ffffff"
     bordercolor="#000000"
     borderopacity="0.25"
     inkscape:showpageshadow="2"
     inkscape:pageopacity="0.0"
     inkscape:pagecheckerboard="0"
     inkscape:deskcolor="#d1d1d1"
     inkscape:document-units="mm"
     inkscape:zoom="0.68862935"
     inkscape:cx="39.9344"
     inkscape:cy="42.83872"
     inkscape:window-width="1920"
     inkscape:window-height="991"
     inkscape:window-x="-9"
     inkscape:window-y="-9"
     inkscape:window-maximized="1"
     inkscape:current-layer="layer1" />
  <defs
     id="defs1" />
  <g
     inkscape:label="Ebene 1"
     inkscape:groupmode="layer"
     id="layer1"
      transform="translate(0.74967 0) scale(1.067434) translate(-94.454825,-137.32451)">
    <path
       d="m 95.278318,157.75781 c -0.453703,-1.12779 -0.824273,-2.21685 -0.823492,-2.42015 7.93e-4,-0.20329 0.418142,-0.87817 0.927465,-1.49973 0.509323,-0.62156 0.926041,-1.36391 0.926041,-1.64967 0,-0.54108 1.529472,-2.2715 8.444768,-9.55424 4.28053,-4.50799 5.35107,-5.29823 7.19267,-5.30946 2.06083,-0.0126 3.8927,2.16866 3.54579,4.222 -0.23704,1.40302 -0.88597,2.16443 -3.1423,3.68699 -1.22765,0.82841 -3.56104,3.01632 -6.62001,6.20727 -2.59825,2.71036 -4.92974,4.92793 -5.18109,4.92793 -0.25134,0 -1.188949,0.7739 -2.083558,1.71979 -0.894612,0.94588 -1.791899,1.71979 -1.993969,1.71979 -0.210918,0 -0.718754,-0.87337 -1.192315,-2.05052 z m 3.675848,-1.68387 c 0,-0.0974 -0.326755,-0.259 -0.726125,-0.35924 -0.958112,-0.24047 -1.390542,-0.62311 -1.390542,-1.23043 0,-0.7081 -0.409477,-0.61426 -1.012023,0.23194 l -0.51889,0.72871 0.680892,1.70183 0.680889,1.70182 1.142899,-1.29881 c 0.628595,-0.71435 1.1429,-1.37846 1.1429,-1.47582 z m 6.309804,-5.45988 c 2.4821,-2.583 5.1308,-5.11307 5.886,-5.6224 2.43992,-1.64552 3.41461,-2.72682 3.41461,-3.7881 0,-2.15558 -1.2407,-3.28557 -3.23712,-2.94828 -1.34876,0.22788 -1.97266,0.79946 -8.82159,8.08192 l -5.371167,5.71116 0.330049,1.3003 c 0.286023,1.12685 0.45149,1.34242 1.240459,1.61609 1.773659,0.61523 1.809979,0.59114 6.558759,-4.35069 z m -5.08046,3.19166 c -0.1,-0.1 0.26153,-0.63575 0.80335,-1.19062 0.54181,-0.55487 0.89229,-1.00885 0.77883,-1.00885 -0.11346,0 0.16836,-0.31525 0.62627,-0.70055 0.64527,-0.54297 0.75399,-0.7569 0.48332,-0.951 -0.2652,-0.19019 -0.24513,-0.21742 0.0834,-0.11316 0.47216,0.14982 1.94698,-1.19144 1.64363,-1.49478 -0.0991,-0.0991 0.004,-0.1801 0.22849,-0.1801 0.22471,0 0.56175,-0.18457 0.74897,-0.41015 0.28158,-0.33928 0.26204,-0.48787 -0.11308,-0.8599 -0.42741,-0.4239 -0.6366,-0.2635 -3.6405,2.79141 -1.75287,1.78263 -3.235223,3.24114 -3.294114,3.24114 -0.521248,0 0.387554,-1.1874 3.200484,-4.18162 1.81886,-1.93609 3.30702,-3.61807 3.30702,-3.73773 0,-0.11966 1.13069,-1.25546 2.51263,-2.52399 l 2.51263,-2.30643 0.85994,0.50223 c 0.47297,0.27623 0.89658,0.69244 0.94135,0.92491 0.11752,0.61025 -1.58213,2.54646 -6.82063,7.76994 -2.54336,2.53606 -4.63687,4.61103 -4.65225,4.61103 -0.0154,0 -0.10977,-0.0818 -0.20974,-0.18178 z m 7.73185,-8.11731 1.13388,-1.15533 -0.7176,-0.56446 c -0.39467,-0.31045 -0.81132,-0.56446 -0.92587,-0.56446 -0.11456,0 -0.63458,0.49803 -1.1556,1.10673 l -0.94732,1.10673 0.57595,0.61306 c 0.31677,0.33719 0.64946,0.61307 0.73932,0.61307 0.0898,0 0.67361,-0.5199 1.29724,-1.15534 z m 2.40538,-2.93486 c 0.74653,-0.77023 0.83345,-0.97979 0.54867,-1.32292 -0.52078,-0.6275 -0.97586,-0.49233 -1.7472,0.51895 -0.57981,0.76017 -0.64771,0.99786 -0.37794,1.32292 0.45905,0.55312 0.57408,0.51525 1.57647,-0.51895 z m 0.79895,-2.92766 c -0.18407,-0.22179 -0.26106,-0.47688 -0.17108,-0.56687 0.19216,-0.19216 0.97014,0.39962 0.97014,0.73796 0,0.36445 -0.43123,0.27212 -0.79906,-0.17109 z"
       style="fill:#2b1e17;fill-opacity:1;stroke-width:0.264583"
       id="path1" />
  </g>
</svg>

