<?xml version="1.0" encoding="UTF-8" standalone="no"?>
<!-- Created with Inkscape (http://www.inkscape.org/) -->

<svg
   width="24"
   height="24"
   viewBox="0 0 48 48"
   version="1.1"
   id="svg1"
   inkscape:version="1.4.2 (f4327f4, 2025-05-13)"
   sodipodi:docname="wall_cabinet_carcass.svg"
   xmlns:inkscape="http://www.inkscape.org/namespaces/inkscape"
   xmlns:sodipodi="http://sodipodi.sourceforge.net/DTD/sodipodi-0.dtd"
   xmlns="http://www.w3.org/2000/svg"
   xmlns:svg="http://www.w3.org/2000/svg">
  <sodipodi:namedview
     id="namedview1"
     pagecolor="#ffffff"
     bordercolor="#000000"
     borderopacity="0.25"
     inkscape:showpageshadow="2"
     inkscape:pageopacity="0.0"
     inkscape:pagecheckerboard="0"
     inkscape:deskcolor="#d1d1d1"
     inkscape:document-units="mm"
     inkscape:zoom="11.01807"
     inkscape:cx="16.01914"
     inkscape:cy="12.4795"
     inkscape:window-width="1920"
     inkscape:window-height="991"
     inkscape:window-x="-9"
     inkscape:window-y="-9"
     inkscape:window-maximized="1"
     inkscape:current-layer="layer1" />
  <defs
     id="defs1" />
  <g
     inkscape:label="Ebene 1"
     inkscape:groupmode="layer"
     id="layer1"
     transform="translate(-82.587066,-129.12999)">
    <path
       d="m 120.91153,172.20801 c -0.78675,-0.20138 -12.322,-2.66863 -23.018746,-4.92342 -3.055937,-0.64417 -5.675312,-1.21382 -5.820833,-1.2659 -0.145521,-0.0521 -0.502708,-0.01 -0.79375,0.0941 -0.291042,0.10384 -1.243541,0.0324 -2.116666,-0.15867 -2.622498,-0.574 -4.20677,-0.93496 -4.698725,-1.07056 -0.437613,-0.12063 -0.461304,-0.94448 -0.396875,-13.80189 l 0.06852,-13.67361 3.571875,-1.77259 c 1.964531,-0.97492 3.880273,-1.77859 4.257207,-1.78593 0.778579,-0.0152 36.746143,6.03647 37.071103,6.23731 0.1162,0.0718 0.21127,6.29404 0.21127,13.82716 v 13.69659 l -3.43115,2.42738 c -1.88712,1.33506 -3.58376,2.41519 -3.77031,2.40029 -0.18654,-0.0149 -0.69635,-0.11851 -1.13292,-0.23026 z m 0.92605,-14.16245 c 0,-8.90763 -0.0916,-13.62604 -0.26459,-13.62604 -0.17296,0 -0.26458,4.71841 -0.26458,13.62604 0,8.90764 0.0916,13.62605 0.26458,13.62605 0.17297,0 0.26459,-4.71841 0.26459,-13.62605 z m -1.23372,12.84601 c -0.12182,-0.10513 -3.07172,-0.80871 -6.55532,-1.56352 -3.48361,-0.7548 -6.34111,-1.39949 -6.35,-1.43264 -0.009,-0.0331 0.0159,-5.7455 0.055,-12.69412 0.0669,-11.86742 0.0995,-12.63385 0.53796,-12.63385 0.25671,0 3.13492,0.4731 6.39603,1.05134 3.2611,0.57824 5.98566,0.99496 6.05457,0.92605 0.28212,-0.28212 -0.34243,-0.45951 -3.70961,-1.05364 -1.94113,-0.34251 -8.2639,-1.46437 -14.05061,-2.49304 -11.220984,-1.99467 -11.284617,-2.00415 -10.89673,-1.62386 0.138245,0.13554 3.346979,0.79766 7.130521,1.47138 3.783539,0.67371 7.085279,1.2845 7.337199,1.35731 0.42482,0.12277 0.46319,1.0521 0.52917,12.81619 0.0596,10.62664 0.0121,12.68381 -0.29306,12.68375 -0.2003,-3e-5 -3.5227,-0.65633 -7.383116,-1.45844 -6.249987,-1.2986 -7.601677,-1.49929 -7.166374,-1.06399 0.06791,0.0679 2.61783,0.65556 5.666491,1.30589 11.565579,2.46712 20.917859,4.47331 21.682609,4.65121 0.84798,0.19727 1.37962,0.0684 1.01524,-0.24602 z m 7.78463,-16.77892 0.0686,-13.14624 -1.39154,0.81088 c -0.76534,0.44598 -2.07473,1.19317 -2.90975,1.66041 l -1.51822,0.84953 -0.003,13.55344 -0.003,13.55344 2.84427,-2.06761 2.84427,-2.06762 z m -7.87383,13.76149 v -2.20997 l -5.35781,-1.05054 c -2.9468,-0.57779 -5.43506,-0.98229 -5.52946,-0.89888 -0.0944,0.0834 -0.21654,1.00042 -0.27142,2.03781 l -0.0998,1.88617 5.4308,1.19144 c 2.98694,0.65529 5.52009,1.2055 5.62923,1.22269 0.10914,0.0172 0.19844,-0.96324 0.19844,-2.17872 z m -14.34252,-3.00677 -0.0773,-2.04173 -4.56021,-0.88877 -4.560213,-0.88877 -2.26923,1.37068 c -1.248077,0.75388 -2.195283,1.44752 -2.104904,1.54144 0.164725,0.17117 12.283737,2.85312 13.174957,2.91563 0.42384,0.0297 0.46595,-0.18336 0.39687,-2.00848 z m 2.70085,-9.73222 c 0,-7.67292 -0.0921,-11.77396 -0.26458,-11.77396 -0.17243,0 -0.26458,4.10104 -0.26458,11.77396 0,7.67291 0.0921,11.77396 0.26458,11.77396 0.17243,0 0.26458,-4.10105 0.26458,-11.77396 z m -18.520831,-2.71927 v -12.90573 l -2.778124,-0.52585 -2.778125,-0.52586 v 12.8727 12.8727 l 2.182812,0.52794 c 1.200547,0.29037 2.450703,0.54186 2.778125,0.55888 l 0.595312,0.0309 z m 1.058334,-0.0589 c 0,-8.46666 -0.09179,-12.96458 -0.264584,-12.96458 -0.172788,0 -0.264583,4.49792 -0.264583,12.96458 0,8.46667 0.0918,12.96459 0.264583,12.96459 0.172789,0 0.264584,-4.49792 0.264584,-12.96459 z m 29.041237,2.85597 -0.0694,-9.84404 -4.7625,-0.85729 c -2.61938,-0.47151 -5.09141,-0.86372 -5.49341,-0.87159 l -0.7309,-0.0143 0.0695,9.59115 0.0694,9.59114 5.29167,1.09225 c 2.91041,0.60074 5.38241,1.10676 5.49332,1.12448 0.11091,0.0177 0.17045,-4.39758 0.13229,-9.8118 z m -24.354136,5.50193 c 0.240083,-0.21546 0.328655,-2.73225 0.349827,-9.94065 l 0.02835,-9.65214 -1.672741,-0.31937 c -2.450394,-0.46783 -2.598785,-0.45063 -2.598785,0.30117 0,0.47188 0.110148,0.61088 0.396875,0.50086 0.218281,-0.0838 0.396875,-0.0205 0.396875,0.14059 0,0.16109 0.170571,0.29289 0.379045,0.29289 0.625329,0 0.818284,1.09609 0.264268,1.5012 -0.263927,0.19299 -0.389078,0.35089 -0.278109,0.35089 0.110969,0 0.02318,0.17859 -0.195114,0.39687 -0.218281,0.21828 -0.524444,0.39688 -0.680358,0.39688 -0.19431,0 -0.283482,2.1613 -0.283482,6.87086 0,5.99873 0.05038,6.85153 0.396875,6.71857 0.218281,-0.0838 0.396875,-0.0344 0.396875,0.10973 0,0.14412 0.222599,0.32025 0.494662,0.39139 0.279178,0.073 0.48088,0.34578 0.463021,0.62617 -0.03843,0.60342 -0.946385,1.68744 -1.413359,1.68744 -0.218247,0 -0.338074,0.37657 -0.338074,1.06243 v 1.06243 l 1.785937,-1.10485 c 0.982266,-0.60768 1.930601,-1.23468 2.107414,-1.39336 z m 10.129566,-8.20454 v -9.63627 l -0.7276,-0.14945 c -0.40019,-0.0822 -2.15636,-0.39239 -3.90261,-0.68932 -1.746249,-0.29693 -3.44289,-0.59859 -3.770311,-0.67036 l -0.595313,-0.1305 v 9.60688 9.60687 l 4.034894,0.81985 c 2.21919,0.45091 4.24326,0.83306 4.49792,0.8492 0.43303,0.0275 0.46302,-0.59471 0.46302,-9.6069 z m -12.964584,6.94943 c 0,-0.12297 -0.12609,-0.22358 -0.280199,-0.22358 -0.154109,0 -0.206092,0.1199 -0.11552,0.26645 0.09057,0.14655 -0.02146,0.33788 -0.24897,0.42518 -0.227505,0.0873 -0.413644,0.28351 -0.413644,0.43602 0,0.1525 0.238125,0.0618 0.529166,-0.20161 0.291042,-0.26339 0.529167,-0.5795 0.529167,-0.70246 z m 32.218324,-17.5529 c 1.20347,-0.698 2.13579,-1.32143 2.07184,-1.38538 -0.16935,-0.16935 -5.44327,2.92967 -5.44723,3.20086 -0.002,0.12588 0.26454,0.0544 0.59196,-0.15876 0.32742,-0.21319 1.57997,-0.95872 2.78343,-1.65672 z m -32.33504,1.33044 c 0.282475,-0.21365 0.3745,-0.39224 0.204502,-0.39687 -0.502653,-0.0137 -1.146119,0.29457 -1.146119,0.54906 0,0.34675 0.358584,0.2888 0.941617,-0.15219 z m 30.34745,-1.24839 c 2.8095,-1.57665 2.70019,-1.50651 2.55555,-1.63955 -0.0606,-0.0558 -6.95634,-1.2518 -15.32378,-2.65783 -8.36745,-1.40602 -15.749327,-2.64835 -16.404171,-2.76071 -1.085799,-0.18631 -1.431538,-0.0903 -3.926948,1.09007 -1.504979,0.71191 -2.692871,1.33783 -2.639761,1.39094 0.126651,0.12665 31.95201,5.86625 32.82869,5.92054 0.25581,0.0159 1.56549,-0.58871 2.91042,-1.34346 z m -34.112425,-3.51868 c -1.292127,-0.31593 -4.903719,-0.76941 -4.055809,-0.50925 0.705377,0.21642 4.349401,0.84505 4.894792,0.8444 0.291041,-3.4e-4 -0.0865,-0.15116 -0.838983,-0.33515 z m -0.08706,-2.51738 c 1.382448,-0.71282 2.394479,-1.29604 2.248958,-1.29604 -0.14552,0 -1.395677,0.58322 -2.778124,1.29604 -1.382448,0.71282 -2.39448,1.29603 -2.248959,1.29603 0.145521,0 1.395677,-0.58321 2.778125,-1.29603 z"
       style="fill:#28220b;stroke-width:0.264583"
       id="path1" />
  </g>
</svg>
