<?xml version="1.0" encoding="UTF-8" standalone="no"?>
<!-- Created with Inkscape (http://www.inkscape.org/) -->

<svg
   width="24"
   height="24"
   viewBox="0 0 60 60"
   version="1.1"
   id="svg1"
   inkscape:version="1.4.2 (f4327f4, 2025-05-13)"
   sodipodi:docname="wardrobe_cabinet_carcass.svg"
   xmlns:inkscape="http://www.inkscape.org/namespaces/inkscape"
   xmlns:sodipodi="http://sodipodi.sourceforge.net/DTD/sodipodi-0.dtd"
   xmlns="http://www.w3.org/2000/svg"
   xmlns:svg="http://www.w3.org/2000/svg">
  <sodipodi:namedview
     id="namedview1"
     pagecolor="#ffffff"
     bordercolor="#000000"
     borderopacity="0.25"
     inkscape:showpageshadow="2"
     inkscape:pageopacity="0.0"
     inkscape:pagecheckerboard="0"
     inkscape:deskcolor="#d1d1d1"
     inkscape:document-units="mm"
     inkscape:zoom="22.036139"
     inkscape:cx="9.5978701"
     inkscape:cy="7.4650101"
     inkscape:window-width="1920"
     inkscape:window-height="991"
     inkscape:window-x="-9"
     inkscape:window-y="-9"
     inkscape:window-maximized="1"
     inkscape:current-layer="layer1" />
  <defs
     id="defs1" />
  <g
     inkscape:label="Ebene 1"
     inkscape:groupmode="layer"
     id="layer1"
     transform="translate(-84.402082,-121.98988)">
    <path
       d="m 97.711681,176.48972 c -1.527969,-1.02582 -2.986484,-2.05318 -3.241146,-2.28303 -0.433832,-0.39157 -0.46302,-1.78964 -0.46302,-22.17672 0,-19.76972 0.03899,-21.77377 0.426542,-21.92249 0.234598,-0.09 5.32452,-1.0623 11.310943,-2.16061 5.98641,-1.09832 11.36064,-2.10605 11.94272,-2.23941 2.09071,-0.47901 2.89041,-0.3157 6.00399,1.22614 1.64551,0.81485 3.40856,1.70943 3.91788,1.98794 0.50933,0.27851 2.44409,1.21137 4.29948,2.07302 l 3.37344,1.56664 v 20.89107 c 0,18.80585 -0.0418,20.9071 -0.41851,21.05167 -0.74985,0.28775 -1.09849,0.17634 -3.06536,-0.97953 -1.06705,-0.62707 -2.63142,-1.53262 -3.47638,-2.01234 l -1.5363,-0.87221 0.0811,1.0108 c 0.0672,0.83781 -0.009,1.02658 -0.44808,1.10305 -0.29104,0.0507 -6.01669,1.33487 -12.72365,2.85363 -6.70697,1.51875 -12.42197,2.75825 -12.7,2.75443 -0.27803,-0.004 -1.75567,-0.84624 -3.283639,-1.87205 z m 3.704169,-20.78698 c 0,-12.02972 -0.0793,-21.79288 -0.17631,-21.69591 -0.28114,0.28114 -0.34984,43.56813 -0.0692,43.56813 0.14891,0 0.24546,-8.60301 0.24546,-21.87222 z m -1.05834,-0.0295 v -21.63716 l -2.608996,-1.38159 c -1.434949,-0.75987 -2.685815,-1.38158 -2.779699,-1.38158 -0.09389,0 -0.140224,9.55411 -0.102979,21.23136 l 0.06772,21.23137 2.645833,1.78221 c 1.455209,0.98022 2.675601,1.78454 2.711981,1.78738 0.0364,0.003 0.0661,-9.73155 0.0661,-21.63199 z m 12.7,19.30647 c 5.16599,-1.18103 10.01779,-2.28073 10.78177,-2.44378 1.30413,-0.27833 1.38906,-0.34538 1.38906,-1.09659 0,-0.52918 -0.11199,-0.75856 -0.33072,-0.67738 -0.18191,0.0675 -5.36112,1.23902 -11.50938,2.60334 l -11.17864,2.48058 v 0.7623 c 0,0.93596 -1.0755,1.09741 10.84791,-1.62847 z m 1.05833,-2.44154 c 11.16228,-2.47844 11.53233,-2.56905 11.32764,-2.77374 -0.0688,-0.0688 -2.5226,0.41021 -5.45277,1.06457 -2.93018,0.65435 -5.42096,1.18957 -5.53508,1.18937 -0.11412,-2.1e-4 -0.21238,-8.98615 -0.21834,-19.96876 l -0.0109,-19.9684 1.33376,-0.27037 c 0.73358,-0.1487 3.22182,-0.62119 5.52942,-1.04997 3.90595,-0.72578 4.6632,-0.92803 4.38126,-1.17013 -0.10646,-0.0914 -4.97605,0.77785 -16.91128,3.01884 -6.53307,1.22667 -6.67511,1.26175 -6.46785,1.59711 0.0849,0.13742 0.24552,0.19354 0.35688,0.12472 0.26206,-0.16196 10.0661,-1.99812 10.67503,-1.99929 0.43689,-8.4e-4 0.46302,1.12528 0.46302,19.95146 v 19.95234 l -2.3151,0.52322 c -1.27331,0.28777 -3.83315,0.85244 -5.68854,1.25483 -1.85539,0.40238 -3.37344,0.83471 -3.37344,0.96073 0,0.12602 0.26789,0.16469 0.59531,0.0859 0.32743,-0.0787 5.41735,-1.21386 11.31094,-2.52246 z m -6.14787,0.37361 c 3.50366,-0.76632 4.48984,-1.06998 4.23333,-1.30348 -0.18393,-0.16743 -1.28217,-0.87058 -2.44053,-1.56255 l -2.10612,-1.25812 -2.72252,0.59748 -2.72253,0.59748 v 2.10509 c 0,2.04844 0.016,2.1013 0.59531,1.96413 0.32742,-0.0775 2.6508,-0.59055 5.16306,-1.14003 z m 26.75715,-19.87689 c 0.0233,-13.10852 -0.0542,-19.64532 -0.23298,-19.64532 -0.1788,0 -0.25919,6.75739 -0.24159,20.30677 0.0145,11.16873 0.11935,20.00912 0.23299,19.64532 0.11363,-0.36381 0.22235,-9.50185 0.24158,-20.30677 z m -1.03214,0.39687 -0.002,-20.17448 -1.65161,-0.69799 c -0.90831,-0.38389 -2.57426,-1.12503 -3.70205,-1.64696 l -2.05052,-0.94898 0.004,1.77926 c 0.003,1.13374 0.0889,1.64528 0.23788,1.40997 0.1286,-0.2031 0.42444,-0.29614 0.65741,-0.20674 0.60012,0.23029 0.61694,3.08957 0.0182,3.08957 -0.22297,0 -0.51308,-0.26789 -0.64468,-0.59532 -0.14708,-0.3659 -0.24575,5.25441 -0.25606,14.58448 -0.0147,13.26149 0.0319,15.13939 0.36851,14.86004 0.6366,-0.52833 0.93763,-0.0592 0.93763,1.4612 0,1.08133 -0.0955,1.4396 -0.38372,1.4396 -0.21105,0 -0.50509,-0.20836 -0.65342,-0.46302 -0.20943,-0.35958 -0.27148,-0.16716 -0.27773,0.86133 l -0.008,1.32435 3.50573,2.03357 c 1.92815,1.11846 3.59503,2.04055 3.70417,2.04908 0.10914,0.009 0.19752,-9.063 0.1964,-20.15896 z m -7.4063,17.79323 c 0,-0.43656 -0.11906,-0.79375 -0.26459,-0.79375 -0.14552,0 -0.26458,0.35719 -0.26458,0.79375 0,0.43656 0.11906,0.79375 0.26458,0.79375 0.14553,0 0.26459,-0.35719 0.26459,-0.79375 z m -13.22917,-19.18736 v -19.18734 l -0.59531,0.13814 c -0.76804,0.17821 -4.44208,0.93028 -4.54467,0.93028 -0.0431,0 -0.0225,0.29212 0.0458,0.64915 0.10966,0.57359 0.22086,0.62893 0.9555,0.47546 1.77841,-0.3715 2.15432,-0.26765 2.15432,0.59518 0,0.75993 -0.0652,0.80502 -1.53001,1.05833 l -1.53001,0.26459 0.0127,15.60128 c 0.007,8.5807 0.10075,15.68928 0.20831,15.79684 0.2964,0.2964 4.39776,2.81774 4.6249,2.84319 0.10914,0.0122 0.19843,-8.61207 0.19843,-19.1651 z m 6.81803,18.25207 c 2.2892,-0.51439 4.33245,-0.99513 4.54056,-1.06831 0.22617,-0.0795 -0.60619,-0.72045 -2.06908,-1.59319 l -2.44747,-1.46013 -1.50279,0.29971 c -0.82653,0.16484 -1.94927,0.41426 -2.49498,0.55427 l -0.99219,0.25456 v 1.97417 c 0,1.58937 0.0783,1.97418 0.40189,1.97418 0.22103,0 2.27486,-0.42087 4.56406,-0.93526 z m -14.68938,-1.58652 2.05052,-0.44176 V 152.7083 137.15519 l -1.91823,0.35985 c -1.05502,0.19792 -2.18612,0.42448 -2.51354,0.50347 l -0.59531,0.14361 v 15.62321 c 0,14.75307 0.0258,15.61586 0.46302,15.4914 0.25466,-0.0725 1.38575,-0.33059 2.51354,-0.57355 z m 20.30677,-1.00034 c 0,-0.66685 -0.18971,-1.01654 -0.79375,-1.46313 -0.43656,-0.32276 -0.79375,-0.80682 -0.79375,-1.07569 0,-0.62805 0.67088,-1.18657 1.18725,-0.98842 0.35429,0.13595 0.40025,-1.51851 0.40025,-14.40727 v -14.56087 l -0.79375,-0.66789 c -0.43656,-0.36735 -0.79375,-0.81746 -0.79375,-1.00025 0,-0.4804 0.97482,-1.29095 1.30624,-1.08612 0.18031,0.11144 0.28126,-0.19768 0.28126,-0.86128 v -1.03511 l -2.64584,0.52765 c -2.58307,0.51513 -2.64583,0.54492 -2.64583,1.25621 0,0.70647 0.0301,0.72158 0.99219,0.49816 1.5839,-0.36782 1.89351,-0.30135 2.08129,0.44682 0.21197,0.84457 -0.0716,1.04682 -1.78655,1.27432 l -1.29115,0.17128 0.0683,15.51302 0.0683,15.51301 2.38125,1.39504 c 1.30969,0.76727 2.47055,1.40218 2.57969,1.41092 0.10914,0.009 0.19844,-0.37844 0.19844,-0.8604 z m 1.85208,-0.9758 c 0,-0.14552 -0.11906,-0.26458 -0.26458,-0.26458 -0.14552,0 -0.26459,0.11906 -0.26459,0.26458 0,0.14552 0.11907,0.26459 0.26459,0.26459 0.14552,0 0.26458,-0.11907 0.26458,-0.26459 z m -9.19847,-0.83548 1.25258,-0.2649 0.0703,-15.32486 c 0.0492,-10.71978 -0.0144,-15.32484 -0.21179,-15.3248 -0.37442,6e-5 -3.29734,0.52226 -3.88505,0.69408 -0.4341,0.12692 -0.46303,1.09464 -0.46303,15.49282 v 15.35745 l 0.99219,-0.18244 c 0.54571,-0.10035 1.55585,-0.30165 2.24476,-0.44735 z m 8.27243,0.30632 c 0.0899,-0.14552 0.0374,-0.26459 -0.11668,-0.26459 -0.15411,0 -0.2802,0.11907 -0.2802,0.26459 0,0.14552 0.0525,0.26458 0.11668,0.26458 0.0642,0 0.19026,-0.11906 0.2802,-0.26458 z m -0.66146,-0.38126 c 0,-0.27927 -0.50776,-0.39659 -0.65879,-0.15223 -0.0914,0.1479 0.0194,0.2689 0.2463,0.2689 0.22687,0 0.41249,-0.0525 0.41249,-0.11667 z m 1.5875,-0.29582 c 0,-0.22687 -0.11906,-0.3389 -0.26458,-0.24897 -0.14552,0.0899 -0.26459,0.27556 -0.26459,0.4125 0,0.13693 0.11907,0.24896 0.26459,0.24896 0.14552,0 0.26458,-0.18562 0.26458,-0.41249 z m -2.72968,-0.43087 c -0.0845,-0.21106 -0.14715,-0.14837 -0.15985,0.15986 -0.0115,0.27891 0.0511,0.43518 0.13897,0.34726 0.0879,-0.0879 0.0973,-0.31612 0.0209,-0.50712 z m -18.07607,-28.4279 c 2.05707,-0.38295 3.85324,-0.79967 3.99148,-0.92604 0.39617,-0.36216 -0.22344,-0.29539 -4.41854,0.47619 -2.14643,0.39478 -3.9026,0.81416 -3.9026,0.93195 0,0.30884 0.2014,0.28642 4.32966,-0.4821 z m -1.19443,-0.91444 c 1.90574,-0.32885 2.36438,-0.64077 2.07003,-1.40783 -0.10969,-0.28586 -0.37829,-0.32206 -1.15278,-0.15534 -0.55538,0.11956 -1.69438,0.35524 -2.53113,0.52376 -1.37189,0.27628 -1.52135,0.37234 -1.52135,0.97776 0,0.56048 0.0983,0.64874 0.59531,0.5343 0.32742,-0.0754 1.47038,-0.28809 2.53992,-0.47265 z m 16.11677,-1.84537 c 0.76594,-0.1579 1.33669,-0.37759 1.26833,-0.48819 -0.17992,-0.29112 -7.62636,1.11339 -7.74199,1.46026 -0.0904,0.27136 1.86991,-0.023 6.47366,-0.97207 z m 5.67527,0.28107 c -0.0641,-0.43656 -0.16252,-0.79375 -0.21876,-0.79375 -0.0563,0 -0.10227,0.35719 -0.10227,0.79375 0,0.43657 0.0984,0.79375 0.21876,0.79375 0.12032,0 0.16634,-0.35718 0.10227,-0.79375 z m -1.37936,0 c 0,-0.14552 -0.17859,-0.26458 -0.39687,-0.26458 -0.48057,0 -0.52683,-0.43263 -0.0662,-0.61852 0.19758,-0.0797 0.14431,-0.14186 -0.13229,-0.15434 -0.53207,-0.024 -0.61216,0.51789 -0.14552,0.98453 0.38635,0.38634 0.74083,0.41166 0.74083,0.0529 z m -8.3102,-0.62919 c 1.96154,-0.42114 2.22478,-0.57169 2.22478,-1.27232 0,-0.59554 -0.353,-0.58781 -3.4457,0.0755 -1.13827,0.24411 -1.3168,0.36911 -1.3168,0.92194 0,0.74652 0.22673,0.77108 2.53772,0.27492 z m -17.22936,-0.5238 c -0.861373,-0.59291 -4.772534,-2.66071 -4.535557,-2.39791 0.304054,0.33719 4.483467,2.72542 4.800137,2.74293 0.14152,0.008 0.0225,-0.14743 -0.26458,-0.34502 z m 12.57498,-1.83892 c 5.02047,-0.94764 9.78297,-1.8276 10.58333,-1.95547 l 1.45521,-0.23248 -2.82581,-1.37233 -2.82581,-1.37234 -7.22836,1.33121 c -3.97559,0.73216 -8.98452,1.64861 -11.13095,2.03655 -2.146437,0.38793 -3.900254,0.76824 -3.897375,0.84512 0.0029,0.0769 1.044675,0.70399 2.315104,1.39357 1.901881,1.03235 2.496801,1.23573 3.368201,1.15148 0.58209,-0.0563 5.16599,-0.87767 10.18646,-1.82531 z m 21.02114,1.43829 c -0.40381,-0.37065 -6.46396,-3.03759 -6.59793,-2.90361 -0.0996,0.0996 6.33473,3.08523 6.73023,3.12296 0.0655,0.006 0.006,-0.0925 -0.1323,-0.21935 z m -8.85031,-4.3995 c -0.3638,-0.20797 -0.78052,-0.37813 -0.92604,-0.37813 -0.14552,0 0.0331,0.17016 0.39687,0.37813 0.36381,0.20797 0.78053,0.37812 0.92605,0.37812 0.14552,0 -0.0331,-0.17015 -0.39688,-0.37812 z"
       style="fill:#28220b;stroke-width:0.264583"
       id="path1" />
  </g>
</svg>
