<?xml version="1.0" encoding="UTF-8" standalone="no"?>
<!-- Created with Inkscape (http://www.inkscape.org/) -->

<svg
   width="24mm"
   height="24mm"
   viewBox="0 0 24 24"
   version="1.1"
   id="svg1"
   inkscape:version="1.4.2 (f4327f4, 2025-05-13)"
   sodipodi:docname="wood_screw.svg"
   xmlns:inkscape="http://www.inkscape.org/namespaces/inkscape"
   xmlns:sodipodi="http://sodipodi.sourceforge.net/DTD/sodipodi-0.dtd"
   xmlns="http://www.w3.org/2000/svg"
   xmlns:svg="http://www.w3.org/2000/svg">
  <sodipodi:namedview
     id="namedview1"
     pagecolor="#ffffff"
     bordercolor="#000000"
     borderopacity="0.25"
     inkscape:showpageshadow="2"
     inkscape:pageopacity="0.0"
     inkscape:pagecheckerboard="0"
     inkscape:deskcolor="#d1d1d1"
     inkscape:document-units="mm"
     inkscape:zoom="0.68862935"
     inkscape:cx="45.74304"
     inkscape:cy="45.74304"
     inkscape:window-width="1920"
     inkscape:window-height="991"
     inkscape:window-x="-9"
     inkscape:window-y="-9"
     inkscape:window-maximized="1"
     inkscape:current-layer="layer1" />
  <defs
     id="defs1" />
  <g
     inkscape:label="Ebene 1"
     inkscape:groupmode="layer"
     id="layer1"
      transform="translate(0.072515 0) scale(0.998454) translate(-93.058622,-136.5414)">
    <path
       d="m 93.178204,160.25927 c -0.205891,-0.24808 -0.150331,-0.86443 0.20107,-2.23056 0.493562,-1.9188 1.059336,-2.94103 2.175473,-3.93059 0.341709,-0.30296 1.48005,-1.43405 2.529644,-2.51354 1.049594,-1.07949 2.036949,-2.08177 2.194109,-2.22729 0.15717,-0.14552 2.13101,-2.14977 4.38632,-4.45389 3.52777,-3.60413 4.07132,-4.26937 3.8913,-4.7625 -0.39939,-1.09406 -0.23061,-2.84919 0.31215,-3.24606 0.77193,-0.56445 2.21833,-0.44263 3.4727,0.29248 1.24235,0.72807 1.65934,1.52049 1.13352,2.15406 -0.29498,0.35544 -0.23651,0.40264 0.44117,0.35615 1.3205,-0.0906 1.41771,-0.0357 2.23091,1.25924 0.82507,1.31389 1.03834,2.82922 0.53146,3.77632 -0.3767,0.70387 -1.82328,0.91609 -2.97222,0.43603 l -0.9443,-0.39456 -3.46529,3.48199 c -1.90591,1.9151 -3.59572,3.61891 -3.75514,3.78626 -0.15941,0.16735 -0.54582,0.56026 -0.85869,0.87313 -0.31287,0.31287 -0.68791,0.6917 -0.83343,0.84186 -4.883647,5.03912 -5.658664,5.66744 -7.820683,6.34034 -1.90704,0.59353 -2.46503,0.62508 -2.850073,0.16113 z m 3.973751,-1.56909 c 1.050935,-0.59066 1.297148,-0.99852 0.602789,-0.99852 -0.22312,0 -0.994566,-0.29841 -1.714328,-0.66314 l -1.308655,-0.66315 -0.159631,0.72929 c -0.0878,0.40111 -0.268852,1.07448 -0.402342,1.49638 -0.133487,0.4219 -0.242707,0.82407 -0.242707,0.89371 0,0.29327 2.295776,-0.27239 3.224874,-0.79457 z m 2.328777,-1.92143 c 0.261491,-0.31507 0.254749,-0.41898 -0.03375,-0.52007 -0.198289,-0.0695 -1.050139,-0.37897 -1.892998,-0.68776 -1.282118,-0.46971 -1.600994,-0.50456 -1.9519,-0.21333 -0.366006,0.30376 -0.221377,0.44139 1.135597,1.08067 1.771295,0.83448 2.280615,0.89769 2.743051,0.34049 z m -0.0539,-2.53332 c -1.627542,-0.60017 -1.987248,-0.65523 -2.309002,-0.35344 -0.497766,0.4669 -0.363025,0.57479 1.620985,1.29797 1.534735,0.55943 1.708985,0.57468 2.143225,0.18767 0.44235,-0.39425 0.34899,-0.46688 -1.455208,-1.1322 z m 3.082518,-0.49407 c 0.44991,-0.49716 0.41082,-0.52602 -1.47192,-1.08672 -1.83122,-0.54537 -2.657646,-0.50689 -2.650513,0.12339 0.0026,0.23136 2.743943,1.41508 3.370513,1.45541 0.15934,0.0103 0.49771,-0.21118 0.75192,-0.49208 z m 1.74179,-1.74463 c 0.18407,-0.2218 0.28795,-0.44738 0.23083,-0.50129 -0.0571,-0.0539 -0.93069,-0.35198 -1.94128,-0.66237 -1.83394,-0.56326 -1.83844,-0.56333 -2.3636,-0.0382 -0.425217,0.42521 -0.453408,0.55291 -0.14694,0.66562 2.89953,1.06632 3.69696,1.16762 4.22099,0.53621 z m 1.52927,-1.50173 c 0.54504,-0.54504 0.37072,-0.69318 -1.53966,-1.30846 l -1.85717,-0.59814 -0.55167,0.55167 -0.55167,0.55168 1.68123,0.53245 c 2.03625,0.64488 2.40905,0.6807 2.81894,0.2708 z m 1.63678,-1.66249 c 0.27099,-0.32653 0.19863,-0.43954 -0.43062,-0.67245 -0.416,-0.15398 -1.26914,-0.47237 -1.89586,-0.70753 -1.05155,-0.39456 -1.17285,-0.3942 -1.57175,0.005 -0.53193,0.53192 -0.55173,0.51492 1.38833,1.19183 1.9213,0.67037 2.09524,0.68309 2.5099,0.18345 z m 1.55659,-1.55025 c 0.23424,-0.28225 0.0642,-0.42782 -0.8275,-0.70848 -0.61728,-0.19428 -1.4583,-0.51815 -1.86893,-0.71972 -0.57938,-0.28439 -0.83126,-0.29623 -1.12448,-0.0529 -0.60269,0.50019 -0.46293,0.67359 1.01119,1.25455 1.64589,0.64866 2.40836,0.71013 2.80972,0.22652 z m 1.98617,-1.99247 1.00068,-1.02479 -1.39682,-1.39682 -1.39682,-1.39683 -1.14348,1.26302 c -0.97509,1.07702 -1.09392,1.32648 -0.80694,1.69401 0.29348,0.37583 0.28179,0.38825 -0.0914,0.097 -0.34994,-0.27313 -0.48941,-0.25991 -0.76531,0.0725 -0.18557,0.22359 -0.29066,0.44689 -0.23354,0.49621 0.15758,0.13608 3.23934,1.1757 3.55588,1.19956 0.15237,0.0115 0.72734,-0.44026 1.27771,-1.0039 z m 5.13745,-1.62389 c 0.0956,-0.81841 -1.04012,-3.03986 -1.55415,-3.03986 -0.23026,0 -0.37554,0.2724 -0.37554,0.70409 0,1.1266 -0.35658,1.17677 -0.80117,0.11273 -0.27821,-0.66585 -0.66448,-1.07251 -1.1941,-1.25714 -0.95687,-0.33356 -0.99848,-0.68142 -0.1214,-1.01489 0.95285,-0.36227 0.81844,-0.74836 -0.46302,-1.33004 -2.09365,-0.95034 -2.84685,-0.52404 -2.31997,1.31308 0.40694,1.41893 1.59497,2.92642 3.293,4.17851 1.27525,0.94033 1.745,1.14164 2.51355,1.07714 0.78658,-0.066 0.95821,-0.19079 1.0228,-0.74362 z"
       style="fill:#2b1e17;fill-opacity:1;stroke-width:0.264583"
       id="path1" />
  </g>
</svg>

