<?xml version="1.0" encoding="UTF-8" standalone="no"?>
<!-- Created with Inkscape (http://www.inkscape.org/) -->

<svg
   width="24"
   height="24"
   viewBox="0 0 34.285714 34.285714"
   version="1.1"
   id="svg1"
   inkscape:version="1.4.2 (f4327f4, 2025-05-13)"
   sodipodi:docname="x_frame_table_base.svg"
   xmlns:inkscape="http://www.inkscape.org/namespaces/inkscape"
   xmlns:sodipodi="http://sodipodi.sourceforge.net/DTD/sodipodi-0.dtd"
   xmlns="http://www.w3.org/2000/svg"
   xmlns:svg="http://www.w3.org/2000/svg">
  <sodipodi:namedview
     id="namedview1"
     pagecolor="#ffffff"
     bordercolor="#000000"
     borderopacity="0.25"
     inkscape:showpageshadow="2"
     inkscape:pageopacity="0.0"
     inkscape:pagecheckerboard="0"
     inkscape:deskcolor="#d1d1d1"
     inkscape:document-units="mm"
     inkscape:zoom="15.581903"
     inkscape:cx="18.579245"
     inkscape:cy="11.134712"
     inkscape:window-width="1920"
     inkscape:window-height="991"
     inkscape:window-x="-9"
     inkscape:window-y="-9"
     inkscape:window-maximized="1"
     inkscape:current-layer="layer1" />
  <defs
     id="defs1" />
  <g
     inkscape:label="Ebene 1"
     inkscape:groupmode="layer"
     id="layer1"
     transform="translate(-91.281249,-132.96617)">
    <path
       d="m 95.268774,165.54191 -0.595312,-0.28711 v -10.68087 -10.68086 l 0.654942,-0.29841 c 0.651023,-0.29663 0.655372,-0.32297 0.727604,-4.40702 l 0.07266,-4.10861 0.79375,-0.32056 c 0.73084,-0.29514 1.210482,-0.15506 6.051752,1.76745 l 5.25799,2.088 3.73784,-1.44317 c 2.05581,-0.79375 4.48424,-1.74839 5.39653,-2.12144 1.55246,-0.63483 1.70895,-0.65228 2.44356,-0.2724 1.02608,0.53061 1.12113,1.01773 0.96744,4.95792 l -0.12912,3.31017 0.77389,0.57216 0.77388,0.57215 -0.0692,10.50353 -0.0692,10.50353 -0.76284,0.36555 c -0.60635,0.29057 -0.97075,0.30326 -1.77644,0.0619 l -1.01362,-0.30369 -0.0756,-2.56244 -0.0756,-2.56246 -3.30729,-1.41099 c -4.39577,-1.87537 -6.4716,-2.70786 -6.76764,-2.7141 -0.1341,-0.003 -2.41671,0.9061 -5.07247,2.01984 l -4.828643,2.02498 v 2.47128 c 0,2.46902 -7.94e-4,2.47165 -0.780611,2.87495 -0.899216,0.465 -1.489081,0.48546 -2.328244,0.0807 z m 0.787623,-10.49894 c -0.06165,-8.55413 -0.129715,-10.05036 -0.463021,-10.17825 -0.340299,-0.13059 -0.390747,1.12311 -0.390747,9.7107 0,9.54745 0.07048,10.49527 0.78052,10.49576 0.08004,6e-5 0.112999,-4.51264 0.07325,-10.02821 z m 1.108966,9.86751 c 0.371436,-0.14253 0.418516,-1.28753 0.418516,-10.17815 0,-8.72597 -0.05038,-9.99823 -0.390748,-9.86761 -0.333306,0.12789 -0.40137,1.62412 -0.463021,10.17825 -0.03975,5.51557 -0.05224,10.02827 -0.02777,10.02821 0.02447,-6e-5 0.232839,-0.0724 0.463021,-0.1607 z m 22.908097,-9.75197 c 0,-9.64177 -0.0145,-9.9203 -0.52917,-10.19576 -0.52477,-0.28085 -0.52916,-0.20122 -0.52916,9.59506 0,9.7466 0.0617,10.51327 0.84666,10.51327 0.11642,0 0.21167,-4.46066 0.21167,-9.91257 z m 1.32292,-0.42618 c 0,-8.7958 -0.0484,-9.99899 -0.39688,-9.86527 -0.34311,0.13167 -0.39687,1.50944 -0.39687,10.16986 0,8.79579 0.0484,9.99898 0.39687,9.86526 0.34311,-0.13167 0.39688,-1.50944 0.39688,-10.16985 z m -17.97,2.50988 c 2.80866,-1.18965 4.74083,-2.15348 4.74083,-2.36488 0,-0.24737 -0.87257,0.01 -2.84427,0.83893 -1.56435,0.65768 -3.767,1.57299 -4.89479,2.03404 -1.127787,0.46105 -2.050521,0.98714 -2.050521,1.16911 0,0.18196 0.06928,0.33084 0.153961,0.33084 0.08468,0 2.28733,-0.90362 4.89479,-2.00804 z m 15.01267,1.735 c -0.0963,-0.28902 -9.11024,-4.22488 -9.67581,-4.22488 -1.0075,0 0.1534,0.65568 4.36491,2.46531 4.68097,2.01136 5.48345,2.27723 5.3109,1.75957 z m 0.0249,-1.14652 c -0.18126,-0.15888 -4.67433,-2.11588 -7.65088,-3.33241 -1.52797,-0.62448 -3.96875,-1.64509 -5.42396,-2.26802 -5.08326,-2.17599 -6.775422,-2.82924 -6.929558,-2.6751 -0.0854,0.0854 0.188651,0.28478 0.609016,0.44306 2.094432,0.78862 8.304382,3.53584 8.300632,3.67211 -0.002,0.0858 -1.40135,0.74412 -3.10886,1.46298 -5.092117,2.14379 -5.955537,2.54478 -5.804579,2.69573 0.07913,0.0791 2.257729,-0.75934 4.841319,-1.86329 2.58359,-1.10394 4.82597,-2.00717 4.98307,-2.00717 0.15711,0 2.48793,0.93685 5.1796,2.08188 4.16545,1.77199 5.54733,2.26635 5.00419,1.79023 z m -16.92823,-2.27467 c 2.7299,-1.1806 2.96273,-1.33344 2.38124,-1.5632 -0.35448,-0.14005 -1.50771,-0.61502 -2.56273,-1.05548 l -1.918238,-0.80083 v 1.49641 c 0,1.30332 -0.09086,1.56885 -0.704138,2.05787 -0.408782,0.32595 -0.624195,0.69081 -0.513551,0.86983 0.104822,0.16961 0.213325,0.30738 0.241117,0.30616 0.02779,-0.001 1.412121,-0.59106 3.07629,-1.31076 z m 16.95027,0.80164 c 0,-0.28124 -0.23813,-0.58692 -0.52917,-0.67929 -0.45692,-0.14502 -0.52916,-0.40032 -0.52916,-1.86991 0,-0.93608 -0.0334,-1.70196 -0.0742,-1.70196 -0.0408,0 -1.02307,0.39632 -2.18282,0.88071 -1.15974,0.4844 -2.34592,0.96802 -2.63595,1.07471 -0.52847,0.1944 0.23361,0.59482 4.36378,2.29283 1.50991,0.62076 1.5875,0.6209 1.5875,0.003 z m -19.843748,-3.07615 c 0,-1.08957 -0.09847,-1.67456 -0.264583,-1.57189 -0.145521,0.0899 -0.264584,0.87087 -0.264584,1.73541 0,0.87153 0.117885,1.57188 0.264584,1.57188 0.149497,0 0.264583,-0.75486 0.264583,-1.7354 z m 19.843748,0.0156 c 0,-0.97014 -0.11533,-1.7198 -0.26458,-1.7198 -0.14926,0 -0.26459,0.74966 -0.26459,1.7198 0,0.97014 0.11533,1.71979 0.26459,1.71979 0.14925,0 0.26458,-0.74965 0.26458,-1.71979 z m -12.43542,0.43298 c 0,-0.20106 -7.354176,-3.47569 -7.805719,-3.47569 -0.09673,0 -0.13072,0.13546 -0.07553,0.30102 0.101155,0.30347 6.935679,3.37499 7.550519,3.3933 0.1819,0.005 0.33073,-0.093 0.33073,-0.21863 z m 9.92188,-1.79609 c 1.16416,-0.50881 2.22779,-1.03336 2.36361,-1.16565 0.69085,-0.67295 -0.3895,-0.36584 -3.92131,1.1147 -2.35111,0.98558 -3.76388,1.71069 -3.56843,1.83148 0.33545,0.20732 1.51669,-0.20298 5.12613,-1.78053 z m -2.7156,-0.0995 c 2.07566,-0.8772 4.05721,-1.71509 4.40343,-1.86198 0.34623,-0.1469 0.5651,-0.33149 0.48639,-0.41021 -0.18466,-0.18466 -8.91207,3.40592 -8.91721,3.66867 -0.006,0.30628 0.0178,0.29803 4.02739,-1.39648 z m -0.0625,-1.11428 4.10104,-1.70436 0.0777,-1.58771 c 0.0522,-1.06671 -0.0346,-1.67365 -0.26459,-1.84959 -0.18824,-0.14404 -2.22532,-1.01073 -4.52683,-1.92598 l -4.18457,-1.6641 -4.41439,1.71747 -4.414386,1.71748 -0.07054,1.82018 -0.07054,1.82018 4.303866,1.78535 c 2.36714,0.98194 4.542,1.73811 4.83304,1.68039 0.29105,-0.0577 2.37464,-0.87191 4.63021,-1.80931 z m -14.552138,-3.39184 c 0,-1.00137 -0.09931,-1.54173 -0.264583,-1.43959 -0.145521,0.0899 -0.264584,0.81134 -0.264584,1.60311 0,0.79178 0.119063,1.4396 0.264584,1.4396 0.147277,0 0.264583,-0.71076 0.264583,-1.60312 z m 19.843748,0.0156 c 0,-0.88195 -0.11759,-1.5875 -0.26458,-1.5875 -0.147,0 -0.26459,0.70555 -0.26459,1.5875 0,0.88194 0.11759,1.5875 0.26459,1.5875 0.14699,0 0.26458,-0.70556 0.26458,-1.5875 z m -11.70781,-5.50594 c 0.61846,-0.23597 1.12448,-0.58195 1.12448,-0.76884 0,-0.44734 -0.0328,-0.44212 -1.79391,0.28529 -0.83236,0.34381 -2.9719,1.18725 -4.75453,1.87433 -3.024975,1.16591 -3.466083,1.42077 -3.097283,1.78957 0.07912,0.0791 1.775763,-0.50755 3.770313,-1.30373 1.99454,-0.79617 4.13246,-1.64065 4.75093,-1.87662 z m 11.70781,3.01962 c 0,-0.23358 -1.76145,-1.06144 -4.78518,-2.24896 -4.98231,-1.95673 -5.37887,-2.07667 -5.21209,-1.57634 0.082,0.24591 9.10845,4.08826 9.79883,4.17113 0.10914,0.0131 0.19844,-0.14252 0.19844,-0.34583 z m -21.431248,-0.71699 c 0,-0.27852 -0.316095,-0.30143 -0.926587,-0.0672 -0.328409,0.12603 -0.356891,0.22091 -0.111778,0.3724 0.380367,0.23508 1.038365,0.0417 1.038365,-0.30523 z m 23.812498,0 c 0,-0.12995 -0.29766,-0.23628 -0.66146,-0.23628 -0.68761,0 -0.90752,0.39924 -0.33073,0.60044 0.42549,0.14842 0.99219,-0.0596 0.99219,-0.36416 z m -19.54206,-1.52079 c 1.7986,-0.70648 4.11236,-1.61001 5.14167,-2.00784 l 1.87149,-0.72332 5.07851,2.00783 c 2.79318,1.10431 5.19546,2.00784 5.33841,2.00784 1.29147,0 -1.71641,-1.37822 -7.8099,-3.57852 -1.87655,-0.6776 -1.92592,-0.80823 -0.48678,-1.28779 3.25829,-1.08574 7.8536,-3.05296 7.47284,-3.19907 -0.22601,-0.0867 -0.99736,0.0965 -1.71412,0.40709 -0.71675,0.31063 -2.19616,0.90414 -3.28756,1.31889 -1.09141,0.41477 -2.87735,1.0995 -3.96875,1.52165 -1.09141,0.42214 -3.88938,1.49015 -6.21771,2.37335 -2.32833,0.8832 -4.441007,1.68792 -4.694832,1.78826 -0.253825,0.10033 -0.395626,0.28901 -0.315113,0.41928 0.194987,0.3155 -0.0906,0.3988 3.591845,-1.04765 z m -4.064328,-3.15687 c -0.05262,-2.36688 -0.168804,-3.35209 -0.404548,-3.43038 -0.253716,-0.0843 -0.330729,0.7251 -0.330729,3.47578 0,3.10874 0.0538,3.56498 0.404548,3.43039 0.3389,-0.13005 0.392568,-0.69406 0.330729,-3.47579 z m 22.812638,0.0841 c 0,-3.05891 -0.0562,-3.542 -0.39688,-3.41128 -0.32303,0.12397 -0.39687,0.75826 -0.39687,3.40924 0,3.07461 0.0528,3.33161 0.7276,3.54472 0.0364,0.0115 0.0662,-1.58272 0.0662,-3.54268 z m -21.431248,0.62485 c 0,-1.67993 -0.07762,-2.08836 -0.396875,-2.08836 -0.321535,0 -0.396875,0.42535 -0.396875,2.24066 0,1.88298 0.06335,2.21634 0.396875,2.08835 0.306393,-0.11757 0.396875,-0.62841 0.396875,-2.24065 z m 20.108328,0.0127 c 0,-1.69122 -0.0774,-2.10106 -0.39687,-2.10106 -0.319,0 -0.39688,0.40667 -0.39688,2.07257 0,1.13991 0.0761,2.14871 0.1692,2.24176 0.42629,0.42629 0.62455,-0.27631 0.62455,-2.21328 z m -15.14098,0.16354 c 0.0677,-0.0677 -1.14933,-0.59369 -3.842869,-1.66099 -0.244165,-0.0968 -0.330729,0.32044 -0.330729,1.5939 v 1.72495 l 2.045538,-0.78766 c 1.12504,-0.43321 2.08267,-0.8248 2.12806,-0.8702 z m 13.81807,-0.0156 c 0,-0.94589 -0.0985,-1.71979 -0.21897,-1.71979 -0.12043,0 -0.92411,0.27995 -1.78594,0.62213 -0.86183,0.34217 -1.8027,0.70612 -2.09082,0.80879 -0.41159,0.14665 -0.0714,0.37502 1.5875,1.06559 1.16124,0.48341 2.20065,0.89336 2.30979,0.911 0.10914,0.0177 0.19844,-0.74184 0.19844,-1.68772 z m -11.80906,-0.58227 c 0.13409,-0.13409 -7.216057,-3.23686 -7.703962,-3.25212 -0.03638,-0.001 -0.06615,0.15896 -0.06615,0.35577 0,0.21196 1.375222,0.90405 3.373442,1.6977 3.41567,1.35664 4.06238,1.53295 4.39667,1.19865 z m 9.68152,-1.18315 c 2.18472,-0.86652 3.45045,-1.50777 3.45045,-1.7481 0,-0.20875 -0.14883,-0.31872 -0.33073,-0.24436 -0.1819,0.0744 -1.90702,0.75538 -3.8336,1.5134 -1.92657,0.75802 -3.43759,1.48383 -3.35782,1.61291 0.22777,0.36854 0.41577,0.31619 4.0717,-1.13385 z m -7.92663,0.61709 c 0,-0.33537 -8.450152,-3.52332 -8.787104,-3.31507 -0.268036,0.16566 7.698054,3.48212 8.456374,3.52058 0.1819,0.009 0.33073,-0.0832 0.33073,-0.20551 z m -9.128123,-3.74646 c -0.08994,-0.14552 -0.394621,-0.26459 -0.677074,-0.26459 -0.282453,0 -0.513551,0.11907 -0.513551,0.26459 0,0.14552 0.304683,0.26458 0.677074,0.26458 0.384006,0 0.606293,-0.11452 0.513551,-0.26458 z m 21.298953,0 c 0,-0.14552 -0.23812,-0.26459 -0.52916,-0.26459 -0.29105,0 -0.52917,0.11907 -0.52917,0.26459 0,0.14552 0.23812,0.26458 0.52917,0.26458 0.29104,0 0.52916,-0.11906 0.52916,-0.26458 z"
       style="fill:#28220b;stroke-width:0.264583"
       id="path1" />
  </g>
</svg>
